<svg xmlns="https://www.w3.org/2000/svg" width="6" height="10" viewBox="0 0 6 10"><g fill="none" fill-rule="evenodd"><g fill="#8B8B8B" fill-rule="nonzero"><g><g><g><path d="M5.287 8.726L.66 4.113c-.151-.151-.396-.15-.548 0-.15.152-.15.398.001.55L4.464 9l-4.35 4.338c-.152.151-.152.397 0 .548.075.076.174.114.274.114.099 0 .198-.038.273-.113l4.626-4.613C5.36 9.202 5.4 9.103 5.4 9c0-.103-.041-.202-.114-.274z" transform="translate(-16 -10519) translate(0 9171) translate(0 1074) translate(16 270)"></path></g></g></g></g></g></svg>