<svg width="209" height="215" viewBox="0 0 209 215" fill="none" xmlns="http://www.w3.org/2000/svg">
<g id="Frame 75873" clip-path="url(#clip0_300_4059)">
<g id="Group">
<path id="Vector" d="M104.827 38.302C96.6801 37.4524 88.6833 39.7151 81.3933 43.2343C74.7754 46.4292 68.5776 50.568 62.9675 55.3082C52.4358 64.2067 43.6122 75.7509 39.5529 89.0586C35.4826 102.402 37.1368 116.481 43.611 128.779C50.405 141.685 61.4998 151.992 73.9602 159.352C87.6021 167.409 103.169 172.176 118.983 173.132C133.466 174.007 148.954 171.687 161.109 163.275C172.196 155.603 178.703 143.314 180.442 130.09C182.238 116.425 179.066 102.692 172.275 90.7812C165.067 78.1365 154.357 67.7956 142.552 59.4439C129.696 50.349 114.751 42.3534 98.7728 41.1936C94.9226 40.914 91.0719 41.0951 87.2627 41.7129C86.6726 41.809 86.9233 42.7063 87.5103 42.6115C103.765 39.9745 119.823 46.3601 133.512 54.639C145.622 61.9629 156.942 71.0646 165.568 82.3659C173.919 93.3069 179.46 106.284 179.97 120.146C180.447 133.084 176.724 146.486 167.868 156.179C158.048 166.927 143.337 171.498 129.154 172.256C113.901 173.071 98.3734 169.939 84.4491 163.721C59.4525 152.557 35.3823 128.569 38.4491 99.0582C39.8666 85.4183 46.9462 72.9346 56.1839 63.0396C60.8761 58.0138 66.1768 53.563 71.9018 49.7594C78.376 45.4584 85.4776 41.7307 93.0984 39.9904C96.9547 39.1095 100.89 38.8244 104.826 39.2349C105.423 39.2961 105.419 38.3638 104.827 38.302Z" fill="#7E9BED"/>
</g>
<g id="Group_2">
<path id="Vector_2" d="M110.993 176.264C102.671 179.152 93.6263 177.862 85.1353 176.484C77.0088 175.165 68.9532 173.268 61.2082 170.452C46.572 165.129 33.017 156.199 24.2294 143.119C16.0901 131.004 13.3376 116.423 16.8973 102.234C20.3518 88.4623 28.8715 76.1431 39.8055 67.2146C64.9422 46.6881 100.814 45.2824 131.589 49.1472C140.569 50.2752 149.483 52.0198 158.185 54.5205C165.475 56.6156 173.046 59.1132 179.026 63.9518C185.338 69.0589 188.425 76.5126 188.173 84.5792C187.911 92.9633 184.249 100.702 179.563 107.502C170.805 120.21 159.289 131.398 147.157 140.859C134.946 150.381 121.457 158.29 107.162 164.243C103.724 165.674 100.24 166.986 96.7175 168.194C96.1537 168.387 96.3959 169.287 96.9652 169.092C127.154 158.743 154.379 140.015 174.706 115.388C184.422 103.616 193.979 87.2634 186.584 71.8361C183.401 65.1948 177.182 60.8156 170.622 57.8897C162.752 54.3792 154.181 52.2418 145.762 50.5284C128.632 47.0423 110.743 45.6641 93.2997 47.0827C77.2503 48.3881 61.204 52.3923 47.3285 60.7831C22.9569 75.5216 6.49712 106.642 18.4218 134.437C24.4453 148.476 36.197 159.415 49.5936 166.384C57.0805 170.278 65.1104 173.059 73.298 175.054C81.6594 177.092 90.4818 178.771 99.1098 178.914C103.23 178.982 107.334 178.518 111.24 177.162C111.803 176.967 111.562 176.067 110.993 176.264Z" fill="#7E9BED"/>
</g>
<path id="Vector_3" d="M42.601 92.1082C44.4196 90.2891 44.4196 87.3398 42.601 85.5207C40.7825 83.7016 37.834 83.7016 36.0154 85.5207C34.1969 87.3398 34.1969 90.2891 36.0154 92.1082C37.834 93.9274 40.7825 93.9274 42.601 92.1082Z" fill="#7E9BED"/>
<path id="Vector_4" d="M49.549 38.1972C49.549 39.7406 48.2979 40.9921 46.755 40.9921C45.2121 40.9921 43.9609 39.7406 43.9609 38.1972C43.9609 36.6539 45.2121 35.4023 46.755 35.4023C48.2979 35.4023 49.549 36.6533 49.549 38.1972Z" fill="#7E9BED"/>
<path id="Vector_5" d="M34.6506 131.67C34.6506 133.213 33.3994 134.465 31.8565 134.465C30.3137 134.465 29.0625 133.213 29.0625 131.67C29.0625 130.127 30.3137 128.875 31.8565 128.875C33.3994 128.875 34.6506 130.127 34.6506 131.67Z" fill="#7E9BED"/>
<path id="Vector_6" d="M152.308 86.486C152.308 87.7724 151.266 88.8148 149.98 88.8148C148.694 88.8148 147.652 87.7718 147.652 86.486C147.652 85.1996 148.695 84.1572 149.98 84.1572C151.266 84.1572 152.308 85.1996 152.308 86.486Z" fill="#7E9BED"/>
<path id="Vector_7" d="M71.9038 85.2442C71.9038 85.8443 71.417 86.3312 70.8171 86.3312C70.2172 86.3312 69.7305 85.8443 69.7305 85.2442C69.7305 84.6442 70.2172 84.1572 70.8171 84.1572C71.4177 84.1572 71.9038 84.6435 71.9038 85.2442Z" fill="#7E9BED"/>
<path id="Vector_8" d="M142.372 24.0663C142.372 25.0095 141.607 25.7742 140.664 25.7742C139.721 25.7742 138.957 25.0095 138.957 24.0663C138.957 23.123 139.721 22.3584 140.664 22.3584C141.607 22.3584 142.372 23.123 142.372 24.0663Z" fill="#7E9BED"/>
<path id="Vector_9" d="M142.372 162.568C142.372 163.511 141.607 164.276 140.664 164.276C139.721 164.276 138.957 163.511 138.957 162.568C138.957 161.625 139.721 160.86 140.664 160.86C141.607 160.86 142.372 161.625 142.372 162.568Z" fill="#E9FBFF"/>
<path id="Vector_10" d="M208.502 124.839C208.502 127.069 206.695 128.876 204.466 128.876C202.237 128.876 200.43 127.069 200.43 124.839C200.43 122.609 202.237 120.802 204.466 120.802C206.695 120.802 208.502 122.609 208.502 124.839Z" fill="#7E9BED"/>
<path id="Vector_11" d="M7.94765 161.483C10.3479 161.483 12.2937 159.537 12.2937 157.135C12.2937 154.734 10.3479 152.788 7.94765 152.788C5.54737 152.788 3.60156 154.734 3.60156 157.135C3.60156 159.537 5.54737 161.483 7.94765 161.483Z" fill="#7E9BED"/>
<path id="Vector_12" d="M3.91474 61.0214C3.91474 61.9646 3.15034 62.7293 2.20737 62.7293C1.2644 62.7293 0.5 61.9646 0.5 61.0214C0.5 60.0781 1.2644 59.3135 2.20737 59.3135C3.15034 59.3135 3.91474 60.0781 3.91474 61.0214Z" fill="#7E9BED"/>
<path id="Vector_13" d="M133.993 218C135.879 218 137.408 216.47 137.408 214.584C137.408 212.697 135.879 211.168 133.993 211.168C132.107 211.168 130.578 212.697 130.578 214.584C130.578 216.47 132.107 218 133.993 218Z" fill="#E9FBFF"/>
<path id="Vector_14" d="M180.868 75.1507C183.097 75.1507 184.904 73.3432 184.904 71.1135C184.904 68.8837 183.097 67.0762 180.868 67.0762C178.639 67.0762 176.832 68.8837 176.832 71.1135C176.832 73.3432 178.639 75.1507 180.868 75.1507Z" fill="#7E9BED"/>
<g id="Group_3">
<path id="Vector_15" d="M66.5692 145.39L69.7583 142.78C68.3365 139.529 64.9255 138.983 63.0083 138.947L59.7422 140.646C60.6864 145.386 66.5692 145.39 66.5692 145.39Z" fill="#00144C"/>
<path id="Vector_16" d="M93.0975 142.055C93.0975 142.055 87.8788 138.865 84.3998 142.925C84.3998 142.925 81.2107 140.314 75.7015 144.375L73.6719 145.245C73.6719 145.245 79.1805 149.595 85.2694 146.405C85.2694 146.405 94.8373 147.855 95.1272 145.245C95.417 142.635 93.0975 142.055 93.0975 142.055Z" fill="#00144C"/>
<g id="Group_4">
<path id="Vector_17" d="M109.772 83.0352C109.772 83.0352 126.589 75.7846 129.778 61.5734C132.967 47.3621 120.79 31.7012 120.79 31.7012C120.79 31.7012 70.3414 74.9141 81.3586 83.905C87.0421 88.543 109.772 86.5152 109.772 86.5152" fill="#00144C"/>
<g id="Clip path group">
<mask id="mask0_300_4059" style="mask-type:luminance" maskUnits="userSpaceOnUse" x="79" y="31" width="52" height="56">
<g id="XMLID_00000152974849327541733730000010178207076561203094_">
<path id="Vector_18" d="M109.769 83.0352C109.769 83.0352 126.585 75.7846 129.774 61.5734C132.963 47.3621 120.786 31.7012 120.786 31.7012C120.786 31.7012 70.3375 74.9141 81.3547 83.905C87.0382 88.543 109.768 86.5152 109.768 86.5152" fill="white"/>
</g>
</mask>
<g mask="url(#mask0_300_4059)">
<path id="Vector_19" opacity="0.22" d="M89.7623 67.0842C89.7623 67.0842 95.2709 81.0055 105.418 80.4249C115.566 79.845 122.707 66.8927 123.341 60.3181C123.975 53.7434 88.6028 59.8336 89.7623 67.0842Z" fill="#00144C"/>
</g>
</g>
</g>
<g id="Group_5">
<path id="Vector_20" d="M77.7857 96.1506C77.8126 96.7299 76.5541 100.853 75.3176 111.654C74.0811 122.454 67.8075 137.264 67.8888 139.003C67.9701 140.741 63.983 142.379 60.8465 149.784C57.7094 157.189 50.9894 162.439 49.3193 163.969C49.3193 163.969 45.7896 162.972 42.0385 163.439C38.2868 163.905 34.7577 162.908 34.1242 161.777C34.1242 161.777 32.4541 163.306 33.9701 164.687C35.4861 166.068 38.9069 164.746 39.8572 166.444C40.8075 168.141 38.6122 170.857 36.5446 170.083C34.4764 169.309 33.8294 167.888 33.4992 167.032C33.169 166.176 34.4544 162.632 31.8071 161.885C31.8071 161.885 31.017 166.712 31.3607 167.858C31.3607 167.858 27.6959 163.964 25.75 165.797C25.75 165.797 29.3745 168.822 29.7047 169.677C29.7047 169.677 26.7407 168.363 25.953 170.143C25.953 170.143 28.6407 171.759 29.813 171.995C30.9853 172.23 31.8677 172.479 32.4872 173.321C32.4872 173.321 29.2742 172.891 29.0663 174.643C29.0663 174.643 32.2523 174.493 33.7273 175.005C35.2023 175.517 40.7323 175.839 42.7057 174.585C44.6791 173.332 71.8454 158.415 77.8701 144.487C77.8701 144.487 85.1313 119.759 85.1497 113.951" fill="#F4A082"/>
<g id="Clip path group_2">
<mask id="mask1_300_4059" style="mask-type:luminance" maskUnits="userSpaceOnUse" x="25" y="96" width="61" height="80">
<g id="XMLID_00000027600969586448790210000014701976680505684134_">
<path id="Vector_21" d="M77.7857 96.1504C77.8126 96.7297 76.5541 100.853 75.3176 111.654C74.0811 122.454 67.8075 137.264 67.8888 139.002C67.9701 140.74 63.983 142.379 60.8465 149.784C57.7094 157.189 50.9894 162.439 49.3193 163.969C49.3193 163.969 45.7896 162.972 42.0385 163.438C38.2868 163.904 34.7577 162.908 34.1242 161.776C34.1242 161.776 32.4541 163.306 33.9701 164.687C35.4861 166.067 38.9069 164.746 39.8572 166.444C40.8075 168.141 38.6122 170.857 36.5446 170.083C34.4764 169.308 33.8294 167.887 33.4992 167.032C33.169 166.176 34.4544 162.632 31.8071 161.885C31.8071 161.885 31.017 166.712 31.3607 167.857C31.3607 167.857 27.6959 163.964 25.75 165.797C25.75 165.797 29.3745 168.821 29.7047 169.677C29.7047 169.677 26.7407 168.363 25.953 170.143C25.953 170.143 28.6407 171.759 29.813 171.994C30.9853 172.23 31.8677 172.479 32.4872 173.321C32.4872 173.321 29.2742 172.89 29.0663 174.642C29.0663 174.642 32.2523 174.493 33.7273 175.005C35.2023 175.517 40.7323 175.839 42.7057 174.585C44.6791 173.332 71.8454 158.414 77.8701 144.487C77.8701 144.487 85.1313 119.759 85.1497 113.951" fill="white"/>
</g>
</mask>
<g mask="url(#mask1_300_4059)">
<path id="Vector_22" opacity="0.21" d="M72.3672 125.088C72.3672 125.088 78.4555 137.559 86.2842 142.489C94.1123 147.419 82.5148 116.097 72.3672 125.088Z" fill="#D18161"/>
</g>
</g>
</g>
<g id="Group_6">
<path id="Vector_23" d="M135.571 97.2452C135.54 97.8245 136.284 99.5379 137.441 110.347C138.599 121.156 144.764 136.012 144.67 137.75C144.576 139.487 148.551 141.154 151.634 148.582C154.716 156.01 161.398 161.31 163.057 162.852C163.057 162.852 166.594 161.881 170.341 162.374C174.089 162.868 177.626 161.897 178.268 160.771C178.268 160.771 179.927 162.313 178.4 163.682C176.875 165.052 173.463 163.706 172.5 165.396C171.538 167.087 173.713 169.818 175.787 169.059C177.86 168.3 178.518 166.883 178.854 166.03C179.191 165.177 177.931 161.623 180.584 160.895C180.584 160.895 181.338 165.728 180.987 166.871C180.987 166.871 184.68 163.005 186.613 164.852C186.613 164.852 182.966 167.849 182.63 168.703C182.63 168.703 185.603 167.411 186.378 169.196C186.378 169.196 183.679 170.792 182.504 171.019C181.331 171.246 180.447 171.489 179.82 172.326C179.82 172.326 183.036 171.92 183.232 173.673C183.232 173.673 180.047 173.5 178.569 174.001C177.09 174.502 171.558 174.784 169.594 173.516C167.63 172.247 140.573 157.133 134.65 143.161C134.65 143.161 127.57 118.381 127.594 112.573" fill="#F4A082"/>
<g id="Clip path group_3">
<mask id="mask2_300_4059" style="mask-type:luminance" maskUnits="userSpaceOnUse" x="127" y="97" width="60" height="78">
<g id="XMLID_00000131363400513215211350000014062282025658153914_">
<path id="Vector_24" d="M135.571 97.2452C135.54 97.8245 136.284 99.5379 137.441 110.347C138.599 121.156 144.764 136.012 144.67 137.75C144.576 139.487 148.551 141.154 151.634 148.582C154.716 156.01 161.398 161.31 163.057 162.852C163.057 162.852 166.594 161.881 170.341 162.374C174.089 162.868 177.626 161.897 178.268 160.771C178.268 160.771 179.927 162.313 178.4 163.682C176.875 165.052 173.463 163.706 172.5 165.396C171.538 167.087 173.713 169.818 175.787 169.059C177.86 168.3 178.518 166.883 178.854 166.03C179.191 165.177 177.931 161.623 180.584 160.895C180.584 160.895 181.338 165.728 180.987 166.871C180.987 166.871 184.68 163.005 186.613 164.852C186.613 164.852 182.966 167.849 182.63 168.703C182.63 168.703 185.603 167.411 186.378 169.196C186.378 169.196 183.679 170.792 182.504 171.019C181.331 171.246 180.447 171.489 179.82 172.326C179.82 172.326 183.036 171.92 183.232 173.673C183.232 173.673 180.047 173.5 178.569 174.001C177.09 174.502 171.558 174.784 169.594 173.516C167.63 172.247 140.573 157.133 134.65 143.161C134.65 143.161 127.57 118.381 127.594 112.573" fill="white"/>
</g>
</mask>
<g mask="url(#mask2_300_4059)">
<path id="Vector_25" opacity="0.21" d="M134.702 148.289C134.702 148.289 140.211 139.009 145.139 137.849C150.068 136.688 132.093 126.248 134.702 148.289Z" fill="#D18161"/>
</g>
</g>
</g>
<g id="Group_7">
<path id="Vector_26" d="M89.7658 154.09L84.2573 114.647L77.3599 98.3753C77.3776 98.3655 76.0139 94.253 91.5056 86.8048C107.167 79.2747 134.705 88.2552 135.715 98.1735C136.828 109.103 128.907 112.617 128.907 112.617L122.819 154.09C122.819 154.09 108.612 161.34 89.7658 154.09Z" fill="#F4A082"/>
<g id="Clip path group_4">
<mask id="mask3_300_4059" style="mask-type:luminance" maskUnits="userSpaceOnUse" x="77" y="84" width="59" height="74">
<g id="XMLID_00000005228450248680017190000015934247154525898121_">
<path id="Vector_27" d="M89.7658 154.09L84.2573 114.647L77.3599 98.3753C77.3776 98.3655 76.0139 94.253 91.5056 86.8048C107.167 79.2747 134.705 88.2552 135.715 98.1735C136.828 109.103 128.907 112.617 128.907 112.617L122.819 154.09C122.819 154.09 108.612 161.34 89.7658 154.09Z" fill="white"/>
</g>
</mask>
<g mask="url(#mask3_300_4059)">
<path id="Vector_28" opacity="0.21" d="M86.2855 142.489C86.2047 143.132 113.016 161.031 125.89 151.18C138.763 141.329 88.8948 121.607 86.2855 142.489Z" fill="#D18161"/>
</g>
</g>
</g>
<g id="Group_8">
<path id="Vector_29" d="M93.16 86.7637C92.6787 88.211 101.329 77.7961 100.512 62.7333H110.297C110.297 62.7333 110.309 81.4822 120.214 87.3338C120.214 87.3338 104.627 101.804 93.16 86.7637Z" fill="#F4A082"/>
<g id="Clip path group_5">
<mask id="mask4_300_4059" style="mask-type:luminance" maskUnits="userSpaceOnUse" x="93" y="62" width="28" height="32">
<g id="XMLID_00000155844645568369809690000014770476853822224822_">
<path id="Vector_30" d="M93.1639 86.7628C92.6826 88.2101 101.333 77.7951 100.516 62.7324H110.301C110.301 62.7324 110.313 81.4813 120.218 87.3329C120.218 87.3329 104.631 101.803 93.1639 86.7628Z" fill="white"/>
</g>
</mask>
<g mask="url(#mask4_300_4059)">
<path id="Vector_31" opacity="0.34" d="M105.285 80.4251C110.169 80.4251 114.128 77.2438 114.128 73.3195C114.128 69.3952 110.169 66.2139 105.285 66.2139C100.401 66.2139 96.4414 69.3952 96.4414 73.3195C96.4414 77.2438 100.401 80.4251 105.285 80.4251Z" fill="#D18161"/>
</g>
</g>
</g>
<g id="Mask group">
<mask id="mask5_300_4059" style="mask-type:alpha" maskUnits="userSpaceOnUse" x="44" y="148" width="121" height="53">
<path id="Subtract" d="M135.834 153.894C130.5 155.595 124.992 148 114.5 148C70 149 87.5176 161.763 78.7812 155.595L44.6445 174.639C59.2838 190.828 80.4532 201 103.998 201C128.082 201 149.68 190.357 164.347 173.519L135.834 153.894Z" fill="#D9D9D9"/>
</mask>
<g mask="url(#mask5_300_4059)">
<g id="Group 75199">
<g id="Group_9">
<path id="Vector_32" d="M90.3465 152.93C90.3465 152.93 79.3293 169.751 78.7489 172.361C78.7489 172.361 41.3476 174.391 32.6499 178.161C23.9522 181.932 20.7625 193.243 28.3007 199.043C35.839 204.843 85.9973 206.873 99.9144 201.943C99.9144 201.943 171.818 211.514 183.995 197.592C196.172 183.672 161.96 170.04 132.967 171.491C132.967 171.491 122.82 151.479 117.311 148.869C111.801 146.26 90.3465 152.93 90.3465 152.93Z" fill="#4865B6"/>
<g id="Clip path group_6">
<mask id="mask6_300_4059" style="mask-type:luminance" maskUnits="userSpaceOnUse" x="24" y="148" width="163" height="58">
<g id="XMLID_00000076567878432180711730000013943509931117179070_">
<path id="Vector_33" d="M90.3465 152.93C90.3465 152.93 79.3293 169.751 78.749 172.361C78.749 172.361 41.3476 174.392 32.65 178.162C23.9523 181.932 20.7626 193.243 28.3008 199.043C35.839 204.843 85.9974 206.873 99.9144 201.943C99.9144 201.943 171.818 211.514 183.995 197.593C196.172 183.672 161.96 170.041 132.967 171.491C132.967 171.491 122.82 151.48 117.311 148.869C111.801 146.26 90.3465 152.93 90.3465 152.93Z" fill="white"/>
</g>
</mask>
<g mask="url(#mask6_300_4059)">
<path id="Vector_34" opacity="0.23" d="M104.726 202.524C104.726 202.524 90.3483 201.363 77.3008 192.083C77.3008 192.083 85.4188 203.394 94.6968 205.134C103.975 206.874 104.726 202.524 104.726 202.524Z" fill="#4865B6"/>
</g>
</g>
<g id="Clip path group_7">
<mask id="mask7_300_4059" style="mask-type:luminance" maskUnits="userSpaceOnUse" x="24" y="148" width="163" height="58">
<g id="XMLID_00000076567878432180711730000013943509931117179070__2">
<path id="Vector_35" d="M90.3465 152.93C90.3465 152.93 79.3293 169.751 78.749 172.361C78.749 172.361 41.3476 174.392 32.65 178.162C23.9523 181.932 20.7626 193.243 28.3008 199.043C35.839 204.843 85.9974 206.873 99.9144 201.943C99.9144 201.943 171.818 211.514 183.995 197.593C196.172 183.672 161.96 170.041 132.967 171.491C132.967 171.491 122.82 151.48 117.311 148.869C111.801 146.26 90.3465 152.93 90.3465 152.93Z" fill="white"/>
</g>
</mask>
<g mask="url(#mask7_300_4059)">
<path id="Vector_36" opacity="0.23" d="M50.0453 179.032C49.4937 179.639 46.5663 181.063 49.4656 182.223C52.3648 183.382 68.3115 192.083 72.3702 190.923C76.4294 189.763 52.9451 175.842 50.0453 179.032Z" fill="#4865B6"/>
</g>
</g>
<g id="Clip path group_8">
<mask id="mask8_300_4059" style="mask-type:luminance" maskUnits="userSpaceOnUse" x="24" y="148" width="163" height="58">
<g id="XMLID_00000076567878432180711730000013943509931117179070__3">
<path id="Vector_37" d="M90.3465 152.93C90.3465 152.93 79.3293 169.751 78.749 172.361C78.749 172.361 41.3476 174.392 32.65 178.162C23.9523 181.932 20.7626 193.243 28.3008 199.043C35.839 204.843 85.9974 206.873 99.9144 201.943C99.9144 201.943 171.818 211.514 183.995 197.593C196.172 183.672 161.96 170.041 132.967 171.491C132.967 171.491 122.82 151.48 117.311 148.869C111.801 146.26 90.3465 152.93 90.3465 152.93Z" fill="white"/>
</g>
</mask>
<g mask="url(#mask8_300_4059)">
<path id="Vector_38" opacity="0.23" d="M135.824 189.431C136.447 189.474 148.914 186.283 154.423 183.963C159.932 181.643 161.092 179.902 162.541 179.902C163.99 179.902 163.7 177.002 159.642 177.292C155.583 177.582 138.767 184.833 138.767 184.833L135.825 189.852" fill="#4865B6"/>
</g>
</g>
<g id="Clip path group_9">
<mask id="mask9_300_4059" style="mask-type:luminance" maskUnits="userSpaceOnUse" x="24" y="148" width="163" height="58">
<g id="XMLID_00000076567878432180711730000013943509931117179070__4">
<path id="Vector_39" d="M90.3465 152.93C90.3465 152.93 79.3293 169.751 78.749 172.361C78.749 172.361 41.3476 174.392 32.65 178.162C23.9523 181.932 20.7626 193.243 28.3008 199.043C35.839 204.843 85.9974 206.873 99.9144 201.943C99.9144 201.943 171.818 211.514 183.995 197.593C196.172 183.672 161.96 170.041 132.967 171.491C132.967 171.491 122.82 151.48 117.311 148.869C111.801 146.26 90.3465 152.93 90.3465 152.93Z" fill="white"/>
</g>
</mask>
<g mask="url(#mask9_300_4059)">
<path id="Vector_40" opacity="0.23" d="M131.809 182.222C131.809 182.222 118.473 185.122 116.443 184.832C114.413 184.543 120.502 172.072 134.708 170.911C134.708 170.911 120.791 170.621 111.514 181.062C102.236 191.503 94.4079 178.452 88.6094 175.552C88.6094 175.552 97.9272 187.306 98.3424 188.824C98.3424 188.824 112.771 186.969 116.927 187.641C116.927 187.641 127.461 187.733 132.535 182.077L131.809 182.222Z" fill="#4865B6"/>
</g>
</g>
<g id="Clip path group_10">
<mask id="mask10_300_4059" style="mask-type:luminance" maskUnits="userSpaceOnUse" x="24" y="148" width="163" height="58">
<g id="XMLID_00000076567878432180711730000013943509931117179070__5">
<path id="Vector_41" d="M90.3465 152.93C90.3465 152.93 79.3293 169.751 78.749 172.361C78.749 172.361 41.3476 174.392 32.65 178.162C23.9523 181.932 20.7626 193.243 28.3008 199.043C35.839 204.843 85.9974 206.873 99.9144 201.943C99.9144 201.943 171.818 211.514 183.995 197.593C196.172 183.672 161.96 170.041 132.967 171.491C132.967 171.491 122.82 151.48 117.311 148.869C111.801 146.26 90.3465 152.93 90.3465 152.93Z" fill="white"/>
</g>
</mask>
<g mask="url(#mask10_300_4059)">
<g id="Group_10">
<g id="Group_11">
<path id="Vector_42" d="M82.1787 187.853C87.5173 190.096 93.1549 189.595 98.7785 188.995C105.517 188.275 112.275 187.771 119.057 187.87C124.075 187.944 129.074 188.18 133.922 189.532C137.326 190.482 140.764 191.475 144.072 192.728C144.334 192.827 144.448 192.407 144.188 192.308C136.742 189.489 129.422 187.774 121.462 187.495C114.841 187.262 108.211 187.605 101.622 188.26C95.1418 188.904 88.5049 190.043 82.2937 187.433C82.0368 187.325 81.9243 187.746 82.1787 187.853Z" fill="#00144C"/>
</g>
</g>
</g>
</g>
<g id="Clip path group_11">
<mask id="mask11_300_4059" style="mask-type:luminance" maskUnits="userSpaceOnUse" x="24" y="148" width="163" height="58">
<g id="XMLID_00000076567878432180711730000013943509931117179070__6">
<path id="Vector_43" d="M90.3465 152.93C90.3465 152.93 79.3293 169.751 78.749 172.361C78.749 172.361 41.3476 174.392 32.65 178.162C23.9523 181.932 20.7626 193.243 28.3008 199.043C35.839 204.843 85.9974 206.873 99.9144 201.943C99.9144 201.943 171.818 211.514 183.995 197.593C196.172 183.672 161.96 170.041 132.967 171.491C132.967 171.491 122.82 151.48 117.311 148.869C111.801 146.26 90.3465 152.93 90.3465 152.93Z" fill="white"/>
</g>
</mask>
<g mask="url(#mask11_300_4059)">
<g id="Group_12">
<g id="Group_13">
<path id="Vector_44" d="M78.1054 193.354C85.7464 197.768 93.9518 200.889 102.596 202.663C102.87 202.72 102.986 202.3 102.712 202.244C94.1059 200.477 85.9341 197.374 78.3249 192.978C78.0821 192.838 77.8632 193.214 78.1054 193.354Z" fill="#00144C"/>
</g>
</g>
</g>
</g>
<g id="Clip path group_12">
<mask id="mask12_300_4059" style="mask-type:luminance" maskUnits="userSpaceOnUse" x="24" y="148" width="163" height="58">
<g id="XMLID_00000076567878432180711730000013943509931117179070__7">
<path id="Vector_45" d="M90.3465 152.93C90.3465 152.93 79.3293 169.751 78.749 172.361C78.749 172.361 41.3476 174.392 32.65 178.162C23.9523 181.932 20.7626 193.243 28.3008 199.043C35.839 204.843 85.9974 206.873 99.9144 201.943C99.9144 201.943 171.818 211.514 183.995 197.593C196.172 183.672 161.96 170.041 132.967 171.491C132.967 171.491 122.82 151.48 117.311 148.869C111.801 146.26 90.3465 152.93 90.3465 152.93Z" fill="white"/>
</g>
</mask>
<g mask="url(#mask12_300_4059)">
<g id="Group_14">
<g id="Group_15">
<path id="Vector_46" d="M63.1792 184.278C58.6362 183.156 54.1128 182.243 49.549 183.751C49.2842 183.838 49.398 184.259 49.6646 184.171C54.1568 182.686 58.6008 183.595 63.0637 184.697C63.3352 184.764 63.4514 184.345 63.1792 184.278Z" fill="#00144C"/>
</g>
</g>
</g>
</g>
<g id="Clip path group_13">
<mask id="mask13_300_4059" style="mask-type:luminance" maskUnits="userSpaceOnUse" x="24" y="148" width="163" height="58">
<g id="XMLID_00000076567878432180711730000013943509931117179070__8">
<path id="Vector_47" d="M90.3465 152.93C90.3465 152.93 79.3293 169.751 78.749 172.361C78.749 172.361 41.3476 174.392 32.65 178.162C23.9523 181.932 20.7626 193.243 28.3008 199.043C35.839 204.843 85.9974 206.873 99.9144 201.943C99.9144 201.943 171.818 211.514 183.995 197.593C196.172 183.672 161.96 170.041 132.967 171.491C132.967 171.491 122.82 151.48 117.311 148.869C111.801 146.26 90.3465 152.93 90.3465 152.93Z" fill="white"/>
</g>
</mask>
<g mask="url(#mask13_300_4059)">
<g id="Group_16" opacity="0.49">
<path id="Vector_48" d="M97.8287 188.495C96.2124 186.156 94.5962 183.818 92.9805 181.479L97.8287 188.495Z" fill="#4865B6"/>
</g>
</g>
</g>
<g id="Clip path group_14">
<mask id="mask14_300_4059" style="mask-type:luminance" maskUnits="userSpaceOnUse" x="24" y="148" width="163" height="58">
<g id="XMLID_00000076567878432180711730000013943509931117179070__9">
<path id="Vector_49" d="M90.3465 152.93C90.3465 152.93 79.3293 169.751 78.749 172.361C78.749 172.361 41.3476 174.392 32.65 178.162C23.9523 181.932 20.7626 193.243 28.3008 199.043C35.839 204.843 85.9974 206.873 99.9144 201.943C99.9144 201.943 171.818 211.514 183.995 197.593C196.172 183.672 161.96 170.041 132.967 171.491C132.967 171.491 122.82 151.48 117.311 148.869C111.801 146.26 90.3465 152.93 90.3465 152.93Z" fill="white"/>
</g>
</mask>
<g mask="url(#mask14_300_4059)">
<g id="Group_17">
<g id="Group_18">
<path id="Vector_50" d="M135.431 170.55C131.488 170.795 127.507 172.094 124.023 173.931C123.775 174.062 123.995 174.438 124.242 174.307C127.644 172.513 131.577 171.224 135.431 170.984C135.708 170.967 135.71 170.532 135.431 170.55Z" fill="#00144C"/>
</g>
</g>
</g>
</g>
<g id="Clip path group_15">
<mask id="mask15_300_4059" style="mask-type:luminance" maskUnits="userSpaceOnUse" x="24" y="148" width="163" height="58">
<g id="XMLID_00000076567878432180711730000013943509931117179070__10">
<path id="Vector_51" d="M90.3465 152.93C90.3465 152.93 79.3293 169.751 78.749 172.361C78.749 172.361 41.3476 174.392 32.65 178.162C23.9523 181.932 20.7626 193.243 28.3008 199.043C35.839 204.843 85.9974 206.873 99.9144 201.943C99.9144 201.943 171.818 211.514 183.995 197.593C196.172 183.672 161.96 170.041 132.967 171.491C132.967 171.491 122.82 151.48 117.311 148.869C111.801 146.26 90.3465 152.93 90.3465 152.93Z" fill="white"/>
</g>
</mask>
<g mask="url(#mask15_300_4059)">
<g id="Group_19">
<g id="Group_20">
<path id="Vector_52" d="M77.3034 172.305C80.4375 172.475 83.2382 173.736 85.4495 175.961C85.647 176.16 85.9546 175.852 85.7571 175.653C83.4694 173.352 80.542 172.045 77.3034 171.87C77.0233 171.854 77.0246 172.289 77.3034 172.305Z" fill="#00144C"/>
</g>
</g>
</g>
</g>
<g id="Clip path group_16">
<mask id="mask16_300_4059" style="mask-type:luminance" maskUnits="userSpaceOnUse" x="30" y="148" width="151" height="58">
<g id="XMLID_00000076567878432180711730000013943509931117179070__11">
<path id="Vector_53" d="M91.4544 152.93C91.4544 152.93 81.2542 169.751 80.7169 172.361C80.7169 172.361 46.0894 174.391 38.0367 178.161C29.9841 181.932 27.031 193.243 34.0101 199.043C40.9893 204.843 87.4277 206.873 100.313 201.943C100.313 201.943 166.884 211.514 178.158 197.592C189.432 183.672 157.757 170.04 130.914 171.491C130.914 171.491 121.519 151.479 116.419 148.869C111.318 146.26 91.4544 152.93 91.4544 152.93Z" fill="white"/>
</g>
</mask>
<g mask="url(#mask16_300_4059)">
<g id="Group_21">
<g id="Group_22">
<path id="Vector_54" d="M130.271 183.968C126.537 185.863 122.844 187.254 118.612 187.368C118.333 187.375 118.332 187.811 118.612 187.803C122.898 187.687 126.705 186.264 130.491 184.344C130.74 184.217 130.52 183.841 130.271 183.968Z" fill="#00144C"/>
</g>
</g>
</g>
</g>
</g>
</g>
</g>
</g>
<g id="Group_23">
<path id="Vector_55" d="M78.9893 94.9606C79.3397 94.9796 127.517 112.718 136.62 103.532C136.62 103.532 138.442 118.256 140.504 123.928C142.823 130.309 145.143 137.559 145.143 137.849C145.143 137.849 141.954 137.269 132.096 147.13C118.77 160.46 89.8866 148.359 72.2852 124.978C72.2858 124.978 74.302 94.7055 78.9893 94.9606Z" fill="#6382DB"/>
<g id="Clip path group_17">
<mask id="mask17_300_4059" style="mask-type:luminance" maskUnits="userSpaceOnUse" x="72" y="94" width="74" height="59">
<g id="XMLID_00000067227931175379704800000007046461181073739666_">
<path id="Vector_56" d="M78.9893 94.9606C79.3397 94.9796 127.517 112.718 136.62 103.532C136.62 103.532 138.442 118.256 140.504 123.928C142.823 130.309 145.143 137.559 145.143 137.849C145.143 137.849 141.954 137.269 132.096 147.13C118.77 160.46 89.8866 148.359 72.2852 124.978C72.2858 124.978 74.302 94.7055 78.9893 94.9606Z" fill="white"/>
</g>
</mask>
<g mask="url(#mask17_300_4059)">
<g id="Group_24">
<path id="Vector_57" d="M69.8023 109.026C75.3683 106.313 82.7207 110.563 88.3357 107.937C88.9607 107.645 89.5563 107.268 90.243 107.136C90.8607 107.018 91.5003 107.107 92.1235 107.197C98.1641 108.068 104.204 108.939 110.245 109.81C111.864 110.044 113.491 110.278 115.131 110.284C117.282 110.293 119.494 109.915 121.544 110.511C122.518 110.794 123.405 111.285 124.362 111.613C126.87 112.47 129.649 112.148 132.3 111.814C135.909 111.359 139.518 110.904 143.127 110.45C144.156 110.32 145.599 110.474 145.677 111.427C145.761 112.452 144.196 112.728 143.079 112.725C139.748 112.717 136.502 113.652 133.19 113.984C130.806 114.222 128.4 114.147 126.004 114.065C114.487 113.672 102.977 113.133 91.4777 112.449C89.2585 112.317 87.0344 112.18 84.8439 111.826C84.066 111.701 83.2631 111.548 82.4969 111.723C81.8584 111.869 81.3019 112.23 80.6757 112.415C78.2535 113.131 75.8099 111.078 73.2714 111.23C72.1523 111.297 71.0767 111.795 69.96 111.704C68.8428 111.613 67.7396 110.416 68.4282 109.601" fill="#4865B6"/>
</g>
</g>
</g>
<g id="Clip path group_18">
<mask id="mask18_300_4059" style="mask-type:luminance" maskUnits="userSpaceOnUse" x="72" y="94" width="74" height="59">
<g id="XMLID_00000067227931175379704800000007046461181073739666__2">
<path id="Vector_58" d="M78.9893 94.9606C79.3397 94.9796 127.517 112.718 136.62 103.532C136.62 103.532 138.442 118.256 140.504 123.928C142.823 130.309 145.143 137.559 145.143 137.849C145.143 137.849 141.954 137.269 132.096 147.13C118.77 160.46 89.8866 148.359 72.2852 124.978C72.2858 124.978 74.302 94.7055 78.9893 94.9606Z" fill="white"/>
</g>
</mask>
<g mask="url(#mask18_300_4059)">
<g id="Group_25">
<path id="Vector_59" d="M67.6916 118.174C67.9429 116.933 69.7347 116.495 71.0421 116.876C72.3502 117.258 73.4142 118.148 74.688 118.617C78.603 120.059 82.8653 117.192 87.0762 117.38C89.9247 117.507 92.6295 119.039 95.4596 118.718C96.2949 118.623 97.1003 118.368 97.9351 118.267C99.6975 118.056 101.457 118.544 103.187 118.923C108.89 120.173 114.806 120.272 120.668 120.366C124.254 120.423 127.84 120.48 131.426 120.538C134.661 120.589 137.949 120.635 141.068 119.839C142.272 119.531 143.464 119.097 144.714 119.082C145.964 119.068 147.333 119.603 147.778 120.678C144.174 121.152 140.57 121.625 136.965 122.099C135.212 122.33 133.454 122.56 131.683 122.616C128.985 122.701 126.293 122.377 123.595 122.263C115.225 121.91 106.776 123.573 98.5007 122.367C96.3243 122.05 94.1497 121.535 91.9513 121.673C90.058 121.793 88.21 122.396 86.3137 122.339C84.8986 122.296 83.5325 121.886 82.1657 121.547C77.3805 120.358 72.3538 119.997 67.4262 120.489C66.8269 119.613 66.2282 118.737 65.6289 117.861C66.356 117.83 67.0831 117.8 67.8096 117.77" fill="#4865B6"/>
</g>
</g>
</g>
<g id="Clip path group_19">
<mask id="mask19_300_4059" style="mask-type:luminance" maskUnits="userSpaceOnUse" x="72" y="94" width="74" height="59">
<g id="XMLID_00000067227931175379704800000007046461181073739666__3">
<path id="Vector_60" d="M78.9893 94.9606C79.3397 94.9796 127.517 112.718 136.62 103.532C136.62 103.532 138.442 118.256 140.504 123.928C142.823 130.309 145.143 137.559 145.143 137.849C145.143 137.849 141.954 137.269 132.096 147.13C118.77 160.46 89.8866 148.359 72.2852 124.978C72.2858 124.978 74.302 94.7055 78.9893 94.9606Z" fill="white"/>
</g>
</mask>
<g mask="url(#mask19_300_4059)">
<g id="Group_26">
<path id="Vector_61" d="M67.7197 127.578C70.2673 126.037 73.6429 126.412 76.555 127.24C79.4671 128.069 82.3241 129.305 85.3719 129.323C88.2271 129.34 90.9747 128.279 93.8268 128.145C98.3601 127.93 102.816 130.065 107.307 129.463C109.204 129.208 111.008 128.472 112.919 128.34C114.333 128.241 115.748 128.477 117.143 128.712C119.943 129.184 122.742 129.655 125.542 130.127C126.404 130.272 127.277 130.418 128.152 130.365C129.288 130.296 130.364 129.897 131.431 129.531C134.114 128.611 136.873 127.878 139.677 127.34C141.19 127.05 142.843 126.833 144.216 127.488C144.743 127.74 145.209 128.113 145.778 128.269C146.891 128.575 148.03 127.983 149.16 127.74C150.291 127.496 151.868 127.96 151.81 129.028C148.614 130.079 145.098 129.548 141.708 129.698C138.108 129.857 134.61 130.793 131.058 131.352C125.51 132.225 119.794 132.173 114.266 131.201C112.372 130.867 110.488 130.426 108.562 130.355C106.277 130.271 104.014 130.711 101.746 130.98C96.0877 131.653 90.3509 131.268 84.6607 130.881C81.5407 130.668 78.4208 130.457 75.3014 130.245C72.8865 130.081 70.4575 129.914 68.1074 129.376C67.6054 129.261 67.0629 129.099 66.7859 128.697C66.5089 128.294 66.7413 127.608 67.2592 127.611" fill="#4865B6"/>
</g>
</g>
</g>
<g id="Clip path group_20">
<mask id="mask20_300_4059" style="mask-type:luminance" maskUnits="userSpaceOnUse" x="72" y="94" width="74" height="59">
<g id="XMLID_00000067227931175379704800000007046461181073739666__4">
<path id="Vector_62" d="M78.9893 94.9606C79.3397 94.9796 127.517 112.718 136.62 103.532C136.62 103.532 138.442 118.256 140.504 123.928C142.823 130.309 145.143 137.559 145.143 137.849C145.143 137.849 141.954 137.269 132.096 147.13C118.77 160.46 89.8866 148.359 72.2852 124.978C72.2858 124.978 74.302 94.7055 78.9893 94.9606Z" fill="white"/>
</g>
</mask>
<g mask="url(#mask20_300_4059)">
<g id="Group_27">
<path id="Vector_63" d="M78.2384 137.908C80.4142 136.99 82.9691 137.323 85.258 137.967C87.547 138.612 89.7607 139.553 92.1358 139.826C98.8877 140.603 105.908 135.919 112.186 138.334C113.285 138.757 114.357 139.397 115.547 139.35C116.443 139.314 117.258 138.889 118.118 138.654C120.572 137.983 123.173 138.889 125.543 139.781C126.421 140.111 127.388 140.447 128.295 140.187C128.968 139.995 129.49 139.5 130.13 139.228C131.572 138.615 133.236 139.223 134.809 139.439C137.138 139.759 139.487 139.182 141.817 138.863C144.146 138.544 146.717 138.533 148.628 139.801C147.211 140.801 145.348 141.063 143.566 141.176C137.639 141.55 131.559 140.647 125.816 142.049C124.901 142.272 123.983 142.555 123.037 142.526C122.001 142.495 121.029 142.093 120.052 141.777C116.349 140.575 112.336 140.543 108.41 140.526C106.79 140.518 105.167 140.511 103.556 140.671C99.8215 141.042 96.1835 142.307 92.43 142.174C87.8974 142.014 83.6479 139.826 79.1122 139.782C78.4555 139.776 77.7724 139.811 77.17 139.57C76.5677 139.329 76.0828 138.701 76.298 138.13C76.5133 137.559 77.6195 137.481 77.7589 138.072" fill="#4865B6"/>
</g>
</g>
</g>
<g id="Clip path group_21">
<mask id="mask21_300_4059" style="mask-type:luminance" maskUnits="userSpaceOnUse" x="72" y="94" width="74" height="59">
<g id="XMLID_00000067227931175379704800000007046461181073739666__5">
<path id="Vector_64" d="M78.9893 94.9606C79.3397 94.9796 127.517 112.718 136.62 103.532C136.62 103.532 138.442 118.256 140.504 123.928C142.823 130.309 145.143 137.559 145.143 137.849C145.143 137.849 141.954 137.269 132.096 147.13C118.77 160.46 89.8866 148.359 72.2852 124.978C72.2858 124.978 74.302 94.7055 78.9893 94.9606Z" fill="white"/>
</g>
</mask>
<g mask="url(#mask21_300_4059)">
<g id="Group_28">
<path id="Vector_65" d="M69.5069 102.215C70.6829 100.209 73.4794 99.4638 75.9444 99.6657C78.4095 99.8675 80.7271 100.799 83.1378 101.317C85.6322 101.853 88.2385 101.941 90.7689 101.576C92.1192 101.382 93.4823 101.059 94.8337 101.244C96.1302 101.423 97.2963 102.055 98.5542 102.393C103.016 103.593 107.549 100.993 112.154 100.41C115.238 100.019 118.365 100.546 121.422 101.09C128.897 102.421 136.533 103.867 144.066 102.853C144.023 104.548 141.617 105.131 139.776 105.188C132.503 105.415 125.213 105.178 117.975 104.48C114.345 104.131 110.703 103.664 107.059 103.863C104.505 104.001 101.966 104.467 99.4092 104.374C95.104 104.218 90.9915 102.491 86.684 102.424C84.4678 102.391 82.2755 102.799 80.0716 103.018C77.0696 103.316 74.0261 103.261 71.0388 102.855C70.4211 102.771 69.7497 102.643 69.3546 102.199C68.959 101.753 69.1125 100.904 69.7307 100.821" fill="#4865B6"/>
</g>
</g>
</g>
<g id="Clip path group_22">
<mask id="mask22_300_4059" style="mask-type:luminance" maskUnits="userSpaceOnUse" x="72" y="94" width="74" height="59">
<g id="XMLID_00000067227931175379704800000007046461181073739666__6">
<path id="Vector_66" d="M78.9893 94.9606C79.3397 94.9796 127.517 112.718 136.62 103.532C136.62 103.532 138.442 118.256 140.504 123.928C142.823 130.309 145.143 137.559 145.143 137.849C145.143 137.849 141.954 137.269 132.096 147.13C118.77 160.46 89.8866 148.359 72.2852 124.978C72.2858 124.978 74.302 94.7055 78.9893 94.9606Z" fill="white"/>
</g>
</mask>
<g mask="url(#mask22_300_4059)">
<g id="Group_29">
<path id="Vector_67" d="M93.8555 146.898C100.665 147.062 107.509 147.224 114.258 146.376C115.763 146.187 117.269 145.947 118.788 145.977C120.127 146.003 121.45 146.24 122.768 146.46C127.644 147.278 132.559 147.899 137.494 148.321C133.237 150.211 128.256 150.003 123.575 149.4C118.895 148.797 114.181 147.838 109.49 148.367C106.783 148.673 104.124 149.472 101.399 149.38C99.3127 149.31 97.2513 148.702 95.5078 147.645" fill="#4865B6"/>
</g>
</g>
</g>
</g>
<g id="Group_30">
<path id="Vector_68" d="M124.483 56.3909C124.483 68.3828 111.071 78.1047 105.423 78.1047C99.7759 78.1047 86.3633 68.3834 86.3633 56.3909C86.3633 44.3989 94.5437 29.3809 105.07 29.3809C115.597 29.3809 124.483 44.3983 124.483 56.3909Z" fill="#F4A082"/>
<g id="Clip path group_23">
<mask id="mask23_300_4059" style="mask-type:luminance" maskUnits="userSpaceOnUse" x="86" y="29" width="39" height="50">
<g id="XMLID_00000098929024011257318390000010677413390445356958_">
<path id="Vector_69" d="M124.483 56.3899C124.483 68.3818 111.071 78.1037 105.423 78.1037C99.7758 78.1037 86.3633 68.3824 86.3633 56.3899C86.3633 44.3979 94.5436 29.3799 105.07 29.3799C115.597 29.3799 124.483 44.3973 124.483 56.3899Z" fill="white"/>
</g>
</mask>
<g mask="url(#mask23_300_4059)">
<path id="Vector_70" opacity="0.18" d="M104.937 35.7885C104.937 35.7885 111.786 50.2462 122.774 55.4984L109.133 35.4001L100.975 33.6524C100.975 33.6524 88.8855 51.7559 90.6338 57.2222C90.6338 57.2222 100.652 37.812 107.066 35.8754C113.48 33.9381 103.594 33.0205 103.594 33.0205" fill="#A05940"/>
</g>
</g>
</g>
<g id="Group_31">
<path id="Vector_71" d="M105.127 36.3426C105.127 36.3426 95.2694 42.7233 90.6304 57.2239C90.6304 57.2239 88.021 63.604 89.7608 67.0846C91.5005 70.5646 98.1686 75.205 96.7193 79.5555C96.7193 79.5555 97.0091 87.0961 90.3405 92.3164C90.3405 92.3164 96.7193 89.7062 102.228 99.8569C102.228 99.8569 113.825 93.7667 122.233 104.497C122.233 104.497 128.322 97.5367 134.41 106.528C134.41 106.528 139.919 102.758 142.818 110.008C142.818 110.008 147.167 106.528 145.718 116.098C145.718 116.098 150.646 120.158 144.558 123.928C144.558 123.928 145.428 125.959 141.949 127.989L140.209 123.058C140.209 123.058 141.079 122.189 143.108 122.189C143.108 122.189 141.368 118.128 144.268 116.098C144.268 116.098 139.629 114.939 139.629 110.008C139.629 110.008 134.41 113.488 130.93 107.398C130.93 107.398 122.522 114.359 115.854 105.078C115.854 105.078 102.517 114.069 96.4282 102.178C96.4282 102.178 79.9018 109.718 79.0322 94.9271C79.0322 94.9271 70.3345 83.0361 81.3517 76.0761C81.3517 76.0761 71.2341 62.6901 77.2924 50.8443C83.6706 38.3734 89.7595 19.8124 103.677 27.6428C103.677 27.6428 128.031 16.9122 124.552 56.9351C124.553 56.9339 112.375 47.6537 105.127 36.3426Z" fill="#00144C"/>
<g id="Clip path group_24">
<mask id="mask24_300_4059" style="mask-type:luminance" maskUnits="userSpaceOnUse" x="75" y="25" width="73" height="103">
<g id="XMLID_00000016053581289218334760000016658955715234383295_">
<path id="Vector_72" d="M105.127 36.3433C105.127 36.3433 95.2694 42.724 90.6304 57.2246C90.6304 57.2246 88.021 63.6047 89.7608 67.0853C91.5005 70.5654 98.1686 75.2058 96.7193 79.5562C96.7193 79.5562 97.0091 87.0968 90.3405 92.3171C90.3405 92.3171 96.7193 89.7069 102.228 99.8576C102.228 99.8576 113.825 93.7675 122.233 104.498C122.233 104.498 128.322 97.5374 134.41 106.528C134.41 106.528 139.919 102.758 142.818 110.008C142.818 110.008 147.167 106.528 145.718 116.099C145.718 116.099 150.646 120.159 144.558 123.929C144.558 123.929 145.428 125.959 141.949 127.99L140.209 123.059C140.209 123.059 141.079 122.189 143.108 122.189C143.108 122.189 141.368 118.129 144.268 116.099C144.268 116.099 139.629 114.939 139.629 110.009C139.629 110.009 134.41 113.489 130.93 107.399C130.93 107.399 122.522 114.359 115.854 105.079C115.854 105.079 102.517 114.069 96.4282 102.178C96.4282 102.178 79.9018 109.719 79.0322 94.9279C79.0322 94.9279 70.3345 83.0369 81.3517 76.0768C81.3517 76.0768 71.2341 62.6908 77.2924 50.8451C83.6706 38.3742 89.7595 19.8131 103.677 27.6436C103.677 27.6436 128.031 16.913 124.552 56.9359C124.553 56.9346 112.375 47.6544 105.127 36.3433Z" fill="white"/>
</g>
</mask>
<g mask="url(#mask24_300_4059)">
<path id="Vector_73" opacity="0.22" d="M89.7623 67.0839C89.7623 67.0839 95.2709 81.0052 105.418 80.4247C115.566 79.8448 122.707 66.8925 123.341 60.3178C123.975 53.7432 88.6028 59.8334 89.7623 67.0839Z" fill="#00144C"/>
</g>
</g>
</g>
<path id="Vector_74" d="M90.8695 58.1552C91.4224 60.4087 90.6579 62.5338 89.1622 62.9008C87.6664 63.2678 86.0061 61.7386 85.4533 59.4844C84.9005 57.2309 85.6649 55.1058 87.1607 54.7388C88.6564 54.3724 90.3167 55.9016 90.8695 58.1552Z" fill="#F4A082"/>
<path id="Vector_75" d="M122.582 56.1251C122.029 58.3786 122.794 60.5037 124.29 60.8707C125.785 61.2377 127.446 59.7085 127.998 57.4543C128.551 55.2008 127.787 53.0757 126.291 52.7087C124.796 52.3417 123.135 53.8709 122.582 56.1251Z" fill="#F4A082"/>
<path id="Vector_76" d="M73.8194 122.768C67.7311 120.738 65.1211 127.988 65.1211 127.988C60.772 126.248 59.6125 131.758 59.6125 131.758C55.8437 134.948 59.6125 139.299 59.6125 139.299C59.6125 139.788 59.6614 140.232 59.744 140.646L63.0102 138.947C62.1907 138.932 61.6422 139.009 61.6422 139.009C63.0921 136.109 60.7726 132.919 60.7726 132.919C65.1217 133.209 66.571 129.439 66.571 129.439C82.2273 135.239 86.2866 117.258 86.2866 117.258C86.2866 117.258 79.9078 124.798 73.8194 122.768Z" fill="#00144C"/>
<path id="Vector_77" d="M94.1992 57.6506C95.47 57.957 96.7144 58.0959 97.9625 58.0035C99.2113 57.9222 100.424 57.6139 101.641 57.1367C100.658 58.0157 99.3293 58.4862 98.0023 58.5822C96.6747 58.6678 95.2945 58.3852 94.1992 57.6506Z" fill="#00144C"/>
<g id="Group_32">
<path id="Vector_78" d="M102.816 70.9664C104.588 71.6827 106.505 71.5365 108.158 70.5853C108.438 70.4244 108.186 69.9901 107.905 70.1516C106.354 71.0435 104.605 71.1511 102.949 70.4819C102.65 70.3614 102.519 70.8471 102.816 70.9664Z" fill="#00144C"/>
</g>
<path id="Vector_79" d="M102.883 66.0839C103.363 66.098 103.795 66.1249 104.221 66.128C104.645 66.1341 105.058 66.1231 105.47 66.0943C105.882 66.065 106.293 66.0191 106.712 65.9548C107.134 65.8925 107.557 65.8074 108.032 65.7285C107.746 66.1182 107.348 66.4032 106.917 66.6082C106.483 66.8112 106.01 66.9305 105.531 66.9623C105.051 66.9948 104.566 66.9421 104.109 66.8008C103.653 66.6565 103.22 66.4289 102.883 66.0839Z" fill="#00144C"/>
<path id="Vector_80" d="M109.871 57.7C111.142 58.0065 112.386 58.1459 113.634 58.0529C114.883 57.9716 116.096 57.6633 117.313 57.1855C116.33 58.0646 115.001 58.535 113.674 58.631C112.347 58.7167 110.966 58.434 109.871 57.7Z" fill="#00144C"/>
<g id="Group_33">
<path id="Vector_81" d="M94.1074 54.8061C95.816 52.84 98.322 51.9476 100.885 52.4479C101.324 52.5336 101.512 51.8601 101.071 51.7745C98.2749 51.2282 95.4876 52.1568 93.6139 54.3124C93.3197 54.6501 93.812 55.1462 94.1074 54.8061Z" fill="#00144C"/>
</g>
<g id="Group_34">
<path id="Vector_82" d="M117.521 54.0176C115.647 51.8613 112.86 50.9333 110.064 51.4796C109.623 51.5658 109.81 52.2393 110.25 52.1531C112.813 51.6527 115.319 52.5452 117.028 54.5112C117.323 54.8519 117.815 54.3558 117.521 54.0176Z" fill="#00144C"/>
</g>
<path id="Vector_83" d="M105.704 35.3584C106.092 37.174 106.81 39.0238 107.692 40.7316C108.58 42.4487 109.646 44.0887 110.918 45.5617C112.187 47.0323 113.583 48.4184 115.171 49.5623C115.931 50.1844 116.783 50.6707 117.61 51.201C118.446 51.7149 119.344 52.1174 120.212 52.5829C119.326 52.162 118.403 51.8017 117.539 51.3271C116.684 50.8359 115.8 50.3869 115.003 49.7978C113.341 48.72 111.855 47.3846 110.485 45.9459C109.111 44.5041 107.933 42.8763 106.929 41.1482C105.926 39.4067 105.101 37.5985 104.566 35.5853L105.704 35.3584Z" fill="#00144C"/>
<path id="Vector_84" d="M106.103 34.0999C105.701 35.0223 105.405 36.0867 105.222 37.129C105.04 38.1824 104.98 39.259 105.054 40.3307C105.114 41.4055 105.349 42.4705 105.73 43.4853C106.078 44.5209 106.676 45.4471 107.307 46.3475C106.602 45.5095 105.911 44.6237 105.463 43.5985C104.982 42.5947 104.639 41.5107 104.478 40.3968C104.302 39.2853 104.265 38.1475 104.358 37.0196C104.461 35.8836 104.653 34.7874 105.032 33.6533L106.103 34.0999Z" fill="#00144C"/>
<path id="Vector_85" d="M107.07 35.2163C106.569 35.5399 106.045 35.9608 105.569 36.3908C105.088 36.8251 104.632 37.2943 104.209 37.7934C103.783 38.2908 103.387 38.8181 103.036 39.3765C102.671 39.9289 102.374 40.5223 102.09 41.1273C102.282 40.4899 102.494 39.8494 102.781 39.2389C103.054 38.6217 103.378 38.0253 103.742 37.4503C104.102 36.8728 104.502 36.3186 104.94 35.7901C105.383 35.2573 105.832 34.7643 106.388 34.2773L107.07 35.2163Z" fill="#00144C"/>
</g>
</g>
<defs>
<clipPath id="clip0_300_4059">
<rect width="208" height="215" fill="white" transform="translate(0.5)"/>
</clipPath>
</defs>
</svg>
