<svg width="11" height="12" viewBox="0 0 11 12" fill="none" xmlns="http://www.w3.org/2000/svg">
<path fill-rule="evenodd" clip-rule="evenodd" d="M3 0H7.8C9.9 0 10.8 1.2 10.8 3V9C10.8 10.8 9.9 12 7.8 12H3C0.9 12 0 10.8 0 9V3C0 1.2 0.9 0 3 0ZM6.75 6.15H3C2.754 6.15 2.55 6.354 2.55 6.6C2.55 6.846 2.754 7.05 3 7.05H6.75C6.996 7.05 7.2 6.846 7.2 6.6C7.2 6.354 6.996 6.15 6.75 6.15ZM3 9.45H7.8C8.046 9.45 8.25 9.246 8.25 9C8.25 8.754 8.046 8.55 7.8 8.55H3C2.754 8.55 2.55 8.754 2.55 9C2.55 9.246 2.754 9.45 3 9.45ZM2.97351 2.29359C2.48018 2.45496 2.30038 3.04048 2.45253 3.51537C2.69689 4.27151 3.51295 4.65418 3.73887 4.65879C3.9694 4.65879 4.7947 4.2669 5.02984 3.51537C5.17738 3.04048 5.00217 2.45496 4.50423 2.29359C4.24604 2.2106 3.90946 2.27051 3.73887 2.53332C3.55906 2.27974 3.23631 2.2106 2.97351 2.29359Z" fill="#0F2F4F"/>
</svg>
