<svg width="12" height="12" viewBox="0 0 12 12" fill="none" xmlns="http://www.w3.org/2000/svg">
<path d="M7.8 0.9H4.2C3.954 0.9 3.75 0.696094 3.75 0.45C3.75 0.203906 3.954 0 4.2 0H7.8C8.046 0 8.25 0.203906 8.25 0.45C8.25 0.696094 8.046 0.9 7.8 0.9Z" fill="#0F2F4F"/>
<path d="M9.6 2.4H2.4C2.154 2.4 1.95 2.19609 1.95 1.95C1.95 1.70391 2.154 1.5 2.4 1.5H9.6C9.846 1.5 10.05 1.70391 10.05 1.95C10.05 2.19609 9.846 2.4 9.6 2.4Z" fill="#0F2F4F"/>
<path fill-rule="evenodd" clip-rule="evenodd" d="M9.6 3H2.4C1.08 3 0 4.07988 0 5.4V9.6C0 10.9201 1.08 12 2.4 12H9.6C10.92 12 12 10.9201 12 9.6V5.4C12 4.07988 10.92 3 9.6 3ZM4.5 6.17637V8.52363C4.5 9.00469 5.02266 9.30586 5.4363 9.06533L6.45597 8.47881L7.47242 7.89199C7.88607 7.65146 7.88607 7.04854 7.47242 6.80801L6.45597 6.22119L5.4363 5.63467C5.02266 5.39414 4.5 5.69531 4.5 6.17637Z" fill="#0F2F4F"/>
</svg>
