<svg width="21" height="20" viewBox="0 0 21 20" fill="none" xmlns="http://www.w3.org/2000/svg">
<path d="M20.9868 10.0367C20.9868 4.49365 16.4932 0 10.9501 0C5.40698 0 0.91333 4.49365 0.91333 10.0367C0.91333 14.7436 4.15399 18.6932 8.52559 19.778V13.104H6.45602V10.0367H8.52559V8.7151C8.52559 5.29899 10.0716 3.7156 13.4255 3.7156C14.0615 3.7156 15.1587 3.84046 15.6075 3.96491V6.74509C15.3706 6.7202 14.9591 6.70775 14.4481 6.70775C12.8024 6.70775 12.1665 7.33123 12.1665 8.95196V10.0367H15.4449L14.8817 13.104H12.1665V20C17.1355 19.3998 20.9868 15.1683 20.9868 10.0367Z" fill="white"/>
</svg>
