<svg width="52" height="48" viewBox="0 0 52 48" fill="none" xmlns="http://www.w3.org/2000/svg">
<circle cx="23" cy="20" r="17" fill="#70F8BF"/>
<path fill-rule="evenodd" clip-rule="evenodd" d="M46.5884 9.48211L50.6686 14.2209C52.4388 16.2904 52.4388 19.7096 50.6986 21.779L46.6184 26.5179C45.8383 27.4176 45.2083 29.1272 45.2083 30.2969V35.3957C45.2083 38.5749 42.5981 41.1842 39.4179 41.1842H34.3176C33.1176 41.1842 31.4375 41.814 30.5374 42.5939L25.7971 46.6728C23.697 48.4424 20.3068 48.4424 18.2366 46.6728L13.4963 42.5939C12.5963 41.814 10.8862 41.1842 9.71609 41.1842H4.52578C1.34558 41.1842 -1.26458 38.5749 -1.26458 35.3957V30.2669C-1.26458 29.0972 -1.89462 27.4176 -2.64467 26.5179L-6.69492 21.749C-8.43503 19.6796 -8.43503 16.3204 -6.69492 14.2509L-2.64467 9.48211C-1.89462 8.58236 -1.26458 6.90276 -1.26458 5.73306V0.604332C-1.26458 -2.57487 1.34558 -5.18421 4.52578 -5.18421H9.71609C10.8862 -5.18421 12.5963 -5.81406 13.4963 -6.56388L18.2066 -10.6728C20.3068 -12.4424 23.697 -12.4424 25.7671 -10.6728L30.5074 -6.59385C31.4074 -5.81406 33.1176 -5.18421 34.2876 -5.18421H39.3879C42.5681 -5.18421 45.1783 -2.57487 45.1783 0.604332V5.70306C45.1783 6.90276 45.8083 8.58236 46.5884 9.48211ZM30.0256 14.0946C30.6301 13.5282 30.661 12.5789 30.0946 11.9744C29.5282 11.3699 28.5789 11.339 27.9744 11.9054L18.328 20.9436L14.0266 16.9063C13.4225 16.3393 12.4732 16.3694 11.9063 16.9734C11.3393 17.5775 11.3694 18.5268 11.9734 19.0937L17.3005 24.0937C17.8773 24.6351 18.7754 24.6355 19.3526 24.0946L30.0256 14.0946Z" fill="#1AD687"/>
</svg>
