<svg width="21" height="20" viewBox="0 0 21 20" fill="none" xmlns="http://www.w3.org/2000/svg">
<path d="M10.9144 0C8.19854 0 7.85771 0.0118752 6.79104 0.0604169C5.72646 0.109167 4.99979 0.277708 4.36396 0.525C3.70625 0.780417 3.14833 1.12208 2.5925 1.67813C2.03625 2.23396 1.69458 2.79187 1.43833 3.44937C1.19042 4.08542 1.02167 4.81229 0.973752 5.87646C0.926044 6.94312 0.913544 7.28417 0.913544 10C0.913544 12.7158 0.925627 13.0556 0.973961 14.1223C1.02292 15.1869 1.19146 15.9135 1.43854 16.5494C1.69417 17.2071 2.03583 17.765 2.59188 18.3208C3.1475 18.8771 3.70542 19.2196 4.36271 19.475C4.99896 19.7223 5.72583 19.8908 6.79021 19.9396C7.85687 19.9881 8.1975 20 10.9131 20C13.6292 20 13.969 19.9881 15.0356 19.9396C16.1002 19.8908 16.8277 19.7223 17.464 19.475C18.1215 19.2196 18.6785 18.8771 19.2342 18.3208C19.7904 17.765 20.1321 17.2071 20.3883 16.5496C20.6342 15.9135 20.8029 15.1867 20.8529 14.1225C20.9008 13.0558 20.9133 12.7158 20.9133 10C20.9133 7.28417 20.9008 6.94333 20.8529 5.87667C20.8029 4.81208 20.6342 4.08542 20.3883 3.44958C20.1321 2.79187 19.7904 2.23396 19.2342 1.67813C18.6779 1.12188 18.1217 0.780208 17.4633 0.525C16.8258 0.277708 16.0987 0.109167 15.0342 0.0604169C13.9675 0.0118752 13.6279 0 10.9112 0H10.9144ZM10.0173 1.80208C10.2835 1.80167 10.5806 1.80208 10.9144 1.80208C13.5844 1.80208 13.9008 1.81167 14.9552 1.85958C15.9302 1.90417 16.4594 2.06708 16.8119 2.20396C17.2785 2.38521 17.6112 2.60187 17.961 2.95187C18.311 3.30187 18.5277 3.63521 18.7094 4.10187C18.8462 4.45396 19.0094 4.98312 19.0537 5.95812C19.1017 7.01229 19.1121 7.32896 19.1121 9.99771C19.1121 12.6665 19.1017 12.9831 19.0537 14.0373C19.0092 15.0123 18.8462 15.5415 18.7094 15.8935C18.5281 16.3602 18.311 16.6925 17.961 17.0423C17.611 17.3923 17.2787 17.609 16.8119 17.7902C16.4598 17.9277 15.9302 18.0902 14.9552 18.1348C13.901 18.1827 13.5844 18.1931 10.9144 18.1931C8.24416 18.1931 7.92771 18.1827 6.87354 18.1348C5.89854 18.0898 5.36937 17.9269 5.01667 17.79C4.55 17.6087 4.21667 17.3921 3.86667 17.0421C3.51667 16.6921 3.3 16.3596 3.11833 15.8927C2.98146 15.5406 2.81833 15.0115 2.77396 14.0365C2.72604 12.9823 2.71646 12.6656 2.71646 9.99521C2.71646 7.32479 2.72604 7.00979 2.77396 5.95563C2.81854 4.98063 2.98146 4.45146 3.11833 4.09896C3.29958 3.63229 3.51667 3.29896 3.86667 2.94896C4.21667 2.59896 4.55 2.38229 5.01667 2.20062C5.36917 2.06312 5.89854 1.90063 6.87354 1.85583C7.79604 1.81417 8.15354 1.80167 10.0173 1.79958V1.80208ZM16.2523 3.4625C15.5898 3.4625 15.0523 3.99937 15.0523 4.66208C15.0523 5.32458 15.5898 5.86208 16.2523 5.86208C16.9148 5.86208 17.4523 5.32458 17.4523 4.66208C17.4523 3.99958 16.9148 3.46208 16.2523 3.46208V3.4625ZM10.9144 4.86458C8.07833 4.86458 5.77896 7.16396 5.77896 10C5.77896 12.836 8.07833 15.1344 10.9144 15.1344C13.7504 15.1344 16.049 12.836 16.049 10C16.049 7.16396 13.7504 4.86458 10.9144 4.86458ZM10.9144 6.66667C12.7552 6.66667 14.2477 8.15896 14.2477 10C14.2477 11.8408 12.7552 13.3333 10.9144 13.3333C9.07333 13.3333 7.58104 11.8408 7.58104 10C7.58104 8.15896 9.07333 6.66667 10.9144 6.66667Z" fill="white"/>
</svg>
