<svg width="200" height="204" viewBox="0 0 200 204" fill="none" xmlns="http://www.w3.org/2000/svg">
<path opacity="0.2" d="M216.867 -70.9707C217.695 -70.9707 218.367 -70.2991 218.367 -69.4707V-16.8669C218.367 -15.4862 219.486 -14.3669 220.867 -14.3669H273.471C274.299 -14.3669 274.971 -13.6954 274.971 -12.8669V20.8689C274.971 21.6973 274.299 22.3689 273.471 22.3689H220.867C219.486 22.3689 218.367 23.4882 218.367 24.8689V77.4727C218.367 78.3011 217.695 78.9727 216.867 78.9727H183.131C182.303 78.9727 181.631 78.3011 181.631 77.4727V24.8689C181.631 23.4882 180.512 22.3689 179.131 22.3689H126.527C125.699 22.3689 125.027 21.6973 125.027 20.8689V-12.8669C125.027 -13.6954 125.699 -14.3669 126.527 -14.3669H179.131C180.512 -14.3669 181.631 -15.4862 181.631 -16.8669V-69.4707C181.631 -70.2991 182.303 -70.9707 183.131 -70.9707H216.867Z" stroke="white"/>
<path opacity="0.16" d="M228.188 -82.293C229.017 -82.293 229.688 -81.6214 229.688 -80.793V-28.1892C229.688 -26.8085 230.807 -25.6892 232.188 -25.6892H284.792C285.62 -25.6892 286.292 -25.0176 286.292 -24.1892V32.1882C286.292 33.0166 285.62 33.6882 284.792 33.6882H232.188C230.807 33.6882 229.688 34.8075 229.688 36.1882V88.7919C229.688 89.6204 229.017 90.2919 228.188 90.2919H171.811C170.982 90.2919 170.311 89.6204 170.311 88.7919V36.1882C170.311 34.8075 169.192 33.6882 167.811 33.6882H115.207C114.379 33.6882 113.707 33.0166 113.707 32.1882V-24.1892C113.707 -25.0176 114.379 -25.6892 115.207 -25.6892H167.811C169.192 -25.6892 170.311 -26.8085 170.311 -28.1892V-80.793C170.311 -81.6214 170.982 -82.293 171.811 -82.293H228.188Z" stroke="white"/>
<path opacity="0.14" d="M239.509 -93.6133C240.338 -93.6133 241.009 -92.9417 241.009 -92.1133V-39.5095C241.009 -38.1288 242.129 -37.0095 243.509 -37.0095H296.113C296.942 -37.0095 297.613 -36.3379 297.613 -35.5095V43.5094C297.613 44.3378 296.942 45.0094 296.113 45.0094H243.509C242.129 45.0094 241.009 46.1286 241.009 47.5094V100.113C241.009 100.942 240.338 101.613 239.509 101.613H160.49C159.662 101.613 158.99 100.942 158.99 100.113V47.5094C158.99 46.1286 157.871 45.0094 156.49 45.0094H103.887C103.058 45.0094 102.387 44.3378 102.387 43.5094V-35.5095C102.387 -36.3379 103.058 -37.0095 103.887 -37.0095H156.49C157.871 -37.0095 158.99 -38.1288 158.99 -39.5095V-92.1133C158.99 -92.9417 159.662 -93.6133 160.49 -93.6133H239.509Z" stroke="white"/>
<path opacity="0.12" d="M250.827 -104.934C251.655 -104.934 252.327 -104.262 252.327 -103.434V-50.8298C252.327 -49.4491 253.446 -48.3298 254.827 -48.3298H307.43C308.259 -48.3298 308.93 -47.6582 308.93 -46.8298V54.8306C308.93 55.659 308.259 56.3306 307.43 56.3306H254.827C253.446 56.3306 252.327 57.4499 252.327 58.8306V111.434C252.327 112.263 251.655 112.934 250.827 112.934H149.166C148.338 112.934 147.666 112.263 147.666 111.434V58.8306C147.666 57.4499 146.547 56.3306 145.166 56.3306H92.5625C91.7341 56.3306 91.0625 55.659 91.0625 54.8306V-46.8298C91.0625 -47.6582 91.7341 -48.3298 92.5625 -48.3298H145.166C146.547 -48.3298 147.666 -49.4491 147.666 -50.8298V-103.434C147.666 -104.262 148.338 -104.934 149.166 -104.934H250.827Z" stroke="white"/>
<path opacity="0.1" d="M262.152 -116.254C262.98 -116.254 263.652 -115.582 263.652 -114.754V-64.0369C263.652 -62.6562 264.771 -61.5369 266.152 -61.5369H318.756C319.584 -61.5369 320.256 -60.8654 320.256 -60.0369V66.1517C320.256 66.9802 319.584 67.6517 318.756 67.6517H266.152C264.771 67.6517 263.652 68.771 263.652 70.1517V122.756C263.652 123.584 262.98 124.256 262.152 124.256H137.85C137.021 124.256 136.35 123.584 136.35 122.756V70.1517C136.35 68.771 135.231 67.6517 133.85 67.6517H81.2461C80.4177 67.6517 79.7461 66.9802 79.7461 66.1517V-60.0369C79.7461 -60.8654 80.4177 -61.5369 81.2461 -61.5369H133.85C135.231 -61.5369 136.35 -62.6562 136.35 -64.0369V-114.754C136.35 -115.582 137.021 -116.254 137.85 -116.254H262.152Z" stroke="white"/>
<path opacity="0.08" d="M273.469 -127.574C274.297 -127.574 274.969 -126.903 274.969 -126.074V-75.3572C274.969 -73.9765 276.088 -72.8572 277.469 -72.8572H330.073C330.901 -72.8572 331.573 -72.1857 331.573 -71.3572V77.4729C331.573 78.3013 330.901 78.9729 330.073 78.9729H277.469C276.088 78.9729 274.969 80.0922 274.969 81.4729V134.077C274.969 134.905 274.297 135.577 273.469 135.577H126.526C125.697 135.577 125.026 134.905 125.026 134.077V81.4729C125.026 80.0922 123.906 78.9729 122.526 78.9729H69.9219C69.0934 78.9729 68.4219 78.3013 68.4219 77.4729V-71.3572C68.4219 -72.1857 69.0934 -72.8572 69.9219 -72.8572H122.526C123.906 -72.8572 125.026 -73.9765 125.026 -75.3572V-126.074C125.026 -126.903 125.697 -127.574 126.526 -127.574H273.469Z" stroke="white"/>
<path opacity="0.06" d="M284.79 -138.896C285.619 -138.896 286.29 -138.225 286.29 -137.396V-86.6795C286.29 -85.2988 287.41 -84.1795 288.79 -84.1795H341.394C342.222 -84.1795 342.894 -83.5079 342.894 -82.6795V88.7922C342.894 89.6206 342.222 90.2922 341.394 90.2922H288.79C287.41 90.2922 286.29 91.4115 286.29 92.7922V145.396C286.29 146.224 285.619 146.896 284.79 146.896H115.205C114.377 146.896 113.705 146.224 113.705 145.396V92.7922C113.705 91.4115 112.586 90.2922 111.205 90.2922H58.6016C57.7731 90.2922 57.1016 89.6206 57.1016 88.7922V-82.6795C57.1016 -83.5079 57.7731 -84.1795 58.6016 -84.1795H111.205C112.586 -84.1795 113.705 -85.2988 113.705 -86.6795V-137.396C113.705 -138.225 114.377 -138.896 115.205 -138.896H284.79Z" stroke="white"/>
<path opacity="0.05" d="M296.115 -150.215C296.944 -150.215 297.615 -149.543 297.615 -148.715V-97.9979C297.615 -96.6172 298.735 -95.4979 300.115 -95.4979H352.719C353.547 -95.4979 354.219 -94.8263 354.219 -93.9979V100.115C354.219 100.944 353.547 101.615 352.719 101.615H300.115C298.735 101.615 297.615 102.735 297.615 104.115V156.719C297.615 157.548 296.944 158.219 296.115 158.219H103.889C103.06 158.219 102.389 157.548 102.389 156.719V104.115C102.389 102.735 101.27 101.615 99.8888 101.615H47.285C46.4566 101.615 45.785 100.944 45.785 100.115V-93.9979C45.785 -94.8263 46.4566 -95.4979 47.285 -95.4979H99.8888C101.27 -95.4979 102.389 -96.6172 102.389 -97.9979V-148.715C102.389 -149.543 103.06 -150.215 103.889 -150.215H296.115Z" stroke="white"/>
<path opacity="0.03" d="M307.433 -161.537C308.261 -161.537 308.933 -160.866 308.933 -160.037V-109.32C308.933 -107.939 310.052 -106.82 311.433 -106.82H364.036C364.865 -106.82 365.536 -106.149 365.536 -105.32V111.435C365.536 112.263 364.865 112.935 364.036 112.935H311.433C310.052 112.935 308.933 114.054 308.933 115.435V168.038C308.933 168.867 308.261 169.538 307.433 169.538H92.5647C91.7363 169.538 91.0647 168.867 91.0647 168.038V115.435C91.0647 114.054 89.9454 112.935 88.5647 112.935H35.9609C35.1325 112.935 34.4609 112.263 34.4609 111.435V-105.32C34.4609 -106.149 35.1325 -106.82 35.9609 -106.82H88.5647C89.9454 -106.82 91.0647 -107.939 91.0647 -109.32V-160.037C91.0647 -160.866 91.7363 -161.537 92.5647 -161.537H307.433Z" stroke="white"/>
<path opacity="0.02" d="M318.754 -172.859C319.582 -172.859 320.254 -172.188 320.254 -171.359V-120.642C320.254 -119.262 321.373 -118.142 322.754 -118.142H375.358C376.186 -118.142 376.858 -117.471 376.858 -116.642V122.754C376.858 123.582 376.186 124.254 375.358 124.254H322.754C321.373 124.254 320.254 125.373 320.254 126.754V179.358C320.254 180.186 319.582 180.858 318.754 180.858H81.2444C80.416 180.858 79.7444 180.186 79.7444 179.358V126.754C79.7444 125.373 78.6251 124.254 77.2444 124.254H24.6406C23.8122 124.254 23.1406 123.582 23.1406 122.754V-116.642C23.1406 -117.471 23.8122 -118.142 24.6406 -118.142H77.2444C78.6251 -118.142 79.7444 -119.262 79.7444 -120.642V-171.359C79.7444 -172.188 80.416 -172.859 81.2444 -172.859H318.754Z" stroke="white"/>
<path opacity="0.01" d="M330.079 -184.178C330.907 -184.178 331.579 -183.506 331.579 -182.678V-131.961C331.579 -130.58 332.698 -129.461 334.079 -129.461H386.683C387.511 -129.461 388.183 -128.789 388.183 -127.961V134.077C388.183 134.905 387.511 135.577 386.683 135.577H334.079C332.698 135.577 331.579 136.696 331.579 138.077V190.681C331.579 191.509 330.907 192.181 330.079 192.181H69.928C69.0996 192.181 68.428 191.509 68.428 190.681V138.077C68.428 136.696 67.3087 135.577 65.928 135.577H13.3242C12.4958 135.577 11.8242 134.905 11.8242 134.077V-127.961C11.8242 -128.789 12.4958 -129.461 13.3242 -129.461H65.928C67.3087 -129.461 68.428 -130.58 68.428 -131.961V-182.678C68.428 -183.506 69.0996 -184.178 69.928 -184.178H330.079Z" stroke="white"/>
</svg>
