<?xml version="1.0" encoding="UTF-8"?>
<svg width="308px" height="204px" viewBox="0 0 308 204" version="1.1" xmlns="http://www.w3.org/2000/svg" xmlns:xlink="http://www.w3.org/1999/xlink">
    <title>Group 2</title>
    <g id="-----------•--Desktop-Designs" stroke="none" stroke-width="1" fill="none" fill-rule="evenodd">
        <g id="Home-UI---v3" transform="translate(-172, -543)" fill-rule="nonzero">
            <g id="Frame-1000002374" transform="translate(0, 168)">
                <g id="Frame-1000002369" transform="translate(100, 0)">
                    <g id="Frame-1000002366" transform="translate(0, 375)">
                        <g id="Group-2" transform="translate(72.0002, 0.24)">
                            <g id="Group" transform="translate(173.4651, 90.4357) scale(-1, -1) rotate(-308.1545) translate(-173.4651, -90.4357)translate(130.9654, -1.8558)">
                                <g transform="translate(14.5898, 10.9191)" id="Vector" stroke="#D5EFE4" stroke-linecap="round" stroke-linejoin="round" stroke-width="0.780799985">
                                    <path d="M33.039663,173.663895 C35.8508048,147.656597 24.8375839,123.053674 0,99.8551254"></path>
                                    <path d="M25.0495625,134.274185 C33.9673266,104.67914 36.6815459,80.2013519 33.1922204,60.8408206 C27.8069923,30.964601 34.6821248,4.21761793 47.8049049,0"></path>
                                    <path d="M31.3442116,40.2846131 C30.5051909,25.170201 24.1104956,13.3953762 12.1601257,4.9601388"></path>
                                    <path d="M33.1889572,94.6416607 C34.9882384,80.6225503 41.5113701,71.1136322 52.7583523,66.1149063"></path>
                                </g>
                                <g transform="translate(42.4996, 80.8396) rotate(-0) translate(-42.4996, -80.8396)translate(0, 0)" fill="#D5EFE4" id="Vector">
                                    <path d="M12.6729322,101.364584 C17.7628818,106.874045 18.7090423,114.276713 18.4713792,114.496371 C18.1679988,114.776345 10.9282737,113.187419 5.83832421,107.679758 C0.74927486,102.170298 -0.223884392,94.7901431 0.038985309,94.5470786 C0.261344266,94.3418242 7.58298273,95.8560238 12.6729322,101.364584 Z"></path>
                                    <path d="M71.1109192,68.3955874 C64.8722655,72.5582911 62.2165613,79.5333373 62.3957088,79.8034089 C62.6252696,80.1473 70.0360276,80.2976427 76.2746812,76.134939 C82.5133349,71.9713351 85.1879503,65.0250964 84.9889976,64.7271174 C84.8215532,64.4750505 77.3486727,64.2319835 71.1109192,68.3955874 Z"></path>
                                    <path d="M50.9637794,65.7680856 C47.4807556,72.4118477 48.4917285,79.8054961 48.7798049,79.9567363 C49.1453018,80.1484871 55.7251483,76.7311897 59.2045711,70.0883277 C62.6875949,63.4445656 61.7063364,56.065307 61.3894524,55.8996631 C61.1220815,55.7583256 54.4477033,59.1243235 50.9637794,65.7680856 Z"></path>
                                    <path d="M40.3125636,56.2246812 C45.8832406,61.2462126 47.502758,68.53184 47.2858005,68.773104 C47.0094272,69.0800854 39.6544772,68.1582396 34.0829,63.1367082 C28.5113228,58.1151767 26.8692992,50.8538556 27.109663,50.5882852 C27.3122166,50.3632255 34.7409864,51.2031497 40.3125636,56.2246812 Z"></path>
                                    <path d="M45.3318467,92.3960611 C48.7743593,99.0578278 47.7237859,106.446988 47.4357095,106.596428 C47.0693124,106.786378 40.5110696,103.332162 37.0649559,96.6703956 C33.621543,90.0077287 34.6424159,82.6338787 34.9602002,82.469135 C35.2293715,82.329598 41.885733,85.7333943 45.3318467,92.3960611 Z"></path>
                                    <path d="M48.0076007,118.721136 C43.4361883,124.668112 43.1643151,132.126583 43.4208831,132.324635 C43.74857,132.576702 50.8154379,130.337812 55.3850499,124.389936 C59.9537613,118.44296 60.2544496,111.004281 59.9708744,110.786424 C59.7305107,110.601875 52.5772126,112.77326 48.0076007,118.721136 Z"></path>
                                    <path d="M47.5846576,147.482932 C44.1025341,154.125793 45.1126067,161.521255 45.4006831,161.671595 C45.7670802,161.862446 52.344226,158.445135 55.8254494,151.803174 C59.3084731,145.159413 58.3272147,137.780155 58.0103306,137.614511 C57.7420595,137.474074 51.0667811,140.840071 47.5846576,147.482932 Z"></path>
                                    <path d="M24.8773905,139.540899 C30.9098906,141.805899 37.1116399,140.158459 37.2097659,139.89739 C37.3339989,139.566102 33.7195378,134.317706 27.6870376,132.052705 C21.6491364,129.787705 15.4608848,131.407245 15.3519559,131.695321 C15.2592313,131.940186 18.8394893,137.275898 24.8773905,139.540899 Z"></path>
                                    <path d="M48.4635392,39.7984936 C45.37302,45.033382 45.8897554,51.0604841 46.1157153,51.1946197 C46.4037917,51.3647648 51.8673382,48.8675012 54.9587576,43.6326128 C58.0483765,38.3959241 57.5568478,32.3841262 57.3065815,32.2355868 C57.0941252,32.1104537 51.5531581,34.562705 48.4635392,39.7984936 Z"></path>
                                    <path d="M64.7624503,3.78714226 C58.5237964,7.95074587 55.8671987,14.9248995 56.0481466,15.1949711 C56.2777075,15.5388623 63.6875724,15.6900969 69.9262263,11.5273935 C76.1657808,7.36469008 78.8403895,0.416651664 78.6414367,0.118672681 C78.4730921,-0.132493906 71.0011042,-0.375561173 64.7624503,3.78714226 Z"></path>
                                    <path d="M23.1424429,8.12715295 C29.3828969,12.2898568 32.0377074,19.2649041 31.8567595,19.5340755 C31.6262984,19.8779667 24.2173284,20.0292091 17.9777747,15.8665052 C11.7400217,11.7029012 9.06451275,4.75575536 9.26256524,4.45777635 C9.43361057,4.20660974 16.9046899,3.96354892 23.1424429,8.12715295 Z"></path>
                                    <path d="M30.9336154,28.1926739 C38.1058168,30.3874559 42.6529254,36.304728 42.5575001,36.6153103 C42.4377683,37.0096149 35.3835069,39.2845181 28.2113055,37.0906363 C21.0391042,34.8967544 16.4802946,29.0100905 16.5856225,28.6679998 C16.6747461,28.3781229 23.7623142,25.9978919 30.9336154,28.1926739 Z"></path>
                                    <path d="M42.5271887,19.425298 C42.9476002,25.2858518 39.9057008,30.2803768 39.6509332,30.299366 C39.329548,30.3217878 35.6763768,25.8079918 35.2541648,19.947438 C34.8319529,14.0859841 37.8468544,9.09325881 38.1259284,9.07250977 C38.3653919,9.05634902 42.1040765,13.563844 42.5271887,19.425298 Z"></path>
                                    <path d="M62.2443055,93.5793398 C56.912192,96.0486945 51.1650653,94.9720094 51.0588371,94.7415483 C50.9229011,94.4480704 53.8504795,89.432841 59.182593,86.9634862 C64.5147064,84.4950316 70.2510227,85.5465028 70.368954,85.8021706 C70.4697807,86.0182279 67.5773192,91.1108852 62.2443055,93.5793398 Z"></path>
                                    <path d="M32.9796296,114.146092 C33.0696535,121.004111 29.1869174,126.615296 28.8907389,126.618902 C28.5117383,126.625199 24.5632931,121.115734 24.4732692,114.257716 C24.3814448,107.399697 28.2362667,101.786714 28.5630534,101.783112 C28.8403269,101.780412 32.8905059,107.287174 32.9796296,114.146092 Z"></path>
                                </g>
                            </g>
                            <g id="Group" transform="translate(226.96, 147.9389) rotate(-78.2138) translate(-226.96, -147.9389)translate(185.6738, 74.1246)">
                                <g transform="translate(35.9986, 38.4084)" id="Vector" stroke="#7DD0AD" stroke-width="1.25730002">
                                    <path d="M46.4961397,109.220282 C48.6835404,67.539095 37.7439505,31.4357422 13.6773701,0.910223722"></path>
                                    <path d="M41.021946,59.6450596 C31.9057632,44.6604363 18.2317813,31.6984739 0,20.7591724"></path>
                                    <path d="M30.1166482,27.9367218 C27.5382909,17.5589154 28.1331382,8.24667483 31.90119,0"></path>
                                </g>
                                <g fill="#7DD0AD" id="Vector">
                                    <g transform="translate(20.0255, 0)">
                                        <path d="M0.00299390939,0.000683581334 C-0.251941306,0.436596657 15.8281173,6.51328214 27.5881998,17.7678449 C39.4674842,29.55664 33.8310698,44.2758794 33.4804251,44.1827802 C33.4734645,44.5464762 17.7797203,45.9916944 9.64267563,31.3646779 C1.99200905,16.9978186 0.489372009,-0.124608798 0.00299390939,0.000683581334 Z"></path>
                                    </g>
                                    <g transform="translate(61.508, 1.0449)">
                                        <g transform="translate(0, 0)">
                                            <path d="M18.1129313,0 C17.7100814,0.0356735267 21.1721509,13.3540753 19.2536114,26.2435293 C17.0392425,39.4601351 4.81192604,42.5793925 4.71186615,42.3061855 C4.47085232,42.4706318 -3.72884045,32.8805479 2.0702826,20.8002742 C7.92335122,9.15678347 18.4209417,0.260155707 18.1129313,0 Z"></path>
                                        </g>
                                    </g>
                                    <g transform="translate(0, 42.6617)">
                                        <path d="M0,0.00450496577 C0.302815836,-0.262611453 7.5880472,11.4095923 18.2648725,18.8818913 C29.3819618,26.3655011 40.0544358,19.636258 39.9274033,19.373492 C40.2119214,19.312586 38.8902637,6.76420198 26.1330629,2.66522676 C13.6542894,-1.09354501 -0.0217262361,0.406484719 0,0.00450496577 Z"></path>
                                    </g>
                                </g>
                            </g>
                            <g id="Group" transform="translate(127.5487, 66.3759) scale(-1, -1) rotate(-312.757) translate(-127.5487, -66.3759)translate(108.0054, -6.1925)">
                                <g transform="translate(18.605, 78.1) rotate(0) translate(-18.605, -78.1)translate(9.3751, 11.0632)" id="Vector" stroke="#BFE8D7" stroke-width="1.05490005">
                                    <path d="M9.61822639,134.073547 C4.7700613,116.576448 4.26316216,100.182844 8.09752897,84.8927341 C15.699835,54.5771791 9.1203402,9.94781241 3.15253329,0" transform="translate(7.3383, 67.0368) rotate(0) translate(-7.3383, -67.0368)"></path>
                                    <path d="M10.5113316,32.715724 C11.8298237,27.8532994 14.4787579,24.5379908 18.4581342,22.7697983" transform="translate(14.4847, 27.7428) rotate(0) translate(-14.4847, -27.7428)"></path>
                                    <path d="M9.68628502,25.6453657 C7.26429499,25.407735 5.80435324,23.460586 5.30645976,19.8039188 C4.58790892,14.5370607 1.21581569,13.7078674 6.47756588e-16,14.0404251" transform="translate(4.8431, 19.8109) rotate(0) translate(-4.8431, -19.8109)"></path>
                                    <path d="M11.0517788,67.039566 C12.8576864,66.0345601 13.7606402,63.7869154 13.7606402,60.2966318 C13.7606402,54.1257702 16.47014,53.4990007 18.4598279,54.3281945" transform="translate(14.7558, 60.5377) rotate(0) translate(-14.7558, -60.5377)"></path>
                                    <path d="M11.5156155,51.2295485 C9.32915418,51.2295485 7.93647497,49.8852762 7.33757782,47.1967316" transform="translate(9.4266, 49.2131) rotate(0) translate(-9.4266, -49.2131)"></path>
                                    <path d="M6.3377018,114.522255 C9.61088546,112.303527 11.0037693,109.149363 10.5163534,105.059763 C9.78711546,98.9253624 13.2679747,79.3616672 15.9202633,73.5591965" transform="translate(11.129, 94.0407) rotate(0) translate(-11.129, -94.0407)"></path>
                                    <path d="M10.9225063,96.1073108 C12.153825,93.0143368 13.8191258,90.6939774 15.9184089,89.1462326" transform="translate(13.4205, 92.6268) rotate(0) translate(-13.4205, -92.6268)"></path>
                                    <path d="M6.42981219,94.2856984 C6.34431353,91.2979188 5.25171286,88.7539682 3.1520102,86.6538467" transform="translate(4.7909, 90.4698) rotate(0) translate(-4.7909, -90.4698)"></path>
                                    <path d="M9.42568016,78.0367832 C6.75264673,78.0367832 5.84675762,76.5447802 6.70801282,73.560774 C7.50849816,70.7833833 7.46512092,67.8173983 6.57788111,64.6628189" transform="translate(7.9386, 71.3498) rotate(0) translate(-7.9386, -71.3498)"></path>
                                </g>
                                <path d="M19.7290859,7.42320801 C18.9061786,14.5540237 18.7232475,15.237368 15.1235783,16.6292066 C11.5232803,18.0204166 9.02500735,14.6879265 7.28238015,10.1779672 C5.53786698,5.66737893 5.21159929,1.68674488 8.81252592,0.29553488 C12.4128239,-1.09630373 20.2829295,2.61966753 19.7290859,7.42320801 Z" id="Vector" fill="#BFE8D7" transform="translate(12.8869, 8.4744) rotate(0) translate(-12.8869, -8.4744)"></path>
                                <path d="M22.3149653,35.7122883 C23.7889381,27.4471749 26.5891649,23.8889979 30.7156457,25.0377571 C36.9053669,26.7608959 33.9111012,33.8489599 27.8420812,36.7074467 C23.7952296,38.6126855 21.9528576,38.280966 22.3149653,35.7122883 Z" id="Vector" fill="#BFE8D7" transform="translate(28.216, 31.318) rotate(0) translate(-28.216, -31.318)"></path>
                                <path d="M14.7396492,26.2068343 C14.3083929,23.2106723 12.7650449,19.7455345 8.05705936,19.0213258 C-0.563665523,17.6948672 -1.5594498,24.2190306 1.75732579,26.7600476 C4.04248106,28.5108474 8.32361039,27.9607757 11.4511612,28.7157884 C12.8606023,29.0558899 15.0992389,28.6975591 14.7396492,26.2068343 Z" id="Vector" fill="#BFE8D7" transform="translate(7.3891, 23.8349) rotate(0) translate(-7.3891, -23.8349)"></path>
                                <path d="M25.2970679,67.9596267 C26.7637163,70.7609062 33.1722125,76.8299291 37.8978003,69.0371415 C42.6240167,61.2449822 32.1688835,57.9137452 25.6283733,62.5293185 C24.2201897,63.5244769 24.6665285,66.7544981 25.2970679,67.9596267 Z" id="Vector" fill="#BFE8D7" transform="translate(31.8921, 66.6436) rotate(0) translate(-31.8921, -66.6436)"></path>
                                <path d="M17.8845876,60.7617961 C19.5913817,60.1721192 21.58672,55.7218806 17.7506765,53.5347953 C12.5925749,50.5920687 10.3564634,45.545242 6.14888593,49.1826304 C1.25670467,53.4103244 7.72051898,64.2703106 17.8845876,60.7617961 Z" id="Vector" fill="#BFE8D7" transform="translate(12.2168, 54.6815) rotate(0) translate(-12.2168, -54.6815)"></path>
                                <path d="M24.1416897,88.7662125 C29.9454154,88.7662125 32.9023902,87.3846445 33.0126141,84.6215087 C33.1785786,80.4761682 30.7739918,76.6357195 26.7116331,78.0998533 C22.6511602,79.5646157 18.6692613,84.7874651 24.1416897,88.7662125 Z" id="Vector" fill="#BFE8D7" transform="translate(27.2444, 83.2742) rotate(0) translate(-27.2444, -83.2742)"></path>
                                <path d="M22.7965444,102.77496 C23.3874825,102.246887 25.2700918,102.12786 28.4443725,102.417879 C32.3401378,102.77496 34.412797,99.1293973 31.0142965,96.3947551 C27.6164246,93.6588554 22.2879638,94.3994104 22.7965444,102.77496 Z" id="Vector" fill="#BFE8D7" transform="translate(27.7456, 98.8732) rotate(0) translate(-27.7456, -98.8732)"></path>
                                <path d="M16.7134893,78.8768942 C18.0126984,78.1769937 18.6254219,77.3297786 18.5516599,76.3352489 C18.4410169,74.8428257 19.8221778,68.7637416 12.5279117,69.316328 C5.23238834,69.8682857 11.9457812,79.0981803 16.7134893,78.8768942 Z" id="Vector" fill="#BFE8D7" transform="translate(13.9472, 74.0809) rotate(0) translate(-13.9472, -74.0809)"></path>
                                <path d="M13.8273824,99.3057032 C18.282862,93.026713 17.686062,89.5140074 12.0369822,88.7675862 C6.43065072,88.0270325 4.38626535,96.9765423 13.8273824,99.3057032 Z" id="Vector" fill="#BFE8D7" transform="translate(11.8098, 94.0149) rotate(0) translate(-11.8098, -94.0149)"></path>
                            </g>
                            <g id="Group" opacity="0.100000001" transform="translate(39.7226, 67.1805) rotate(-180) translate(-39.7226, -67.1805)translate(0, 24.7593)">
                                <g transform="translate(4.2969, 6.1758)" id="Vector" stroke="#0FAA69" stroke-width="0.800000012">
                                    <path d="M31.8389454,78.6666537 C31.3038491,42.0093189 32.3742431,15.7871001 35.0501275,-2.77772233e-06"></path>
                                    <path d="M32.0546913,42.5419185 C44.3942184,44.8609294 57.5210177,39.1529455 71.4350891,25.4179668"></path>
                                    <path d="M32.0654862,42.5422993 C12.1179478,40.4019398 1.78752573,30.769676 1.07421994,13.6455078"></path>
                                    <path d="M51.7454906,39.1009483 C50.9584465,29.979411 52.7052808,23.4565025 56.9859934,19.5322227"></path>
                                    <path d="M42.5429726,42.0058556 C49.6786743,46.2874477 57.8843298,46.4658847 67.1599388,42.5411665"></path>
                                    <path d="M18.1622925,38.3269387 C10.1565935,40.60293 4.10249605,39.8676751 0,36.1211739" transform="translate(9.0811, 37.7377) rotate(-0) translate(-9.0811, -37.7377)"></path>
                                    <path d="M9.07812691,21.1376953 C19.7382027,28.5920737 24.6799828,35.0934737 23.9034672,40.6418953"></path>
                                    <path d="M32.921875,21.1371965 C37.0147186,19.5314899 40.5768603,14.7152489 43.6083002,6.6884737"></path>
                                    <path d="M33.4108486,13.6450312 C28.109117,12.3966343 24.9604735,8.47235377 23.9649181,1.87218976" transform="translate(28.6879, 7.7586) rotate(-0) translate(-28.6879, -7.7586)"></path>
                                    <path d="M32.0546875,42.5448217 C41.1393465,34.3398252 46.8852971,24.7968889 49.2925396,13.9160128"></path>
                                    <path d="M35.4179726,39.1009922 C40.0612701,38.5860955 43.1524112,36.6898 44.6913958,33.4121056"></path>
                                    <path d="M42.5401783,29.6921711 C40.0297927,29.0943174 38.6049428,27.457668 38.2656288,24.7822227"></path>
                                    <path d="M18.1594301,8.22656059 C16.5212413,12.4405517 21.6030604,18.8622819 27.2228118,24.782939 C30.9684349,28.7291659 32.4854687,34.722911 31.7739133,42.7641741 C27.8702639,44.4229897 23.8448047,44.8843316 19.6975357,44.1482001"></path>
                                    <path d="M28.3804808,26.2207627 C27.7453093,23.4557683 27.7453093,20.8356306 28.3804808,18.3603497"></path>
                                    <path d="M30.5669689,30.8901219 C30.4998084,30.6813977 26.4287133,30.7031227 23.9648457,26.7900372"></path>
                                </g>
                                <g transform="translate(39.7226, 27.3148) rotate(-0) translate(-39.7226, -27.3148)" fill="#0FAA69" id="Vector">
                                    <g transform="translate(39.7226, 27.3148) rotate(-0) translate(-39.7226, -27.3148)">
                                        <g transform="translate(35.6328, -0)">
                                            <g transform="translate(3.8838, 3.8841) rotate(-0) translate(-3.8838, -3.8841)">
                                                <path d="M7.76756907,3.8841157 C7.76756907,6.02864193 6.02929087,7.76823139 3.88410603,7.76823139 C1.7389212,7.76823139 0,6.02864193 0,3.8841157 C0,1.73893107 1.73957959,0 3.88410603,0 C6.02994941,0 7.76756907,1.73827253 7.76756907,3.8841157 Z" transform="translate(3.8838, 3.8841) rotate(-0) translate(-3.8838, -3.8841)"></path>
                                            </g>
                                        </g>
                                        <g transform="translate(44.5352, 7.8877)">
                                            <g transform="translate(3.8852, 3.8851) rotate(-0) translate(-3.8852, -3.8851)">
                                                <path d="M7.58563282,5.0657071 C6.93180593,7.10949258 4.74579728,8.23739039 2.70398731,7.58553872 C0.660202026,6.93302862 -0.467032776,4.74702031 0.184818833,2.70389338 C0.836670443,0.660107898 3.02266936,-0.467791011 5.06513771,0.185377515 C7.108923,0.837229186 8.23748443,3.02192162 7.58563282,5.0657071 Z" transform="translate(3.8852, 3.8851) rotate(-0) translate(-3.8852, -3.8851)"></path>
                                            </g>
                                        </g>
                                        <g transform="translate(50.3984, 15.0137)">
                                            <g transform="translate(3.8848, 3.8852) rotate(-0) translate(-3.8848, -3.8852)">
                                                <path d="M7.58488744,5.06573717 C6.93303572,7.10952263 4.74701153,8.23742105 2.70388446,7.58556939 C0.660098838,6.93371772 -0.467790062,4.74771349 0.185378509,2.70458658 C0.837888652,0.660801128 3.02191272,-0.467096844 5.06569834,0.184754818 C7.10816702,0.837264908 8.23673915,3.02195172 7.58488744,5.06573717 Z" transform="translate(3.8848, 3.8852) rotate(-0) translate(-3.8848, -3.8852)"></path>
                                            </g>
                                        </g>
                                        <g transform="translate(57.7344, 20.2236)">
                                            <g transform="translate(3.884, 3.8846) rotate(-0) translate(-3.884, -3.8846)">
                                                <path d="M7.17671785,5.94326161 C6.04091555,7.76120385 3.64421912,8.31561183 1.82561853,7.17849255 C0.00701794296,6.04203173 -0.546068371,3.64531997 0.591050787,1.82671918 C1.72685309,0.00746000903 4.12289589,-0.546284165 5.94281325,0.590835117 C7.7600969,1.72729593 8.31449548,4.12334405 7.17671785,5.94326161 Z" transform="translate(3.884, 3.8846) rotate(-0) translate(-3.884, -3.8846)"></path>
                                            </g>
                                        </g>
                                        <g transform="translate(71.6758, 25.7783)">
                                            <g transform="translate(3.8847, 3.8844) rotate(-0) translate(-3.8847, -3.8844)">
                                                <path d="M7.1780184,5.94263394 C6.04024096,7.76123423 3.64615398,8.31497346 1.82623691,7.17785449 C0.00697822503,6.04139399 -0.546092615,3.64535147 0.591026359,1.82609279 C1.72814533,0.00749250255 4.12484605,-0.546256857 5.9427878,0.590862114 C7.76204648,1.72798109 8.31579585,4.12337526 7.1780184,5.94263394 Z" transform="translate(3.8847, 3.8844) rotate(-0) translate(-3.8847, -3.8844)"></path>
                                            </g>
                                        </g>
                                        <g transform="translate(67.7813, 44.0488)">
                                            <g transform="translate(3.8847, 3.8849) rotate(-0) translate(-3.8847, -3.8849)">
                                                <path d="M7.17804332,5.94373812 C6.04158274,7.76233868 3.64553552,8.31608804 1.82561834,7.1789689 C0.00701794224,6.04184976 -0.546068315,3.64514401 0.591050727,1.82654345 C1.7275113,0.00728450068 4.12289546,-0.546464903 5.94281264,0.591312706 C7.76207143,1.72843185 8.31582083,4.12382078 7.17804332,5.94373812 Z" transform="translate(3.8847, 3.8849) rotate(-0) translate(-3.8847, -3.8849)"></path>
                                            </g>
                                        </g>
                                        <g transform="translate(47.1289, 34.665)">
                                            <g transform="translate(3.8846, 3.8848) rotate(-0) translate(-3.8846, -3.8848)">
                                                <path d="M7.17867743,5.94326106 C6.04089974,7.76186167 3.64483659,8.31626952 1.82689444,7.17849188 C0.00763535913,6.04203117 -0.546103253,3.64531963 0.590357505,1.82671901 C1.72879359,0.00746000833 4.12287054,-0.546284114 5.94344656,0.590835062 C7.76270564,1.7286127 8.3144798,4.12334367 7.17867743,5.94326106 Z" transform="translate(3.8846, 3.8848) rotate(-0) translate(-3.8846, -3.8848)"></path>
                                            </g>
                                        </g>
                                        <g transform="translate(38.1758, 26.6377)">
                                            <g transform="translate(3.8845, 3.8848) rotate(-0) translate(-3.8845, -3.8848)">
                                                <path d="M7.70763615,3.20066339 C8.08557849,5.31160967 6.68113073,7.33037051 4.56820907,7.70831285 C2.45792128,8.08559676 0.43915534,6.67983716 0.0612129924,4.56823249 C-0.316070928,2.45662782 1.08968747,0.437861922 3.20260913,0.0612364402 C5.31355547,-0.31604747 7.33035223,1.08905872 7.70763615,3.20066339 Z" transform="translate(3.8845, 3.8848) rotate(-0) translate(-3.8845, -3.8848)"></path>
                                            </g>
                                        </g>
                                        <g transform="translate(24.2031, 4.0029)">
                                            <g transform="translate(3.8838, 3.8844) rotate(-0) translate(-3.8838, -3.8844)">
                                                <path d="M7.74415646,4.30643771 C7.51172854,6.43779522 5.59370598,7.97854065 3.46169005,7.74545429 C1.33033252,7.51236792 -0.209759655,5.59566175 0.023326714,3.46298731 C0.255754635,1.33097142 2.17049617,-0.209768237 4.30448741,0.0233181286 C6.43716188,0.255746047 7.97790126,2.17310488 7.74415646,4.30643771 Z" transform="translate(3.8838, 3.8844) rotate(-0) translate(-3.8838, -3.8844)"></path>
                                            </g>
                                        </g>
                                        <g transform="translate(16.8125, 9.6934)">
                                            <g transform="translate(3.8837, 3.8844) rotate(-0) translate(-3.8837, -3.8844)">
                                                <path d="M7.75799632,4.15304445 C7.60984821,6.29230337 5.75437581,7.90745066 3.61445853,7.75930254 C1.47454126,7.61049599 -0.139289435,5.75502329 0.00951711712,3.61576438 C0.157006804,1.47650546 2.01183138,-0.139299943 4.15174865,0.00950661164 C6.29100753,0.157654729 7.90548601,2.01312715 7.75799632,4.15304445 Z" transform="translate(3.8837, 3.8844) rotate(-0) translate(-3.8837, -3.8844)"></path>
                                            </g>
                                        </g>
                                        <g transform="translate(9.043, 21.8906)">
                                            <g transform="translate(3.8843, 3.8847) rotate(-0) translate(-3.8843, -3.8847)">
                                                <path d="M7.75923462,4.15371418 C7.60976963,6.29297296 5.75561441,7.90877858 3.61569714,7.75997204 C1.47643825,7.61050705 -0.1387189,5.75568821 0.00942921502,3.61577105 C0.15757733,1.4751955 2.01304989,-0.139292999 4.15296716,0.00951354526 C6.2915675,0.157661652 7.90672431,2.01313863 7.75923462,4.15371418 Z" transform="translate(3.8843, 3.8847) rotate(-0) translate(-3.8843, -3.8847)"></path>
                                            </g>
                                        </g>
                                        <g transform="translate(0.8164, 15.0088)">
                                            <g transform="translate(3.8841, 3.8841) rotate(-0) translate(-3.8841, -3.8841)">
                                                <path d="M7.75871255,4.15246275 C7.60990601,6.29106317 5.75509257,7.90686872 3.61517554,7.7587206 C1.47525851,7.60925561 -0.139873637,5.75444163 0.00959133545,3.61518267 C0.157739433,1.47592371 2.01319628,-0.139877206 4.15377169,0.0095877888 C6.2917134,0.157077481 7.90686064,2.01188702 7.75871255,4.15246275 Z" transform="translate(3.8841, 3.8841) rotate(-0) translate(-3.8841, -3.8841)"></path>
                                            </g>
                                        </g>
                                        <g transform="translate(3.8843, 41.473) rotate(-0) translate(-3.8843, -41.473)translate(0, 37.5889)">
                                            <g transform="translate(3.8843, 3.8841) rotate(-0) translate(-3.8843, -3.8841)">
                                                <path d="M7.75921438,4.15312928 C7.60974939,6.29238822 5.75559421,7.90754029 3.61567698,7.75873374 C1.47641813,7.60992718 -0.138718791,5.75511347 0.00942932153,3.61519614 C0.157577434,1.47527881 2.01303902,-0.139873766 4.15427318,0.00959122827 C6.29287348,0.157739347 7.90736249,2.01255356 7.75921438,4.15312928 Z" transform="translate(3.8843, 3.8841) rotate(-0) translate(-3.8843, -3.8841)"></path>
                                            </g>
                                        </g>
                                        <g transform="translate(18.0898, 46.8594)">
                                            <g transform="translate(3.8842, 3.8851) rotate(-0) translate(-3.8842, -3.8851)">
                                                <path d="M7.70472296,4.58107601 C7.32151319,6.69070569 5.29880745,8.0911956 3.18786151,7.70666885 C1.0782325,7.3221421 -0.320940954,5.29943093 0.0635856767,3.18914287 C0.44745388,1.0795132 2.46819067,-0.320986835 4.57847806,0.0635399165 C6.69008239,0.447408241 8.08924959,2.4701294 7.70472296,4.58107601 Z" transform="translate(3.8842, 3.8851) rotate(-0) translate(-3.8842, -3.8851)"></path>
                                            </g>
                                        </g>
                                        <g transform="translate(22.1719, 28.6465)">
                                            <g transform="translate(3.8843, 3.885) rotate(-0) translate(-3.8843, -3.885)">
                                                <path d="M7.70467896,4.58090143 C7.32146916,6.69053051 5.29942605,8.09102004 3.18847995,7.70649339 C1.07950917,7.32196675 -0.320985684,5.2992461 0.0635409756,3.18895862 C0.447409207,1.07932954 2.46879351,-0.320501716 4.57973961,0.0633665008 C6.69068571,0.44657629 8.09052251,2.46929702 7.70467896,4.58090143 Z" transform="translate(3.8843, 3.885) rotate(-0) translate(-3.8843, -3.885)"></path>
                                            </g>
                                        </g>
                                        <g transform="translate(28.0859, 19.6699)">
                                            <g transform="translate(3.8838, 3.885) rotate(-0) translate(-3.8838, -3.885)">
                                                <path d="M7.70433085,4.58090057 C7.32177952,6.68987144 5.2984044,8.09101948 3.18877529,7.7064928 C1.07914619,7.32262455 -0.320016552,5.2999084 0.0631932407,3.18962074 C0.447719888,1.07933309 2.46780758,-0.320502813 4.579412,0.0633654369 C6.68838272,0.447892115 8.08819907,2.46995436 7.70433085,4.58090057 Z" transform="translate(3.8838, 3.885) rotate(-0) translate(-3.8838, -3.885)"></path>
                                            </g>
                                        </g>
                                    </g>
                                </g>
                            </g>
                        </g>
                    </g>
                </g>
            </g>
        </g>
    </g>
</svg>