<svg width="16" height="16" viewBox="0 0 16 16" fill="none" xmlns="http://www.w3.org/2000/svg">
<path d="M15.4419 7.44186H13.9237C13.6558 4.60651 11.3935 2.33674 8.55814 2.07628V0.55814C8.55814 0.253023 8.30512 0 8 0C7.69488 0 7.44186 0.253023 7.44186 0.55814V2.07628C4.60651 2.34419 2.33674 4.60651 2.07628 7.44186H0.55814C0.253023 7.44186 0 7.69488 0 8C0 8.30512 0.253023 8.55814 0.55814 8.55814H2.07628C2.34419 11.3935 4.60651 13.6633 7.44186 13.9237V15.4419C7.44186 15.747 7.69488 16 8 16C8.30512 16 8.55814 15.747 8.55814 15.4419V13.9237C11.3935 13.6558 13.6633 11.3935 13.9237 8.55814H15.4419C15.747 8.55814 16 8.30512 16 8C16 7.69488 15.747 7.44186 15.4419 7.44186ZM8 10.3219C6.72 10.3219 5.67814 9.28 5.67814 8C5.67814 6.72 6.72 5.67814 8 5.67814C9.28 5.67814 10.3219 6.72 10.3219 8C10.3219 9.28 9.28 10.3219 8 10.3219Z" fill="#455DDF"/>
</svg>
