<svg width="160" height="160" viewBox="0 0 160 160" fill="none" xmlns="http://www.w3.org/2000/svg">
<g id="Mental Health 1">
<g id="Clouds">
<path id="Vector" d="M172.36 10.2982C172.36 10.2982 171.372 5.11078 166.925 4.36972C162.479 3.62866 159.761 9.55714 159.02 9.8043C158.279 10.0515 157.538 8.07502 155.068 9.06324C152.597 10.0515 151.362 12.2746 151.362 12.2746C151.362 12.2746 150.374 10.7925 148.645 11.0393C146.916 11.2864 145.434 13.0153 145.434 13.0153H180.512C180.512 13.0153 179.524 10.2982 177.3 9.55673C175.077 8.81608 172.36 10.2982 172.36 10.2982Z" stroke="#3D5CB3" stroke-miterlimit="10" stroke-linecap="round" stroke-linejoin="round"/>
</g>
<g id="Arrows">
<g id="Group">
<path id="Vector_2" d="M41.158 -12.2266L38.0898 -5.29496L41.3853 -6.09025C41.3853 -6.09025 40.4761 -3.0221 42.9763 -0.294668C45.4764 2.43276 50.4763 4.81906 49.5672 8.34179C48.658 11.8645 46.2717 14.0235 46.7263 18.2281C47.1809 22.4327 51.2716 25.8416 51.2716 25.8416L55.135 21.5235C55.135 21.5235 51.2716 19.0234 52.7488 14.5919C54.2259 10.1601 55.5412 6.07886 52.976 1.86475C51.1652 -1.10984 47.0033 -0.58985 44.4534 -4.15812C43.1158 -6.03022 43.6581 -6.65826 43.6581 -6.65826L46.7263 -7.56741L41.158 -12.2266Z" fill="#3D5CB3"/>
<path id="Vector_3" d="M84.602 -11.875L79.4883 -8.23884L81.9884 -7.55698C81.9884 -7.55698 79.1476 -4.48883 79.9429 -0.852664C80.7382 2.78391 87.1017 6.87465 87.4429 9.60208C87.7836 12.3295 85.0566 16.4202 85.0566 16.4202L89.7157 18.0112C89.7157 18.0112 92.8977 11.5338 91.6475 7.67035C90.3976 3.80691 83.2383 0.397614 82.6703 -2.55669C82.1023 -5.51141 83.9202 -7.44313 83.9202 -7.44313L85.8519 -7.21584L84.602 -11.875Z" fill="#3D5CB3" stroke="#3D5CB3" stroke-miterlimit="10" stroke-linecap="round" stroke-linejoin="round"/>
<path id="Vector_4" d="M106.719 -13.9287L102.214 -13.3234L103.586 -12.0425C103.586 -12.0425 100.729 -11.0344 100.012 -8.43535C99.295 -5.83584 101.993 -1.06614 101.292 0.796855C100.59 2.66027 97.4609 4.36181 97.4609 4.36181L99.9106 6.95386C99.9106 6.95386 104.136 3.87577 104.639 0.977358C105.141 -1.92106 101.703 -6.52225 102.336 -8.60798C102.969 -10.6937 104.786 -11.3184 104.786 -11.3184L105.948 -10.5207L106.719 -13.9287Z" fill="#6382DB"/>
<path id="Vector_5" d="M21.6445 7.18569L26.0193 5.95197L25.2683 7.67255C25.2683 7.67255 28.2901 7.46306 29.9808 9.56412C31.6716 11.6648 31.0891 17.1142 32.4731 18.5454C33.8571 19.9766 37.4047 20.2962 37.4047 20.2962L36.1859 23.648C36.1859 23.648 31.0854 22.5012 29.4733 20.0404C27.8612 17.5796 29.1893 11.9918 27.78 10.3288C26.3708 8.66615 24.4548 8.81436 24.4548 8.81436L23.7054 10.0075L21.6445 7.18569Z" fill="#6382DB"/>
</g>
</g>
<g id="Leaves">
<g id="Group_2">
<path id="Vector_6" d="M105.394 12.8441C105.394 12.8441 104.995 11.8596 105.752 9.80575C106.508 7.75189 108.67 7.42773 108.67 7.42773C108.67 7.42773 108.995 8.7248 108.454 10.0219C107.914 11.3189 105.394 12.8441 105.394 12.8441Z" fill="#6382DB"/>
<path id="Vector_7" d="M39.5277 2.70522C39.5277 2.70522 38.4741 2.83811 36.6827 1.5808C34.8913 0.323478 35.1319 -1.84961 35.1319 -1.84961C35.1319 -1.84961 36.4687 -1.83057 37.584 -0.976069C38.6993 -0.121159 39.5277 2.70522 39.5277 2.70522Z" fill="#3D5CB3" stroke="#3D5CB3" stroke-miterlimit="10" stroke-linecap="round" stroke-linejoin="round"/>
<path id="Vector_8" d="M27.9219 29.051C27.9219 29.051 28.5093 28.1663 30.6315 27.631C32.7537 27.0957 34.242 28.697 34.242 28.697C34.242 28.697 33.3544 29.6968 31.9791 29.9833C30.6034 30.2698 27.9219 29.051 27.9219 29.051Z" fill="#6382DB"/>
</g>
</g>
<g id="Hearts">
<g id="Group_3">
<g id="Group_4">
<path id="Vector_9" d="M15.4886 22.9058C15.4886 22.9058 13.4674 22.4831 12.5926 24.2277C12.0308 25.348 12.189 27.2491 13.8777 28.0212C15.5664 28.7933 20.2144 28.5755 20.2144 28.5755C20.2144 28.5755 22.1411 23.3194 20.0968 20.8122C18.5215 18.8805 15.4554 19.9933 15.4886 22.9058Z" fill="#3D5CB3"/>
<path id="Vector_10" d="M18.4055 23.2279L17.3361 24.2066L16.3574 23.1368L15.4661 23.9524L16.4448 25.0218L15.375 26.0005L16.1906 26.8918L17.2599 25.9131L18.2386 26.9829L19.13 26.1673L18.1513 25.098L19.2211 24.1193L18.4055 23.2279Z" fill="#6382DB"/>
</g>
<g id="Group_5">
<path id="Vector_11" d="M107.488 47.9583C107.488 47.9583 107.61 45.897 105.756 45.2872C104.565 44.8955 102.708 45.3307 102.191 47.1146C101.675 48.8985 102.572 53.4641 102.572 53.4641C102.572 53.4641 108.053 54.5993 110.234 52.2097C111.914 50.3686 110.364 47.4988 107.488 47.9583Z" fill="#3D5CB3"/>
<path id="Vector_12" d="M107.597 50.8914L106.473 49.9769L107.387 48.852L106.45 48.0898L105.535 49.2147L104.411 48.3002L103.648 49.2375L104.773 50.152L103.858 51.2768L104.796 52.039L105.71 50.9141L106.835 51.8287L107.597 50.8914Z" fill="#6382DB"/>
</g>
</g>
</g>
<g id="Plants">
<g id="Group_6">
<g id="Group_7">
<path id="Vector_13" d="M61.0898 -0.998047C61.0898 -0.998047 61.5552 0.630213 62.408 0.707631C63.2609 0.785049 64.0363 -0.92063 64.0363 -0.92063C64.0363 -0.92063 61.71 -0.998047 61.0898 -0.998047Z" fill="#3D5CB3" stroke="#3D5CB3" stroke-miterlimit="10" stroke-linecap="round" stroke-linejoin="round"/>
<g id="Vector_14">
<path d="M62.4058 0.708008C62.4058 0.708008 62.1732 11.0973 65.5071 21.4088L62.4058 0.708008Z" fill="white"/>
<path d="M62.4058 0.708008C62.4058 0.708008 62.1732 11.0973 65.5071 21.4088" stroke="#3D5CB3" stroke-miterlimit="10" stroke-linecap="round" stroke-linejoin="round"/>
</g>
<g id="Group_8">
<path id="Vector_15" d="M62.6395 6.3685C62.6395 6.3685 61.6314 5.28299 60.5463 3.96523C59.4608 2.64705 57.3676 1.7168 57.3676 1.7168C57.3676 1.7168 56.9801 4.1979 58.7632 5.59349C60.5463 6.98867 62.6395 6.3685 62.6395 6.3685Z" fill="#3D5CB3" stroke="#3D5CB3" stroke-miterlimit="10" stroke-linecap="round" stroke-linejoin="round"/>
<path id="Vector_16" d="M62.6406 6.36775C62.6406 6.36775 63.106 4.11932 64.0362 3.11164C64.9665 2.10355 67.1069 1.00977 67.1069 1.00977C67.1069 1.00977 66.9048 2.95639 66.1294 4.7399C65.3544 6.52259 62.6406 6.36775 62.6406 6.36775Z" fill="#3D5CB3" stroke="#3D5CB3" stroke-miterlimit="10" stroke-linecap="round" stroke-linejoin="round"/>
</g>
<g id="Group_9">
<path id="Vector_17" d="M63.1824 10.8656C63.1824 10.8656 62.1743 9.78006 61.0893 8.4623C60.0037 7.14413 57.9106 6.21387 57.9106 6.21387C57.9106 6.21387 57.5231 8.69497 59.3062 10.0906C61.0893 11.4857 63.1824 10.8656 63.1824 10.8656Z" fill="#3D5CB3" stroke="#3D5CB3" stroke-miterlimit="10" stroke-linecap="round" stroke-linejoin="round"/>
<path id="Vector_18" d="M63.1836 10.8648C63.1836 10.8648 63.4163 9.31439 64.3465 8.3063C65.2768 7.29821 67.6498 5.50684 67.6498 5.50684C67.6498 5.50684 67.6026 7.29863 66.8276 9.08173C66.0522 10.8648 63.1836 10.8648 63.1836 10.8648Z" fill="#3D5CB3" stroke="#3D5CB3" stroke-miterlimit="10" stroke-linecap="round" stroke-linejoin="round"/>
</g>
<g id="Group_10">
<path id="Vector_19" d="M64.1133 16.5252C64.1133 16.5252 63.8032 15.905 62.7177 14.5868C61.6321 13.2686 58.841 11.873 58.841 11.873C58.841 11.873 58.5309 14.9743 60.314 16.3699C62.0975 17.7655 64.1133 16.5252 64.1133 16.5252Z" fill="#3D5CB3" stroke="#3D5CB3" stroke-miterlimit="10" stroke-linecap="round" stroke-linejoin="round"/>
<path id="Vector_20" d="M64.1133 16.5244C64.1133 16.5244 64.3459 14.9736 65.2762 13.9659C66.2064 12.9578 68.5795 11.166 68.5795 11.166C68.5795 11.166 68.4549 13.1126 67.6799 14.8962C66.9044 16.6793 64.1133 16.5244 64.1133 16.5244Z" fill="#3D5CB3" stroke="#3D5CB3" stroke-miterlimit="10" stroke-linecap="round" stroke-linejoin="round"/>
</g>
</g>
<g id="Group_11">
<g id="Group_12">
<path id="Vector_21" d="M90.2891 48.591C90.2891 48.591 97.1478 41.818 99.5155 33.4883" stroke="#6382DB" stroke-miterlimit="10" stroke-linecap="round" stroke-linejoin="round"/>
<path id="Vector_22" d="M98.9105 35.4028C98.9105 35.4028 100.614 34.4208 100.556 32.3723C100.521 31.1547 100.029 29.49 99.4785 29.8159C98.9279 30.1417 98.3164 31.2466 98.1023 32.3856C97.8022 33.984 98.9105 35.4028 98.9105 35.4028Z" fill="#6382DB"/>
<g id="Group_13">
<path id="Vector_23" d="M97.378 38.6911C97.378 38.6911 97.8703 36.5512 97.147 35.5712C96.4238 34.5913 94.7752 33.2657 94.5248 33.8544C94.2743 34.4431 94.4813 36.1318 94.9694 37.1829C95.4571 38.2341 97.378 38.6911 97.378 38.6911Z" fill="#6382DB"/>
<path id="Vector_24" d="M103.133 39.1601C103.133 39.1601 101.607 37.5811 100.391 37.6528C99.1754 37.7248 97.1654 38.3843 97.5223 38.915C97.8796 39.4462 99.4081 40.1931 100.555 40.3574C101.702 40.5218 103.133 39.1601 103.133 39.1601Z" fill="#6382DB"/>
</g>
<g id="Group_14">
<path id="Vector_25" d="M95.4913 41.8845C95.4913 41.8845 95.9836 39.7445 95.2603 38.7646C94.5371 37.7846 92.8885 36.459 92.638 37.0477C92.3876 37.6368 92.5946 39.3251 93.0827 40.3763C93.57 41.4274 95.4913 41.8845 95.4913 41.8845Z" fill="#6382DB"/>
<path id="Vector_26" d="M101.246 42.3535C101.246 42.3535 99.7205 40.7745 98.5046 40.8461C97.2887 40.9182 95.2787 41.5777 95.6356 42.1084C95.9929 42.6396 97.5213 43.3864 98.6681 43.5508C99.8153 43.7151 101.246 42.3535 101.246 42.3535Z" fill="#6382DB"/>
</g>
<g id="Group_15">
<path id="Vector_27" d="M93.464 44.7858C93.464 44.7858 93.9558 42.6459 93.233 41.6659C92.5101 40.686 90.8612 39.3604 90.6107 39.9491C90.3602 40.5382 90.5672 42.2269 91.0553 43.2776C91.5426 44.3292 93.464 44.7858 93.464 44.7858Z" fill="#6382DB"/>
<path id="Vector_28" d="M99.2188 45.2558C99.2188 45.2558 97.6932 43.6768 96.4772 43.7485C95.2613 43.8205 93.2514 44.48 93.6082 45.0107C93.9655 45.5419 95.494 46.2888 96.6408 46.4531C97.788 46.6171 99.2188 45.2558 99.2188 45.2558Z" fill="#6382DB"/>
</g>
<g id="Group_16">
<path id="Vector_29" d="M91.253 47.4618C91.253 47.4618 91.7449 45.3218 91.022 44.3419C90.2992 43.3619 88.6502 42.0363 88.3998 42.625C88.1493 43.2141 88.3563 44.9024 88.8444 45.9536C89.3317 47.0047 91.253 47.4618 91.253 47.4618Z" fill="#6382DB"/>
<path id="Vector_30" d="M97.0078 47.9308C97.0078 47.9308 95.4822 46.3518 94.2663 46.4234C93.0504 46.4954 91.0404 47.1549 91.3973 47.6857C91.7546 48.2168 93.2831 48.9637 94.4298 49.128C95.5775 49.292 97.0078 47.9308 97.0078 47.9308Z" fill="#6382DB"/>
</g>
</g>
<g id="Group_17">
<path id="Vector_31" d="M38.5157 44.7983C38.5157 44.7983 37.3689 44.8745 36.4577 45.6072C35.5465 46.34 33.3804 46.244 33.4632 44.6066C33.5465 42.9692 36.7641 42.9953 37.5031 43.2822C38.242 43.5691 38.2421 43.5691 38.2421 43.5691C38.2421 43.5691 35.5982 42.0651 34.6494 40.7842C33.7001 39.5032 35.4591 37.8025 36.8796 38.9559C38.3 40.1093 38.8987 41.8937 38.8987 41.8937C38.8987 41.8937 38.5103 39.6635 38.9185 38.5804C39.3263 37.4974 41.3396 37.4593 41.7474 38.5361C42.1548 39.6129 40.3642 42.2758 40.262 42.9067C40.1597 43.5368 39.7453 44.5246 38.5157 44.7983Z" fill="#6382DB"/>
<path id="Vector_32" d="M38.5156 44.7982C38.5156 44.7982 39.8533 45.4292 40.3952 44.9133C40.9367 44.3975 40.2619 42.9062 40.2619 42.9062C40.2619 42.9062 38.8725 44.3904 38.5156 44.7982Z" fill="#3D5CB3" stroke="#3D5CB3" stroke-miterlimit="10" stroke-linecap="round" stroke-linejoin="round"/>
<path id="Vector_33" d="M40.3945 44.9141C40.3945 44.9141 47.0897 51.0446 55.7858 54.7859" stroke="#3D5CB3" stroke-miterlimit="10" stroke-linecap="round" stroke-linejoin="round"/>
<g id="Group_18">
<path id="Vector_34" d="M44.2513 48.0175C44.2513 48.0175 42.958 48.0556 41.4672 48.0105C39.9764 47.9658 38.1602 48.8062 38.1602 48.8062C38.1602 48.8062 39.5678 50.4887 41.5111 50.1194C43.4544 49.7501 44.2513 48.0175 44.2513 48.0175Z" fill="#3D5CB3" stroke="#3D5CB3" stroke-miterlimit="10" stroke-linecap="round" stroke-linejoin="round"/>
<path id="Vector_35" d="M44.2524 48.0168C44.2524 48.0168 43.0423 46.4175 42.9148 45.226C42.7877 44.0345 43.2998 41.998 43.2998 41.998C43.2998 41.998 44.4632 43.2508 45.1893 44.7867C45.9155 46.3223 44.2524 48.0168 44.2524 48.0168Z" fill="#3D5CB3" stroke="#3D5CB3" stroke-miterlimit="10" stroke-linecap="round" stroke-linejoin="round"/>
</g>
<g id="Group_19">
<path id="Vector_36" d="M47.517 50.248C47.517 50.248 46.2236 50.2861 44.7328 50.241C43.242 50.1963 41.4258 51.0367 41.4258 51.0367C41.4258 51.0367 42.8334 52.7192 44.7767 52.3499C46.72 51.9806 47.517 50.248 47.517 50.248Z" fill="#3D5CB3" stroke="#3D5CB3" stroke-miterlimit="10" stroke-linecap="round" stroke-linejoin="round"/>
<path id="Vector_37" d="M47.5178 50.2472C47.5178 50.2472 46.6322 49.2023 46.5051 48.0108C46.378 46.8193 46.5656 44.2285 46.5656 44.2285C46.5656 44.2285 47.7161 45.2904 48.4422 46.8259C49.1684 48.3615 47.5178 50.2472 47.5178 50.2472Z" fill="#3D5CB3" stroke="#3D5CB3" stroke-miterlimit="10" stroke-linecap="round" stroke-linejoin="round"/>
</g>
<g id="Group_20">
<path id="Vector_38" d="M51.7748 52.8917C51.7748 52.8917 51.1886 52.7385 49.6977 52.6938C48.2069 52.6491 45.6836 53.6808 45.6836 53.6808C45.6836 53.6808 47.5437 55.6688 49.487 55.2999C51.4303 54.9311 51.7748 52.8917 51.7748 52.8917Z" fill="#3D5CB3" stroke="#3D5CB3" stroke-miterlimit="10" stroke-linecap="round" stroke-linejoin="round"/>
<path id="Vector_39" d="M51.7756 52.8918C51.7756 52.8918 50.89 51.8468 50.7629 50.6554C50.6358 49.4639 50.8234 46.873 50.8234 46.873C50.8234 46.873 52.0314 48.0749 52.7576 49.6108C53.4833 51.1464 51.7756 52.8918 51.7756 52.8918Z" fill="#3D5CB3" stroke="#3D5CB3" stroke-miterlimit="10" stroke-linecap="round" stroke-linejoin="round"/>
</g>
</g>
<g id="Group_21">
<path id="Vector_40" d="M75.9871 21.7947C75.9871 21.7947 77.7114 35.7863 75.4924 44.3267" stroke="#00144C" stroke-miterlimit="10" stroke-linecap="round" stroke-linejoin="round"/>
<g id="Group_22">
<path id="Vector_41" d="M75.7617 17.7471C75.7617 17.7471 76.5434 14.8582 77.5676 15.1977C78.5918 15.5367 78.781 18.3321 78.7827 19.1849C78.7843 20.0377 77.303 20.8152 76.5951 21.3675C75.888 21.9198 75.7617 17.7471 75.7617 17.7471Z" fill="#6382DB"/>
<path id="Vector_42" d="M76.4802 29.2416C76.4802 29.2416 72.7641 28.2513 72.1696 26.1528C71.5751 24.0542 73.9093 16.3459 75.0126 16.9081C76.1159 17.4704 76.5961 21.3669 76.5961 21.3669C76.5961 21.3669 78.6347 16.9272 79.5798 17.0435C80.525 17.1598 81.3637 23.3392 80.5159 25.9002C79.668 28.4612 76.4802 29.2416 76.4802 29.2416Z" fill="#6382DB"/>
</g>
<path id="Vector_43" d="M75.8906 43.5448C75.8906 43.5448 76.6416 38.0038 78.5497 35.4519C80.4579 32.8996 86.0191 26.3311 86.0191 26.3311C86.0191 26.3311 84.7722 32.1978 82.0129 39.1166C79.7272 44.8472 75.8906 43.5448 75.8906 43.5448Z" fill="#00144C"/>
<path id="Vector_44" d="M75.5787 41.1514C75.5787 41.1514 75.067 37.8026 72.6314 34.0062C70.1962 30.2098 66.7344 26.6494 66.7344 26.6494C66.7344 26.6494 68.1039 36.2273 70.034 38.8011C71.964 41.3754 75.7434 43.9318 75.7434 43.9318L75.5787 41.1514Z" fill="#00144C"/>
</g>
<g id="Group_23">
<path id="Vector_45" d="M62.8047 47.6665C62.8047 47.6665 56.9433 35.8025 47.1133 29.1172" stroke="#6382DB" stroke-miterlimit="10" stroke-linecap="round" stroke-linejoin="round"/>
<path id="Vector_46" d="M49.3458 30.7295C49.3458 30.7295 48.8031 28.0849 46.1079 27.2759C44.5062 26.7953 42.1244 26.7162 42.3111 27.5748C42.4978 28.4335 43.6732 29.7074 45.0646 30.4782C47.0179 31.5608 49.3458 30.7295 49.3458 30.7295Z" fill="#6382DB"/>
<g id="Group_24">
<path id="Vector_47" d="M52.9664 34.1494C52.9664 34.1494 50.3909 32.5837 48.8011 33.1024C47.2114 33.6212 44.7717 35.1968 45.4308 35.7777C46.0898 36.3585 48.3797 36.8185 49.9603 36.6371C51.5406 36.4554 52.9664 34.1494 52.9664 34.1494Z" fill="#6382DB"/>
<path id="Vector_48" d="M56.0663 26.8506C56.0663 26.8506 53.3492 28.1559 52.9174 29.7714C52.4856 31.3868 52.4761 34.291 53.3223 34.055C54.1685 33.819 55.8026 32.1502 56.5122 30.7265C57.2222 29.3027 56.0663 26.8506 56.0663 26.8506Z" fill="#6382DB"/>
</g>
<g id="Group_25">
<path id="Vector_49" d="M56.314 37.9863C56.314 37.9863 53.7386 36.4206 52.1488 36.9393C50.559 37.4581 48.1193 39.0338 48.7784 39.6146C49.4375 40.1954 51.7273 40.6554 53.308 40.4741C54.8882 40.2923 56.314 37.9863 56.314 37.9863Z" fill="#6382DB"/>
<path id="Vector_50" d="M59.4139 30.6875C59.4139 30.6875 56.6969 31.9928 56.265 33.6083C55.8332 35.2237 55.8237 38.1279 56.6699 37.8919C57.5162 37.6559 59.1502 35.9871 59.8598 34.5634C60.5694 33.14 59.4139 30.6875 59.4139 30.6875Z" fill="#6382DB"/>
</g>
<g id="Group_26">
<path id="Vector_51" d="M59.2164 41.8857C59.2164 41.8857 56.6409 40.32 55.0511 40.8387C53.4614 41.3575 51.0217 42.9332 51.6808 43.514C52.3398 44.0949 54.6297 44.5548 56.2103 44.3735C57.7906 44.1917 59.2164 41.8857 59.2164 41.8857Z" fill="#6382DB"/>
<path id="Vector_52" d="M62.3163 34.5869C62.3163 34.5869 59.5992 35.8923 59.1674 37.5077C58.7356 39.1231 58.7261 42.0273 59.5723 41.7913C60.4185 41.5554 62.0526 39.8865 62.7622 38.4628C63.4718 37.039 62.3163 34.5869 62.3163 34.5869Z" fill="#6382DB"/>
</g>
<g id="Group_27">
<path id="Vector_53" d="M61.7515 45.9209C61.7515 45.9209 59.1761 44.3552 57.5863 44.8739C55.9965 45.3926 53.5568 46.9683 54.2159 47.5492C54.875 48.13 57.1648 48.59 58.7455 48.4086C60.3257 48.2269 61.7515 45.9209 61.7515 45.9209Z" fill="#6382DB"/>
<path id="Vector_54" d="M64.8514 38.6221C64.8514 38.6221 62.1344 39.9274 61.7025 41.5428C61.2707 43.1583 61.2612 46.0625 62.1074 45.8265C62.9537 45.5905 64.5877 43.9217 65.2973 42.4979C66.0073 41.0746 64.8514 38.6221 64.8514 38.6221Z" fill="#6382DB"/>
</g>
</g>
</g>
<g id="Group_28">
<path id="Vector_55" d="M94.4616 23.59C94.4616 23.59 94.2124 22.059 93.112 20.9288C92.0111 19.7981 91.8633 16.8761 94.0737 16.778C96.284 16.6803 96.6603 21.0062 96.3697 22.0354C96.0787 23.065 96.0787 23.065 96.0787 23.065C96.0787 23.065 97.7612 19.3208 99.3605 17.8821C100.96 16.4435 103.469 18.5884 102.102 20.6448C100.734 22.7007 98.4136 23.7332 98.4136 23.7332C98.4136 23.7332 101.36 22.9263 102.867 23.3358C104.374 23.7452 104.682 26.4453 103.288 27.1305C101.894 27.8156 98.0874 25.7506 97.2267 25.6939C96.366 25.6372 94.9865 25.207 94.4616 23.59Z" fill="#3D5CB3"/>
<path id="Vector_56" d="M94.4604 23.5898C94.4604 23.5898 93.7839 25.4677 94.5461 26.1293C95.3087 26.7909 97.2251 25.6934 97.2251 25.6934C97.2251 25.6934 95.0536 24.0171 94.4604 23.5898Z" fill="#6382DB"/>
</g>
</g>
</g>
<g id="Character">
<g id="Group_29">
<path id="Vector_57" d="M57.1301 50.4527C57.1301 50.4527 51.0695 55.2509 50.1857 60.175C49.3018 65.0992 49.6806 65.7305 49.0492 67.372C48.4179 69.0135 39.3269 72.1699 38.3167 79.7461C37.3065 87.3223 43.8722 92.4989 43.6196 94.6451C43.3671 96.7917 39.8315 101.337 41.2205 111.438C42.6095 121.539 61.2966 122.802 73.1656 122.297C85.0345 121.792 109.403 115.605 113.444 107.65C117.484 99.6955 116.475 92.3722 115.086 89.3418C113.697 86.3113 108.141 83.2812 106.5 79.6194C104.858 75.9576 107.889 73.18 105.742 66.2352C103.595 59.2907 98.545 51.8412 93.9993 48.6845C89.4536 45.5277 84.6557 44.518 76.0698 44.1387C67.4838 43.7608 58.7716 49.5688 57.1301 50.4527Z" fill="#00144C"/>
<g id="Group_30">
<g id="Group_31">
<path id="Vector_58" d="M135.876 58.5894C135.876 58.5894 134.094 28.3095 132.137 22.2754C130.18 16.2414 128.223 8.73926 128.223 8.73926L139.627 9.33749C139.627 9.33749 143.541 24.6675 147.618 36.8991C151.695 49.1303 153.326 56.3062 153.326 56.3062C153.326 56.3062 138.648 59.0783 135.876 58.5894Z" fill="#F4A082"/>
<path id="Vector_59" d="M150.145 44.8086L134.473 48.7776C135.297 54.3215 135.877 58.5894 135.877 58.5894C138.65 59.0788 153.327 56.3062 153.327 56.3062C153.327 56.3062 152.385 52.1612 150.145 44.8086Z" fill="#4865B6"/>
<g id="Group_32">
<path id="Vector_60" d="M66.7281 115.016C66.7281 115.016 48.1362 115.343 41.1239 119.746C34.1112 124.149 31.9911 133.282 31.6648 137.685C31.3386 142.089 31.5017 162.964 31.5017 162.964H122.177C122.177 162.964 123.319 149.591 124.134 142.415C124.95 135.239 125.113 133.445 125.113 133.445C125.113 133.445 146.966 111.592 151.37 103.763C155.773 95.9352 158.219 87.2917 158.382 85.1716C158.545 83.0515 155.662 58.7989 154.468 55.8161C153.816 54.1853 151.859 53.3697 147.619 54.1853C143.379 55.0009 137.018 55.3271 135.55 56.7948C134.083 58.2624 135.713 81.747 135.713 81.747C135.713 81.747 133.756 81.9101 134.409 82.7257C135.061 83.5412 135.061 84.5195 135.061 84.5195L123.971 98.3819C123.971 98.3819 118.916 99.6864 113.371 102.785C107.826 105.884 102.281 111.429 102.281 111.429C102.281 111.429 98.1553 112.565 96.4674 112.404C94.7791 112.244 66.7281 115.016 66.7281 115.016Z" fill="#6382DB"/>
<path id="Vector_61" d="M50.419 162.638L49.9297 149.591" stroke="#3D5CB3" stroke-miterlimit="10" stroke-linecap="round" stroke-linejoin="round"/>
</g>
</g>
<g id="Group_33">
<g id="Group_34">
<path id="Vector_62" d="M122.502 7.47827C122.502 7.47827 120.096 9.13303 116.937 8.53108C113.778 7.92953 112.124 8.38079 113.026 10.1854C113.929 11.9905 117.539 12.592 119.494 13.0433C121.45 13.4945 126.413 12.4417 126.413 12.4417C126.413 12.4417 125.059 6.12449 122.502 7.47827Z" fill="#F4A082"/>
<path id="Vector_63" d="M137.741 5.20354C137.741 5.20354 141.119 12.3831 141.639 14.596C142.16 16.8084 142.42 18.5004 140.858 19.5416C139.297 20.5828 135.783 18.7608 133.96 17.5892C132.138 16.418 130.74 14.608 130.74 14.608C130.74 14.608 130.056 15.8976 127.193 15.1164C124.329 14.3356 123.172 6.48073 123.172 6.48073C123.172 6.48073 128.506 -1.32524 137.741 5.20354Z" fill="#F4A082"/>
<g id="Group_35">
<g id="Group_36">
<path id="Vector_64" d="M148.775 42.0407C148.681 41.3373 147.117 38.1065 145.13 34.2165L145.714 29.7991C146.646 27.4041 147.178 24.3434 145.714 18.8878C144.251 13.4321 138.832 8.80437 132.674 8.10968C126.516 7.41457 118.304 7.71058 113.646 15.428C109.276 22.6692 113.38 29.1334 113.646 30.7302C113.912 32.327 112.848 36.1859 109.122 35.9197C105.396 35.6535 94.3516 31.3955 94.3516 31.3955L95.1498 36.1859C95.1498 36.1859 97.6781 36.7183 103.799 40.0448C109.92 43.3713 119.235 47.6293 119.235 47.6293C119.235 47.6293 121.896 53.2179 122.961 54.2827C124.025 55.3471 128.283 54.6818 136.001 52.4197C143.719 50.1576 149.041 44.0366 148.775 42.0407ZM141.856 27.6699C138.204 20.5202 136.4 17.69 136.4 17.69L116.307 25.2749C116.307 25.2749 114.328 20.3732 116.706 16.4928C119.235 12.3677 125.089 11.3033 129.48 11.3033C133.872 11.3033 140.392 15.0293 142.254 19.154C144.118 23.2786 141.856 27.6699 141.856 27.6699Z" fill="#00144C"/>
<path id="Vector_65" d="M116.305 25.2745L114.176 26.0727L116.038 31.9275" stroke="#3D5CB3" stroke-miterlimit="10" stroke-linecap="round" stroke-linejoin="round"/>
<path id="Vector_66" d="M141.855 27.67L143.452 30.9965" stroke="#3D5CB3" stroke-miterlimit="10" stroke-linecap="round" stroke-linejoin="round"/>
<g id="Group_37">
<path id="Vector_67" d="M94.35 31.3955C94.35 31.3955 90.2249 28.601 88.7614 28.0691C87.2975 27.5367 88.7614 36.8512 89.8258 39.1133C90.8902 41.3754 95.1486 36.1859 95.1486 36.1859L94.35 31.3955Z" fill="#CCD9FF" stroke="#3D5CB3" stroke-miterlimit="10" stroke-linecap="round" stroke-linejoin="round"/>
<path id="Vector_68" d="M89.8258 39.1134C89.9947 39.4719 90.2439 39.642 90.5432 39.6768C91.8171 34.6753 88.7614 28.0691 88.7614 28.0691C87.2975 27.5371 88.7614 36.8513 89.8258 39.1134Z" fill="#CCD9FF" stroke="#3D5CB3" stroke-miterlimit="10" stroke-linecap="round" stroke-linejoin="round"/>
</g>
</g>
</g>
<g id="Group_38">
<path id="Vector_69" d="M127.831 -0.392808C127.831 -0.392808 125.846 -0.98897 125.25 -0.549716C124.655 -0.110462 119.137 3.33319 118.953 4.97843C118.768 6.62325 120.34 10.6511 120.325 11.7287C120.311 12.8063 122.253 13.5445 122.835 12.637C123.417 11.7295 123.17 6.48166 123.17 6.48166L128.155 4.18769C128.155 4.18769 129.774 0.345354 127.831 -0.392808Z" fill="#F4A082"/>
<path id="Vector_70" d="M131.891 0.749123C131.891 0.749123 130.779 -1.57673 129.417 -1.26167C128.055 -0.946618 124.531 4.15221 123.65 5.87941C122.769 7.60662 123.948 10.315 124.661 12.159C125.375 14.0029 126.155 14.4186 127.119 13.6216C128.083 12.8247 127.951 8.43876 127.951 8.43876L131.525 3.17392C131.525 3.17392 132.788 3.19131 131.891 0.749123Z" fill="#F4A082"/>
<path id="Vector_71" d="M135.27 2.38802C135.27 2.38802 134.215 0.179744 132.921 0.479066C131.628 0.778388 128.283 5.61846 127.447 7.25832C126.61 8.89817 127.729 11.4691 128.406 13.2199C129.084 14.9707 129.825 15.3653 130.74 14.6085C131.655 13.8517 131.53 9.6885 131.53 9.6885L134.923 4.69069C134.923 4.69069 136.121 4.70642 135.27 2.38802Z" fill="#F4A082"/>
<path id="Vector_72" d="M137.737 5.20362C137.737 5.20362 136.866 3.38037 135.798 3.62753C134.73 3.87469 131.968 7.87061 131.277 9.22439C130.587 10.5782 131.511 12.7007 132.07 14.1464C132.629 15.5917 133.241 15.9175 133.997 15.2928C134.752 14.6681 134.649 11.2306 134.649 11.2306L137.45 7.1043C137.45 7.1043 138.44 7.11796 137.737 5.20362Z" fill="#F4A082"/>
</g>
</g>
<g id="Group_39">
<path id="Vector_73" d="M85.4517 30.6618C85.4517 30.6618 80.9544 30.3919 80.0183 32.0591C79.0823 33.7263 82.8128 32.8353 85.4517 30.6618Z" fill="#CCD9FF" stroke="#3D5CB3" stroke-miterlimit="10" stroke-linecap="round" stroke-linejoin="round"/>
<path id="Vector_74" d="M74.9938 39.432C74.9938 39.432 70.6576 40.655 70.3214 42.537C69.9853 44.4191 73.2157 42.3519 74.9938 39.432Z" fill="#CCD9FF" stroke="#3D5CB3" stroke-miterlimit="10" stroke-linecap="round" stroke-linejoin="round"/>
<path id="Vector_75" d="M82.9116 39.2766C82.9116 39.2766 78.5754 40.4995 78.2392 42.3815C77.9026 44.264 81.1331 42.1965 82.9116 39.2766Z" fill="#CCD9FF" stroke="#3D5CB3" stroke-miterlimit="10" stroke-linecap="round" stroke-linejoin="round"/>
<path id="Vector_76" d="M77.841 33.1154C77.841 33.1154 73.3453 33.4102 72.625 35.1813C71.905 36.9524 75.4948 35.6019 77.841 33.1154Z" fill="#CCD9FF" stroke="#3D5CB3" stroke-miterlimit="10" stroke-linecap="round" stroke-linejoin="round"/>
<path id="Vector_77" d="M82.341 34.9787C82.341 34.9787 77.8453 35.2735 77.125 37.0446C76.405 38.8156 79.9948 37.4652 82.341 34.9787Z" fill="#CCD9FF" stroke="#3D5CB3" stroke-miterlimit="10" stroke-linecap="round" stroke-linejoin="round"/>
<path id="Vector_78" d="M89.0168 34.5129C89.0168 34.5129 84.5212 34.8076 83.8009 36.5787C83.0805 38.3494 86.6703 36.9989 89.0168 34.5129Z" fill="#CCD9FF" stroke="#3D5CB3" stroke-miterlimit="10" stroke-linecap="round" stroke-linejoin="round"/>
<path id="Vector_79" d="M70.09 36.8586C70.09 36.8586 65.7186 37.9491 65.3253 39.8199C64.932 41.6908 68.2237 39.7226 70.09 36.8586Z" fill="#CCD9FF" stroke="#3D5CB3" stroke-miterlimit="10" stroke-linecap="round" stroke-linejoin="round"/>
</g>
</g>
</g>
<g id="Group_40">
<g id="Group_41">
<path id="Vector_80" d="M70.9895 104.717C70.9895 104.717 66.1573 104.168 65.3885 105.046C64.6197 105.925 65.4982 112.075 65.3885 113.393C65.2788 114.71 64.0707 117.126 65.1686 118.774C66.267 120.421 72.7461 123.716 81.3121 123.606C89.8782 123.496 95.4788 119.433 96.797 117.126C98.1147 114.82 96.4674 112.953 96.4674 112.404C96.4674 111.855 96.9067 107.682 95.8083 105.705C94.71 103.728 87.7912 104.058 87.7912 104.058L70.9895 104.717Z" fill="#4865B6"/>
</g>
<path id="Vector_81" d="M69.782 97.9072L69.6723 106.583C69.6723 106.583 69.233 107.462 77.2497 108.011C85.2668 108.56 90.7577 107.242 90.7577 107.242L90.3184 99.9938L69.782 97.9072Z" fill="#F4A082"/>
<g id="Group_42">
<path id="Vector_82" d="M97.3438 77.8108C97.3438 77.8108 98.0028 75.285 99.54 75.8339C101.078 76.3829 101.956 80.3366 100.968 82.9721C99.9793 85.6081 97.5632 88.463 97.5632 88.463C97.5632 88.463 97.4535 80.9957 97.3438 77.8108Z" fill="#F4A082"/>
<path id="Vector_83" d="M86.6924 60.1289C86.6924 60.1289 83.5075 63.7531 78.2365 64.7413C72.965 65.7295 71.208 64.0822 68.4623 65.5101C65.7167 66.938 64.7285 69.903 64.8382 72.3191C64.9479 74.7352 65.2774 78.1396 63.4107 79.6772C61.5436 81.2148 61.5436 81.2148 61.5436 81.2148C61.5436 81.2148 60.6651 77.7003 59.0178 77.1513C57.3705 76.6024 54.4054 78.4691 54.6248 82.4228C54.8446 86.3765 57.9194 90.2201 59.2372 90.769C60.5549 91.318 62.7516 91.5378 62.7516 91.5378C62.7516 91.5378 67.5838 98.2368 71.5371 101.092C75.4908 103.947 82.9586 106.364 86.6924 104.496C90.4263 102.63 96.137 98.0169 97.4548 93.5143C98.7725 89.0116 97.3451 82.9713 97.3451 80.4455C97.3451 77.9197 97.2333 73.3413 97.2333 73.3413C97.2333 73.3413 91.4228 70.2905 89.6794 67.9663C87.4645 65.0133 86.6924 60.1289 86.6924 60.1289Z" fill="#F4A082"/>
<path id="Vector_84" d="M82.6278 73.9668C82.6278 73.9668 82.1885 78.4695 82.6278 80.3362C83.067 82.2033 86.0321 85.0583 85.4832 86.7056C84.9342 88.3529 82.9573 89.012 81.5295 88.6824C80.1016 88.3529 80.1016 88.3529 80.1016 88.3529" stroke="#00144C" stroke-miterlimit="10" stroke-linecap="round" stroke-linejoin="round"/>
<path id="Vector_85" d="M75.0508 91.4282C75.0508 91.4282 78.126 94.3933 82.6282 93.8443C87.1309 93.2953 88.3389 90.7695 88.3389 90.7695" stroke="#00144C" stroke-miterlimit="10" stroke-linecap="round" stroke-linejoin="round"/>
<path id="Vector_86" d="M76.2604 79.3477C76.2604 79.3477 72.7463 82.3127 68.9023 79.7869" stroke="#00144C" stroke-miterlimit="10" stroke-linecap="round" stroke-linejoin="round"/>
<path id="Vector_87" d="M92.6237 77.7012C92.6237 77.7012 89.1092 80.6662 85.2656 78.1404" stroke="#00144C" stroke-miterlimit="10" stroke-linecap="round" stroke-linejoin="round"/>
<path id="Vector_88" d="M67.3633 75.3951C67.3633 75.3951 68.4616 72.979 71.0971 71.9907C73.7327 71.0025 76.6981 71.5515 76.9176 72.1005C77.1374 72.6494 76.4783 72.7595 74.3918 72.979C72.3048 73.1984 68.7908 73.7478 67.3633 75.3951Z" fill="#00144C"/>
<path id="Vector_89" d="M93.6802 73.0732C93.6802 73.0732 92.0735 70.961 89.2844 70.5818C86.4953 70.2026 83.7256 71.3957 83.6333 71.9799C83.541 72.564 84.2079 72.5251 86.2912 72.2763C88.3744 72.0275 91.9228 71.7836 93.6802 73.0732Z" fill="#00144C"/>
</g>
</g>
<path id="Vector_90" d="M43.5447 93.1309C43.5447 93.1309 44.8592 94.7082 42.8877 96.943C40.9158 99.1777 33.292 102.595 32.7662 109.168C32.2404 115.74 34.8693 120.078 38.5498 123.496C42.2302 126.913 44.465 126.387 42.3619 129.805C40.2588 133.223 38.6814 141.504 43.0193 145.974C47.3572 150.443 55.6385 150.969 59.4506 150.443C63.2627 149.917 66.549 147.157 66.1545 144.659C65.7604 142.162 61.0279 141.242 62.0795 138.087C63.131 134.932 69.1779 129.937 66.9432 123.102C64.7084 116.266 62.9998 115.083 63.9197 111.14C64.84 107.197 65.8916 106.145 64.9713 103.122" fill="#00144C"/>
</g>
</g>
</g>
</svg>
