<?xml version="1.0" encoding="UTF-8"?>
<svg width="20px" height="20px" viewBox="0 0 20 20" version="1.1" xmlns="http://www.w3.org/2000/svg" xmlns:xlink="http://www.w3.org/1999/xlink">
    <title>Vector</title>
    <g id="Final-Design" stroke="none" stroke-width="1" fill="none" fill-rule="evenodd">
        <g id="Desktop-|-Photostory---Showpage" transform="translate(-1232, -960)" fill="#FFFFFF" fill-rule="nonzero">
            <g id="Group-2" transform="translate(980, 235)">
                <g id="Frame-1000002486" transform="translate(0, 547)">
                    <g id="Frame-1000002485" transform="translate(0, 158)">
                        <g id="Frame-1000002484" transform="translate(224, 0)">
                            <polygon id="Vector" points="46.8 20 47.32 20 47.72 20.2 47.96 20.56 48 20.64 48 21.28 45.24 37.84 45.12 38.24 44.96 38.48 44.72 38.68 44.48 38.76 44 38.76 43.2 38.44 41.4 37.68 39.48 36.88 39.12 36.72 38.96 36.76 38.6 37.2 38.24 37.64 37.88 38.08 37.32 38.76 36.96 39.2 36.52 39.72 36.28 39.92 36.08 40 35.56 40 35.16 39.8 34.92 39.48 34.84 39.16 34.84 35.88 35.4 35.2 35.76 34.76 36.32 34.08 36.68 33.64 37.24 32.96 37.6 32.52 37.96 32.08 38.52 31.4 38.88 30.96 39.44 30.28 39.8 29.84 40.36 29.16 40.72 28.72 41.08 28.28 41.64 27.6 42 27.16 42.56 26.48 42.92 26.04 43.48 25.36 43.84 24.92 44.2 24.48 44.28 24.36 44.24 24.16 44.2 24.12 44 24.12 43.52 24.56 43.08 24.92 42.52 25.44 42.2 25.72 41.64 26.2 41.16 26.64 40.72 27 40.16 27.52 39.72 27.88 39.16 28.4 38.84 28.68 38.28 29.16 37.8 29.6 37.36 29.96 36.8 30.48 36.36 30.84 35.8 31.36 35.48 31.64 34.92 32.12 34.44 32.56 34 32.92 33.44 33.44 33.12 33.72 32.8 34 32.52 33.96 30.72 33.2 29 32.48 28.44 32.24 28.16 32 28 31.68 28 31.12 28.16 30.8 28.48 30.52 29.4 30 30.36 29.44 31.48 28.8 32.52 28.2 33.56 27.6 34.6 27 35.64 26.4 36.68 25.8 37.72 25.2 38.76 24.6 39.8 24 40.84 23.4 41.88 22.8 42.92 22.2 43.96 21.6 45 21 46.04 20.4 46.68 20.04"></polygon>
                        </g>
                    </g>
                </g>
            </g>
        </g>
    </g>
</svg>