<svg width="160" height="160" viewBox="0 0 160 160" fill="none" xmlns="http://www.w3.org/2000/svg">
<g id="Frame 75864">
<g clip-path="url(#clip0_300_3951)">
<rect width="160" height="160" rx="80" fill="#CCD9FF"/>
<g id="Group 75178">
<g id="Group 75177">
<g id="Group">
<g id="Group_2">
<path id="Vector" d="M110.609 4.43226C106.625 1.9911 101.183 2.19181 97.3901 4.92112C96.5641 5.51532 95.7877 6.2552 95.4435 7.21232C94.5447 9.71555 96.8916 12.3293 96.6066 14.9732C94.4816 14.1304 91.995 14.6367 90.0563 15.8468C88.1177 17.0569 86.6512 18.8931 85.4026 20.8068C83.931 23.0626 82.6752 25.6032 82.7058 28.2954C82.7357 30.9888 84.3955 33.8149 87.0195 34.4209C84.2849 35.9706 83.7787 40.0753 85.529 42.6865C87.2794 45.2978 90.6458 46.4625 93.7856 46.3127C96.9252 46.1617 99.896 44.8942 102.715 43.5025C101.143 45.6261 102.264 48.9944 104.606 50.2176C106.948 51.4398 109.965 50.7628 111.993 49.0697C114.022 47.3767 115.189 44.8492 115.841 42.2891C117.284 46.4261 122.132 49.0415 126.382 47.9735C130.631 46.9055 133.668 42.3101 132.983 37.9818C132.88 37.3338 132.328 36.5195 131.766 36.8569C134.731 38.7726 138.963 38.3223 141.565 35.9375C144.167 33.5526 145.005 29.4928 143.705 26.2104C142.405 22.928 139.119 20.573 135.606 20.2305C140.211 17.7865 140.995 10.613 137.407 6.82958C133.82 3.04612 127.194 3.09968 123.236 6.49415C124.916 5.23649 123.711 2.4242 121.915 1.33978C119.628 -0.0412615 116.598 -0.0894044 114.269 1.21923C111.939 2.52787 110.403 5.1398 110.393 7.81115" fill="#00144C"/>
</g>
<g id="Group_3">
<path id="Vector_2" d="M95.6822 40.9319C99.9105 58.1069 100.404 76.1914 97.1176 93.5703C100.48 92.9843 102.648 89.713 104.002 86.5799C105.355 83.4468 106.434 79.9696 109.096 77.8336C111.717 82.1365 114.781 86.1693 118.226 89.8459C121.275 86.7952 120.507 81.7575 119.522 77.5575C121.2 80.3796 124.427 82.2092 127.71 82.2005C130.993 82.1918 134.211 80.344 135.873 77.5126C129.381 72.5417 122.756 67.4276 118.332 60.5514C114.36 54.3783 112.385 47.117 108.664 40.7884C107.843 39.3924 106.752 37.9192 105.151 37.6745C104.224 37.533 103.293 37.8386 102.406 38.1407C100.148 38.9078 97.8912 39.6746 95.6335 40.4417" fill="#4865B6"/>
</g>
<g id="Group_4">
<path id="Vector_3" d="M98.991 94.9875C104.962 90.1613 105.374 79.6701 105.323 72.55C105.259 63.5233 103.852 53.2877 100.016 45.0835C99.6363 44.2711 98.5695 44.7073 98.605 45.511C98.9844 54.0329 101.843 62.3054 102.141 70.8955C102.414 78.8361 101.36 86.9018 97.5936 93.9645C97.152 94.7885 98.3447 95.5102 98.991 94.9875Z" fill="#00144C"/>
</g>
<g id="Group_5">
<path id="Vector_4" d="M103.881 46.0773C107.228 60.0358 110.849 75.4719 117.875 88.0807C118.272 88.7941 119.607 88.5483 119.359 87.6301C115.543 73.512 109.476 59.9299 105.442 45.8171C105.17 44.862 103.64 45.0698 103.881 46.0773Z" fill="#00144C"/>
</g>
<g id="Group_6">
<path id="Vector_5" d="M137.292 76.9811C120.045 71.3632 113.68 54.9799 105.812 40.5014C105.46 39.8542 104.429 40.1059 104.545 40.8855C105.793 49.2803 111.088 58.1245 116.414 64.6208C121.349 70.6389 128.877 77.7781 136.875 78.689C137.849 78.8006 138.261 77.2973 137.292 76.9811Z" fill="#D6D35E"/>
</g>
<g id="Group_7">
<path id="Vector_6" d="M89.3393 3.68103C84.1712 0.51447 77.1124 0.77569 72.1918 4.3152C71.1201 5.08595 70.1125 6.04517 69.6665 7.28742C68.5008 10.5334 71.5447 13.9257 71.1759 17.3549C68.4204 16.2623 65.1939 16.9177 62.6799 18.4882C60.1645 20.0579 58.2627 22.4392 56.6439 24.9227C54.736 27.849 53.1059 31.1441 53.1457 34.6374C53.1855 38.1307 55.3372 41.7964 58.7406 42.5828C55.1932 44.5933 54.5363 49.9172 56.8072 53.3039C59.077 56.6909 63.4439 58.2032 67.5165 58.0076C71.589 57.8121 75.4435 56.1675 79.099 54.363C77.0593 57.118 78.5137 61.4874 81.5525 63.0736C84.5912 64.6597 88.5026 63.7803 91.135 61.5845C93.7661 59.3881 95.2805 56.1105 96.126 52.7885C97.9968 58.1556 104.286 61.5468 109.799 60.162C115.312 58.7771 119.25 52.8155 118.362 47.2018C118.229 46.3613 117.511 45.3045 116.782 45.7436C120.628 48.2278 126.118 47.6444 129.493 44.5505C132.869 41.4567 133.955 36.19 132.269 31.9327C130.583 27.6754 126.322 24.6192 121.764 24.1755C127.737 21.0043 128.754 11.6994 124.1 6.7925C119.447 1.88556 110.852 1.95492 105.718 6.35684C107.897 4.72601 106.335 1.07819 104.005 -0.328512C101.038 -2.11975 97.1074 -2.18174 94.0862 -0.485065C91.065 1.21161 89.0729 4.60135 89.0585 8.06548" fill="#4865B6"/>
</g>
<g id="Group_8">
<g id="Group_9">
<path id="Vector_7" d="M90.7958 16.5956C88.2961 20.8483 85.2752 26.3884 88.0082 31.3074C90.3269 35.482 95.6096 36.3039 99.6559 34.2869C101.364 33.4356 101.731 32.2519 103.324 32.8129C103.759 32.9656 105.236 34.7095 105.846 35.1185C106.889 35.8181 108.049 36.3445 109.261 36.6616C114.404 38.0088 117.569 34.1724 119.642 29.9704C119.906 29.4354 119.153 29.0214 118.834 29.522C117.086 32.265 115.381 35.6184 111.492 35.91C108.462 36.137 104.615 33.5001 103.551 30.8343C103.408 30.475 103.022 30.3731 102.727 30.6308C98.3339 34.4641 89.5446 36.3968 88.4292 27.6743C87.9391 23.8381 89.8479 20.3292 91.6341 17.0599C91.9295 16.518 91.1087 16.0644 90.7958 16.5956Z" fill="#00144C"/>
</g>
</g>
<g id="Group_10">
<g id="Group_11">
<path id="Vector_8" d="M72.0394 25.288C69.3428 27.4507 67.4747 31.1291 69.1057 34.5302C70.3655 37.1578 74.2063 39.1672 76.7123 37.0143C76.9009 36.853 76.7435 36.471 76.491 36.5031C73.9266 36.8314 71.1408 36.1209 70.2168 33.358C69.3377 30.7288 70.8637 27.9174 72.7606 26.1827C73.2362 25.7469 72.5548 24.8743 72.0394 25.288Z" fill="#00144C"/>
</g>
</g>
<g id="Group_12">
<g id="Group_13">
<path id="Vector_9" d="M86.6678 39.8944C84.733 41.2465 85.0605 44.179 87.0727 45.3111C89.6954 46.7872 93.3671 45.1525 94.891 42.8023C95.1679 42.3753 94.6232 42.0349 94.2588 42.1951C92.6245 42.9101 91.4299 44.3801 89.5119 44.4518C87.8151 44.515 85.2282 42.4608 87.2549 40.8554C87.805 40.4184 87.2742 39.4704 86.6678 39.8944Z" fill="#00144C"/>
</g>
</g>
</g>
</g>
<g id="Group_14">
<g id="Group_15">
<path id="Vector_10" d="M57.6192 66.0079C56.659 59.3192 54.3962 53.0123 54.0749 46.1888C53.7697 39.6949 55.4795 34.339 57.1359 28.1835C57.3173 27.5089 56.3186 27.2068 55.9456 27.6925C48.3614 37.5753 51.4568 56.0372 56.2968 66.3753C56.6215 67.0682 57.7324 66.8016 57.6192 66.0079Z" fill="#6382DB"/>
</g>
<path id="Vector_11" d="M53.302 48.6227C49.7926 39.5157 39.7119 33.4269 30.0174 34.5601C29.2765 34.647 28.3865 34.904 28.2178 35.6309C28.1238 36.0368 28.3003 36.4502 28.4725 36.8291C29.389 38.8394 30.3122 40.8613 31.5515 42.691C34.1522 46.531 38.1477 49.405 42.6156 50.6491C46.6647 51.7772 51.6618 51.2655 54.1088 47.8484" fill="#6382DB"/>
<g id="Group_16">
<path id="Vector_12" d="M56.2844 62.5481C51.7066 55.4887 43.0922 51.1243 34.8938 51.7118C26.6954 52.2993 19.2969 57.8092 16.5231 65.3958C12.264 77.041 18.7554 90.4569 27.1228 100.343C31.569 105.596 36.7511 110.479 43.0417 113.196C49.3323 115.914 56.9038 116.151 62.357 112.496C64.4488 111.095 66.2631 109.134 68.7495 108.557C71.6626 107.88 74.8124 109.272 77.7902 108.873C79.5656 108.635 81.1651 107.771 82.6158 106.778C89.0018 102.402 93.1044 95.3292 95.2072 87.8239C97.3101 80.3186 97.5719 72.3455 97.4708 64.4483C97.4121 59.8268 97.1994 55.0538 95.2387 50.7666C91.0825 41.6771 79.181 37.2096 70.0301 40.3939C60.8795 43.5793 55.0752 53.1973 55.0805 62.99" fill="#7E9BED"/>
</g>
<g id="Group_17">
<g id="Group_18">
<path id="Vector_13" d="M22.4548 69.8311C21.8477 78.0585 23.7277 86.1641 28.2408 93.1224C31.8027 98.6135 37.6173 105.096 44.5923 105.437C45.4835 105.48 45.4831 104.269 44.7664 103.999C31.1728 98.8732 23.7278 83.7627 24.1349 69.8151C24.1663 68.7217 22.5331 68.769 22.4548 69.8311Z" fill="#CCD9FF"/>
</g>
</g>
</g>
<g id="Group 75176">
<g id="Group_19">
<path id="Vector_14" d="M144.327 63.9504C141.776 63.6936 138.951 64.5618 136.39 65.6156C141.175 60.7769 145.807 55.5751 148.668 49.505C150.53 45.5555 151.6 41.0042 151.089 36.5861C150.649 32.7814 148.936 29.4339 144.817 30.6983C140.272 32.0921 137.379 35.9031 135.327 40.2377C135.065 39.7035 134.757 39.1937 134.391 38.7204C132.21 35.8971 128.519 35.4794 125.612 37.3085C122.031 39.5636 121 43.88 120.326 47.9285C120.225 48.5379 120.144 49.1501 120.051 49.7602C119.221 48.7526 118.001 48.0498 116.172 47.8345C113.951 47.5728 111.835 48.8099 111.021 51.0352C109.987 53.8622 111.293 57.2 111.596 60.06C112.694 70.4432 110.149 80.8935 104.703 89.4417C104.504 89.6138 104.308 89.7898 104.109 89.9619C103.582 90.4179 103.323 90.9885 103.262 91.5638C101.936 93.3976 100.481 95.1367 98.8802 96.741C97.3819 98.2432 99.5261 100.301 101.113 99.3314C100.163 101.183 103.072 103.183 104.33 101.403C107.662 96.2816 113.274 94.4067 118.911 93.8783C123.678 93.4316 130.91 94.8433 132.888 88.7019C133.544 86.6686 133.258 84.3713 131.72 82.8731C131.337 82.4998 130.906 82.2197 130.447 82.0058C131.37 81.7961 132.294 81.5864 133.219 81.3764C137.157 80.4815 141.686 80.0313 145.278 77.9812C148.045 76.4008 150.116 73.5418 149.991 70.0886C149.868 66.637 147.522 64.2723 144.327 63.9504ZM140.633 39.7729C139.976 40.853 139.395 41.9697 138.89 43.1183C138.874 43.1138 138.857 43.1121 138.84 43.1079C139.245 42.2017 139.684 41.3157 140.181 40.4635C140.279 40.2959 140.435 40.0566 140.633 39.7729Z" fill="#00144C"/>
<g id="Group_20">
<path id="Vector_15" d="M144.539 41.0516C138.649 51.7304 131.936 61.9394 124.54 71.518C120.982 76.125 117.273 80.6044 113.399 84.9186C111.463 87.0748 109.492 89.1986 107.488 91.285C105.402 93.4562 102.919 95.4495 101.175 97.9342C100.976 98.2181 101.266 98.581 101.564 98.3975C103.833 96.9931 105.773 94.7431 107.668 92.8398C109.831 90.6702 111.946 88.4515 114.006 86.1758C118.127 81.6256 122.071 76.8988 125.802 71.9872C133.098 62.3805 139.524 52.1507 145.211 41.4057C145.449 40.9564 144.781 40.6133 144.539 41.0516Z" fill="#6382DB"/>
</g>
<g id="Group_21">
<path id="Vector_16" d="M118.287 80.6893C121.656 72.8496 123.163 62.1602 119.507 54.1011C119.401 53.8666 118.987 53.8934 119.038 54.2031C119.709 58.3307 120.637 62.2449 120.55 66.4778C120.451 71.2596 119.419 75.9628 117.661 80.361C117.488 80.7962 118.1 81.1242 118.287 80.6893Z" fill="#6382DB"/>
</g>
<g id="Group_22">
<path id="Vector_17" d="M129.425 67.614C132.061 61.5703 132.965 52.1334 129.131 46.3724C128.942 46.0888 128.41 46.2221 128.477 46.61C129.017 49.7711 130.064 52.73 130.205 55.9909C130.371 59.8172 129.653 63.5097 128.462 67.108C128.241 67.7762 129.128 68.2949 129.425 67.614Z" fill="#6382DB"/>
</g>
<g id="Group_23">
<path id="Vector_18" d="M121.687 76.9643C124.368 76.3242 126.877 75.2403 129.63 74.8714C132.083 74.5424 134.539 74.8523 136.977 74.5968C137.31 74.5621 137.48 74.0023 137.116 73.8629C132.554 72.1126 125.296 73.3596 121.367 76.2944C121.017 76.5569 121.305 77.0557 121.687 76.9643Z" fill="#EFE462"/>
</g>
<g id="Group_24">
<path id="Vector_19" d="M110.848 88.5731C110.908 87.3877 114.74 87.3782 115.721 87.2842C117.623 87.1019 119.61 87.2842 121.483 86.9493C121.663 86.9169 121.702 86.644 121.505 86.5975C118.098 85.7987 113.897 86.7276 110.534 87.489C110.418 87.5157 110.352 87.6619 110.356 87.775C110.362 88.0525 110.369 88.329 110.376 88.6066C110.384 88.9352 110.832 88.885 110.848 88.5731Z" fill="#EFE462"/>
</g>
<g id="Group_25">
<path id="Vector_20" d="M103.264 90.4262C94.5826 90.9106 87.6135 97.5184 81.7686 103.956C71.0211 115.793 61.1923 128.426 51.3743 141.046C48.7567 144.41 46.1201 147.805 44.2443 151.632C43.255 153.652 42.9702 156.847 45.1408 157.435C45.8413 157.624 46.5837 157.43 47.2749 157.208C52.9254 155.394 57.7732 151.744 62.5019 148.159C73.8853 139.528 85.2687 130.896 96.6521 122.264C101.977 118.227 107.545 113.878 110.004 107.665C112.464 101.451 110.312 92.9016 103.953 90.845" fill="#00144C"/>
</g>
<g id="Group_26">
<g id="Group_27">
<path id="Vector_21" d="M64.7998 125.012C67.5778 125.906 70.1762 126.473 72.5806 128.256C73.7701 129.139 74.8372 130.176 75.7477 131.345C76.3851 132.162 76.8017 132.973 77.6463 133.576C77.8879 133.749 78.2278 133.503 78.2203 133.234C78.1503 130.752 75.2774 128.308 73.4103 126.965C71.0535 125.269 67.88 123.763 64.9145 124.061C64.3743 124.115 64.2619 124.839 64.7998 125.012Z" fill="#4865B6"/>
</g>
</g>
<g id="Group_28">
<g id="Group_29">
<path id="Vector_22" d="M73.8812 116.002C74.5535 114.235 81.6517 119.606 82.5521 119.947C82.9046 120.081 83.1256 119.631 82.9863 119.359C82.1241 117.667 73.8998 112.315 73.0838 115.798C72.9603 116.328 73.6976 116.485 73.8812 116.002Z" fill="#865516"/>
</g>
</g>
<g id="Group_30">
<g id="Group_31">
<path id="Vector_23" d="M84.2199 122.77C84.2754 122.745 84.3312 122.721 84.3877 122.696C85.1876 122.346 84.5581 121.202 83.9364 121.666C83.8868 121.703 83.8359 121.74 83.7863 121.778C83.3371 122.115 83.6122 123.036 84.2199 122.77Z" fill="#865516"/>
</g>
</g>
<g id="Group_32">
<g id="Group_33">
<path id="Vector_24" d="M77.5684 110.68C80.6057 111.863 83.3532 113.197 85.7689 115.445C87.8401 117.373 88.9837 119.79 90.7155 121.938C90.96 122.242 91.3529 121.885 91.2977 121.586C90.2505 115.886 83.1292 110.872 77.7747 109.866C77.2324 109.764 77.0728 110.487 77.5684 110.68Z" fill="#4865B6"/>
</g>
</g>
<g id="Group_34">
<g id="Group_35">
<path id="Vector_25" d="M83.3749 105.833C85.5231 107.475 87.6927 109.067 89.6843 110.9C91.6835 112.741 93.3454 114.883 95.2898 116.762C95.6452 117.105 96.2253 116.644 95.9649 116.219C93.2372 111.771 88.2916 107.804 83.7307 105.349C83.4404 105.194 83.093 105.617 83.3749 105.833Z" fill="#4865B6"/>
</g>
</g>
<g id="Group_36">
<g id="Group_37">
<path id="Vector_26" d="M90.7099 100.918C91.8613 101.41 92.9444 102.022 93.9267 102.802C94.8313 103.521 95.5425 104.475 96.4664 105.156C96.6194 105.268 96.9263 105.165 96.8345 104.934C95.9484 102.722 93.1614 101.128 91.0761 100.256C90.6332 100.072 90.2616 100.727 90.7099 100.918Z" fill="#865516"/>
</g>
</g>
<g id="Group_38">
<g id="Group_39">
<path id="Vector_27" d="M65.8445 136.971C66.3317 137.294 66.846 137.755 67.4439 137.805C67.6696 137.825 67.7684 137.553 67.6777 137.384C67.4012 136.867 66.7197 136.561 66.2435 136.252C65.797 135.962 65.4066 136.679 65.8445 136.971Z" fill="#4865B6"/>
</g>
</g>
</g>
<g id="Group_40">
<path id="Vector_28" d="M139.509 83.516C137.117 82.5944 134.163 82.6856 131.415 83.0252C137.308 79.623 143.149 75.8291 147.513 70.7308C150.352 67.4138 152.587 63.3072 153.261 58.9107C153.842 55.1246 153.074 51.4439 148.767 51.5746C144.016 51.7186 140.219 54.6301 137.095 58.2678C136.982 57.683 136.821 57.111 136.593 56.5569C135.235 53.2577 131.786 51.8795 128.499 52.8762C124.45 54.1049 122.315 57.9961 120.596 61.7224C120.338 62.2838 120.098 62.8522 119.847 63.416C119.311 62.2255 118.322 61.2253 116.615 60.5336C114.541 59.6941 112.175 60.3289 110.801 62.2593C109.057 64.713 109.434 68.2773 108.971 71.1152C107.287 81.4195 102.071 90.8256 94.5595 97.6322C94.3226 97.7459 94.0856 97.8629 93.8487 97.9766C93.2194 98.2775 92.8194 98.7587 92.6081 99.2976C90.8456 100.717 88.9831 102.009 87.0144 103.134C85.1717 104.187 86.697 106.738 88.4833 106.222C87.0771 107.758 89.3551 110.455 91.0382 109.071C95.6043 105.011 101.512 104.686 107.089 105.665C111.805 106.493 118.407 109.765 121.938 104.365C123.107 102.577 123.44 100.285 122.351 98.4349C122.08 97.9736 121.739 97.5895 121.352 97.2619C122.299 97.3039 123.245 97.3449 124.192 97.387C128.227 97.5643 132.712 98.3271 136.718 97.2976C139.805 96.5046 142.557 94.2946 143.349 90.9309C144.143 87.5699 142.505 84.6696 139.509 83.516ZM142.334 59.2208C141.415 60.0896 140.559 61.0122 139.768 61.9865C139.753 61.9774 139.737 61.9719 139.724 61.9635C140.353 61.1965 141.011 60.458 141.716 59.7678C141.854 59.6319 142.068 59.4421 142.334 59.2208Z" fill="#4865B6"/>
<g id="Group_41">
<path id="Vector_29" d="M145.768 61.4843C137.266 70.2269 128.095 78.3001 118.431 85.5844C113.783 89.0883 109.022 92.4278 104.146 95.5655C101.708 97.1341 99.247 98.6616 96.7626 100.144C94.177 101.687 91.2549 102.953 88.917 104.889C88.6496 105.111 88.8344 105.538 89.1693 105.438C91.73 104.683 94.1946 103.026 96.5257 101.691C99.1846 100.17 101.81 98.5887 104.399 96.9384C109.576 93.6385 114.629 90.1227 119.524 86.3702C129.099 79.0321 137.999 70.8645 146.323 62.0028C146.673 61.6334 146.117 61.1261 145.768 61.4843Z" fill="#00144C"/>
</g>
<g id="Group_42">
<path id="Vector_30" d="M109.974 92.7779C115.294 86.1068 119.572 76.1957 118.175 67.4577C118.134 67.2032 117.728 67.1194 117.696 67.4316C117.252 71.59 117.114 75.6105 115.91 79.6699C114.551 84.2556 112.314 88.5194 109.457 92.2965C109.175 92.6691 109.678 93.1476 109.974 92.7779Z" fill="#00144C"/>
</g>
<g id="Group_43">
<path id="Vector_31" d="M124.165 83.1104C128.305 77.978 131.67 69.1152 129.494 62.5464C129.387 62.2238 128.839 62.2107 128.801 62.603C128.487 65.7951 128.715 68.925 127.989 72.1075C127.137 75.8415 125.47 79.2132 123.371 82.3698C122.982 82.9552 123.698 83.6891 124.165 83.1104Z" fill="#00144C"/>
</g>
<g id="Group_44">
<path id="Vector_32" d="M114.236 90.0852C116.99 90.1763 119.696 89.7941 122.449 90.1652C124.903 90.4957 127.189 91.4433 129.608 91.8408C129.936 91.8954 130.25 91.401 129.936 91.1701C125.997 88.2775 118.669 87.5627 114.104 89.355C113.698 89.5148 113.844 90.0721 114.236 90.0852Z" fill="#00144C"/>
</g>
<g id="Group_45">
<path id="Vector_33" d="M100.712 98.4169C101.082 97.2891 104.781 98.2926 105.752 98.4609C107.634 98.7873 109.502 99.4877 111.398 99.6606C111.58 99.6766 111.689 99.4241 111.513 99.3281C108.437 97.6574 104.14 97.4432 100.696 97.2902C100.577 97.2851 100.475 97.4093 100.448 97.5187C100.381 97.7883 100.315 98.0566 100.248 98.3262C100.168 98.6429 100.614 98.7131 100.712 98.4169Z" fill="#00144C"/>
</g>
<g id="Group_46">
<path id="Vector_34" d="M92.9079 98.2008C84.4063 96.3743 75.9395 100.906 68.6011 105.571C55.1082 114.148 42.2911 123.735 29.488 133.312C26.0748 135.865 22.6348 138.442 19.8138 141.639C18.3256 143.325 17.2076 146.331 19.1449 147.471C19.77 147.839 20.5374 147.848 21.2627 147.816C27.1912 147.559 32.8309 145.32 38.3394 143.112C51.5984 137.794 64.8585 132.477 78.1175 127.159C84.3197 124.672 90.8381 121.949 94.8524 116.607C98.8668 111.264 99.0497 102.449 93.461 98.7859" fill="#0E3195"/>
</g>
<g id="Group_47">
<g id="Group_48">
<path id="Vector_35" d="M46.6768 121.401C48.9397 122.866 51.1889 124.037 52.9672 126.133C54.7306 128.212 55.1874 130.874 56.7398 132.977C56.9189 133.22 57.3792 133.226 57.4441 132.871C58.3653 127.803 51.6286 121.348 47.03 120.51C46.4865 120.412 46.2088 121.098 46.6768 121.401Z" fill="#4865B6"/>
</g>
</g>
<g id="Group_49">
<g id="Group_50">
<path id="Vector_36" d="M57.7567 115.184C57.9873 114.892 58.8891 115.203 59.1698 115.328C59.5752 115.511 59.9704 115.919 60.3216 116.2C60.9425 116.698 61.5334 117.227 62.0942 117.792C63.1335 118.838 63.8902 120.262 65.0584 121.141C65.3661 121.372 65.8015 121.151 65.7104 120.747C65.3046 118.931 58.9358 111.594 57.0982 114.7C56.8676 115.093 57.4634 115.558 57.7567 115.184Z" fill="#4865B6"/>
</g>
</g>
<g id="Group_51">
<g id="Group_52">
<path id="Vector_37" d="M66.0003 124.364C66.0605 124.356 66.1204 124.346 66.1817 124.338C67.0467 124.212 66.7403 122.942 66.0196 123.225C65.9611 123.247 65.903 123.27 65.8448 123.294C65.3241 123.498 65.3437 124.46 66.0003 124.364Z" fill="#4865B6"/>
</g>
</g>
<g id="Group_53">
<g id="Group_54">
<path id="Vector_38" d="M62.6917 110.886C65.1143 112.679 67.3023 114.526 69.003 117.05C70.7369 119.623 71.2607 122.421 72.4438 125.195C72.598 125.558 73.1039 125.509 73.136 125.094C73.5792 119.274 68.1305 112.643 63.1859 110.214C62.7841 110.018 62.2888 110.588 62.6917 110.886Z" fill="#4865B6"/>
</g>
</g>
<g id="Group_55">
<g id="Group_56">
<path id="Vector_39" d="M69.6651 107.805C71.3046 109.955 72.9726 112.068 74.4099 114.363C75.8534 116.667 76.9015 119.161 78.2698 121.496C78.5186 121.92 79.2036 121.622 79.0624 121.148C77.565 116.117 73.9014 111.036 70.1323 107.43C69.8934 107.201 69.4508 107.525 69.6651 107.805Z" fill="#4865B6"/>
</g>
</g>
<g id="Group_57">
<g id="Group_58">
<path id="Vector_40" d="M78.0297 105.009C79.0213 105.801 79.9108 106.683 80.6585 107.713C81.3317 108.639 81.779 109.702 82.4599 110.616C82.6159 110.825 82.9018 110.687 82.8642 110.438C82.5033 108.069 80.3541 105.88 78.5516 104.461C78.1748 104.164 77.6482 104.703 78.0297 105.009Z" fill="#4865B6"/>
</g>
</g>
<g id="Group_59">
<g id="Group_60">
<path id="Vector_41" d="M44.5346 133.21C44.9191 133.651 45.291 134.228 45.8556 134.435C46.0666 134.512 46.2326 134.276 46.1906 134.09C46.0604 133.518 45.4821 133.041 45.1031 132.615C44.7493 132.219 44.1887 132.814 44.5346 133.21Z" fill="#4865B6"/>
</g>
</g>
</g>
</g>
</g>
</g>
</g>
<defs>
<clipPath id="clip0_300_3951">
<rect width="160" height="160" rx="80" fill="white"/>
</clipPath>
</defs>
</svg>
