<svg width="160" height="94" viewBox="0 0 160 94" fill="none" xmlns="http://www.w3.org/2000/svg">
<path d="M43.5173 34.667L3 69.4V93.9H157V5L138.372 21.2201C135.316 23.8818 130.751 23.8369 127.748 21.1155L123.573 17.3329C120.615 14.6529 116.134 14.5633 113.071 17.123L77.5373 46.8197C74.4673 49.3854 69.9739 49.2886 67.0173 46.593L54.1138 34.8289C51.129 32.1077 46.5839 32.0382 43.5173 34.667Z" fill="url(#paint0_linear_300_4587)"/>
<path d="M1.0475 67.1223C-0.210418 68.2007 -0.355998 70.0946 0.722338 71.3525C1.80067 72.6104 3.69458 72.756 4.9525 71.6777L1.0475 67.1223ZM159.993 5.20676C160.107 3.55384 158.86 2.12132 157.207 2.00713L130.271 0.146319C128.618 0.0321307 127.186 1.27951 127.071 2.93243C126.957 4.58534 128.205 6.01786 129.857 6.13205L153.8 7.78611L152.146 31.729C152.032 33.382 153.28 34.8145 154.932 34.9287C156.585 35.0429 158.018 33.7955 158.132 32.1426L159.993 5.20676ZM127.748 21.1155L125.733 23.3387L127.748 21.1155ZM123.573 17.3329L125.587 15.1096L123.573 17.3329ZM67.0173 46.593L64.9961 48.81L67.0173 46.593ZM43.5173 34.667L41.5648 32.3893L43.5173 34.667ZM4.9525 71.6777L45.4698 36.9447L41.5648 32.3893L1.0475 67.1223L4.9525 71.6777ZM52.0926 37.0459L64.9961 48.81L69.0385 44.3761L56.135 32.612L52.0926 37.0459ZM79.4611 49.1217L114.995 19.4249L111.147 14.821L75.6135 44.5178L79.4611 49.1217ZM121.558 19.5561L125.733 23.3387L129.762 18.8922L125.587 15.1096L121.558 19.5561ZM140.343 23.4826L158.97 7.26248L155.03 2.73752L136.402 18.9577L140.343 23.4826ZM125.733 23.3387C129.863 27.0806 136.139 27.1425 140.343 23.4826L136.402 18.9577C134.492 20.6212 131.639 20.5931 129.762 18.8922L125.733 23.3387ZM114.995 19.4249C116.909 17.8251 119.71 17.8811 121.558 19.5561L125.587 15.1096C121.52 11.4247 115.358 11.3015 111.147 14.821L114.995 19.4249ZM64.9961 48.81C69.0615 52.5164 75.2399 52.6495 79.4611 49.1217L75.6135 44.5178C73.6947 46.1213 70.8864 46.0608 69.0385 44.3761L64.9961 48.81ZM45.4698 36.9447C47.3864 35.3017 50.2271 35.3451 52.0926 37.0459L56.135 32.612C52.0309 28.8703 45.7813 28.7748 41.5648 32.3893L45.4698 36.9447Z" fill="url(#paint1_linear_300_4587)"/>
<defs>
<linearGradient id="paint0_linear_300_4587" x1="80" y1="28.8" x2="79.9362" y2="93.8999" gradientUnits="userSpaceOnUse">
<stop stop-color="#FFEBC4" stop-opacity="0.62"/>
<stop offset="1" stop-color="#FFEBC4" stop-opacity="0"/>
</linearGradient>
<linearGradient id="paint1_linear_300_4587" x1="3" y1="69.7481" x2="157.411" y2="5.15131" gradientUnits="userSpaceOnUse">
<stop stop-color="#FE9042"/>
<stop offset="1" stop-color="#FFB852"/>
</linearGradient>
</defs>
</svg>
