<?xml version="1.0" encoding="UTF-8"?>
<svg width="173px" height="203px" viewBox="0 0 173 203" version="1.1" xmlns="http://www.w3.org/2000/svg" xmlns:xlink="http://www.w3.org/1999/xlink">
    <title>Group 2</title>
    <g id="-----------•--Desktop-Designs" stroke="none" stroke-width="1" fill="none" fill-rule="evenodd">
        <g id="Home-UI---v3" transform="translate(-717, -546)" fill-rule="nonzero">
            <g id="Frame-1000002374" transform="translate(0, 168)">
                <g id="Frame-1000002369" transform="translate(100, 0)">
                    <g id="Frame-1000002366" transform="translate(0, 375)">
                        <g id="Frame-1000002364" transform="translate(407, 0)">
                            <g id="Group-2" transform="translate(210, 3)">
                                <g id="Group" transform="translate(0, 68.2227)">
                                    <g fill="#D0D9F2" id="Vector">
                                        <path d="M66.749733,33.3748627 C66.749733,36.8612547 66.2199751,40.2259532 65.2248858,43.383035 C63.7071956,48.2081442 61.1299855,52.5607477 57.758136,56.1616825 C57.6865468,56.2475895 57.614954,56.326335 57.5362059,56.4050831 C57.435981,56.5124668 57.3285971,56.6198523 57.2283723,56.7200771 C51.1719291,62.9053807 42.7244086,66.7497253 33.3748638,66.7497253 C31.9287627,66.7497253 30.4898236,66.6566629 29.0938349,66.4848489 C29.0795171,66.47769 29.072356,66.477683 29.0580382,66.477683 C25.6217583,66.0266713 22.3429785,65.0602308 19.3147569,63.6499243 C19.0641948,63.5353817 18.8136306,63.4136801 18.5630685,63.2919785 C13.6305754,60.8507881 9.39249829,57.2140502 6.22109855,52.7683634 C5.94905973,52.3817819 5.67702033,51.99519 5.41929933,51.5942907 C4.77499689,50.6206781 4.18796641,49.6112919 3.65820661,48.5732491 C1.31724103,44.0130197 0,38.8514334 0,33.3748627 C0,14.9406541 14.9406546,0 33.3748638,0 C51.8090729,0 66.749733,14.9406541 66.749733,33.3748627 Z"></path>
                                    </g>
                                    <g transform="translate(19.3164, 38.8311)" fill="#6382DB" id="Vector">
                                        <path d="M38.4433784,17.3323417 C38.3717893,17.4182487 38.3001964,17.4969941 38.2214483,17.5757422 C38.1212235,17.6831259 38.0138396,17.7905114 37.9136147,17.8907362 C31.8571719,24.0760396 23.4096518,27.9203854 14.0601075,27.9203854 C12.6140065,27.9203854 11.1750675,27.8273229 9.77907889,27.655509 C9.76476106,27.6483501 9.75759996,27.6483431 9.74328212,27.6483431 C6.3070024,27.1973314 3.0282214,26.2308909 0,24.8205845 C0.286356637,12.7291765 0.164654736,2.14828899 0.164654736,1.94783935 C0.279197386,1.69727731 5.87746922,0.25832654 13.3299005,0.0149234061 C25.0569208,-0.357340192 34.9641453,6.25749903 38.4433784,17.3323417 Z"></path>
                                    </g>
                                    <g transform="translate(6.2188, 40.6094)" fill="#6382DB" id="Vector">
                                        <path d="M22.8727341,25.8794765 C22.8584162,25.8723176 22.8512579,25.8723106 22.83694,25.8723106 C19.4006607,25.4212989 16.1218773,24.4548584 13.0936562,23.044552 C12.8430942,22.9300093 12.5925327,22.8083078 12.3419707,22.6866062 C7.40947835,20.2454158 3.17139924,16.6086779 0,12.1629911 C6.42870537,3.35036534 11.6833496,0.780314857 13.258311,0.17180699 C13.4730784,0.0858999961 13.6353472,0.0286309994 13.7451174,0 L22.8727341,25.8794765 Z"></path>
                                    </g>
                                    <g transform="translate(21.0586, 5.4932)" fill="#000000" id="Vector">
                                        <path d="M13.0835996,13.9283813 C18.1311127,14.2963555 20.8586596,12.0606288 21.2662406,7.22120136 C21.916986,-0.507564161 14.7738234,-1.42819601 11.6546839,1.62436579 C9.5752576,3.65988421 8.69661928,5.74313137 9.01876899,7.87410727 C7.63757492,6.56497034 6.15663357,6.67330371 4.57594496,8.19910738 C3.41572335,9.31876184 3.10407194,10.8245199 3.64099073,12.7163817 C1.03705528,12.5507709 -0.171846542,13.6090968 0.0142852603,15.8913593 C0.200417063,18.1736218 1.0928947,19.9127671 2.69171818,21.1087952 L13.0835996,13.9283813 Z"></path>
                                    </g>
                                    <g transform="translate(26.8672, 32.6318)" fill="#E38760" id="Vector">
                                        <path d="M0,0 L0.586315371,8.07453597 C1.66969862,9.55166292 3.79518105,10.3038283 6.96276266,10.3310322 C9.32234116,10.3515544 10.8951539,10.0666295 11.681201,9.47625742 L10.8937213,5.42216702 L10.1205571,1.46901106 L1.45469274,0.211896762 L0,0 Z"></path>
                                    </g>
                                    <g transform="translate(28.3281, 32.8436)" fill="#000000" id="Vector">
                                        <path d="M0,0 C0.0365104699,0.219062826 0.138881307,0.47320103 0.291366213,0.761705343 C2.39107628,4.66403061 7.39372641,5.17518615 9.43902874,5.20954895 L8.66586452,1.25639326 L0,0 Z"></path>
                                    </g>
                                    <g transform="translate(20.797, 12.8995)" fill="#E38760" id="Vector">
                                        <path d="M16.6599874,2.6658113 C19.9755189,9.21000378 21.2125791,14.3973487 20.3711679,18.227846 C19.109051,23.9743081 13.9052384,23.3779828 10.7596109,22.4602098 C8.66252586,21.8488384 7.10092715,20.9398897 6.07481475,19.7333637 C4.19202057,20.4941236 2.55764044,20.0182971 1.17167438,18.3058844 C-0.907274716,15.7379814 0.102846395,12.5945106 1.70715932,11.7962914 C2.77670126,11.2636681 3.98584247,11.3560165 5.33458294,12.0733368 L3.635056,9.23482922 C7.36866928,-0.921760993 11.7103131,-3.11143363 16.6599874,2.6658113 Z"></path>
                                    </g>
                                    <g transform="translate(22.6211, 26.7393)" fill="#000000" id="Vector">
                                        <path d="M3.50539198,2.65000629 C3.44167763,2.65000629 3.37653036,2.63353712 3.31854314,2.59702665 L0.170768383,0.663411564 C0.00253385753,0.559607294 -0.0504427777,0.339837001 0.0526456085,0.170886597 C0.156449888,0.00265208648 0.376947055,-0.0510408263 0.545181581,0.0534793365 L3.69295632,1.9870944 C3.86119085,2.09089867 3.91416514,2.31066899 3.81036086,2.47961939 C3.74306706,2.58915079 3.62566177,2.65000629 3.50539198,2.65000629 Z"></path>
                                    </g>
                                    <g transform="translate(23.1523, 28.0801)" fill="#000000" id="Vector">
                                        <path d="M0.358312194,1.52362406 C0.225872253,1.52362406 0.0991584901,1.44989326 0.0368759257,1.32389635 C-0.0504628463,1.14635526 0.022558156,0.931578181 0.200815154,0.844239413 L1.847368,0.0359994434 C2.02490911,-0.0499075386 2.23895977,0.0231161993 2.32629854,0.199941403 C2.41292142,0.377482501 2.34061631,0.592259575 2.16235931,0.679598343 L0.515809212,1.48783822 C0.46498091,1.51217854 0.411288171,1.52362406 0.358312194,1.52362406 Z"></path>
                                    </g>
                                    <g transform="translate(36.2617, 18.3203)" fill="#000000" id="Vector">
                                        <path d="M2.52032814,1.08259046 C2.44873899,1.08259046 2.37643836,1.06110113 2.3134399,1.01599995 C1.43217748,0.390310647 0.59458109,0.942262938 0.559502406,0.966603255 C0.395563247,1.07541878 0.173636709,1.03462117 0.0626735231,0.872113773 C-0.0482896631,0.709606371 -0.00820052628,0.488405858 0.153590954,0.376726759 C0.205135141,0.340932177 1.4314578,-0.488084987 2.72793734,0.433267518 C2.88901292,0.547094286 2.92695793,0.771183717 2.81241529,0.932259333 C2.74225792,1.03033648 2.63272311,1.08259046 2.52032814,1.08259046 Z"></path>
                                    </g>
                                    <g transform="translate(35.9844, 22.5127)" fill="#000000" id="Vector">
                                        <path d="M1.4905998,6.0335722 C1.4648277,6.0335722 1.43905446,6.03071335 1.41328236,6.02498622 C1.2199916,5.98203272 1.09828692,5.79162181 1.14052453,5.59833108 C1.79914488,2.60948355 0.104634237,0.612137848 0.0874528372,0.592092883 C-0.0421235505,0.443187429 -0.0256613264,0.216953472 0.123244143,0.0873770984 C0.272865506,-0.0421992754 0.497656394,-0.0257156005 0.628664568,0.123905746 C0.708128544,0.215539874 2.57517489,2.41690594 1.83995419,5.7522448 C1.80272782,5.91976343 1.65453899,6.0335722 1.4905998,6.0335722 Z"></path>
                                    </g>
                                    <g transform="translate(38.2773, 21.5156)" fill="#000000" id="Vector">
                                        <path d="M0.391650445,2.64092088 C0.196927913,2.64092088 0.0372840937,2.48485843 0.0337046357,2.28942001 L5.98253528e-05,0.364390759 C-0.00351963269,0.166804676 0.153974606,0.00357945804 0.351560689,0 C0.558453372,0.02219264 0.71237199,0.153914781 0.715951448,0.351500864 L0.749596257,2.27580916 C0.753175715,2.47339524 0.595681476,2.63662046 0.398095392,2.64019992 C0.395947717,2.64092088 0.39379812,2.64092088 0.391650445,2.64092088 Z"></path>
                                    </g>
                                    <g transform="translate(32.9844, 21.8848)" fill="#000000" id="Vector">
                                        <path d="M0.391650445,2.64209461 C0.196927913,2.64209461 0.0372840937,2.48603217 0.0337046357,2.29059378 L5.98253528e-05,0.366285682 C-0.00351963269,0.168699615 0.153974606,0.00547441764 0.351560689,0.0018949599 C0.535544836,-0.0202976783 0.71237199,0.155809721 0.715951448,0.353395788 L0.749596257,2.27770388 C0.753175715,2.47528995 0.595681476,2.63851515 0.398095392,2.64209461 C0.395947717,2.64209461 0.39379812,2.64209461 0.391650445,2.64209461 Z"></path>
                                    </g>
                                    <g transform="translate(22.4258, 10.5361)" fill="#000000" id="Vector">
                                        <path d="M16.0474265,7.24982231 C15.38451,6.21035683 14.3810682,5.73477073 13.037101,5.82306403 C11.693611,5.91135732 10.66416,6.45686199 9.94874792,7.45957802 C10.7018647,9.67788409 10.209092,11.4540095 8.47043001,12.7879541 C6.73176798,14.1218988 5.14368206,14.6721808 3.70617224,14.4388 L1.66802875,13.8746814 L0,11.0777056 L5.29759898,4.4664355 L12.4515066,0 L16.4919968,3.16636958 L16.0474265,7.24982231 Z"></path>
                                    </g>
                                    <g transform="translate(33.0938, 28.5234)" fill="#000000" id="Vector">
                                        <path d="M2.74036459,2.04703569 C2.06527881,2.04703569 0.788128198,1.85589966 0.0457486681,0.532931923 C-0.0508966995,0.36111794 0.0106713389,0.142771185 0.182485315,0.0454099199 C0.355731077,-0.0505195587 0.572646048,0.0103212815 0.670007309,0.182851158 C1.44102256,1.55593126 3.00094987,1.32040658 3.0668119,1.30966821 C3.26153442,1.27387363 3.44551675,1.40990072 3.47773187,1.60390735 C3.509947,1.79862988 3.37965718,1.9826009 3.18493466,2.01553192 C3.16202613,2.01982727 2.99307431,2.04703569 2.74036459,2.04703569 Z"></path>
                                    </g>
                                    <g transform="translate(37.3556, 20.0282)" fill="#FFFFFF" id="Vector">
                                        <path d="M3.43603466,7.08585358 C3.407399,7.08585358 3.37876137,7.08585358 3.35012571,7.08513262 C1.45444478,7.03788377 -0.0482127152,5.40995615 0.00118380318,3.45771967 C0.0248082255,2.51417453 0.403514095,1.63433809 1.06642971,0.982160807 C1.73292477,0.327119947 2.60774694,-0.0250952224 3.52766761,0.00139276844 C5.42334853,0.048641616 6.92600598,1.67657435 6.87660946,3.62952667 C6.85298504,4.57307181 6.47427913,5.45218729 5.81136352,6.10436457 C5.1656293,6.73864455 4.325172,7.08585358 3.43603466,7.08585358 Z M3.44247415,0.715864325 C2.74233218,0.715864325 2.07941926,0.990039653 1.56827268,1.49187967 C1.03779701,2.01304877 0.735688928,2.71748334 0.716359854,3.47561259 C0.676985817,5.03339287 1.86679951,6.33129873 3.36802409,6.36924098 C4.09751765,6.39572897 4.78262481,6.11225212 5.30880514,5.5939466 C5.8392808,5.0727775 6.14138919,4.36832612 6.16000238,3.61091279 C6.19937641,2.05241667 5.00956281,0.754505694 3.50833823,0.716563438 C3.48757737,0.715847546 3.46538268,0.715864325 3.44247415,0.715864325 Z"></path>
                                    </g>
                                    <g transform="translate(29.0781, 20.6113)" fill="#FFFFFF" id="Vector">
                                        <path d="M3.54479394,7.08523846 C3.51472649,7.08523846 3.48537534,7.08523846 3.454592,7.0845175 C2.50889928,7.06089307 1.62835421,6.67002533 0.976177003,5.98420114 C0.323999798,5.29909283 -0.0224913602,4.39993538 0.00113306059,3.45424255 C0.0247574814,2.50854971 0.415633376,1.62727801 1.10145748,0.975100725 C1.78728158,0.322923435 2.6893047,-0.0185514828 3.63213389,0.000777591914 C5.58508596,0.0494582258 7.13427387,1.67882121 7.08559324,3.63177354 C7.03691261,5.55465855 5.45694025,7.08523846 3.54479394,7.08523846 Z M3.54121645,0.715948302 C2.81315478,0.715948302 2.12446582,0.990854704 1.59470608,1.49412653 C1.04776494,2.01529563 0.735637795,2.71759079 0.717024614,3.47285643 C0.698411434,4.22740623 0.974028546,4.94473488 1.4944817,5.49167608 C2.01493485,6.03861729 2.71722484,6.35001775 3.47249038,6.36934682 C5.02454323,6.4051414 6.33032805,5.17237674 6.3689862,3.61388061 C6.40836023,2.05538449 5.17201593,0.756043302 3.61352001,0.716669262 C3.58989559,0.715953371 3.56555676,0.715948302 3.54121645,0.715948302 Z"></path>
                                    </g>
                                    <g transform="translate(35.1212, 23.3572)" fill="#FFFFFF" id="Vector">
                                        <path d="M0.357125449,0.858745575 C0.168845967,0.858745575 0.0106331664,0.711260911 0.000610684632,0.520833762 C-0.0108435805,0.323963587 0.140210013,0.154291552 0.337796072,0.143553179 L2.83267853,0.00252901068 C3.02453747,-0.022527193 3.1992153,0.14213381 3.20995368,0.339719867 C3.22140794,0.536590042 3.07035434,0.70624023 2.87276828,0.716978603 L0.377885845,0.858024615 C0.370726929,0.858745575 0.364284365,0.858745575 0.357125449,0.858745575 Z"></path>
                                    </g>
                                    <g transform="translate(23.7383, 23.2832)" fill="#FFFFFF" id="Vector">
                                        <path d="M5.69223783,1.61831379 C5.63425062,1.61831379 5.57554826,1.60399264 5.52185639,1.57464108 C5.48964127,1.55674379 2.18078918,-0.208635538 0.612270812,1.37849621 C0.473387847,1.51881097 0.247168338,1.52024118 0.106137705,1.3813582 C-0.034177034,1.24247522 -0.0356099828,1.01553705 0.103272981,0.875222298 C2.04978217,-1.09347968 5.70942009,0.86233555 5.86405267,0.94609487 C6.03801431,1.04059256 6.10172881,1.2575142 6.00794702,1.43147586 C5.942085,1.55031387 5.81895064,1.61831379 5.69223783,1.61831379 Z"></path>
                                    </g>
                                    <g transform="translate(26.5156, 40.3408)" fill="#FFFFFF" id="Vector">
                                        <path d="M7.63009772,3.14667511 C5.56188671,3.14667511 2.98324536,2.57539244 0.156905064,0.653223695 C-0.0070341308,0.542260506 -0.0492717239,0.319618085 0.0624073797,0.156394813 C0.174086483,-0.00682845785 0.396728589,-0.0490578502 0.559951891,0.0619053393 C7.08816838,4.50258061 12.0034765,1.44788152 12.2089374,1.31615748 C12.3757401,1.20877375 12.5962361,1.25672905 12.7036199,1.42281588 C12.8102878,1.58818683 12.7630374,1.81011487 12.5969505,1.91678271 C12.5654513,1.93754356 10.6382746,3.14667511 7.63009772,3.14667511 Z"></path>
                                    </g>
                                    <g transform="translate(30.6211, 18.5361)" fill="#000000" id="Vector">
                                        <path d="M0.357440006,1.81353533 C0.289430304,1.81353533 0.22141951,1.79491656 0.160568723,1.75411074 C-0.0040863477,1.64529522 -0.0499025749,1.42265783 0.0596288379,1.25800276 C1.06402475,-0.258971482 2.5652457,-0.100769266 3.21813884,0.1920304 C3.39854353,0.272926148 3.47872299,0.485553651 3.39782724,0.66524243 C3.31693149,0.844931209 3.10503002,0.924383474 2.92605712,0.8456354 C2.86735401,0.819147411 1.5687277,0.273636467 0.65739769,1.65387543 C0.587240315,1.75696381 0.473414445,1.81353533 0.357440006,1.81353533 Z"></path>
                                    </g>
                                </g>
                                <g id="Group" transform="translate(66.9102, 97.0869)">
                                    <g fill="#D0D9F2" id="Vector">
                                        <path d="M105.506523,52.7475985 C105.506523,59.8303959 104.114854,66.5851024 101.580435,72.7514352 C101.354147,73.3171538 101.105238,73.8715359 100.845007,74.4259402 C94.48633,88.5349629 82.0971021,99.3515025 66.947157,103.560449 C65.8722916,103.865937 64.7748044,104.137507 63.6659959,104.363794 C63.2926216,104.442995 62.9305493,104.510884 62.557175,104.57877 C59.3778364,105.189746 56.0966642,105.495232 52.7589243,105.495232 C50.8920528,105.495232 49.0478281,105.404717 47.2262141,105.212372 C46.038205,105.087914 44.8614812,104.918196 43.6961009,104.714537 C42.1573462,104.442992 40.6525582,104.11487 39.159061,103.718867 C37.1451028,103.187091 35.1650862,102.530845 33.2529572,101.761468 C28.8290375,100.00774 24.6992971,97.6656707 20.9542399,94.8370776 C14.9915656,90.3339574 10.0245258,84.5862741 6.42655527,77.9899951 C2.33075257,70.4885661 0,61.8896114 0,52.7475985 C0,23.6130896 23.6244152,0 52.7589243,0 C81.8934333,0 105.506523,23.6130896 105.506523,52.7475985 Z"></path>
                                    </g>
                                    <g transform="translate(33.2539, 59.2256)" fill="#000000" id="Vector">
                                        <path d="M33.6942024,44.3297021 C29.1797674,45.5969118 24.4164068,46.2644501 19.5059686,46.2644501 C16.4171446,46.2644501 13.3848815,46.0042168 10.4431445,45.4837556 C8.9043897,45.2122107 7.3996016,44.8840884 5.90610426,44.4880853 C3.89214584,43.9563099 1.91212916,43.3000984 0,42.5307211 L3.74505481,4.81989909 L24.1674849,0 L32.2911966,2.40993228 L33.6942024,44.3297021 Z"></path>
                                    </g>
                                    <g transform="translate(33.4297, 15.6357)" fill="#000000" id="Vector">
                                        <path d="M26.59089,37.0099026 C23.0230915,36.3461261 16.1326321,27.8000024 5.91951175,11.3715315 C0.835600387,5.10338978 -1.01995007,1.55445857 0.352860368,0.7247379 C1.72567081,-0.0974398585 3.06453348,0.121299634 4.36944839,1.38095638 C8.9178399,0.664369303 13.27388,0.223103701 17.4375687,0.0571595723 C18.2295747,0.0232164556 19.0102624,0.000601521075 19.7683253,0.000601521075 C22.0651427,-0.0107128511 24.1469692,0.136386405 25.5838943,0.543703831 C29.3628946,1.61479773 32.5196024,5.24671296 35.0540177,11.4394495 C36.9472962,11.2659413 38.2937099,12.4690256 39.0932588,15.0487026 C40.3038966,18.9295324 31.9324049,38.0055674 26.59089,37.0099026 Z"></path>
                                    </g>
                                    <g transform="translate(42.7148, 49.5791)" fill="#FBB698" id="Vector">
                                        <path d="M17.2419873,0 L17.5044746,12.9775863 C15.9943915,15.4961803 12.7128506,17.0123136 7.65985209,17.5259861 C3.89518317,17.9084119 1.34189914,17.6870252 0,16.861826 L0.656252924,10.2734693 L1.30456424,3.8480191 L14.9530782,0.555567166 L17.2419873,0 Z"></path>
                                    </g>
                                    <g transform="translate(43.3711, 50.1299)" fill="#000000" id="Vector">
                                        <path d="M14.2956848,0 C14.2696618,0.355271343 14.1441015,0.776146966 13.9438371,1.26040216 C11.1706847,7.80124169 3.25967045,9.36037713 0,9.71904278 L0.648311273,3.29359178 L14.2956848,0 Z"></path>
                                    </g>
                                    <g transform="translate(36.1797, 18.9229)" fill="#FBB698" id="Vector">
                                        <path d="M4.34678436,4.97017106 C0.0254428155,15.9096732 -1.17954062,24.3750933 0.731834054,30.3664314 C3.60002769,39.3523071 11.8187934,37.6291263 16.7043394,35.6966313 C19.9613701,34.4090555 22.3192908,32.7262288 23.7781014,30.6481513 C26.8970875,31.5827087 29.435651,30.5806274 31.3937917,27.6419074 C34.3321343,23.2338274 32.2525692,18.3652632 29.5721943,17.3288665 C27.7860319,16.6379354 25.8693769,16.9649225 23.8222291,18.3098277 L26.1145222,13.526114 C18.64778,-2.13600547 11.3918674,-4.98798644 4.34678436,4.97017106 Z"></path>
                                    </g>
                                    <g transform="translate(40.5312, 16.9727)" fill="#000000" id="Vector">
                                        <path d="M0,6.92393369 C3.36714842,5.56923753 5.76918531,5.48551688 7.20611067,6.67277174 C9.3614987,8.45365403 11.9015767,23.4972362 19.4765496,20.2635884 C24.5265316,18.1078232 25.7450964,13.8170307 23.132244,7.39121094 C10.4314777,-3.48491397 2.72072966,-3.64067305 0,6.92393369 Z"></path>
                                    </g>
                                    <g transform="translate(6.4297, 59.2393)" fill="#6382DB" id="Vector">
                                        <path d="M37.007061,0 C35.8922297,14.7924138 34.4673787,29.6183924 32.7325082,44.4779358 C18.6234844,40.7328785 6.84519606,31.2853882 0,18.7490633 C4.18631817,14.3590866 10.8844394,7.01605597 16.6660843,4.6739809 C23.394365,1.94344571 30.1746906,0.385452073 37.007061,0 Z"></path>
                                    </g>
                                    <g transform="translate(42.8085, 61.3603)" fill="#000000" id="Vector">
                                        <path d="M5.42417542,6.30997944 C2.66573128,6.30997944 0.642712393,5.88002609 0.443579426,5.83590004 C0.138091337,5.7680138 -0.0542585169,5.46704211 0.0136277207,5.16155403 C0.0815139584,4.85719741 0.380222786,4.66483954 0.687973754,4.7304629 C0.802248927,4.75535452 12.1279277,7.15289888 18.053265,0.199085499 C18.2580551,-0.0396477607 18.6144427,-0.0668099899 18.8509131,0.134585848 C19.0885149,0.338244566 19.1168086,0.694632089 18.9154127,0.932233909 C15.1228348,5.38104518 9.47811527,6.30997944 5.42417542,6.30997944 Z"></path>
                                    </g>
                                    <g transform="translate(60.1445, 57.1592)" fill="#6382DB" id="Vector">
                                        <path d="M40.6977997,17.265711 C34.3391224,31.3747354 21.9498943,42.1912764 6.79994899,46.4002235 C5.72508361,46.7057116 4.62759638,46.9772814 3.51878784,47.2035689 C3.14541353,47.2827695 2.7833412,47.3506585 2.40996689,47.4185448 C1.39167334,35.9155981 0.588351041,20.1094165 0,0 C15.6666357,0.233814883 29.2325689,5.98905187 40.6977997,17.265711 Z"></path>
                                    </g>
                                    <g transform="translate(60.0234, 39.1182)" fill="#000000" id="Vector">
                                        <path d="M0.56607663,5.36406565 C0.424646964,5.36406565 0.283226444,5.31089803 0.172345589,5.20454293 C-0.0516790008,4.98843841 -0.0584601696,4.62977196 0.158775799,4.40461594 L4.24663176,0.171911985 C4.46160485,-0.0521125978 4.82027158,-0.0577623269 5.04655905,0.158342196 C5.27058364,0.374446719 5.27739934,0.73311317 5.06016337,0.958269193 L0.972272575,5.19097314 C0.861391719,5.30637975 0.713163477,5.36406565 0.56607663,5.36406565 Z"></path>
                                    </g>
                                    <g transform="translate(62.0195, 41.3926)" fill="#000000" id="Vector">
                                        <path d="M4.09562217,2.05501127 C4.04810181,2.05501127 4.00057343,2.04935602 3.95305307,2.03577877 L0.422974441,1.11365467 C0.119749257,1.0355855 -0.0612746075,0.725561703 0.0190574384,0.424599377 C0.0971266052,0.120242749 0.409413218,-0.0641754524 0.708112644,0.0206823488 L4.23819127,0.942806536 C4.54141646,1.02087571 4.7224406,1.33089941 4.64210856,1.63186173 C4.5764852,1.88756656 4.34793268,2.05501127 4.09562217,2.05501127 Z"></path>
                                    </g>
                                    <g transform="translate(38.8906, 29.25)" fill="#000000" id="Vector">
                                        <path d="M0.564575054,2.02500772 C0.445774149,2.02500772 0.324708138,1.98654245 0.222878784,1.90847328 C-0.0215116649,1.71952326 -0.0735301488,1.3744322 0.109762683,1.12777889 C0.153888736,1.06894415 1.21404181,-0.312535481 3.90346821,0.0653645488 C4.21235058,0.109490602 4.42730183,0.396851916 4.38317578,0.705734286 C4.33791829,1.01461666 4.04150549,1.21715656 3.74280606,1.18547632 C1.76844809,0.901485583 1.04317659,1.77269446 1.01375923,1.81003189 C0.900615501,1.9503301 0.732027767,2.02500772 0.564575054,2.02500772 Z"></path>
                                    </g>
                                    <g transform="translate(47.5117, 29.3379)" fill="#000000" id="Vector">
                                        <path d="M4.16894651,2.09241414 C4.0410941,2.09241414 3.91210196,2.04942257 3.8068783,1.96117046 C2.3925817,0.781081428 0.779134265,1.19520982 0.712379465,1.21331281 C0.413680027,1.29477629 0.101403908,1.11598635 0.0199404274,0.815024041 C-0.0615230528,0.51406173 0.113875163,0.20517989 0.413706024,0.122584972 C0.504221004,0.097693353 2.65054743,-0.475951426 4.53325909,1.09222064 C4.77312379,1.29248504 4.80479879,1.64889903 4.60566583,1.88876372 C4.4925221,2.02227332 4.33074205,2.09241414 4.16894651,2.09241414 Z"></path>
                                    </g>
                                    <g transform="translate(39.4297, 33.5928)" fill="#000000" id="Vector">
                                        <path d="M0.566556879,4.1525178 C0.209022699,4.1253633 -0.0240453496,3.85154578 0.00197770661,3.54153197 L0.247476941,0.519474146 C0.27236856,0.208328873 0.55073028,-0.01909886 0.856218344,0.00126701109 C1.16736359,0.0261586323 1.39928252,0.299960157 1.3743909,0.609973974 L1.12889168,3.63203176 C1.10626293,3.92846834 0.858467667,4.1525178 0.566556879,4.1525178 Z"></path>
                                    </g>
                                    <g transform="translate(48.3633, 33.96)" fill="#000000" id="Vector">
                                        <path d="M0.566556951,4.15090513 C0.209022726,4.12375064 -0.0240453527,3.84996765 0.00197770686,3.53995384 L0.247511501,0.519000919 C0.271271686,0.207855651 0.554124687,-0.0150463169 0.856218454,0.000793806 C1.16736374,0.0256854268 1.39931723,0.299521462 1.37442561,0.609535274 L1.12889182,3.63045364 C1.10513164,3.92689021 0.858467778,4.15090513 0.566556951,4.15090513 Z"></path>
                                    </g>
                                    <g transform="translate(41, 36.6123)" fill="#000000" id="Vector">
                                        <path d="M1.16605738,8.34288311 C0.949952849,8.34288311 0.744038431,8.21843633 0.650129135,8.00798897 C-1.24615985,3.76283587 1.59715047,0.342491855 1.71934571,0.198799305 C1.921873,-0.0376711123 2.27601607,-0.0682276627 2.51474934,0.134299632 C2.75348261,0.335695487 2.78289723,0.692109576 2.58263282,0.930842855 C2.47967202,1.05190665 0.082167716,3.9642093 1.68202016,7.54633988 C1.80987257,7.8314621 1.68200414,8.16637169 1.39688192,8.29309268 C1.32220706,8.3270358 1.24412656,8.34288311 1.16605738,8.34288311 Z"></path>
                                    </g>
                                    <g transform="translate(45.1328, 44.5439)" fill="#000000" id="Vector">
                                        <path d="M0.565718633,3.12696648 C0.253441956,3.12696648 0,2.87352451 0,2.56124783 C0,2.25010257 0.252329011,1.99666062 0.563474266,1.99552918 C0.642674875,1.99439775 2.52196898,1.96158525 3.19856846,0.347024183 C3.31963224,0.0585076786 3.64777419,-0.0761394488 3.93855357,0.0437929029 C4.22707006,0.163725255 4.36171718,0.4952615 4.24178483,0.783778005 C3.27327452,3.10096169 0.676599482,3.12696648 0.565718633,3.12696648 Z"></path>
                                    </g>
                                </g>
                                <g id="Group" transform="translate(59.0391, 0)">
                                    <g fill="#D0D9F2" id="Vector">
                                        <path d="M85.003006,42.501496 C85.003006,50.2597067 82.9244216,57.5347387 79.2869058,63.7978297 C79.1501571,64.0348608 79.0042907,64.2718908 78.8584254,64.5089219 C78.5211119,65.07415 78.1655669,65.6393885 77.7917871,66.1863834 C77.6368052,66.4142979 77.4818245,66.6422125 77.3086094,66.870127 C71.7657283,74.810669 63.5608071,80.736436 54.0066307,83.4258275 C53.8060659,83.4805269 53.5963723,83.5352337 53.3958075,83.5899331 C49.9223902,84.5107078 46.2666441,85.003006 42.501496,85.003006 C27.8146835,85.003006 14.8600245,77.554754 7.24767909,66.2228436 C6.52746917,65.1744368 5.86195657,64.0804543 5.25114563,62.9682314 C1.90536035,56.8965887 0,49.9223933 0,42.501496 C0,19.0263 19.0263,0 42.501496,0 C65.976692,0 85.003006,19.0263 85.003006,42.501496 Z"></path>
                                    </g>
                                    <g transform="translate(20.7539, 11.8867)" fill="#000000" id="Vector">
                                        <path d="M53.5193433,39.2835982 C53.6165868,53.7485743 46.4661492,59.7655193 32.0680304,57.3344331 L11.6195487,49.2480155 C-2.03709203,42.027689 -4.38917148,34.2390924 4.56331033,25.8822257 C1.43328226,11.8244535 5.41114912,3.3855361 16.4969109,0.565473529 C16.5698436,0.538123784 16.6427812,0.519883942 16.7157139,0.501650778 C17.2627087,0.374018632 17.7914754,0.264623001 18.3020039,0.191690348 C28.5672732,-1.40067255 34.1405411,4.7104765 35.0218075,18.5251375 C47.2744877,20.7921295 53.4403329,27.7116165 53.5193433,39.2835982 Z"></path>
                                    </g>
                                    <g transform="translate(7.2461, 46.7861)" fill="#6382DB" id="Vector">
                                        <path d="M70.060936,20.0869229 C64.5180544,28.0274646 56.3131326,33.953247 46.7589554,36.6426383 C46.5583906,36.6973378 46.3486969,36.7520306 46.1481321,36.8067301 C42.6747146,37.7275047 39.0189681,38.2198029 35.2538198,38.2198029 C33.4943196,38.2198029 31.7621718,38.1104072 30.057371,37.9098425 C28.6260676,37.7275108 27.212998,37.4813515 25.8272776,37.1713877 C15.1061773,34.7463772 5.9348949,28.2736057 0,19.4396395 C5.70698036,11.6358461 12.8634939,5.72830644 17.7317486,3.63149295 C24.9338483,0.531855454 36.3569253,-1.54672044 46.9048101,1.47086769 C46.9321598,1.47998427 46.9686267,1.47997425 47.005093,1.48909083 C50.1776635,2.40074889 53.2590769,3.76824044 56.1308002,5.71007221 C62.3391923,9.9036992 66.8610158,14.7719564 70.060936,20.0869229 Z"></path>
                                    </g>
                                    <g transform="translate(34.7422, 38.5713)" fill="#FFC7AF" id="Vector">
                                        <path d="M0,2.26729321 L0.00183622555,2.5143629 L0.209691394,7.16655121 L0.357382354,10.8140878 C0.775525342,11.7895674 2.40009808,12.1855336 5.23110057,12.0019865 C9.02542187,11.7412523 11.2210005,10.5910425 11.8178364,8.55135728 L12.0603294,0 L10.3354737,0.329115579 L0,2.26729321 Z"></path>
                                    </g>
                                    <g transform="translate(34.7422, 38.9229)" fill="#000000" id="Vector">
                                        <path d="M0,2.16701028 L0.207855163,6.81919861 C2.9729143,6.48370843 8.00618229,5.28578695 10.0400916,0.936266291 C10.1959851,0.582542942 10.2999059,0.264380838 10.3336372,0 L0.018223147,2.09680248 L0,2.16701028 Z"></path>
                                    </g>
                                    <g transform="translate(29.1406, 15.3027)" fill="#FFC7AF" id="Vector">
                                        <path d="M3.80009612,3.52146289 C0.271976343,11.5969305 -0.856657786,17.9031738 0.414193728,22.4401928 C2.32138259,29.2457212 8.52157534,28.1745228 12.2311121,26.8590001 C14.7041367,25.9819849 16.5146875,24.7852852 17.6627646,23.2689009 C19.9729078,24.0523178 21.9004577,23.3697891 23.4454144,21.2213146 C25.7628495,17.9986029 24.3361107,14.2981805 22.3578125,13.4503384 C21.038947,12.8851103 19.5951822,13.0786838 18.0265181,14.0310587 L19.870798,10.5111533 C14.6980548,-1.41637938 9.34115414,-3.74627619 3.80009612,3.52146289 Z"></path>
                                    </g>
                                    <g transform="translate(34.5859, 12.7959)" fill="#000000" id="Vector">
                                        <path d="M0.00427378861,4.23373742 C-0.250994072,8.53068434 1.78230544,11.6552397 6.10417232,13.6074034 C10.4266469,15.5595671 14.0316488,16.3423787 16.919178,15.9558382 L16.4979869,7.55034984 L7.69501157,0 L1.12651345,1.04749699 L0.00427378861,4.23373742 Z"></path>
                                    </g>
                                    <g transform="translate(46.7266, 27.4755)" fill="#000000" id="Vector">
                                        <polygon points="0 0 0.0246221143 3.67033601 3.28835988 0.450362058"></polygon>
                                    </g>
                                    <g transform="translate(53.3945, 48.2275)" fill="#6382DB" id="Vector">
                                        <path d="M25.4626026,16.2822118 C25.1252891,16.8474397 24.7697442,17.4126782 24.3959644,17.959673 C24.2409825,18.1875875 24.0860017,18.415502 23.9127867,18.6434165 C18.3699059,26.5839574 10.1649852,32.5097235 0.610809223,35.1991145 C0.410244454,35.253814 0.20056477,35.3085207 0,35.3632202 L0.583460595,0 C0.626006122,0.00607697812 0.683745207,0.0151931868 0.756677849,0.0273486261 C0.78402759,0.0364652055 0.82049447,0.0364691009 0.856960791,0.0455856804 C2.95377426,0.401132273 16.6924532,3.11786944 24.0677669,13.9301326 C24.5691789,14.6503424 25.0250068,15.4434865 25.4626026,16.2822118 Z"></path>
                                    </g>
                                    <g transform="translate(30.9805, 21.6016)" fill="#000000" id="Vector">
                                        <path d="M0.455575882,1.66666484 C0.261392708,1.66666484 0.0817914999,1.54176958 0.0207104061,1.34667476 C-0.0540455598,1.10599704 0.0799708444,0.850740193 0.319736934,0.775984232 L2.73380295,0.0211287322 C2.97356904,-0.0545388818 3.22974396,0.079477522 3.30541158,0.320155242 C3.38016754,0.560832962 3.2470767,0.816089728 3.00639896,0.890845689 L0.592319032,1.64570127 C0.546736126,1.6602878 0.501158787,1.66666484 0.455575882,1.66666484 Z"></path>
                                    </g>
                                    <g transform="translate(46.957, 30.6562)" fill="#000000" id="Vector">
                                        <path d="M0.455981096,4.34913111 C0.332907261,4.34913111 0.20983691,4.29989923 0.120494428,4.20144015 C-0.0499856239,4.01637354 -0.0381277154,3.72738391 0.146938854,3.55781548 L3.88108371,0.120860234 C4.06615028,-0.0505314962 4.35514653,-0.0377758498 4.52562659,0.147290753 C4.69519498,0.332357356 4.68425619,0.621361121 4.49827796,0.790929545 L0.764119163,4.22788458 C0.677511654,4.30993382 0.567203373,4.34913111 0.455981096,4.34913111 Z"></path>
                                    </g>
                                    <g transform="translate(48.5156, 32.666)" fill="#000000" id="Vector">
                                        <path d="M2.68496782,1.88961744 C2.62388674,1.88961744 2.56189033,1.87686135 2.50172091,1.85133493 L0.272710737,0.873113661 C0.0429729464,0.771919612 -0.0627689014,0.502983583 0.038425125,0.272334094 C0.139619151,0.0425962508 0.407643468,-0.0622478654 0.639204578,0.0380345243 L2.86820081,1.01625578 C3.09793861,1.11744983 3.20369437,1.38638586 3.10250034,1.61703535 C3.02774439,1.78751541 2.86000613,1.88961744 2.68496782,1.88961744 Z"></path>
                                    </g>
                                    <g transform="translate(31.2031, 24.9395)" fill="#000000" id="Vector">
                                        <path d="M0.984129409,4.43877363 C0.953133033,4.43877363 0.922132099,4.4351181 0.891135724,4.42964815 C0.64407639,4.37859529 0.486359097,4.1370028 0.53741195,3.8908551 L0.98048478,1.75667432 L0.111671975,0.754762918 C-0.0533381296,0.565138032 -0.033278881,0.27614078 0.15725766,0.112042318 C0.347794201,-0.0538794498 0.635879806,-0.032908534 0.799978264,0.157628012 L1.81738621,1.33001622 C1.91128699,1.43759187 1.94866453,1.58163463 1.91949147,1.72111832 L1.43083296,4.07592437 C1.38525005,4.29107568 1.19563407,4.43877363 0.984129409,4.43877363 Z"></path>
                                    </g>
                                    <g transform="translate(38.5039, 25.3096)" fill="#000000" id="Vector">
                                        <path d="M0.984740039,4.43893719 C0.953743664,4.43893719 0.922742732,4.43620722 0.891746357,4.42982561 C0.644687032,4.37877276 0.486969743,4.13718028 0.538022595,3.89103261 L0.980177297,1.75683797 L0.111364527,0.754926694 C-0.0536455715,0.565301822 -0.0326746569,0.277223669 0.156950218,0.111301913 C0.347486753,-0.0527965364 0.63465323,-0.0336489419 0.800574989,0.15688759 L1.8170787,1.3292757 C1.91006782,1.43685134 1.94744547,1.58089409 1.91918407,1.72037777 L1.43053937,4.07518375 C1.38586813,4.29033504 1.1962447,4.43893719 0.984740039,4.43893719 Z"></path>
                                    </g>
                                    <g transform="translate(32.9766, 28.2744)" fill="#000000" id="Vector">
                                        <path d="M0.649108539,6.42173004 C0.437603875,6.42173004 0.248892097,6.27403854 0.203309194,6.05979889 C-0.609889815,2.17613529 1.2735898,0.21789312 1.35381571,0.13584389 C1.53067738,-0.043752748 1.81876189,-0.0455740573 1.99835852,0.132199261 C2.1770435,0.309060932 2.17887127,0.596227436 2.00292126,0.775824074 C1.92634199,0.856049984 0.391107902,2.50705927 1.09490794,5.87198921 C1.14687245,6.11904854 0.988249911,6.35973585 0.742102224,6.41170036 C0.712017508,6.41899362 0.680104915,6.42173004 0.649108539,6.42173004 Z"></path>
                                    </g>
                                    <g transform="translate(35.2109, 35.1328)" fill="#000000" id="Vector">
                                        <path d="M2.3568312,3.29207873 C2.0951853,3.29207873 1.46979783,3.17082014 0.173419844,1.7367819 C0.0184379503,1.56539018 -0.0362628676,1.33383568 0.0239065724,1.11686103 C0.0877226457,0.891681474 0.265491448,0.714814889 0.500699248,0.644617212 C3.61765851,-0.288009084 4.03154807,0.0219636989 4.22937789,0.172387301 C4.38800641,0.291814517 4.62869364,0.579892163 4.45274361,1.1715583 C4.24123891,1.88265163 3.26758285,3.23372716 2.43615058,3.28933831 C2.41427078,3.29024996 2.38782758,3.29207873 2.3568312,3.29207873 Z M1.11879782,1.41314715 C1.79251324,2.10965398 2.2401493,2.3776866 2.37598637,2.37859826 C2.69689005,2.33483867 3.48182842,1.34750755 3.59031574,0.894413438 C3.33322813,0.898060071 2.58292082,0.993784393 1.11879782,1.41314715 Z"></path>
                                    </g>
                                    <g transform="translate(17.3203, 63.5371)" fill="#E6F4FF" id="Vector">
                                        <path d="M4.59273318,0.769082342 C4.54623862,0.822870169 0.192168554,5.49147892 1.01813081,13.8851147 C0.756484931,13.7164579 0.503945033,13.5386849 0.252327405,13.3527067 C0.180306412,13.3062121 0.117411368,13.249693 0.0453903754,13.1940819 C-0.489752938,4.86061552 3.88254941,0.201132029 3.93816056,0.138227623 C4.11411057,-0.0413690162 4.3967307,-0.0450205464 4.58544393,0.121812881 C4.76412891,0.297762894 4.7686832,0.590397363 4.59273318,0.769082342 Z"></path>
                                    </g>
                                    <g transform="translate(33.0742, 51.3467)" fill="#000000" id="Vector">
                                        <path d="M7.46648169,0 L4.23009281,33.3484535 C2.79878962,33.1661219 1.38572022,32.9199626 0,32.6099988 L4.4306587,0.765789432 L7.46648169,0 Z"></path>
                                    </g>
                                    <g transform="translate(31.582, 47.0674)" fill="#E6F4FF" id="Vector">
                                        <path d="M3.44745436,0.432125056 C0.566005306,6.8088622 -0.52980857,9.94739346 0.160012726,9.84771883 C0.849226221,9.74804421 3.31708529,7.97183458 7.56358994,4.51908995 C10.343534,8.42584707 12.2182042,10.4153881 13.1876007,10.487713 C14.1569972,10.5600378 14.8000192,7.06413352 15.1166668,0 C14.3830936,1.99774327 12.2066656,3.16587942 8.587383,3.50440845 C4.96810035,3.84293749 3.25479081,2.81884302 3.44745436,0.432125056 Z"></path>
                                    </g>
                                </g>
                            </g>
                        </g>
                    </g>
                </g>
            </g>
        </g>
    </g>
</svg>