<svg width="289" height="268" viewBox="0 0 289 268" fill="none" xmlns="http://www.w3.org/2000/svg">
<path opacity="0.2" d="M244.77 -42.0938C245.599 -42.0938 246.27 -41.4222 246.27 -40.5938V19.227C246.27 20.6077 247.39 21.727 248.77 21.727H308.591C309.419 21.727 310.091 22.3986 310.091 23.227V61.7742C310.091 62.6026 309.419 63.2742 308.591 63.2742H248.77C247.39 63.2742 246.27 64.3935 246.27 65.7742V125.595C246.27 126.423 245.599 127.095 244.77 127.095H206.223C205.395 127.095 204.723 126.423 204.723 125.595V65.7742C204.723 64.3935 203.604 63.2742 202.223 63.2742H142.402C141.574 63.2742 140.902 62.6026 140.902 61.7742V23.227C140.902 22.3986 141.574 21.727 142.402 21.727H202.223C203.604 21.727 204.723 20.6077 204.723 19.227V-40.5938C204.723 -41.4222 205.395 -42.0938 206.223 -42.0938H244.77Z" stroke="white"/>
<path opacity="0.16" d="M257.537 -54.8584C258.365 -54.8584 259.037 -54.1868 259.037 -53.3584V6.46236C259.037 7.84307 260.156 8.96236 261.537 8.96236H321.358C322.186 8.96236 322.858 9.63393 322.858 10.4624V74.5378C322.858 75.3663 322.186 76.0378 321.358 76.0378H261.537C260.156 76.0378 259.037 77.1571 259.037 78.5378V138.359C259.037 139.187 258.365 139.859 257.537 139.859H193.461C192.633 139.859 191.961 139.187 191.961 138.359V78.5378C191.961 77.1571 190.842 76.0378 189.461 76.0378H129.641C128.812 76.0378 128.141 75.3663 128.141 74.5378V10.4624C128.141 9.63393 128.812 8.96236 129.641 8.96236H189.461C190.842 8.96236 191.961 7.84307 191.961 6.46236V-53.3584C191.961 -54.1868 192.633 -54.8584 193.461 -54.8584H257.537Z" stroke="white"/>
<path opacity="0.14" d="M270.3 -67.623C271.128 -67.623 271.8 -66.9515 271.8 -66.123V-6.30229C271.8 -4.92158 272.919 -3.80229 274.3 -3.80229H334.12C334.949 -3.80229 335.62 -3.13072 335.62 -2.30229V87.3015C335.62 88.1299 334.949 88.8015 334.12 88.8015H274.3C272.919 88.8015 271.8 89.9208 271.8 91.3015V151.122C271.8 151.951 271.128 152.622 270.3 152.622H180.696C179.867 152.622 179.196 151.951 179.196 151.122V91.3015C179.196 89.9207 178.076 88.8015 176.696 88.8015H116.875C116.047 88.8015 115.375 88.1299 115.375 87.3015V-2.30229C115.375 -3.13071 116.047 -3.80229 116.875 -3.80229H176.696C178.076 -3.80229 179.196 -4.92158 179.196 -6.30229V-66.123C179.196 -66.9515 179.867 -67.623 180.696 -67.623H270.3Z" stroke="white"/>
<path opacity="0.12" d="M283.062 -80.3867C283.891 -80.3867 284.562 -79.7152 284.562 -78.8867V-19.066C284.562 -17.6853 285.681 -16.566 287.062 -16.566H346.883C347.711 -16.566 348.383 -15.8944 348.383 -15.066V100.066C348.383 100.895 347.711 101.566 346.883 101.566H287.062C285.681 101.566 284.562 102.685 284.562 104.066V163.887C284.562 164.715 283.891 165.387 283.062 165.387H167.93C167.102 165.387 166.43 164.715 166.43 163.887V104.066C166.43 102.685 165.311 101.566 163.93 101.566H104.109C103.281 101.566 102.609 100.895 102.609 100.066V-15.066C102.609 -15.8944 103.281 -16.566 104.109 -16.566H163.93C165.311 -16.566 166.43 -17.6853 166.43 -19.066V-78.8867C166.43 -79.7151 167.102 -80.3867 167.93 -80.3867H283.062Z" stroke="white"/>
<path opacity="0.1" d="M295.833 -93.1504C296.661 -93.1504 297.333 -92.4788 297.333 -91.6504V-33.957C297.333 -32.5763 298.452 -31.457 299.833 -31.457H359.653C360.482 -31.457 361.153 -30.7854 361.153 -29.957V112.831C361.153 113.659 360.482 114.331 359.653 114.331H299.833C298.452 114.331 297.333 115.45 297.333 116.831V176.651C297.333 177.48 296.661 178.151 295.833 178.151H155.172C154.344 178.151 153.672 177.48 153.672 176.651V116.831C153.672 115.45 152.553 114.331 151.172 114.331H91.3516C90.5231 114.331 89.8516 113.659 89.8516 112.831V-29.957C89.8516 -30.7854 90.5231 -31.457 91.3516 -31.457H151.172C152.553 -31.457 153.672 -32.5763 153.672 -33.957V-91.6504C153.672 -92.4788 154.344 -93.1504 155.172 -93.1504H295.833Z" stroke="white"/>
<path opacity="0.08" d="M308.591 -105.915C309.42 -105.915 310.091 -105.243 310.091 -104.415V-46.7216C310.091 -45.3409 311.211 -44.2216 312.591 -44.2216H372.412C373.241 -44.2216 373.912 -43.5501 373.912 -42.7216V125.594C373.912 126.423 373.241 127.094 372.412 127.094H312.591C311.211 127.094 310.091 128.214 310.091 129.594V189.415C310.091 190.244 309.42 190.915 308.591 190.915H142.403C141.574 190.915 140.903 190.244 140.903 189.415V129.594C140.903 128.214 139.783 127.094 138.403 127.094H78.582C77.7536 127.094 77.082 126.423 77.082 125.594V-42.7216C77.082 -43.5501 77.7536 -44.2216 78.582 -44.2216H138.403C139.783 -44.2216 140.903 -45.3409 140.903 -46.7216V-104.415C140.903 -105.243 141.574 -105.915 142.403 -105.915H308.591Z" stroke="white"/>
<path opacity="0.06" d="M321.354 -118.679C322.183 -118.679 322.854 -118.007 322.854 -117.179V-59.4853C322.854 -58.1046 323.973 -56.9853 325.354 -56.9853H385.175C386.003 -56.9853 386.675 -56.3137 386.675 -55.4853V138.359C386.675 139.187 386.003 139.859 385.175 139.859H325.354C323.973 139.859 322.854 140.978 322.854 142.359V202.18C322.854 203.008 322.183 203.68 321.354 203.68H129.637C128.809 203.68 128.137 203.008 128.137 202.18V142.359C128.137 140.978 127.018 139.859 125.637 139.859H65.8164C64.988 139.859 64.3164 139.187 64.3164 138.359V-55.4853C64.3164 -56.3137 64.988 -56.9853 65.8164 -56.9853H125.637C127.018 -56.9853 128.137 -58.1046 128.137 -59.4853V-117.179C128.137 -118.007 128.809 -118.679 129.637 -118.679H321.354Z" stroke="white"/>
<path opacity="0.05" d="M334.125 -131.442C334.953 -131.442 335.625 -130.771 335.625 -129.942V-72.249C335.625 -70.8683 336.744 -69.749 338.125 -69.749H397.945C398.774 -69.749 399.445 -69.0774 399.445 -68.249V151.124C399.445 151.952 398.774 152.624 397.945 152.624H338.125C336.744 152.624 335.625 153.743 335.625 155.124V214.944C335.625 215.773 334.953 216.444 334.125 216.444H116.879C116.051 216.444 115.379 215.773 115.379 214.944V155.124C115.379 153.743 114.26 152.624 112.879 152.624H53.0586C52.2302 152.624 51.5586 151.952 51.5586 151.124V-68.249C51.5586 -69.0774 52.2302 -69.749 53.0586 -69.749H112.879C114.26 -69.749 115.379 -70.8683 115.379 -72.249V-129.942C115.379 -130.771 116.051 -131.442 116.879 -131.442H334.125Z" stroke="white"/>
<path opacity="0.03" d="M346.887 -144.208C347.716 -144.208 348.387 -143.536 348.387 -142.708V-85.0146C348.387 -83.6339 349.507 -82.5146 350.887 -82.5146H410.708C411.536 -82.5146 412.208 -81.843 412.208 -81.0146V163.886C412.208 164.715 411.536 165.386 410.708 165.386H350.887C349.507 165.386 348.387 166.506 348.387 167.886V227.707C348.387 228.536 347.716 229.207 346.887 229.207H104.114C103.285 229.207 102.614 228.535 102.614 227.707V167.886C102.614 166.506 101.494 165.386 100.114 165.386H40.293C39.4645 165.386 38.793 164.715 38.793 163.886V-81.0146C38.793 -81.843 39.4645 -82.5146 40.293 -82.5146H100.114C101.494 -82.5146 102.614 -83.6339 102.614 -85.0146V-142.708C102.614 -143.536 103.285 -144.208 104.114 -144.208H346.887Z" stroke="white"/>
<path opacity="0.02" d="M359.65 -156.973C360.478 -156.973 361.15 -156.301 361.15 -155.473V-97.7793C361.15 -96.3985 362.269 -95.2793 363.65 -95.2793H423.471C424.299 -95.2793 424.971 -94.6077 424.971 -93.7793V176.65C424.971 177.478 424.299 178.15 423.471 178.15H363.65C362.269 178.15 361.15 179.269 361.15 180.65V240.471C361.15 241.299 360.478 241.971 359.65 241.971H91.3481C90.5197 241.971 89.8481 241.299 89.8481 240.471V180.65C89.8481 179.269 88.7288 178.15 87.3481 178.15H27.5273C26.6989 178.15 26.0273 177.478 26.0273 176.65V-93.7793C26.0273 -94.6077 26.6989 -95.2793 27.5273 -95.2793H87.3481C88.7288 -95.2793 89.8481 -96.3985 89.8481 -97.7793V-155.473C89.8481 -156.301 90.5197 -156.973 91.3481 -156.973H359.65Z" stroke="white"/>
<path opacity="0.01" d="M372.417 -169.735C373.245 -169.735 373.917 -169.064 373.917 -168.235V-110.542C373.917 -109.161 375.036 -108.042 376.417 -108.042H436.237C437.066 -108.042 437.737 -107.37 437.737 -106.542V189.416C437.737 190.244 437.066 190.916 436.237 190.916H376.417C375.036 190.916 373.917 192.035 373.917 193.416V253.236C373.917 254.065 373.245 254.736 372.417 254.736H78.5864C77.7579 254.736 77.0864 254.065 77.0864 253.236V193.416C77.0864 192.035 75.9671 190.916 74.5864 190.916H14.7656C13.9372 190.916 13.2656 190.244 13.2656 189.416V-106.542C13.2656 -107.37 13.9372 -108.042 14.7656 -108.042H74.5864C75.9671 -108.042 77.0864 -109.161 77.0864 -110.542V-168.235C77.0864 -169.064 77.7579 -169.735 78.5864 -169.735H372.417Z" stroke="white"/>
</svg>
