<svg width="21" height="20" viewBox="0 0 21 20" fill="none" xmlns="http://www.w3.org/2000/svg">
<path d="M17.8778 2.94643C19.7528 4.82143 20.9135 7.27679 20.9135 9.95536C20.9135 15.4018 16.36 19.8661 10.8689 19.8661C9.21712 19.8661 7.60997 19.4196 6.13676 18.6607L0.913544 20L2.29747 14.8661C1.44926 13.3929 0.958187 11.6964 0.958187 9.91072C0.958187 4.46429 5.42247 0 10.8689 0C13.5475 0 16.0475 1.07143 17.8778 2.94643ZM10.8689 18.1696C15.4225 18.1696 19.2171 14.4643 19.2171 9.95536C19.2171 7.72321 18.2796 5.66964 16.7171 4.10714C15.1546 2.54464 13.101 1.69643 10.9135 1.69643C6.35997 1.69643 2.65462 5.40179 2.65462 9.91072C2.65462 11.4732 3.10104 12.9911 3.90462 14.3304L4.12783 14.6429L3.27962 17.6786L6.40462 16.8304L6.67247 17.0089C7.96712 17.7679 9.39569 18.1696 10.8689 18.1696ZM15.4225 12.0089C15.6457 12.1429 15.8243 12.1875 15.8689 12.3214C15.9582 12.4107 15.9582 12.9018 15.735 13.4821C15.5118 14.0625 14.5296 14.5982 14.0832 14.6429C13.2796 14.7768 12.6546 14.7321 11.0921 14.0179C8.59212 12.9464 6.98497 10.4464 6.85104 10.3125C6.71712 10.1339 5.8689 8.97322 5.8689 7.72321C5.8689 6.51786 6.4939 5.9375 6.71712 5.66964C6.94033 5.40179 7.20819 5.35714 7.38676 5.35714C7.52069 5.35714 7.69926 5.35714 7.83319 5.35714C8.01176 5.35714 8.19033 5.3125 8.41354 5.80357C8.59212 6.29464 9.12783 7.5 9.17247 7.63393C9.21712 7.76786 9.26176 7.90179 9.17247 8.08036C8.72604 9.01786 8.19033 8.97322 8.45819 9.41964C9.44033 11.0714 10.3778 11.6518 11.851 12.3661C12.0743 12.5 12.2082 12.4554 12.3868 12.3214C12.5207 12.1429 13.0118 11.5625 13.1457 11.3393C13.3243 11.0714 13.5028 11.1161 13.726 11.2054C13.9493 11.2946 15.1546 11.875 15.4225 12.0089Z" fill="white"/>
</svg>
