<svg width="21" height="16" viewBox="0 0 21 16" fill="none" xmlns="http://www.w3.org/2000/svg">
<path d="M20.4746 3.21033C20.9133 4.74598 20.9133 8.03666 20.9133 8.03666C20.9133 8.03666 20.9133 11.2908 20.4746 12.863C20.2552 13.7405 19.5605 14.3986 18.7195 14.618C17.1473 15.0202 10.9316 15.0202 10.9316 15.0202C10.9316 15.0202 4.67933 15.0202 3.10711 14.618C2.26616 14.3986 1.57147 13.7405 1.35209 12.863C0.91333 11.2908 0.91333 8.03666 0.91333 8.03666C0.91333 8.03666 0.91333 4.74598 1.35209 3.21033C1.57147 2.33281 2.26616 1.63812 3.10711 1.41874C4.67933 0.97998 10.9316 0.97998 10.9316 0.97998C10.9316 0.97998 17.1473 0.97998 18.7195 1.41874C19.5605 1.63812 20.2552 2.33281 20.4746 3.21033ZM8.88408 10.9983L14.076 8.03666L8.88408 5.07505V10.9983Z" fill="white"/>
</svg>
