<?xml version="1.0" encoding="UTF-8"?>
<svg version="1.1" xmlns="http://www.w3.org/2000/svg" width="512" height="512">
<path d="M0 0 C3.38492229 0.01849145 6.76957296 0.02050732 10.15454102 0.02026367 C12.3283715 0.02517245 14.50220014 0.03099796 16.67602539 0.0378418 C17.67711838 0.03895462 18.67821136 0.04006744 19.7096405 0.04121399 C21.55367654 0.05369759 23.39775589 0.0882414 25.24081421 0.14956665 C27.90782201 0.24574928 27.90782201 0.24574928 31.53857422 -0.03369141 C34.66430664 1.20581055 34.66430664 1.20581055 36.03100586 3.4546814 C37.41578314 6.66241411 38.56064926 9.89096236 39.66430664 13.20581055 C40.05443939 14.3029538 40.44457214 15.40009705 40.8465271 16.53048706 C42.08563509 20.04519759 43.27594038 23.57362824 44.45727539 27.1081543 C44.89333029 28.40195899 45.32980644 29.69562178 45.76667786 30.989151 C46.90220911 34.3543781 48.03292331 37.72120162 49.16229248 41.08850098 C50.9784036 46.50066324 52.8019305 51.91033075 54.62560463 57.3199482 C55.2574891 59.19666366 55.88709102 61.07414716 56.51664734 62.9516449 C56.90077286 64.09375931 57.28489838 65.23587372 57.68066406 66.41259766 C58.01643967 67.4134288 58.35221527 68.41425995 58.69816589 69.44541931 C59.33937958 71.27745118 60.03629161 73.09097227 60.7882843 74.88038635 C61.66430664 77.20581055 61.66430664 77.20581055 61.66430664 80.20581055 C81.46430664 80.20581055 101.26430664 80.20581055 121.66430664 80.20581055 C121.70460967 113.84540977 121.70460967 113.84540977 121.71313477 128.08862305 C121.7190373 137.87085503 121.72592423 147.65307831 121.73974609 157.43530273 C121.74981359 164.56391485 121.75618829 171.69251983 121.75839514 178.82113886 C121.75968209 182.58451887 121.76263642 186.34787846 121.7700367 190.11125183 C121.79609884 203.94844999 121.79005874 217.77733019 121.23632812 231.60620117 C121.18118719 233.00895924 121.18118719 233.00895924 121.12493229 234.44005585 C120.46811398 248.67374692 118.26619268 262.04555886 112.66430664 275.20581055 C112.2840332 276.10686523 111.90375977 277.00791992 111.51196289 277.9362793 C108.50310473 284.47066823 104.39519801 289.81809749 99.66430664 295.20581055 C99.07004883 295.89545898 98.47579102 296.58510742 97.86352539 297.2956543 C81.34553904 315.15771663 54.56768407 323.36964065 30.82885742 324.36694336 C-5.51854741 324.75147735 -5.51854741 324.75147735 -18.33569336 321.20581055 C-19.17197266 320.97474609 -20.00825195 320.74368164 -20.86987305 320.50561523 C-42.18968525 314.39337192 -60.92338973 304.29341354 -73.33569336 285.20581055 C-83.28307589 267.06766745 -86.68793789 247.93698006 -86.56274414 227.38574219 C-86.56303619 226.09608047 -86.56332825 224.80641876 -86.56362915 223.47767639 C-86.56419489 219.99514638 -86.55256927 216.51275868 -86.53848124 213.03026128 C-86.52584163 209.37080338 -86.52479309 205.71134098 -86.52243042 202.05186462 C-86.51625403 195.14621963 -86.49989615 188.24063917 -86.47973144 181.33502239 C-86.45725168 173.46300757 -86.44634887 165.5909894 -86.43634057 157.71895039 C-86.41552577 141.54786621 -86.38042588 125.37684666 -86.33569336 109.20581055 C-89.03665007 110.61793604 -91.73551839 112.03382957 -94.43334961 113.4519043 C-95.19023071 113.8471228 -95.94711182 114.24234131 -96.72692871 114.64953613 C-107.06545123 120.0936542 -116.40448827 126.66965682 -125.33569336 134.20581055 C-126.55192383 135.21901367 -126.55192383 135.21901367 -127.79272461 136.25268555 C-134.71769977 142.22888458 -143.17812174 149.89066732 -147.33569336 158.20581055 C-147.99569336 158.20581055 -148.65569336 158.20581055 -149.33569336 158.20581055 C-152.01106619 150.41073023 -154.6858227 142.6154686 -157.33740234 134.81225586 C-157.8134063 133.41154846 -157.8134063 133.41154846 -158.29902649 131.98254395 C-158.95758725 130.0445163 -159.61602193 128.10644581 -160.27433777 126.16833496 C-162.30983733 120.18640354 -164.37394424 114.21526366 -166.46081543 108.25106812 C-167.79933089 104.41530274 -169.12093099 100.57383873 -170.43939209 96.73114014 C-171.07763462 94.88369434 -171.72333416 93.03880761 -172.37652588 91.19659424 C-173.28988315 88.61736963 -174.17684207 86.03043716 -175.05834961 83.44018555 C-175.33565414 82.6773526 -175.61295868 81.91451965 -175.89866638 81.12857056 C-177.03994827 77.69441672 -177.58536144 75.80654165 -176.1706543 72.40258789 C-173.43081374 69.12250735 -170.55871207 66.08980307 -167.52319336 63.08081055 C-166.85739258 62.41992432 -166.1915918 61.75903809 -165.50561523 61.078125 C-135.36030877 31.62798585 -95.35691154 13.3884952 -54.46069336 4.83081055 C-53.32196777 4.59217285 -52.18324219 4.35353516 -51.01000977 4.10766602 C-33.97869313 0.74132174 -17.33656146 -0.09810504 0 0 Z M24.41430664 82.95581055 C23.40346008 83.01767044 23.40346008 83.01767044 22.37219238 83.08078003 C6.82707228 84.05536645 -9.22664023 85.33621444 -24.33569336 89.20581055 C-24.38262155 105.99247783 -24.41778344 122.7791235 -24.4393177 139.56584072 C-24.44958663 147.36195011 -24.46356202 155.1580185 -24.48657227 162.95410156 C-24.50664156 169.75706436 -24.51944156 176.55999743 -24.52387035 183.36298901 C-24.52645506 186.95794138 -24.53243621 190.55280881 -24.54715347 194.14773369 C-25.61985563 229.9154451 -25.61985563 229.9154451 -10.14819336 260.95581055 C-1.34885395 269.40780761 10.51506518 269.57193493 21.94165039 269.4206543 C30.44720515 269.15145942 38.05989877 266.69999468 44.66430664 261.20581055 C46.97712383 258.71096608 48.85592056 256.08303377 50.66430664 253.20581055 C51.04458008 252.61155273 51.42485352 252.01729492 51.81665039 251.4050293 C59.12369078 238.52809398 58.81899192 221.76392858 58.77783203 207.40258789 C58.77754936 206.04152427 58.77770946 204.6804605 58.77827454 203.31939697 C58.77855938 199.65480313 58.77271354 195.99024257 58.76570058 192.32565641 C58.75941466 188.48465364 58.75885912 184.64364995 58.75767517 180.80264282 C58.75457722 173.54269526 58.74638469 166.28276291 58.73632568 159.02282202 C58.72511665 150.75189107 58.71964206 142.48095936 58.71463025 134.21002269 C58.70420067 117.20860987 58.68663119 100.20721182 58.66430664 83.20581055 C48.72642679 79.89318393 34.7012886 82.3149758 24.41430664 82.95581055 Z " fill="#000000" transform="translate(325.335693359375,131.794189453125)"/>
<path d="M0 0 C6.97896472 0.53861998 13.64214665 1.64810926 20.45629883 3.22705078 C21.45814996 3.45404317 22.46000109 3.68103556 23.49221134 3.9149065 C26.81515149 4.66931089 30.13605842 5.43229844 33.45703125 6.1953125 C35.83712935 6.73747241 38.21735096 7.27909036 40.59768677 7.82020569 C45.685725 8.97808439 50.77291689 10.13960385 55.85934448 11.30453491 C63.17375889 12.97971676 70.48969588 14.64816577 77.8060528 16.31484067 C89.43773653 18.96467487 101.0683149 21.61932411 112.69824219 24.27685547 C128.24740732 27.82982883 143.79908268 31.37171836 159.3515625 34.91015625 C164.05754048 35.98093648 168.76351156 37.05174708 173.46948242 38.12255859 C174.59638961 38.37896873 175.72329679 38.63537888 176.88435268 38.89955902 C188.62005316 41.57000654 200.35503116 44.24362265 212.08984375 46.91796875 C213.02303562 47.13063951 213.95622749 47.34331028 214.91769791 47.56242561 C219.9451548 48.70818343 224.9725892 49.85403993 230 51 C228.49658602 55.00606088 226.89372829 57.50714371 223.9375 60.625 C220.73339438 64.08420957 217.65157731 67.58276566 214.6875 71.25 C211.19567126 75.5645109 207.62419165 79.79705528 204 84 C200.42679336 88.14687117 196.8927352 92.31608393 193.4375 96.5625 C190.0091962 100.77567189 186.55328709 104.9635438 183.0625 109.125 C182.5893335 109.69420166 182.11616699 110.26340332 181.62866211 110.84985352 C178.23128077 114.88435962 178.23128077 114.88435962 176 116 C164.05270127 87.22156015 164.05270127 87.22156015 160.25 77.8125 C159.80140625 76.70519531 159.3528125 75.59789062 158.890625 74.45703125 C158 72 158 72 158 70 C91.47789093 63.70019822 19.41277978 66.96694254 -35 111 C-40.46612297 115.64128642 -45.59871643 120.59519548 -50.6640625 125.66796875 C-51.9642006 126.96593271 -53.27667609 128.25284753 -54.6328125 129.4921875 C-58.89161054 133.43882233 -62.31678483 137.90451106 -65.75 142.5625 C-66.22195801 143.19978027 -66.69391602 143.83706055 -67.18017578 144.49365234 C-67.63118652 145.11578613 -68.08219727 145.73791992 -68.546875 146.37890625 C-68.94745117 146.9313501 -69.34802734 147.48379395 -69.76074219 148.05297852 C-70.16969727 148.69549561 -70.57865234 149.3380127 -71 150 C-71.59369385 150.87881836 -72.1873877 151.75763672 -72.79907227 152.66308594 C-74.5073951 157.4098549 -73.25800361 160.36293415 -71.66796875 165.01171875 C-71.39737137 165.8617598 -71.12677399 166.71180084 -70.84797668 167.58760071 C-69.98184739 170.29477371 -69.08589188 172.99088117 -68.1875 175.6875 C-67.30611675 178.39651033 -66.43094405 181.10742123 -65.55915833 183.8195343 C-65.01522993 185.50456156 -64.46456849 187.18743324 -63.90653992 188.86784363 C-62 194.67457998 -62 194.67457998 -62 198 C-72.39407655 196.59984706 -82.66018156 194.82467384 -93 193 C-93.33 219.73 -93.66 246.46 -94 274 C-92.35 274.66 -90.7 275.32 -89 276 C-84.91493019 281.33328558 -83.44920508 285.28030198 -84 292 C-85.62150859 296.57887139 -87.56758773 300.63604679 -92 303 C-92.66 303 -93.32 303 -94 303 C-93.45859375 304.43666016 -93.45859375 304.43666016 -92.90625 305.90234375 C-87.73324468 320.40480616 -86.57829821 334.58393476 -93 349 C-95.10886615 352.84586727 -97.41286196 356.45970583 -100 360 C-100.6703125 360.928125 -101.340625 361.85625 -102.03125 362.8125 C-102.6809375 363.534375 -103.330625 364.25625 -104 365 C-104.99 365 -105.98 365 -107 365 C-108.30203187 362.50494359 -109.59160266 360.00462318 -110.875 357.5 C-111.42220703 356.45585938 -111.42220703 356.45585938 -111.98046875 355.390625 C-118.51373243 342.56167086 -119.50423374 328.78445811 -115.04296875 315.0546875 C-113.62293665 311.40621551 -112.17742431 308.26613646 -110 305 C-110 304.01 -110 303.02 -110 302 C-110.78375 301.319375 -111.5675 300.63875 -112.375 299.9375 C-115.95229386 295.93433783 -116.66901217 292.2875306 -117 287 C-116.17147162 281.38441874 -114.28517397 278.65807534 -110 275 C-109.01 274.34 -108.02 273.68 -107 273 C-106.7136407 270.30795852 -106.62164856 267.84680444 -106.65942383 265.15380859 C-106.65898575 264.34397018 -106.65854767 263.53413177 -106.65809631 262.69975281 C-106.66019086 260.01573806 -106.68355283 257.33234348 -106.70703125 254.6484375 C-106.71262485 252.79041892 -106.71689606 250.93239592 -106.71989441 249.07437134 C-106.73136181 244.17846511 -106.7608452 239.28282488 -106.79400635 234.38702393 C-106.82466648 229.39346923 -106.83839105 224.39987165 -106.85351562 219.40625 C-106.88571315 209.60404964 -106.93693229 199.80204692 -107 190 C-108.3003418 189.78851318 -108.3003418 189.78851318 -109.62695312 189.57275391 C-112.87772875 189.0423962 -116.12797807 188.50900767 -119.37792969 187.97363281 C-120.77812444 187.74359622 -122.17851201 187.51472985 -123.57910156 187.28710938 C-130.79038439 186.11437579 -137.94921442 184.94441767 -145 183 C-143.55831542 178.56091471 -141.11216919 175.49694053 -138.0625 172.0625 C-134.127781 167.52518392 -130.30918679 162.93067943 -126.625 158.1875 C-122.64484304 153.07322384 -118.59893883 148.01960128 -114.5 143 C-110.36550178 137.93466019 -106.27624639 132.8393331 -102.25 127.6875 C-98.37306673 122.72850347 -94.43576991 117.82702555 -90.4375 112.96484375 C-82.91595501 103.81604143 -75.45398396 94.6248003 -68.16455078 85.28979492 C-64.12190685 80.12516765 -59.98265422 75.04212559 -55.8359375 69.9609375 C-52.34469917 65.67548382 -48.90181112 61.35670547 -45.5 57 C-41.01736805 51.25908539 -36.43955976 45.60112223 -31.83374023 39.95874023 C-28.36106828 35.69689472 -24.94156983 31.39881694 -21.5625 27.0625 C-16.68991509 20.8096979 -11.66279836 14.69046104 -6.59399414 8.59594727 C-6.02543701 7.91072998 -5.45687988 7.2255127 -4.87109375 6.51953125 C-4.36505615 5.91214111 -3.85901855 5.30475098 -3.33764648 4.67895508 C-2.14386251 3.1805699 -1.06269299 1.59403949 0 0 Z " fill="#214099" transform="translate(211,56)"/>
<path d="M0 0 C3.38492229 0.01849145 6.76957296 0.02050732 10.15454102 0.02026367 C12.3283715 0.02517245 14.50220014 0.03099796 16.67602539 0.0378418 C17.67711838 0.03895462 18.67821136 0.04006744 19.7096405 0.04121399 C21.55367654 0.05369759 23.39775589 0.0882414 25.24081421 0.14956665 C27.90782201 0.24574928 27.90782201 0.24574928 31.53857422 -0.03369141 C34.66430664 1.20581055 34.66430664 1.20581055 36.03100586 3.4546814 C37.41578314 6.66241411 38.56064926 9.89096236 39.66430664 13.20581055 C40.05443939 14.3029538 40.44457214 15.40009705 40.8465271 16.53048706 C42.08563509 20.04519759 43.27594038 23.57362824 44.45727539 27.1081543 C44.89333029 28.40195899 45.32980644 29.69562178 45.76667786 30.989151 C46.90220911 34.3543781 48.03292331 37.72120162 49.16229248 41.08850098 C50.9784036 46.50066324 52.8019305 51.91033075 54.62560463 57.3199482 C55.2574891 59.19666366 55.88709102 61.07414716 56.51664734 62.9516449 C56.90077286 64.09375931 57.28489838 65.23587372 57.68066406 66.41259766 C58.01643967 67.4134288 58.35221527 68.41425995 58.69816589 69.44541931 C59.34027647 71.28001373 60.03466678 73.09716289 60.7804718 74.8921051 C61.76733209 77.47551088 61.8209961 79.46374509 61.66430664 82.20581055 C57.10929008 83.10233259 52.84878746 83.2897368 48.21118164 83.2253418 C-12.49665182 82.76217362 -77.74719096 94.05061689 -125.33569336 134.20581055 C-126.55192383 135.21901367 -126.55192383 135.21901367 -127.79272461 136.25268555 C-134.71769977 142.22888458 -143.17812174 149.89066732 -147.33569336 158.20581055 C-147.99569336 158.20581055 -148.65569336 158.20581055 -149.33569336 158.20581055 C-152.01106619 150.41073023 -154.6858227 142.6154686 -157.33740234 134.81225586 C-157.8134063 133.41154846 -157.8134063 133.41154846 -158.29902649 131.98254395 C-158.95758725 130.0445163 -159.61602193 128.10644581 -160.27433777 126.16833496 C-162.30983733 120.18640354 -164.37394424 114.21526366 -166.46081543 108.25106812 C-167.79933089 104.41530274 -169.12093099 100.57383873 -170.43939209 96.73114014 C-171.07763462 94.88369434 -171.72333416 93.03880761 -172.37652588 91.19659424 C-173.28988315 88.61736963 -174.17684207 86.03043716 -175.05834961 83.44018555 C-175.33565414 82.6773526 -175.61295868 81.91451965 -175.89866638 81.12857056 C-177.03994827 77.69441672 -177.58536144 75.80654165 -176.1706543 72.40258789 C-173.43081374 69.12250735 -170.55871207 66.08980307 -167.52319336 63.08081055 C-166.85739258 62.41992432 -166.1915918 61.75903809 -165.50561523 61.078125 C-135.36030877 31.62798585 -95.35691154 13.3884952 -54.46069336 4.83081055 C-53.32196777 4.59217285 -52.18324219 4.35353516 -51.01000977 4.10766602 C-33.97869313 0.74132174 -17.33656146 -0.09810504 0 0 Z " fill="#213F99" transform="translate(325.335693359375,131.794189453125)"/>
</svg>
