<?xml version="1.0" encoding="UTF-8"?>
<svg width="455px" height="128px" viewBox="0 0 455 128" version="1.1" xmlns="http://www.w3.org/2000/svg" xmlns:xlink="http://www.w3.org/1999/xlink">
    <title>unilist-logo</title>
    <g id="Final-logo" stroke="none" stroke-width="1" fill="none" fill-rule="evenodd">
        <g id="Unilist-Final-Logo" transform="translate(-268, -246)">
            <g id="Group-Copy" transform="translate(268.2712, 246)">
                <g id="Unilist.in-Copy" fill-rule="nonzero">
                    <path d="M103.928757,49.743183 L103.928757,89.443183 C103.928757,99.243183 103.228757,109.943183 90.6287567,109.943183 C78.0287567,109.943183 77.3287567,99.243183 77.3287567,89.443183 L77.3287567,49.743183 L57.7287567,49.743183 L57.7287567,92.143183 C57.7287567,101.843183 58.1287567,111.443183 65.6287567,118.743183 C71.9287567,124.943183 81.8287567,127.143183 90.6287567,127.143183 C99.4287567,127.143183 109.328757,124.943183 115.628757,118.743183 C123.128757,111.443183 123.528757,101.843183 123.528757,92.143183 L123.528757,49.743183 L103.928757,49.743183 Z" id="Path" fill="#000000"></path>
                    <path d="M149.928757,72.7 L131.728757,72.7 L131.728757,124 L149.928757,124 L149.928757,97.4 C149.928757,91 152.028757,85.5 159.428757,85.5 C168.428757,85.5 167.628757,94.1 167.628757,99 L167.628757,124 L185.828757,124 L185.828757,92.3 C185.828757,79.7 180.328757,71 166.528757,71 C159.428757,71 154.328757,73.1 150.128757,79.3 L149.928757,79.3 L149.928757,72.7 Z" id="Path" fill="#000000"></path>
                    <path d="M212.128757,76.943183 L193.928757,73.943183 L193.928757,125.243183 L212.128757,125.243183 L212.128757,76.943183 Z M202.928757,53.943183 C197.98758,53.943183 193.928757,58.0020066 193.928757,62.943183 C193.928757,67.8843595 197.98758,71.943183 202.928757,71.943183 C207.869933,71.943183 211.928757,67.8843595 211.928757,62.943183 C211.928757,58.0020066 207.869933,53.943183 202.928757,53.943183 Z" id="Shape" fill="#000000"></path>
                    <path d="M220.728757,57.008183 L229.63133,59 L238.429757,57.027183 L238.430127,125.143183 L220.728757,125.143183 L220.728757,57.008183 Z" id="Combined-Shape" fill="#224099"></path>
                    <path d="M264.928757,73.943183 L246.728757,76.943183 L246.728757,125.243183 L264.928757,125.243183 L264.928757,73.943183 Z M255.728757,53.943183 C250.78758,53.943183 246.728757,58.0020066 246.728757,62.943183 C246.728757,67.8843595 250.78758,71.943183 255.728757,71.943183 C260.669933,71.943183 264.728757,67.8843595 264.728757,62.943183 C264.728757,58.0020066 260.669933,53.943183 255.728757,53.943183 Z" id="Shape" fill="#224099"></path>
                    <path d="M313.228757,75.443183 C307.928757,73.043183 302.128757,72.143183 296.328757,72.143183 C285.128757,72.143183 273.728757,77.743183 273.728757,90.343183 C273.728757,99.543183 279.428757,102.343183 285.128757,103.843183 C290.828757,105.343183 296.528757,105.543183 296.528757,109.543183 C296.528757,112.343183 293.128757,113.443183 290.828757,113.443183 C286.328757,113.443183 280.128757,110.843183 276.428757,108.243183 L269.828757,120.943183 C276.028757,124.743183 283.228757,126.843183 290.528757,126.843183 C302.428757,126.843183 314.728757,121.243183 314.728757,107.743183 C314.728757,98.243183 308.328757,94.243183 299.828757,92.543183 C297.328757,92.043183 291.628757,91.543183 291.628757,88.043183 C291.628757,85.443183 295.228757,84.543183 297.328757,84.543183 C300.428757,84.543183 304.328757,85.543183 307.128757,87.043183 L313.228757,75.443183 Z" id="Path" fill="#224099"></path>
                    <polygon id="Path" fill="#224099" points="340.628757 88.843183 350.928757 88.843183 350.928757 73.843183 340.628757 73.843183 340.628757 57.443183 322.428757 57.443183 322.428757 73.843183 316.528757 73.843183 316.528757 88.843183 322.428757 88.843183 322.428757 125.143183 340.628757 125.143183"></polygon>
                    <path d="M363.428757,108.743183 C358.984312,108.743183 355.428757,112.298739 355.428757,116.743183 C355.428757,121.119251 358.984312,124.743183 363.428757,124.743183 C367.873201,124.743183 371.428757,121.119251 371.428757,116.743183 C371.428757,112.298739 367.873201,108.743183 363.428757,108.743183 Z" id="Path" fill="#224099"></path>
                    <path d="M394.928757,73.943183 L376.728757,76.943183 L376.728757,125.243183 L394.928757,125.243183 L394.928757,73.943183 Z M385.728757,53.943183 C380.78758,53.943183 376.728757,58.0020066 376.728757,62.943183 C376.728757,67.8843595 380.78758,71.943183 385.728757,71.943183 C390.669933,71.943183 394.728757,67.8843595 394.728757,62.943183 C394.728757,58.0020066 390.669933,53.943183 385.728757,53.943183 Z" id="Shape" fill="#224099"></path>
                    <g id="Group_3" transform="translate(2.7288, 0)" fill="#224099">
                        <path d="M102.210749,50.3008211 C102.210749,50.3008211 54.2802936,47.1475491 35.1514058,74.2678527 L26.3265738,47.7861408 C26.3265738,47.7861408 47.1403334,20.0380692 93.382309,24.6597412 L102.210749,50.3008211 Z" id="Path_155"></path>
                        <path d="M102.203533,36.6991789 L96.3840508,22.1306295 C96.3840508,22.1306295 45.39052,12.0971635 22.1342374,49.1895994 L26.3121423,62.755163 L0,57.9963921 L46.5233889,0 L119.091938,16.5348345 L102.203533,36.7100025 L102.203533,36.6991789 Z" id="Path_156"></path>
                        <path d="M16.0585967,60.9043294 L16.0585967,88.4828316 C16.0585967,88.4828316 19.7458323,91.3691217 16.0585967,96.1639711 L16.0585967,97.5566061 C16.0585967,97.5566061 21.6760388,105.995397 12.5481463,116 C12.5481463,116 5.06904703,106.172182 11.505474,97.0406818 L11.505474,95.2151033 C11.505474,95.2151033 6.89823339,91.5639463 12.4651655,87.5628266 L12.2847723,60.233267 L16.0730281,60.915153 L16.0585967,60.9043294 Z" id="Path_157"></path>
                        <path d="M14.1789002,96.7159741 C16.9485691,96.7159741 19.1938293,94.4707139 19.1938293,91.701045 C19.1938293,88.9313762 16.9485691,86.6861159 14.1789002,86.6861159 C11.4092314,86.6861159 9.16397114,88.9313762 9.16397114,91.701045 C9.16397114,94.4707139 11.4092314,96.7159741 14.1789002,96.7159741 Z" id="Path_158"></path>
                    </g>
                    <path d="M417.928757,73.7 L399.728757,73.7 L399.728757,125 L417.928757,125 L417.928757,98.4 C417.928757,92 420.028757,86.5 427.428757,86.5 C436.428757,86.5 435.628757,95.1 435.628757,100 L435.628757,125 L453.828757,125 L453.828757,93.3 C453.828757,80.7 448.328757,72 434.528757,72 C427.428757,72 422.328757,74.1 418.128757,80.3 L417.928757,80.3 L417.928757,73.7 Z" id="Path" fill="#224099"></path>
                </g>
                <g id="Group-19" transform="translate(194.5516, 49.3757)"></g>
            </g>
        </g>
    </g>
</svg>