<svg xmlns="http://www.w3.org/2000/svg" xmlns:xlink="http://www.w3.org/1999/xlink" width="675.999" height="343.809" viewBox="0 0 675.999 343.809">
  <defs>
    <clipPath id="clip-path">
      <rect id="Rectangle_717" data-name="Rectangle 717" width="479.917" height="300.149" fill="none"/>
    </clipPath>
    <clipPath id="clip-path-2">
      <path id="Path_3530" data-name="Path 3530" d="M1032.979,1209.584l54.171,69.688,56.409-79.857-51.525-50.1Z" transform="translate(-1032.979 -1149.316)" fill="none"/>
    </clipPath>
    <clipPath id="clip-path-5">
      <rect id="Rectangle_722" data-name="Rectangle 722" width="232.742" height="43.661" fill="none" stroke="#707070" stroke-width="3"/>
    </clipPath>
    <clipPath id="clip-path-6">
      <rect id="Rectangle_790" data-name="Rectangle 790" width="59.668" height="62.003" fill="#224099" stroke="#224099" stroke-width="0.8"/>
    </clipPath>
    <clipPath id="clip-path-7">
      <rect id="Rectangle_791" data-name="Rectangle 791" width="48.891" height="49.644" fill="#224099" stroke="#224099" stroke-width="0.3"/>
    </clipPath>
  </defs>
  <g id="Group_2941" data-name="Group 2941" transform="translate(-386.501 -185.435)">
    <g id="Group_735" data-name="Group 735" transform="translate(497.443 229.096)">
      <g id="Group_726" data-name="Group 726" transform="translate(0 0)">
        <g id="Group_725" data-name="Group 725" clip-path="url(#clip-path)">
          <path id="Path_3518" data-name="Path 3518" d="M186.61,490.821c-3.566,0-41.683-20.789-56.089-48.159-8.188-15.557-7.528-30.452,1.963-44.273,19.7-28.691,72.41-24.533,118.909-20.863,29.431,2.323,57.23,4.516,70.985-2.471,19.285-9.8,15.318-24.354,10.726-41.212-3.637-13.348-7.4-27.15.187-40.044,8.361-14.214,19.613-18.409,27.579-19.424,12.462-1.589,24.8,3.391,30.537,9.133a.826.826,0,0,1-1.168,1.169c-5.323-5.323-17.355-10.169-29.159-8.662-10.9,1.39-20.015,7.829-26.364,18.623-7.232,12.293-3.564,25.754-.018,38.771,4.584,16.824,8.913,32.714-11.572,43.119-14.169,7.2-42.194,4.986-71.863,2.645-46.053-3.633-98.253-7.753-117.417,20.152-8.929,13-9.713,27.018-2.33,41.66s21.314,26.8,31.705,34.439c12.122,8.906,22.127,13.7,23.391,13.744a.838.838,0,0,1,.81.84.815.815,0,0,1-.813.812" transform="translate(-107.141 -235.226)"/>
          <path id="Path_3519" data-name="Path 3519" d="M2166.932,326.747l-6.783-2.77a2.931,2.931,0,0,1,2.216-5.426l6.783,2.77a2.931,2.931,0,0,1,1.6,3.821h0a2.931,2.931,0,0,1-3.821,1.605" transform="translate(-1852.378 -273.208)" fill="#0b0705"/>
          <path id="Path_3520" data-name="Path 3520" d="M2121.014,439.193l-6.783-2.77a2.931,2.931,0,1,1,2.216-5.426l6.783,2.77a2.931,2.931,0,1,1-2.216,5.426" transform="translate(-1812.969 -369.715)" fill="#0b0705"/>
          <path id="Path_3521" data-name="Path 3521" d="M1905.5,268.475l10.572,4.317a4.731,4.731,0,0,0,6.168-2.591l2.655-6.5a4.731,4.731,0,0,0-2.591-6.168l-10.572-4.317a4.731,4.731,0,0,0-6.168,2.591l-2.655,6.5a4.731,4.731,0,0,0,2.591,6.168" transform="translate(-1632.866 -217.017)" fill="#224099"/>
          <path id="Path_3522" data-name="Path 3522" d="M1913.294,269.488a5.881,5.881,0,0,1-2.227-.44l-9.956-4.065a5.9,5.9,0,0,1-3.226-7.679l2.4-5.887a5.9,5.9,0,0,1,7.679-3.226l9.956,4.066a5.89,5.89,0,0,1,3.226,7.679l-2.4,5.887a5.9,5.9,0,0,1-5.452,3.666m-11.558-6.036,9.956,4.065a4.237,4.237,0,0,0,5.524-2.32l2.4-5.887a4.236,4.236,0,0,0-2.32-5.524l-9.956-4.066a4.242,4.242,0,0,0-5.524,2.321l-2.4,5.886a4.242,4.242,0,0,0,2.321,5.524" transform="translate(-1628.48 -212.634)"/>
          <path id="Path_3523" data-name="Path 3523" d="M1935.656,248.177l25.11,10.254,12.464-30.522-25.11-10.254a1.954,1.954,0,0,0-2.548,1.07l-10.987,26.9a1.954,1.954,0,0,0,1.07,2.548" transform="translate(-1660.228 -186.676)" fill="#fff"/>
          <path id="Path_3524" data-name="Path 3524" d="M1966.115,264.635a.826.826,0,0,1-.313-.061l-19.888-8.122a8.42,8.42,0,0,1-4.612-10.979l6.722-16.46A8.43,8.43,0,0,1,1959,224.4l19.888,8.121a.826.826,0,0,1,.453,1.077l-12.464,30.523a.827.827,0,0,1-.765.514m-10.286-39.208a6.779,6.779,0,0,0-6.275,4.21l-6.722,16.46a6.768,6.768,0,0,0,3.708,8.825l19.123,7.809,11.839-28.993-19.123-7.809a6.729,6.729,0,0,0-2.549-.5" transform="translate(-1665.577 -192.054)"/>
          <path id="Path_3525" data-name="Path 3525" d="M2006.873,264.432h0a1.649,1.649,0,0,0,2.15-.9l13.849-33.914a1.649,1.649,0,0,0-3.053-1.246l-13.849,33.914a1.649,1.649,0,0,0,.9,2.149" transform="translate(-1721.514 -195.116)" fill="#0b0705"/>
          <path id="Path_3526" data-name="Path 3526" d="M822.538,321.3c-1.535,0-3.127-.919-4.737-2.736-5.525-6.236-10.051-21.2-11.74-27.341-3.128-11.379-4.787-21.959-4.033-25.728a.826.826,0,0,1,1.077-.62c.458.156,11.243,3.865,13.859,7.526,2.2,3.074,13.287,37.479,9.1,46.435a3.816,3.816,0,0,1-3.236,2.452c-.1.007-.2.011-.294.011m-19.013-54.523c-.655,8.833,7.246,41.363,15.512,50.692,1.352,1.525,2.589,2.253,3.667,2.173a2.159,2.159,0,0,0,1.866-1.5c3.863-8.272-6.841-41.821-8.952-44.775-1.738-2.434-8.608-5.313-12.093-6.585" transform="translate(-688.184 -227.286)" fill="#0b0705"/>
          <path id="Path_3527" data-name="Path 3527" d="M822.538,321.3c-1.535,0-3.127-.919-4.737-2.736-5.525-6.236-10.051-21.2-11.74-27.341-3.128-11.379-4.787-21.959-4.033-25.728a.826.826,0,0,1,1.077-.62c.458.156,11.243,3.865,13.859,7.526,2.2,3.074,13.287,37.479,9.1,46.435a3.816,3.816,0,0,1-3.236,2.452c-.1.007-.2.011-.294.011m-19.013-54.523c-.655,8.833,7.246,41.363,15.512,50.692,1.352,1.525,2.589,2.253,3.667,2.173a2.159,2.159,0,0,0,1.866-1.5c3.863-8.272-6.841-41.821-8.952-44.775-1.738-2.434-8.608-5.313-12.093-6.585" transform="translate(-688.184 -227.286)" fill="#0b0705"/>
          <path id="Path_3528" data-name="Path 3528" d="M1041.7,1149.316l-8.722,8.9,8,10.292,8.331-11.794Z" transform="translate(-886.551 -986.397)" fill="#fff"/>
        </g>
      </g>
      <g id="Group_728" data-name="Group 728" transform="translate(116.658 98.69)">
        <g id="Group_727" data-name="Group 727" clip-path="url(#clip-path-2)">
          <path id="Path_3529" data-name="Path 3529" d="M1042.248,1133.96l73.053,129.863,49.711-72.324-53.181-121.153Z" transform="translate(-1033.351 -1146.144)" fill="#0b0705"/>
        </g>
      </g>
      <g id="Group_730" data-name="Group 730" transform="translate(0 0)">
        <g id="Group_729" data-name="Group 729" clip-path="url(#clip-path)">
          <path id="Path_3531" data-name="Path 3531" d="M1035.976,1164.331a.825.825,0,0,1-.652-.319l-8-10.292a.827.827,0,0,1,.062-1.086l8.722-8.9a.826.826,0,0,1,1.166-.014l7.61,7.4a.826.826,0,0,1,.1,1.069l-8.331,11.794a.826.826,0,0,1-.656.35Zm-6.905-11.055,6.873,8.841,7.28-10.306-6.513-6.333Z" transform="translate(-881.548 -981.393)" fill="#272332"/>
          <path id="Path_3532" data-name="Path 3532" d="M984.4,1197.791l6.939,11.035-1.949,11.456s6.51,2.475,6.449,4.775l-13.8-.368-8.526-25.544Z" transform="translate(-835.518 -1028.001)" fill="#fff"/>
          <path id="Path_3533" data-name="Path 3533" d="M990.838,1220.877h-.023l-13.8-.367a.826.826,0,0,1-.762-.564l-8.526-25.544a.826.826,0,0,1,.682-1.081l10.886-1.354a.824.824,0,0,1,.8.38l6.939,11.035a.827.827,0,0,1,.115.579l-1.837,10.795c2.094.858,6.412,2.922,6.348,5.319a.827.827,0,0,1-.826.8m-13.2-2,11.923.317a16.959,16.959,0,0,0-5.466-3.141.827.827,0,0,1-.521-.911l1.9-11.144-6.492-10.322-9.363,1.165Z" transform="translate(-830.514 -1022.995)" fill="#272332"/>
          <path id="Path_3534" data-name="Path 3534" d="M386.114,58.8s-16.158-4.032-22.065,9.188-20.823,5.529-34.6,18.565c-20.112,19.034-.984,45.193,19.831,42.662s37.833-21.565,33.895-41.537c-2.326-11.8-.595-24.846,2.938-28.878" transform="translate(-275.438 -49.968)" fill="#0b0705"/>
          <path id="Path_3535" data-name="Path 3535" d="M752.108,733.191l66.384-.984L792.754,767.3l18.565,24.964s23.347-37.411,32.348-57.382c4.22-9.362,2.328-16.914-.281-20.393-6.329-8.439-28.269-5.2-40.364-5.485s-35.442-1.125-35.442-1.125Z" transform="translate(-645.495 -607.531)" fill="#224099"/>
        </g>
      </g>
      <g id="Group_734" data-name="Group 734" transform="translate(0 0)">
        <g id="Group_733" data-name="Group 733" clip-path="url(#clip-path)">
          <path id="Path_3538" data-name="Path 3538" d="M806.316,788.087a.827.827,0,0,1-.663-.333L787.088,762.79a.826.826,0,0,1,0-.982l24.755-33.751-64.723.96h-.012a.826.826,0,0,1-.705-1.257l15.471-25.316a.836.836,0,0,1,.735-.395c.233.008,23.48.847,35.431,1.125,2.66.061,5.825-.049,9.177-.166,11.872-.415,26.646-.93,31.829,5.981,2.865,3.819,4.681,11.671.374,21.228-8.921,19.793-32.167,57.106-32.4,57.48a.827.827,0,0,1-.667.388h-.034m-17.538-25.793,17.476,23.5c3.813-6.164,23.613-38.407,31.657-56.254,4.012-8.9,2.406-16.1-.189-19.558-4.666-6.221-18.962-5.722-30.449-5.321-3.377.118-6.567.229-9.273.166-11-.256-31.562-.986-34.97-1.108l-14.437,23.624,64.884-.963a.809.809,0,0,1,.747.447.826.826,0,0,1-.068.868Z" transform="translate(-640.492 -602.532)" fill="#0b0705"/>
          <path id="Path_3539" data-name="Path 3539" d="M568.859,262.153s16.127-10.689,33.379-1.5c0,0,10.983,43.329,3.157,56.014,0,0-38.593,7.557-37.784,7.557s-3.778-8.1-4.588-27.528a85.612,85.612,0,0,1,5.836-34.542" transform="translate(-483.155 -220.504)" fill="#fff"/>
          <path id="Path_3540" data-name="Path 3540" d="M567.922,459.832l.375,23.628-9,9.376Z" transform="translate(-480.015 -394.649)" fill="#0b0705"/>
          <path id="Path_3541" data-name="Path 3541" d="M562.616,323.234a.84.84,0,0,1-.835-.749.9.9,0,0,1,.049-.5c-.082-.318-.243-.834-.4-1.338-1.09-3.494-3.642-11.675-4.228-25.736a87.312,87.312,0,0,1,5.9-34.909.825.825,0,0,1,.333-.377c.175-.1,17.65-10.275,35.918-.75a.826.826,0,1,1-.764,1.465c-16.347-8.523-32.011-.557-34.08.575a86.106,86.106,0,0,0-5.662,33.926c.577,13.845,3.084,21.882,4.154,25.313.156.5.279.893.367,1.214.2-.044.426-.091.678-.144,1.034-.217,2.512-.519,4.286-.877,3.544-.715,8.27-1.655,13-2.59,8.36-1.654,16.722-3.293,18.541-3.65,3.454-6.084,3.322-20.517-.385-40.747a.826.826,0,1,1,1.626-.3c2.719,14.842,4.924,34.214-.015,42.218a.826.826,0,0,1-.544.377c-14.211,2.783-35.5,6.986-37.55,7.485a.917.917,0,0,1-.393.087m37.784-8.383h0Z" transform="translate(-478.159 -218.689)" fill="#0b0705"/>
          <path id="Path_3542" data-name="Path 3542" d="M1236.122,795.018l11.372-5.778-6.705-9.008-11.371,5.778Z" transform="translate(-1055.144 -669.632)" fill="#fff"/>
          <path id="Path_3543" data-name="Path 3543" d="M1231.118,790.84a.825.825,0,0,1-.663-.333l-6.705-9.008a.826.826,0,0,1,.288-1.23l11.372-5.778a.825.825,0,0,1,1.037.243l6.705,9.008a.826.826,0,0,1-.288,1.23l-11.372,5.778a.825.825,0,0,1-.374.089m-5.458-9.542,5.7,7.664,9.876-5.019-5.7-7.663Z" transform="translate(-1050.139 -664.627)" fill="#0b0705"/>
          <path id="Path_3544" data-name="Path 3544" d="M1268.761,841.042l8.317,14.418h0a59.872,59.872,0,0,1,21.293-13.053l9.19-3.249s-5.7-5.514-17.7-.306l-9.427-3.461Z" transform="translate(-1088.911 -716.972)" fill="#fff"/>
          <path id="Path_3545" data-name="Path 3545" d="M1272.076,851.283a.792.792,0,0,1-.118-.009.826.826,0,0,1-.6-.4l-8.317-14.418a.827.827,0,0,1,.355-1.157l11.672-5.651a.826.826,0,0,1,.645-.032l9.119,3.348c12.161-5.145,18.052.362,18.3.6a.826.826,0,0,1-.3,1.373l-9.19,3.249a58.665,58.665,0,0,0-21,12.873.827.827,0,0,1-.569.227m-7.157-14.888,7.353,12.747a60.285,60.285,0,0,1,20.822-12.518l7.686-2.717c-2.154-1.215-7.227-2.932-15.593.7a.824.824,0,0,1-.614.018l-9.1-3.341Z" transform="translate(-1083.909 -711.969)" fill="#0b0705"/>
          <path id="Path_3546" data-name="Path 3546" d="M705.438,158.97l-.325,1.139a11.563,11.563,0,0,0-.167,5.686l.4,1.785s-2.652,7.4-10.151,1.012l2.453-16.731Z" transform="translate(-596.648 -130.334)" fill="#fff"/>
          <path id="Path_3547" data-name="Path 3547" d="M695.71,167.018c-1.839,0-3.868-.937-6.052-2.8a.826.826,0,0,1-.281-.749l2.453-16.731a.826.826,0,0,1,1.375-.49l7.791,7.109a.825.825,0,0,1,.237.837l-.325,1.139a10.772,10.772,0,0,0-.154,5.28l.4,1.785a.826.826,0,0,1-.028.458c-.047.131-1.182,3.215-4.083,3.989a5.145,5.145,0,0,1-1.329.172m-4.632-3.766c2.135,1.731,3.993,2.4,5.525,2a4.885,4.885,0,0,0,2.877-2.749l-.341-1.529a12.427,12.427,0,0,1,.178-6.093l.184-.647-6.264-5.715Z" transform="translate(-591.647 -125.333)" fill="#0b0705"/>
          <path id="Path_3548" data-name="Path 3548" d="M724.914,74.517c2.018,12.282-2.869,16.263-4.81,16.273-3.037.016-6.357-3.742-9.084-8.494-9.1-15.853,11.876-20.062,13.894-7.779" transform="translate(-608.278 -57.831)" fill="#fff"/>
          <path id="Path_3549" data-name="Path 3549" d="M741.837,129.808c-2.381,0-4.935-1.85-7.59-5.5a.826.826,0,0,1,1.336-.972c2.262,3.109,4.482,4.819,6.255,4.819h.014a3.26,3.26,0,0,0,2.064-1.355c1.322-1.565,3.331-5.459,1.935-13.958a.826.826,0,1,1,1.63-.268c1.5,9.154-.8,13.51-2.3,15.292a4.805,4.805,0,0,1-3.318,1.941Z" transform="translate(-630.03 -96.022)" fill="#0b0705"/>
          <path id="Path_3550" data-name="Path 3550" d="M889.08,490.446H829.271l13.78-36.567H902.86Z" transform="translate(-711.72 -389.54)" fill="#97adec"/>
          <path id="Path_3551" data-name="Path 3551" d="M884.078,486.27H824.27a.827.827,0,0,1-.773-1.118l13.78-36.567a.826.826,0,0,1,.773-.535h59.808a.826.826,0,0,1,.773,1.118l-13.78,36.567a.826.826,0,0,1-.773.535m-58.614-1.653h58.042L896.663,449.7H838.621Z" transform="translate(-706.718 -384.537)" fill="#0b0705"/>
          <path id="Path_3552" data-name="Path 3552" d="M680.183,77.591h0L681.2,67.543a8.907,8.907,0,0,1,9.756-7.968l4.293.433-.581,5.755a13.222,13.222,0,0,1-14.483,11.828" transform="translate(-583.765 -51.09)" fill="#0b0705"/>
          <path id="Path_3553" data-name="Path 3553" d="M495.315,287.7s-9.437,1.241-12.812,13.993c-1.395,5.27-7.36,23.534-7.923,39.474-.306,8.653,7.777,9.8,10.689,9s7.969-32.883,9.423-37.974c2.625-9.189,3.006-20.788.623-24.494" transform="translate(-407.3 -246.915)" fill="#fff"/>
          <path id="Path_3554" data-name="Path 3554" d="M478.46,344.911a10.551,10.551,0,0,1-6.449-2.122c-1.57-1.244-3.411-3.631-3.259-7.938.549-15.555,6.006-33.326,7.8-39.166l.16-.521c3.8-12.405,12.782-14.676,13.162-14.767a.826.826,0,0,1,.385,1.607c-.345.084-8.459,2.186-11.968,13.643l-.16.522c-1.777,5.788-7.186,23.4-7.727,38.739-.1,2.9.783,5.119,2.633,6.584A8.874,8.874,0,0,0,480,343.1c1.783-1.332,5.182-18.933,6.819-27.409.915-4.74,1.638-8.483,2.073-10.007a.826.826,0,0,1,1.589.454c-.416,1.454-1.168,5.353-2.04,9.866-3.737,19.348-5.772,28.081-7.96,28.677a7.949,7.949,0,0,1-2.024.233" transform="translate(-402.297 -240.632)" fill="#0b0705"/>
          <path id="Path_3555" data-name="Path 3555" d="M786.957,65.108c2.277,2.589,1.98,6.573,1.98,6.573s-3.989-.214-6.266-2.8-1.98-6.573-1.98-6.573,3.989.214,6.266,2.8" transform="translate(-670.015 -53.473)" fill="#0b0705"/>
          <path id="Path_3556" data-name="Path 3556" d="M580.481,474.771s-1.969,16.033,7.876,20.534,18.612,1.969,22.456-1.219c4.684-3.884,27.05-36.473,27.05-36.473l27.988,34.5,25.691-10.5s-12.7-14.9-27.941-29.254c-7.774-7.324-14.252-14.252-21.19-17.815-1.945-1-7.688-1.875-13.127,1.5-16.055,9.965-42.131,35.832-48.8,38.724" transform="translate(-498.058 -372.177)" fill="#224099"/>
          <path id="Path_3557" data-name="Path 3557" d="M485.775,569.66s3.858,7.52,12.365,3.217c4.725-2.39,29.039-23.706,29.039-23.706s-4.974-3.052-8.3-1.8c-9.091,3.439-33.107,22.285-33.107,22.285" transform="translate(-416.915 -469.523)" fill="#fff"/>
          <path id="Path_3558" data-name="Path 3558" d="M488.148,570.051c-5.467,0-8.08-4.934-8.113-5a.826.826,0,0,1,.225-1.027c.985-.772,24.221-18.963,33.325-22.407,3.659-1.385,8.8,1.731,9.02,1.864a.826.826,0,0,1,.112,1.325c-1,.873-24.447,21.412-29.21,23.822a11.86,11.86,0,0,1-5.36,1.421m-6.289-5.176c1.064,1.565,4.532,5.5,10.9,2.28,4.072-2.06,23.544-18.948,27.972-22.808-1.533-.762-4.491-1.969-6.563-1.184-8.094,3.062-28.6,18.832-32.311,21.711m-1.089-.2h0Z" transform="translate(-411.911 -464.538)" fill="#0b0705"/>
          <path id="Path_3559" data-name="Path 3559" d="M594.078,493.611a26.784,26.784,0,0,1-11.141-2.5c-10.277-4.7-8.436-20.707-8.353-21.386a.826.826,0,0,1,.492-.658c2.965-1.285,10.185-7.521,18.546-14.741,10.055-8.685,21.453-18.528,30.15-23.926,5.79-3.594,11.892-2.585,13.94-1.533,5.78,2.968,11.1,8.082,17.249,14,1.341,1.29,2.714,2.611,4.131,3.946,15.1,14.224,27.875,29.17,28,29.319a.826.826,0,0,1-.316,1.3l-25.691,10.5a.826.826,0,0,1-.954-.244l-27.292-33.646c-3.732,5.414-22.248,32.14-26.577,35.731-2.683,2.225-7.052,3.837-12.186,3.837m-17.9-23.242c-.214,2.566-.848,15.447,7.442,19.236,10.328,4.721,18.635,1.343,21.585-1.1,4.543-3.767,26.674-35.98,26.9-36.3a.826.826,0,0,1,1.323-.053l27.6,34.028,24.059-9.834c-2.942-3.385-14.18-16.12-27.131-28.322-1.421-1.339-2.8-2.664-4.143-3.958-6.06-5.831-11.293-10.866-16.858-13.723-1.706-.876-7.174-1.723-12.313,1.467-8.586,5.329-19.932,15.128-29.941,23.772-8.42,7.272-15.149,13.084-18.52,14.8" transform="translate(-492.982 -367.229)" fill="#0b0705"/>
          <path id="Path_3560" data-name="Path 3560" d="M475.52,2107.4H.826a.826.826,0,1,1,0-1.653H475.52a.826.826,0,0,1,0,1.653" transform="translate(0 -1807.255)" fill="#0b0705"/>
          <path id="Path_3561" data-name="Path 3561" d="M1110.648,20.216a.826.826,0,0,1-.773-1.119L1116.918.531a.826.826,0,0,1,1.372-.275l13.443,14.175a.826.826,0,0,1-.426,1.377l-20.485,4.39a.828.828,0,0,1-.173.018M1118,2.348l-6.037,15.916,17.562-3.763Z" transform="translate(-952.502 0.001)"/>
          <path id="Path_3562" data-name="Path 3562" d="M3093,853.337l-2.565-2.261a.874.874,0,0,0-1.126-.025l-3.083,2.48a1.635,1.635,0,0,1-1.695.222,14.859,14.859,0,0,0-3.875-1.142,1.636,1.636,0,0,1-1.306-1.111l-1.227-3.75a.874.874,0,0,0-.962-.593l-3.381.512a.876.876,0,0,0-.744.847l-.081,3.951a1.658,1.658,0,0,1-.95,1.458q-.318.154-.631.324a14.756,14.756,0,0,0-2.7,1.89,1.641,1.641,0,0,1-1.7.292l-3.658-1.469a.874.874,0,0,0-1.073.356l-1.781,2.918a.876.876,0,0,0,.171,1.115l2.979,2.606a1.634,1.634,0,0,1,.512,1.633,14.828,14.828,0,0,0-.455,4.013,1.633,1.633,0,0,1-.868,1.478l-3.477,1.858a.875.875,0,0,0-.417,1.051l1.091,3.24a.875.875,0,0,0,.963.585l3.907-.606a1.634,1.634,0,0,1,1.579.656,14.682,14.682,0,0,0,2.782,2.925,1.637,1.637,0,0,1,.579,1.618l-.812,3.858a.875.875,0,0,0,.537.995l3.184,1.247a.874.874,0,0,0,1.067-.362l2.046-3.381a1.635,1.635,0,0,1,1.517-.788,14.7,14.7,0,0,0,4.91-.459,1.634,1.634,0,0,1,1.668.529l2.488,2.942a.875.875,0,0,0,1.115.187l2.94-1.746a.875.875,0,0,0,.371-1.065l-1.465-3.834a1.629,1.629,0,0,1,.278-1.645,14.79,14.79,0,0,0,2.813-4.948,1.633,1.633,0,0,1,1.322-1.094l3.907-.557a.875.875,0,0,0,.751-.845l.083-3.418a.875.875,0,0,0-.7-.88l-3.878-.766a1.639,1.639,0,0,1-1.262-1.164,14.779,14.779,0,0,0-1.25-3.065q-.168-.307-.348-.6a1.661,1.661,0,0,1,0-1.746l2.082-3.347a.875.875,0,0,0-.165-1.119m-19.1,8.144a7.332,7.332,0,1,1-2.389,8.12,7.337,7.337,0,0,1,2.389-8.12" transform="translate(-2625.264 -727.061)" fill="#224099"/>
          <path id="Path_3563" data-name="Path 3563" d="M2359.495,541.6a.826.826,0,0,1-.058-1.65c.516-.037,51.729-4.009,69.7-33.254,8.34-13.577,8.314-30.584-.077-50.55-8.638-20.55-47.538-29.03-81.858-36.511-32.034-6.983-62.291-13.579-66.37-28.925-2.232-8.4,3.446-18.581,17.356-31.134,17.767-16.033,27.089-31.6,27.706-46.265.551-13.069-6.308-20.554-6.378-20.628a.826.826,0,1,1,1.206-1.129c.3.323,7.4,8.072,6.824,21.828-.638,15.125-10.143,31.08-28.251,47.422-13.407,12.1-18.924,21.742-16.866,29.483,3.819,14.371,33.6,20.863,65.125,27.735,36.41,7.937,74.059,16.144,83.029,37.486,8.611,20.487,8.6,38-.041,52.059-9.643,15.693-28.453,24.112-42.534,28.411a144.827,144.827,0,0,1-28.45,5.623l-.059,0" transform="translate(-1957.111 -249.997)"/>
          <path id="Path_3564" data-name="Path 3564" d="M2499.769,279.974l-9.254-15.758a1.3,1.3,0,0,1,.464-1.783l11.968-7.028a1.3,1.3,0,0,1,1.783.464l9.254,15.758a1.3,1.3,0,0,1-.464,1.783l-11.968,7.028a1.3,1.3,0,0,1-1.783-.464" transform="translate(-2137.323 -219.046)" fill="#224099"/>
          <path id="Path_3565" data-name="Path 3565" d="M2505.619,283.458a5.934,5.934,0,0,1-1.492-.192,5.851,5.851,0,0,1-3.6-2.717l-5.446-9.274a5.89,5.89,0,0,1,2.1-8.061l5.483-3.22a5.9,5.9,0,0,1,8.061,2.1l5.445,9.274a5.888,5.888,0,0,1-2.1,8.061l-5.483,3.22a5.851,5.851,0,0,1-2.972.813m.02-22.621a4.213,4.213,0,0,0-2.138.583l-5.483,3.22a4.236,4.236,0,0,0-1.508,5.8l5.446,9.274h0a4.236,4.236,0,0,0,5.8,1.508l5.483-3.22a4.236,4.236,0,0,0,1.508-5.8l-5.446-9.274a4.24,4.24,0,0,0-3.661-2.09" transform="translate(-2140.702 -222.445)"/>
          <path id="Path_3566" data-name="Path 3566" d="M2398.255,164.612l-8.033-13.679a5.629,5.629,0,0,1,2-7.7l18.721-10.994a5.63,5.63,0,0,1,7.705,2l8.033,13.679a7.584,7.584,0,0,1-2.7,10.38l-15.351,9.015a7.584,7.584,0,0,1-10.38-2.7" transform="translate(-2050.735 -112.823)" fill="#97adec"/>
          <path id="Path_3567" data-name="Path 3567" d="M2387.25,151.615a8.426,8.426,0,0,1-7.276-4.155h0l-10.878-18.524a.827.827,0,0,1,.295-1.131l28.429-16.7a.827.827,0,0,1,1.131.294l10.879,18.524a8.421,8.421,0,0,1-3,11.526l-15.332,9a8.373,8.373,0,0,1-4.25,1.158m-5.851-4.992a6.777,6.777,0,0,0,9.264,2.409l15.332-9a6.769,6.769,0,0,0,2.409-9.264l-10.461-17.812-27,15.858,10.46,17.812Z" transform="translate(-2033.172 -95.262)"/>
          <path id="Path_3568" data-name="Path 3568" d="M2354.8,121.708h0a3.114,3.114,0,0,1,1.108-4.262l29.061-17.067a3.114,3.114,0,1,1,3.154,5.37l-29.061,17.067a3.114,3.114,0,0,1-4.262-1.108" transform="translate(-2020.636 -85.781)" fill="#224099"/>
          <path id="Path_3569" data-name="Path 3569" d="M2352.486,119.064a3.976,3.976,0,0,1-1-.128,3.94,3.94,0,0,1-1-7.211l29.061-17.066a3.94,3.94,0,0,1,3.99,6.8l-29.061,17.066a3.917,3.917,0,0,1-1.988.544m29.05-23.3a2.274,2.274,0,0,0-1.155.316L2351.32,113.15a2.288,2.288,0,1,0,2.317,3.945l29.061-17.066a2.288,2.288,0,0,0-.583-4.187,2.309,2.309,0,0,0-.579-.074" transform="translate(-2015.626 -80.773)"/>
          <path id="Path_3570" data-name="Path 3570" d="M483.044,1058.26H450.567a.813.813,0,0,1-.813-.813v-25.738H380.988a.813.813,0,0,1-.813-.813v-29.869a.815.815,0,0,1,.074-.339l53.1-115.926a.813.813,0,0,1,.739-.475h36.746a.813.813,0,0,1,.741,1.148L420.415,998.791h29.34V955.984a.813.813,0,0,1,.813-.813h32.477a.813.813,0,0,1,.813.813v42.807h12.7a.813.813,0,0,1,.813.813V1030.9a.813.813,0,0,1-.813.813h-12.7v25.738a.813.813,0,0,1-.813.813" transform="translate(-326.284 -758.938)" fill="#0b0705"/>
          <path id="Path_3571" data-name="Path 3571" d="M265.823,1005.951l53.1-115.927h36.746l-51.68,114.5h77.4v31.292H265.823ZM335.4,960.907h32.477V1062.37H335.4Z" transform="translate(-228.142 -763.86)" fill="#fff"/>
          <path id="Path_3572" data-name="Path 3572" d="M362.875,1058.194H330.4a.827.827,0,0,1-.826-.826v-25.724H260.818a.826.826,0,0,1-.826-.826v-29.869a.825.825,0,0,1,.075-.344l53.1-115.926a.826.826,0,0,1,.751-.482h36.746a.826.826,0,0,1,.753,1.166L300.266,998.7h29.306V955.905a.826.826,0,0,1,.826-.826h32.477a.826.826,0,0,1,.826.826V998.7h12.686a.826.826,0,0,1,.826.826v31.292a.826.826,0,0,1-.826.826H363.7v25.724a.827.827,0,0,1-.826.826m-31.651-1.653h30.824v-25.724a.826.826,0,0,1,.826-.826h12.686v-29.64H362.875a.826.826,0,0,1-.826-.826V956.732H331.224v42.794a.826.826,0,0,1-.826.826H298.986a.826.826,0,0,1-.753-1.166l51.154-113.337H314.451l-52.806,115.28v28.862H330.4a.826.826,0,0,1,.826.826Z" transform="translate(-223.137 -758.859)" fill="#0b0705"/>
          <path id="Path_3573" data-name="Path 3573" d="M1462.4,869.733c-8.888-8.648-22-13.033-38.972-13.033-16.891,0-29.982,4.4-38.911,13.091s-13.463,21.032-13.463,36.676v78.348c0,15.486,4.508,27.784,13.4,36.554s22,13.213,38.974,13.213c16.894,0,29.986-4.4,38.913-13.091s13.462-21.032,13.462-36.675V906.468c0-15.722-4.509-28.082-13.4-36.735m-19.075,106.787c0,8.509-1.6,15.145-4.766,19.724-3.226,4.676-8.317,7.047-15.131,7.047s-11.9-2.371-15.129-7.047c-3.162-4.578-4.766-11.215-4.766-19.724V914.767c0-8.506,1.6-15.142,4.767-19.725,3.23-4.678,8.32-7.05,15.129-7.05s11.9,2.372,15.131,7.05c3.163,4.583,4.766,11.219,4.766,19.725Z" transform="translate(-1176.703 -735.261)" fill="#0b0705"/>
          <path id="Path_3574" data-name="Path 3574" d="M1269.858,1031.45q-13.158-12.979-13.157-35.975V917.127q0-23.232,13.216-36.093t38.344-12.861q25.248,0,38.405,12.8t13.157,36.152v78.348q0,23.236-13.216,36.093t-38.346,12.861q-25.246,0-38.4-12.979m52.865-25.009q4.624-6.694,4.622-19.262V925.426q0-12.565-4.622-19.262t-14.461-6.7q-9.839,0-14.46,6.7t-4.623,19.262v61.753q0,12.565,4.623,19.262t14.46,6.7q9.839,0,14.461-6.7" transform="translate(-1078.56 -745.107)" fill="#fff"/>
          <path id="Path_3575" data-name="Path 3575" d="M1596.88,1251.908q9.839,0,14.461-6.7t4.623-19.262V1164.2q0-12.565-4.623-19.262a14.822,14.822,0,0,0-9.037-6.093q4.374,6.671,4.377,18.885v61.753q0,12.565-4.622,19.262t-14.462,6.7a23.013,23.013,0,0,1-5.424-.6c.083.126.162.256.247.379q4.622,6.7,14.46,6.7" transform="translate(-1357.897 -977.408)" fill="#b8b8b8"/>
          <path id="Path_3576" data-name="Path 3576" d="M1279.142,1037.919q-13.159-12.979-13.157-35.975V923.6q0-23.232,13.216-36.093t38.345-12.861q17.071,0,28.606,5.86-13.133-12.319-37.888-12.329-25.13,0-38.345,12.861T1256.7,917.126v78.348q0,23,13.157,35.975a39.693,39.693,0,0,0,10,7.139c-.239-.224-.487-.439-.721-.669" transform="translate(-1078.561 -745.106)" fill="#b8b8b8"/>
          <path id="Path_3577" data-name="Path 3577" d="M1303.26,1040.253c-16.977,0-30.093-4.447-38.984-13.217s-13.4-21.075-13.4-36.563V912.124c0-15.648,4.531-27.99,13.466-36.685s22.026-13.1,38.921-13.1c16.976,0,30.091,4.386,38.981,13.036s13.407,21.018,13.407,36.744v78.349c0,15.648-4.53,27.99-13.466,36.685s-22.025,13.095-38.922,13.095m0-176.256c-16.449,0-29.156,4.248-37.769,12.627s-12.966,20.316-12.966,35.5v78.349c0,15.03,4.344,26.936,12.911,35.386s21.3,12.741,37.823,12.741c16.452,0,29.159-4.248,37.77-12.627s12.966-20.316,12.966-35.5V912.124c0-15.263-4.343-27.227-12.907-35.559S1319.79,864,1303.26,864m0,144.964c-6.818,0-11.911-2.373-15.14-7.053-3.164-4.581-4.769-11.219-4.769-19.731V920.424c0-8.509,1.6-15.148,4.769-19.732,3.232-4.681,8.326-7.055,15.14-7.055s11.909,2.374,15.141,7.055c3.164,4.585,4.769,11.224,4.769,19.732v61.753c0,8.511-1.6,15.15-4.769,19.732-3.229,4.68-8.323,7.052-15.141,7.052m0-113.672c-6.326,0-10.834,2.074-13.78,6.342-2.97,4.3-4.476,10.626-4.476,18.793v61.753c0,8.17,1.506,14.493,4.476,18.793,2.943,4.266,7.45,6.339,13.78,6.339s10.838-2.073,13.781-6.338c2.97-4.3,4.476-10.623,4.476-18.793V920.424c0-8.167-1.506-14.49-4.476-18.794-2.946-4.267-7.454-6.341-13.781-6.341" transform="translate(-1073.558 -740.104)" fill="#0b0705"/>
          <path id="Path_3578" data-name="Path 3578" d="M2402.088,1058.26h-32.477a.813.813,0,0,1-.813-.813v-25.738h-68.766a.813.813,0,0,1-.813-.813v-29.869a.812.812,0,0,1,.074-.339l53.1-115.926a.813.813,0,0,1,.739-.475h36.746a.813.813,0,0,1,.741,1.148l-51.163,113.355h29.34V955.984a.813.813,0,0,1,.813-.813h32.477a.813.813,0,0,1,.813.813v42.807h12.7a.814.814,0,0,1,.813.813V1030.9a.814.814,0,0,1-.813.813h-12.7v25.738a.813.813,0,0,1-.813.813" transform="translate(-1973.299 -758.938)" fill="#0b0705"/>
          <path id="Path_3579" data-name="Path 3579" d="M2184.866,1005.951l53.1-115.927h36.746l-51.68,114.5h77.4v31.292H2184.866Zm69.58-45.043h32.477V1062.37h-32.477Z" transform="translate(-1875.156 -763.86)" fill="#fff"/>
          <path id="Path_3580" data-name="Path 3580" d="M2281.92,1058.194h-32.477a.827.827,0,0,1-.826-.826v-25.724h-68.753a.827.827,0,0,1-.826-.826v-29.869a.835.835,0,0,1,.075-.344l53.1-115.926a.824.824,0,0,1,.751-.482h36.746a.827.827,0,0,1,.753,1.166L2219.311,998.7h29.306V955.905a.826.826,0,0,1,.826-.826h32.477a.827.827,0,0,1,.826.826V998.7h12.687a.826.826,0,0,1,.826.826v31.292a.826.826,0,0,1-.826.826h-12.687v25.724a.827.827,0,0,1-.826.826m-31.651-1.653h30.825v-25.724a.826.826,0,0,1,.826-.826h12.687v-29.64H2281.92a.826.826,0,0,1-.826-.826V956.732h-30.825v42.794a.826.826,0,0,1-.826.826h-31.412a.827.827,0,0,1-.753-1.166l51.154-113.337H2233.5l-52.806,115.28v28.862h68.753a.826.826,0,0,1,.826.826Z" transform="translate(-1870.154 -758.859)" fill="#0b0705"/>
        </g>
      </g>
    </g>
    <g id="Group_737" data-name="Group 737" transform="translate(924.371 243.936)">
      <ellipse id="Ellipse_37" data-name="Ellipse 37" cx="29.314" cy="29.314" rx="29.314" ry="29.314" transform="translate(0)" fill="none" stroke="#000" stroke-linecap="round" stroke-linejoin="round" stroke-width="3"/>
      <path id="Path_3581" data-name="Path 3581" d="M90.311,71.446a2.331,2.331,0,0,1-.645,1.613,2.337,2.337,0,0,1-3.355,0,2.338,2.338,0,0,1,0-3.226,2.337,2.337,0,0,1,3.355,0,2.332,2.332,0,0,1,.645,1.613m-.774-6.194h-3.1V43.058h3.1Z" transform="translate(-58.414 -29.917)" fill="#224099" stroke="#224099" stroke-width="1"/>
    </g>
    <rect id="Rectangle_720" data-name="Rectangle 720" width="75.071" height="75.071" transform="translate(922.99 228.874)" fill="none"/>
    <rect id="Rectangle_721" data-name="Rectangle 721" width="78.788" height="78.788" transform="translate(401 417.509)" fill="none"/>
    <g id="Group_739" data-name="Group 739" transform="translate(637.541 185.435)">
      <g id="Group_738" data-name="Group 738" transform="translate(0)" clip-path="url(#clip-path-5)">
        <line id="Line_49" data-name="Line 49" x2="8.498" y2="6.374" transform="translate(0.479 19.6)" fill="none" stroke="#48c4da" stroke-linecap="round" stroke-linejoin="round" stroke-width="3"/>
        <line id="Line_50" data-name="Line 50" x2="3.612" y2="9.773" transform="translate(32.772 0.479)" fill="none" stroke="#3693ff" stroke-linecap="round" stroke-linejoin="round" stroke-width="3"/>
        <line id="Line_51" data-name="Line 51" y1="5.311" x2="11.048" transform="translate(221.215 37.87)" fill="none" stroke="#3693ff" stroke-linecap="round" stroke-linejoin="round" stroke-width="3"/>
        <line id="Line_52" data-name="Line 52" x1="5.311" y2="7.648" transform="translate(198.908 1.329)" fill="none" stroke="#ffd942" stroke-linecap="round" stroke-linejoin="round" stroke-width="3"/>
      </g>
    </g>
    <path id="Path_3584" data-name="Path 3584" d="M45.281,6.421a10.089,10.089,0,0,0-8.4,4.5,10.945,10.945,0,0,0-21.443,4.349A7.141,7.141,0,1,0,9.685,26.628h35.6a10.1,10.1,0,1,0,0-20.207Z" transform="translate(466.102 260.246)" fill="none" stroke="#000" stroke-linecap="round" stroke-linejoin="round" stroke-width="3"/>
    <path id="Path_3585" data-name="Path 3585" d="M10.583,5.63a8.037,8.037,0,0,1,6.691,3.581,8.718,8.718,0,0,1,17.081,3.464,5.689,5.689,0,1,1,4.582,9.051H10.583a8.048,8.048,0,1,1,0-16.1Z" transform="translate(913.416 188.82)" fill="none" stroke="#000" stroke-linecap="round" stroke-linejoin="round" stroke-width="2.5"/>
    <path id="Path_3561-2" data-name="Path 3561" d="M.826,20.217A.826.826,0,0,1,.054,19.1L7.1.533A.826.826,0,0,1,8.468.257L21.911,14.433a.826.826,0,0,1-.426,1.377L1,20.2a.825.825,0,0,1-.173.018M8.174,2.349,2.137,18.265,19.7,14.5Z" transform="translate(899.168 320.821) rotate(-65)"/>
    <g id="Group_809" data-name="Group 809" transform="translate(62.891 102.188)">
      <path id="Path_3720" data-name="Path 3720" d="M48.5,0A48.5,48.5,0,1,1,0,48.5,48.5,48.5,0,0,1,48.5,0Z" transform="translate(325.11 308.219)" fill="none" stroke="#000" stroke-linecap="round" stroke-width="3"/>
      <g id="Group_808" data-name="Group 808" transform="translate(346.571 327.19)">
        <g id="Group_807" data-name="Group 807" clip-path="url(#clip-path-6)">
          <path id="Path_3710" data-name="Path 3710" d="M136.823,243.649H118.315a.785.785,0,0,0,0,1.57h18.507a.785.785,0,0,0,0-1.57" transform="translate(-91.93 -190.534)" fill="#224099" stroke="#224099" stroke-width="0.8"/>
          <path id="Path_3711" data-name="Path 3711" d="M192.7,227.859v3.634a.785.785,0,0,0,1.57,0v-3.634a.785.785,0,0,0-1.57,0" transform="translate(-150.693 -177.593)" fill="#224099" stroke="#224099" stroke-width="0.8"/>
          <path id="Path_3712" data-name="Path 3712" d="M.261,221.018a5.987,5.987,0,0,0,5.11,5.851,32.948,32.948,0,0,0,4.368.061.785.785,0,0,0,0-1.57c-1.125,0-2.25.011-3.375,0a4.425,4.425,0,0,1-4.533-4.342c-.034-1.007-1.6-1.012-1.57,0" transform="translate(-0.204 -172.244)" fill="#224099" stroke="#224099" stroke-width="0.8"/>
          <path id="Path_3713" data-name="Path 3713" d="M44.108,38.721v2.358c0,.325.187,1.578-.083,1.785s-1.541,0-1.868,0H8.069c-.7,0-1.4-.017-2.1,0A6,6,0,0,0,.058,48.774h1.57v-37.7c0-1.924-.271-4.208.58-5.986A6.154,6.154,0,0,1,7.752,1.628c.636-.01,1.274,0,1.91,0H41.553a11.4,11.4,0,0,1,2.379,0c.32.075.084-.128.177.143a9.563,9.563,0,0,1,0,2.574V6.262a.785.785,0,0,0,1.57,0c0-1.524.1-3.082,0-4.6C45.595.434,44.7.058,43.647.058H11.727c-2.049,0-4.474-.279-6.445.387A7.688,7.688,0,0,0,.145,6.566,14.34,14.34,0,0,0,.058,8.654V29.423c0,6.334-.129,12.684,0,19.017,0,.111,0,.223,0,.334a.785.785,0,0,0,1.57,0,4.418,4.418,0,0,1,4.5-4.34c.795-.008,1.59,0,2.385,0h34.03a4.591,4.591,0,0,0,2.4-.27c.906-.6.733-1.738.733-2.675V38.721a.785.785,0,0,0-1.57,0" transform="translate(0 0)" fill="#224099" stroke="#224099" stroke-width="0.8"/>
          <path id="Path_3714" data-name="Path 3714" d="M69.666,241.187l-4.213-3.811a.805.805,0,0,0-1.11,0l-4.213,3.811,1.34.555V231.61l-.785.785h8.427l-.785-.785v10.132a.785.785,0,0,0,1.57,0V231.61a.8.8,0,0,0-.785-.785H60.684a.8.8,0,0,0-.785.785v10.132a.794.794,0,0,0,1.34.555l4.214-3.811h-1.11l4.214,3.811c.748.676,1.861-.431,1.11-1.11" transform="translate(-46.841 -180.505)" fill="#224099" stroke="#224099" stroke-width="0.8"/>
          <path id="Path_3715" data-name="Path 3715" d="M21.654,25.051V62.646a.785.785,0,0,0,1.57,0V25.051a.785.785,0,0,0-1.57,0" transform="translate(-16.933 -18.997)" fill="#224099" stroke="#224099" stroke-width="0.8"/>
          <path id="Path_3716" data-name="Path 3716" d="M148.271,56.631V49.666a8.679,8.679,0,0,0-.3-3.166c-.707-1.836-2.633-3.374-4.649-2.669a9.016,9.016,0,0,0-2.569,1.791L137.3,48.48a12.678,12.678,0,0,1-2.049,1.7,4.4,4.4,0,0,1-1.782.158h-2.253c-1.511,0-2.955.606-3.162,2.3a23.529,23.529,0,0,0-.024,2.814V59.72c0,1.27.32,2.476,1.626,3,1.09.441,2.579.2,3.725.2a4.635,4.635,0,0,1,1.871.158,4.537,4.537,0,0,1,.7.579c1.922,1.594,3.825,3.213,5.767,4.782,1.594,1.289,3.421,1.637,5.018.131a5.361,5.361,0,0,0,1.534-4.22V56.631a.785.785,0,0,0-1.57,0v6.037c0,.812.036,1.634,0,2.446a3.253,3.253,0,0,1-1.247,2.493c-.9.714-1.741.414-2.575-.231-1.706-1.32-3.33-2.762-4.991-4.139a15.787,15.787,0,0,0-1.689-1.392c-1.065-.652-2.513-.49-3.708-.49-1,0-2.752.346-2.889-1.058-.087-.881,0-1.813,0-2.7V53.816c0-.981.02-1.829,1.266-1.909,2.019-.129,4.217.443,5.9-.954l5.442-4.513c.232-.192.458-.4.7-.579a1.988,1.988,0,0,1,3.116.377c.8,1.022.677,2.217.677,3.429v6.964a.785.785,0,0,0,1.57,0" transform="translate(-100.095 -34.14)" fill="#224099" stroke="#224099" stroke-width="0.8"/>
          <path id="Path_3717" data-name="Path 3717" d="M251.8,52.394a18.3,18.3,0,0,1,0,20.357c-.583.828.777,1.613,1.355.792a19.834,19.834,0,0,0,0-21.941c-.577-.819-1.939-.036-1.355.792" transform="translate(-196.794 -40.082)" fill="#224099" stroke="#224099" stroke-width="0.8"/>
          <path id="Path_3718" data-name="Path 3718" d="M234.669,78.671a8.017,8.017,0,0,1,0,8.892c-.573.835.787,1.621,1.355.792a9.558,9.558,0,0,0,0-10.477c-.568-.828-1.929-.044-1.355.792" transform="translate(-183.404 -60.626)" fill="#224099" stroke="#224099" stroke-width="0.8"/>
          <path id="Path_3719" data-name="Path 3719" d="M156.587,91.7v7.416a.785.785,0,0,0,1.57,0V91.7a.785.785,0,0,0-1.57,0" transform="translate(-122.451 -71.119)" fill="#224099" stroke="#224099" stroke-width="0.8"/>
        </g>
      </g>
    </g>
    <path id="Path_3583" data-name="Path 3583" d="M35.074,0A35.074,35.074,0,1,1,0,35.074,35.074,35.074,0,0,1,35.074,0Z" transform="translate(990.852 358.759)" fill="none" stroke="#000" stroke-linecap="round" stroke-width="3"/>
    <g id="Group_812" data-name="Group 812" transform="translate(999.773 368.198)">
      <g id="Group_811" data-name="Group 811" transform="translate(0)" clip-path="url(#clip-path-7)">
        <path id="Path_3721" data-name="Path 3721" d="M102.746,90.864a16.054,16.054,0,1,1-21.54,12.948c.094-.82-1.192-.813-1.285,0a17.336,17.336,0,1,0,23.166-14.187c-.771-.3-1.105.942-.342,1.239" transform="translate(-65.565 -73.592)" fill="#224099" stroke="#224099" stroke-width="0.3"/>
        <path id="Path_3722" data-name="Path 3722" d="M124.823,111.427a29.376,29.376,0,0,0,1.577,13.847c1.146,2.905,3.214,6.392,6.577,6.993,3.1.554,5.61-1.719,7.121-4.181,2.3-3.743,3.112-8.387,3.157-12.721.051-4.907-.866-10.373-3.842-14.406-.486-.658-1.6-.018-1.109.649,2.4,3.25,3.357,7.453,3.606,11.422a27.477,27.477,0,0,1-1.783,12.168c-1.047,2.52-3.072,5.877-6.192,5.876-2.988,0-4.962-3.108-6.034-5.514a27.694,27.694,0,0,1-1.793-14.131c.09-.821-1.2-.814-1.285,0" transform="translate(-102.375 -82.715)" fill="#224099" stroke="#224099" stroke-width="0.3"/>
        <path id="Path_3723" data-name="Path 3723" d="M162.175,99.638c5.3.291,11.223-.317,15.847-3.126a.647.647,0,0,0,.23-.879,18.155,18.155,0,0,0-8-6.008c-.771-.3-1.105.942-.342,1.239a16.569,16.569,0,0,1,7.236,5.418l.231-.879c-4.438,2.7-10.119,3.229-15.2,2.951-.826-.045-.824,1.24,0,1.285" transform="translate(-132.724 -73.592)" fill="#224099" stroke="#224099" stroke-width="0.3"/>
        <path id="Path_3724" data-name="Path 3724" d="M125.006,219.237a16.066,16.066,0,0,1-25.7,0l-.23.879c3.849-2.335,8.65-3.012,13.081-3.014s9.234.68,13.081,3.014a.643.643,0,0,0,.649-1.109c-4.039-2.45-9.077-3.188-13.73-3.189s-9.693.74-13.73,3.189a.647.647,0,0,0-.231.879,17.332,17.332,0,0,0,27.92,0c.5-.659-.616-1.3-1.109-.649" transform="translate(-80.593 -177.302)" fill="#224099" stroke="#224099" stroke-width="0.3"/>
        <path id="Path_3725" data-name="Path 3725" d="M80.463,178.735h33.386a.643.643,0,0,0,0-1.285H80.463a.643.643,0,0,0,0,1.285" transform="translate(-65.593 -145.782)" fill="#224099" stroke="#224099" stroke-width="0.3"/>
        <path id="Path_3726" data-name="Path 3726" d="M173.247,130.551v25.193a.643.643,0,0,0,1.285,0V130.551a.643.643,0,0,0-1.285,0" transform="translate(-142.329 -106.743)" fill="#224099" stroke="#224099" stroke-width="0.3"/>
        <path id="Path_3727" data-name="Path 3727" d="M36.884.214,24.125,15.367l-1.171,1.39c-.079.094-.619.589-.6.716.008.058.251-.085.209-.121a1.255,1.255,0,0,0-.319.065l-1.391.284L9.539,20.009.454,21.862l.625,1.074L13.838,7.782l1.171-1.39c.079-.094.619-.59.6-.716-.008-.058-.251.085-.209.121a1.261,1.261,0,0,0,.319-.065l1.391-.284L28.424,3.141l9.085-1.853c.809-.165.467-1.4-.342-1.239L17.639,4.032a17.642,17.642,0,0,0-2.6.531c-.575.216-1.019,1.017-1.4,1.464l-7.5,8.908L.171,22.027A.648.648,0,0,0,.8,23.1l19.528-3.983a17.647,17.647,0,0,0,2.6-.531c.575-.216,1.019-1.017,1.4-1.463l7.5-8.908,5.972-7.093c.529-.629-.375-1.542-.909-.909" transform="translate(0 0)" fill="#224099" stroke="#224099" stroke-width="0.3"/>
        <path id="Path_3728" data-name="Path 3728" d="M75.807,44.909l2.692,4.53a5.953,5.953,0,0,1,1.016,1.987c.127,1.007-.765,1.888-1.354,2.6A26.494,26.494,0,0,1,76.3,56.038a25.83,25.83,0,0,1-9.365,5.84,18.882,18.882,0,0,1-5.418,1.287C60.356,63.2,59.9,62.453,59.4,61.6l-3.044-5.123a.643.643,0,0,0-1.109.649l3.044,5.123a4.034,4.034,0,0,0,1.869,1.96,4.637,4.637,0,0,0,2.6.071,26.345,26.345,0,0,0,3.081-.7,27.362,27.362,0,0,0,10.36-5.7,23.7,23.7,0,0,0,3.986-4.38,3.25,3.25,0,0,0,.039-3.662c-1.09-1.865-2.207-3.715-3.311-5.572a.643.643,0,0,0-1.109.649" transform="translate(-45.307 -36.109)" fill="#224099" stroke="#224099" stroke-width="0.3"/>
        <path id="Path_3729" data-name="Path 3729" d="M19.493,167.778a1.444,1.444,0,0,1-2.477,1.483,1.444,1.444,0,0,1,2.477-1.483c.454.687,1.567.044,1.109-.649a2.729,2.729,0,1,0-.959,3.738,2.775,2.775,0,0,0,.959-3.738c-.389-.73-1.5-.082-1.109.649" transform="translate(-12.764 -136.209)" fill="#224099" stroke="#224099" stroke-width="0.3"/>
        <path id="Path_3730" data-name="Path 3730" d="M38.586,70.974,30.524,76.9a35.292,35.292,0,0,0-3.038,2.232c-.391.359-.334.692-.334,1.178V88.4a.643.643,0,0,0,1.285,0V79.7l-.318.555,11.115-8.168c.659-.485.019-1.6-.649-1.109" transform="translate(-22.304 -58.208)" fill="#224099" stroke="#224099" stroke-width="0.3"/>
      </g>
    </g>
    <path id="Path_3582" data-name="Path 3582" d="M76.127,73.851H72.061V70.366a10.543,10.543,0,0,1,.378-2.933,8.939,8.939,0,0,1,1.045-2.352,11.133,11.133,0,0,1,1.51-1.888q.841-.84,1.713-1.655l1.626-1.452a10.843,10.843,0,0,0,2.41-2.671,7.754,7.754,0,0,0,.377-6.679,6.308,6.308,0,0,0-1.568-2.149,6.968,6.968,0,0,0-2.294-1.336,8.37,8.37,0,0,0-2.817-.464A6.927,6.927,0,0,0,69.361,48.7a8.478,8.478,0,0,0-2.411,4.878L63,52.884A11.8,11.8,0,0,1,66.98,45.77a11.544,11.544,0,0,1,7.637-2.585A14.157,14.157,0,0,1,79,43.853a10.193,10.193,0,0,1,3.572,1.974,9.616,9.616,0,0,1,2.41,3.223,10.131,10.131,0,0,1,.9,4.356,11.674,11.674,0,0,1-.406,3.252,9.2,9.2,0,0,1-1.133,2.5,10.561,10.561,0,0,1-1.713,2q-.988.9-2.091,1.83-1.219.987-2.062,1.8A7.918,7.918,0,0,0,77.114,66.5a6.714,6.714,0,0,0-.755,2,13.188,13.188,0,0,0-.232,2.671Zm1.51,8.363a3.147,3.147,0,0,1-.871,2.178,3.156,3.156,0,0,1-4.53,0,3.157,3.157,0,0,1,0-4.356,3.156,3.156,0,0,1,4.53,0,3.149,3.149,0,0,1,.871,2.178" transform="translate(417.117 284.782)" fill="#97adec"/>
  </g>
</svg>
