<svg xmlns="http://www.w3.org/2000/svg" xmlns:xlink="http://www.w3.org/1999/xlink" width="74.86" height="67.13" viewBox="0 0 74.86 67.13">
  <defs>
    <clipPath id="clip-path">
      <rect id="Rectangle_70" data-name="Rectangle 70" width="74.857" height="67.125" fill="#9c9c9c"/>
    </clipPath>
    <clipPath id="clip-Ahmedabad">
      <rect width="74.86" height="67.13"/>
    </clipPath>
  </defs>
  <g id="Ahmedabad" clip-path="url(#clip-Ahmedabad)">
    <g id="Group_84" data-name="Group 84" transform="translate(-0.44 0.28)">
      <g id="Group_87" data-name="Group 87" clip-path="url(#clip-path)">
        <path id="Path_2842" data-name="Path 2842" d="M72.5,65.877V54.116h.246a.624.624,0,1,0,0-1.248H72.5V46.686h.246a.624.624,0,1,0,0-1.248H72.5V43.943a.624.624,0,0,0-.624-.624h-3.3a9.866,9.866,0,0,0-6.564-3.1V39.039a.624.624,0,1,0-1.248,0v1.183a9.865,9.865,0,0,0-6.564,3.1H51.517v-19.2h.312a.624.624,0,1,0,0-1.248h-.777V16.384h.312a.624.624,0,0,0,0-1.248H50.6V9.574h.312a.624.624,0,1,0,0-1.248H50.6V5.158a3.66,3.66,0,0,0-2.142-3.139V.624a.624.624,0,1,0-1.248,0V2.019a3.659,3.659,0,0,0-2.142,3.139V8.326h-.312a.624.624,0,1,0,0,1.248h.312v5.563H44.3a.624.624,0,0,0,0,1.248h.312v6.492h-.777a.624.624,0,1,0,0,1.248h.312v10.9a10.765,10.765,0,0,0-6.091-2.306V31.535a.624.624,0,1,0-1.248,0v1.181a10.765,10.765,0,0,0-6.091,2.306v-10.9h.312a.624.624,0,1,0,0-1.248h-.777V16.384h.312a.624.624,0,0,0,0-1.248h-.768V9.574H30.1a.624.624,0,1,0,0-1.248h-.312V5.158A3.659,3.659,0,0,0,27.65,2.019V.624a.624.624,0,1,0-1.248,0V2.019a3.659,3.659,0,0,0-2.142,3.139V8.326h-.312a.624.624,0,0,0,0,1.248h.312v5.563h-.768a.624.624,0,1,0,0,1.248h.312v6.492h-.777a.624.624,0,1,0,0,1.248h.312v19.2H20.667a9.865,9.865,0,0,0-6.564-3.1V39.039a.624.624,0,1,0-1.248,0v1.183a9.865,9.865,0,0,0-6.564,3.1H3a.624.624,0,0,0-.624.624v1.495H2.126a.624.624,0,1,0,0,1.248h.246v6.182H2.126a.624.624,0,1,0,0,1.248h.246V65.877H0v1.248H74.857V65.877ZM71.252,52.868H69.26V48.181a.624.624,0,0,0-.624-.624H54.147a.624.624,0,0,0-.624.624v4.687H51.532V46.686h19.72ZM30.713,37.1h13.43v2.1H30.713ZM21.348,54.116H23.34V65.877H21.348Zm3.239-29.991h.653v1.5a.624.624,0,0,0,1.248,0v-1.5h1.078v1.5a.624.624,0,0,0,1.248,0v-1.5h.652V32.7H24.587Zm.466-7.74h.492v1.5a.624.624,0,1,0,1.248,0v-1.5h.468v1.5a.624.624,0,1,0,1.248,0v-1.5H29v6.492H25.053Zm.456-6.811H26.4v1.5a.624.624,0,1,0,1.248,0v-1.5h.894v5.563H25.509Zm19.883,14.55h.653v1.5a.624.624,0,0,0,1.248,0v-1.5h1.078v1.5a.624.624,0,1,0,1.248,0v-1.5h.653V32.7H45.391Zm.466-7.74h.492v1.5a.624.624,0,1,0,1.248,0v-1.5h.468v1.5a.624.624,0,1,0,1.248,0v-1.5H49.8v6.492H45.857Zm.456-6.811h.894v1.5a.624.624,0,1,0,1.248,0v-1.5h.894v5.563H46.313Zm1.518,46.29a.624.624,0,0,0-.624.624v2.234H45.391V53.463H50.27v5.258H48.454V56.487a.624.624,0,0,0-.624-.624m-20.8,0a.624.624,0,0,0-.624.624v2.234H24.587V53.463h4.878v5.258H27.65V56.487a.624.624,0,0,0-.624-.624M24.587,45.47h4.878v4.679H27.65V47.915a.624.624,0,1,0-1.248,0v2.234H24.587Zm0-2.067h4.878v.82H24.587Zm4.878-8.542H24.587v-.917h4.878Zm0,1.248v6.047H27.65V39.922a.624.624,0,1,0-1.248,0v2.234H24.587V36.108Zm0,16.107H24.587V51.4h4.878Zm20.8-17.355H45.391v-.917H50.27Zm-4.878,4.961V36.108H50.27v6.047H48.454V39.922a.624.624,0,1,0-1.248,0v2.234H45.391ZM50.27,50.149H48.454V47.915a.624.624,0,1,0-1.248,0v2.234H45.391V45.47H50.27Zm0,2.067H45.391V51.4H50.27Zm0-7.993H45.391V43.4H50.27ZM24.587,59.969h4.878v.82H24.587Zm20.8,0H50.27v.82H45.391Zm16-18.52a8.613,8.613,0,0,1,5.356,1.871H56.036a8.614,8.614,0,0,1,5.356-1.871m9.86,3.99H51.532v-.871h19.72ZM46.313,5.158A2.46,2.46,0,0,1,47.831,3.1a2.461,2.461,0,0,1,1.518,2.06V8.326H46.313ZM37.428,33.944a9.56,9.56,0,0,1,5.707,1.871H31.722a9.559,9.559,0,0,1,5.706-1.871M25.509,5.158A2.46,2.46,0,0,1,27.027,3.1a2.46,2.46,0,0,1,1.518,2.06V8.326H25.509ZM13.48,41.448a8.613,8.613,0,0,1,5.356,1.871H8.124a8.613,8.613,0,0,1,5.356-1.871M3.62,44.567H23.34v.871H3.62Zm0,2.119H23.34v6.182H21.348V48.181a.624.624,0,0,0-.624-.624H6.235a.624.624,0,0,0-.624.624v4.687H3.62Zm0,7.43H5.612V65.877H3.62ZM9.276,65.877V57.4a6.876,6.876,0,0,1,4.233-6.474A6.876,6.876,0,0,1,17.742,57.4v8.48Zm9.714,0V57.4a8.1,8.1,0,0,0-5.274-7.728.623.623,0,0,0-.413,0A8.1,8.1,0,0,0,8.028,57.4v8.48H6.859V48.8H20.1V65.877Zm5.6-3.842h4.878v3.842H24.587Zm6.126-21.591h1.2v1.768a.624.624,0,0,0,1.248,0V40.445h1.2v1.768a.624.624,0,1,0,1.248,0V40.445h1.2v1.768a.624.624,0,1,0,1.248,0V40.445h1.2v1.768a.624.624,0,0,0,1.248,0V40.445h1.2v1.768a.624.624,0,1,0,1.248,0V40.445h1.2V65.877h-1.2V53.594c0-4-2.124-7.532-5.284-8.8a.625.625,0,0,0-.465,0c-3.161,1.269-5.284,4.805-5.284,8.8V65.877h-1.2ZM33.16,65.877V53.594c0-3.335,1.744-6.394,4.269-7.544,2.525,1.15,4.269,4.209,4.269,7.544V65.877Zm12.232-3.842H50.27v3.842H45.391Zm6.141-7.92h1.992V65.877H51.532Zm5.6,11.762V57.4a6.876,6.876,0,0,1,4.233-6.474A6.876,6.876,0,0,1,65.6,57.4v8.48Zm9.714,0V57.4a8.1,8.1,0,0,0-5.274-7.728.624.624,0,0,0-.413,0A8.1,8.1,0,0,0,55.882,57.4v8.48H54.771V48.8H68.013V65.877ZM69.26,54.116h1.992V65.877H69.26Z" transform="translate(0 0)" fill="#9c9c9c"/>
        <path id="Path_2843" data-name="Path 2843" d="M421.82,319.38a.714.714,0,0,0-.059-.109.54.54,0,0,0-.078-.094.548.548,0,0,0-.093-.078.7.7,0,0,0-.109-.056.508.508,0,0,0-.115-.037.64.64,0,0,0-.243,0,.533.533,0,0,0-.119.037.687.687,0,0,0-.106.056.545.545,0,0,0-.094.078.432.432,0,0,0-.078.094.521.521,0,0,0-.059.109.5.5,0,0,0-.034.115.545.545,0,0,0-.012.122.625.625,0,0,0,.184.443.618.618,0,0,0,.44.181.527.527,0,0,0,.121-.013.494.494,0,0,0,.115-.034.7.7,0,0,0,.109-.056.715.715,0,0,0,.093-.078.625.625,0,0,0,.184-.443.558.558,0,0,0-.012-.122.723.723,0,0,0-.034-.115" transform="translate(-355.023 -269.246)" fill="#9c9c9c"/>
        <path id="Path_2844" data-name="Path 2844" d="M359.519,319.379a.712.712,0,0,0-.056-.109.793.793,0,0,0-.078-.094.628.628,0,0,0-.564-.172.831.831,0,0,0-.116.034.577.577,0,0,0-.106.059.621.621,0,0,0-.175.172.712.712,0,0,0-.056.109.722.722,0,0,0-.037.115.783.783,0,0,0-.012.122.75.75,0,0,0,.012.122.762.762,0,0,0,.037.119.686.686,0,0,0,.056.106.571.571,0,0,0,.078.094.633.633,0,0,0,.2.137.619.619,0,0,0,.237.047.541.541,0,0,0,.125-.013.486.486,0,0,0,.115-.034.572.572,0,0,0,.106-.056.76.76,0,0,0,.1-.081.572.572,0,0,0,.078-.094.686.686,0,0,0,.056-.106.51.51,0,0,0,.034-.119.521.521,0,0,0,.012-.122.536.536,0,0,0-.012-.122.484.484,0,0,0-.034-.115" transform="translate(-302.438 -269.246)" fill="#9c9c9c"/>
        <path id="Path_2845" data-name="Path 2845" d="M267.56,290.536a.609.609,0,0,0,.443.184.618.618,0,0,0,.439-.184.582.582,0,0,0,.137-.2.636.636,0,0,0,.047-.24.826.826,0,0,0-.012-.122.789.789,0,0,0-.037-.118.676.676,0,0,0-.056-.106.545.545,0,0,0-.078-.094.622.622,0,0,0-.561-.171.532.532,0,0,0-.119.034.517.517,0,0,0-.106.059.559.559,0,0,0-.1.078.734.734,0,0,0-.078.094.663.663,0,0,0-.056.106.506.506,0,0,0-.034.118.528.528,0,0,0-.012.122.633.633,0,0,0,.047.24.625.625,0,0,0,.134.2" transform="translate(-225.681 -244.329)" fill="#9c9c9c"/>
        <path id="Path_2846" data-name="Path 2846" d="M204.8,290.53a.468.468,0,0,0,.1.078.456.456,0,0,0,.106.059.494.494,0,0,0,.115.034.539.539,0,0,0,.122.012.625.625,0,0,0,.24-.047.632.632,0,0,0,.2-.137.615.615,0,0,0,.134-.2.636.636,0,0,0,.047-.24.546.546,0,0,0-.012-.122.587.587,0,0,0-.034-.118.712.712,0,0,0-.056-.106,1.171,1.171,0,0,0-.078-.1.58.58,0,0,0-.1-.075.436.436,0,0,0-.106-.059.557.557,0,0,0-.115-.034.628.628,0,0,0-.564.168.639.639,0,0,0-.184.443.63.63,0,0,0,.184.44" transform="translate(-172.708 -244.323)" fill="#9c9c9c"/>
        <path id="Path_2847" data-name="Path 2847" d="M52.448,319.1a.684.684,0,0,0-.106-.059.538.538,0,0,0-.118-.034.625.625,0,0,0-.561.172.613.613,0,0,0-.184.439.636.636,0,0,0,.047.24.585.585,0,0,0,.137.2.571.571,0,0,0,.2.137.621.621,0,0,0,.677-.137.586.586,0,0,0,.137-.2.628.628,0,0,0,.047-.24.613.613,0,0,0-.184-.439.432.432,0,0,0-.094-.078" transform="translate(-43.45 -269.245)" fill="#9c9c9c"/>
        <path id="Path_2848" data-name="Path 2848" d="M114.959,319.38a.741.741,0,0,0-.056-.109.778.778,0,0,0-.078-.094.584.584,0,0,0-.1-.078.858.858,0,0,0-.106-.059.831.831,0,0,0-.115-.034.656.656,0,0,0-.246,0,.833.833,0,0,0-.116.034,1.161,1.161,0,0,0-.109.059.55.55,0,0,0-.094.078.56.56,0,0,0-.078.094.754.754,0,0,0-.094.224.824.824,0,0,0-.012.122.608.608,0,0,0,.184.44.621.621,0,0,0,.883,0,.606.606,0,0,0,.181-.44.537.537,0,0,0-.012-.122.484.484,0,0,0-.034-.115" transform="translate(-96.017 -269.246)" fill="#9c9c9c"/>
      </g>
    </g>
  </g>
</svg>
