<svg xmlns="http://www.w3.org/2000/svg" xmlns:xlink="http://www.w3.org/1999/xlink" width="76.87" height="69.29" viewBox="0 0 76.87 69.29">
  <defs>
    <clipPath id="clip-path">
      <rect id="Rectangle_54" data-name="Rectangle 54" width="76.872" height="69.295" fill="#9c9c9c"/>
    </clipPath>
    <clipPath id="clip-Bengaluru">
      <rect width="76.87" height="69.29"/>
    </clipPath>
  </defs>
  <g id="Bengaluru" clip-path="url(#clip-Bengaluru)">
    <g id="Group_11" data-name="Group 11" transform="translate(0.41 0.28)">
      <g id="Group_57" data-name="Group 57" clip-path="url(#clip-path)">
        <path id="Path_2595" data-name="Path 2595" d="M98.565,264.971H99.1v4.165H98.61a.641.641,0,0,0-.641.641v2.012a.641.641,0,0,0,.641.641h5.329a.641.641,0,0,0,.641-.641v-2.012a.641.641,0,0,0-.641-.641h-.486v-4.165h.486a.641.641,0,1,0,0-1.281h-.174a2.469,2.469,0,0,0-.047-1.19,4.422,4.422,0,0,0-2.154-2.312.64.64,0,0,0-.561,0A4.422,4.422,0,0,0,98.85,262.5a2.471,2.471,0,0,0-.047,1.19h-.239a.641.641,0,1,0,0,1.281m4.734,6.177H99.25v-.731H103.3Zm-2.921-6.177h1.794v4.165h-1.794Zm-.3-2.107a2.82,2.82,0,0,1,1.206-1.363,2.818,2.818,0,0,1,1.206,1.363,1.247,1.247,0,0,1-.051.826h-2.31a1.247,1.247,0,0,1-.051-.826" transform="translate(-82.242 -218.465)" fill="#9c9c9c"/>
        <path id="Path_2596" data-name="Path 2596" d="M346.531,264.971a.641.641,0,1,0,0-1.281h-.174a2.468,2.468,0,0,0-.047-1.19,4.422,4.422,0,0,0-2.154-2.311.641.641,0,0,0-.561,0,4.422,4.422,0,0,0-2.154,2.311,2.469,2.469,0,0,0-.047,1.19h-.239a.641.641,0,0,0,0,1.281h.531v4.165H341.2a.641.641,0,0,0-.641.641v2.012a.641.641,0,0,0,.641.641h5.329a.641.641,0,0,0,.641-.641v-2.012a.641.641,0,0,0-.641-.641h-.486v-4.165Zm-3.86-2.107a1.215,1.215,0,1,1,2.412,0,1.246,1.246,0,0,1-.051.826h-2.31a1.246,1.246,0,0,1-.051-.826m3.22,8.284h-4.048v-.731h4.048Zm-2.921-6.177h1.794v4.165h-1.794Z" transform="translate(-285.982 -218.465)" fill="#9c9c9c"/>
        <path id="Path_2597" data-name="Path 2597" d="M421.592,265.5a.641.641,0,0,0-.641-.641h-2.308a.641.641,0,0,0-.641.641V267.8a.641.641,0,0,0,.641.641h2.308a.641.641,0,0,0,.641-.641Zm-1.281,1.668h-1.027v-1.027h1.027Z" transform="translate(-351.059 -222.439)" fill="#9c9c9c"/>
        <path id="Path_2598" data-name="Path 2598" d="M421.592,300.749a1.795,1.795,0,0,0-3.59,0v1.795a.641.641,0,0,0,.641.641h2.308a.641.641,0,0,0,.641-.641ZM420.31,301.9h-1.027v-1.154a.514.514,0,0,1,1.027,0Z" transform="translate(-351.059 -251.077)" fill="#9c9c9c"/>
        <path id="Path_2599" data-name="Path 2599" d="M420.951,333.929h-2.308a.641.641,0,0,0-.641.641v3.449a.641.641,0,0,0,.641.641h2.308a.641.641,0,0,0,.641-.641V334.57a.641.641,0,0,0-.641-.641m-.641,3.449h-1.027V335.21h1.027Z" transform="translate(-351.059 -280.45)" fill="#9c9c9c"/>
        <path id="Path_2600" data-name="Path 2600" d="M42.533,268.444a.641.641,0,0,0,.641-.641V265.5a.641.641,0,0,0-.641-.641H40.225a.641.641,0,0,0-.641.641V267.8a.641.641,0,0,0,.641.641Zm-1.668-2.308h1.027v1.027H40.865Z" transform="translate(-33.245 -222.439)" fill="#9c9c9c"/>
        <path id="Path_2601" data-name="Path 2601" d="M39.584,302.543a.641.641,0,0,0,.641.641h2.308a.641.641,0,0,0,.641-.641v-1.795a1.795,1.795,0,0,0-3.59,0Zm1.281-1.795a.514.514,0,0,1,1.027,0V301.9H40.865Z" transform="translate(-33.245 -251.077)" fill="#9c9c9c"/>
        <path id="Path_2602" data-name="Path 2602" d="M39.584,338.019a.641.641,0,0,0,.641.641h2.308a.641.641,0,0,0,.641-.641V334.57a.641.641,0,0,0-.641-.641H40.225a.641.641,0,0,0-.641.641Zm1.281-2.808h1.027v2.168H40.865Z" transform="translate(-33.245 -280.45)" fill="#9c9c9c"/>
        <path id="Path_2603" data-name="Path 2603" d="M66.085,68.013V61.681h5.306a.641.641,0,0,0,0-1.281H66.085V40.224h5.306a.641.641,0,0,0,0-1.281H66.085v-2.8a.641.641,0,0,0-.641-.641H63.793V31.767h.659a.641.641,0,1,0,0-1.281H63.342a4.061,4.061,0,0,0,.448-1.933c0-.012,0-.023,0-.035V25.178a.641.641,0,0,0-1.281,0v.486a12.323,12.323,0,0,0-4.01-2.743V21.3a.641.641,0,1,0-1.281,0v1.616a12.323,12.323,0,0,0-4.01,2.743v-.486a.641.641,0,0,0-1.281,0v3.341c0,.011,0,.022,0,.033a4.06,4.06,0,0,0,.448,1.935h-4V26.208h.5a.641.641,0,0,0,.641-.641V22.88a.641.641,0,0,0-.641-.641H46.03v-.951h1.006a.641.641,0,0,0,.641-.641V18.154a.641.641,0,0,0-.641-.641H46.73a5.512,5.512,0,0,0,.94-3.193c0-.019.006-.037.006-.056V10.081a.641.641,0,1,0-1.281,0v1.012A16.334,16.334,0,0,0,40.5,6.843V5.223a.641.641,0,0,0-.641-.641h-.637a2.981,2.981,0,0,1,.444-1.737.55.55,0,0,1,.441-.186.641.641,0,1,0,0-1.281,1.849,1.849,0,0,0-1.035.3V.64A.641.641,0,0,0,37.8.64V1.6a1.871,1.871,0,0,0-.9-.221.641.641,0,0,0,0,1.281.55.55,0,0,1,.441.186,2.979,2.979,0,0,1,.444,1.737h-.767a.641.641,0,0,0-.641.641V6.839a16.346,16.346,0,0,0-5.9,4.254V10.081a.641.641,0,0,0-1.281,0v4.183c0,.019,0,.036.005.054a5.513,5.513,0,0,0,.94,3.195h-.305a.641.641,0,0,0-.641.641v2.493a.641.641,0,0,0,.641.641h1.006v.951H27.989a.641.641,0,0,0-.641.641v2.688a.641.641,0,0,0,.641.641h.5v4.278h-4a4.06,4.06,0,0,0,.448-1.933c0-.012,0-.023,0-.035V25.178a.641.641,0,0,0-1.281,0v.486a12.323,12.323,0,0,0-4.01-2.743V21.3a.641.641,0,1,0-1.281,0v1.616a12.325,12.325,0,0,0-4.01,2.743v-.486a.641.641,0,0,0-1.281,0v3.341c0,.011,0,.022,0,.033a4.061,4.061,0,0,0,.448,1.935H12.419a.641.641,0,1,0,0,1.281h.659V35.5H11.428a.641.641,0,0,0-.641.641v2.8H5.481a.641.641,0,0,0,0,1.281h5.306V60.4H5.481a.641.641,0,0,0,0,1.281h5.306v6.332H0v1.281H76.872V68.013Zm-1.281,0H62v-1.9a.641.641,0,0,0-.641-.641H57.7v-1.9a.641.641,0,0,0-.641-.641H53.407V36.782H64.8ZM52.316,31.767l1.037,1.5H23.519l1.037-1.5ZM34.188,26.208h8.5v4.278H40.76a2.469,2.469,0,0,0-.061-1.15,4.208,4.208,0,0,0-1.971-2.2.641.641,0,0,0-.585,0,4.207,4.207,0,0,0-1.971,2.2,2.469,2.469,0,0,0-.061,1.15H34.188ZM37.4,29.7a2.605,2.605,0,0,1,1.034-1.243A2.57,2.57,0,0,1,39.47,29.7a1.244,1.244,0,0,1-.03.788H37.432A1.247,1.247,0,0,1,37.4,29.7m7.71,30.7V58.893a.641.641,0,0,0-.641-.641h-.082V38.929h.082a.641.641,0,0,0,.641-.641V36.782H46.4v1.507a.641.641,0,0,0,.641.641h.082V58.252h-.082a.641.641,0,0,0-.641.641V60.4Zm-8.557,0V58.893a.641.641,0,0,0-.641-.641H35.83V38.929h.082a.641.641,0,0,0,.641-.641V36.782h3.765v1.507a.641.641,0,0,0,.641.641h.082V58.252h-.082a.641.641,0,0,0-.641.641V60.4Zm-6.086,0V58.893a.641.641,0,0,0-.641-.641h-.082V38.929h.082a.641.641,0,0,0,.641-.641V36.782h1.294v1.507a.641.641,0,0,0,.641.641h.082V58.252H32.4a.641.641,0,0,0-.641.641V60.4Zm-5.722,0V36.782h.93v1.507a.641.641,0,0,0,.641.641H26.4V58.252h-.082a.641.641,0,0,0-.641.641V60.4Zm3.717-2.147h-.784V38.929h.784Zm.723-20.6h-2.23v-.866h2.23Zm-2.23,21.886h2.23V60.4h-2.23Zm7.592-1.281h-.784V38.929h.784Zm.723-20.6h-2.23v-.866h2.23Zm-2.23,21.886h2.23V60.4h-2.23Zm10.064-1.281h-.784V38.929h.784Zm.723-20.6H41.6v-.866h2.23ZM41.6,59.534h2.23V60.4H41.6Zm7.592-1.281h-.784V38.929h.784Zm.723-20.6h-2.23v-.866h2.23Zm-2.23,21.886h2.23V60.4h-2.23Zm2.87-1.281h-.082V38.929h.082a.641.641,0,0,0,.641-.641V36.782h.93V60.4H51.2V58.893a.641.641,0,0,0-.641-.641M52.126,35.5H24.746V34.55h27.38Zm-27.38,26.18h27.38v1.257H24.746Zm31.678,3.794H20.448V64.218H56.424ZM53.407,35.5V34.55h1.166a.641.641,0,0,0,.527-1l-1.228-1.778h8.639V35.5Zm4.454-6.884a2.25,2.25,0,0,1,.481,1.869h-.961a2.249,2.249,0,0,1,.48-1.869M53.3,27.984c.587-2.106,3.685-3.57,4.557-3.944.872.374,3.97,1.838,4.557,3.944a2.881,2.881,0,0,1-.559,2.5H59.636A3.7,3.7,0,0,0,58.248,27.2a.641.641,0,0,0-.773,0,3.7,3.7,0,0,0-1.388,3.289H53.863a2.881,2.881,0,0,1-.559-2.5m-6.208,2.5H43.964V26.208H47.1ZM37.657,5.863h1.566v.748H37.657Zm-7.092,7.869c.646-2.861,4.727-5,6.588-5.839h2.566c1.861.839,5.942,2.979,6.588,5.839a4.426,4.426,0,0,1-1.148,3.782h-4.8a4.1,4.1,0,0,0-1.533-3.76.641.641,0,0,0-.773,0,4.1,4.1,0,0,0-1.533,3.76h-4.8a4.426,4.426,0,0,1-1.148-3.782m7.87,1.428a2.671,2.671,0,0,1,.619,2.354H37.818a2.659,2.659,0,0,1,.617-2.354m-7.958,3.635H46.4v1.212H30.477Zm1.646,2.493H44.748v.951H32.123ZM28.63,23.52H48.242v1.407H28.63Zm1.145,2.688h3.132v4.278H29.775ZM14.453,27.984c.587-2.106,3.685-3.57,4.557-3.944.872.374,3.97,1.838,4.557,3.944a2.881,2.881,0,0,1-.559,2.5H20.785A3.7,3.7,0,0,0,19.4,27.2a.641.641,0,0,0-.773,0,3.7,3.7,0,0,0-1.388,3.289H15.012a2.881,2.881,0,0,1-.559-2.5m4.557.632a2.25,2.25,0,0,1,.481,1.869H18.53a2.249,2.249,0,0,1,.48-1.869m-4.651,3.15H23l-1.228,1.778a.641.641,0,0,0,.527,1h1.167V35.5H14.36Zm-2.291,5.014h11.4V62.937H19.808a.641.641,0,0,0-.641.641v1.9H15.51a.641.641,0,0,0-.641.641v1.9h-2.8ZM16.15,66.756H60.721v1.257H16.15Z" transform="translate(0 0.001)" fill="#9c9c9c"/>
      </g>
    </g>
  </g>
</svg>
