<svg xmlns="http://www.w3.org/2000/svg" xmlns:xlink="http://www.w3.org/1999/xlink" width="54.18" height="61.74" viewBox="0 0 54.18 61.74">
  <defs>
    <clipPath id="clip-path">
      <rect id="Rectangle_2344" data-name="Rectangle 2344" width="54.175" height="61.741"/>
    </clipPath>
    <clipPath id="clip-Arts_Black">
      <rect width="54.18" height="61.74"/>
    </clipPath>
  </defs>
  <g id="Arts_Black" data-name="Arts Black" clip-path="url(#clip-Arts_Black)">
    <g id="Group_2996" data-name="Group 2996" transform="translate(0 0.1)">
      <g id="Group_2962" data-name="Group 2962" clip-path="url(#clip-path)">
        <path id="Path_2916" data-name="Path 2916" d="M307.628,0c1,.2,2.016.335,3,.6A16.738,16.738,0,0,1,323.035,17.42a14.351,14.351,0,0,1-.327,2.624,4.3,4.3,0,0,1-7.075,2.27,2.953,2.953,0,0,0-2.615-.92,2.706,2.706,0,0,0-1.458,4.538,4.364,4.364,0,0,1-3.283,7.462l-.205-1.688c.34-.061.632-.1.919-.167a2.517,2.517,0,0,0,1.413-4.172,5.063,5.063,0,0,1-1.354-2.631,4.5,4.5,0,0,1,2.261-4.622,4.453,4.453,0,0,1,5.162.554,2.94,2.94,0,0,0,1.957.932A2.525,2.525,0,0,0,321,19.508,14.981,14.981,0,0,0,308.785,2.041c-.869-.141-1.751-.2-2.725-.309V0Z" transform="translate(-269.153)"/>
        <path id="Path_2917" data-name="Path 2917" d="M5.246,494.882l-1.478-.722.659-1.626,1.635.66-.575,1.688Z" transform="translate(-3.314 -433.141)"/>
        <path id="Path_2918" data-name="Path 2918" d="M232.507,494.891l-.623-1.681,1.646-.665.675,1.633-1.577.713Z" transform="translate(-203.921 -433.15)"/>
        <path id="Path_2919" data-name="Path 2919" d="M16.278,274.528v12.259H14.489V274.62a1.482,1.482,0,0,0-.321-.085c-1.728-.006-3.457,0-5.185-.015-.38,0-.458.222-.567.492q-2.332,5.743-4.674,11.482c-.083.2-.172.4-.281.66L1.8,286.482,6.65,274.554H3.357v-1.82c1.088,0,2.152-.047,3.209.017a.989.989,0,0,0,1.162-.8c.276-.83.643-1.629,1-2.525H5.046c-.744,0-1.487.006-2.231,0a2.7,2.7,0,0,1-.685-5.336c.075-.02.149-.049.28-.092v-3.853H4.2v3.815H26.513v-2.73h1.808c0,.773.011,1.53,0,2.286-.007.338.054.516.446.627a2.693,2.693,0,0,1-.788,5.282c-1.948.014-3.9,0-5.964,0,.247.63.463,1.2.69,1.759.628,1.551.63,1.55,2.321,1.55h2.33V274.5h-3.3l4.87,11.984-1.663.687c-.655-1.6-1.292-3.16-1.926-4.717-1.006-2.471-2.019-4.939-3.007-7.417a.673.673,0,0,0-.741-.516c-1.745.025-3.49.01-5.311.01m-.91-6.911q6.236,0,12.473,0c.661,0,1.065-.344,1.071-.881s-.409-.894-1.052-.918c-.1,0-.2,0-.3,0q-12.2,0-24.4,0a1.4,1.4,0,0,0-.757.1,1.244,1.244,0,0,0-.541.766,1.224,1.224,0,0,0,.47.813c.165.139.494.113.749.113q6.146.009,12.292,0m-.927,1.809c-.991,0-1.917.052-2.833-.016a1.061,1.061,0,0,0-1.286.882c-.243.809-.623,1.578-.955,2.39H14.44Zm1.863,0v3.269h5.06c-.428-1.056-.824-2.056-1.247-3.045a.484.484,0,0,0-.37-.214c-1.123-.017-2.245-.01-3.443-.01" transform="translate(0 -228.772)"/>
        <path id="Path_2920" data-name="Path 2920" d="M184.769,32.468v1.793a16.233,16.233,0,0,1-12.741-5.785,16.1,16.1,0,0,1-2.821-17.462C171.6,5.122,176.222,1.825,182.55.749l.242,1.81A14.887,14.887,0,0,0,172.51,8.7a14.468,14.468,0,0,0-2.8,9.339A14.543,14.543,0,0,0,174.3,28.273a14.9,14.9,0,0,0,10.471,4.2" transform="translate(-147.573 -0.659)"/>
        <path id="Path_2921" data-name="Path 2921" d="M324.4,285.057l-1.224-1.294,5.8-5.781a30.208,30.208,0,0,1-2.253-2.7,4.839,4.839,0,0,1,3.854-7.458c.157-.007.315.016.537.029-.021.3-.038.572-.061.842s-.053.557-.084.872l-.584.085a3.014,3.014,0,0,0-2.129,4.669,9.112,9.112,0,0,0,1.829,1.971,2.862,2.862,0,0,0,3.821-.029,7.746,7.746,0,0,0,1.737-2.108,11.094,11.094,0,0,0,.9-5.209l-3.651,1.036v-1.754l4.152-1.583a1,1,0,0,0,1.3.481,30.924,30.924,0,0,1-.024,3.3,18.125,18.125,0,0,1-.722,3.709,6.448,6.448,0,0,1-4.6,4.521,4.223,4.223,0,0,1-1.668.064,1,1,0,0,0-.979.363c-1.962,1.986-3.939,3.957-5.952,5.974" transform="translate(-284.205 -234.496)"/>
        <path id="Path_2922" data-name="Path 2922" d="M48.276,69.67h1.748v.739q0,4.944,0,9.888a3.966,3.966,0,0,0,.019.6.869.869,0,0,0,.963.792.819.819,0,0,0,.815-.872c.017-1.125.007-2.251.01-3.376a2.749,2.749,0,0,1,2.684-3.077c.7-.1.928-.373.929-1.147q0-5.125,0-10.25v-.675h1.807v.655q0,5.095,0,10.19a2.69,2.69,0,0,1-2.643,3.029.948.948,0,0,0-.967,1.074c-.013,1.165.006,2.331-.007,3.5a2.7,2.7,0,1,1-5.4.09c-.033-3.657-.008-7.315-.005-10.973a1.032,1.032,0,0,1,.051-.185" transform="translate(-42.4 -54.781)"/>
        <path id="Path_2923" data-name="Path 2923" d="M25.68,32.916v1.751H22.214V58.44H20.443V32.916Z" transform="translate(-17.978 -28.947)"/>
        <path id="Path_2924" data-name="Path 2924" d="M251.316,355l1.331,1.337a3.326,3.326,0,0,1-.249.317c-1.22,1.223-2.427,2.458-3.67,3.658a3.311,3.311,0,0,1-5.575-1.914,3.043,3.043,0,0,1,.864-2.712c3.113-3.134,6.248-6.246,9.42-9.411l1.264,1.474a1.369,1.369,0,0,0-.442.243q-4.336,4.312-8.656,8.64a1.724,1.724,0,0,0-.667,1.474,1.431,1.431,0,0,0,.946,1.223,1.485,1.485,0,0,0,1.662-.373q1.667-1.656,3.321-3.325a5.1,5.1,0,0,0,.451-.63" transform="translate(-213.793 -304.514)"/>
        <path id="Path_2925" data-name="Path 2925" d="M85.76,2.721c.985,0,1.97-.014,2.954,0a2.7,2.7,0,0,1,2.727,2.585A2.618,2.618,0,0,1,88.987,8.08c-2.186.089-4.381.091-6.566,0a2.594,2.594,0,0,1-2.414-2.853,2.671,2.671,0,0,1,2.678-2.5c1.025-.019,2.05,0,3.075,0m0,1.8c-.962,0-1.924-.009-2.885,0-.676.009-1.054.338-1.059.885s.375.909,1.039.914q2.855.02,5.71,0a.949.949,0,0,0,1.07-.9c.007-.527-.4-.895-1.05-.9-.941-.013-1.883,0-2.825,0" transform="translate(-70.355 -2.388)"/>
        <path id="Path_2926" data-name="Path 2926" d="M331.794,77.617a4.5,4.5,0,1,1,4.511-4.454,4.514,4.514,0,0,1-4.511,4.454m-.019-1.809a2.7,2.7,0,0,0,.078-5.394,2.7,2.7,0,1,0-.078,5.394" transform="translate(-287.812 -60.334)"/>
        <path id="Path_2927" data-name="Path 2927" d="M240.4,154.751a4.512,4.512,0,0,1-9.024.018,4.512,4.512,0,1,1,9.024-.018m-1.807.011a2.707,2.707,0,0,0-2.694-2.732,2.747,2.747,0,0,0-2.716,2.728,2.711,2.711,0,0,0,2.682,2.686,2.672,2.672,0,0,0,2.728-2.682" transform="translate(-203.471 -132.109)"/>
        <path id="Path_2928" data-name="Path 2928" d="M234.867,61.575a4.507,4.507,0,1,1,4.514,4.517,4.5,4.5,0,0,1-4.514-4.517m1.8,0a2.7,2.7,0,0,0,5.4.04,2.722,2.722,0,0,0-2.689-2.745,2.693,2.693,0,0,0-2.716,2.7" transform="translate(-206.545 -50.179)"/>
        <rect id="Rectangle_2336" data-name="Rectangle 2336" width="1.728" height="4.973" transform="translate(9.472 8.471)"/>
        <path id="Path_2929" data-name="Path 2929" d="M200.206,124.079l-1.592.335a12.361,12.361,0,0,1-.077-5.236l1.668.309Z" transform="translate(-174.382 -104.807)"/>
        <path id="Path_2930" data-name="Path 2930" d="M312.9,31.012l-.609,1.544-4.2-.808V30.1a12.4,12.4,0,0,1,4.806.915" transform="translate(-270.943 -26.467)"/>
        <rect id="Rectangle_2337" data-name="Rectangle 2337" width="1.735" height="1.72" transform="translate(48.397 17.228)"/>
        <rect id="Rectangle_2338" data-name="Rectangle 2338" width="1.748" height="1.725" transform="translate(47.189 36.853)"/>
        <rect id="Rectangle_2339" data-name="Rectangle 2339" width="1.727" height="1.728" transform="translate(5.868 7.67)"/>
        <rect id="Rectangle_2340" data-name="Rectangle 2340" width="1.727" height="1.726" transform="translate(5.857 11.294)"/>
        <rect id="Rectangle_2341" data-name="Rectangle 2341" width="1.71" height="1.731" transform="translate(9.482 15.32)"/>
        <rect id="Rectangle_2342" data-name="Rectangle 2342" width="1.74" height="1.717" transform="translate(37.192 28.188)"/>
        <rect id="Rectangle_2343" data-name="Rectangle 2343" width="1.748" height="1.7" transform="translate(14.504 59.922)"/>
      </g>
    </g>
  </g>
</svg>
