<svg xmlns="http://www.w3.org/2000/svg" xmlns:xlink="http://www.w3.org/1999/xlink" width="79.93" height="70.03" viewBox="0 0 79.93 70.03">
  <defs>
    <clipPath id="clip-path">
      <rect id="Rectangle_56" data-name="Rectangle 56" width="79.93" height="70.029" fill="#9c9c9c"/>
    </clipPath>
    <clipPath id="clip-Chennai">
      <rect width="79.93" height="70.03"/>
    </clipPath>
  </defs>
  <g id="Chennai" clip-path="url(#clip-Chennai)">
    <g id="Group_3" data-name="Group 3" transform="translate(-0.44 0.28)">
      <g id="Group_59" data-name="Group 59" clip-path="url(#clip-path)">
        <path id="Path_2604" data-name="Path 2604" d="M74.828,68.7V39.137c0-.014,0-.027,0-.04a.677.677,0,0,0-.007-.071.632.632,0,0,0-.017-.07c0-.013,0-.026-.009-.039l-2.055-5.876V30.41a.666.666,0,1,0-1.332,0v2.073H69.545V30.41a.666.666,0,1,0-1.332,0v2.61l-2.062,5.9c0,.013-.006.026-.009.039a.632.632,0,0,0-.017.07.6.6,0,0,0-.007.071c0,.013,0,.026,0,.04v4.006H46.5V12.328a.666.666,0,0,0-1.332,0v1.644l-2-5.658V4.923a.666.666,0,1,0-1.332,0V7.768H40.631V.666a.666.666,0,1,0-1.332,0v7.1H38.092V4.923a.666.666,0,1,0-1.332,0V8.314l-2,5.658V12.328a.666.666,0,0,0-1.332,0V43.143H13.817V39.137c0-.014,0-.027,0-.04a.533.533,0,0,0-.024-.141c0-.013,0-.026-.009-.039l-2.062-5.9V30.41a.666.666,0,1,0-1.332,0v2.073H8.527V30.41a.666.666,0,1,0-1.332,0v2.63L5.139,38.917c0,.013-.006.026-.009.039a.633.633,0,0,0-.017.07.678.678,0,0,0-.007.071c0,.013,0,.026,0,.04V68.7H0v1.332H79.93V68.7ZM41.886,43.143a.666.666,0,0,0-.666.666V54.642H38.71V43.809a.666.666,0,0,0-1.332,0V54.642H34.76V26.106H45.17V54.642H42.552V43.809a.666.666,0,0,0-.666-.666M8.334,33.815h2.25l1.628,4.656H6.706ZM6.434,39.8h6.05V40.8H6.434Zm7.382,7.3H33.428V58.552H13.817ZM37.895,9.1h4.14l2.859,8.089H43.168V16.11a.666.666,0,0,0-.227-.5L40.4,13.389a.667.667,0,0,0-.878,0l-2.537,2.22a.666.666,0,0,0-.227.5v1.079H35.036ZM34.76,18.521h2v2.664a.666.666,0,0,0,.666.666H42.5a.666.666,0,0,0,.666-.666V18.521h2v6.253H34.76Zm7.076,2H38.093V16.412l1.871-1.637,1.871,1.637ZM46.5,55.309v-8.2H66.113V58.552H46.5ZM69.345,33.815H71.6l1.628,4.656H67.717Zm-1.9,5.988H73.5V40.8h-6.05Zm-1.332,5.972H46.5v-1.3H66.113Zm-32.685,0H13.816v-1.3H33.428ZM6.434,42.128h6.05V68.7H11.439V63.087a1.98,1.98,0,1,0-3.959,0V68.7H6.434ZM8.812,68.7V63.087a.647.647,0,1,1,1.295,0V68.7Zm5-8.813H33.428V68.7H31.494V63.087a1.98,1.98,0,1,0-3.959,0V68.7H25.6V63.087a1.979,1.979,0,1,0-3.959,0V68.7H19.709V63.087a1.98,1.98,0,1,0-3.959,0V68.7H13.817ZM17.082,68.7V63.087a.647.647,0,1,1,1.295,0V68.7Zm5.893,0V63.087a.647.647,0,1,1,1.294,0V68.7Zm5.892,0V63.087a.647.647,0,1,1,1.295,0V68.7Zm5.893-9.479V55.975H45.17V68.7H44.022V61.455a4.057,4.057,0,1,0-8.114,0V68.7H34.76ZM37.24,68.7V61.455a2.725,2.725,0,1,1,5.45,0V68.7ZM46.5,59.884H66.113V68.7H64.179V63.087a1.979,1.979,0,1,0-3.959,0V68.7H58.287V63.087a1.98,1.98,0,1,0-3.959,0V68.7H52.394V63.087a1.98,1.98,0,1,0-3.959,0V68.7H46.5ZM49.768,68.7V63.087a.647.647,0,1,1,1.295,0V68.7Zm5.893,0V63.087a.647.647,0,1,1,1.295,0V68.7Zm5.893,0V63.087a.647.647,0,1,1,1.294,0V68.7Zm8.27,0V63.087a.647.647,0,1,1,1.295,0V68.7Zm2.627,0V63.087a1.98,1.98,0,1,0-3.959,0V68.7H67.445V42.128H73.5V68.7Z" fill="#9c9c9c"/>
        <path id="Path_2605" data-name="Path 2605" d="M223.75,174.223a.666.666,0,0,0-.666-.666h-.8v-5.572a.666.666,0,1,0-1.332,0v5.572h-2.51v-5.572a.666.666,0,0,0-1.332,0v5.572h-.8a.666.666,0,1,0,0,1.332h6.782a.666.666,0,0,0,.666-.666" transform="translate(-179.728 -139.457)" fill="#9c9c9c"/>
        <path id="Path_2606" data-name="Path 2606" d="M236.19,103.463a.659.659,0,0,0,0,.939.66.66,0,0,0,.47.2.666.666,0,0,0,.473-1.136.686.686,0,0,0-.943,0" transform="translate(-196.696 -86.078)" fill="#9c9c9c"/>
        <path id="Path_2607" data-name="Path 2607" d="M413.287,263.51a1.982,1.982,0,0,0-1.98,1.979v10.776a.666.666,0,0,0,.666.666H414.6a.666.666,0,0,0,.666-.666V265.489a1.982,1.982,0,0,0-1.979-1.979m0,1.332a.648.648,0,0,1,.647.647v1.7h-1.295v-1.7a.648.648,0,0,1,.647-.647m-.647,3.677h1.295v7.08h-1.295Z" transform="translate(-342.816 -219.63)" fill="#9c9c9c"/>
        <path id="Path_2608" data-name="Path 2608" d="M291.535,293.615a.666.666,0,0,0-.666.666v7.077a.666.666,0,0,0,1.332,0v-7.077a.666.666,0,0,0-.666-.666" transform="translate(-242.434 -244.722)" fill="#9c9c9c"/>
        <path id="Path_2609" data-name="Path 2609" d="M307.311,293.615a.666.666,0,0,0-.666.666v7.077a.666.666,0,0,0,1.332,0v-7.077a.666.666,0,0,0-.666-.666" transform="translate(-255.582 -244.722)" fill="#9c9c9c"/>
        <path id="Path_2610" data-name="Path 2610" d="M326.922,293.615a.666.666,0,0,0-.666.666v7.077a.666.666,0,0,0,1.332,0v-7.077a.666.666,0,0,0-.666-.666" transform="translate(-271.928 -244.722)" fill="#9c9c9c"/>
        <path id="Path_2611" data-name="Path 2611" d="M342.7,293.615a.666.666,0,0,0-.666.666v7.077a.666.666,0,0,0,1.332,0v-7.077a.666.666,0,0,0-.666-.666" transform="translate(-285.076 -244.722)" fill="#9c9c9c"/>
        <path id="Path_2612" data-name="Path 2612" d="M362.309,293.615a.666.666,0,0,0-.666.666v7.077a.666.666,0,0,0,1.332,0v-7.077a.666.666,0,0,0-.666-.666" transform="translate(-301.422 -244.722)" fill="#9c9c9c"/>
        <path id="Path_2613" data-name="Path 2613" d="M378.082,293.615a.666.666,0,0,0-.666.666v7.077a.666.666,0,0,0,1.332,0v-7.077a.666.666,0,0,0-.666-.666" transform="translate(-314.569 -244.722)" fill="#9c9c9c"/>
        <path id="Path_2614" data-name="Path 2614" d="M45.584,276.932h2.627a.666.666,0,0,0,.666-.666V265.489a1.98,1.98,0,0,0-3.959,0v10.776a.666.666,0,0,0,.666.666m.666-8.413h1.295v7.08H46.25Zm.648-3.677a.648.648,0,0,1,.647.647v1.7H46.25v-1.7a.648.648,0,0,1,.648-.647" transform="translate(-37.438 -219.63)" fill="#9c9c9c"/>
        <path id="Path_2615" data-name="Path 2615" d="M181.8,293.615a.666.666,0,0,0-.666.666v7.077a.666.666,0,0,0,1.332,0v-7.077a.666.666,0,0,0-.666-.666" transform="translate(-150.969 -244.722)" fill="#9c9c9c"/>
        <path id="Path_2616" data-name="Path 2616" d="M166.021,293.615a.666.666,0,0,0-.666.666v7.077a.666.666,0,0,0,1.332,0v-7.077a.666.666,0,0,0-.666-.666" transform="translate(-137.82 -244.722)" fill="#9c9c9c"/>
        <path id="Path_2617" data-name="Path 2617" d="M146.41,293.615a.666.666,0,0,0-.666.666v7.077a.666.666,0,0,0,1.332,0v-7.077a.666.666,0,0,0-.666-.666" transform="translate(-121.475 -244.722)" fill="#9c9c9c"/>
        <path id="Path_2618" data-name="Path 2618" d="M130.637,293.615a.666.666,0,0,0-.666.666v7.077a.666.666,0,0,0,1.332,0v-7.077a.666.666,0,0,0-.666-.666" transform="translate(-108.328 -244.722)" fill="#9c9c9c"/>
        <path id="Path_2619" data-name="Path 2619" d="M111.025,293.615a.666.666,0,0,0-.666.666v7.077a.666.666,0,0,0,1.332,0v-7.077a.666.666,0,0,0-.666-.666" transform="translate(-91.982 -244.722)" fill="#9c9c9c"/>
        <path id="Path_2620" data-name="Path 2620" d="M95.25,293.615a.666.666,0,0,0-.666.666v7.077a.666.666,0,0,0,1.332,0v-7.077a.666.666,0,0,0-.666-.666" transform="translate(-78.834 -244.722)" fill="#9c9c9c"/>
      </g>
    </g>
  </g>
</svg>
