<svg xmlns="http://www.w3.org/2000/svg" xmlns:xlink="http://www.w3.org/1999/xlink" width="49" height="49" viewBox="0 0 49 49">
  <defs>
    <clipPath id="clip-path">
      <rect id="Rectangle_716" data-name="Rectangle 716" width="49" height="49" fill="#0f2f4f"/>
    </clipPath>
    <clipPath id="clip-Comm">
      <rect width="49" height="49"/>
    </clipPath>
  </defs>
  <g id="Comm" clip-path="url(#clip-Comm)">
    <g id="Group_727" data-name="Group 727" transform="translate(-68 -976)">
      <g id="Group_726" data-name="Group 726" transform="translate(68 976)">
        <g id="Group_725" data-name="Group 725">
          <g id="Group_724" data-name="Group 724" clip-path="url(#clip-path)">
            <path id="Path_3518" data-name="Path 3518" d="M24.021,0c1.419.261,2.9,1.97,2.446,3.45a1.058,1.058,0,0,1-1.635.381c-.623-.552.024-1.658-1.432-1.822-2.518-.282-5.553.2-8.127.008a1.113,1.113,0,0,0-.991.923l.07,43.239a1.018,1.018,0,0,0,1.009.81c2.564-.171,5.418.228,7.947,0a1.13,1.13,0,0,0,1.147-.767l.068-20.891a1.009,1.009,0,0,1,1.965-.1l.118,7.395H36.75V25.313c0-.813,1.842-1.331,2.012.093V46.276A3.173,3.173,0,0,1,36.271,49H27.084a6.164,6.164,0,0,1-1.578-.735A4.728,4.728,0,0,1,24.021,49H14.834a6.164,6.164,0,0,1-1.578-.735A4.728,4.728,0,0,1,11.771,49H2.584A3.3,3.3,0,0,1,0,46.416V14.738a3.271,3.271,0,0,1,2.561-2.463c2.885.116,6.022-.24,8.879-.028a2.442,2.442,0,0,1,.81.195V2.536a5.885,5.885,0,0,1,.346-.9A3.387,3.387,0,0,1,14.738,0ZM12.25,32.635V15.073a2.23,2.23,0,0,0-.385-.572,1.665,1.665,0,0,0-.716-.241c-2.469-.276-5.425.209-7.947,0-.448-.073-1.193.474-1.193.913V32.635Zm0,2.105H2.01v4.02H12.25Zm24.5,0H26.605v4.02H36.75Zm-24.5,6.125H2.01v5.216c0,.439.745.985,1.193.913,2.522-.213,5.478.272,7.947,0a1.666,1.666,0,0,0,.716-.241,2.23,2.23,0,0,0,.385-.572Zm24.5,0H26.605v5.5c0,.217.744.677,1,.622,2.565-.171,5.418.227,7.947,0a1.664,1.664,0,0,0,.808-.245,2.23,2.23,0,0,0,.385-.572Z" fill="#0f2f4f"/>
            <path id="Path_3519" data-name="Path 3519" d="M213.725,0c.29.16.766.552.766.909V18.375c.837-.016,1.639-.145,2.01.766v.574c-.284.383-.377.613-.907.672H192.907a1,1,0,0,1-.477-1.821c.463-.309,1.057-.159,1.579-.191V9.044c0-.426.609-.844,1.013-.9a44.027,44.027,0,0,1,6.362.033c.339.074.855.523.855.868v9.331h4.02V.909c0-.358.476-.749.766-.909Zm-1.34,2.01h-4.02V18.375h4.02Zm-12.25,8.23h-4.02v8.135h4.02Z" transform="translate(-167.5)" fill="#0f2f4f"/>
            <path id="Path_3520" data-name="Path 3520" d="M144.811,48.044a.95.95,0,0,1,1.127.647l-.027,33.474A1.02,1.02,0,0,1,144.019,82L143.97,49.12a1.041,1.041,0,0,1,.841-1.076" transform="translate(-125.599 -41.898)" fill="#0f2f4f"/>
          </g>
        </g>
      </g>
    </g>
  </g>
</svg>
