<svg xmlns="http://www.w3.org/2000/svg" xmlns:xlink="http://www.w3.org/1999/xlink" width="83.99" height="71.56" viewBox="0 0 83.99 71.56">
  <defs>
    <clipPath id="clip-path">
      <rect id="Rectangle_50" data-name="Rectangle 50" width="83.992" height="71.565" fill="#9c9c9c"/>
    </clipPath>
    <clipPath id="clip-Delhi">
      <rect width="83.99" height="71.56"/>
    </clipPath>
  </defs>
  <g id="Delhi" clip-path="url(#clip-Delhi)">
    <g id="Group_2" data-name="Group 2">
      <g id="Group_53" data-name="Group 53" transform="translate(0)">
        <g id="Group_52" data-name="Group 52" clip-path="url(#clip-path)">
          <path id="Path_2581" data-name="Path 2581" d="M127.343,188.39a3.15,3.15,0,1,0,3.15,3.15,3.153,3.153,0,0,0-3.15-3.15m0,4.9a1.75,1.75,0,1,1,1.75-1.75,1.752,1.752,0,0,1-1.75,1.75" transform="translate(-102.461 -155.425)" fill="#9c9c9c"/>
          <path id="Path_2582" data-name="Path 2582" d="M169.355,54.416a2.315,2.315,0,1,0,2.315,2.315,2.318,2.318,0,0,0-2.315-2.315m0,3.231a.916.916,0,1,1,.915-.916.916.916,0,0,1-.915.916" transform="translate(-137.811 -44.894)" fill="#9c9c9c"/>
          <path id="Path_2583" data-name="Path 2583" d="M291.015,54.416a2.315,2.315,0,1,0,2.315,2.315,2.318,2.318,0,0,0-2.315-2.315m0,3.231a.916.916,0,1,1,.915-.916.917.917,0,0,1-.915.916" transform="translate(-238.182 -44.894)" fill="#9c9c9c"/>
          <path id="Path_2584" data-name="Path 2584" d="M215.363,56.97h-12.08a.7.7,0,0,0-.7.7v2.337a.7.7,0,0,0,.7.7h12.08a.7.7,0,0,0,.7-.7V57.67a.7.7,0,0,0-.7-.7m-.7,2.337h-10.68V58.37h10.68Z" transform="translate(-167.135 -47.001)" fill="#9c9c9c"/>
          <path id="Path_2585" data-name="Path 2585" d="M322.94,194.689a3.15,3.15,0,1,0-3.15-3.15,3.153,3.153,0,0,0,3.15,3.15m0-4.9a1.75,1.75,0,1,1-1.75,1.75,1.752,1.752,0,0,1,1.75-1.75" transform="translate(-263.832 -155.425)" fill="#9c9c9c"/>
          <path id="Path_2586" data-name="Path 2586" d="M67.273,70.165V67.309a.7.7,0,0,0-.7-.7H64.855V50.344h.352a.7.7,0,0,0,0-1.4h-.352V43.728h.352a.7.7,0,0,0,0-1.4h-.352V25.234h1.724a.7.7,0,0,0,0-1.4H64.855V19.981a.7.7,0,0,0-.7-.7h-1.7V15.91a.7.7,0,0,0-.7-.7H59.277V7.765a.7.7,0,0,0-.7-.7H55.148V4.7a.7.7,0,0,0-.7-.7H49.221V.7a.7.7,0,0,0-.7-.7H35.856a.7.7,0,0,0-.7.7V4H29.929a.7.7,0,0,0-.7.7V7.065H25.8a.7.7,0,0,0-.7.7V15.21H22.624a.7.7,0,0,0-.7.7v3.371H19.837a.7.7,0,0,0-.7.7v3.853H17.413a.7.7,0,1,0,0,1.4h1.724V42.328h-.352a.7.7,0,0,0,0,1.4h.352v5.217h-.352a.7.7,0,1,0,0,1.4h.352V66.609H17.413a.7.7,0,0,0-.7.7v2.856H0v1.4H83.992v-1.4Zm-3.818-3.556H54.763V50.344h8.692ZM32.574,42.328H30.629v-9.7H41.3V34.27a9.547,9.547,0,0,0-8.722,8.058m-.11,1.445v5.171H30.629V43.728h1.837c0,.015,0,.03,0,.045M42.7,32.623H53.363v9.7H51.418A9.547,9.547,0,0,0,42.7,34.27Zm10.667,11.1v5.217H51.527V43.773c0-.015,0-.03,0-.045Zm-1.836,6.616h1.836l0,19.821H51.527Zm11.928-1.4H54.763V43.728h8.692ZM36.556,1.4H47.821V4H36.556Zm-5.927,4H53.748V7.065H30.629ZM26.5,8.465H57.878V15.21H26.5ZM23.324,16.61h37.73v2.671H23.324Zm-2.787,4.071H63.455v3.153H20.536Zm42.919,6.891H20.537V25.234H63.455Zm-42.919,1.4H63.455V42.328H54.763v-10.4a.7.7,0,0,0-.7-.7H29.929a.7.7,0,0,0-.7.7v10.4H20.536Zm0,14.756h8.693v5.217H20.536Zm0,6.616h8.693V66.609H20.536ZM18.113,68.009H29.226v2.156H18.113ZM30.629,50.344h1.836V70.165H30.629Zm3.235,19.821V43.773c0-.015,0-.03,0-.045h.97a.7.7,0,0,0,0-1.4H34a8.129,8.129,0,0,1,16,0h-.839a.7.7,0,1,0,0,1.4h.969c0,.015,0,.03,0,.045V70.165Zm20.9-2.156h11.11v2.156H54.763Z" fill="#9c9c9c"/>
        </g>
      </g>
    </g>
  </g>
</svg>
