<svg xmlns="http://www.w3.org/2000/svg" xmlns:xlink="http://www.w3.org/1999/xlink" width="53.18" height="53.02" viewBox="0 0 53.18 53.02">
  <defs>
    <clipPath id="clip-path">
      <rect id="Rectangle_2375" data-name="Rectangle 2375" width="53.175" height="53.016"/>
    </clipPath>
    <clipPath id="clip-Architecture_Black">
      <rect width="53.18" height="53.02"/>
    </clipPath>
  </defs>
  <g id="Architecture_Black" data-name="Architecture Black" clip-path="url(#clip-Architecture_Black)">
    <g id="Group_3001" data-name="Group 3001" transform="translate(0.34)" clip-path="url(#clip-path)">
      <path id="Path_3000" data-name="Path 3000" d="M0,7.61A7.271,7.271,0,0,1,1.291,4.656,6.008,6.008,0,0,1,5.735,2.3c.951-.059,1.191.186,1.191,1.166q0,3.3,0,6.595v.677c.214.011.4.03.577.03q11.578,0,23.156.008a1.105,1.105,0,0,0,.858-.366q4.706-4.73,9.43-9.441A2.431,2.431,0,0,1,44.831.964c.686.685,1.377,1.365,2.055,2.058a2.37,2.37,0,0,1,0,3.585C45.67,7.84,44.44,9.058,43.217,10.283c-.12.121-.235.246-.433.455.262.015.438.033.613.033q2.284,0,4.569,0c1.455,0,1.545.092,1.545,1.572v14.94l.116.069L51.348,25.6c.121-.123.246-.244.367-.368a.826.826,0,0,1,.976-.277.847.847,0,0,1,.484.892q-.005,5.634,0,11.268,0,7.322,0,14.644c0,1.058-.189,1.253-1.224,1.253h-25.7a2.661,2.661,0,0,1-.62-.031.77.77,0,0,1-.329-1.317c.48-.522,1-1.009,1.5-1.511l2.964-2.964h-.717q-11.448,0-22.9,0A5.757,5.757,0,0,1,.694,43.987,12.627,12.627,0,0,1,0,41.888V7.61M1.559,37.468A6.188,6.188,0,0,1,4.87,35.582c.387-.072.509-.21.5-.6-.023-1.419-.014-2.839-.005-4.258,0-.591.281-.927.739-.948s.811.342.815.937q.019,2.674,0,5.349c-.006.631-.3.885-.936.939a6.2,6.2,0,0,0-.923.123A4.411,4.411,0,0,0,1.8,42.653a4.316,4.316,0,0,0,4.342,2.975q12.384.006,24.767-.011a1.136,1.136,0,0,0,.708-.3c.95-.909,1.865-1.855,2.8-2.776a.8.8,0,0,1,1.159-.067.781.781,0,0,1-.052,1.158c-.092.1-.194.2-.292.3q-3.526,3.527-7.052,7.055c-.127.127-.244.264-.41.444h23.8v-3.7c-.439,0-.835.007-1.231,0-.6-.012-.913-.274-.925-.75-.012-.5.318-.788.934-.807.408-.012.817,0,1.264,0,0-.707,0-1.344,0-1.982,0-.1-.015-.2-.027-.355h-.632c-.225,0-.451.011-.675,0-.576-.04-.885-.341-.863-.823.021-.459.321-.714.892-.731.426-.013.852,0,1.265,0V39.912c-.455,0-.87.01-1.284,0-.561-.017-.89-.33-.874-.809.015-.454.335-.732.881-.745.426-.01.853,0,1.284,0V35.987c-.427,0-.822.005-1.217,0-.626-.01-.953-.283-.949-.778s.34-.765.963-.78c.394-.009.788,0,1.2,0V27.6c-.188.179-.326.3-.457.436L38.2,40.962c-.585.585-1.051.686-1.416.308-.381-.394-.288-.815.315-1.418q5.232-5.233,10.468-10.461a1.159,1.159,0,0,0,.39-.9q-.02-7.764-.009-15.528v-.625h-.618c-1.869,0-3.739.009-5.608-.008a1.214,1.214,0,0,0-.955.389q-7.588,7.613-15.19,15.213a3.5,3.5,0,0,1-1.425.891c-1.272.42-2.527.888-3.789,1.337l.015.1H35.2c.75,0,1.129.258,1.139.769s-.373.789-1.111.79q-1.272,0-2.544,0-9.242,0-18.485,0c-.656,0-1.012-.28-1.012-.775s.356-.777,1.012-.783c.606,0,1.213-.029,1.817.009a.593.593,0,0,0,.7-.481q1.126-3.285,2.308-6.551a2.491,2.491,0,0,1,.539-.86c1.035-1.069,2.1-2.113,3.15-3.165a3.438,3.438,0,0,1,.3-.283.767.767,0,0,1,1.068,1.1,6.4,6.4,0,0,1-.468.485c-.875.875-1.751,1.75-2.6,2.6l3.52,3.553L40.606,10.594,37.014,7.006a3.657,3.657,0,0,1-.322.42q-5.007,5.017-10.022,10.026c-.158.158-.328.393-.513.413a1.216,1.216,0,0,1-.874-.171c-.165-.156-.152-.556-.124-.839.015-.156.214-.3.347-.437q1.813-1.822,3.633-3.637c.113-.113.22-.232.378-.4H6.927v.661q0,6.959,0,13.918a2.744,2.744,0,0,1-.062.668.687.687,0,0,1-.77.551.691.691,0,0,1-.7-.639,4.622,4.622,0,0,1-.028-.673q0-11.114,0-22.227V3.9a8.268,8.268,0,0,0-.961.293A4.547,4.547,0,0,0,1.561,8.674q-.007,14.1,0,28.2v.595M44.371,6.835c.5-.48,1.048-.974,1.557-1.507a.691.691,0,0,0,.023-.992c-.831-.875-1.686-1.728-2.556-2.564a.684.684,0,0,0-.991-.006c-.543.521-1.041,1.088-1.514,1.588l3.481,3.481M43.157,8.09l-3.486-3.5L38.323,5.913,41.785,9.4,43.157,8.09m-22.978,16.6c-.9,2.08-.9,2.08.457,3.372.038.036.068.09.112.106.1.038.232.108.321.078.665-.222,1.323-.465,1.96-.693l-2.849-2.863" transform="translate(0 0)"/>
      <path id="Path_3001" data-name="Path 3001" d="M292.991,297.708c-1.315,0-2.631,0-3.946,0-.425,0-.813-.064-.984-.506a.9.9,0,0,1,.331-1.015q4.1-4.089,8.188-8.188a.832.832,0,0,1,1.512.625c0,2.683,0,5.366,0,8.05,0,.752-.29,1.028-1.047,1.031-1.35.005-2.7,0-4.05,0m3.507-7.182-5.591,5.591H296.5Z" transform="translate(-250.55 -250.217)"/>
    </g>
  </g>
</svg>
