<svg xmlns="http://www.w3.org/2000/svg" xmlns:xlink="http://www.w3.org/1999/xlink" width="58" height="53.66" viewBox="0 0 58 53.66">
  <defs>
    <clipPath id="clip-Law_White_1">
      <rect width="58" height="53.66"/>
    </clipPath>
  </defs>
  <g id="Law_White_1" data-name="Law White – 1" clip-path="url(#clip-Law_White_1)">
    <g id="Group_2997" data-name="Group 2997" transform="translate(-1145.857 -1083.863)">
      <path id="Path_144" data-name="Path 144" d="M1174.117,765.933l-17.161,8.376c-.526.254-.526.67,0,.925l2.2,1.079c-.023,2.443-.011,4.89-.011,7.335a.933.933,0,1,0,1.867,0v-6.428l2.281,1.115v6.954a3.288,3.288,0,0,0,1.677,2.918c6.439,3.575,13.281,3.389,20.1-.041a3.164,3.164,0,0,0,1.744-2.88v-6.956l6.35-3.1c.514-.254.514-.667,0-.922l-17.161-8.375A2.43,2.43,0,0,0,1174.117,765.933Zm.939,1.387,15.271,7.45-15.271,7.45-15.26-7.45Zm9.894,11.92v6.045a2.075,2.075,0,0,1-.7,1.2c-6.428,3.222-12.432,3.373-18.368.077a2.277,2.277,0,0,1-.715-1.28v-6.043l8.955,4.366a2.43,2.43,0,0,0,1.889,0Zm-26.764,9.7c-2.885,0-5.109,2.612-5.109,5.683a6.062,6.062,0,0,0,1.33,3.814h-1.878c-3.667,0-6.529,3.326-6.529,7.287s2.862,7.286,6.529,7.286h27.737v5.46a.933.933,0,0,0,1.688.548l3.309-4.589,3.052,4.436a.938.938,0,0,0,1.711-.533v-5.322h13.024a.94.94,0,0,0,.939-.936,1.229,1.229,0,0,0-1.084-1.036c-.659-.068-1.084-1.022-1.275-1.554a12.475,12.475,0,0,1-.57-4.04,12.662,12.662,0,0,1,.6-3.937,3.227,3.227,0,0,1,.559-1.04c.212-.267.536-.134.85-.156a.936.936,0,0,0,0-1.871h-6.943a3.39,3.39,0,0,1-.4-.932,13.18,13.18,0,0,1-.391-3.055,10.582,10.582,0,0,1,.3-2.942c.1-.358.235-.608.548-.654a1.016,1.016,0,0,0,.738-.98.932.932,0,0,0-.939-.935h-7.669a.934.934,0,1,0,0,1.868h5.579a12.2,12.2,0,0,0-.436,3.671,14.414,14.414,0,0,0,.469,3.534c.045.145.078.286.134.422h-35.875a3.866,3.866,0,0,1,0-7.63l3.387.006a.934.934,0,1,0,0-1.868Zm2.649,4.747a.936.936,0,1,0,0,1.872l28.441,0a.936.936,0,0,0,0-1.871Zm-8.318,6.622h47.6c-.078.179-.156.363-.224.556a14.024,14.024,0,0,0-.7,4.558,13.741,13.741,0,0,0,.671,4.691,6.162,6.162,0,0,0,.458,1.023h-10.3v-4.48h5.869a.934.934,0,1,0,0-1.868h-41.588a.934.934,0,0,0,0,1.868h25.959v4.48h-27.737c-2.527,0-4.662-2.339-4.662-5.416s2.135-5.415,4.662-5.415Zm29.615,6.348h6.015v8.669l-2.1-3.055a.937.937,0,0,0-1.531-.013l-2.381,3.314Z" transform="translate(-0.143 318.121)"/>
    </g>
  </g>
</svg>
