<svg xmlns="http://www.w3.org/2000/svg" xmlns:xlink="http://www.w3.org/1999/xlink" width="54" height="54" viewBox="0 0 54 54">
  <defs>
    <clipPath id="clip-path">
      <rect id="Rectangle_2359" data-name="Rectangle 2359" width="54" height="53.996"/>
    </clipPath>
    <clipPath id="clip-Engineering_Black">
      <rect width="54" height="54"/>
    </clipPath>
  </defs>
  <g id="Engineering_Black" data-name="Engineering Black" clip-path="url(#clip-Engineering_Black)">
    <g id="Group_2994" data-name="Group 2994" transform="translate(-1046.021 -801)">
      <g id="Group_2980" data-name="Group 2980" transform="translate(1046.021 801)">
        <g id="Group_2979" data-name="Group 2979" clip-path="url(#clip-path)">
          <path id="Path_2980" data-name="Path 2980" d="M0,25.412c.038-.258.088-.514.114-.773a2.561,2.561,0,0,1,2.273-2.392c.8-.12,1.6-.247,2.387-.409a.618.618,0,0,0,.4-.366,23.706,23.706,0,0,1,2.5-6.01.676.676,0,0,0-.053-.586c-.454-.689-.957-1.345-1.429-2.022a2.414,2.414,0,0,1,.14-3.2c1.08-1.174,2.215-2.3,3.388-3.384a2.407,2.407,0,0,1,3.112-.138q1.042.717,2.055,1.474a.493.493,0,0,0,.651.031A20.888,20.888,0,0,1,21.384,5.2a.564.564,0,0,0,.5-.547c.1-.765.249-1.524.368-2.287A2.52,2.52,0,0,1,24.741.088c.4-.03.805-.078,1.209-.088A1.787,1.787,0,0,1,27.9,1.876c.024,1.16.006,2.32.007,3.48q0,1.634,0,3.269c0,1.471-.6,2.1-2.08,2.215a15.445,15.445,0,0,0-10.252,4.7c-4.425,4.57-5.867,10.04-4.038,16.121S17.617,41.446,23.8,42.883c.8.186,1.635.213,2.452.322a1.731,1.731,0,0,1,1.632,1.756c.029,2.425.022,4.85,0,7.275A1.847,1.847,0,0,1,26.474,54H25.208A3.245,3.245,0,0,0,24.8,53.9a2.542,2.542,0,0,1-2.559-2.384c-.119-.745-.264-1.486-.369-2.233a.493.493,0,0,0-.44-.48,21.2,21.2,0,0,1-5.9-2.457.493.493,0,0,0-.651.031c-.688.516-1.386,1.021-2.1,1.5a2.409,2.409,0,0,1-3.026-.133c-1.169-1.086-2.311-2.207-3.394-3.378a2.432,2.432,0,0,1-.142-3.279c.464-.661.955-1.3,1.4-1.978a.677.677,0,0,0,.05-.587,23.779,23.779,0,0,1-2.5-6.008.618.618,0,0,0-.4-.367c-.79-.162-1.589-.286-2.386-.411A2.572,2.572,0,0,1,.109,29.3c-.021-.242-.072-.482-.109-.722V25.412M26.067,1.787c-.443.036-.825.079-1.207.1a.788.788,0,0,0-.828.773c-.152,1.007-.333,2.009-.5,3.014-.127.775-.258.933-1.041,1.109a20.608,20.608,0,0,0-6.622,2.759c-.632.4-.85.386-1.478-.063-.843-.6-1.688-1.2-2.527-1.811a.76.76,0,0,0-1.09.053q-1.516,1.5-3.019,3.012a.808.808,0,0,0-.043,1.178c.625.848,1.225,1.716,1.849,2.565a1.042,1.042,0,0,1,.045,1.311A20.276,20.276,0,0,0,6.76,22.648a1.011,1.011,0,0,1-.922.866c-1.058.166-2.112.357-3.171.515a.761.761,0,0,0-.754.791q-.023,2.184,0,4.368a.745.745,0,0,0,.716.771c1.041.162,2.077.356,3.119.509a1.092,1.092,0,0,1,1.028.948,19.989,19.989,0,0,0,2.813,6.767,1.071,1.071,0,0,1-.037,1.357c-.616.833-1.214,1.68-1.814,2.524-.377.531-.387.776.073,1.251.952.984,1.937,1.935,2.9,2.906a.825.825,0,0,0,1.217.072c.849-.625,1.716-1.225,2.563-1.851a1.034,1.034,0,0,1,1.309-.036,20.076,20.076,0,0,0,6.815,2.832,1.061,1.061,0,0,1,.913,1c.15,1.042.345,2.078.506,3.119.057.369.218.653.592.713.46.075.93.087,1.422.129.013-.2.03-.336.031-.474.007-2.074,0-4.148.026-6.221.006-.45-.163-.536-.57-.585a22.828,22.828,0,0,1-3.007-.493A18,18,0,0,1,23.883,9.265c.718-.119,1.443-.2,2.184-.3Z" transform="translate(0 0.001)"/>
          <path id="Path_2981" data-name="Path 2981" d="M104.527,26.191v1.8h.617q4.456,0,8.912,0a2.067,2.067,0,0,1,.623.066.82.82,0,0,1,.614.927.835.835,0,0,1-.785.791,4.318,4.318,0,0,1-.527.011h-9.425V32.5h14.006c.946,0,1.246-.289,1.249-1.214,0-1.3,0-2.6.006-3.9a.581.581,0,0,0-.346-.616,2.649,2.649,0,0,1-1.342-3.168,2.694,2.694,0,0,1,5.259.48,2.617,2.617,0,0,1-1.323,2.615.77.77,0,0,0-.457.82c.021,1.283.013,2.566.007,3.849a2.729,2.729,0,0,1-2.93,2.934q-6.776,0-13.553,0h-.594v2.665c.21.009.4.025.584.025q9.861,0,19.722.007a.7.7,0,0,0,.736-.418,2.659,2.659,0,0,1,3.061-1.283,2.7,2.7,0,0,1-.022,5.2,2.651,2.651,0,0,1-3.052-1.3.663.663,0,0,0-.7-.4q-9.888.012-19.775.007c-.172,0-.343.016-.55.026v2.664h.611q6.7,0,13.394,0a2.766,2.766,0,0,1,3.063,3.068c0,1.283,0,2.566,0,3.85a.58.58,0,0,0,.338.622,2.653,2.653,0,0,1,1.366,3.07,2.7,2.7,0,1,1-3.836-3.109.713.713,0,0,0,.318-.5c.026-1.371.023-2.742.011-4.113-.007-.757-.346-1.085-1.113-1.085q-6.882-.006-13.764,0c-.119,0-.238.02-.389.033V46h9.408c.176,0,.353-.007.527.01a.887.887,0,0,1,.129,1.751,2.623,2.623,0,0,1-.576.035q-4.43,0-8.859,0h-.619v1.8h.567c1.512,0,3.023,0,4.535,0a2.7,2.7,0,0,1,2.94,2.955c0,1.6.009,3.2-.006,4.8a.655.655,0,0,0,.394.7,2.652,2.652,0,0,1,1.332,3.04,2.7,2.7,0,0,1-5.214.04,2.655,2.655,0,0,1,1.332-3.085.581.581,0,0,0,.369-.6c-.014-1.652,0-3.3-.008-4.957,0-.771-.319-1.086-1.09-1.088-1.687,0-3.375-.007-5.062.007a.708.708,0,0,0-.491.189,1.783,1.783,0,0,1-1.635.656,13.7,13.7,0,0,1-8.469-3.6c-4.28-3.965-5.825-8.881-4.311-14.5,1.5-5.581,5.306-8.992,10.926-10.342a14.785,14.785,0,0,1,2.034-.264,1.662,1.662,0,0,1,1.4.592.881.881,0,0,0,.565.252c1.687.019,3.375.014,5.062.01.743,0,1.065-.317,1.067-1.055.007-1.67,0-3.34.009-5.01a.547.547,0,0,0-.344-.564,2.656,2.656,0,0,1-1.363-3.071,2.7,2.7,0,0,1,5.228.033,2.654,2.654,0,0,1-1.362,3.027.619.619,0,0,0-.371.658q.018,2.452,0,4.9a2.68,2.68,0,0,1-2.91,2.875q-2.294,0-4.588,0h-.571m-1.852-.878a12.307,12.307,0,0,0-9.953,6.3,12.041,12.041,0,0,0,.37,13.174,12.267,12.267,0,0,0,9.583,5.687Zm9.914-9.9a.891.891,0,0,0-.882-.915.921.921,0,0,0-.9.909.9.9,0,0,0,.871.878.867.867,0,0,0,.913-.872m-.883,44.1a.9.9,0,0,0-.9.9.923.923,0,0,0,.925.887.892.892,0,0,0,.861-.884.868.868,0,0,0-.884-.9m16.207-20.721a.9.9,0,0,0,.891-.912.892.892,0,0,0-.93-.866.873.873,0,0,0-.857.879.888.888,0,0,0,.9.9M120.72,23.509a.888.888,0,0,0-.051,1.775.888.888,0,1,0,.051-1.775m-.038,27a.887.887,0,0,0,.025,1.774.888.888,0,1,0-.025-1.774" transform="translate(-76.605 -10.899)"/>
        </g>
      </g>
    </g>
  </g>
</svg>
