<svg xmlns="http://www.w3.org/2000/svg" xmlns:xlink="http://www.w3.org/1999/xlink" width="50" height="50.1" viewBox="0 0 50 50.1">
  <defs>
    <clipPath id="clip-Medical_White_1">
      <rect width="50" height="50.1"/>
    </clipPath>
  </defs>
  <g id="Medical_White_1" data-name="Medical White – 1" clip-path="url(#clip-Medical_White_1)">
    <g id="Group_2995" data-name="Group 2995" transform="translate(-1148.295 -909.9)">
      <g id="Group_1752" data-name="Group 1752" transform="translate(1148.295 910)">
        <path id="Path_119" data-name="Path 119" d="M1191.745,628.777v-7.205a8.032,8.032,0,1,0-16.065,0v12.947a6.7,6.7,0,0,1-13.4,0V623.357h.9a1.782,1.782,0,0,0,1.781-1.786v-2.284a13.4,13.4,0,0,0,9.824-12.894.891.891,0,0,0-.9-.893H1173v-7.144a3.584,3.584,0,0,0-3.573-3.571h-.9v-.893a.891.891,0,0,0-.9-.893h-1.781a2.678,2.678,0,1,0,0,5.357h1.781a.891.891,0,0,0,.9-.893v-.893h.9a1.784,1.784,0,0,1,1.782,1.786v7.263a2.645,2.645,0,0,0-1.886,2.076,8.04,8.04,0,0,1-15.867,0,2.646,2.646,0,0,0-1.885-2.076v-7.263a1.783,1.783,0,0,1,1.781-1.786h.9v.893a.891.891,0,0,0,.9.893h1.781a2.678,2.678,0,1,0,0-5.357h-1.781a.891.891,0,0,0-.9.893v.893h-.9a3.565,3.565,0,0,0-2.521,1.047,3.633,3.633,0,0,0-1.052,2.524V605.5h-.885a.891.891,0,0,0-.9.893,13.4,13.4,0,0,0,9.824,12.894v2.284a1.782,1.782,0,0,0,1.781,1.786h.9v11.161a8.48,8.48,0,1,0,16.961,0V621.571a6.251,6.251,0,0,1,12.5,0v7.205a7.15,7.15,0,1,0,1.781,0Zm-24.993-32.205h-.9a.913.913,0,0,1-.635-.261.895.895,0,0,1,0-1.263.913.913,0,0,1,.635-.262h.9Zm-10.72-1.786h.9a.893.893,0,1,1,0,1.786h-.9Zm-6.209,12.5h.979a.891.891,0,0,1,.9.7,9.824,9.824,0,0,0,19.388,0,.891.891,0,0,1,.9-.7h.979a11.6,11.6,0,0,1-23.138,0Zm9.782,12.366a12.035,12.035,0,0,0,3.573,0v1.919h-3.573Zm31.254,21.562a5.344,5.344,0,0,1-4.949-3.307,5.429,5.429,0,0,1-.313-3.1,5.363,5.363,0,0,1,7.314-3.9,5.36,5.36,0,0,1-2.052,10.307Z" transform="translate(-1148 -593)"/>
        <path id="Path_120" data-name="Path 120" d="M1189.137,630.71a3.415,3.415,0,0,0-3.167,2.114,3.457,3.457,0,0,0,.739,3.733,3.425,3.425,0,1,0,2.428-5.847Zm0,5.137a1.7,1.7,0,0,1-.949-.289,1.714,1.714,0,0,1,.61-3.1,1.709,1.709,0,0,1,.989.1,1.716,1.716,0,0,1,1.059,1.583,1.71,1.71,0,0,1-1.708,1.712Z" transform="translate(-1145.984 -590.984)"/>
      </g>
    </g>
  </g>
</svg>
