<svg xmlns="http://www.w3.org/2000/svg" width="48.46" height="45.457" viewBox="0 0 48.46 45.457">
  <g id="Group_2861" data-name="Group 2861" transform="translate(-695.859 -1086.533)">
    <path id="Path_138" data-name="Path 138" d="M735.5,771.016l-.538.455-.466-.465a2.492,2.492,0,1,0-3.524,3.524l4.041,4.042,4.041-4.042a2.5,2.5,0,1,0-3.556-3.514Zm-.476-1.458a3.68,3.68,0,0,1,5.044.414,3.937,3.937,0,0,1,0,5.571l-5.065,5.066-5.064-5.066a3.94,3.94,0,0,1,5.085-5.985Zm-31.567,1.458-.538.455-.466-.465a2.489,2.489,0,1,0-3.525,3.514l4.041,4.041,4.042-4.041a2.5,2.5,0,1,0-3.556-3.5Zm-.476-1.458a3.679,3.679,0,0,1,5.043.414,3.935,3.935,0,0,1,0,5.571l-5.064,5.066-5.065-5.066a3.94,3.94,0,0,1,5.086-5.985Zm10.5,39.278v-5.323h1.447v6.027l.228,2.626H722.8l.228-2.626v-6.016h1.447v5.323h1.241l.31-6.895a2.281,2.281,0,0,0-1.458-2.264l-3.483-1.416a5.033,5.033,0,0,1-4.227,0l-3.463,1.406a2.3,2.3,0,0,0-1.458,2.264l.31,6.894Zm5.5-20.166a5.036,5.036,0,0,1,3.535,8.62l2.6,1.065a4.3,4.3,0,0,1,1.013.6l-.155-3.411a3.728,3.728,0,0,1,2.356-3.67l2.606-1.064a5.028,5.028,0,1,1,7.049,0l2.6,1.064a3.758,3.758,0,0,1,2.357,3.67l-.372,8.28h-2.688l-.29,3.318H729.32l-.289-3.318h-1.644l-.29,6.48h-2.688l-.29,3.318H713.837l-.29-3.318H710.86l-.29-6.48h-1.643l-.289,3.318H698.353l-.29-3.318h-2.688l-.372-8.28a3.729,3.729,0,0,1,2.357-3.67l2.6-1.064a5.032,5.032,0,1,1,7.06,0l2.6,1.064a3.744,3.744,0,0,1,2.357,3.67l-.155,3.411a3.976,3.976,0,0,1,1.012-.6l2.606-1.065a5.034,5.034,0,0,1,3.535-8.62Zm2.532,2.491a3.581,3.581,0,1,0,0,5.065A3.588,3.588,0,0,0,721.516,791.161Zm7.463,11.2v-5.323h1.447v6.016l.228,2.626h7.638l.228-2.626v-6.016h1.447v5.323h1.241l.31-6.895a2.3,2.3,0,0,0-1.458-2.274l-3.483-1.416a5.035,5.035,0,0,1-4.228,0l-3.483,1.416a2.3,2.3,0,0,0-1.458,2.274l.311,6.895ZM737,784.681a3.581,3.581,0,1,0,0,5.064A3.586,3.586,0,0,0,737,784.681Zm-39,17.675v-5.323h1.448v6.016l.227,2.626H707.3l.228-2.626v-6.016h1.447v5.323h1.241l.31-6.895a2.3,2.3,0,0,0-1.458-2.274l-3.483-1.416a5.033,5.033,0,0,1-4.227,0l-3.484,1.416a2.3,2.3,0,0,0-1.458,2.274l.311,6.895Zm8.032-17.675a3.581,3.581,0,1,0,0,5.064A3.587,3.587,0,0,0,706.033,784.681ZM719.48,774.53l-.537.466-.465-.466a3.794,3.794,0,0,0-5.365,5.365l5.872,5.881,5.881-5.881a3.8,3.8,0,0,0,0-5.365C722.365,772.018,719.791,774.272,719.48,774.53ZM719,773.062a4.947,4.947,0,0,1,6.874.424,5.24,5.24,0,0,1,0,7.411l-6.9,6.895-6.884-6.884A5.239,5.239,0,0,1,719,773.062Z" transform="translate(1.11 318.119)" stroke="#0f2f4f" stroke-width="0.5"/>
  </g>
</svg>
