<svg xmlns="http://www.w3.org/2000/svg" xmlns:xlink="http://www.w3.org/1999/xlink" width="75.33" height="66.03" viewBox="0 0 75.33 66.03">
  <defs>
    <clipPath id="clip-path">
      <rect id="Rectangle_68" data-name="Rectangle 68" width="75.331" height="66.026" fill="#9c9c9c"/>
    </clipPath>
    <clipPath id="clip-Hyderabad">
      <rect width="75.33" height="66.03"/>
    </clipPath>
  </defs>
  <g id="Hyderabad" clip-path="url(#clip-Hyderabad)">
    <g id="Group_8" data-name="Group 8" transform="translate(-0.12 0.28)">
      <g id="Group_81" data-name="Group 81" clip-path="url(#clip-path)">
        <path id="Path_2767" data-name="Path 2767" d="M65.937,64.77V43.139h.358a.628.628,0,0,0,0-1.256h-.358V39.2h.358a.628.628,0,0,0,0-1.256h-.358v-2.68h.358a.628.628,0,1,0,0-1.256H64.361V24.626h1.394a.628.628,0,1,0,0-1.256h-.263v-1.92h.263a.628.628,0,0,0,0-1.256H63.466V13.425h1.326a.628.628,0,1,0,0-1.256h-.076V10.25h.076a.628.628,0,0,0,0-1.256H64.1a3.187,3.187,0,0,0,.618-1.977c-.005-2.46-3-4.038-4.416-4.646V.628a.628.628,0,1,0-1.256,0V2.371c-1.415.608-4.411,2.186-4.416,4.646A3.188,3.188,0,0,0,55.248,9a.627.627,0,0,0-.618.627V12.8a.628.628,0,0,0,.628.628h.622V20.2h-1.4a.628.628,0,0,0-.628.628V24a.628.628,0,0,0,.628.628h.5v4.066H20.346V24.626h1.394a.628.628,0,0,0,0-1.256h-.263v-1.92h.263a.628.628,0,0,0,0-1.256H19.452V13.425h1.326a.628.628,0,1,0,0-1.256H20.7V10.25h.076a.628.628,0,1,0,0-1.256h-.694A3.188,3.188,0,0,0,20.7,7.017c-.005-2.46-3-4.038-4.416-4.646V.628a.628.628,0,1,0-1.256,0V2.372c-1.415.608-4.41,2.185-4.415,4.646a3.187,3.187,0,0,0,.618,1.977h-.694a.628.628,0,1,0,0,1.256h.076v1.919h-.076a.628.628,0,1,0,0,1.256h1.326V20.2H9.577a.628.628,0,1,0,0,1.256H9.84v1.92H9.577a.628.628,0,1,0,0,1.256h1.394v9.387H9.037a.628.628,0,1,0,0,1.256h.357v2.68H9.037a.628.628,0,0,0,0,1.256h.357v2.679H9.037a.628.628,0,0,0,0,1.256h.357V64.77H0v1.256H75.331V64.77ZM58.378,43.139H60.9V64.77H58.378ZM54.6,39.2H64.682v2.679H54.6Zm-4.948,2.679V39.343a.642.642,0,0,1,.333-.487.642.642,0,0,1,.333.487v2.541Zm.575-4.314a.629.629,0,0,0-.484,0A1.994,1.994,0,0,0,48.4,39.343v2.541H46.643V39.343A1.994,1.994,0,0,0,45.3,37.569a.629.629,0,0,0-.484,0,1.994,1.994,0,0,0-1.346,1.774v2.541H41.714V39.343a1.994,1.994,0,0,0-1.346-1.774.629.629,0,0,0-.484,0,1.994,1.994,0,0,0-1.346,1.774v2.541H36.785V39.343a1.993,1.993,0,0,0-1.346-1.774.629.629,0,0,0-.484,0,1.993,1.993,0,0,0-1.347,1.774v2.541H31.856V39.343a1.994,1.994,0,0,0-1.346-1.774.629.629,0,0,0-.484,0,1.993,1.993,0,0,0-1.347,1.774v2.541H26.927V39.343a1.993,1.993,0,0,0-1.347-1.774.628.628,0,0,0-.484,0,1.994,1.994,0,0,0-1.346,1.774v2.541H21.988V35.269H53.343v6.615H51.572V39.343a1.994,1.994,0,0,0-1.346-1.774m-5.5,4.314V39.343a.642.642,0,0,1,.333-.487.642.642,0,0,1,.333.487v2.541Zm-4.929,0V39.343a.643.643,0,0,1,.333-.487.642.642,0,0,1,.333.487v2.541Zm-4.929,0V39.343a.642.642,0,0,1,.333-.487.642.642,0,0,1,.333.487v2.541Zm-4.929,0V39.343a.643.643,0,0,1,.333-.487.642.642,0,0,1,.333.487v2.541Zm-4.263,0h-.665V39.343a.642.642,0,0,1,.333-.487.642.642,0,0,1,.333.487ZM10.65,35.269H20.724v2.68H10.65Zm0,3.935H20.724v2.679H10.65Zm3.78,3.935h2.524V64.77H14.43Zm3.779,0h2.524V64.77H18.209Zm46.473-5.19H54.6v-2.68H64.682ZM64.237,23.37H62.906v-1.92h1.331Zm-6.606-1.92h1.382V23.37H57.631Zm2.637,0H61.65V23.37H60.268Zm-1.607-11.2H60.62v1.919H58.661Zm-2.154,1.919h-.622V10.25h1.52v1.919Zm5.368-1.919h1.586v1.919H61.875Zm-2.2-6.78c.991.413,3.784,1.738,3.788,3.551a2,2,0,0,1-1.436,1.974H57.32A2,2,0,0,1,55.885,7.02c0-1.812,2.8-3.138,3.788-3.551m2.538,9.955V20.2H57.135V13.425Zm-7.1,8.026h1.266v1.92H55.11Zm8,12.562H56.241V24.626h6.864Zm-8.12-4.066v4.066H20.346V29.947ZM20.222,23.37H18.956v-1.92h1.266Zm-9.127,0v-1.92h1.331v1.92H11.1Zm2.587-1.92h1.382V23.37H13.682Zm2.637,0H17.7V23.37H16.319Zm-1.607-11.2h1.959v1.919H14.712Zm-2.219,1.919h-.622V10.25h1.586v1.919Zm5.433-1.919h1.52v1.919h-1.52ZM11.871,7.02c0-1.813,2.8-3.138,3.788-3.551.991.413,3.784,1.738,3.788,3.551a2,2,0,0,1-1.435,1.974H13.307A2,2,0,0,1,11.871,7.02Zm6.326,6.4V20.2H13.121V13.425Zm-5.97,11.2h6.864v9.387H12.227ZM10.65,43.139h2.524V64.77H10.65Zm11.339,0h3.683V64.77H21.988ZM29.736,64.77V56.135c0-3.756,2.025-4.543,4.37-5.454.183-.071.366-.142.548-.215a11.02,11.02,0,0,0,3.007-1.551,11.022,11.022,0,0,0,3.009,1.551c.181.072.363.143.546.214,2.345.911,4.37,1.7,4.37,5.454V64.77Zm17.107,0V56.135c0-4.616-2.867-5.729-5.171-6.624-.179-.07-.358-.139-.537-.21a7.592,7.592,0,0,1-2.982-1.669.649.649,0,0,0-.983,0A7.594,7.594,0,0,1,34.187,49.3c-.177.071-.356.14-.535.21-2.3.9-5.171,2.009-5.171,6.624V64.77H26.927V43.139H48.4V64.77ZM49.66,43.139h3.683V64.77H49.66Zm4.939,0h2.524V64.77H54.6Zm7.559,0h2.524V64.77H62.158Z" fill="#9c9c9c"/>
        <path id="Path_2768" data-name="Path 2768" d="M183.63,286.626a2.157,2.157,0,1,0,2.157,2.157,2.16,2.16,0,0,0-2.157-2.157m0,3.059a.9.9,0,1,1,.9-.9.9.9,0,0,1-.9.9" transform="translate(-152.993 -241.643)" fill="#9c9c9c"/>
        <path id="Path_2769" data-name="Path 2769" d="M273.137,286.626a2.157,2.157,0,1,0,2.157,2.157,2.16,2.16,0,0,0-2.157-2.157m0,3.059a.9.9,0,1,1,.9-.9.9.9,0,0,1-.9.9" transform="translate(-228.452 -241.643)" fill="#9c9c9c"/>
        <path id="Path_2770" data-name="Path 2770" d="M76.528,252.812a.628.628,0,0,0-.628.628v.479a.628.628,0,1,0,1.256,0v-.479a.628.628,0,0,0-.628-.628" transform="translate(-63.988 -213.136)" fill="#9c9c9c"/>
        <path id="Path_2771" data-name="Path 2771" d="M96.61,254.546a.628.628,0,0,0,.628-.628v-.479a.628.628,0,0,0-1.256,0v.479a.628.628,0,0,0,.628.628" transform="translate(-80.919 -213.136)" fill="#9c9c9c"/>
        <path id="Path_2772" data-name="Path 2772" d="M116.692,254.546a.628.628,0,0,0,.628-.628v-.479a.628.628,0,0,0-1.256,0v.479a.628.628,0,0,0,.628.628" transform="translate(-97.849 -213.136)" fill="#9c9c9c"/>
        <path id="Path_2773" data-name="Path 2773" d="M76.528,227.739a.628.628,0,0,0-.628.628v.479a.628.628,0,0,0,1.256,0v-.479a.628.628,0,0,0-.628-.628" transform="translate(-63.988 -191.998)" fill="#9c9c9c"/>
        <path id="Path_2774" data-name="Path 2774" d="M96.61,227.739a.628.628,0,0,0-.628.628v.479a.628.628,0,0,0,1.256,0v-.479a.628.628,0,0,0-.628-.628" transform="translate(-80.919 -191.998)" fill="#9c9c9c"/>
        <path id="Path_2775" data-name="Path 2775" d="M116.692,227.739a.628.628,0,0,0-.628.628v.479a.628.628,0,0,0,1.256,0v-.479a.628.628,0,0,0-.628-.628" transform="translate(-97.849 -191.998)" fill="#9c9c9c"/>
        <path id="Path_2776" data-name="Path 2776" d="M396.73,252.812a.628.628,0,0,0-.628.628v.479a.628.628,0,1,0,1.256,0v-.479a.628.628,0,0,0-.628-.628" transform="translate(-333.938 -213.136)" fill="#9c9c9c"/>
        <path id="Path_2777" data-name="Path 2777" d="M376.648,252.812a.628.628,0,0,0-.628.628v.479a.628.628,0,1,0,1.256,0v-.479a.628.628,0,0,0-.628-.628" transform="translate(-317.007 -213.136)" fill="#9c9c9c"/>
        <path id="Path_2778" data-name="Path 2778" d="M356.566,252.812a.628.628,0,0,0-.628.628v.479a.628.628,0,1,0,1.256,0v-.479a.628.628,0,0,0-.628-.628" transform="translate(-300.077 -213.136)" fill="#9c9c9c"/>
        <path id="Path_2779" data-name="Path 2779" d="M396.73,227.739a.628.628,0,0,0-.628.628v.479a.628.628,0,1,0,1.256,0v-.479a.628.628,0,0,0-.628-.628" transform="translate(-333.938 -191.998)" fill="#9c9c9c"/>
        <path id="Path_2780" data-name="Path 2780" d="M376.648,227.739a.628.628,0,0,0-.628.628v.479a.628.628,0,1,0,1.256,0v-.479a.628.628,0,0,0-.628-.628" transform="translate(-317.007 -191.998)" fill="#9c9c9c"/>
        <path id="Path_2781" data-name="Path 2781" d="M356.566,227.739a.628.628,0,0,0-.628.628v.479a.628.628,0,1,0,1.256,0v-.479a.628.628,0,0,0-.628-.628" transform="translate(-300.077 -191.998)" fill="#9c9c9c"/>
        <path id="Path_2782" data-name="Path 2782" d="M157.458,201.007a.628.628,0,0,0,.628-.628V199.9a.628.628,0,1,0-1.256,0v.479a.628.628,0,0,0,.628.628" transform="translate(-132.217 -167.999)" fill="#9c9c9c"/>
        <path id="Path_2783" data-name="Path 2783" d="M175.052,201.007a.628.628,0,0,0,.628-.628V199.9a.628.628,0,1,0-1.256,0v.479a.628.628,0,0,0,.628.628" transform="translate(-147.05 -167.999)" fill="#9c9c9c"/>
        <path id="Path_2784" data-name="Path 2784" d="M192.646,201.007a.628.628,0,0,0,.628-.628V199.9a.628.628,0,1,0-1.256,0v.479a.628.628,0,0,0,.628.628" transform="translate(-161.883 -167.999)" fill="#9c9c9c"/>
        <path id="Path_2785" data-name="Path 2785" d="M210.239,201.007a.628.628,0,0,0,.628-.628V199.9a.628.628,0,1,0-1.256,0v.479a.628.628,0,0,0,.628.628" transform="translate(-176.715 -167.999)" fill="#9c9c9c"/>
        <path id="Path_2786" data-name="Path 2786" d="M227.833,201.007a.628.628,0,0,0,.628-.628V199.9a.628.628,0,1,0-1.255,0v.479a.628.628,0,0,0,.628.628" transform="translate(-191.547 -167.999)" fill="#9c9c9c"/>
        <path id="Path_2787" data-name="Path 2787" d="M245.425,201.007a.628.628,0,0,0,.628-.628V199.9a.628.628,0,1,0-1.256,0v.479a.628.628,0,0,0,.628.628" transform="translate(-206.378 -167.999)" fill="#9c9c9c"/>
        <path id="Path_2788" data-name="Path 2788" d="M263.019,201.007a.628.628,0,0,0,.628-.628V199.9a.628.628,0,1,0-1.256,0v.479a.628.628,0,0,0,.628.628" transform="translate(-221.211 -167.999)" fill="#9c9c9c"/>
        <path id="Path_2789" data-name="Path 2789" d="M280.612,201.007a.628.628,0,0,0,.628-.628V199.9a.628.628,0,0,0-1.256,0v.479a.628.628,0,0,0,.628.628" transform="translate(-236.043 -167.999)" fill="#9c9c9c"/>
        <path id="Path_2790" data-name="Path 2790" d="M298.206,201.007a.628.628,0,0,0,.628-.628V199.9a.628.628,0,1,0-1.256,0v.479a.628.628,0,0,0,.628.628" transform="translate(-250.876 -167.999)" fill="#9c9c9c"/>
        <path id="Path_2791" data-name="Path 2791" d="M315.8,201.007a.628.628,0,0,0,.628-.628V199.9a.628.628,0,1,0-1.255,0v.479a.628.628,0,0,0,.628.628" transform="translate(-265.709 -167.999)" fill="#9c9c9c"/>
        <path id="Path_2792" data-name="Path 2792" d="M333.394,201.007a.628.628,0,0,0,.628-.628V199.9a.628.628,0,1,0-1.256,0v.479a.628.628,0,0,0,.628.628" transform="translate(-280.541 -167.999)" fill="#9c9c9c"/>
        <path id="Path_2793" data-name="Path 2793" d="M139.864,201.007a.628.628,0,0,0,.628-.628V199.9a.628.628,0,1,0-1.256,0v.479a.628.628,0,0,0,.628.628" transform="translate(-117.384 -167.999)" fill="#9c9c9c"/>
      </g>
    </g>
  </g>
</svg>
