<svg id="Group_2929" data-name="Group 2929" xmlns="http://www.w3.org/2000/svg" xmlns:xlink="http://www.w3.org/1999/xlink" width="83.992" height="76.048" viewBox="0 0 83.992 76.048">
  <defs>
    <clipPath id="clip-path">
      <rect id="Rectangle_2333" data-name="Rectangle 2333" width="83.992" height="76.048" fill="#787878" stroke="#dcdcdc" stroke-width="0.5"/>
    </clipPath>
  </defs>
  <g id="Group_2928" data-name="Group 2928" clip-path="url(#clip-path)">
    <path id="Path_2867" data-name="Path 2867" d="M78.415,74.648v-9.23h.7a.7.7,0,0,0,0-1.4h-.7V46.984h.7a.7.7,0,0,0,0-1.4h-.7V36.6h.7a.7.7,0,0,0,0-1.4h-.7V26.222h.7a.7.7,0,0,0,0-1.4h-.7V15.841h.7a.7.7,0,0,0,0-1.4h-.7V7.981h.35a.7.7,0,0,0,0-1.4H76.016V5.123a2.31,2.31,0,1,0-4.62,0V6.581H68.647a.7.7,0,1,0,0,1.4H69v6.461h-3.77V12.881a2.31,2.31,0,1,0-4.621,0v1.561H53.866V12.881a2.31,2.31,0,1,0-4.62,0v1.561H47.527V7.981h.35a.7.7,0,1,0,0-1.4h-.35V5.123a2.306,2.306,0,0,0-3.519-1.965A2.32,2.32,0,0,0,42.7,2.088V.7a.7.7,0,0,0-1.4,0V2.088a2.322,2.322,0,0,0-1.312,1.07,2.305,2.305,0,0,0-3.519,1.965V6.581h-.35a.7.7,0,1,0,0,1.4h.35v6.461h-1.72V12.881a2.31,2.31,0,1,0-4.62,0v1.561H23.386V12.881a2.31,2.31,0,1,0-4.62,0v1.561H15V7.981h.35a.7.7,0,0,0,0-1.4H12.6V5.123a2.31,2.31,0,0,0-4.621,0V6.581H5.227a.7.7,0,0,0,0,1.4h.35v6.461h-.7a.7.7,0,1,0,0,1.4h.7v8.981h-.7a.7.7,0,1,0,0,1.4h.7V35.2h-.7a.7.7,0,0,0,0,1.4h.7v8.981h-.7a.7.7,0,0,0,0,1.4h.7V64.018h-.7a.7.7,0,1,0,0,1.4h.7v9.23H0v1.4H83.992v-1.4ZM62.006,12.881a.91.91,0,1,1,1.821,0v1.458H62.006Zm-11.36,0a.91.91,0,1,1,1.821,0v1.458H50.646Zm-19.121,0a.91.91,0,1,1,1.821,0v1.458H31.525Zm-11.36,0a.91.91,0,1,1,1.821,0v1.458H20.165ZM68.988,64.018H56.836V57.365H68.988Zm-55.393,0H6.977V57.365H13.6ZM6.977,15.841H13.6v8.981h-2.61V19.936a.7.7,0,1,0-1.4,0v4.887H6.977Zm70.039,0v8.981H74.406V19.936a.7.7,0,1,0-1.4,0v4.887H70.4V15.841Zm0,40.124H70.4V46.984h6.619ZM27.156,45.584H15V36.6H27.156ZM15,46.984H27.156v8.981H15ZM28.556,36.6h26.88v8.981H28.556ZM69,45.584H56.836V36.6H69Zm-12.161,1.4H69v8.981H56.836Zm20.179-1.4H70.4V36.6h6.619Zm0-10.381H74.406V30.317a.7.7,0,1,0-1.4,0V35.2H70.4V26.222h6.619ZM69,35.2H56.836V26.222H69Zm-13.56,0H28.556V26.222h26.88Zm-28.28,0H15V26.222H27.156ZM6.977,26.222H13.6V35.2h-2.61V30.317a.7.7,0,1,0-1.4,0V35.2H6.977Zm0,10.381H13.6v8.981H6.977Zm0,10.381H13.6v8.981H6.977ZM15,57.365H27.156v6.653H15Zm13.56-10.381h26.88v8.981H28.556ZM70.388,57.365h6.619v6.653H70.388ZM72.8,5.123a.91.91,0,1,1,1.82,0V6.581H72.8Zm4.22,2.858v6.461H74.406V12.348a.7.7,0,1,0-1.4,0v2.093H70.4V7.981ZM69,24.822H56.836V15.841H69Zm-13.56,0H28.556V15.841h26.88ZM45.217,4.212a.911.911,0,0,1,.91.91V6.581H44.306V5.123a.911.911,0,0,1,.91-.91m-4.131.077a.911.911,0,0,1,1.821,0V6.581H41.085V4.289Zm-3.221.834a.91.91,0,1,1,1.821,0V6.581H37.865Zm0,2.858h8.262v6.461H37.865ZM27.156,24.822H15V15.841H27.156ZM9.375,5.123a.91.91,0,0,1,1.821,0V6.581H9.375ZM13.6,7.981v6.461h-2.61V12.348a.7.7,0,1,0-1.4,0v2.093H6.977V7.981ZM6.977,65.417H27.156v9.23H6.977Zm21.579-.7V57.365H55.428v7.353a.658.658,0,0,0,.008.081v9.849H48.347V68.48a2.313,2.313,0,0,0-1.2-2.141,4.107,4.107,0,0,0,.4-2.747,4.684,4.684,0,0,0-3.58-3.769c-1.021-.256-1.257-.605-1.289-.662a.7.7,0,0,0-1.353,0c-.032.057-.268.406-1.289.662a4.684,4.684,0,0,0-3.58,3.769,4.108,4.108,0,0,0,.4,2.747,2.313,2.313,0,0,0-1.2,2.141v6.167H28.556Zm8.489,9.93V68.48A1,1,0,0,1,38.1,67.406a.7.7,0,0,0,.39-1.276,2.29,2.29,0,0,1-.666-2.288,3.318,3.318,0,0,1,2.542-2.661A4.319,4.319,0,0,0,42,60.455a4.323,4.323,0,0,0,1.625.727,3.318,3.318,0,0,1,2.543,2.661A2.292,2.292,0,0,1,45.5,66.13a.7.7,0,0,0,.384,1.276,1,1,0,0,1,1.065,1.074v6.167Zm19.791,0v-9.23H77.015v9.23Z" fill="#787878" stroke="#dcdcdc" stroke-width="0.5"/>
    <path id="Path_2868" data-name="Path 2868" d="M175.45,337.831h-3.56a.7.7,0,0,0-.7.7v4.9a.7.7,0,0,0,.7.7h3.56a.7.7,0,0,0,.7-.7v-4.9a.7.7,0,0,0-.7-.7m-.7,4.9h-2.16v-3.5h2.16Z" transform="translate(-141.236 -278.716)" fill="#787878" stroke="#dcdcdc" stroke-width="0.5"/>
    <path id="Path_2869" data-name="Path 2869" d="M281.167,344.134h3.559a.7.7,0,0,0,.7-.7v-4.9a.7.7,0,0,0-.7-.7h-3.559a.7.7,0,0,0-.7.7v4.9a.7.7,0,0,0,.7.7m.7-4.9h2.16v3.5h-2.16Z" transform="translate(-231.39 -278.716)" fill="#787878" stroke="#dcdcdc" stroke-width="0.5"/>
    <path id="Path_2870" data-name="Path 2870" d="M194.572,276.16H171.891a.7.7,0,0,0-.7.7v4.9a.7.7,0,0,0,.7.7h22.681a.7.7,0,0,0,.7-.7v-4.9a.7.7,0,0,0-.7-.7m-21.981,1.4h2.16v3.5h-2.16Zm3.56,0h14.162v3.5H176.15Zm17.722,3.5h-2.16v-3.5h2.16Z" transform="translate(-141.236 -227.837)" fill="#787878" stroke="#dcdcdc" stroke-width="0.5"/>
    <path id="Path_2871" data-name="Path 2871" d="M171.891,163.812h3.56a.7.7,0,0,0,.7-.7v-4.9a.7.7,0,0,0-.7-.7h-3.56a.7.7,0,0,0-.7.7v4.9a.7.7,0,0,0,.7.7m.7-4.9h2.16v3.5h-2.16Z" transform="translate(-141.236 -129.948)" fill="#787878" stroke="#dcdcdc" stroke-width="0.5"/>
    <path id="Path_2872" data-name="Path 2872" d="M281.167,163.812h3.559a.7.7,0,0,0,.7-.7v-4.9a.7.7,0,0,0-.7-.7h-3.559a.7.7,0,0,0-.7.7v4.9a.7.7,0,0,0,.7.7m.7-4.9h2.16v3.5h-2.16Z" transform="translate(-231.39 -129.948)" fill="#787878" stroke="#dcdcdc" stroke-width="0.5"/>
    <path id="Path_2873" data-name="Path 2873" d="M226.528,163.812h3.559a.7.7,0,0,0,.7-.7v-4.9a.7.7,0,0,0-.7-.7h-3.559a.7.7,0,0,0-.7.7v4.9a.7.7,0,0,0,.7.7m.7-4.9h2.16v3.5h-2.16Z" transform="translate(-186.312 -129.948)" fill="#787878" stroke="#dcdcdc" stroke-width="0.5"/>
    <path id="Path_2874" data-name="Path 2874" d="M173.67,216.835a2.483,2.483,0,0,0-2.48,2.48v3.123a.7.7,0,0,0,.7.7h3.56a.7.7,0,0,0,.7-.7v-3.123a2.483,2.483,0,0,0-2.48-2.48m1.08,4.9h-2.16v-2.423a1.08,1.08,0,0,1,2.16,0Z" transform="translate(-141.236 -178.893)" fill="#787878" stroke="#dcdcdc" stroke-width="0.5"/>
    <path id="Path_2875" data-name="Path 2875" d="M282.946,216.835a2.483,2.483,0,0,0-2.48,2.48v3.123a.7.7,0,0,0,.7.7h3.56a.7.7,0,0,0,.7-.7v-3.123a2.483,2.483,0,0,0-2.48-2.48m1.08,4.9h-2.16v-2.423a1.08,1.08,0,0,1,2.16,0Z" transform="translate(-231.389 -178.893)" fill="#787878" stroke="#dcdcdc" stroke-width="0.5"/>
    <path id="Path_2876" data-name="Path 2876" d="M217.142,219.386a2.293,2.293,0,0,0-1.209.345,2.306,2.306,0,0,0-4.024,0,2.306,2.306,0,0,0-3.519,1.965v2.158a.7.7,0,0,0,.7.7h9.662a.7.7,0,0,0,.7-.7V221.7a2.313,2.313,0,0,0-2.31-2.31m-7.352,2.31a.91.91,0,0,1,1.821,0v1.458H209.79Zm3.221,0v-.834a.911.911,0,0,1,1.821,0v2.292h-1.821Zm5.042,1.458h-1.821V221.7a.91.91,0,0,1,1.821,0Z" transform="translate(-171.925 -180.309)" fill="#787878" stroke="#dcdcdc" stroke-width="0.5"/>
    <path id="Path_2877" data-name="Path 2877" d="M173.67,98.184a2.483,2.483,0,0,0-2.48,2.48v3.123a.7.7,0,0,0,.7.7h3.56a.7.7,0,0,0,.7-.7v-3.123a2.483,2.483,0,0,0-2.48-2.48m1.08,4.9h-2.16v-2.423a1.08,1.08,0,1,1,2.16,0Z" transform="translate(-141.236 -81.003)" fill="#787878" stroke="#dcdcdc" stroke-width="0.5"/>
    <path id="Path_2878" data-name="Path 2878" d="M281.167,104.486h3.559a.7.7,0,0,0,.7-.7v-3.123a2.48,2.48,0,1,0-4.959,0v3.123a.7.7,0,0,0,.7.7m.7-3.823a1.08,1.08,0,1,1,2.16,0v2.423h-2.16Z" transform="translate(-231.39 -81.003)" fill="#787878" stroke="#dcdcdc" stroke-width="0.5"/>
    <path id="Path_2879" data-name="Path 2879" d="M215.933,101.079a2.306,2.306,0,0,0-4.024,0,2.306,2.306,0,0,0-3.519,1.965V105.2a.7.7,0,0,0,.7.7h9.662a.7.7,0,0,0,.7-.7v-2.158a2.306,2.306,0,0,0-3.519-1.965m-6.143,1.965a.91.91,0,1,1,1.821,0V104.5H209.79Zm3.221,0v-.834a.911.911,0,0,1,1.821,0V104.5h-1.821Zm5.042,0V104.5h-1.821v-1.458a.91.91,0,0,1,1.821,0" transform="translate(-171.925 -82.419)" fill="#787878" stroke="#dcdcdc" stroke-width="0.5"/>
    <path id="Path_2880" data-name="Path 2880" d="M182.061,388.865a.7.7,0,0,0-.7.7v3.23a.7.7,0,1,0,1.4,0v-3.23a.7.7,0,0,0-.7-.7" transform="translate(-149.626 -320.82)" fill="#787878" stroke="#dcdcdc" stroke-width="0.5"/>
    <path id="Path_2881" data-name="Path 2881" d="M291.337,388.865a.7.7,0,0,0-.7.7v3.23a.7.7,0,1,0,1.4,0v-3.23a.7.7,0,0,0-.7-.7" transform="translate(-239.781 -320.82)" fill="#787878" stroke="#dcdcdc" stroke-width="0.5"/>
    <path id="Path_2882" data-name="Path 2882" d="M139.962,281.863a.7.7,0,0,0-.7.7v2.907a.7.7,0,1,0,1.4,0v-2.907a.7.7,0,0,0-.7-.7" transform="translate(-114.894 -232.542)" fill="#787878" stroke="#dcdcdc" stroke-width="0.5"/>
    <path id="Path_2883" data-name="Path 2883" d="M94.229,281.863a.7.7,0,0,0-.7.7v2.907a.7.7,0,1,0,1.4,0v-2.907a.7.7,0,0,0-.7-.7" transform="translate(-77.163 -232.542)" fill="#787878" stroke="#dcdcdc" stroke-width="0.5"/>
    <path id="Path_2884" data-name="Path 2884" d="M112.664,281.863h-2.411a.7.7,0,0,0-.7.7v2.907a.7.7,0,0,0,.7.7h2.411a.7.7,0,0,0,.7-.7v-2.907a.7.7,0,0,0-.7-.7m-.7,2.907h-1.011v-1.507h1.011Z" transform="translate(-90.383 -232.542)" fill="#787878" stroke="#dcdcdc" stroke-width="0.5"/>
    <path id="Path_2885" data-name="Path 2885" d="M139.962,226.844a.7.7,0,0,0,.7-.7v-2.907a.7.7,0,0,0-1.4,0v2.907a.7.7,0,0,0,.7.7" transform="translate(-114.894 -183.597)" fill="#787878" stroke="#dcdcdc" stroke-width="0.5"/>
    <path id="Path_2886" data-name="Path 2886" d="M94.229,226.844a.7.7,0,0,0,.7-.7v-2.907a.7.7,0,0,0-1.4,0v2.907a.7.7,0,0,0,.7.7" transform="translate(-77.163 -183.597)" fill="#787878" stroke="#dcdcdc" stroke-width="0.5"/>
    <path id="Path_2887" data-name="Path 2887" d="M110.253,226.844h2.411a.7.7,0,0,0,.7-.7v-2.907a.7.7,0,0,0-.7-.7h-2.411a.7.7,0,0,0-.7.7v2.907a.7.7,0,0,0,.7.7m.7-2.907h1.011v1.508h-1.011Z" transform="translate(-90.383 -183.597)" fill="#787878" stroke="#dcdcdc" stroke-width="0.5"/>
    <path id="Path_2888" data-name="Path 2888" d="M139.962,167.518a.7.7,0,0,0,.7-.7v-2.907a.7.7,0,0,0-1.4,0v2.907a.7.7,0,0,0,.7.7" transform="translate(-114.894 -134.652)" fill="#787878" stroke="#dcdcdc" stroke-width="0.5"/>
    <path id="Path_2889" data-name="Path 2889" d="M94.229,167.518a.7.7,0,0,0,.7-.7v-2.907a.7.7,0,0,0-1.4,0v2.907a.7.7,0,0,0,.7.7" transform="translate(-77.163 -134.652)" fill="#787878" stroke="#dcdcdc" stroke-width="0.5"/>
    <path id="Path_2890" data-name="Path 2890" d="M110.253,167.517h2.411a.7.7,0,0,0,.7-.7V163.91a.7.7,0,0,0-.7-.7h-2.411a.7.7,0,0,0-.7.7v2.908a.7.7,0,0,0,.7.7m.7-2.908h1.011v1.507h-1.011Z" transform="translate(-90.383 -134.651)" fill="#787878" stroke="#dcdcdc" stroke-width="0.5"/>
    <path id="Path_2891" data-name="Path 2891" d="M139.962,108.194a.7.7,0,0,0,.7-.7v-2.907a.7.7,0,1,0-1.4,0v2.907a.7.7,0,0,0,.7.7" transform="translate(-114.894 -85.709)" fill="#787878" stroke="#dcdcdc" stroke-width="0.5"/>
    <path id="Path_2892" data-name="Path 2892" d="M94.229,108.194a.7.7,0,0,0,.7-.7v-2.907a.7.7,0,1,0-1.4,0v2.907a.7.7,0,0,0,.7.7" transform="translate(-77.163 -85.709)" fill="#787878" stroke="#dcdcdc" stroke-width="0.5"/>
    <path id="Path_2893" data-name="Path 2893" d="M110.253,108.193h2.411a.7.7,0,0,0,.7-.7v-2.907a.7.7,0,0,0-.7-.7h-2.411a.7.7,0,0,0-.7.7v2.907a.7.7,0,0,0,.7.7m.7-2.907h1.011v1.507h-1.011Z" transform="translate(-90.383 -85.708)" fill="#787878" stroke="#dcdcdc" stroke-width="0.5"/>
    <path id="Path_2894" data-name="Path 2894" d="M379.122,281.863a.7.7,0,0,0-.7.7v2.907a.7.7,0,1,0,1.4,0v-2.907a.7.7,0,0,0-.7-.7" transform="translate(-312.205 -232.542)" fill="#787878" stroke="#dcdcdc" stroke-width="0.5"/>
    <path id="Path_2895" data-name="Path 2895" d="M333.391,281.863a.7.7,0,0,0-.7.7v2.907a.7.7,0,1,0,1.4,0v-2.907a.7.7,0,0,0-.7-.7" transform="translate(-274.476 -232.542)" fill="#787878" stroke="#dcdcdc" stroke-width="0.5"/>
    <path id="Path_2896" data-name="Path 2896" d="M351.826,281.863h-2.411a.7.7,0,0,0-.7.7v2.907a.7.7,0,0,0,.7.7h2.411a.7.7,0,0,0,.7-.7v-2.907a.7.7,0,0,0-.7-.7m-.7,2.907h-1.011v-1.507h1.011Z" transform="translate(-287.696 -232.542)" fill="#787878" stroke="#dcdcdc" stroke-width="0.5"/>
    <path id="Path_2897" data-name="Path 2897" d="M379.122,226.844a.7.7,0,0,0,.7-.7v-2.907a.7.7,0,1,0-1.4,0v2.907a.7.7,0,0,0,.7.7" transform="translate(-312.205 -183.597)" fill="#787878" stroke="#dcdcdc" stroke-width="0.5"/>
    <path id="Path_2898" data-name="Path 2898" d="M333.391,226.844a.7.7,0,0,0,.7-.7v-2.907a.7.7,0,0,0-1.4,0v2.907a.7.7,0,0,0,.7.7" transform="translate(-274.476 -183.597)" fill="#787878" stroke="#dcdcdc" stroke-width="0.5"/>
    <path id="Path_2899" data-name="Path 2899" d="M349.415,226.844h2.411a.7.7,0,0,0,.7-.7v-2.907a.7.7,0,0,0-.7-.7h-2.411a.7.7,0,0,0-.7.7v2.907a.7.7,0,0,0,.7.7m.7-2.907h1.011v1.508h-1.011Z" transform="translate(-287.696 -183.597)" fill="#787878" stroke="#dcdcdc" stroke-width="0.5"/>
    <path id="Path_2900" data-name="Path 2900" d="M379.122,167.518a.7.7,0,0,0,.7-.7v-2.907a.7.7,0,1,0-1.4,0v2.907a.7.7,0,0,0,.7.7" transform="translate(-312.205 -134.652)" fill="#787878" stroke="#dcdcdc" stroke-width="0.5"/>
    <path id="Path_2901" data-name="Path 2901" d="M333.391,167.518a.7.7,0,0,0,.7-.7v-2.907a.7.7,0,0,0-1.4,0v2.907a.7.7,0,0,0,.7.7" transform="translate(-274.476 -134.652)" fill="#787878" stroke="#dcdcdc" stroke-width="0.5"/>
    <path id="Path_2902" data-name="Path 2902" d="M349.415,167.517h2.411a.7.7,0,0,0,.7-.7V163.91a.7.7,0,0,0-.7-.7h-2.411a.7.7,0,0,0-.7.7v2.908a.7.7,0,0,0,.7.7m.7-2.908h1.011v1.507h-1.011Z" transform="translate(-287.696 -134.651)" fill="#787878" stroke="#dcdcdc" stroke-width="0.5"/>
    <path id="Path_2903" data-name="Path 2903" d="M379.122,108.194a.7.7,0,0,0,.7-.7v-2.907a.7.7,0,1,0-1.4,0v2.907a.7.7,0,0,0,.7.7" transform="translate(-312.205 -85.709)" fill="#787878" stroke="#dcdcdc" stroke-width="0.5"/>
    <path id="Path_2904" data-name="Path 2904" d="M333.391,108.194a.7.7,0,0,0,.7-.7v-2.907a.7.7,0,1,0-1.4,0v2.907a.7.7,0,0,0,.7.7" transform="translate(-274.476 -85.709)" fill="#787878" stroke="#dcdcdc" stroke-width="0.5"/>
    <path id="Path_2905" data-name="Path 2905" d="M349.415,108.193h2.411a.7.7,0,0,0,.7-.7v-2.907a.7.7,0,0,0-.7-.7h-2.411a.7.7,0,0,0-.7.7v2.907a.7.7,0,0,0,.7.7m.7-2.907h1.011v1.507h-1.011Z" transform="translate(-287.696 -85.708)" fill="#787878" stroke="#dcdcdc" stroke-width="0.5"/>
    <path id="Path_2906" data-name="Path 2906" d="M139.962,334.535a.7.7,0,0,0-.7.7v2.907a.7.7,0,1,0,1.4,0v-2.907a.7.7,0,0,0-.7-.7" transform="translate(-114.894 -275.997)" fill="#787878" stroke="#dcdcdc" stroke-width="0.5"/>
    <path id="Path_2907" data-name="Path 2907" d="M94.229,334.535a.7.7,0,0,0-.7.7v2.907a.7.7,0,1,0,1.4,0v-2.907a.7.7,0,0,0-.7-.7" transform="translate(-77.163 -275.997)" fill="#787878" stroke="#dcdcdc" stroke-width="0.5"/>
    <path id="Path_2908" data-name="Path 2908" d="M112.664,334.535h-2.411a.7.7,0,0,0-.7.7v2.907a.7.7,0,0,0,.7.7h2.411a.7.7,0,0,0,.7-.7v-2.907a.7.7,0,0,0-.7-.7m-.7,2.907h-1.011v-1.507h1.011Z" transform="translate(-90.383 -275.997)" fill="#787878" stroke="#dcdcdc" stroke-width="0.5"/>
    <path id="Path_2909" data-name="Path 2909" d="M333.391,338.842a.7.7,0,0,0,.7-.7v-2.907a.7.7,0,1,0-1.4,0v2.907a.7.7,0,0,0,.7.7" transform="translate(-274.476 -275.997)" fill="#787878" stroke="#dcdcdc" stroke-width="0.5"/>
    <path id="Path_2910" data-name="Path 2910" d="M379.122,338.842a.7.7,0,0,0,.7-.7v-2.907a.7.7,0,1,0-1.4,0v2.907a.7.7,0,0,0,.7.7" transform="translate(-312.205 -275.997)" fill="#787878" stroke="#dcdcdc" stroke-width="0.5"/>
    <path id="Path_2911" data-name="Path 2911" d="M349.319,338.842h2.411a.7.7,0,0,0,.7-.7v-2.907a.7.7,0,0,0-.7-.7h-2.411a.7.7,0,0,0-.7.7v2.907a.7.7,0,0,0,.7.7m.7-2.907h1.011v1.507h-1.011Z" transform="translate(-287.617 -275.997)" fill="#787878" stroke="#dcdcdc" stroke-width="0.5"/>
    <path id="Path_2912" data-name="Path 2912" d="M55.481,222.537a.7.7,0,0,0-.7.7v2.907a.7.7,0,0,0,1.4,0v-2.907a.7.7,0,0,0-.7-.7" transform="translate(-45.195 -183.597)" fill="#787878" stroke="#dcdcdc" stroke-width="0.5"/>
    <path id="Path_2913" data-name="Path 2913" d="M55.481,281.863a.7.7,0,0,0-.7.7v2.907a.7.7,0,1,0,1.4,0v-2.907a.7.7,0,0,0-.7-.7" transform="translate(-45.195 -232.542)" fill="#787878" stroke="#dcdcdc" stroke-width="0.5"/>
    <path id="Path_2914" data-name="Path 2914" d="M55.481,338.842a.7.7,0,0,0,.7-.7v-2.907a.7.7,0,0,0-1.4,0v2.907a.7.7,0,0,0,.7.7" transform="translate(-45.195 -275.997)" fill="#787878" stroke="#dcdcdc" stroke-width="0.5"/>
    <path id="Path_2915" data-name="Path 2915" d="M417.219,223.237v2.907a.7.7,0,0,0,1.4,0v-2.907a.7.7,0,0,0-1.4,0" transform="translate(-344.213 -183.597)" fill="#787878" stroke="#dcdcdc" stroke-width="0.5"/>
    <path id="Path_2916" data-name="Path 2916" d="M417.919,286.17a.7.7,0,0,0,.7-.7v-2.907a.7.7,0,1,0-1.4,0v2.907a.7.7,0,0,0,.7.7" transform="translate(-344.213 -232.542)" fill="#787878" stroke="#dcdcdc" stroke-width="0.5"/>
    <path id="Path_2917" data-name="Path 2917" d="M417.919,334.535a.7.7,0,0,0-.7.7v2.907a.7.7,0,0,0,1.4,0v-2.907a.7.7,0,0,0-.7-.7" transform="translate(-344.213 -275.997)" fill="#787878" stroke="#dcdcdc" stroke-width="0.5"/>
    <path id="Path_2918" data-name="Path 2918" d="M207.055,287.851a.7.7,0,0,0-.7.7v.811a.7.7,0,0,0,1.4,0v-.811a.7.7,0,0,0-.7-.7" transform="translate(-170.246 -237.482)" fill="#787878" stroke="#dcdcdc" stroke-width="0.5"/>
    <path id="Path_2919" data-name="Path 2919" d="M221.878,287.851a.7.7,0,0,0-.7.7v.811a.7.7,0,0,0,1.4,0v-.811a.7.7,0,0,0-.7-.7" transform="translate(-182.476 -237.482)" fill="#787878" stroke="#dcdcdc" stroke-width="0.5"/>
    <path id="Path_2920" data-name="Path 2920" d="M236.7,287.851a.7.7,0,0,0-.7.7v.811a.7.7,0,0,0,1.4,0v-.811a.7.7,0,0,0-.7-.7" transform="translate(-194.704 -237.482)" fill="#787878" stroke="#dcdcdc" stroke-width="0.5"/>
    <path id="Path_2921" data-name="Path 2921" d="M264.018,175.37a.7.7,0,0,0,.7-.7v-2.451a.7.7,0,1,0-1.4,0v2.451a.7.7,0,0,0,.7.7" transform="translate(-217.242 -141.506)" fill="#787878" stroke="#dcdcdc" stroke-width="0.5"/>
    <path id="Path_2922" data-name="Path 2922" d="M209.382,175.37a.7.7,0,0,0,.7-.7v-2.451a.7.7,0,1,0-1.4,0v2.451a.7.7,0,0,0,.7.7" transform="translate(-172.166 -141.506)" fill="#787878" stroke="#dcdcdc" stroke-width="0.5"/>
    <path id="Path_2923" data-name="Path 2923" d="M236.7,52.088a.7.7,0,0,0-.7.7v2.794a.7.7,0,1,0,1.4,0V52.788a.7.7,0,0,0-.7-.7" transform="translate(-194.704 -42.974)" fill="#787878" stroke="#dcdcdc" stroke-width="0.5"/>
    <path id="Path_2924" data-name="Path 2924" d="M222.891,56.568a.7.7,0,0,0-.7.7v1.226a.7.7,0,0,0,1.4,0V57.268a.7.7,0,0,0-.7-.7" transform="translate(-183.311 -46.67)" fill="#787878" stroke="#dcdcdc" stroke-width="0.5"/>
    <path id="Path_2925" data-name="Path 2925" d="M250.509,56.568a.7.7,0,0,0-.7.7v1.226a.7.7,0,1,0,1.4,0V57.268a.7.7,0,0,0-.7-.7" transform="translate(-206.097 -46.67)" fill="#787878" stroke="#dcdcdc" stroke-width="0.5"/>
    <path id="Path_2926" data-name="Path 2926" d="M251.522,287.851a.7.7,0,0,0-.7.7v.811a.7.7,0,0,0,1.4,0v-.811a.7.7,0,0,0-.7-.7" transform="translate(-206.933 -237.482)" fill="#787878" stroke="#dcdcdc" stroke-width="0.5"/>
    <path id="Path_2927" data-name="Path 2927" d="M266.345,287.851a.7.7,0,0,0-.7.7v.811a.7.7,0,0,0,1.4,0v-.811a.7.7,0,0,0-.7-.7" transform="translate(-219.162 -237.482)" fill="#787878" stroke="#dcdcdc" stroke-width="0.5"/>
  </g>
</svg>
