<svg xmlns="http://www.w3.org/2000/svg" xmlns:xlink="http://www.w3.org/1999/xlink" width="75.28" height="68.78" viewBox="0 0 75.28 68.78">
  <defs>
    <clipPath id="clip-path">
      <rect id="Rectangle_65" data-name="Rectangle 65" width="75.282" height="68.777" transform="translate(0)" fill="#9c9c9c"/>
    </clipPath>
    <clipPath id="clip-Jaipur">
      <rect width="75.28" height="68.78"/>
    </clipPath>
  </defs>
  <g id="Jaipur" clip-path="url(#clip-Jaipur)">
    <g id="Group_5" data-name="Group 5" transform="translate(0.41 0.28)">
      <g id="Group_75" data-name="Group 75" transform="translate(0 0)" clip-path="url(#clip-path)">
        <path id="Path_2638" data-name="Path 2638" d="M72.222,67.332V51.74h1.2a.629.629,0,0,0,0-1.259h-1.2V42.788h.886a.629.629,0,0,0,0-1.259h-.886V33.651h.571a.629.629,0,0,0,0-1.259h-.571V26.12h.257a.629.629,0,0,0,0-1.259h-.3a3.687,3.687,0,0,0-1.849-2.513V20.692a.629.629,0,0,0-1.259,0v1.657a4.323,4.323,0,0,0-.636.452V20.45a4.314,4.314,0,0,0-3.683-4.261V14.733a.629.629,0,1,0-1.259,0V16.19a4.3,4.3,0,0,0-2.424,1.219V14.6a3.575,3.575,0,0,0-1.895-3.034V9.917a.629.629,0,1,0-1.259,0v1.649a4.315,4.315,0,0,0-.655.468,3.64,3.64,0,0,0-1.876-2.714V7.663a.629.629,0,0,0-1.259,0V9.319a4.3,4.3,0,0,0-.649.464,4.313,4.313,0,0,0-3.669-4V4.328a.629.629,0,1,0-1.259,0V5.784A4.3,4.3,0,0,0,46.124,7,3.576,3.576,0,0,0,44.23,3.983V2.326a.629.629,0,0,0-1.259,0V3.983a4.183,4.183,0,0,0-1.011.819,4.588,4.588,0,0,0-3.575-2.72V.629a.629.629,0,1,0-1.259,0V2.082A4.588,4.588,0,0,0,33.552,4.8a4.178,4.178,0,0,0-1.011-.819V2.326a.629.629,0,0,0-1.259,0V3.983A3.576,3.576,0,0,0,29.389,7a4.3,4.3,0,0,0-2.425-1.22V4.328a.629.629,0,1,0-1.259,0V5.784a4.313,4.313,0,0,0-3.669,4,4.314,4.314,0,0,0-.649-.463V7.663a.629.629,0,0,0-1.259,0V9.319a3.639,3.639,0,0,0-1.876,2.714,4.324,4.324,0,0,0-.655-.468V9.917a.629.629,0,1,0-1.259,0v1.648A3.575,3.575,0,0,0,14.445,14.6v2.81a4.3,4.3,0,0,0-2.424-1.219V14.733a.629.629,0,0,0-1.259,0V16.19A4.315,4.315,0,0,0,7.08,20.45V22.8a4.305,4.305,0,0,0-.636-.452V20.692a.629.629,0,0,0-1.259,0v1.657a3.687,3.687,0,0,0-1.849,2.513h-.3a.629.629,0,1,0,0,1.259H3.29v6.273H2.719a.629.629,0,1,0,0,1.259H3.29v7.878H2.4a.629.629,0,1,0,0,1.259H3.29v7.693H2.09a.629.629,0,0,0,0,1.259h1.2V67.332H0v1.259H75.513V67.332ZM11.391,22.21A3.241,3.241,0,0,1,14.445,25.6v5.282a4.085,4.085,0,0,0-6.106,0V25.6a3.241,3.241,0,0,1,3.053-3.395m5.576-1.36A2.333,2.333,0,0,1,18.234,22.8v6.559a4.412,4.412,0,0,0-1-.644.628.628,0,0,0-.537,0,4.416,4.416,0,0,0-1,.644V22.8a2.3,2.3,0,0,1,1.265-1.947m47.154,1.36A3.241,3.241,0,0,1,67.175,25.6v5.282a4.085,4.085,0,0,0-6.106,0V25.6a3.241,3.241,0,0,1,3.053-3.395m6.842,18.421a4.41,4.41,0,0,0-1-.644.63.63,0,0,0-.536,0,4.417,4.417,0,0,0-1,.644V33.58A2.333,2.333,0,0,1,69.7,31.633a2.3,2.3,0,0,1,1.265,1.947Zm-56.519-.337a4.085,4.085,0,0,0-6.106,0V34.168a3.241,3.241,0,0,1,3.053-3.395,3.241,3.241,0,0,1,3.053,3.395ZM8.338,43.576a3.241,3.241,0,0,1,3.053-3.395,3.241,3.241,0,0,1,3.053,3.395v6.905H8.338ZM15.7,31.938a2.3,2.3,0,0,1,1.265-1.947,2.333,2.333,0,0,1,1.266,1.947v7.4a4.407,4.407,0,0,0-1-.644.629.629,0,0,0-.537,0,4.411,4.411,0,0,0-1,.644Zm3.789-1.109a2.333,2.333,0,0,1,1.265-1.947,2.333,2.333,0,0,1,1.265,1.947V38.6a4.409,4.409,0,0,0-1-.644.626.626,0,0,0-.536,0,4.416,4.416,0,0,0-1,.644Zm9.9,8.8a4.085,4.085,0,0,0-6.107,0v-7.95a3.241,3.241,0,0,1,3.053-3.395,3.241,3.241,0,0,1,3.053,3.395Zm-6.107,3.282a3.241,3.241,0,0,1,3.053-3.395,3.241,3.241,0,0,1,3.053,3.395v7.574H23.282ZM30.647,28.98a2.333,2.333,0,0,1,1.265-1.947,2.333,2.333,0,0,1,1.265,1.947v9.247a4.422,4.422,0,0,0-1-.644.631.631,0,0,0-.536,0,4.418,4.418,0,0,0-1,.644Zm10.43,9.413a4.332,4.332,0,0,0-6.641,0v-8.31A3.522,3.522,0,0,1,37.756,26.4a3.522,3.522,0,0,1,3.321,3.687Zm-6.641,3.4A3.522,3.522,0,0,1,37.756,38.1a3.522,3.522,0,0,1,3.321,3.687v8.693H34.436Zm7.9-12.808A2.3,2.3,0,0,1,43.6,27.033a2.333,2.333,0,0,1,1.266,1.947v9.247a4.417,4.417,0,0,0-1-.644.632.632,0,0,0-.537,0,4.411,4.411,0,0,0-1,.644Zm9.9,10.645a4.085,4.085,0,0,0-6.107,0v-7.95a3.07,3.07,0,1,1,6.107,0Zm-6.107,3.282a3.07,3.07,0,1,1,6.107,0v7.574H46.125ZM53.49,30.829a2.333,2.333,0,0,1,1.265-1.947,2.333,2.333,0,0,1,1.265,1.947V38.6a4.416,4.416,0,0,0-1-.644.628.628,0,0,0-.536,0,4.413,4.413,0,0,0-1,.644Zm3.789,1.109a2.333,2.333,0,0,1,1.265-1.947,2.333,2.333,0,0,1,1.265,1.947v7.4a4.411,4.411,0,0,0-1-.644.627.627,0,0,0-.536,0,4.4,4.4,0,0,0-1,.644Zm9.9,8.356a4.085,4.085,0,0,0-6.106,0V34.168a3.07,3.07,0,1,1,6.106,0Zm-6.106,3.282a3.07,3.07,0,1,1,6.106,0v6.905H61.068ZM59.81,29.356a4.416,4.416,0,0,0-1-.644.626.626,0,0,0-.536,0,4.409,4.409,0,0,0-1,.644V22.8a2.333,2.333,0,0,1,1.265-1.947A2.333,2.333,0,0,1,59.81,22.8Zm-3.789-1.109a4.416,4.416,0,0,0-1-.644.628.628,0,0,0-.536,0,4.413,4.413,0,0,0-1,.644V21.318a2.3,2.3,0,0,1,1.265-1.947,2.333,2.333,0,0,1,1.266,1.947Zm-3.789.146a4.085,4.085,0,0,0-6.107,0V21.835a3.071,3.071,0,1,1,6.107,0ZM44.866,26.4a4.412,4.412,0,0,0-1-.644.629.629,0,0,0-.537,0,4.416,4.416,0,0,0-1,.644V18.73A2.332,2.332,0,0,1,43.6,16.783a2.332,2.332,0,0,1,1.265,1.947Zm-3.789.29a4.332,4.332,0,0,0-6.641,0V19.048a3.522,3.522,0,0,1,3.321-3.686,3.522,3.522,0,0,1,3.321,3.686Zm-7.9-.29a4.417,4.417,0,0,0-1-.644.627.627,0,0,0-.536,0,4.413,4.413,0,0,0-1,.644V18.73a2.332,2.332,0,0,1,1.265-1.947,2.332,2.332,0,0,1,1.265,1.947Zm-3.789,1.995a4.085,4.085,0,0,0-6.107,0V21.835a3.242,3.242,0,0,1,3.053-3.395,3.242,3.242,0,0,1,3.053,3.395Zm-7.365-.146a4.409,4.409,0,0,0-1-.644.627.627,0,0,0-.536,0,4.416,4.416,0,0,0-1,.644V21.318a2.333,2.333,0,0,1,1.265-1.947,2.333,2.333,0,0,1,1.265,1.947ZM7.08,40.631a4.416,4.416,0,0,0-1-.644.63.63,0,0,0-.536,0,4.41,4.41,0,0,0-1,.644V33.58a2.3,2.3,0,0,1,1.265-1.947A2.333,2.333,0,0,1,7.08,33.58ZM4.549,43.214a2.332,2.332,0,0,1,1.265-1.947A2.332,2.332,0,0,1,7.08,43.214v7.268H4.549ZM8.338,51.74h6.106v4.17a1.756,1.756,0,0,0-.606-.109,1.779,1.779,0,0,0-.474.064,2.142,2.142,0,0,0-3.946,0,1.779,1.779,0,0,0-.474-.064,1.757,1.757,0,0,0-.606.109ZM15.7,41.919a2.333,2.333,0,0,1,1.265-1.947,2.333,2.333,0,0,1,1.265,1.947v8.562H15.7Zm3.789-.74a2.333,2.333,0,0,1,1.265-1.946,2.333,2.333,0,0,1,1.265,1.946v9.3H19.492Zm3.789,10.56h6.107v4.17a1.758,1.758,0,0,0-.606-.109,1.777,1.777,0,0,0-.474.064,2.142,2.142,0,0,0-3.946,0,1.777,1.777,0,0,0-.474-.064,1.758,1.758,0,0,0-.606.109Zm7.365-10.93a2.332,2.332,0,0,1,1.265-1.947,2.333,2.333,0,0,1,1.265,1.947v9.671H30.647Zm3.789,10.93h6.641V54.1a1.84,1.84,0,0,0-.7-.139,1.86,1.86,0,0,0-.534.078,2.254,2.254,0,0,0-4.182,0,1.84,1.84,0,0,0-1.23.061Zm7.9-10.93A2.332,2.332,0,0,1,43.6,38.863a2.332,2.332,0,0,1,1.265,1.947v9.671H42.336Zm3.789,10.93h6.107v4.17a1.758,1.758,0,0,0-.606-.109,1.777,1.777,0,0,0-.474.064,2.142,2.142,0,0,0-3.946,0,1.779,1.779,0,0,0-.474-.064,1.758,1.758,0,0,0-.606.109Zm7.365-10.56a2.3,2.3,0,0,1,1.265-1.947,2.333,2.333,0,0,1,1.266,1.947v9.3H53.49Zm3.789.74a2.333,2.333,0,0,1,1.265-1.947,2.333,2.333,0,0,1,1.265,1.947v8.562H57.279Zm3.789,9.821h6.106v4.17a1.758,1.758,0,0,0-.606-.109,1.778,1.778,0,0,0-.474.064,2.142,2.142,0,0,0-3.946,0,1.779,1.779,0,0,0-.474-.064,1.758,1.758,0,0,0-.606.109Zm7.365-8.526A2.332,2.332,0,0,1,69.7,41.267a2.332,2.332,0,0,1,1.265,1.947v7.268H68.433ZM69.7,23.436a2.3,2.3,0,0,1,1.265,1.947V31a4.417,4.417,0,0,0-1-.644.629.629,0,0,0-.536,0,4.422,4.422,0,0,0-1,.644V25.383A2.333,2.333,0,0,1,69.7,23.436M64.121,17.4a3.057,3.057,0,0,1,3.053,3.053v1.872a4.2,4.2,0,0,0-2.424-1.316v-1.46a.629.629,0,1,0-1.259,0v1.46a4.2,4.2,0,0,0-2.424,1.316V20.45A3.057,3.057,0,0,1,64.121,17.4M59.81,20.214a4.415,4.415,0,0,0-1-.644.626.626,0,0,0-.536,0,4.409,4.409,0,0,0-1,.644V14.6a2.333,2.333,0,0,1,1.265-1.947A2.333,2.333,0,0,1,59.81,14.6ZM56.021,14.6v4.136a4.416,4.416,0,0,0-1-.644.628.628,0,0,0-.536,0,4.413,4.413,0,0,0-1,.644V12.354a2.3,2.3,0,0,1,1.265-1.947,2.333,2.333,0,0,1,1.266,1.947ZM49.178,6.991a3.057,3.057,0,0,1,3.053,3.053v8.508a4.085,4.085,0,0,0-6.107,0V10.044a3.057,3.057,0,0,1,3.053-3.053m-4.312,3.053v6.1a4.412,4.412,0,0,0-1-.644.63.63,0,0,0-.537,0,4.41,4.41,0,0,0-1,.644V7.017A2.3,2.3,0,0,1,43.6,5.07a2.333,2.333,0,0,1,1.266,1.947ZM34.436,6.613a3.321,3.321,0,1,1,6.641,0v9.04a4.332,4.332,0,0,0-6.641,0V6.613Zm-3.789.4a2.333,2.333,0,0,1,1.265-1.947,2.333,2.333,0,0,1,1.265,1.947v9.13a4.417,4.417,0,0,0-1-.644.63.63,0,0,0-.536,0,4.413,4.413,0,0,0-1,.644V7.017Zm-7.365,3.027a3.053,3.053,0,0,1,6.107,0v8.508a4.085,4.085,0,0,0-6.107,0V10.044Zm-3.789,2.309a2.333,2.333,0,0,1,1.265-1.947,2.333,2.333,0,0,1,1.265,1.947v6.382a4.409,4.409,0,0,0-1-.644.626.626,0,0,0-.536,0,4.416,4.416,0,0,0-1,.644V12.354Zm-2.524.3A2.333,2.333,0,0,1,18.234,14.6v5.615a4.411,4.411,0,0,0-1-.644.628.628,0,0,0-.537,0,4.411,4.411,0,0,0-1,.644V14.6a2.3,2.3,0,0,1,1.265-1.947M11.391,17.4a3.057,3.057,0,0,1,3.053,3.053v1.872a4.2,4.2,0,0,0-2.424-1.316v-1.46a.629.629,0,1,0-1.259,0v1.46a4.2,4.2,0,0,0-2.424,1.316V20.45A3.057,3.057,0,0,1,11.391,17.4M4.549,25.383a2.3,2.3,0,0,1,1.265-1.947A2.333,2.333,0,0,1,7.08,25.383V31a4.422,4.422,0,0,0-1-.644.629.629,0,0,0-.536,0,4.417,4.417,0,0,0-1,.644Zm0,26.357H7.08V67.332H4.549Zm3.789,6.04a.672.672,0,0,1,.606-.721.556.556,0,0,1,.411.194.629.629,0,0,0,1.095-.4,1.018,1.018,0,0,1,.941-1.041,1.018,1.018,0,0,1,.941,1.041.629.629,0,0,0,1.095.4.555.555,0,0,1,.411-.194.672.672,0,0,1,.606.721v9.553H8.338Zm7.365,0V51.74h2.531V67.332H15.7Zm3.789-6.04h2.531V67.332H19.492Zm3.789,6.04a.672.672,0,0,1,.606-.721.557.557,0,0,1,.411.194.629.629,0,0,0,1.094-.4.946.946,0,1,1,1.882,0,.629.629,0,0,0,1.094.4.557.557,0,0,1,.411-.194.672.672,0,0,1,.606.721v9.553H23.282Zm7.365,0V51.74h2.531V67.332H30.647Zm3.789-1.743a.766.766,0,0,1,.7-.819.641.641,0,0,1,.475.223.629.629,0,0,0,1.095-.4,1.06,1.06,0,1,1,2.11,0,.629.629,0,0,0,1.1.4.641.641,0,0,1,.474-.223.766.766,0,0,1,.7.819v11.3H34.436Zm7.9,0v-4.3h2.531V67.332H42.336Zm3.789,1.743a.672.672,0,0,1,.606-.721.557.557,0,0,1,.411.194.629.629,0,0,0,1.094-.4.946.946,0,1,1,1.882,0,.629.629,0,0,0,1.094.4.557.557,0,0,1,.411-.194.672.672,0,0,1,.606.721v9.553H46.125Zm7.365,0V51.74h2.531V67.332H53.49Zm3.789-6.04H59.81V67.332H57.279Zm3.789,6.04a.672.672,0,0,1,.606-.721.557.557,0,0,1,.411.194.629.629,0,0,0,1.094-.4.946.946,0,1,1,1.882,0,.629.629,0,0,0,1.094.4.557.557,0,0,1,.412-.194.672.672,0,0,1,.606.721v9.553H61.068Zm7.365,9.553V51.74h2.531V67.332Z" transform="translate(-0.23 0.186)" fill="#9c9c9c"/>
        <path id="Path_2639" data-name="Path 2639" d="M63.627,380.459H61.143a.629.629,0,0,0-.629.629v3.694a.629.629,0,0,0,.629.629h2.484a.629.629,0,0,0,.629-.629v-3.694a.629.629,0,0,0-.629-.629M63,384.153H61.773v-2.435H63Z" transform="translate(-51.224 -320.42)" fill="#9c9c9c"/>
        <path id="Path_2640" data-name="Path 2640" d="M62.385,270.688a1.873,1.873,0,0,0-1.871,1.871v3.5a.629.629,0,0,0,.629.629h2.484a.629.629,0,0,0,.629-.629v-3.5a1.873,1.873,0,0,0-1.871-1.871M63,275.426H61.773v-2.866a.613.613,0,1,1,1.226,0Z" transform="translate(-51.224 -227.918)" fill="#9c9c9c"/>
        <path id="Path_2641" data-name="Path 2641" d="M62.385,206.017a1.873,1.873,0,0,0-1.871,1.872v3.126a.629.629,0,0,0,.629.629h2.484a.629.629,0,0,0,.629-.629v-3.126a1.873,1.873,0,0,0-1.871-1.872M63,210.385H61.773v-2.5a.613.613,0,1,1,1.226,0Z" transform="translate(-51.224 -173.421)" fill="#9c9c9c"/>
        <path id="Path_2642" data-name="Path 2642" d="M157.374,195.051a1.874,1.874,0,0,0-1.872,1.872v3.126a.629.629,0,0,0,.629.629h2.485a.629.629,0,0,0,.629-.629v-3.126a1.874,1.874,0,0,0-1.871-1.872m.613,4.368h-1.226v-2.5a.613.613,0,1,1,1.226,0Z" transform="translate(-131.269 -164.18)" fill="#9c9c9c"/>
        <path id="Path_2643" data-name="Path 2643" d="M229.975,188.437a1.874,1.874,0,0,0-1.872,1.872v3.126a.629.629,0,0,0,.629.629h2.485a.629.629,0,0,0,.629-.629v-3.126a1.874,1.874,0,0,0-1.871-1.872m.613,4.368h-1.226v-2.5a.613.613,0,1,1,1.226,0Z" transform="translate(-192.448 -158.607)" fill="#9c9c9c"/>
        <path id="Path_2644" data-name="Path 2644" d="M157.374,126.572a1.874,1.874,0,0,0-1.872,1.872v3.126a.629.629,0,0,0,.629.629h2.485a.629.629,0,0,0,.629-.629v-3.126a1.874,1.874,0,0,0-1.871-1.872m.613,4.368h-1.226v-2.5a.613.613,0,1,1,1.226,0Z" transform="translate(-131.269 -106.474)" fill="#9c9c9c"/>
        <path id="Path_2645" data-name="Path 2645" d="M229.975,112.332A1.874,1.874,0,0,0,228.1,114.2v3.126a.629.629,0,0,0,.629.629h2.485a.629.629,0,0,0,.629-.629V114.2a1.874,1.874,0,0,0-1.871-1.872m.613,4.368h-1.226v-2.5a.613.613,0,1,1,1.226,0Z" transform="translate(-192.448 -94.474)" fill="#9c9c9c"/>
        <path id="Path_2646" data-name="Path 2646" d="M61.143,152.9h2.484a.629.629,0,0,0,.629-.629v-2.756a1.871,1.871,0,1,0-3.743,0v2.756a.629.629,0,0,0,.629.629m.629-3.385a.613.613,0,1,1,1.226,0v2.127H61.773Z" transform="translate(-51.224 -124.23)" fill="#9c9c9c"/>
        <path id="Path_2647" data-name="Path 2647" d="M156.131,64.458h2.485a.629.629,0,0,0,.629-.629V61.072a1.872,1.872,0,0,0-3.743,0v2.756a.629.629,0,0,0,.629.629m.629-3.385a.613.613,0,0,1,1.226,0V63.2h-1.226Z" transform="translate(-131.269 -49.702)" fill="#9c9c9c"/>
        <path id="Path_2648" data-name="Path 2648" d="M228.733,46.057h2.484a.629.629,0,0,0,.629-.629V42.672a1.871,1.871,0,1,0-3.743,0v2.756a.629.629,0,0,0,.629.629m.629-3.385a.613.613,0,1,1,1.226,0V44.8h-1.226Z" transform="translate(-192.449 -34.196)" fill="#9c9c9c"/>
        <path id="Path_2649" data-name="Path 2649" d="M157.374,270.688a1.874,1.874,0,0,0-1.872,1.871v3.5a.629.629,0,0,0,.629.629h2.485a.629.629,0,0,0,.629-.629v-3.5a1.873,1.873,0,0,0-1.871-1.871m.613,4.738h-1.226v-2.866a.613.613,0,0,1,1.226,0Z" transform="translate(-131.269 -227.918)" fill="#9c9c9c"/>
        <path id="Path_2650" data-name="Path 2650" d="M229.975,270.688a1.874,1.874,0,0,0-1.872,1.871v3.5a.629.629,0,0,0,.629.629h2.485a.629.629,0,0,0,.629-.629v-3.5a1.874,1.874,0,0,0-1.871-1.871m.613,4.738h-1.226v-2.866a.613.613,0,0,1,1.226,0Z" transform="translate(-192.448 -227.918)" fill="#9c9c9c"/>
        <path id="Path_2651" data-name="Path 2651" d="M158.616,380.459h-2.485a.629.629,0,0,0-.629.629v3.694a.629.629,0,0,0,.629.629h2.485a.629.629,0,0,0,.629-.629v-3.694a.629.629,0,0,0-.629-.629m-.629,3.694h-1.226v-2.435h1.226Z" transform="translate(-131.269 -320.42)" fill="#9c9c9c"/>
        <path id="Path_2652" data-name="Path 2652" d="M231.218,380.459h-2.484a.629.629,0,0,0-.629.629v3.694a.629.629,0,0,0,.629.629h2.484a.629.629,0,0,0,.629-.629v-3.694a.629.629,0,0,0-.629-.629m-.629,3.694h-1.226v-2.435h1.226Z" transform="translate(-192.449 -320.42)" fill="#9c9c9c"/>
        <path id="Path_2653" data-name="Path 2653" d="M33.588,374.953a.629.629,0,0,0-.629.629v4.56a.629.629,0,0,0,1.259,0v-4.56a.629.629,0,0,0-.629-.629" transform="translate(-28.004 -315.78)" fill="#9c9c9c"/>
        <path id="Path_2654" data-name="Path 2654" d="M33.588,276.332a.629.629,0,0,0-.629.629v4.283a.629.629,0,0,0,1.259,0v-4.283a.629.629,0,0,0-.629-.629" transform="translate(-28.004 -232.674)" fill="#9c9c9c"/>
        <path id="Path_2655" data-name="Path 2655" d="M33.588,211.736a.629.629,0,0,0-.629.629v4a.629.629,0,1,0,1.259,0v-4a.629.629,0,0,0-.629-.629" transform="translate(-28.004 -178.24)" fill="#9c9c9c"/>
        <path id="Path_2656" data-name="Path 2656" d="M33.588,162.5a.629.629,0,0,0,.629-.629v-3.45a.629.629,0,1,0-1.259,0v3.45a.629.629,0,0,0,.629.629" transform="translate(-28.004 -132.779)" fill="#9c9c9c"/>
        <path id="Path_2657" data-name="Path 2657" d="M104.49,374.953a.629.629,0,0,0-.629.629v4.56a.629.629,0,0,0,1.259,0v-4.56a.629.629,0,0,0-.629-.629" transform="translate(-87.752 -315.78)" fill="#9c9c9c"/>
        <path id="Path_2658" data-name="Path 2658" d="M104.49,274.568a.629.629,0,0,0-.629.629v4.56a.629.629,0,1,0,1.259,0V275.2a.629.629,0,0,0-.629-.629" transform="translate(-87.752 -231.188)" fill="#9c9c9c"/>
        <path id="Path_2659" data-name="Path 2659" d="M128.576,268.746a.629.629,0,0,0-.629.629v5.476a.629.629,0,0,0,1.259,0v-5.476a.629.629,0,0,0-.629-.629" transform="translate(-108.048 -226.282)" fill="#9c9c9c"/>
        <path id="Path_2660" data-name="Path 2660" d="M199.479,262.459a.629.629,0,0,0-.629.629v6.465a.629.629,0,1,0,1.259,0v-6.465a.629.629,0,0,0-.629-.629" transform="translate(-167.797 -220.984)" fill="#9c9c9c"/>
        <path id="Path_2661" data-name="Path 2661" d="M200.109,193.716V187.83a.629.629,0,1,0-1.259,0v5.886a.629.629,0,0,0,1.259,0" transform="translate(-167.797 -157.565)" fill="#9c9c9c"/>
        <path id="Path_2662" data-name="Path 2662" d="M199.479,119.635a.629.629,0,0,0-.629.629v5.2a.629.629,0,0,0,1.259,0v-5.2a.629.629,0,0,0-.629-.629" transform="translate(-167.797 -100.629)" fill="#9c9c9c"/>
        <path id="Path_2663" data-name="Path 2663" d="M199.479,53.764a.629.629,0,0,0,.629-.629V47.988a.629.629,0,0,0-1.259,0v5.147a.629.629,0,0,0,.629.629" transform="translate(-167.797 -39.723)" fill="#9c9c9c"/>
        <path id="Path_2664" data-name="Path 2664" d="M105.12,207.511v-4.56a.629.629,0,1,0-1.259,0v4.56a.629.629,0,0,0,1.259,0" transform="translate(-87.752 -170.306)" fill="#9c9c9c"/>
        <path id="Path_2665" data-name="Path 2665" d="M129.206,203.89v-4.56a.629.629,0,0,0-1.259,0v4.56a.629.629,0,0,0,1.259,0" transform="translate(-108.048 -167.255)" fill="#9c9c9c"/>
        <path id="Path_2666" data-name="Path 2666" d="M104.49,148.061a.629.629,0,0,0,.629-.629v-3.9a.629.629,0,0,0-1.259,0v3.9a.629.629,0,0,0,.629.629" transform="translate(-87.752 -120.239)" fill="#9c9c9c"/>
        <path id="Path_2667" data-name="Path 2667" d="M128.576,133.262a.629.629,0,0,0-.629.629v3.9a.629.629,0,1,0,1.259,0v-3.9a.629.629,0,0,0-.629-.629" transform="translate(-108.048 -112.112)" fill="#9c9c9c"/>
        <path id="Path_2668" data-name="Path 2668" d="M104.49,94.307a.629.629,0,0,0,.629-.629v-3.4a.629.629,0,0,0-1.259,0v3.4a.629.629,0,0,0,.629.629" transform="translate(-87.752 -75.36)" fill="#9c9c9c"/>
        <path id="Path_2669" data-name="Path 2669" d="M128.576,82.856a.629.629,0,0,0,.629-.629V78.2a.629.629,0,1,0-1.259,0v4.028a.629.629,0,0,0,.629.629" transform="translate(-108.048 -65.18)" fill="#9c9c9c"/>
        <path id="Path_2670" data-name="Path 2670" d="M128.576,374.953a.629.629,0,0,0-.629.629v4.56a.629.629,0,0,0,1.259,0v-4.56a.629.629,0,0,0-.629-.629" transform="translate(-108.048 -315.78)" fill="#9c9c9c"/>
        <path id="Path_2671" data-name="Path 2671" d="M199.479,374.953a.629.629,0,0,0-.629.629v4.56a.629.629,0,0,0,1.259,0v-4.56a.629.629,0,0,0-.629-.629" transform="translate(-167.797 -315.78)" fill="#9c9c9c"/>
        <path id="Path_2672" data-name="Path 2672" d="M398.807,380.459h-2.485a.629.629,0,0,0-.629.629v3.694a.629.629,0,0,0,.629.629h2.485a.629.629,0,0,0,.629-.629v-3.694a.629.629,0,0,0-.629-.629m-.629,3.694h-1.226v-2.435h1.226Z" transform="translate(-333.673 -320.42)" fill="#9c9c9c"/>
        <path id="Path_2673" data-name="Path 2673" d="M397.564,270.688a1.874,1.874,0,0,0-1.871,1.871v3.5a.629.629,0,0,0,.629.629h2.485a.629.629,0,0,0,.629-.629v-3.5a1.874,1.874,0,0,0-1.872-1.871m.613,4.738h-1.226v-2.866a.613.613,0,0,1,1.226,0Z" transform="translate(-333.673 -227.918)" fill="#9c9c9c"/>
        <path id="Path_2674" data-name="Path 2674" d="M397.564,206.017a1.874,1.874,0,0,0-1.871,1.872v3.126a.629.629,0,0,0,.629.629h2.485a.629.629,0,0,0,.629-.629v-3.126a1.874,1.874,0,0,0-1.872-1.872m.613,4.368h-1.226v-2.5a.613.613,0,1,1,1.226,0Z" transform="translate(-333.673 -173.421)" fill="#9c9c9c"/>
        <path id="Path_2675" data-name="Path 2675" d="M302.576,195.051a1.874,1.874,0,0,0-1.871,1.872v3.126a.629.629,0,0,0,.629.629h2.484a.629.629,0,0,0,.629-.629v-3.126a1.874,1.874,0,0,0-1.871-1.872m.613,4.368h-1.226v-2.5a.613.613,0,1,1,1.226,0Z" transform="translate(-253.628 -164.18)" fill="#9c9c9c"/>
        <path id="Path_2676" data-name="Path 2676" d="M302.576,126.572a1.874,1.874,0,0,0-1.871,1.872v3.126a.629.629,0,0,0,.629.629h2.484a.629.629,0,0,0,.629-.629v-3.126a1.873,1.873,0,0,0-1.871-1.872m.613,4.368h-1.226v-2.5a.613.613,0,1,1,1.226,0Z" transform="translate(-253.628 -106.474)" fill="#9c9c9c"/>
        <path id="Path_2677" data-name="Path 2677" d="M396.322,152.9h2.485a.629.629,0,0,0,.629-.629v-2.756a1.872,1.872,0,1,0-3.743,0v2.756a.629.629,0,0,0,.629.629m.629-3.385a.613.613,0,1,1,1.226,0v2.127h-1.226Z" transform="translate(-333.673 -124.23)" fill="#9c9c9c"/>
        <path id="Path_2678" data-name="Path 2678" d="M301.334,64.458h2.484a.629.629,0,0,0,.629-.629V61.072a1.871,1.871,0,0,0-3.743,0v2.756a.629.629,0,0,0,.629.629m.629-3.385a.613.613,0,0,1,1.226,0V63.2h-1.226Z" transform="translate(-253.628 -49.702)" fill="#9c9c9c"/>
        <path id="Path_2679" data-name="Path 2679" d="M302.576,270.688a1.873,1.873,0,0,0-1.871,1.871v3.5a.629.629,0,0,0,.629.629h2.484a.629.629,0,0,0,.629-.629v-3.5a1.873,1.873,0,0,0-1.871-1.871m.613,4.738h-1.226v-2.866a.613.613,0,1,1,1.226,0Z" transform="translate(-253.628 -227.918)" fill="#9c9c9c"/>
        <path id="Path_2680" data-name="Path 2680" d="M303.819,380.459h-2.484a.629.629,0,0,0-.629.629v3.694a.629.629,0,0,0,.629.629h2.484a.629.629,0,0,0,.629-.629v-3.694a.629.629,0,0,0-.629-.629m-.629,3.694h-1.226v-2.435h1.226Z" transform="translate(-253.628 -320.42)" fill="#9c9c9c"/>
        <path id="Path_2681" data-name="Path 2681" d="M439.67,374.953a.629.629,0,0,0-.629.629v4.56a.629.629,0,0,0,1.259,0v-4.56a.629.629,0,0,0-.629-.629" transform="translate(-370.202 -315.78)" fill="#9c9c9c"/>
        <path id="Path_2682" data-name="Path 2682" d="M439.67,276.332a.629.629,0,0,0-.629.629v4.283a.629.629,0,1,0,1.259,0v-4.283a.629.629,0,0,0-.629-.629" transform="translate(-370.202 -232.674)" fill="#9c9c9c"/>
        <path id="Path_2683" data-name="Path 2683" d="M439.67,211.736a.629.629,0,0,0-.629.629v4a.629.629,0,1,0,1.259,0v-4a.629.629,0,0,0-.629-.629" transform="translate(-370.202 -178.24)" fill="#9c9c9c"/>
        <path id="Path_2684" data-name="Path 2684" d="M439.67,162.5a.629.629,0,0,0,.629-.629v-3.45a.629.629,0,1,0-1.259,0v3.45a.629.629,0,0,0,.629.629" transform="translate(-370.202 -132.779)" fill="#9c9c9c"/>
        <path id="Path_2685" data-name="Path 2685" d="M368.768,374.953a.629.629,0,0,0-.629.629v4.56a.629.629,0,0,0,1.259,0v-4.56a.629.629,0,0,0-.629-.629" transform="translate(-310.454 -315.78)" fill="#9c9c9c"/>
        <path id="Path_2686" data-name="Path 2686" d="M368.768,274.568a.629.629,0,0,0-.629.629v4.56a.629.629,0,1,0,1.259,0V275.2a.629.629,0,0,0-.629-.629" transform="translate(-310.454 -231.188)" fill="#9c9c9c"/>
        <path id="Path_2687" data-name="Path 2687" d="M344.682,268.746a.629.629,0,0,0-.629.629v5.476a.629.629,0,0,0,1.259,0v-5.476a.629.629,0,0,0-.629-.629" transform="translate(-290.157 -226.282)" fill="#9c9c9c"/>
        <path id="Path_2688" data-name="Path 2688" d="M273.779,262.459a.629.629,0,0,0-.629.629v6.465a.629.629,0,1,0,1.259,0v-6.465a.629.629,0,0,0-.629-.629" transform="translate(-230.408 -220.984)" fill="#9c9c9c"/>
        <path id="Path_2689" data-name="Path 2689" d="M274.409,193.716V187.83a.629.629,0,1,0-1.259,0v5.886a.629.629,0,0,0,1.259,0" transform="translate(-230.408 -157.565)" fill="#9c9c9c"/>
        <path id="Path_2690" data-name="Path 2690" d="M273.779,119.635a.629.629,0,0,0-.629.629v5.2a.629.629,0,0,0,1.259,0v-5.2a.629.629,0,0,0-.629-.629" transform="translate(-230.408 -100.629)" fill="#9c9c9c"/>
        <path id="Path_2691" data-name="Path 2691" d="M273.779,47.359a.629.629,0,0,0-.629.629v5.147a.629.629,0,0,0,1.259,0V47.988a.629.629,0,0,0-.629-.629" transform="translate(-230.408 -39.723)" fill="#9c9c9c"/>
        <path id="Path_2692" data-name="Path 2692" d="M369.4,207.511v-4.56a.629.629,0,1,0-1.259,0v4.56a.629.629,0,0,0,1.259,0" transform="translate(-310.454 -170.306)" fill="#9c9c9c"/>
        <path id="Path_2693" data-name="Path 2693" d="M345.312,203.89v-4.56a.629.629,0,0,0-1.259,0v4.56a.629.629,0,0,0,1.259,0" transform="translate(-290.157 -167.255)" fill="#9c9c9c"/>
        <path id="Path_2694" data-name="Path 2694" d="M368.768,142.906a.629.629,0,0,0-.629.629v3.9a.629.629,0,0,0,1.259,0v-3.9a.629.629,0,0,0-.629-.629" transform="translate(-310.454 -120.239)" fill="#9c9c9c"/>
        <path id="Path_2695" data-name="Path 2695" d="M344.682,133.262a.629.629,0,0,0-.629.629v3.9a.629.629,0,0,0,1.259,0v-3.9a.629.629,0,0,0-.629-.629" transform="translate(-290.157 -112.112)" fill="#9c9c9c"/>
        <path id="Path_2696" data-name="Path 2696" d="M368.768,89.649a.629.629,0,0,0-.629.629v3.4a.629.629,0,0,0,1.259,0v-3.4a.629.629,0,0,0-.629-.629" transform="translate(-310.454 -75.36)" fill="#9c9c9c"/>
        <path id="Path_2697" data-name="Path 2697" d="M344.682,77.569a.629.629,0,0,0-.629.629v4.028a.629.629,0,0,0,1.259,0V78.2a.629.629,0,0,0-.629-.629" transform="translate(-290.157 -65.18)" fill="#9c9c9c"/>
        <path id="Path_2698" data-name="Path 2698" d="M344.682,374.953a.629.629,0,0,0-.629.629v4.56a.629.629,0,0,0,1.259,0v-4.56a.629.629,0,0,0-.629-.629" transform="translate(-290.157 -315.78)" fill="#9c9c9c"/>
        <path id="Path_2699" data-name="Path 2699" d="M273.779,374.953a.629.629,0,0,0-.629.629v4.56a.629.629,0,0,0,1.259,0v-4.56a.629.629,0,0,0-.629-.629" transform="translate(-230.408 -315.78)" fill="#9c9c9c"/>
        <path id="Path_2700" data-name="Path 2700" d="M33.588,355.916a.629.629,0,0,0-.629.629v.53a.629.629,0,1,0,1.259,0v-.53a.629.629,0,0,0-.629-.629" transform="translate(-28.004 -299.738)" fill="#9c9c9c"/>
        <path id="Path_2701" data-name="Path 2701" d="M68.685,367.943a.526.526,0,0,0,.11.06.478.478,0,0,0,.116.035.541.541,0,0,0,.123.012.621.621,0,0,0,.242-.047.637.637,0,0,0,.2-.138.628.628,0,0,0,.182-.444.545.545,0,0,0-.013-.123.5.5,0,0,0-.035-.116.6.6,0,0,0-.056-.11.829.829,0,0,0-.079-.095.485.485,0,0,0-.1-.079.59.59,0,0,0-.107-.06.731.731,0,0,0-.12-.035.633.633,0,0,0-.566.173.561.561,0,0,0-.135.2.722.722,0,0,0-.038.116.8.8,0,0,0-.013.123.613.613,0,0,0,.185.444.462.462,0,0,0,.094.079" transform="translate(-57.874 -308.903)" fill="#9c9c9c"/>
        <path id="Path_2702" data-name="Path 2702" d="M163.685,367.944a.507.507,0,0,0,.107.06.53.53,0,0,0,.116.035.555.555,0,0,0,.126.012.544.544,0,0,0,.123-.012.483.483,0,0,0,.116-.035.431.431,0,0,0,.107-.06.472.472,0,0,0,.1-.079.572.572,0,0,0,.079-.094.6.6,0,0,0,.06-.107.746.746,0,0,0,.035-.119.6.6,0,0,0,0-.245.9.9,0,0,0-.038-.119.686.686,0,0,0-.056-.107.766.766,0,0,0-.079-.1.569.569,0,0,0-.094-.076.543.543,0,0,0-.11-.059.527.527,0,0,0-.116-.035.643.643,0,0,0-.245,0,.5.5,0,0,0-.12.035.528.528,0,0,0-.107.059.754.754,0,0,0-.1.076,1.161,1.161,0,0,0-.079.1.672.672,0,0,0-.057.107.55.55,0,0,0-.035.119.535.535,0,0,0-.013.123.623.623,0,0,0,.182.444.577.577,0,0,0,.1.079" transform="translate(-137.928 -308.904)" fill="#9c9c9c"/>
        <path id="Path_2703" data-name="Path 2703" d="M236.186,367.865a.812.812,0,0,0,.1.082.678.678,0,0,0,.107.056.53.53,0,0,0,.116.035.57.57,0,0,0,.126.012.543.543,0,0,0,.123-.012.479.479,0,0,0,.116-.035.7.7,0,0,0,.11-.056.614.614,0,0,0,.094-.082.589.589,0,0,0,.139-.2.642.642,0,0,0,.047-.242.8.8,0,0,0-.013-.123.757.757,0,0,0-.038-.116.59.59,0,0,0-.057-.11.575.575,0,0,0-.079-.095.47.47,0,0,0-.094-.079.75.75,0,0,0-.11-.059.685.685,0,0,0-.116-.035.642.642,0,0,0-.245,0,.553.553,0,0,0-.227.094.584.584,0,0,0-.1.079.791.791,0,0,0-.079.095.58.58,0,0,0-.056.11.5.5,0,0,0-.035.116.535.535,0,0,0-.013.123.633.633,0,0,0,.047.242.576.576,0,0,0,.135.2" transform="translate(-199.106 -308.904)" fill="#9c9c9c"/>
        <path id="Path_2704" data-name="Path 2704" d="M309.232,368.049a.622.622,0,0,0,.239-.047.6.6,0,0,0,.2-.138.613.613,0,0,0,.186-.444.631.631,0,0,0-.186-.444.444.444,0,0,0-.094-.079.737.737,0,0,0-.11-.06.7.7,0,0,0-.117-.035.637.637,0,0,0-.57.173.629.629,0,0,0,.447,1.073" transform="translate(-260.284 -308.903)" fill="#9c9c9c"/>
        <path id="Path_2705" data-name="Path 2705" d="M403.631,367.663a.735.735,0,0,0,.06.107.585.585,0,0,0,.079.094.606.606,0,0,0,.2.138.62.62,0,0,0,.239.047.568.568,0,0,0,.126-.013.56.56,0,0,0,.223-.094.568.568,0,0,0,.1-.079.623.623,0,0,0,.183-.444.53.53,0,0,0-.013-.123.492.492,0,0,0-.035-.12.673.673,0,0,0-.056-.107.778.778,0,0,0-.079-.094.563.563,0,0,0-.1-.079.512.512,0,0,0-.107-.06.5.5,0,0,0-.12-.035.643.643,0,0,0-.245,0,.477.477,0,0,0-.116.035.522.522,0,0,0-.11.06.457.457,0,0,0-.094.079.576.576,0,0,0-.079.094.7.7,0,0,0-.056.107.759.759,0,0,0-.038.12.6.6,0,0,0,0,.245.723.723,0,0,0,.035.12" transform="translate(-340.323 -308.903)" fill="#9c9c9c"/>
        <path id="Path_2706" data-name="Path 2706" d="M104.49,355.916a.629.629,0,0,0-.629.629v.53a.629.629,0,1,0,1.259,0v-.53a.629.629,0,0,0-.629-.629" transform="translate(-87.752 -299.738)" fill="#9c9c9c"/>
        <path id="Path_2707" data-name="Path 2707" d="M128.576,355.916a.629.629,0,0,0-.629.629v.53a.629.629,0,1,0,1.259,0v-.53a.629.629,0,0,0-.629-.629" transform="translate(-108.048 -299.738)" fill="#9c9c9c"/>
        <path id="Path_2708" data-name="Path 2708" d="M199.479,355.916a.629.629,0,0,0-.629.629v.53a.629.629,0,1,0,1.259,0v-.53a.629.629,0,0,0-.629-.629" transform="translate(-167.797 -299.738)" fill="#9c9c9c"/>
        <path id="Path_2709" data-name="Path 2709" d="M439.67,355.916a.629.629,0,0,0-.629.629v.53a.629.629,0,1,0,1.259,0v-.53a.629.629,0,0,0-.629-.629" transform="translate(-370.202 -299.738)" fill="#9c9c9c"/>
        <path id="Path_2710" data-name="Path 2710" d="M368.768,355.916a.629.629,0,0,0-.629.629v.53a.629.629,0,1,0,1.259,0v-.53a.629.629,0,0,0-.629-.629" transform="translate(-310.454 -299.738)" fill="#9c9c9c"/>
        <path id="Path_2711" data-name="Path 2711" d="M344.682,355.916a.629.629,0,0,0-.629.629v.53a.629.629,0,1,0,1.259,0v-.53a.629.629,0,0,0-.629-.629" transform="translate(-290.157 -299.738)" fill="#9c9c9c"/>
        <path id="Path_2712" data-name="Path 2712" d="M273.779,355.916a.629.629,0,0,0-.629.629v.53a.629.629,0,1,0,1.259,0v-.53a.629.629,0,0,0-.629-.629" transform="translate(-230.408 -299.738)" fill="#9c9c9c"/>
      </g>
    </g>
  </g>
</svg>
