<svg xmlns="http://www.w3.org/2000/svg" xmlns:xlink="http://www.w3.org/1999/xlink" width="78.01" height="64.31" viewBox="0 0 78.01 64.31">
  <defs>
    <clipPath id="clip-path">
      <rect id="Rectangle_64" data-name="Rectangle 64" width="78.01" height="64.314" fill="#9c9c9c"/>
    </clipPath>
    <clipPath id="clip-Kolkata">
      <rect width="78.01" height="64.31"/>
    </clipPath>
  </defs>
  <g id="Kolkata" clip-path="url(#clip-Kolkata)">
    <g id="Group_4" data-name="Group 4" transform="translate(-0.22 1)">
      <g id="Group_73" data-name="Group 73" clip-path="url(#clip-path)">
        <path id="Path_2621" data-name="Path 2621" d="M71.778,63.014v-41.5a5.2,5.2,0,0,0-2.707-4.425V15.232a.65.65,0,0,0-1.3,0v1.856a5.2,5.2,0,0,0-2.707,4.425V36.085H54.3V32.277A4.159,4.159,0,0,0,51.755,28.7v-.876a.65.65,0,1,0-1.3,0V28.7a5.46,5.46,0,0,0-1.243.849V23.916a10.224,10.224,0,0,0-7.567-9.858V8a3.245,3.245,0,0,0-1.624-2.673,3.02,3.02,0,0,0-.008-2.433,3.363,3.363,0,0,0-.358-.615V.65a.65.65,0,1,0-1.3,0v.508A4.7,4.7,0,0,0,37.8.893.65.65,0,0,0,37.324,2.1a2.691,2.691,0,0,1,1.5,1.316,1.714,1.714,0,0,1-.054,1.5l-.016,0A3.5,3.5,0,0,0,36.366,8v6.059A10.224,10.224,0,0,0,28.8,23.916v5.631a5.46,5.46,0,0,0-1.243-.849v-.876a.65.65,0,1,0-1.3,0V28.7a4.16,4.16,0,0,0-2.544,3.578v3.808H12.948V21.513a5.2,5.2,0,0,0-2.707-4.425V15.232a.65.65,0,0,0-1.3,0v1.856a5.2,5.2,0,0,0-2.708,4.425v41.5H0v1.3H78.01v-1.3ZM54.3,60.149V48.02H65.063v12.13ZM25.012,58.991H53v1.158H25.012ZM7.533,48.02h4.115v12.13H7.533Zm4.115-1.3H7.533V37.393h4.115ZM7.533,31.425h4.115v4.66H7.533Zm4.115-1.3H10.241V27.057a.65.65,0,1,0-1.3,0v3.068H7.533V23.99h4.115Zm1.3,17.895H23.712v12.13H12.948Zm12.064-14.08H28.8v2.146H25.012ZM30.1,28.472h1.885v4.167H30.1V28.472ZM53,57.691H47.715V48.02H53Zm-9.162,0H34.174V44.5a4.831,4.831,0,1,1,9.662,0Zm-4.831-19.32A6.138,6.138,0,0,0,32.874,44.5V57.691H31.6V37.385H46.415V57.691H45.136V44.5a6.138,6.138,0,0,0-6.131-6.131M30.1,33.939H47.911v2.146H30.1Zm17.616,3.446H53V46.72H47.715Zm1.5-3.446H53v2.146H49.211Zm-1.3-1.663v.363H46.026V28.472h1.885Zm-3.185.363H42.841V28.472h1.885Zm-3.185,0H39.655V30.567a.65.65,0,0,0-1.3,0v2.072H36.47V28.472h5.071Zm-6.371,0H33.284V28.472H35.17ZM25.012,37.385H30.3V46.72H25.012ZM30.3,57.691H25.012V48.02H30.3ZM66.363,48.02h4.115v12.13H66.363Zm4.115-17.895H69.07V27.057a.65.65,0,1,0-1.3,0v3.068H66.363V23.99h4.115Zm-4.115,1.3h4.115v4.66H66.363Zm0,5.967h4.115V46.72H66.363ZM68.42,18.213a3.907,3.907,0,0,1,2.057,3.3V22.69H66.363V21.513a3.907,3.907,0,0,1,2.057-3.3M65.063,46.72H54.3V37.385H65.063ZM51.1,29.825A2.928,2.928,0,0,1,53,32.277v.363H49.211v-.363A2.928,2.928,0,0,1,51.1,29.825M38.981,6.254c.02,0,.039.006.059.006A2.108,2.108,0,0,1,40.345,8V9.124H37.666V8a2.112,2.112,0,0,1,1.315-1.746m-1.315,4.17h2.679V13.8c-.228-.03-.457-.053-.689-.068V12.545a.65.65,0,1,0-1.3,0v1.188c-.232.015-.462.038-.689.068ZM30.1,23.916a8.906,8.906,0,1,1,17.812,0v3.255H30.1Zm-3.194,5.909A2.928,2.928,0,0,1,28.8,32.277v.363H25.012v-.363a2.928,2.928,0,0,1,1.894-2.451M23.712,46.72H12.948V37.385H23.712ZM9.59,18.213a3.907,3.907,0,0,1,2.057,3.3V22.69H7.533V21.513a3.907,3.907,0,0,1,2.058-3.3M7.533,61.45H70.477v1.565H7.533Z" fill="#9c9c9c"/>
        <path id="Path_2622" data-name="Path 2622" d="M166.805,243.915a.65.65,0,0,0-.65.65v3.529a.65.65,0,0,0,1.3,0v-3.529a.65.65,0,0,0-.65-.65" transform="translate(-139.151 -204.273)" fill="#9c9c9c"/>
        <path id="Path_2623" data-name="Path 2623" d="M119.141,248.744a.65.65,0,0,0,.65-.65v-3.529a.65.65,0,1,0-1.3,0v3.529a.65.65,0,0,0,.65.65" transform="translate(-99.234 -204.273)" fill="#9c9c9c"/>
        <path id="Path_2624" data-name="Path 2624" d="M99.726,248.744a.65.65,0,0,0,.65-.65v-3.529a.65.65,0,1,0-1.3,0v3.529a.65.65,0,0,0,.65.65" transform="translate(-82.974 -204.273)" fill="#9c9c9c"/>
        <path id="Path_2625" data-name="Path 2625" d="M373.574,248.744a.65.65,0,0,0,.65-.65v-3.529a.65.65,0,1,0-1.3,0v3.529a.65.65,0,0,0,.65.65" transform="translate(-312.316 -204.273)" fill="#9c9c9c"/>
        <path id="Path_2626" data-name="Path 2626" d="M354.159,248.744a.65.65,0,0,0,.65-.65v-3.529a.65.65,0,1,0-1.3,0v3.529a.65.65,0,0,0,.65.65" transform="translate(-296.056 -204.273)" fill="#9c9c9c"/>
        <path id="Path_2627" data-name="Path 2627" d="M55.66,248.744a.65.65,0,0,0,.65-.65v-3.529a.65.65,0,1,0-1.3,0v3.529a.65.65,0,0,0,.65.65" transform="translate(-46.07 -204.273)" fill="#9c9c9c"/>
        <path id="Path_2628" data-name="Path 2628" d="M166.805,314.134a.65.65,0,0,0,.65-.65v-3.529a.65.65,0,0,0-1.3,0v3.529a.65.65,0,0,0,.65.65" transform="translate(-139.151 -259.036)" fill="#9c9c9c"/>
        <path id="Path_2629" data-name="Path 2629" d="M55.66,309.3a.65.65,0,0,0-.65.65v5.02a.65.65,0,1,0,1.3,0v-5.02a.65.65,0,0,0-.65-.65" transform="translate(-46.07 -259.036)" fill="#9c9c9c"/>
        <path id="Path_2630" data-name="Path 2630" d="M306.5,243.915a.65.65,0,0,0-.65.65v3.529a.65.65,0,0,0,1.3,0v-3.529a.65.65,0,0,0-.65-.65" transform="translate(-256.138 -204.273)" fill="#9c9c9c"/>
        <path id="Path_2631" data-name="Path 2631" d="M417.64,243.915a.65.65,0,0,0-.65.65v3.529a.65.65,0,0,0,1.3,0v-3.529a.65.65,0,0,0-.65-.65" transform="translate(-349.22 -204.273)" fill="#9c9c9c"/>
        <path id="Path_2632" data-name="Path 2632" d="M306.5,314.134a.65.65,0,0,0,.65-.65v-3.529a.65.65,0,0,0-1.3,0v3.529a.65.65,0,0,0,.65.65" transform="translate(-256.138 -259.036)" fill="#9c9c9c"/>
        <path id="Path_2633" data-name="Path 2633" d="M417.64,309.3a.65.65,0,0,0-.65.65v5.02a.65.65,0,1,0,1.3,0v-5.02a.65.65,0,0,0-.65-.65" transform="translate(-349.22 -259.036)" fill="#9c9c9c"/>
        <path id="Path_2634" data-name="Path 2634" d="M56.119,203.953a.677.677,0,0,0-.92,0,.773.773,0,0,0-.081.1.744.744,0,0,0-.062.111.769.769,0,0,0-.036.124.624.624,0,0,0,0,.253.734.734,0,0,0,.036.12.77.77,0,0,0,.062.114.586.586,0,0,0,.081.1.653.653,0,0,0,.458.192.666.666,0,0,0,.462-.192.655.655,0,0,0,.189-.458.663.663,0,0,0-.189-.462" transform="translate(-46.067 -170.655)" fill="#9c9c9c"/>
        <path id="Path_2635" data-name="Path 2635" d="M418.273,204.25a.532.532,0,0,0-.036-.124.514.514,0,0,0-.062-.11.744.744,0,0,0-.078-.1.759.759,0,0,0-.1-.078.567.567,0,0,0-.234-.1.671.671,0,0,0-.253,0,.511.511,0,0,0-.12.036.552.552,0,0,0-.114.062.578.578,0,0,0-.1.078.667.667,0,0,0-.192.462.839.839,0,0,0,.013.127.782.782,0,0,0,.039.12.75.75,0,0,0,.059.114.459.459,0,0,0,.081.1.6.6,0,0,0,.1.081.786.786,0,0,0,.114.062.715.715,0,0,0,.12.036.623.623,0,0,0,.253,0,.75.75,0,0,0,.124-.036.764.764,0,0,0,.111-.062.786.786,0,0,0,.1-.081.656.656,0,0,0,.189-.458.548.548,0,0,0-.013-.127" transform="translate(-349.217 -170.618)" fill="#9c9c9c"/>
        <path id="Path_2636" data-name="Path 2636" d="M102.881,309.3H99.726a.65.65,0,0,0-.65.65v5.02a.65.65,0,0,0,.65.65h3.155a.65.65,0,0,0,.65-.65v-5.02a.65.65,0,0,0-.65-.65m-.65,5.02h-1.855v-3.719h1.855Z" transform="translate(-82.974 -259.036)" fill="#9c9c9c"/>
        <path id="Path_2637" data-name="Path 2637" d="M357.314,309.3h-3.155a.65.65,0,0,0-.65.65v5.02a.65.65,0,0,0,.65.65h3.155a.65.65,0,0,0,.65-.65v-5.02a.65.65,0,0,0-.65-.65m-.65,5.02h-1.855v-3.719h1.855Z" transform="translate(-296.056 -259.036)" fill="#9c9c9c"/>
      </g>
    </g>
  </g>
</svg>
