<svg xmlns="http://www.w3.org/2000/svg" xmlns:xlink="http://www.w3.org/1999/xlink" width="75.59" height="68.49" viewBox="0 0 75.59 68.49">
  <defs>
    <clipPath id="clip-path">
      <rect id="Rectangle_69" data-name="Rectangle 69" width="75.593" height="68.488" fill="#9c9c9c"/>
    </clipPath>
    <clipPath id="clip-Kota">
      <rect width="75.59" height="68.49"/>
    </clipPath>
  </defs>
  <g id="Kota" clip-path="url(#clip-Kota)">
    <g id="Group_89" data-name="Group 89" transform="translate(-0.44 0.28)">
      <g id="Group_83" data-name="Group 83" clip-path="url(#clip-path)">
        <path id="Path_2794" data-name="Path 2794" d="M68.83,67.229v-17.5h.788a.63.63,0,0,0,0-1.26H68.83V36.75h.786a.63.63,0,0,0,0-1.26H68.83V23.775h1.6a.63.63,0,1,0,0-1.26h-1.6V20.026h.786a.63.63,0,0,0,0-1.26H68.83V16.314c0-2.55-2-3.593-4.417-4.274v-.833c0-1.6-1.446-2.018-2.223-2.243a.627.627,0,0,0-.35,0c-.722.209-2.223.643-2.223,2.243v.833c-2.415.681-4.417,1.723-4.417,4.274v2.453H50.934V10.8h1.6a.63.63,0,1,0,0-1.26h-1.6v-1.1c0-2.165-1.75-2.852-3.391-3.326a.627.627,0,0,0-.35,0,6.882,6.882,0,0,0-2.3,1.021c-.571-2.071-2.553-2.953-4.541-3.561V1.2a.63.63,0,0,0-1.26,0V2.419h-.665V.631a.63.63,0,0,0-1.26,0V2.419H36.5V1.2a.63.63,0,1,0-1.26,0V2.576c-1.989.608-3.971,1.49-4.541,3.561a6.882,6.882,0,0,0-2.3-1.021.627.627,0,0,0-.35,0c-1.641.475-3.391,1.162-3.391,3.326v1.1h-1.6a.63.63,0,0,0,0,1.26h1.6v7.968H20.392V16.314c0-2.55-2-3.593-4.417-4.274v-.833c0-1.6-1.446-2.018-2.223-2.243a.627.627,0,0,0-.35,0c-.722.209-2.223.643-2.223,2.243v.833c-2.415.681-4.417,1.723-4.417,4.274v2.453H5.977a.63.63,0,1,0,0,1.26h.786v2.488h-1.6a.63.63,0,0,0,0,1.26h1.6V35.491H5.977a.63.63,0,1,0,0,1.26h.786V48.467H5.977a.63.63,0,1,0,0,1.26h.786v17.5H0v1.26H75.592v-1.26ZM12.439,11.208c0-.418.176-.68,1.138-.981.968.3,1.138.554,1.138.981v.51c-.332-.078-.666-.154-1-.229a.635.635,0,0,0-.277,0c-.334.075-.668.151-1,.229ZM8.022,16.314c0-1.969,1.64-2.675,5.555-3.564,3.915.889,5.555,1.6,5.555,3.564v2.453H8.022Zm0,3.713H19.132v2.488H8.022Zm0,3.748H19.132V35.491H8.022Zm9.739,43.454H8.022v-17.5h9.739ZM8.022,36.75H19.132V48.466H8.022ZM24.658,67.229H19.021V60.776h5.637Zm0-7.713H19.021V56.783h5.637Zm0-3.993H19.021v-5.8h5.637Zm0-7.056H20.392V46.979h4.266Zm0-2.747H20.392V36.75h4.266Zm0-10.229H20.392V34h4.266Zm0-2.747H20.392V23.775h4.266Zm0-10.229H20.392V20.026h4.266ZM31.791,8.442V7.4c0-2.1,1.461-2.937,4.161-3.726H39.64C42.34,4.468,43.8,5.306,43.8,7.4V8.782c-.02-.016-.042-.029-.062-.044-.19-.143-.383-.281-.582-.409l-.063-.039q-.287-.183-.586-.344l-.09-.05c-.206-.109-.415-.209-.627-.3l-.13-.056c-.213-.091-.429-.174-.649-.25l-.1-.033c-.216-.071-.434-.136-.654-.192l-.063-.017c-.23-.057-.462-.1-.7-.144l-.136-.023q-.346-.055-.7-.085l-.126-.009c-.246-.018-.493-.03-.742-.03s-.5.012-.742.03l-.126.009q-.352.03-.7.086L36.1,6.9c-.235.04-.468.087-.7.144l-.061.017c-.221.056-.44.121-.657.193l-.1.032c-.22.075-.436.159-.65.25l-.129.056c-.212.094-.422.194-.628.3l-.089.049q-.3.162-.586.345l-.062.038c-.2.129-.392.266-.582.409-.02.015-.042.029-.062.044Zm-5.873,0c0-1.025.565-1.54,2.307-2.065,1.742.525,2.307,1.04,2.307,2.065v1.1H25.918ZM43.457,67.229H32.048V59.634a.383.383,0,0,1,.244-.345.633.633,0,0,0,.4-.768,3.638,3.638,0,0,1,.476-2.737,4.408,4.408,0,0,1,3.194-1.944,3.459,3.459,0,0,0,1.394-.507,3.458,3.458,0,0,0,1.394.507,4.408,4.408,0,0,1,3.194,1.944,3.638,3.638,0,0,1,.477,2.734.63.63,0,0,0,.395.772.388.388,0,0,1,.245.345Zm6.217,0H44.717V59.634a1.58,1.58,0,0,0-.6-1.25,4.973,4.973,0,0,0-.713-3.267,5.63,5.63,0,0,0-4.077-2.522,1.861,1.861,0,0,1-1.085-.468.652.652,0,0,0-.987,0,1.871,1.871,0,0,1-1.085.468A5.63,5.63,0,0,0,32.1,55.116a4.972,4.972,0,0,0-.713,3.267,1.58,1.58,0,0,0-.6,1.25v7.595h-4.87v-17.5H49.674Zm0-18.762H25.918V46.979H49.674Zm0-2.747H25.918V36.75H49.674Zm0-10.229H25.918V34H49.674Zm0-2.747H25.918V23.775H49.674Zm0-10.229H25.918V21.028H49.674Zm0-3.118v.371H25.918V10.8h5.255a.63.63,0,0,0,.45-.189,8.64,8.64,0,0,1,12.346,0,.63.63,0,0,0,.45.189h5.255Zm0-9.858H45.061v-1.1c0-1.025.565-1.54,2.307-2.065,1.741.525,2.307,1.039,2.307,2.065Zm11.2,1.669c0-.418.176-.68,1.138-.981.968.3,1.138.554,1.138.981v.51c-.332-.078-.666-.154-1-.229a.637.637,0,0,0-.277,0c-.333.075-.668.151-1,.229Zm-9.943,8.819H55.2v2.488H50.934Zm0,3.748H55.2v8.969H50.934Zm0,10.229H55.2v1.487H50.934Zm0,2.747H55.2v8.969H50.934Zm0,10.229H55.2v1.487H50.934Zm5.637,20.25H50.934V60.776h5.637Zm0-7.713H50.934V56.783h5.637Zm0-3.993H50.934v-5.8h5.637Zm11,11.706H57.831v-17.5H67.57Zm0-18.762H56.46V36.75H67.57Zm0-12.976H56.46V23.775H67.57Zm0-12.976H56.46V20.026H67.57Zm0-3.748H56.46V16.314c0-1.969,1.64-2.675,5.555-3.564,3.915.889,5.555,1.6,5.555,3.564Z" transform="translate(0 -0.001)" fill="#9c9c9c"/>
        <path id="Path_2795" data-name="Path 2795" d="M176.28,331.749a.63.63,0,0,0,.63-.63v-4.125a.63.63,0,1,0-1.26,0v4.125a.63.63,0,0,0,.63.63" transform="translate(-147.988 -274.967)" fill="#9c9c9c"/>
        <path id="Path_2796" data-name="Path 2796" d="M176.28,383.1a.63.63,0,0,0,.63-.63v-3.928a.63.63,0,1,0-1.26,0v3.928a.63.63,0,0,0,.63.63" transform="translate(-147.988 -318.398)" fill="#9c9c9c"/>
        <path id="Path_2797" data-name="Path 2797" d="M296.421,331.749a.63.63,0,0,0,.63-.63v-4.125a.63.63,0,1,0-1.26,0v4.125a.63.63,0,0,0,.63.63" transform="translate(-249.209 -274.967)" fill="#9c9c9c"/>
        <path id="Path_2798" data-name="Path 2798" d="M296.421,383.1a.63.63,0,0,0,.63-.63v-3.928a.63.63,0,1,0-1.26,0v3.928a.63.63,0,0,0,.63.63" transform="translate(-249.209 -318.398)" fill="#9c9c9c"/>
        <path id="Path_2799" data-name="Path 2799" d="M139.659,174.806a.63.63,0,0,0,.63-.63v-2.77a.63.63,0,1,0-1.26,0v2.77a.63.63,0,0,0,.63.63" transform="translate(-117.134 -143.881)" fill="#9c9c9c"/>
        <path id="Path_2800" data-name="Path 2800" d="M333.6,170.776a.63.63,0,0,0-.63.63v2.77a.63.63,0,1,0,1.26,0v-2.77a.63.63,0,0,0-.63-.63" transform="translate(-280.531 -143.881)" fill="#9c9c9c"/>
        <path id="Path_2801" data-name="Path 2801" d="M228.734,171.2h2.487a.63.63,0,0,0,.63-.63v-3.184a1.873,1.873,0,0,0-3.747,0v3.184a.63.63,0,0,0,.63.63m.63-3.814a.613.613,0,1,1,1.227,0v2.555h-1.227Z" transform="translate(-192.181 -139.446)" fill="#9c9c9c"/>
        <path id="Path_2802" data-name="Path 2802" d="M260.065,171.2h2.077a.63.63,0,0,0,.63-.63v-3.39a1.668,1.668,0,0,0-3.336,0v3.39a.63.63,0,0,0,.63.63m.63-4.019a.408.408,0,0,1,.817,0v2.76h-.817Z" transform="translate(-218.578 -139.446)" fill="#9c9c9c"/>
        <path id="Path_2803" data-name="Path 2803" d="M286.823,171.2H288.9a.63.63,0,0,0,.63-.63v-3.39a1.668,1.668,0,0,0-3.336,0v3.39a.63.63,0,0,0,.63.63m.63-4.019a.408.408,0,0,1,.817,0v2.76h-.817Z" transform="translate(-241.122 -139.446)" fill="#9c9c9c"/>
        <path id="Path_2804" data-name="Path 2804" d="M173.249,171.2h2.077a.63.63,0,0,0,.63-.63v-3.39a1.668,1.668,0,0,0-3.336,0v3.39a.63.63,0,0,0,.63.63m.63-4.019a.408.408,0,0,1,.817,0v2.76h-.817Z" transform="translate(-145.434 -139.446)" fill="#9c9c9c"/>
        <path id="Path_2805" data-name="Path 2805" d="M200.007,171.2h2.077a.63.63,0,0,0,.63-.63v-3.39a1.668,1.668,0,0,0-3.336,0v3.39a.63.63,0,0,0,.63.63m.63-4.019a.408.408,0,0,1,.817,0v2.76h-.817Z" transform="translate(-167.978 -139.446)" fill="#9c9c9c"/>
        <path id="Path_2806" data-name="Path 2806" d="M229.977,83.118a1.875,1.875,0,0,0-1.873,1.873v3.185a.63.63,0,0,0,.63.63h2.487a.63.63,0,0,0,.63-.63V84.991a1.876,1.876,0,0,0-1.873-1.873m.614,4.428h-1.227V84.991a.613.613,0,0,1,1.227,0Z" transform="translate(-192.181 -70.028)" fill="#9c9c9c"/>
        <path id="Path_2807" data-name="Path 2807" d="M261.1,83.118a1.67,1.67,0,0,0-1.668,1.668v3.39a.63.63,0,0,0,.63.63h2.077a.63.63,0,0,0,.63-.63v-3.39a1.67,1.67,0,0,0-1.668-1.668m.409,4.428h-.817v-2.76a.408.408,0,0,1,.817,0Z" transform="translate(-218.578 -70.028)" fill="#9c9c9c"/>
        <path id="Path_2808" data-name="Path 2808" d="M286.823,88.8H288.9a.63.63,0,0,0,.63-.63v-3.39a1.668,1.668,0,0,0-3.336,0v3.39a.63.63,0,0,0,.63.63m.63-4.019a.408.408,0,0,1,.817,0v2.76h-.817Z" transform="translate(-241.122 -70.027)" fill="#9c9c9c"/>
        <path id="Path_2809" data-name="Path 2809" d="M174.287,83.118a1.67,1.67,0,0,0-1.668,1.668v3.39a.63.63,0,0,0,.63.63h2.077a.63.63,0,0,0,.63-.63v-3.39a1.67,1.67,0,0,0-1.668-1.668m.409,4.428h-.817v-2.76a.408.408,0,0,1,.817,0Z" transform="translate(-145.434 -70.028)" fill="#9c9c9c"/>
        <path id="Path_2810" data-name="Path 2810" d="M201.044,83.118a1.67,1.67,0,0,0-1.668,1.668v3.39a.63.63,0,0,0,.63.63h2.077a.63.63,0,0,0,.63-.63v-3.39a1.67,1.67,0,0,0-1.668-1.668m.408,4.428h-.817v-2.76a.408.408,0,0,1,.817,0Z" transform="translate(-167.977 -70.028)" fill="#9c9c9c"/>
        <path id="Path_2811" data-name="Path 2811" d="M139.659,257.2a.63.63,0,0,0,.63-.63V253.8a.63.63,0,1,0-1.26,0v2.77a.63.63,0,0,0,.63.63" transform="translate(-117.134 -213.3)" fill="#9c9c9c"/>
        <path id="Path_2812" data-name="Path 2812" d="M371.739,264.7a.63.63,0,0,0,.63-.63v-4.859a.63.63,0,0,0-1.26,0v4.859a.63.63,0,0,0,.63.63" transform="translate(-312.665 -217.858)" fill="#9c9c9c"/>
        <path id="Path_2813" data-name="Path 2813" d="M390.415,264.7a.63.63,0,0,0,.63-.63v-4.859a.63.63,0,0,0-1.26,0v4.859a.63.63,0,0,0,.63.63" transform="translate(-328.4 -217.858)" fill="#9c9c9c"/>
        <path id="Path_2814" data-name="Path 2814" d="M409.091,258.58a.63.63,0,0,0-.63.63v4.859a.63.63,0,1,0,1.26,0V259.21a.63.63,0,0,0-.63-.63" transform="translate(-344.135 -217.858)" fill="#9c9c9c"/>
        <path id="Path_2815" data-name="Path 2815" d="M371.3,244.752a.59.59,0,0,0,.2.139.639.639,0,0,0,.242.047.8.8,0,0,0,.123-.013.715.715,0,0,0,.117-.035.753.753,0,0,0,.11-.06.563.563,0,0,0,.094-.079.64.64,0,0,0,.139-.2.625.625,0,0,0,.047-.239.793.793,0,0,0-.013-.123.721.721,0,0,0-.038-.12.5.5,0,0,0-.057-.107.584.584,0,0,0-.079-.1.634.634,0,0,0-.567-.17.509.509,0,0,0-.12.035.642.642,0,0,0-.107.057.744.744,0,0,0-.095.079.624.624,0,0,0,0,.891" transform="translate(-312.665 -205.303)" fill="#9c9c9c"/>
        <path id="Path_2816" data-name="Path 2816" d="M389.973,244.746a.631.631,0,0,0,1.078-.444.56.56,0,0,0-.013-.123.784.784,0,0,0-.038-.12.648.648,0,0,0-.136-.2.626.626,0,0,0-.567-.17.508.508,0,0,0-.12.035.5.5,0,0,0-.107.06.725.725,0,0,0-.1.076.685.685,0,0,0-.075.1.5.5,0,0,0-.06.107.51.51,0,0,0-.035.12.533.533,0,0,0-.013.123.623.623,0,0,0,.047.239.631.631,0,0,0,.135.2" transform="translate(-328.405 -205.297)" fill="#9c9c9c"/>
        <path id="Path_2817" data-name="Path 2817" d="M409.082,244.931a.622.622,0,0,0,.239-.047.638.638,0,0,0,.2-.138.624.624,0,0,0,.186-.444.826.826,0,0,0-.013-.123.776.776,0,0,0-.038-.12.715.715,0,0,0-.057-.107,1.228,1.228,0,0,0-.079-.1.633.633,0,0,0-.57-.17.519.519,0,0,0-.117.035.562.562,0,0,0-.107.057.814.814,0,0,0-.1.079.64.64,0,0,0-.186.447.619.619,0,0,0,.186.444.626.626,0,0,0,.447.186" transform="translate(-344.125 -205.296)" fill="#9c9c9c"/>
        <path id="Path_2818" data-name="Path 2818" d="M64.167,258.58a.63.63,0,0,0-.63.63v4.859a.63.63,0,1,0,1.26,0V259.21a.63.63,0,0,0-.63-.63" transform="translate(-53.531 -217.858)" fill="#9c9c9c"/>
        <path id="Path_2819" data-name="Path 2819" d="M82.843,258.58a.63.63,0,0,0-.63.63v4.859a.63.63,0,1,0,1.26,0V259.21a.63.63,0,0,0-.63-.63" transform="translate(-69.266 -217.858)" fill="#9c9c9c"/>
        <path id="Path_2820" data-name="Path 2820" d="M101.519,258.58a.63.63,0,0,0-.63.63v4.859a.63.63,0,1,0,1.26,0V259.21a.63.63,0,0,0-.63-.63" transform="translate(-85.001 -217.858)" fill="#9c9c9c"/>
        <path id="Path_2821" data-name="Path 2821" d="M63.58,244.541a.737.737,0,0,0,.057.11.561.561,0,0,0,.079.094.61.61,0,0,0,.1.079.446.446,0,0,0,.107.06.7.7,0,0,0,.117.035.533.533,0,0,0,.123.013.626.626,0,0,0,.243-.047.639.639,0,0,0,.2-.138.577.577,0,0,0,.079-.094.751.751,0,0,0,.057-.11.5.5,0,0,0,.035-.117.543.543,0,0,0,.013-.123.625.625,0,0,0-.753-.617.485.485,0,0,0-.117.035.7.7,0,0,0-.11.057.769.769,0,0,0-.094.079.577.577,0,0,0-.079.1.583.583,0,0,0-.057.107.75.75,0,0,0-.038.12.6.6,0,0,0,0,.246.719.719,0,0,0,.038.117" transform="translate(-53.525 -205.297)" fill="#9c9c9c"/>
        <path id="Path_2822" data-name="Path 2822" d="M82.4,244.74a.619.619,0,0,0,.444.186.639.639,0,0,0,.242-.047.692.692,0,0,0,.2-.139.682.682,0,0,0,.135-.2.626.626,0,0,0,.047-.239.636.636,0,0,0-.183-.447,1.123,1.123,0,0,0-.1-.079.644.644,0,0,0-.107-.057.506.506,0,0,0-.12-.035.54.54,0,0,0-.246,0,.481.481,0,0,0-.117.035.685.685,0,0,0-.11.057.741.741,0,0,0-.094.079.727.727,0,0,0-.079.1.579.579,0,0,0-.06.107.521.521,0,0,0-.034.12.541.541,0,0,0-.013.123.626.626,0,0,0,.047.239.638.638,0,0,0,.139.2" transform="translate(-69.264 -205.292)" fill="#9c9c9c"/>
        <path id="Path_2823" data-name="Path 2823" d="M102.1,244.054a.722.722,0,0,0-.138-.2.826.826,0,0,0-.095-.079.713.713,0,0,0-.11-.057.475.475,0,0,0-.117-.035.543.543,0,0,0-.246,0,.5.5,0,0,0-.12.035.7.7,0,0,0-.107.057,1.162,1.162,0,0,0-.1.079.6.6,0,0,0-.076.1.459.459,0,0,0-.06.107.509.509,0,0,0-.034.12.514.514,0,0,0-.013.123.624.624,0,0,0,.047.239.682.682,0,0,0,.136.2.739.739,0,0,0,.1.079.692.692,0,0,0,.107.06.717.717,0,0,0,.12.035.757.757,0,0,0,.123.013.791.791,0,0,0,.123-.013.681.681,0,0,0,.117-.035.7.7,0,0,0,.11-.06.584.584,0,0,0,.095-.079.636.636,0,0,0,.138-.2.622.622,0,0,0,.047-.239.507.507,0,0,0-.013-.123.756.756,0,0,0-.035-.12" transform="translate(-85.002 -205.291)" fill="#9c9c9c"/>
        <path id="Path_2824" data-name="Path 2824" d="M371.739,182.3a.63.63,0,0,0,.63-.63v-4.859a.63.63,0,1,0-1.26,0v4.859a.63.63,0,0,0,.63.63" transform="translate(-312.665 -148.439)" fill="#9c9c9c"/>
        <path id="Path_2825" data-name="Path 2825" d="M390.415,182.3a.63.63,0,0,0,.63-.63v-4.859a.63.63,0,1,0-1.26,0v4.859a.63.63,0,0,0,.63.63" transform="translate(-328.4 -148.439)" fill="#9c9c9c"/>
        <path id="Path_2826" data-name="Path 2826" d="M409.091,176.186a.63.63,0,0,0-.63.63v4.859a.63.63,0,0,0,1.26,0v-4.859a.63.63,0,0,0-.63-.63" transform="translate(-344.135 -148.439)" fill="#9c9c9c"/>
        <path id="Path_2827" data-name="Path 2827" d="M371.3,162.352a.591.591,0,0,0,.2.139.643.643,0,0,0,.242.047.544.544,0,0,0,.123-.013.5.5,0,0,0,.117-.034.557.557,0,0,0,.11-.06.455.455,0,0,0,.094-.079.6.6,0,0,0,.139-.2.642.642,0,0,0,.047-.243.632.632,0,0,0-.753-.617.541.541,0,0,0-.12.035.724.724,0,0,0-.107.06.453.453,0,0,0-.095.079.619.619,0,0,0-.186.444.643.643,0,0,0,.047.243.589.589,0,0,0,.139.2" transform="translate(-312.665 -135.879)" fill="#9c9c9c"/>
        <path id="Path_2828" data-name="Path 2828" d="M390.421,162.531a.635.635,0,0,0,.63-.63.55.55,0,0,0-.013-.123.791.791,0,0,0-.038-.12.677.677,0,0,0-.057-.107.545.545,0,0,0-.079-.095.62.62,0,0,0-.567-.173.532.532,0,0,0-.12.035.508.508,0,0,0-.107.06.569.569,0,0,0-.1.079.55.55,0,0,0-.075.095.5.5,0,0,0-.06.107.512.512,0,0,0-.035.12.539.539,0,0,0-.013.123.629.629,0,0,0,.63.63" transform="translate(-328.405 -135.873)" fill="#9c9c9c"/>
        <path id="Path_2829" data-name="Path 2829" d="M408.841,162.49a.64.64,0,0,0,.482,0,.639.639,0,0,0,.2-.139.625.625,0,0,0,.186-.444.826.826,0,0,0-.013-.123.794.794,0,0,0-.038-.12.71.71,0,0,0-.057-.107.8.8,0,0,0-.079-.095.635.635,0,0,0-.57-.173.556.556,0,0,0-.117.035.593.593,0,0,0-.107.06.476.476,0,0,0-.1.079.563.563,0,0,0-.079.095.7.7,0,0,0-.057.107.754.754,0,0,0-.038.12.822.822,0,0,0-.013.123.619.619,0,0,0,.186.444.635.635,0,0,0,.2.139" transform="translate(-344.125 -135.879)" fill="#9c9c9c"/>
        <path id="Path_2830" data-name="Path 2830" d="M64.167,176.186a.63.63,0,0,0-.63.63v4.859a.63.63,0,0,0,1.26,0v-4.859a.63.63,0,0,0-.63-.63" transform="translate(-53.531 -148.439)" fill="#9c9c9c"/>
        <path id="Path_2831" data-name="Path 2831" d="M82.843,176.186a.63.63,0,0,0-.63.63v4.859a.63.63,0,0,0,1.26,0v-4.859a.63.63,0,0,0-.63-.63" transform="translate(-69.266 -148.439)" fill="#9c9c9c"/>
        <path id="Path_2832" data-name="Path 2832" d="M101.519,176.186a.63.63,0,0,0-.63.63v4.859a.63.63,0,0,0,1.26,0v-4.859a.63.63,0,0,0-.63-.63" transform="translate(-85.001 -148.439)" fill="#9c9c9c"/>
        <path id="Path_2833" data-name="Path 2833" d="M64.159,162.531a.631.631,0,0,0,.243-.047.64.64,0,0,0,.2-.139.632.632,0,0,0,0-.888.474.474,0,0,0-.1-.079.586.586,0,0,0-.107-.06.531.531,0,0,0-.12-.035.62.62,0,0,0-.567.173.632.632,0,0,0-.186.444.635.635,0,0,0,.63.63" transform="translate(-53.524 -135.873)" fill="#9c9c9c"/>
        <path id="Path_2834" data-name="Path 2834" d="M82.258,162.139a.707.707,0,0,0,.057.107.57.57,0,0,0,.082.094.619.619,0,0,0,.444.186.617.617,0,0,0,.447-.186.631.631,0,0,0,0-.888.572.572,0,0,0-.1-.079.5.5,0,0,0-.107-.06.531.531,0,0,0-.12-.035.544.544,0,0,0-.246,0,.505.505,0,0,0-.117.035.528.528,0,0,0-.11.06.448.448,0,0,0-.094.079.562.562,0,0,0-.079.095.694.694,0,0,0-.06.107.516.516,0,0,0-.034.12.606.606,0,0,0,0,.246.515.515,0,0,0,.034.12" transform="translate(-69.264 -135.868)" fill="#9c9c9c"/>
        <path id="Path_2835" data-name="Path 2835" d="M101.869,161.372a.537.537,0,0,0-.11-.06.514.514,0,0,0-.117-.035.66.66,0,0,0-.366.035.519.519,0,0,0-.107.06.587.587,0,0,0-.1.079.578.578,0,0,0-.076.095.535.535,0,0,0-.094.227.541.541,0,0,0-.013.123.629.629,0,0,0,.63.63.62.62,0,0,0,.444-.186.462.462,0,0,0,.079-.094.613.613,0,0,0,.06-.107.58.58,0,0,0,.035-.12.539.539,0,0,0,.013-.123.615.615,0,0,0-.186-.444.474.474,0,0,0-.095-.079" transform="translate(-85.001 -135.867)" fill="#9c9c9c"/>
        <path id="Path_2836" data-name="Path 2836" d="M333.6,253.17a.63.63,0,0,0-.63.63v2.77a.63.63,0,1,0,1.26,0V253.8a.63.63,0,0,0-.63-.63" transform="translate(-280.531 -213.3)" fill="#9c9c9c"/>
        <path id="Path_2837" data-name="Path 2837" d="M228.734,253.594h2.487a.63.63,0,0,0,.63-.63v-3.184a1.873,1.873,0,0,0-3.747,0v3.184a.63.63,0,0,0,.63.63m.63-3.814a.613.613,0,1,1,1.227,0v2.555h-1.227Z" transform="translate(-192.181 -208.865)" fill="#9c9c9c"/>
        <path id="Path_2838" data-name="Path 2838" d="M260.065,253.594h2.077a.63.63,0,0,0,.63-.63v-3.39a1.668,1.668,0,0,0-3.336,0v3.39a.63.63,0,0,0,.63.63m.63-4.019a.408.408,0,0,1,.817,0v2.76h-.817Z" transform="translate(-218.578 -208.865)" fill="#9c9c9c"/>
        <path id="Path_2839" data-name="Path 2839" d="M286.823,253.594H288.9a.63.63,0,0,0,.63-.63v-3.39a1.668,1.668,0,0,0-3.336,0v3.39a.63.63,0,0,0,.63.63m.63-4.019a.408.408,0,0,1,.817,0v2.76h-.817Z" transform="translate(-241.122 -208.865)" fill="#9c9c9c"/>
        <path id="Path_2840" data-name="Path 2840" d="M173.249,253.594h2.077a.63.63,0,0,0,.63-.63v-3.39a1.668,1.668,0,0,0-3.336,0v3.39a.63.63,0,0,0,.63.63m.63-4.019a.408.408,0,0,1,.817,0v2.76h-.817Z" transform="translate(-145.434 -208.865)" fill="#9c9c9c"/>
        <path id="Path_2841" data-name="Path 2841" d="M200.007,253.594h2.077a.63.63,0,0,0,.63-.63v-3.39a1.668,1.668,0,0,0-3.336,0v3.39a.63.63,0,0,0,.63.63m.63-4.019a.408.408,0,0,1,.817,0v2.76h-.817Z" transform="translate(-167.978 -208.865)" fill="#9c9c9c"/>
      </g>
    </g>
  </g>
</svg>
