<svg xmlns="http://www.w3.org/2000/svg" xmlns:xlink="http://www.w3.org/1999/xlink" width="71.57" height="64.77" viewBox="0 0 71.57 64.77">
  <defs>
    <clipPath id="clip-path">
      <rect id="Rectangle_66" data-name="Rectangle 66" width="71.566" height="64.77" fill="#9c9c9c"/>
    </clipPath>
    <clipPath id="clip-Lucknow">
      <rect width="71.57" height="64.77"/>
    </clipPath>
  </defs>
  <g id="Lucknow" clip-path="url(#clip-Lucknow)">
    <g id="Group_88" data-name="Group 88" transform="translate(-0.44 0.28)">
      <g id="Group_77" data-name="Group 77" clip-path="url(#clip-path)">
        <path id="Path_2713" data-name="Path 2713" d="M68.776,63.578V31.4a.6.6,0,0,0-.6-.6H59.758V10.917H60.6a.595.595,0,0,0,.056-1.187V8.165a1.415,1.415,0,0,0-.9-1.192v-.21a.6.6,0,0,0-1.193,0v.21a1.414,1.414,0,0,0-.9,1.193V9.73a.595.595,0,0,0,.056,1.187h.841V24.111C56.522,19.1,52.158,15.52,47.923,12.922a.6.6,0,0,0-.11-.089.59.59,0,0,0-.13-.058c-1.809-1.1-3.586-2.012-5.14-2.786h0c-.4-.2-.784-.388-1.151-.569-.678-.334-1.379-.68-1.957-.98l-1.091-.566V5.866h.119a.6.6,0,0,0,0-1.193h-.119V4.113c0-1.171-1.193-1.8-1.965-2.178V.6a.6.6,0,0,0-1.193,0V1.935c-.769.38-1.965,1.006-1.965,2.178v.561H33.1a.6.6,0,1,0,0,1.193h.119v2.01l-1.092.566c-.55.285-1.184.6-1.955.978-1.934.952-4.159,2.049-6.395,3.4-.009,0-.018.008-.027.013s-.012.01-.019.014a38.08,38.08,0,0,0-4.06,2.808A23.155,23.155,0,0,0,14.5,21.29a.584.584,0,0,0-.082.1.59.59,0,0,0-.057.119A17.778,17.778,0,0,0,13,24.192V10.917h.841A.595.595,0,0,0,13.9,9.73V8.165A1.414,1.414,0,0,0,13,6.972v-.21a.6.6,0,1,0-1.193,0v.209a1.415,1.415,0,0,0-.9,1.193V9.73a.595.595,0,0,0,.056,1.187h.842V30.8H3.386a.6.6,0,0,0-.6.6V63.578H0V64.77H71.566V63.578ZM58.861,8.2a1.231,1.231,0,0,1,.3-.2,1.229,1.229,0,0,1,.3.2v1.52h-.6ZM12.1,8.2a1.238,1.238,0,0,1,.3-.2,1.22,1.22,0,0,1,.3.2v1.52h-.6ZM64.169,53.868h-1V47.144a.5.5,0,0,1,1,0Zm-.5-8.415a1.693,1.693,0,0,0-1.691,1.691v6.724H59.758V41.7h7.825V53.868H65.362V47.144a1.693,1.693,0,0,0-1.691-1.691M55.8,21.539l-2.862,1.819q-.395-.573-.841-1.113l2.531-2.25A19.327,19.327,0,0,1,55.8,21.539m.637,1.008a16.027,16.027,0,0,1,.9,1.78l-3.168,1.226a12.774,12.774,0,0,0-.6-1.187ZM67.583,40.509H65.362V37.59a1.691,1.691,0,1,0-3.382,0v2.919H59.758V34.182h7.825Zm-3.414,0h-1V37.59a.5.5,0,1,1,1,0Zm-5.6,13.683H55.172V52.423h3.393Zm0,2.962H55.172V55.385h3.393Zm0-23.693H55.172V31.692h3.393Zm0,2.962H55.172V34.653h3.393Zm0,2.962H55.172V37.615h3.393Zm0,1.193v1.769H55.172V40.577Zm0,4.731H55.172V43.538h3.393Zm0,2.962H55.172V46.5h3.393Zm0,2.962H55.172V49.462h3.393Zm0-20.973V30.5H55.172v-.241c0-.4-.026-.783-.064-1.164l3.359-.514a15.319,15.319,0,0,1,.1,1.678M55.172,58.347h3.393v1.769H55.172ZM58.294,27.4l-3.36.515a11.493,11.493,0,0,0-.334-1.246l3.178-1.23a14.745,14.745,0,0,1,.516,1.961M55.172,61.308h3.393v2.269H55.172Zm12.41-28.319H59.758v-1h7.825ZM53.837,19.106l-2.526,2.246c-.333-.352-.68-.692-1.04-1.023l2.224-2.542q.7.634,1.342,1.319m-7.919-2.035,1.768-2.887q.752.473,1.5.988L47.214,17.92q-.642-.44-1.3-.85m-1.833-4.952L42.472,15.1c-.491-.258-.973-.505-1.441-.741l1.513-3.036c.5.25,1.01.513,1.54.793m1.049.568q.757.417,1.533.877L44.9,16.45q-.691-.407-1.376-.783Zm5.021,3.182q.734.544,1.442,1.134l-2.223,2.541q-.58-.482-1.187-.932Zm-8.678-5.075L39.963,13.83l-.6-.3-.923-.457,1.544-3.022.879.435.612.3M38.921,9.519,37.377,12.54l-.053-.027-.946-.49V8.2l2.507,1.3.035.018M34.414,4.113c0-.467.854-.889,1.369-1.143.515.253,1.369.676,1.369,1.143v.561H34.414Zm0,1.754h2.737V7.258L36.056,6.69l-.017-.007a.578.578,0,0,0-.091-.034l-.035-.011a.593.593,0,0,0-.129-.015h-.008a.586.586,0,0,0-.126.015c-.012,0-.024.008-.036.011a.6.6,0,0,0-.089.034l-.018.007-1.093.567ZM35.186,8.2v3.823l-.944.49-.052.027L32.645,9.519l.034-.017ZM30.7,10.491l.878-.434,1.544,3.022-.923.456-.6.3-1.514-3.037.613-.3M29.094,15.1l-1.615-2.988q.786-.412,1.542-.79l1.514,3.038q-.708.355-1.441.74m-2.429,1.345-1.775-2.9q.772-.454,1.537-.871l1.616,2.989q-.687.376-1.377.781m-2.318,1.467-1.984-2.764c.5-.342,1-.669,1.506-.983l1.775,2.9q-.656.409-1.3.848m-2.954-2.071L23.375,18.6c-.281.208-.564.415-.837.633-.122.1-.236.2-.355.3l-2.237-2.557c.155-.13.311-.259.473-.388.32-.256.646-.5.974-.745m-2.343,1.92,2.235,2.555q-.55.507-1.038,1.027l-2.535-2.254q.616-.665,1.338-1.328M8.393,53.868h-1V47.144a.5.5,0,1,1,1,0Zm-.5-8.415A1.693,1.693,0,0,0,6.2,47.144v6.724H3.983V41.7h7.825V53.868H9.586V47.144A1.693,1.693,0,0,0,7.9,45.453M3.983,34.182h7.825v6.327H9.586V37.59a1.691,1.691,0,1,0-3.382,0v2.919H3.983ZM16.393,30.5H13v-.241a14.706,14.706,0,0,1,.1-1.678l3.359.514a11.643,11.643,0,0,0-.064,1.164ZM13,52.423h3.393v1.769H13Zm0-2.962h3.393V51.23H13ZM13,46.5h3.393v1.769H13Zm0-2.962h3.393v1.769H13Zm0-1.193V40.577h3.393v1.769Zm0-4.731h3.393v1.769H13Zm0-2.962h3.393v1.769H13Zm0-2.962h3.393V33.46H13Zm0,23.693h3.393v1.769H13Zm3.634-27.471L13.282,27.4a15.229,15.229,0,0,1,.526-1.955l3.157,1.222a11.615,11.615,0,0,0-.331,1.246M8.393,40.509h-1V37.59a.5.5,0,1,1,1,0ZM13,58.347h3.393v1.769H13Zm4.393-32.792-3.158-1.223a16.64,16.64,0,0,1,.895-1.781l2.857,1.815a12.946,12.946,0,0,0-.594,1.189m1.228-2.2L15.763,21.54q.518-.772,1.162-1.553l2.534,2.252q-.453.551-.838,1.116M3.983,31.992h7.825v1H3.983Zm0,23.068h7.825v8.517H9.586V60.658a1.691,1.691,0,1,0-3.382,0v2.919H3.983ZM7.4,63.578V60.658a.5.5,0,1,1,1,0v2.919ZM13,61.308h3.393v2.269H13Zm12.227-32.36a1.326,1.326,0,0,1,1.707-1.271.6.6,0,0,0,.751-.709,1.307,1.307,0,0,1-.038-.306,1.327,1.327,0,0,1,2.071-1.1.6.6,0,0,0,.931-.51c0-.008,0-.038,0-.046a1.326,1.326,0,0,1,2.373-.814.6.6,0,0,0,1.066-.346,1.656,1.656,0,0,1,.655-1.265,6.885,6.885,0,0,0,1.042-.907,6.883,6.883,0,0,0,1.042.907,1.656,1.656,0,0,1,.656,1.265.6.6,0,0,0,1.066.346A1.325,1.325,0,0,1,40.919,25c0,.008,0,.044,0,.053a.6.6,0,0,0,.931.51,1.327,1.327,0,0,1,2.071,1.1,1.306,1.306,0,0,1-.038.306.6.6,0,0,0,.751.709,1.32,1.32,0,0,1,1.615,1.745H25.319a1.32,1.32,0,0,1-.091-.475m-.265,1.667H46.6a1.068,1.068,0,0,1,1.047,1.063v1.691H23.916V31.679a1.068,1.068,0,0,1,1.047-1.063M44.2,63.578H42.611V44.732H47.65v1.82A5.027,5.027,0,0,0,44.2,51.176v12.4Zm-4.376-9.607V51.176a5.09,5.09,0,0,0-3.878-4.767.593.593,0,0,0-.333,0,5.09,5.09,0,0,0-3.878,4.767v12.4H30.148V44.732H41.418V63.578H39.827Zm-1.208-3.1a5.647,5.647,0,0,0-2.67-1.662.593.593,0,0,0-.333,0,5.648,5.648,0,0,0-2.67,1.662,3.938,3.938,0,0,1,2.836-3.26,3.938,3.938,0,0,1,2.836,3.26m9.031-7.327H23.916V34.562H47.65ZM23.916,47.847a3.821,3.821,0,0,1,2.239,3.018,5.577,5.577,0,0,0-2.239-1.518Zm3.448,6.123V51.176a5.027,5.027,0,0,0-3.448-4.624v-1.82h5.039V63.578H27.363ZM47.65,47.847v1.5a5.575,5.575,0,0,0-2.239,1.518,3.82,3.82,0,0,1,2.239-3.018M23.916,63.578V50.642a3.768,3.768,0,0,1,2.255,3.329v9.607Zm9.016,0V53.971a3.881,3.881,0,0,1,2.851-3.57,3.881,3.881,0,0,1,2.851,3.57v9.607Zm12.463,0V53.971a3.768,3.768,0,0,1,2.255-3.329V63.578Zm3.448,0v-31.9a2.268,2.268,0,0,0-1.4-2.084A2.521,2.521,0,0,0,45.1,26.43a2.522,2.522,0,0,0-3.116-2.214,2.522,2.522,0,0,0-3.547-1.45,2.847,2.847,0,0,0-.892-1.135,3.558,3.558,0,0,1-1.227-1.283.6.6,0,0,0-1.073,0,3.56,3.56,0,0,1-1.227,1.283,2.85,2.85,0,0,0-.892,1.134,2.522,2.522,0,0,0-3.547,1.45,2.522,2.522,0,0,0-3.116,2.214,2.521,2.521,0,0,0-2.346,3.164,2.268,2.268,0,0,0-1.4,2.084v31.9H20.337V30.258c0-6.484,8.188-10.516,13.607-13.185.641-.315,1.265-.624,1.838-.917.581.3,1.219.611,1.838.917,5.419,2.668,13.607,6.7,13.607,13.185v33.32Zm3.578,0V30.258c0-7.227-8.59-11.456-14.273-14.255-.713-.351-1.45-.715-2.091-1.047a.6.6,0,0,0-.549,0c-.636.33-1.352.683-2.092,1.047-5.683,2.8-14.271,7.029-14.271,14.254v33.32H17.586V30.258A10.748,10.748,0,0,1,19.3,24.5h0v0a14.628,14.628,0,0,1,1.372-1.846.586.586,0,0,0,.07-.063.61.61,0,0,0,.073-.1,19.069,19.069,0,0,1,1.594-1.577,1.212,1.212,0,0,0,.209-.186q.321-.277.661-.55.546-.436,1.117-.845a1.2,1.2,0,0,0,.278-.192c.666-.468,1.349-.913,2.04-1.332a1.151,1.151,0,0,0,.134-.083c.754-.454,1.514-.878,2.265-1.28l.017-.007.02-.014c.835-.446,1.657-.864,2.442-1.255h0l0,0c.384-.191.76-.376,1.125-.556.529-.26,1.473-.731,1.473-.731s.4-.2.59-.3l.992-.515.993.515c.19.1.388.2.589.3h0c.465.235.957.478,1.471.731a58.516,58.516,0,0,1,8.106,4.587,1.122,1.122,0,0,0,.1.072c3.767,2.7,6.936,6.255,6.936,10.994v33.32Zm10.751,0V60.658a.5.5,0,0,1,1,0v2.919Zm2.189,0V60.658a1.691,1.691,0,0,0-3.382,0v2.919H59.758V55.061h7.825v8.517Z" transform="translate(0 0)" fill="#9c9c9c"/>
        <path id="Path_2714" data-name="Path 2714" d="M227.823,245.58h2.616a.6.6,0,0,0,.6-.6V242.1a2.3,2.3,0,0,0-1.738-2.164.6.6,0,0,0-.333,0,2.3,2.3,0,0,0-1.738,2.164v2.881a.6.6,0,0,0,.6.6m.6-3.478a.744.744,0,1,1,1.423,0v2.285H228.42Z" transform="translate(-193.348 -204.144)" fill="#9c9c9c"/>
        <path id="Path_2715" data-name="Path 2715" d="M167.352,245.58h2.616a.6.6,0,0,0,.6-.6V242.1a2.3,2.3,0,0,0-1.738-2.164.6.6,0,0,0-.333,0,2.3,2.3,0,0,0-1.738,2.164v2.881a.6.6,0,0,0,.6.6m.6-3.478a.744.744,0,1,1,1.424,0v2.285h-1.424Z" transform="translate(-141.893 -204.144)" fill="#9c9c9c"/>
        <path id="Path_2716" data-name="Path 2716" d="M288.291,245.58h2.616a.6.6,0,0,0,.6-.6V242.1a2.3,2.3,0,0,0-1.738-2.164.6.6,0,0,0-.333,0A2.3,2.3,0,0,0,287.7,242.1v2.881a.6.6,0,0,0,.6.6m.6-3.478a.744.744,0,1,1,1.424,0v2.285h-1.424Z" transform="translate(-244.801 -204.144)" fill="#9c9c9c"/>
      </g>
    </g>
  </g>
</svg>
