<svg xmlns="http://www.w3.org/2000/svg" xmlns:xlink="http://www.w3.org/1999/xlink" width="50" height="50.3" viewBox="0 0 50 50.3">
  <defs>
    <clipPath id="clip-path">
      <rect id="Rectangle_2323" data-name="Rectangle 2323" width="50" height="50.03"/>
    </clipPath>
    <clipPath id="clip-Management_Black">
      <rect width="50" height="50.3"/>
    </clipPath>
  </defs>
  <g id="Management_Black" data-name="Management Black" clip-path="url(#clip-Management_Black)">
    <g id="Group_2993" data-name="Group 2993" transform="translate(-484 -167)">
      <g id="Group_2965" data-name="Group 2965" transform="translate(484 167)">
        <g id="Group_2924" data-name="Group 2924" clip-path="url(#clip-path)">
          <path id="Path_2875" data-name="Path 2875" d="M19.163,255.592V244h1.623v13.345a26.314,26.314,0,0,1-3.5-.21,3.975,3.975,0,0,1-3.108-3.828q-.048-4.423.011-8.847a15.568,15.568,0,0,1,.33-2.159H13.87c-2.047,0-4.094,0-6.141,0a5.833,5.833,0,0,0-6.05,6.078,31.237,31.237,0,0,0,.12,3.943,3.836,3.836,0,0,0,3.207,3.163V246.5H6.653v9.1h7.48v1.685H13.6q-3.8,0-7.6,0a5.81,5.81,0,0,1-5.99-6.02,34.089,34.089,0,0,1,.1-4.155,7.321,7.321,0,0,1,7.051-6.448c2.632-.078,5.27.032,7.905.04a.7.7,0,0,0,.5-.247,7.452,7.452,0,0,1,6.3-3.154q3.123-.006,6.245,0a7.509,7.509,0,0,1,6.312,3.143.831.831,0,0,0,.592.248c2.79.016,5.591-.143,8.368.05a7.264,7.264,0,0,1,6.569,6.926,29.492,29.492,0,0,1-.1,4.777,5.651,5.651,0,0,1-5.5,4.83c-2.74.033-5.482.01-8.222.01-.084,0-.167-.012-.28-.021v-1.621h7.461V246.49h1.652v8.995a3.886,3.886,0,0,0,3.228-3.156,17.578,17.578,0,0,0,.11-2.851,13.261,13.261,0,0,0-.162-2.637,5.671,5.671,0,0,0-5.359-4.514c-2.356-.082-4.718-.02-7.077-.018a1,1,0,0,0-.2.034c.619,3.672.257,7.35.29,11.012a4.041,4.041,0,0,1-3.958,3.925c-.865.025-1.732,0-2.636,0V244H30.8v11.552a2.586,2.586,0,0,0,3.351-2.678q0-3.929,0-7.858a5.844,5.844,0,0,0-6.038-6.043q-3.122-.007-6.244,0a5.837,5.837,0,0,0-6.037,6.041c-.005,2.533.069,5.068-.025,7.6a2.712,2.712,0,0,0,3.355,2.983" transform="translate(0 -207.313)"/>
          <path id="Path_2876" data-name="Path 2876" d="M62.232,27.467v-1.58c.7-.281.813-.448.813-1.2,0-1.492,0-2.984,0-4.476,0-.74-.3-1.037-1.047-1.041-1.266-.006-2.533-.012-3.8.005-.345,0-.514-.064-.6-.444a15.258,15.258,0,0,0-1.878-4.487c-.062-.1-.112-.21-.187-.35.99-.984,1.976-1.959,2.958-2.939.628-.626.627-.992,0-1.618Q56.93,7.766,55.365,6.2c-.57-.568-.971-.565-1.549.012-.993.991-1.981,1.988-2.891,2.9-1.331-.58-2.58-1.125-3.831-1.667A3.548,3.548,0,0,0,46.7,7.32c-1.142-.343-1.143-.342-1.143-1.559,0-1.024,0-2.047,0-3.071,0-.707-.306-1.009-1.023-1.012q-2.316-.01-4.632,0c-.7,0-1,.314-1,1.029,0,1.284-.011,2.568.005,3.851,0,.324-.062.485-.416.568A15.841,15.841,0,0,0,33.6,9.233c-.494-.515-.978-1.03-1.473-1.535C31.6,7.154,31.06,6.61,30.508,6.083a.843.843,0,0,0-1.289-.005Q27.5,7.777,25.8,9.5a.824.824,0,0,0,.038,1.318c.9.914,1.815,1.817,2.722,2.725.12.121.235.248.372.394A16.818,16.818,0,0,0,26.8,18.891c-.03.121-.3.259-.453.262-1.266.021-2.533.01-3.8.013-.875,0-1.138.27-1.139,1.158,0,1.44.016,2.88-.008,4.32-.01.627.14,1.095.818,1.215V27.44a2.363,2.363,0,0,1-2.462-2.292q-.058-2.653,0-5.308A2.47,2.47,0,0,1,22.279,17.5c.937-.017,1.874.006,2.81-.014a.568.568,0,0,0,.438-.225c.429-1.018.825-2.05,1.256-3.143-.646-.644-1.347-1.339-2.043-2.038A2.512,2.512,0,0,1,24.731,8.2Q26.31,6.612,27.9,5.033a2.562,2.562,0,0,1,3.94.015c.6.6,1.214,1.192,1.8,1.809a.459.459,0,0,0,.626.1c.868-.389,1.745-.761,2.632-1.1a.43.43,0,0,0,.342-.479c-.014-.937-.013-1.874,0-2.81A2.487,2.487,0,0,1,39.759.016q2.472-.031,4.944,0a2.488,2.488,0,0,1,2.517,2.562c.009.919.011,1.839,0,2.758a.457.457,0,0,0,.352.526c.906.342,1.787.749,2.689,1.1a.6.6,0,0,0,.516-.091c.657-.617,1.282-1.269,1.924-1.9a2.54,2.54,0,0,1,3.791,0Q58.159,6.609,59.8,8.278a2.483,2.483,0,0,1,.012,3.7c-.7.721-1.417,1.428-2.126,2.142-.012.012-.018.029-.011.018.424,1.074.833,2.135,1.272,3.183.042.1.278.167.425.169.884.016,1.769,0,2.654.009a2.512,2.512,0,0,1,2.683,2.662c.005,1.613.013,3.227,0,4.84a2.442,2.442,0,0,1-2.475,2.464" transform="translate(-17.233 0)"/>
          <path id="Path_2877" data-name="Path 2877" d="M128.754,96.939h-1.67a9.994,9.994,0,0,0-3.874-7.846,9.646,9.646,0,0,0-6.488-2.113,10.053,10.053,0,0,0-9.683,9.946h-1.645a11.349,11.349,0,0,1,5.2-9.625,11.105,11.105,0,0,1,12.255-.427c3.834,2.169,5.691,5.624,5.905,10.065" transform="translate(-92.075 -74.465)"/>
          <path id="Path_2878" data-name="Path 2878" d="M163.225,161.66a4.994,4.994,0,1,1,5.014-4.97,4.99,4.99,0,0,1-5.014,4.97m0-1.665a3.329,3.329,0,1,0-3.307-3.356A3.318,3.318,0,0,0,163.222,160" transform="translate(-138.251 -132.506)"/>
          <path id="Path_2879" data-name="Path 2879" d="M51.182,188.02a4.994,4.994,0,1,1,5.028-4.957,4.99,4.99,0,0,1-5.028,4.957m.022-1.665a3.329,3.329,0,1,0-3.319-3.345,3.319,3.319,0,0,0,3.319,3.345" transform="translate(-40.378 -155.534)"/>
          <path id="Path_2880" data-name="Path 2880" d="M275.249,188.02a4.994,4.994,0,1,1,5.022-4.963,4.991,4.991,0,0,1-5.022,4.963m.026-1.665a3.329,3.329,0,1,0-3.33-3.334,3.319,3.319,0,0,0,3.33,3.334" transform="translate(-236.125 -155.534)"/>
          <rect id="Rectangle_2322" data-name="Rectangle 2322" width="6.593" height="1.604" transform="translate(21.705 48.348)"/>
        </g>
      </g>
    </g>
  </g>
</svg>
