<svg id="Group_56" data-name="Group 56" xmlns="http://www.w3.org/2000/svg" xmlns:xlink="http://www.w3.org/1999/xlink" width="76.212" height="65.988" viewBox="0 0 76.212 65.988">
  <defs>
    <clipPath id="clip-path">
      <rect id="Rectangle_52" data-name="Rectangle 52" width="76.212" height="65.988" transform="translate(0 0)" fill="#787878" stroke="#dcdcdc" stroke-width="0.5"/>
    </clipPath>
  </defs>
  <g id="Group_55" data-name="Group 55" transform="translate(0 0)" clip-path="url(#clip-path)">
    <path id="Path_2587" data-name="Path 2587" d="M192.074,155.367h14.19a.637.637,0,0,0,.637-.637v-3.822a.637.637,0,0,0-.637-.637h-14.19a.637.637,0,0,0-.637.637v3.822a.637.637,0,0,0,.637.637m.637-3.823h12.917v2.549H192.711Z" transform="translate(-160.956 -126.583)" fill="#787878" stroke="#dcdcdc" stroke-width="0.5"/>
    <path id="Path_2588" data-name="Path 2588" d="M66.017,269.67a.631.631,0,0,0,.449-.188.554.554,0,0,0,.08-.1.725.725,0,0,0,.057-.111.766.766,0,0,0,.038-.118.822.822,0,0,0,.013-.124.652.652,0,0,0-.188-.452.662.662,0,0,0-.9,0,.65.65,0,0,0-.185.452.636.636,0,0,0,.637.637" transform="translate(-54.97 -225.907)" fill="#787878" stroke="#dcdcdc" stroke-width="0.5"/>
    <path id="Path_2589" data-name="Path 2589" d="M117.1,269.631a.557.557,0,0,0,.124-.013.759.759,0,0,0,.121-.035.73.73,0,0,0,.108-.061.452.452,0,0,0,.1-.08.441.441,0,0,0,.08-.1.532.532,0,0,0,.061-.111.5.5,0,0,0,.035-.118.611.611,0,0,0,0-.248.519.519,0,0,0-.035-.121.513.513,0,0,0-.061-.108.577.577,0,0,0-.175-.175.55.55,0,0,0-.229-.1.636.636,0,0,0-.761.624.641.641,0,0,0,.637.637" transform="translate(-97.917 -225.869)" fill="#787878" stroke="#dcdcdc" stroke-width="0.5"/>
    <path id="Path_2590" data-name="Path 2590" d="M355.725,268.582a.65.65,0,0,0-.185.452.541.541,0,0,0,.013.124.485.485,0,0,0,.035.118.528.528,0,0,0,.061.112.559.559,0,0,0,.076.1.639.639,0,0,0,.452.188.642.642,0,0,0,.637-.637.638.638,0,0,0-.188-.452.663.663,0,0,0-.9,0" transform="translate(-298.931 -225.908)" fill="#787878" stroke="#dcdcdc" stroke-width="0.5"/>
    <path id="Path_2591" data-name="Path 2591" d="M190.686,255.328a.75.75,0,0,0-.057-.111.816.816,0,0,0-.08-.1.663.663,0,0,0-.9,0,.582.582,0,0,0-.08.1.768.768,0,0,0-.057.111.841.841,0,0,0-.038.118.859.859,0,0,0-.013.127.645.645,0,0,0,.188.449.578.578,0,0,0,.1.08.742.742,0,0,0,.111.057.846.846,0,0,0,.118.038.833.833,0,0,0,.252,0,.844.844,0,0,0,.118-.038.59.59,0,0,0,.108-.057.608.608,0,0,0,.1-.08.642.642,0,0,0,.185-.449.856.856,0,0,0-.01-.127.8.8,0,0,0-.038-.118" transform="translate(-159.294 -214.59)" fill="#787878" stroke="#dcdcdc" stroke-width="0.5"/>
    <path id="Path_2592" data-name="Path 2592" d="M283.049,254.9a.893.893,0,0,0-.118.038.582.582,0,0,0-.108.057.828.828,0,0,0-.1.08.786.786,0,0,0-.08.1.721.721,0,0,0-.057.111.826.826,0,0,0-.038.118.85.85,0,0,0-.009.127.643.643,0,0,0,.185.449.625.625,0,0,0,.1.08.583.583,0,0,0,.108.057.8.8,0,0,0,.118.038.858.858,0,0,0,.128.01.811.811,0,0,0,.124-.01.8.8,0,0,0,.118-.038.731.731,0,0,0,.112-.057.6.6,0,0,0,.1-.08.634.634,0,0,0,0-.9.662.662,0,0,0-.576-.175" transform="translate(-237.554 -214.543)" fill="#787878" stroke="#dcdcdc" stroke-width="0.5"/>
    <path id="Path_2593" data-name="Path 2593" d="M406.808,268.582a.652.652,0,0,0-.188.452.645.645,0,0,0,.188.449.634.634,0,0,0,.9,0,.809.809,0,0,0,.08-.1.742.742,0,0,0,.057-.112.5.5,0,0,0,.035-.118.55.55,0,0,0,.013-.124.65.65,0,0,0-.185-.452.663.663,0,0,0-.9,0" transform="translate(-341.878 -225.908)" fill="#787878" stroke="#dcdcdc" stroke-width="0.5"/>
    <path id="Path_2594" data-name="Path 2594" d="M76.426,65.917V64.644h-6.44V38.783h.884a.637.637,0,1,0,0-1.274H67.806v-5.99h.322a.637.637,0,1,0,0-1.274H54.63V22.7h0a.637.637,0,1,0,0-1.274h0V20.267h0a.637.637,0,0,0,0-1.274h0V15.81h0a.637.637,0,1,0,0-1.274h-.069a5.052,5.052,0,0,0-2.494-3.454V9.263a.637.637,0,1,0-1.274,0v1.819A5.052,5.052,0,0,0,48.3,14.536h-.069a.637.637,0,0,0,0,1.274h0v3.183H38.85V.637A.637.637,0,0,0,37.828.129L32.5,4.172a.637.637,0,0,0,.385,1.144h4.687V18.993H28.188V15.81h0a.637.637,0,1,0,0-1.274h-.069a5.065,5.065,0,0,0-2.568-3.5V9.263a.637.637,0,0,0-1.274,0v1.866a5.037,5.037,0,0,0-2.419,3.407h-.07a.637.637,0,0,0,0,1.274h0v3.183h0a.637.637,0,0,0,0,1.274h0V21.43h0a.637.637,0,0,0,0,1.274h0v7.542H8.3a.637.637,0,1,0,0,1.274H8.62v5.99H5.556a.637.637,0,0,0,0,1.274H6.44V64.644H0v1.274ZM34.781,4.043l2.8-2.123V4.043ZM66.533,37.509h-11.9v-5.99h11.9ZM48.078,57.59a.637.637,0,0,0-.637.637v6.417H46.259V49.728c0-4.12-3.166-7.746-7.879-9.024a.64.64,0,0,0-.333,0c-4.712,1.278-7.879,4.9-7.879,9.024V64.644H28.985V58.227a.637.637,0,0,0-.637-.637h-.16V38.783h20.05V57.59ZM23.07,38.783h3.844V57.59H23.07Zm0-7.264h3.844v5.99H23.07Zm7.1,0v2.995a.637.637,0,0,0,1.274,0V31.519h1.69v2.995a.637.637,0,0,0,1.274,0V31.519h1.69v2.995a.637.637,0,0,0,1.274,0V31.519h1.69v2.995a.637.637,0,1,0,1.274,0V31.519h1.69v2.995a.637.637,0,1,0,1.274,0V31.519h1.69v2.995a.637.637,0,0,0,1.274,0V31.519h1.98v5.99H28.188v-5.99Zm18.071-1.274H28.188V22.7h20.05Zm1.274,8.537h3.844V57.59H49.512Zm0-7.264h3.844v5.99H49.512Zm3.844-1.274H49.512V22.7h3.844Zm0-8.816H49.512V20.267h3.844Zm-1.922-9.245a3.832,3.832,0,0,1,1.825,2.352h-3.65a3.832,3.832,0,0,1,1.825-2.352M49.512,15.81h3.844v3.183H49.512Zm-1.274,5.62H28.188V20.267h20.05ZM24.992,12.184a3.831,3.831,0,0,1,1.825,2.352h-3.65a3.832,3.832,0,0,1,1.825-2.352M23.07,15.81h3.844v3.183H23.07Zm0,4.457h3.844V21.43H23.07Zm3.844,9.978H23.07V22.7h3.844ZM9.893,31.519H21.8v5.99H9.893Zm-2.18,7.264h2.695V40.44a.637.637,0,0,0,1.274,0V38.783H13.12V40.44a.637.637,0,0,0,1.274,0V38.783h1.438V40.44a.637.637,0,0,0,1.274,0V38.783h1.438V40.44a.637.637,0,0,0,1.274,0V38.783H21.8V57.59h-.16a.637.637,0,0,0-.637.637v6.417H19.817v-14.8c0-2.4-1.706-4.621-4.452-5.805a.638.638,0,0,0-.5,0c-2.746,1.184-4.452,3.409-4.452,5.805v14.8H7.714Zm8.343,25.861H14.169v-8.8a1.607,1.607,0,0,1,.944-1.32,1.607,1.607,0,0,1,.944,1.32Zm-.691-11.412a.638.638,0,0,0-.5,0A2.958,2.958,0,0,0,12.9,55.845v8.8H11.682V51.159h6.861V64.644H17.33v-8.8a2.958,2.958,0,0,0-1.965-2.613m3.178-3.346H11.682v-.037c0-1.809,1.307-3.522,3.43-4.522,2.123,1,3.43,2.713,3.43,4.522Zm3.73,14.758v-5.78h5.439v5.78Zm9.168,0V49.728c0-3.49,2.714-6.585,6.772-7.748,4.058,1.163,6.772,4.259,6.772,7.748V64.644Zm17.273,0v-5.78h5.439v5.78ZM64.743,49.886H57.883v-.037c0-1.809,1.307-3.522,3.43-4.522,2.123,1,3.43,2.713,3.43,4.522Zm-6.861,1.274h6.861V64.644H63.53v-8.8a2.958,2.958,0,0,0-1.965-2.613.638.638,0,0,0-.5,0A2.958,2.958,0,0,0,59.1,55.845v8.8H57.883Zm4.374,13.484H60.37v-8.8a1.607,1.607,0,0,1,.944-1.32,1.607,1.607,0,0,1,.943,1.32Zm3.761,0v-14.8c0-2.4-1.706-4.621-4.452-5.805a.638.638,0,0,0-.5,0c-2.746,1.184-4.452,3.409-4.452,5.805v14.8H55.427V58.227a.637.637,0,0,0-.637-.637h-.16V38.783h1.979V40.44a.637.637,0,0,0,1.274,0V38.783h1.438V40.44a.637.637,0,0,0,1.274,0V38.783h1.438V40.44a.637.637,0,0,0,1.274,0V38.783h1.438V40.44a.637.637,0,0,0,1.274,0V38.783h2.7V64.644Z" transform="translate(0 -0.239)" fill="#787878" stroke="#dcdcdc" stroke-width="0.5"/>
  </g>
</svg>
