<svg xmlns="http://www.w3.org/2000/svg" xmlns:xlink="http://www.w3.org/1999/xlink" width="69.75" height="62.87" viewBox="0 0 69.75 62.87">
  <defs>
    <clipPath id="clip-path">
      <rect id="Rectangle_67" data-name="Rectangle 67" width="69.755" height="62.874" fill="#9c9c9c"/>
    </clipPath>
    <clipPath id="clip-Nagpur">
      <rect width="69.75" height="62.87"/>
    </clipPath>
  </defs>
  <g id="Nagpur" clip-path="url(#clip-Nagpur)">
    <g id="Group_7" data-name="Group 7" transform="translate(-0.22 0.375)">
      <g id="Group_79" data-name="Group 79" clip-path="url(#clip-path)">
        <path id="Path_2717" data-name="Path 2717" d="M67.466,98.178V79.151a.581.581,0,0,0-.581-.581h-3.4A29.316,29.316,0,0,0,51.472,54.859a.553.553,0,0,0-.056-.056,28.543,28.543,0,0,0-4.041-2.441.581.581,0,0,0-.068-.025,28.059,28.059,0,0,0-5.289-1.979V48.009h1.345a.581.581,0,0,0,.581-.581V43.249a.581.581,0,0,0-.581-.581H26.392a.581.581,0,0,0-.581.581v4.179a.581.581,0,0,0,.581.581h1.345v2.348a28.049,28.049,0,0,0-5.289,1.979.575.575,0,0,0-.068.024A28.545,28.545,0,0,0,18.339,54.8a.563.563,0,0,0-.057.057A29.316,29.316,0,0,0,6.27,78.57H2.87a.581.581,0,0,0-.581.581V98.178H0v1.163H69.755V98.178ZM3.451,92.8H25.279v5.358H3.451Zm21.828-1.186H3.451V86.276H25.279Zm1.163-11.879H43.313v5.381H26.442ZM34.877,64A1.007,1.007,0,1,1,35.885,63,1.009,1.009,0,0,1,34.877,64m0,3.187a16.522,16.522,0,0,1,8.436,2.339v2.436l-.1-.055L42.99,71.8q-.154-.08-.309-.157l-.222-.108c-.1-.05-.209-.1-.314-.146l-.223-.1c-.108-.047-.217-.093-.325-.138l-.217-.089c-.117-.047-.235-.091-.353-.135l-.194-.073c-.149-.054-.3-.105-.45-.155l-.1-.035q-.277-.09-.557-.171l-.164-.045c-.133-.037-.266-.074-.4-.107-.071-.018-.143-.034-.214-.052-.117-.028-.235-.056-.352-.082l-.234-.049c-.113-.023-.225-.045-.339-.066l-.241-.042q-.168-.029-.336-.054L37.2,69.96c-.113-.015-.227-.029-.34-.042l-.24-.027c-.117-.012-.235-.022-.352-.031l-.229-.018c-.129-.009-.259-.015-.388-.02l-.193-.009c-.194-.007-.388-.01-.582-.01s-.389,0-.582.01l-.193.009c-.129.006-.259.012-.388.02l-.228.018c-.118.01-.235.019-.352.031l-.24.027c-.113.013-.227.027-.34.042L32.31,70c-.112.017-.224.035-.336.054l-.241.042c-.113.021-.226.043-.339.066l-.234.049c-.118.026-.235.054-.352.082-.071.017-.143.033-.214.052-.134.034-.266.07-.4.107l-.164.045q-.279.081-.557.171l-.1.035c-.151.05-.3.1-.45.155l-.194.073c-.118.044-.235.088-.352.135-.073.029-.145.059-.217.089-.109.045-.217.091-.325.138l-.223.1c-.105.048-.21.1-.314.146l-.222.108q-.155.077-.309.157l-.219.115-.1.055V69.531a16.521,16.521,0,0,1,8.436-2.339M26.442,75.74V73.307l.119-.071.231-.132q.133-.075.268-.147l.235-.124.271-.137.238-.116q.136-.065.274-.127l.243-.109.277-.117.246-.1c.093-.037.187-.072.28-.108s.165-.062.248-.092.189-.066.284-.1l.25-.083c.1-.031.192-.059.288-.088s.167-.05.251-.074.194-.053.292-.079.167-.044.251-.065.2-.047.3-.069c.083-.019.166-.039.25-.056.1-.021.2-.04.3-.059.083-.016.166-.032.249-.047.1-.018.206-.033.309-.049.082-.013.163-.026.245-.038.106-.015.213-.027.32-.04.079-.009.158-.02.237-.028.112-.012.224-.02.335-.03.075-.006.149-.014.224-.019.123-.009.245-.014.368-.02.064,0,.128-.008.193-.01q.281-.01.562-.01t.562.01c.064,0,.128.007.193.01.123.006.246.011.368.02.075.005.149.013.224.019.112.009.224.018.335.03.079.008.158.019.237.028.107.013.213.025.319.04.082.011.163.025.245.038.1.016.206.031.308.049.083.015.166.031.249.047.1.019.2.038.3.059.084.017.167.037.25.056.1.022.2.045.3.069s.168.043.251.065.195.051.292.079.167.049.251.074.192.058.288.088l.25.083c.095.032.189.064.284.1s.166.061.248.092.187.071.28.108l.246.1.277.117.243.109q.137.063.274.127l.238.116.271.137.235.124q.134.072.268.147l.231.132.119.071V75.74l-.1-.055-.219-.115q-.154-.08-.309-.157l-.222-.108q-.157-.075-.314-.146l-.223-.1c-.108-.047-.217-.093-.325-.138l-.217-.089c-.117-.047-.235-.091-.353-.135l-.194-.073c-.149-.054-.3-.105-.45-.155l-.1-.035q-.277-.09-.557-.17l-.164-.045c-.133-.037-.266-.074-.4-.107-.071-.018-.143-.034-.214-.052-.117-.028-.235-.056-.352-.082l-.234-.049c-.113-.023-.225-.045-.339-.066l-.241-.042q-.168-.029-.336-.054l-.243-.035c-.113-.015-.227-.029-.34-.042l-.24-.027c-.117-.012-.235-.022-.352-.031l-.229-.018c-.129-.009-.259-.015-.388-.02l-.193-.009c-.194-.007-.388-.01-.582-.01s-.389,0-.582.01l-.193.009c-.129.006-.259.012-.388.02l-.228.018c-.118.009-.235.019-.352.031l-.24.027c-.113.013-.227.027-.34.042l-.243.035c-.112.017-.224.035-.336.054l-.241.042c-.113.021-.226.043-.339.066l-.234.049c-.118.026-.235.053-.352.082-.071.017-.143.033-.214.052-.134.034-.266.07-.4.107l-.164.045q-.279.081-.557.17l-.1.035c-.151.05-.3.1-.45.155l-.194.073c-.118.044-.235.089-.352.135-.073.029-.145.059-.217.089-.109.045-.217.091-.325.138l-.223.1q-.158.071-.314.146l-.222.108q-.155.077-.309.157l-.219.115-.1.055m0,1.34.119-.071.231-.132q.133-.075.268-.147l.235-.124q.135-.07.271-.137l.238-.116q.136-.065.274-.127l.243-.109c.092-.04.184-.079.277-.117l.246-.1c.093-.037.187-.072.28-.108s.165-.062.248-.092.189-.066.284-.1l.25-.083c.1-.031.192-.059.288-.088s.167-.05.251-.074.194-.053.292-.078.167-.044.251-.065.2-.047.3-.069c.083-.019.166-.038.25-.056.1-.021.2-.04.3-.059.083-.016.166-.033.249-.047.1-.018.206-.033.309-.049.082-.013.163-.026.245-.038.106-.015.213-.027.32-.04.079-.009.158-.02.237-.028.112-.012.224-.02.335-.03.075-.006.149-.014.224-.019.123-.008.245-.014.368-.019.064,0,.128-.008.193-.01q.281-.01.562-.01t.562.01c.064,0,.128.007.193.01.123.006.246.011.368.019.075.005.149.013.224.019.112.009.224.018.335.03.079.008.158.019.237.028.107.013.213.025.319.04.082.011.163.025.245.038.1.016.206.031.308.049.083.014.166.031.249.047.1.019.2.038.3.059.084.018.167.037.25.056.1.023.2.045.3.069s.168.043.251.065.195.051.292.078.167.049.251.074.192.058.288.088l.25.083c.095.032.189.064.284.1s.166.061.248.092.187.071.28.108l.246.1c.093.038.185.077.277.117l.243.109q.137.063.274.127l.238.116q.136.067.271.137l.235.124q.134.072.268.147l.231.132.119.071v1.49H26.442ZM44.476,92.8H66.3v5.358H44.476ZM66.3,91.611H44.476V86.276H66.3Zm0-6.521H44.476V79.733H66.3ZM28.621,51.335l.32-.073c.124-.028.248-.057.372-.083a27.245,27.245,0,0,1,11.129,0c.121.026.241.053.362.081s.221.05.332.076A26.771,26.771,0,0,1,44.3,52.3H25.454a26.808,26.808,0,0,1,3.167-.966M22.8,53.464H46.958q1.125.565,2.191,1.229H20.606q1.064-.664,2.191-1.229m4.176-9.633H42.781v3.016H26.973ZM28.9,50.078V48.009H40.855v2.068l-.134-.027c-.112-.024-.224-.046-.336-.068s-.234-.047-.351-.069c-.166-.031-.333-.059-.5-.087l-.193-.033a28.182,28.182,0,0,0-8.923,0l-.211.036c-.161.027-.322.054-.482.084-.122.023-.243.047-.364.071s-.216.043-.323.066l-.138.028M18.891,55.855H50.864A28.154,28.154,0,0,1,62.322,78.57H44.476V77.331h1.7a.581.581,0,0,0,0-1.163h-1.7V73.558h1.7a.581.581,0,0,0,0-1.163h-1.7V69.79h1.7a.581.581,0,0,0,0-1.163h-1.7V66.271a.581.581,0,0,0-1.163,0V68.2a17.676,17.676,0,0,0-7.854-2.157v-.954a2.17,2.17,0,1,0-1.163,0v.954A17.675,17.675,0,0,0,26.442,68.2V66.271a.581.581,0,0,0-1.163,0v2.356h-1.7a.581.581,0,0,0,0,1.163h1.7V72.4h-1.7a.581.581,0,0,0,0,1.163h1.7v2.611h-1.7a.581.581,0,0,0,0,1.163h1.7V78.57H7.433A28.155,28.155,0,0,1,18.891,55.855m6.389,29.236H3.451V79.733H25.279Zm1.163,7.125V86.277H43.313v11.9H38.228V90.6a3.351,3.351,0,0,0-6.7,0v7.577H26.442Zm6.247,5.963V90.6a2.188,2.188,0,0,1,4.377,0v7.577Z" transform="translate(0 -36.467)" fill="#9c9c9c"/>
        <path id="Path_2718" data-name="Path 2718" d="M221.12,30.1h4.493a.581.581,0,1,0,0-1.163H221.12a.581.581,0,1,0,0,1.163" transform="translate(-188.49 -24.735)" fill="#9c9c9c"/>
        <path id="Path_2719" data-name="Path 2719" d="M226.862,15.633h2.825a.581.581,0,0,0,0-1.163h-2.825a.581.581,0,0,0,0,1.163" transform="translate(-193.397 -12.367)" fill="#9c9c9c"/>
        <path id="Path_2720" data-name="Path 2720" d="M232.165,1.163h1.283a.581.581,0,1,0,0-1.163h-1.283a.581.581,0,1,0,0,1.163" transform="translate(-197.93)" fill="#9c9c9c"/>
        <path id="Path_2721" data-name="Path 2721" d="M33.907,309.939a.581.581,0,0,0,.581-.581v-1.416a.581.581,0,1,0-1.163,0v1.416a.581.581,0,0,0,.581.581" transform="translate(-28.483 -262.694)" fill="#9c9c9c"/>
        <path id="Path_2722" data-name="Path 2722" d="M192.261,307.36a.581.581,0,0,0-.581.581v1.416a.581.581,0,1,0,1.163,0v-1.416a.581.581,0,0,0-.581-.581" transform="translate(-163.825 -262.694)" fill="#9c9c9c"/>
        <path id="Path_2723" data-name="Path 2723" d="M209.989,307.36a.581.581,0,0,0-.581.581v1.416a.581.581,0,0,0,1.163,0v-1.416a.581.581,0,0,0-.581-.581" transform="translate(-178.976 -262.694)" fill="#9c9c9c"/>
        <path id="Path_2724" data-name="Path 2724" d="M227.716,307.36a.581.581,0,0,0-.581.581v1.416a.581.581,0,1,0,1.163,0v-1.416a.581.581,0,0,0-.581-.581" transform="translate(-194.127 -262.694)" fill="#9c9c9c"/>
        <path id="Path_2725" data-name="Path 2725" d="M245.444,307.36a.581.581,0,0,0-.581.581v1.416a.581.581,0,1,0,1.163,0v-1.416a.581.581,0,0,0-.581-.581" transform="translate(-209.279 -262.694)" fill="#9c9c9c"/>
        <path id="Path_2726" data-name="Path 2726" d="M263.173,307.36a.581.581,0,0,0-.581.581v1.416a.581.581,0,1,0,1.163,0v-1.416a.581.581,0,0,0-.581-.581" transform="translate(-224.431 -262.694)" fill="#9c9c9c"/>
        <path id="Path_2727" data-name="Path 2727" d="M280.9,307.36a.581.581,0,0,0-.581.581v1.416a.581.581,0,1,0,1.163,0v-1.416a.581.581,0,0,0-.581-.581" transform="translate(-239.581 -262.694)" fill="#9c9c9c"/>
        <path id="Path_2728" data-name="Path 2728" d="M51.485,309.939a.581.581,0,0,0,.581-.581v-1.416a.581.581,0,1,0-1.163,0v1.416a.581.581,0,0,0,.581.581" transform="translate(-43.506 -262.694)" fill="#9c9c9c"/>
        <path id="Path_2729" data-name="Path 2729" d="M69.063,309.939a.581.581,0,0,0,.581-.581v-1.416a.581.581,0,1,0-1.163,0v1.416a.581.581,0,0,0,.581.581" transform="translate(-58.53 -262.694)" fill="#9c9c9c"/>
        <path id="Path_2730" data-name="Path 2730" d="M86.642,309.939a.581.581,0,0,0,.581-.581v-1.416a.581.581,0,1,0-1.163,0v1.416a.581.581,0,0,0,.581.581" transform="translate(-73.554 -262.694)" fill="#9c9c9c"/>
        <path id="Path_2731" data-name="Path 2731" d="M104.22,309.939a.581.581,0,0,0,.581-.581v-1.416a.581.581,0,1,0-1.163,0v1.416a.581.581,0,0,0,.581.581" transform="translate(-88.578 -262.694)" fill="#9c9c9c"/>
        <path id="Path_2732" data-name="Path 2732" d="M121.8,309.939a.581.581,0,0,0,.581-.581v-1.416a.581.581,0,1,0-1.163,0v1.416a.581.581,0,0,0,.581.581" transform="translate(-103.601 -262.694)" fill="#9c9c9c"/>
        <path id="Path_2733" data-name="Path 2733" d="M139.376,309.939a.581.581,0,0,0,.581-.581v-1.416a.581.581,0,1,0-1.163,0v1.416a.581.581,0,0,0,.581.581" transform="translate(-118.625 -262.694)" fill="#9c9c9c"/>
        <path id="Path_2734" data-name="Path 2734" d="M156.956,309.939a.581.581,0,0,0,.581-.581v-1.416a.581.581,0,1,0-1.163,0v1.416a.581.581,0,0,0,.581.581" transform="translate(-133.65 -262.694)" fill="#9c9c9c"/>
        <path id="Path_2735" data-name="Path 2735" d="M316.206,307.36a.581.581,0,0,0-.581.581v1.416a.581.581,0,1,0,1.163,0v-1.416a.581.581,0,0,0-.581-.581" transform="translate(-269.758 -262.694)" fill="#9c9c9c"/>
        <path id="Path_2736" data-name="Path 2736" d="M333.784,307.36a.581.581,0,0,0-.581.581v1.416a.581.581,0,1,0,1.163,0v-1.416a.581.581,0,0,0-.581-.581" transform="translate(-284.781 -262.694)" fill="#9c9c9c"/>
        <path id="Path_2737" data-name="Path 2737" d="M351.362,307.36a.581.581,0,0,0-.581.581v1.416a.581.581,0,1,0,1.163,0v-1.416a.581.581,0,0,0-.581-.581" transform="translate(-299.805 -262.694)" fill="#9c9c9c"/>
        <path id="Path_2738" data-name="Path 2738" d="M368.94,307.36a.581.581,0,0,0-.581.581v1.416a.581.581,0,1,0,1.163,0v-1.416a.581.581,0,0,0-.581-.581" transform="translate(-314.828 -262.694)" fill="#9c9c9c"/>
        <path id="Path_2739" data-name="Path 2739" d="M386.518,307.36a.581.581,0,0,0-.581.581v1.416a.581.581,0,1,0,1.163,0v-1.416a.581.581,0,0,0-.581-.581" transform="translate(-329.852 -262.694)" fill="#9c9c9c"/>
        <path id="Path_2740" data-name="Path 2740" d="M404.1,307.36a.581.581,0,0,0-.581.581v1.416a.581.581,0,0,0,1.163,0v-1.416a.581.581,0,0,0-.581-.581" transform="translate(-344.876 -262.694)" fill="#9c9c9c"/>
        <path id="Path_2741" data-name="Path 2741" d="M421.675,307.36a.581.581,0,0,0-.581.581v1.416a.581.581,0,1,0,1.163,0v-1.416a.581.581,0,0,0-.581-.581" transform="translate(-359.899 -262.694)" fill="#9c9c9c"/>
        <path id="Path_2742" data-name="Path 2742" d="M439.253,309.939a.581.581,0,0,0,.581-.581v-1.416a.581.581,0,1,0-1.163,0v1.416a.581.581,0,0,0,.581.581" transform="translate(-374.923 -262.694)" fill="#9c9c9c"/>
        <path id="Path_2743" data-name="Path 2743" d="M33.907,397.1a.581.581,0,0,0-.581.581V399.1a.581.581,0,1,0,1.163,0v-1.416a.581.581,0,0,0-.581-.581" transform="translate(-28.483 -339.392)" fill="#9c9c9c"/>
        <path id="Path_2744" data-name="Path 2744" d="M51.485,397.1a.581.581,0,0,0-.581.581V399.1a.581.581,0,1,0,1.163,0v-1.416a.581.581,0,0,0-.581-.581" transform="translate(-43.506 -339.392)" fill="#9c9c9c"/>
        <path id="Path_2745" data-name="Path 2745" d="M69.063,397.1a.581.581,0,0,0-.581.581V399.1a.581.581,0,1,0,1.163,0v-1.416a.581.581,0,0,0-.581-.581" transform="translate(-58.53 -339.392)" fill="#9c9c9c"/>
        <path id="Path_2746" data-name="Path 2746" d="M86.642,397.1a.581.581,0,0,0-.581.581V399.1a.581.581,0,1,0,1.163,0v-1.416a.581.581,0,0,0-.581-.581" transform="translate(-73.554 -339.392)" fill="#9c9c9c"/>
        <path id="Path_2747" data-name="Path 2747" d="M104.22,397.1a.581.581,0,0,0-.581.581V399.1a.581.581,0,1,0,1.163,0v-1.416a.581.581,0,0,0-.581-.581" transform="translate(-88.578 -339.392)" fill="#9c9c9c"/>
        <path id="Path_2748" data-name="Path 2748" d="M121.8,397.1a.581.581,0,0,0-.581.581V399.1a.581.581,0,1,0,1.163,0v-1.416a.581.581,0,0,0-.581-.581" transform="translate(-103.601 -339.392)" fill="#9c9c9c"/>
        <path id="Path_2749" data-name="Path 2749" d="M139.376,397.1a.581.581,0,0,0-.581.581V399.1a.581.581,0,1,0,1.163,0v-1.416a.581.581,0,0,0-.581-.581" transform="translate(-118.625 -339.392)" fill="#9c9c9c"/>
        <path id="Path_2750" data-name="Path 2750" d="M156.956,397.1a.581.581,0,0,0-.581.581V399.1a.581.581,0,1,0,1.163,0v-1.416a.581.581,0,0,0-.581-.581" transform="translate(-133.65 -339.392)" fill="#9c9c9c"/>
        <path id="Path_2751" data-name="Path 2751" d="M316.206,397.1a.581.581,0,0,0-.581.581V399.1a.581.581,0,1,0,1.163,0v-1.416a.581.581,0,0,0-.581-.581" transform="translate(-269.758 -339.392)" fill="#9c9c9c"/>
        <path id="Path_2752" data-name="Path 2752" d="M333.784,397.1a.581.581,0,0,0-.581.581V399.1a.581.581,0,1,0,1.163,0v-1.416a.581.581,0,0,0-.581-.581" transform="translate(-284.781 -339.392)" fill="#9c9c9c"/>
        <path id="Path_2753" data-name="Path 2753" d="M351.362,397.1a.581.581,0,0,0-.581.581V399.1a.581.581,0,1,0,1.163,0v-1.416a.581.581,0,0,0-.581-.581" transform="translate(-299.805 -339.392)" fill="#9c9c9c"/>
        <path id="Path_2754" data-name="Path 2754" d="M368.94,397.1a.581.581,0,0,0-.581.581V399.1a.581.581,0,1,0,1.163,0v-1.416a.581.581,0,0,0-.581-.581" transform="translate(-314.828 -339.392)" fill="#9c9c9c"/>
        <path id="Path_2755" data-name="Path 2755" d="M386.518,397.1a.581.581,0,0,0-.581.581V399.1a.581.581,0,1,0,1.163,0v-1.416a.581.581,0,0,0-.581-.581" transform="translate(-329.852 -339.392)" fill="#9c9c9c"/>
        <path id="Path_2756" data-name="Path 2756" d="M404.1,397.1a.581.581,0,0,0-.581.581V399.1a.581.581,0,0,0,1.163,0v-1.416a.581.581,0,0,0-.581-.581" transform="translate(-344.876 -339.392)" fill="#9c9c9c"/>
        <path id="Path_2757" data-name="Path 2757" d="M421.675,397.1a.581.581,0,0,0-.581.581V399.1a.581.581,0,1,0,1.163,0v-1.416a.581.581,0,0,0-.581-.581" transform="translate(-359.899 -339.392)" fill="#9c9c9c"/>
        <path id="Path_2758" data-name="Path 2758" d="M439.253,397.1a.581.581,0,0,0-.581.581V399.1a.581.581,0,1,0,1.163,0v-1.416a.581.581,0,0,0-.581-.581" transform="translate(-374.923 -339.392)" fill="#9c9c9c"/>
        <path id="Path_2759" data-name="Path 2759" d="M33.907,352.839h2.554a.581.581,0,0,0,.581-.581v-2.224a.581.581,0,0,0-.581-.581H33.907a.581.581,0,0,0-.581.581v2.224a.581.581,0,0,0,.581.581m.581-2.224H35.88v1.061H34.489Z" transform="translate(-28.483 -298.67)" fill="#9c9c9c"/>
        <path id="Path_2760" data-name="Path 2760" d="M69.063,352.839h2.555a.581.581,0,0,0,.581-.581v-2.224a.581.581,0,0,0-.581-.581H69.063a.581.581,0,0,0-.581.581v2.224a.581.581,0,0,0,.581.581m.581-2.224h1.392v1.061H69.645Z" transform="translate(-58.53 -298.67)" fill="#9c9c9c"/>
        <path id="Path_2761" data-name="Path 2761" d="M104.22,352.839h2.554a.581.581,0,0,0,.581-.581v-2.224a.581.581,0,0,0-.581-.581H104.22a.581.581,0,0,0-.581.581v2.224a.581.581,0,0,0,.581.581m.581-2.224h1.392v1.061H104.8Z" transform="translate(-88.578 -298.67)" fill="#9c9c9c"/>
        <path id="Path_2762" data-name="Path 2762" d="M139.376,352.839h2.555a.581.581,0,0,0,.581-.581v-2.224a.581.581,0,0,0-.581-.581h-2.555a.581.581,0,0,0-.581.581v2.224a.581.581,0,0,0,.581.581m.581-2.224h1.392v1.061h-1.392Z" transform="translate(-118.625 -298.67)" fill="#9c9c9c"/>
        <path id="Path_2763" data-name="Path 2763" d="M316.206,352.839h2.555a.581.581,0,0,0,.581-.581v-2.224a.581.581,0,0,0-.581-.581h-2.555a.581.581,0,0,0-.581.581v2.224a.581.581,0,0,0,.581.581m.581-2.224h1.392v1.061h-1.392Z" transform="translate(-269.758 -298.67)" fill="#9c9c9c"/>
        <path id="Path_2764" data-name="Path 2764" d="M351.362,352.839h2.555a.581.581,0,0,0,.581-.581v-2.224a.581.581,0,0,0-.581-.581h-2.555a.581.581,0,0,0-.581.581v2.224a.581.581,0,0,0,.581.581m.581-2.224h1.392v1.061h-1.392Z" transform="translate(-299.805 -298.67)" fill="#9c9c9c"/>
        <path id="Path_2765" data-name="Path 2765" d="M386.518,352.839h2.555a.581.581,0,0,0,.581-.581v-2.224a.581.581,0,0,0-.581-.581h-2.555a.581.581,0,0,0-.581.581v2.224a.581.581,0,0,0,.581.581m.581-2.224h1.392v1.061H387.1Z" transform="translate(-329.852 -298.67)" fill="#9c9c9c"/>
        <path id="Path_2766" data-name="Path 2766" d="M421.675,352.839h2.555a.581.581,0,0,0,.581-.581v-2.224a.581.581,0,0,0-.581-.581h-2.555a.581.581,0,0,0-.581.581v2.224a.581.581,0,0,0,.581.581m.581-2.224h1.392v1.061h-1.392Z" transform="translate(-359.899 -298.67)" fill="#9c9c9c"/>
      </g>
    </g>
  </g>
</svg>
