<svg xmlns="http://www.w3.org/2000/svg" xmlns:xlink="http://www.w3.org/1999/xlink" width="65" height="65" viewBox="0 0 65 65">
  <defs>
    <filter id="Ellipse_2" x="0" y="0" width="65" height="65" filterUnits="userSpaceOnUse">
      <feOffset dy="2" input="SourceAlpha"/>
      <feGaussianBlur stdDeviation="6.5" result="blur"/>
      <feFlood flood-opacity="0.161"/>
      <feComposite operator="in" in2="blur"/>
      <feComposite in="SourceGraphic"/>
    </filter>
  </defs>
  <g id="Group_548" data-name="Group 548" transform="translate(19.5 17.5)">
    <g transform="matrix(1, 0, 0, 1, -19.5, -17.5)" filter="url(#Ellipse_2)">
      <circle id="Ellipse_2-2" data-name="Ellipse 2" cx="13" cy="13" r="13" transform="translate(19.5 17.5)" fill="#fff"/>
    </g>
    <g id="arrow-left-short" transform="translate(9.277 9.587)">
      <path id="Path_3019" data-name="Path 3019" d="M9.123,10.248a.422.422,0,0,0,0,.6l2.236,2.235L9.123,15.316a.423.423,0,0,0,.6.6l2.534-2.534a.422.422,0,0,0,0-.6L9.721,10.248a.422.422,0,0,0-.6,0Z" transform="translate(-5.621 -10.123)" fill="#929292" fill-rule="evenodd"/>
      <path id="Path_3020" data-name="Path 3020" d="M16.46,17.3a.422.422,0,0,0-.422-.422H10.547a.422.422,0,1,0,0,.845h5.491A.422.422,0,0,0,16.46,17.3Z" transform="translate(-10.125 -14.34)" fill="#929292" fill-rule="evenodd"/>
    </g>
  </g>
</svg>
