<svg xmlns="http://www.w3.org/2000/svg" xmlns:xlink="http://www.w3.org/1999/xlink" width="40.43" height="62.89" viewBox="0 0 40.43 62.89">
  <defs>
    <clipPath id="clip-path">
      <rect id="Rectangle_717" data-name="Rectangle 717" width="40.432" height="49" fill="#0f2f4f"/>
    </clipPath>
    <clipPath id="clip-Pharma">
      <rect width="40.43" height="62.89"/>
    </clipPath>
  </defs>
  <g id="Pharma" clip-path="url(#clip-Pharma)">
    <g id="Group_735" data-name="Group 735" transform="translate(-352 -47.368)">
      <g id="Group_734" data-name="Group 734" transform="translate(-8 -18.742)">
        <g id="Group_733" data-name="Group 733" transform="translate(119 -625)">
          <g id="Group_732" data-name="Group 732" transform="translate(-31.718 -256.5)">
            <g id="Group_731" data-name="Group 731" transform="translate(272.718 961.5)">
              <g id="Group_730" data-name="Group 730" clip-path="url(#clip-path)">
                <path id="Path_3541" data-name="Path 3541" d="M26.621,2.147l.045,16.5c4.108,7.751,8.954,15.148,13.277,22.8A5.346,5.346,0,0,1,35.465,49H4.968A5.341,5.341,0,0,1,.412,41.639L13.4,19.616l.392-1.073.04-16.329A1.109,1.109,0,0,1,13.756,0L26.8.011a1.077,1.077,0,0,1-.177,2.136m-2.145-.014h-8.52V18.708a9.278,9.278,0,0,1-.508,1.622l-4.285,7.364H29.269L24.985,20.33a9.263,9.263,0,0,1-.508-1.622ZM9.924,29.85,2.314,42.608a3.179,3.179,0,0,0,2.031,4.086c10.474.335,21.065.179,31.557.079a3.216,3.216,0,0,0,2.18-4.261L30.6,29.89Z" transform="translate(0)" fill="#0f2f4f"/>
                <path id="Path_3542" data-name="Path 3542" d="M69.668,197.952c5.817-.832,6.7,7.826,1.282,8.471-5.7.677-6.566-7.715-1.282-8.471m.264,2.127c-2.565.415-2.127,4.68.868,4.2,2.565-.415,2.127-4.68-.868-4.2" transform="translate(-54.411 -162.768)" fill="#0f2f4f"/>
                <path id="Path_3543" data-name="Path 3543" d="M116.742,179.962c4.366-.692,5.1,5.835,1.022,6.346-4.21.528-4.957-5.722-1.022-6.346m.265,2.124a1.082,1.082,0,0,0,.605,2.078,1.082,1.082,0,0,0-.605-2.078" transform="translate(-93.899 -147.975)" fill="#0f2f4f"/>
                <path id="Path_3544" data-name="Path 3544" d="M92.233,114.067c3.695-.492,4.179,4.9.751,5.28-3.532.391-4.048-4.842-.751-5.28m.26,2.114a.542.542,0,0,0,.343,1.027.542.542,0,0,0-.343-1.027" transform="translate(-74.046 -93.793)" fill="#0f2f4f"/>
              </g>
            </g>
          </g>
          <path id="Path_3545" data-name="Path 3545" d="M4.268,23.4c.129.124.332.768.488,1.007A4.048,4.048,0,0,0,6.1,25.809c.617.4,1.452.39,1.308,1.32-.076.492-.8.537-1.163.759A4.19,4.19,0,0,0,4.8,29.312c-.291.481-.416,1.4-1.144,1.321-.556-.059-1.039-1.573-1.513-2.062C1.613,28.024,0,27.539,0,26.9c0-.626,1.6-1.091,2.15-1.669.4-.423.962-1.753,1.122-1.868a.961.961,0,0,1,1,.039M3.76,25.522,2.386,26.9,3.76,28.269,5.133,26.9Z" transform="translate(256 671.579)" fill="#0f2f4f"/>
          <path id="Path_3547" data-name="Path 3547" d="M53.651.039c4.379-.624,4.677,6.484-.14,5.82-2.994-.413-3.19-5.345.14-5.82m1.544,1.8C53.632.348,51.4,3.048,53.327,4.249a1.533,1.533,0,0,0,1.868-2.407" transform="translate(212.959 691.11)" fill="#0f2f4f"/>
        </g>
      </g>
    </g>
  </g>
</svg>
