<svg id="Group_49" data-name="Group 49" xmlns="http://www.w3.org/2000/svg" xmlns:xlink="http://www.w3.org/1999/xlink" width="74.118" height="67.436" viewBox="0 0 74.118 67.436">
  <defs>
    <clipPath id="clip-path">
      <rect id="Rectangle_45" data-name="Rectangle 45" width="74.118" height="67.436" fill="#787878" stroke="#ccc" stroke-width="0.5"/>
    </clipPath>
  </defs>
  <g id="Group_47" data-name="Group 47" clip-path="url(#clip-path)">
    <path id="Path_2558" data-name="Path 2558" d="M71.4,66.2V58.044a.618.618,0,0,0-.618-.618H69.181v-24.3a.618.618,0,0,0-.618-.618h-2.92V25.6a.617.617,0,0,0-.4-.576,26.828,26.828,0,0,0-15.217-1.39V18.727h.318a.618.618,0,0,0,0-1.235H46.123V15.024a.618.618,0,0,0-.618-.618H37.677V4.662h4.45a.618.618,0,0,0,.346-1.129L37.405.106A.619.619,0,0,0,37.27.039L37.231.027a.607.607,0,0,0-.112-.021c-.014,0-.027,0-.04,0l-.02,0a.624.624,0,0,0-.129.014l-.012,0a.618.618,0,0,0-.13.048l-.019.007c-.007,0-.012.009-.018.013a.62.62,0,0,0-.1.073c-.007.006-.015.011-.021.017a.618.618,0,0,0-.091.114c-.007.011-.012.022-.018.033a.609.609,0,0,0-.046.106c0,.013-.009.026-.012.039a.614.614,0,0,0-.021.151V14.407H28.612a.618.618,0,0,0-.618.618v2.468H23.768a.618.618,0,1,0,0,1.235h.318v4.906a26.829,26.829,0,0,0-15.218,1.39.617.617,0,0,0-.395.576v6.909H5.555a.618.618,0,0,0-.618.618v24.3H3.331a.618.618,0,0,0-.618.618V66.2H0v1.235H74.118V66.2ZM37.677,3.426V1.781l2.434,1.646ZM46.123,52.9H64.409v4.527H46.123ZM44.888,18.727v8.839H29.23V18.727ZM64.409,51.664H46.123V31.926a25.643,25.643,0,0,1,18.285,0ZM43.251,57.426V42.292c0-2.956-2.428-5.552-6.041-6.459a.621.621,0,0,0-.3,0c-3.613.907-6.041,3.5-6.041,6.459V57.426H29.23V30.909h1.178v.985a.618.618,0,1,0,1.235,0v-.985h1.178v.985a.618.618,0,1,0,1.235,0v-.985h1.178v.985a.618.618,0,1,0,1.235,0v-.985h1.178v.985a.618.618,0,1,0,1.235,0v-.985h1.178v.985a.618.618,0,1,0,1.235,0v-.985h1.178v.985a.618.618,0,1,0,1.235,0v-.985h1.178V57.426Zm-3.518,0H34.385V42.465a3.281,3.281,0,0,1,2.674-2.821,3.282,3.282,0,0,1,2.674,2.821ZM37.21,38.405a.621.621,0,0,0-.3,0c-2.248.565-3.759,2.2-3.759,4.06V57.426H32.1V42.292c0-2.3,2.03-4.433,4.956-5.222,2.971.8,4.956,2.881,4.956,5.222V57.426H40.968V42.465c0-1.864-1.511-3.5-3.759-4.06M29.23,28.8H44.888v.871H29.23ZM27.995,51.664H9.71V31.926a25.643,25.643,0,0,1,18.285,0ZM9.71,52.9H27.995v4.527H9.71ZM33.15,66.2H11.936V58.661H33.15Zm1.235-7.539h5.348V66.2H34.385Zm6.583,0H62.182V66.2H40.968ZM65.644,43.381h2.3V57.426h-2.3Zm2.3-1.235h-2.3v-8.4h2.3ZM64.409,26.026v4.593a26.765,26.765,0,0,0-18.285,0V26.031l.239-.088q.311-.112.622-.216c.159-.053.319-.106.479-.157.184-.058.369-.112.553-.166s.341-.1.512-.148c.266-.072.532-.139.8-.2.076-.018.152-.04.228-.057h0a25.544,25.544,0,0,1,14.853,1.029M48.8,23.909c-.075.019-.149.042-.223.061-.165.043-.33.086-.5.131V22.3a.618.618,0,1,0-1.235,0v2.172c-.182.059-.364.119-.546.182-.057.02-.116.036-.173.056V18.727H48.8ZM29.23,15.642H44.888v1.85H29.23Zm-3.908,8.268V18.727h2.673v5.986c-.057-.02-.116-.037-.173-.057-.182-.063-.364-.123-.546-.182V22.3a.618.618,0,1,0-1.235,0v1.8c-.166-.046-.331-.089-.5-.132-.074-.019-.148-.043-.222-.061M24.563,25h0c.079.018.158.04.237.059.263.063.525.129.788.2.173.047.345.1.517.149s.364.107.546.164c.162.051.323.1.484.158q.31.1.62.215l.238.087v4.588a26.765,26.765,0,0,0-18.285,0V26.026A25.547,25.547,0,0,1,24.563,25M6.172,33.743h2.3v8.4h-2.3Zm0,9.637h2.3V57.426h-2.3ZM3.949,58.661H10.7V66.2H3.949Zm59.469,0h6.752V66.2H63.418Z" fill="#787878" stroke="#ccc" stroke-width="0.5"/>
    <path id="Path_2559" data-name="Path 2559" d="M200.863,222.207a.662.662,0,0,0-.105-.056.508.508,0,0,0-.117-.034.616.616,0,0,0-.738.605.622.622,0,0,0,.618.618.543.543,0,0,0,.12-.012c.04-.009.08-.022.117-.034a1.117,1.117,0,0,0,.105-.059.722.722,0,0,0,.1-.077.622.622,0,0,0,.179-.435.63.63,0,0,0-.179-.439,1.094,1.094,0,0,0-.1-.077" transform="translate(-169.035 -187.81)" fill="#787878" stroke="#ccc" stroke-width="0.5"/>
    <path id="Path_2560" data-name="Path 2560" d="M273.287,222.486a.59.59,0,0,0-.056-.105.755.755,0,0,0-.077-.1.743.743,0,0,0-.093-.077.725.725,0,0,0-.108-.056.536.536,0,0,0-.114-.034.632.632,0,0,0-.241,0,.513.513,0,0,0-.117.034.654.654,0,0,0-.1.056,1.124,1.124,0,0,0-.1.077,1.164,1.164,0,0,0-.077.1.711.711,0,0,0-.056.105.535.535,0,0,0-.034.117.592.592,0,0,0,0,.241.511.511,0,0,0,.034.114.732.732,0,0,0,.056.108.758.758,0,0,0,.077.092.722.722,0,0,0,.1.077.652.652,0,0,0,.1.056.773.773,0,0,0,.117.037.594.594,0,0,0,.241,0,.858.858,0,0,0,.114-.037.723.723,0,0,0,.108-.056.54.54,0,0,0,.093-.077.557.557,0,0,0,.077-.092.742.742,0,0,0,.056-.108.683.683,0,0,0,.037-.114.594.594,0,0,0,0-.241.714.714,0,0,0-.037-.117" transform="translate(-230.085 -187.811)" fill="#787878" stroke="#ccc" stroke-width="0.5"/>
    <path id="Path_2561" data-name="Path 2561" d="M79.2,174.34a.622.622,0,0,0,.618-.618.758.758,0,0,0-.012-.12.74.74,0,0,0-.037-.117.635.635,0,0,0-.133-.2.643.643,0,0,0-.874,0,.763.763,0,0,0-.077.1.69.69,0,0,0-.055.105.743.743,0,0,0-.037.117.8.8,0,0,0-.013.12.619.619,0,0,0,.182.435.627.627,0,0,0,.439.182" transform="translate(-66.447 -146.381)" fill="#787878" stroke="#ccc" stroke-width="0.5"/>
    <path id="Path_2562" data-name="Path 2562" d="M105.2,170.736a.686.686,0,0,0,.1.059.88.88,0,0,0,.117.034.594.594,0,0,0,.241,0,.883.883,0,0,0,.117-.034.7.7,0,0,0,.1-.059.744.744,0,0,0,.1-.074.764.764,0,0,0,.074-.1.609.609,0,0,0,.059-.108.678.678,0,0,0,.034-.114.593.593,0,0,0,0-.241.818.818,0,0,0-.034-.117.718.718,0,0,0-.059-.105.556.556,0,0,0-.17-.17.708.708,0,0,0-.1-.059.569.569,0,0,0-.117-.034.627.627,0,0,0-.241,0,.567.567,0,0,0-.117.034.694.694,0,0,0-.1.059.445.445,0,0,0-.093.077.608.608,0,0,0-.182.436.62.62,0,0,0,.182.439.557.557,0,0,0,.093.074" transform="translate(-88.721 -143.417)" fill="#787878" stroke="#ccc" stroke-width="0.5"/>
    <path id="Path_2563" data-name="Path 2563" d="M131.537,170.736a.566.566,0,0,0,.105.059.544.544,0,0,0,.114.034.567.567,0,0,0,.123.012.645.645,0,0,0,.235-.046.586.586,0,0,0,.1-.059.469.469,0,0,0,.1-.077.617.617,0,0,0,.179-.435.772.772,0,0,0-.009-.121.7.7,0,0,0-.037-.117.66.66,0,0,0-.055-.105.568.568,0,0,0-.077-.093.388.388,0,0,0-.1-.077.592.592,0,0,0-.1-.059.542.542,0,0,0-.114-.034.642.642,0,0,0-.244,0,.542.542,0,0,0-.114.034.571.571,0,0,0-.105.059.454.454,0,0,0-.1.077.567.567,0,0,0-.077.093.68.68,0,0,0-.055.105.521.521,0,0,0-.034.117.543.543,0,0,0-.012.121.617.617,0,0,0,.179.435.569.569,0,0,0,.1.077" transform="translate(-110.993 -143.417)" fill="#787878" stroke="#ccc" stroke-width="0.5"/>
    <path id="Path_2564" data-name="Path 2564" d="M157.628,173.957a.747.747,0,0,0,.059.108.567.567,0,0,0,.077.093.612.612,0,0,0,.871,0,.449.449,0,0,0,.077-.093.748.748,0,0,0,.059-.108.478.478,0,0,0,.034-.114.594.594,0,0,0,0-.241.507.507,0,0,0-.034-.117.717.717,0,0,0-.059-.1.561.561,0,0,0-.077-.1.639.639,0,0,0-.871,0,.752.752,0,0,0-.077.1.717.717,0,0,0-.059.1.524.524,0,0,0-.034.117.593.593,0,0,0,0,.241.494.494,0,0,0,.034.114" transform="translate(-133.249 -146.382)" fill="#787878" stroke="#ccc" stroke-width="0.5"/>
    <path id="Path_2565" data-name="Path 2565" d="M314.6,173.283a1.145,1.145,0,0,0-.077.1.663.663,0,0,0-.055.105.618.618,0,0,0-.034.358.489.489,0,0,0,.034.114.68.68,0,0,0,.055.108.779.779,0,0,0,.077.092.718.718,0,0,0,.1.077.661.661,0,0,0,.1.056.771.771,0,0,0,.117.037.538.538,0,0,0,.12.012.544.544,0,0,0,.121-.012.72.72,0,0,0,.114-.037.7.7,0,0,0,.108-.056.553.553,0,0,0,.093-.077.564.564,0,0,0,.077-.092.7.7,0,0,0,.056-.108.673.673,0,0,0,.037-.114.592.592,0,0,0,0-.241.713.713,0,0,0-.037-.117.681.681,0,0,0-.056-.105.739.739,0,0,0-.077-.1.643.643,0,0,0-.874,0" transform="translate(-265.871 -146.381)" fill="#787878" stroke="#ccc" stroke-width="0.5"/>
    <path id="Path_2566" data-name="Path 2566" d="M341.017,170.736a.744.744,0,0,0,.108.059.5.5,0,0,0,.114.034.592.592,0,0,0,.241,0,.52.52,0,0,0,.118-.034.718.718,0,0,0,.1-.059.549.549,0,0,0,.1-.077.618.618,0,0,0,0-.871.55.55,0,0,0-.1-.077.51.51,0,0,0-.1-.059.519.519,0,0,0-.118-.034.625.625,0,0,0-.241,0,.5.5,0,0,0-.114.034.529.529,0,0,0-.108.059.443.443,0,0,0-.093.077.452.452,0,0,0-.077.093.632.632,0,0,0-.059.108c-.012.037-.025.074-.034.114a.814.814,0,0,0-.012.121.619.619,0,0,0,.182.435.442.442,0,0,0,.093.077" transform="translate(-288.127 -143.417)" fill="#787878" stroke="#ccc" stroke-width="0.5"/>
    <path id="Path_2567" data-name="Path 2567" d="M367.34,170.736a.579.579,0,0,0,.105.059.77.77,0,0,0,.117.034.524.524,0,0,0,.12.012.539.539,0,0,0,.12-.012.719.719,0,0,0,.114-.034.727.727,0,0,0,.108-.059.443.443,0,0,0,.093-.077.548.548,0,0,0,.133-.2.711.711,0,0,0,.037-.114.786.786,0,0,0,0-.241.872.872,0,0,0-.037-.117.661.661,0,0,0-.055-.105.568.568,0,0,0-.077-.093.443.443,0,0,0-.093-.077.521.521,0,0,0-.108-.059.489.489,0,0,0-.114-.034.625.625,0,0,0-.241,0,.52.52,0,0,0-.117.034.437.437,0,0,0-.105.059.553.553,0,0,0-.1.077.767.767,0,0,0-.077.093.652.652,0,0,0-.055.105.877.877,0,0,0-.037.117.775.775,0,0,0-.012.121.619.619,0,0,0,.182.435.551.551,0,0,0,.1.077" transform="translate(-310.383 -143.417)" fill="#787878" stroke="#ccc" stroke-width="0.5"/>
    <path id="Path_2568" data-name="Path 2568" d="M393.677,174.2a.741.741,0,0,0,.108.059.711.711,0,0,0,.114.034.586.586,0,0,0,.241,0,.748.748,0,0,0,.117-.034.7.7,0,0,0,.105-.059.556.556,0,0,0,.093-.077.45.45,0,0,0,.077-.093.52.52,0,0,0,.059-.108.471.471,0,0,0,.034-.114.534.534,0,0,0,.012-.12.619.619,0,0,0-.182-.439.54.54,0,0,0-.093-.074.5.5,0,0,0-.105-.059.517.517,0,0,0-.117-.034.627.627,0,0,0-.241,0,.492.492,0,0,0-.114.034.53.53,0,0,0-.108.059.545.545,0,0,0-.093.074.632.632,0,0,0-.182.439.62.62,0,0,0,.182.435.561.561,0,0,0,.093.077" transform="translate(-332.656 -146.343)" fill="#787878" stroke="#ccc" stroke-width="0.5"/>
    <path id="Path_2569" data-name="Path 2569" d="M315.036,214.528a.618.618,0,0,0-.618.618v5.369a.618.618,0,0,0,1.235,0v-5.369a.618.618,0,0,0-.618-.618" transform="translate(-265.868 -181.402)" fill="#787878" stroke="#ccc" stroke-width="0.5"/>
    <path id="Path_2570" data-name="Path 2570" d="M341.364,210.528a.618.618,0,0,0-.618.618v5.369a.618.618,0,1,0,1.235,0v-5.369a.618.618,0,0,0-.618-.618" transform="translate(-288.131 -178.02)" fill="#787878" stroke="#ccc" stroke-width="0.5"/>
    <path id="Path_2571" data-name="Path 2571" d="M367.694,217.131a.618.618,0,0,0,.618-.618v-5.369a.618.618,0,0,0-1.235,0v5.369a.618.618,0,0,0,.618.618" transform="translate(-310.395 -178.019)" fill="#787878" stroke="#ccc" stroke-width="0.5"/>
    <path id="Path_2572" data-name="Path 2572" d="M394.024,221.131a.618.618,0,0,0,.618-.618v-5.369a.618.618,0,1,0-1.235,0v5.369a.618.618,0,0,0,.618.618" transform="translate(-332.659 -181.401)" fill="#787878" stroke="#ccc" stroke-width="0.5"/>
    <path id="Path_2573" data-name="Path 2573" d="M79.214,214.528a.618.618,0,0,0-.618.618v5.369a.618.618,0,1,0,1.235,0v-5.369a.618.618,0,0,0-.618-.618" transform="translate(-66.46 -181.402)" fill="#787878" stroke="#ccc" stroke-width="0.5"/>
    <path id="Path_2574" data-name="Path 2574" d="M105.542,210.528a.618.618,0,0,0-.618.618v5.369a.618.618,0,0,0,1.235,0v-5.369a.618.618,0,0,0-.618-.618" transform="translate(-88.722 -178.02)" fill="#787878" stroke="#ccc" stroke-width="0.5"/>
    <path id="Path_2575" data-name="Path 2575" d="M131.872,217.131a.618.618,0,0,0,.618-.618v-5.369a.618.618,0,1,0-1.235,0v5.369a.618.618,0,0,0,.618.618" transform="translate(-110.987 -178.019)" fill="#787878" stroke="#ccc" stroke-width="0.5"/>
    <path id="Path_2576" data-name="Path 2576" d="M158.2,221.131a.618.618,0,0,0,.618-.618v-5.369a.618.618,0,1,0-1.235,0v5.369a.618.618,0,0,0,.618.618" transform="translate(-133.251 -181.401)" fill="#787878" stroke="#ccc" stroke-width="0.5"/>
    <path id="Path_2577" data-name="Path 2577" d="M203.8,137.581a.618.618,0,0,0,.618-.618v-3.908a.618.618,0,0,0-1.235,0v3.908a.618.618,0,0,0,.618.618" transform="translate(-171.807 -111.987)" fill="#787878" stroke="#ccc" stroke-width="0.5"/>
    <path id="Path_2578" data-name="Path 2578" d="M225.679,137.581a.618.618,0,0,0,.618-.618v-3.908a.618.618,0,0,0-1.235,0v3.908a.618.618,0,0,0,.618.618" transform="translate(-190.309 -111.987)" fill="#787878" stroke="#ccc" stroke-width="0.5"/>
    <path id="Path_2579" data-name="Path 2579" d="M247.559,137.581a.618.618,0,0,0,.618-.618v-3.908a.618.618,0,0,0-1.235,0v3.908a.618.618,0,0,0,.618.618" transform="translate(-208.81 -111.987)" fill="#787878" stroke="#ccc" stroke-width="0.5"/>
    <path id="Path_2580" data-name="Path 2580" d="M269.44,137.581a.618.618,0,0,0,.618-.618v-3.908a.618.618,0,0,0-1.235,0v3.908a.618.618,0,0,0,.618.618" transform="translate(-227.313 -111.987)" fill="#787878" stroke="#ccc" stroke-width="0.5"/>
  </g>
</svg>
