<svg xmlns="http://www.w3.org/2000/svg" xmlns:xlink="http://www.w3.org/1999/xlink" width="50" height="46.74" viewBox="0 0 50 46.74">
  <defs>
    <clipPath id="clip-Science_White_1">
      <rect width="50" height="46.74"/>
    </clipPath>
  </defs>
  <g id="Science_White_1" data-name="Science White – 1" clip-path="url(#clip-Science_White_1)">
    <g id="Group_2999" data-name="Group 2999" transform="translate(-921.471 -912)">
      <path id="Path_116" data-name="Path 116" d="M947,623.292a5.85,5.85,0,1,0-5.849-5.85A5.857,5.857,0,0,0,947,623.292Zm0-10.037a4.187,4.187,0,1,1-4.186,4.188A4.193,4.193,0,0,1,947,613.254Zm25,4.188a6.372,6.372,0,0,0-1.337-3.783,3.535,3.535,0,0,0-5.61-4.266q-1.117-.536-2.379-1c1.043-6,.036-10.749-3.175-12.6a6.111,6.111,0,0,0-3.1-.791c-2.784,0-6.09,1.609-9.4,4.379-3.312-2.771-6.618-4.38-9.4-4.38a6.109,6.109,0,0,0-3.1.791,6.386,6.386,0,0,0-2.608,3.052c-.055,0-.109-.012-.166-.012a3.541,3.541,0,0,0-3.417,2.625,3.511,3.511,0,0,0,.354,2.686A3.547,3.547,0,0,0,931,605.829q.1,1.234.326,2.561c-5.717,2.1-9.327,5.343-9.327,9.051s3.614,6.956,9.334,9.053q-.166.952-.266,1.873c-.568,5.31.65,9.119,3.429,10.724a6.112,6.112,0,0,0,3.1.792,7.61,7.61,0,0,0,.849-.053A3.538,3.538,0,0,0,945,637.284c-.02-.073-.045-.142-.069-.213q1.026-.708,2.061-1.572c3.314,2.771,6.619,4.381,9.4,4.381h0a6.111,6.111,0,0,0,3.1-.791c2.779-1.6,4-5.414,3.43-10.725-.067-.612-.155-1.237-.266-1.871C968.385,624.4,972,621.151,972,617.442Zm-4.316-7.569a1.878,1.878,0,1,1-1.877,1.877A1.879,1.879,0,0,1,967.684,609.873ZM956.4,596.662a4.482,4.482,0,0,1,2.267.568c2.507,1.448,3.239,5.484,2.383,10.616a43.141,43.141,0,0,0-7.619-1.57,43.745,43.745,0,0,0-5.171-5.786C951.187,598.075,954.053,596.662,956.4,596.662Zm-19.4,26.547q1.056,1.834,2.214,3.52a40.831,40.831,0,0,1-5.965-1.368,39.777,39.777,0,0,1,1.8-5.837Q935.937,621.357,937.005,623.209Zm-3.732-13.695a40.924,40.924,0,0,1,5.946-1.361c-.768,1.122-1.509,2.3-2.214,3.52s-1.35,2.445-1.941,3.674A40.91,40.91,0,0,1,933.273,609.515Zm5.171,12.864a51.813,51.813,0,0,1-2.515-4.948,53.484,53.484,0,0,1,2.515-4.927,52.066,52.066,0,0,1,3.025-4.645,51.938,51.938,0,0,1,11.062,0,51.375,51.375,0,0,1,3.022,4.642,53.185,53.185,0,0,1,2.517,4.93,51.974,51.974,0,0,1-5.541,9.593,52.2,52.2,0,0,1-11.06,0A52.038,52.038,0,0,1,938.444,622.378Zm18.549.834q1.069-1.851,1.95-3.69a39.805,39.805,0,0,1,1.8,5.84,40.822,40.822,0,0,1-5.965,1.367Q955.931,625.048,956.993,623.212Zm1.941-7.866c-.592-1.23-1.237-2.459-1.942-3.678s-1.444-2.394-2.21-3.515a40.685,40.685,0,0,1,5.944,1.368A40.691,40.691,0,0,1,958.933,615.347ZM947,601.59a40.836,40.836,0,0,1,4.148,4.465c-1.346-.1-2.73-.153-4.146-.153s-2.8.055-4.15.154A40.946,40.946,0,0,1,947,601.59Zm-11.668-4.359a4.463,4.463,0,0,1,2.266-.568c2.349,0,5.215,1.413,8.142,3.828a43.683,43.683,0,0,0-5.169,5.782,43.16,43.16,0,0,0-7.62,1.568q-.178-1.066-.264-2.064a3.537,3.537,0,0,0,.812-6.469A4.648,4.648,0,0,1,935.331,597.23Zm-5.229,6.081a1.876,1.876,0,1,1,1.628.939A1.872,1.872,0,0,1,930.1,603.311Zm-6.44,14.13c0-2.9,3.129-5.546,8-7.372a43.134,43.134,0,0,0,2.447,7.376,43.423,43.423,0,0,0-2.436,7.371C926.8,622.992,923.662,620.34,923.662,617.442Zm19.547,21.7a1.877,1.877,0,1,1-1.623-2.817,1.877,1.877,0,0,1,1.623,2.817Zm.848-3.468a3.535,3.535,0,0,0-5.539.758,3.513,3.513,0,0,0-.471,1.763c-.151.011-.3.027-.451.027a4.481,4.481,0,0,1-2.267-.568c-2.144-1.237-3.095-4.558-2.607-9.108.052-.494.125-1,.208-1.506a43.233,43.233,0,0,0,7.639,1.573,43.712,43.712,0,0,0,5.167,5.779C945.174,634.855,944.612,635.284,944.057,635.672ZM947,633.29a40.893,40.893,0,0,1-4.146-4.462c1.348.1,2.733.154,4.151.154s2.8-.054,4.147-.154A40.717,40.717,0,0,1,947,633.29Zm11.672,4.361a4.469,4.469,0,0,1-2.266.568h0c-2.349,0-5.216-1.414-8.142-3.829a43.442,43.442,0,0,0,5.166-5.78,43.18,43.18,0,0,0,7.642-1.573c.083.51.156,1.013.208,1.506C961.762,633.094,960.811,636.414,958.668,637.651Zm3.656-12.833a43.193,43.193,0,0,0-2.436-7.368,43.2,43.2,0,0,0,2.448-7.37c.674.254,1.316.523,1.919.807a3.532,3.532,0,0,0,5.2,3.926,4.652,4.652,0,0,1,.883,2.628C970.337,620.34,967.2,622.992,962.324,624.818Z" transform="translate(-0.529 317)"/>
    </g>
  </g>
</svg>
