<svg xmlns="http://www.w3.org/2000/svg" xmlns:xlink="http://www.w3.org/1999/xlink" width="53" height="57.57" viewBox="0 0 53 57.57">
  <defs>
    <clipPath id="clip-path">
      <rect id="Rectangle_2374" data-name="Rectangle 2374" width="53" height="57.573"/>
    </clipPath>
    <clipPath id="clip-Hospitality_White_1">
      <rect width="53" height="57.57"/>
    </clipPath>
  </defs>
  <g id="Hospitality_White_1" data-name="Hospitality White – 1" clip-path="url(#clip-Hospitality_White_1)">
    <g id="Group_2998" data-name="Group 2998" transform="translate(0 -0.09)" clip-path="url(#clip-path)">
      <path id="Path_2992" data-name="Path 2992" d="M60.08,57.574a10.678,10.678,0,0,1-1.108-.371,4.548,4.548,0,0,1-2.9-4.361c-.028-5.247-.012-10.494-.008-15.741a6.3,6.3,0,0,1,3.209-5.632,1.4,1.4,0,0,0,.562-.75,65.122,65.122,0,0,0,1.717-11.366c.244-2.89.442-5.8.926-8.649a13.234,13.234,0,0,1,4.29-7.841,10.912,10.912,0,0,1,16.24,1.712,15.778,15.778,0,0,1,3.144,8.061c.342,3.127.525,6.271.811,9.4a52.081,52.081,0,0,0,1.5,8.79,1.076,1.076,0,0,0,.445.583,6.5,6.5,0,0,1,3.32,6.027c-.034,4.984-.009,9.969-.01,14.954,0,2.787-1.224,4.377-3.932,5.116a.343.343,0,0,0-.091.063h-1.35c-.488-.175-.99-.319-1.46-.531-2.026-.915-4.065-1.8-6.056-2.791-1.787-.886-3.824-1.342-5.213-2.992a6.526,6.526,0,0,1-2.925,1.973Q66.309,55.4,61.43,57.574Zm22.3-10.249c.011-.246.026-.428.026-.609,0-2.061,0-4.122.006-6.183,0-.634.348-1.024.865-1.042s.911.4.928,1.044c.016.58,0,1.162,0,1.743,0,.913,0,1.826,0,2.759h6.173c.012-.15.028-.26.028-.37,0-2.417-.028-4.834.01-7.251a4.566,4.566,0,0,0-2.68-4.556c-1.736-.822-3.558-1.463-5.354-2.154a.667.667,0,0,0-.539.207c-1.191,1.246-2.362,2.511-3.543,3.767-.743.79-1.188.775-1.872-.06-.756-.924-1.507-1.851-2.3-2.825-.8.988-1.567,1.93-2.336,2.867-.637.776-1.108.792-1.8.059-1.194-1.269-2.378-2.548-3.58-3.81-.118-.124-.368-.268-.486-.222-1.83.707-3.69,1.356-5.457,2.2a4.509,4.509,0,0,0-2.63,4.471c.031,2.36.006,4.722.008,7.082,0,.2.017.4.027.64,1.964,0,3.873,0,5.781,0a2.944,2.944,0,0,0,.32-.033.692.692,0,0,0,.061-.179c.006-.824.008-1.649.012-2.473,0-.693-.016-1.388.026-2.078a.881.881,0,0,1,1.757-.005,5.1,5.1,0,0,1,.02.561q0,2.923,0,5.846c0,.194.023.388.038.617,1-.269,1.911-.56,2.843-.749a1.316,1.316,0,0,0,1.123-.954c.294-1.058.553-2.129.768-3.206.194-.97.216-1.982.485-2.927a2,2,0,0,1,2.749-1.378.8.8,0,0,0,.419.041c1.68-.433,2.675.161,3.013,1.87.156.788.172,1.6.328,2.39.213,1.077.473,2.148.772,3.2a1.223,1.223,0,0,0,.586.772c1.094.359,2.22.618,3.391.929m4.028-17.043c-.04-.274-.061-.416-.082-.558-.4-2.607-.869-5.205-1.166-7.823-.344-3.031-.476-6.087-.808-9.12a13.871,13.871,0,0,0-2.849-7.218,9.165,9.165,0,0,0-14.521-.348,12.943,12.943,0,0,0-2.526,4.841c-.755,2.578-.739,5.254-1.014,7.894-.339,3.256-.718,6.509-1.109,9.76-.1.822-.307,1.632-.484,2.541,1.587-.6,3.088-1.122,4.555-1.729a3.731,3.731,0,0,0,2.315-4.375.81.81,0,0,0-.225-.365,12.384,12.384,0,0,1-3.334-9.468c.027-.693.238-.928.905-1.092a7.521,7.521,0,0,0,5.361-4.455A.937.937,0,0,1,72.31,8.1a.957.957,0,0,1,.893.652,9.6,9.6,0,0,0,9.1,5.733c.668.012,1.038.35,1.011,1A12.117,12.117,0,0,1,79.9,23.858a1.21,1.21,0,0,0-.341.428A3.566,3.566,0,0,0,81.239,28.2c1.65.775,3.383,1.373,5.174,2.084M66.935,14.873a10.526,10.526,0,0,0,2.716,7.511,6.011,6.011,0,0,0,5.51,2.022A5.831,5.831,0,0,0,77.9,23.2a9.807,9.807,0,0,0,3.561-6.919,11.656,11.656,0,0,1-9.148-5.31,9.583,9.583,0,0,1-5.383,3.906m6.3,24.888c-.542.16-.506.565-.553.882-.135.907-.214,1.823-.349,2.73a7.763,7.763,0,0,1-1.519,4.1,2.226,2.226,0,0,1-1,.652c-1.452.433-2.921.808-4.386,1.193-.882.232-1.343-.116-1.364-1.019-.011-.459,0-.919,0-1.388H57.912a1.357,1.357,0,0,0-.046.237c0,1.911-.044,3.823.01,5.733a2.853,2.853,0,0,0,4.144,2.584c3.172-1.43,6.326-2.9,9.483-4.363a2.811,2.811,0,0,0,1.732-2.722c.008-1.349,0-2.7,0-4.047V39.761m10.973,7.147c0,.446,0,.838,0,1.23-.006,1.1-.426,1.426-1.478,1.146-1.338-.355-2.668-.744-4.017-1.055a2.454,2.454,0,0,1-1.574-1.153,8.986,8.986,0,0,1-1.2-3.706c-.136-.926-.216-1.86-.356-2.785-.046-.3-.029-.709-.545-.8v.563c0,2.6.017,5.209-.006,7.813a3.032,3.032,0,0,0,1.946,3.045c3.033,1.375,6.048,2.789,9.075,4.177a2.908,2.908,0,0,0,4.36-2.791c.008-1.724,0-3.447,0-5.171,0-.164-.02-.327-.032-.513Zm-6.5-21.448a7.667,7.667,0,0,1-7.122-.092l-.331,1.763c1.217.688,2.429,1.388,3.662,2.051a.765.765,0,0,0,.6-.08c.954-.516,1.879-1.085,2.84-1.586.485-.253.8-.485.513-1.093a3.9,3.9,0,0,1-.164-.962m-6.865,7.523,1.92-2.363-3.412-1.926-1.421,1.171,2.914,3.119m6.585,0,2.914-3.123-1.43-1.167-3.4,1.931,1.917,2.359" transform="translate(-47.637 -0.001)"/>
      <path id="Path_2993" data-name="Path 2993" d="M275.3,108.7c.438.312.875.481,1.082.8a6.3,6.3,0,0,0,2.049,2.033,1.251,1.251,0,0,1,.018,2.187,6.081,6.081,0,0,0-2.042,2.037,1.252,1.252,0,0,1-2.187-.005,6.1,6.1,0,0,0-2.043-2.036,1.252,1.252,0,0,1,.027-2.187,6.233,6.233,0,0,0,2.017-1.988,4.516,4.516,0,0,1,1.079-.84m-.006,5.175,1.337-1.238-1.322-1.239-1.263,1.229,1.248,1.249" transform="translate(-230.766 -92.376)"/>
      <path id="Path_2994" data-name="Path 2994" d="M34.877,117.358a1.2,1.2,0,0,1-1.032-.669,5.231,5.231,0,0,0-1.914-1.928,1.272,1.272,0,0,1,0-2.278,5.549,5.549,0,0,0,1.92-1.924,1.276,1.276,0,0,1,2.283.021,5.419,5.419,0,0,0,1.88,1.886,1.281,1.281,0,0,1,.005,2.311,5.08,5.08,0,0,0-1.876,1.887,1.318,1.318,0,0,1-1.264.693M35,112.371l-1.293,1.206,1.247,1.264,1.321-1.165L35,112.371" transform="translate(-26.534 -93.362)"/>
      <path id="Path_2995" data-name="Path 2995" d="M302.066,202.728a4.026,4.026,0,0,1,.793-.988,6.012,6.012,0,0,0,1.954-1.97,1.261,1.261,0,0,1,2.219-.035,5.946,5.946,0,0,0,2,2,1.267,1.267,0,0,1-.035,2.252,5.6,5.6,0,0,0-1.922,1.921,1.275,1.275,0,0,1-2.28-.014,5.25,5.25,0,0,0-1.929-1.913,1.679,1.679,0,0,1-.8-1.256m2.659.089,1.17,1.275,1.325-1.2-1.274-1.3-1.221,1.223" transform="translate(-256.699 -169.189)"/>
      <path id="Path_2996" data-name="Path 2996" d="M7.7,202.848a4.522,4.522,0,0,1-.838,1.081,6.3,6.3,0,0,0-1.991,2.013,1.261,1.261,0,0,1-2.218-.011,5.938,5.938,0,0,0-2-2,1.252,1.252,0,0,1-.014-2.187,6.109,6.109,0,0,0,2.041-2.037,1.251,1.251,0,0,1,2.186.011A6.3,6.3,0,0,0,6.9,201.767c.319.207.489.644.8,1.081m-3.907,1.287,1.218-1.3-1.246-1.246-1.252,1.224,1.28,1.319" transform="translate(0 -169.175)"/>
      <path id="Path_2997" data-name="Path 2997" d="M101.793,241.03c-.56,0-1.121.016-1.681,0a.9.9,0,1,1,.017-1.785q1.653-.025,3.306,0a.908.908,0,0,1,1,.9c-.006.514-.4.86-1.021.892-.037,0-.075,0-.112,0h-1.513Z" transform="translate(-84.261 -203.299)"/>
      <path id="Path_2998" data-name="Path 2998" d="M172.274,224.081a.9.9,0,1,1-.889-.9.909.909,0,0,1,.889.9" transform="translate(-144.879 -189.659)"/>
      <path id="Path_2999" data-name="Path 2999" d="M171.366,240.69a.9.9,0,0,1-.884-.9.9.9,0,1,1,1.791.022.9.9,0,0,1-.907.881" transform="translate(-144.878 -203.02)"/>
    </g>
  </g>
</svg>
