<svg xmlns="http://www.w3.org/2000/svg" xmlns:xlink="http://www.w3.org/1999/xlink" width="83" height="75" viewBox="0 0 83 75">
  <defs>
    <clipPath id="clip-path">
      <rect id="Rectangle_2336" data-name="Rectangle 2336" width="83" height="75" transform="translate(0 0.392)" fill="#787878" stroke="#dcdcdc" stroke-width="0.5"/>
    </clipPath>
  </defs>
  <g id="Group_2932" data-name="Group 2932" transform="translate(0 -0.392)">
    <g id="Group_2931" data-name="Group 2931" clip-path="url(#clip-path)">
      <path id="Path_2928" data-name="Path 2928" d="M83,107.659H79.276V87.14h.653a.692.692,0,0,0,0-1.383h-.666c-.162-14.03-2.233-18.79-2.323-18.988a.693.693,0,0,0-.631-.407H72.6a.693.693,0,0,0-.631.407c-.081.179-1.769,4.059-2.222,15.077a3.167,3.167,0,0,0-2.917-.49v-.531h.653a.692.692,0,0,0,0-1.383h-.653V78.52a3.636,3.636,0,0,0-5.9-2.851v-2c0-19.343-2.717-25.774-2.833-26.039a.691.691,0,0,0-.634-.414h-4.53a.692.692,0,0,0-.634.415c-.1.228-2.333,5.532-2.76,20.89-.1-4.914-1.368-7.888-2.489-9.562C46.441,45.93,44.5,41.323,44.4,41.1a.692.692,0,0,0-.634-.414h-4.53a.692.692,0,0,0-.634.414c-.1.223-2.043,4.83-2.652,17.86-1.121,1.673-2.392,4.647-2.489,9.562-.427-15.357-2.66-20.661-2.76-20.89a.692.692,0,0,0-.634-.415h-4.53a.691.691,0,0,0-.634.414c-.116.264-2.831,6.7-2.833,26.039v2a3.636,3.636,0,0,0-5.9,2.851v.921h-.653a.692.692,0,1,0,0,1.383h.653v.531a3.167,3.167,0,0,0-2.917.491c-.453-11.019-2.141-14.9-2.222-15.077a.693.693,0,0,0-.631-.407H6.69a.692.692,0,0,0-.63.407c-.089.2-2.161,4.959-2.323,18.988H3.071a.692.692,0,1,0,0,1.383h.653v20.519H0v1.383H83ZM5.108,87.14h6.877V95.2H5.108Zm2-1.383c.072-5.129.67-7.484.945-8.3h.986c.278.827.874,3.183.946,8.3Zm10.448-3.935v-1h47.89v1H17.555ZM25.4,73.553v-.8c.005-7.7,1.051-10.95,1.447-11.9h1.915c.4.962,1.442,4.209,1.448,11.9v1.4a5.134,5.134,0,0,0-1.432-.7l-.058-.016c-.065-.019-.131-.036-.2-.053-.037-.01-.074-.021-.112-.03s-.082-.02-.123-.028-.081-.012-.121-.02q-.132-.024-.265-.042c-.043-.006-.085-.014-.128-.018l-.066,0c-.156-.015-.313-.024-.471-.024s-.336.009-.5.025l-.04,0c-.037,0-.072.012-.109.017l-.013,0c-.11.014-.221.029-.33.05l-.08.016c-.03.006-.058.016-.088.023l-.015,0c-.1.023-.2.047-.3.076l-.119.037-.056.02-.012,0c-.06.02-.12.037-.179.059m16.739-8.525-.042,0c-.2-.011-.395-.018-.594-.018s-.4.007-.594.018l-.041,0a10.439,10.439,0,0,0-1.763.259c.085-7.033,1.061-10.054,1.441-10.968h1.915c.383.922,1.357,3.944,1.442,10.968a10.439,10.439,0,0,0-1.763-.259m-9.722,9.955c0-.069.01-.138.016-.207.007-.1.015-.192.026-.288s.021-.172.033-.258.021-.149.034-.223c.016-.1.032-.19.051-.284.012-.062.026-.123.04-.185.022-.1.044-.2.07-.3.012-.047.026-.094.039-.14.05-.185.107-.368.169-.548.024-.068.046-.137.071-.2s.059-.15.089-.225.067-.167.1-.25.061-.136.092-.2c.041-.088.084-.176.128-.263a9.133,9.133,0,0,1,1.367-2,10.433,10.433,0,0,1,2.076-1.674l0,0a9.4,9.4,0,0,1,1.822-.858q.333-.114.67-.2l.058-.014q.321-.081.646-.136l.063-.011q.338-.056.678-.085l.025,0a8.729,8.729,0,0,1,1.439,0l.023,0q.341.029.68.085l.061.011q.326.056.648.137l.057.014q.337.087.668.2a9.376,9.376,0,0,1,1.824.858l0,0A10.458,10.458,0,0,1,48.258,69.4a9.137,9.137,0,0,1,1.368,2c.044.087.087.175.128.263.031.067.062.135.092.2s.07.166.1.249.061.15.089.226.047.135.07.2c.062.181.119.364.169.55.013.047.027.093.039.14.025.1.047.2.07.3.013.062.027.123.04.185.019.094.035.189.051.285q.018.111.033.223c.012.086.024.172.033.259s.018.191.026.287c.005.069.012.138.016.207.009.169.015.338.015.508v.1a3.456,3.456,0,0,0-4.666.44,4.9,4.9,0,0,0-8.87,0,3.456,3.456,0,0,0-4.666-.44v-.1c0-.17.006-.34.015-.508m27.133,3.4v1.06H51.984V78.38c0-.128.007-.254.019-.379h0c0-.043.013-.084.019-.126.011-.083.021-.166.038-.248,0-.023.012-.045.017-.069.023-.1.047-.2.077-.3l0-.009a3.765,3.765,0,0,1,.533-1.062c.074-.1.153-.2.236-.3l.069-.076c.077-.083.157-.161.24-.237l.069-.063a3.791,3.791,0,0,1,.708-.483l.041-.02q.167-.085.342-.154l.091-.033c.1-.037.207-.069.313-.1l.109-.028c.105-.025.212-.043.319-.059.029,0,.058-.01.087-.013l.023,0a3.727,3.727,0,0,1,.427-.026c.117,0,.233.007.347.017l.089.01c.093.011.184.024.274.042l.066.013a3.8,3.8,0,0,1,3,3.657s0,.006,0,.009,0,.022,0,.034m-13.132,1.06V78.355a2.093,2.093,0,0,1,4.186,0v1.086Zm-8.447,0V78.13a3.532,3.532,0,0,1,7.063,0v1.311Zm-5.569,0V78.355a2.093,2.093,0,0,1,4.186,0v1.086Zm25.2-5.888c-.059-.022-.119-.039-.179-.059l-.012,0-.056-.02-.119-.037c-.1-.029-.2-.053-.3-.076l-.015,0c-.03-.007-.058-.016-.088-.023l-.08-.016c-.109-.021-.219-.036-.33-.05l-.013,0c-.037,0-.072-.013-.109-.017l-.04,0c-.166-.016-.334-.025-.5-.025s-.315.009-.471.024l-.066,0c-.043,0-.085.013-.128.018q-.133.017-.265.042c-.04.007-.081.011-.121.02s-.081.019-.122.028-.077.021-.116.031c-.064.016-.128.033-.192.051l-.06.016a5.135,5.135,0,0,0-1.432.7v-1.4c.006-7.7,1.051-10.95,1.447-11.9h1.915c.4.962,1.442,4.209,1.448,11.9ZM23.454,78.52v-.14c0-.013,0-.026,0-.039v0a3.8,3.8,0,0,1,3-3.657l.065-.012c.09-.018.182-.031.275-.042l.089-.01c.114-.01.23-.017.347-.017a3.727,3.727,0,0,1,.427.026l.023,0,.088.013c.107.016.214.034.319.059l.109.028q.159.042.313.1l.091.033q.175.068.342.153l.041.02a3.8,3.8,0,0,1,.707.482c.025.022.049.045.074.067q.121.109.233.23l.076.084q.117.134.222.279a3.763,3.763,0,0,1,.544,1.076l0,.007c.03.1.055.2.077.3.005.023.012.045.017.068.016.081.027.164.038.248.006.042.014.083.019.126h0c.012.125.019.251.019.379v1.06H23.454ZM77.893,95.2H71.016V87.14h6.877Zm-4.877-9.448c.072-5.129.67-7.484.946-8.3h.986c.278.827.875,3.183.946,8.3ZM18.373,95.2V86.738l.707-.7.6.16a.693.693,0,0,0,.671-.181l.674-.681.675.681a.692.692,0,0,0,.671.181l.6-.16.707.7V95.2ZM13.368,87.14h3.622V95.2H13.368ZM31.016,83.2v1.7l-.162-.145a.687.687,0,0,0-.626-.156l-.717.175-1.01-.926a.691.691,0,0,0-.935,0l-1.01.926L25.84,84.6a.688.688,0,0,0-.626.156l-.162.145V83.2Zm5.6,0v1.908l-1.709-1.207a.692.692,0,0,0-.8,0L32.4,85.112V83.2ZM45,83.2v1.822l-.383-.3a.693.693,0,0,0-.571-.132l-.907.194-1.207-.97a.692.692,0,0,0-.867,0l-1.207.97-.906-.194a.692.692,0,0,0-.571.132l-.383.3V83.2Zm5.6,0v1.908l-1.709-1.207a.692.692,0,0,0-.8,0l-1.709,1.207V83.2Zm7.347,0v1.7l-.162-.145a.687.687,0,0,0-.626-.156l-.717.175-1.01-.926a.692.692,0,0,0-.935,0l-1.009.926-.717-.175a.689.689,0,0,0-.625.156l-.162.145V83.2Zm8.063,3.935h3.622V95.2H66.011ZM64.627,95.2h-5.3V86.737l.707-.7.6.16a.693.693,0,0,0,.671-.181l.675-.681.674.681a.692.692,0,0,0,.671.181l.6-.16.707.7ZM46.385,98.577H50.6v1.059H46.385Zm-8.387,0h7v1.059H38Zm-5.6,0h4.216v1.059H32.4Zm-3.53,0h2.147v1.059H28.869ZM32.4,86.807l2.108-1.489,2.108,1.489V97.194H32.4ZM50.6,97.194H46.385V86.807l2.108-1.489L50.6,86.807Zm-5.6,0H38V86.785l.982-.769.911.2a.694.694,0,0,0,.578-.137l1.03-.828,1.031.828a.7.7,0,0,0,.578.137l.911-.2.981.769Zm6.982,1.383h2.147v1.059H51.984ZM54.823,95.2a.692.692,0,0,0-.692.692v1.3H51.984V86.757l.813-.727.722.176a.689.689,0,0,0,.632-.162l.814-.747.815.747a.689.689,0,0,0,.631.162l.722-.176.813.727V95.2ZM25.052,86.757l.813-.727.722.176a.689.689,0,0,0,.631-.162l.815-.747.815.747a.688.688,0,0,0,.631.162l.722-.176.813.727V97.194H28.869V95.9a.692.692,0,0,0-.692-.692H25.052Zm3.817,14.262H54.131v1.291H28.869Zm26.646-4.432H77.893v3.049H55.515ZM64.627,84.8l-.019-.019a.694.694,0,0,0-.665-.175l-.59.159-.883-.891a.712.712,0,0,0-.983,0l-.883.891-.59-.159a.7.7,0,0,0-.665.175l-.019.018V83.2h5.3V84.8ZM18.373,83.2h5.3V84.8l-.019-.019a.694.694,0,0,0-.665-.175l-.59.159-.883-.891a.712.712,0,0,0-.983,0l-.883.891-.59-.159a.7.7,0,0,0-.665.175l-.019.019V83.2ZM5.108,96.587H27.486v3.049H5.108Zm23.761,7.106H54.131v1.291H28.869Zm26.646-2.674H77.893v6.639H55.515ZM73.078,67.744H75.83c.476,1.4,1.918,6.571,2.051,18.012h-.6c-.095-7.027-1.135-9.11-1.256-9.331a.692.692,0,0,0-.605-.357H73.493a.692.692,0,0,0-.605.357c-.122.22-1.161,2.3-1.256,9.331h-.6c.133-11.444,1.576-16.612,2.051-18.012M69.633,84.389v1.367H66.011V84.389a1.811,1.811,0,0,1,3.622,0m-6.445-8.126a2.26,2.26,0,0,1,2.258,2.258v.921H60.93V78.52a2.26,2.26,0,0,1,2.257-2.258M53.415,48.6h3.567c.574,1.679,2.562,8.682,2.564,25.07v1.2a5.216,5.216,0,0,0-.56-.524v-1.6c-.007-10.012-1.739-12.85-1.813-12.965a.692.692,0,0,0-.584-.32H53.807a.692.692,0,0,0-.584.32c-.072.113-1.728,2.83-1.809,12.3-.033-.1-.067-.193-.1-.288-.017-.047-.037-.093-.055-.14-.043-.109-.086-.217-.132-.324-.031-.073-.065-.145-.1-.217s-.073-.159-.112-.237c-.014-.029-.027-.058-.041-.087.215-14.279,2.005-20.606,2.542-22.194M47.171,62.339a18.977,18.977,0,0,1,.94,5.023,10.523,10.523,0,0,0-.88-.643c0-.128,0-.253,0-.38q0-.784-.012-1.539c0-.177,0-.353-.007-.53-.01-.646-.022-1.279-.037-1.893,0-.012,0-.025,0-.037m-7.454-20.27h3.566c.472,1.392,1.9,6.42,2.4,17.258.023.517.044,1.043.062,1.574.005.154.011.31.016.467.017.536.033,1.076.045,1.623,0,.036,0,.072,0,.108.013.6.022,1.208.03,1.821,0,.136,0,.275,0,.413,0,.205,0,.413,0,.62q-.274-.126-.557-.236c-.064-9.6-1.738-12.346-1.81-12.46a.692.692,0,0,0-.584-.321H40.109a.692.692,0,0,0-.584.321c-.072.114-1.746,2.862-1.81,12.46q-.283.11-.557.236c0-.206,0-.415,0-.62,0-.138,0-.276,0-.413.007-.612.016-1.22.029-1.82,0-.039,0-.076,0-.115.012-.545.027-1.083.045-1.616.005-.158.01-.315.016-.471.019-.529.039-1.054.062-1.57.493-10.841,1.926-15.869,2.4-17.259M35.828,62.379c-.016.613-.028,1.245-.037,1.89q0,.265-.007.531-.009.755-.012,1.539c0,.128,0,.252,0,.381a10.55,10.55,0,0,0-.88.643,18.975,18.975,0,0,1,.94-5.023c0,.013,0,.027,0,.04M26.019,48.6h3.565c.538,1.59,2.327,7.917,2.542,22.194-.014.029-.027.058-.041.087-.039.079-.075.158-.112.237s-.067.144-.1.217c-.046.107-.089.215-.132.323-.019.047-.038.094-.056.141-.036.095-.069.191-.1.287-.082-9.469-1.737-12.186-1.809-12.3a.692.692,0,0,0-.584-.32H26.41a.692.692,0,0,0-.584.32c-.073.116-1.806,2.953-1.813,12.966v1.6a5.216,5.216,0,0,0-.56.524v-1.2c0-16.321,1.993-23.378,2.566-25.07M17.555,78.52a2.258,2.258,0,0,1,4.515,0v.921H17.555Zm-4.187,5.869a1.811,1.811,0,1,1,3.622,0v1.367H13.368ZM7.17,67.744H9.922c.476,1.4,1.918,6.571,2.051,18.012h-.6c-.094-7.027-1.134-9.11-1.256-9.331a.691.691,0,0,0-.605-.357H7.585a.692.692,0,0,0-.605.357c-.122.22-1.161,2.3-1.256,9.331h-.6C5.252,74.312,6.695,69.144,7.17,67.744M5.108,101.019H27.486v6.64H5.108Zm23.761,5.349H54.131v1.291H28.869Z" transform="translate(0 -33.651)" fill="#787878" stroke="#dcdcdc" stroke-width="0.5"/>
      <path id="Path_2929" data-name="Path 2929" d="M224.407,29h4.249a.692.692,0,0,0,0-1.383h-4.249a.692.692,0,0,0,0,1.383" transform="translate(-185.031 -22.845)" fill="#787878" stroke="#dcdcdc" stroke-width="0.5"/>
      <path id="Path_2930" data-name="Path 2930" d="M229.018,4.016h2.654a.692.692,0,1,0,0-1.383h-.636V.692a.692.692,0,1,0-1.383,0V2.633h-.635a.692.692,0,0,0,0,1.383" transform="translate(-188.845)" fill="#787878" stroke="#dcdcdc" stroke-width="0.5"/>
      <path id="Path_2931" data-name="Path 2931" d="M229.84,100.793h2.369a.692.692,0,1,0,0-1.383H229.84a.692.692,0,0,0,0,1.383" transform="translate(-189.524 -82.22)" fill="#787878" stroke="#dcdcdc" stroke-width="0.5"/>
      <path id="Path_2932" data-name="Path 2932" d="M232.788,88.674h1.35a.692.692,0,0,0,0-1.383h-1.35a.692.692,0,1,0,0,1.383" transform="translate(-191.963 -72.197)" fill="#787878" stroke="#dcdcdc" stroke-width="0.5"/>
      <path id="Path_2933" data-name="Path 2933" d="M229.84,168.992a.692.692,0,0,0,0,1.383h2.369a.692.692,0,1,0,0-1.383Z" transform="translate(-189.524 -139.77)" fill="#787878" stroke="#dcdcdc" stroke-width="0.5"/>
      <path id="Path_2934" data-name="Path 2934" d="M232.788,156.873a.692.692,0,0,0,0,1.383h1.35a.692.692,0,0,0,0-1.383Z" transform="translate(-191.963 -129.747)" fill="#787878" stroke="#dcdcdc" stroke-width="0.5"/>
      <path id="Path_2935" data-name="Path 2935" d="M232.788,218.285h1.35a.692.692,0,0,0,0-1.383h-1.35a.692.692,0,1,0,0,1.383" transform="translate(-191.963 -179.396)" fill="#787878" stroke="#dcdcdc" stroke-width="0.5"/>
      <path id="Path_2936" data-name="Path 2936" d="M150.29,218.285h1.35a.692.692,0,1,0,0-1.383h-1.35a.692.692,0,1,0,0,1.383" transform="translate(-123.73 -179.396)" fill="#787878" stroke="#dcdcdc" stroke-width="0.5"/>
      <path id="Path_2937" data-name="Path 2937" d="M314.594,217.594a.692.692,0,0,0,.692.692h1.351a.692.692,0,1,0,0-1.383h-1.351a.692.692,0,0,0-.692.692" transform="translate(-260.195 -179.396)" fill="#787878" stroke="#dcdcdc" stroke-width="0.5"/>
      <path id="Path_2938" data-name="Path 2938" d="M303.626,66.78h4.248a.692.692,0,0,0,0-1.383h-4.248a.692.692,0,0,0,0,1.383" transform="translate(-250.552 -54.089)" fill="#787878" stroke="#dcdcdc" stroke-width="0.5"/>
      <path id="Path_2939" data-name="Path 2939" d="M308.235,44.2h2.655a.692.692,0,1,0,0-1.383h-.625V41.378a.692.692,0,1,0-1.383,0v1.438h-.646a.692.692,0,1,0,0,1.383" transform="translate(-254.364 -33.651)" fill="#787878" stroke="#dcdcdc" stroke-width="0.5"/>
      <path id="Path_2940" data-name="Path 2940" d="M309.059,138.569h2.369a.692.692,0,0,0,0-1.383h-2.369a.692.692,0,1,0,0,1.383" transform="translate(-255.045 -113.464)" fill="#787878" stroke="#dcdcdc" stroke-width="0.5"/>
      <path id="Path_2941" data-name="Path 2941" d="M312.006,126.449h1.35a.692.692,0,0,0,0-1.383h-1.35a.692.692,0,0,0,0,1.383" transform="translate(-257.483 -103.44)" fill="#787878" stroke="#dcdcdc" stroke-width="0.5"/>
      <path id="Path_2942" data-name="Path 2942" d="M417.2,180.2h3.481a.692.692,0,1,0,0-1.383H417.2a.692.692,0,0,0,0,1.383" transform="translate(-344.49 -147.896)" fill="#787878" stroke="#dcdcdc" stroke-width="0.5"/>
      <path id="Path_2943" data-name="Path 2943" d="M420.981,160.19h2.175a.692.692,0,0,0,0-1.383h-.4v-1.438a.692.692,0,1,0-1.383,0v1.438h-.4a.692.692,0,0,0,0,1.383" transform="translate(-347.614 -129.585)" fill="#787878" stroke="#dcdcdc" stroke-width="0.5"/>
      <path id="Path_2944" data-name="Path 2944" d="M422.54,237.088h1.636a.692.692,0,1,0,0-1.383H422.54a.692.692,0,1,0,0,1.383" transform="translate(-348.903 -194.948)" fill="#787878" stroke="#dcdcdc" stroke-width="0.5"/>
      <path id="Path_2945" data-name="Path 2945" d="M424.575,227.485h.933a.692.692,0,0,0,0-1.383h-.933a.692.692,0,0,0,0,1.383" transform="translate(-350.587 -187.005)" fill="#787878" stroke="#dcdcdc" stroke-width="0.5"/>
      <path id="Path_2946" data-name="Path 2946" d="M145.188,66.78h4.249a.692.692,0,1,0,0-1.383h-4.249a.692.692,0,0,0,0,1.383" transform="translate(-119.51 -54.089)" fill="#787878" stroke="#dcdcdc" stroke-width="0.5"/>
      <path id="Path_2947" data-name="Path 2947" d="M149.8,44.2h2.654a.692.692,0,1,0,0-1.383h-.636V41.378a.692.692,0,1,0-1.383,0v1.438H149.8a.692.692,0,0,0,0,1.383" transform="translate(-123.324 -33.651)" fill="#787878" stroke="#dcdcdc" stroke-width="0.5"/>
      <path id="Path_2948" data-name="Path 2948" d="M150.622,138.569h2.37a.692.692,0,1,0,0-1.383h-2.37a.692.692,0,1,0,0,1.383" transform="translate(-124.005 -113.464)" fill="#787878" stroke="#dcdcdc" stroke-width="0.5"/>
      <path id="Path_2949" data-name="Path 2949" d="M153.569,126.449h1.35a.692.692,0,0,0,0-1.383h-1.35a.692.692,0,0,0,0,1.383" transform="translate(-126.442 -103.44)" fill="#787878" stroke="#dcdcdc" stroke-width="0.5"/>
      <path id="Path_2950" data-name="Path 2950" d="M36.047,180.2h3.481a.692.692,0,0,0,0-1.383H36.047a.692.692,0,0,0,0,1.383" transform="translate(-29.242 -147.896)" fill="#787878" stroke="#dcdcdc" stroke-width="0.5"/>
      <path id="Path_2951" data-name="Path 2951" d="M39.825,160.19H42a.692.692,0,0,0,0-1.383h-.4v-1.438a.692.692,0,1,0-1.383,0v1.438h-.4a.692.692,0,0,0,0,1.383" transform="translate(-32.366 -129.585)" fill="#787878" stroke="#dcdcdc" stroke-width="0.5"/>
      <path id="Path_2952" data-name="Path 2952" d="M41.381,237.088h1.637a.692.692,0,1,0,0-1.383H41.381a.692.692,0,1,0,0,1.383" transform="translate(-33.653 -194.948)" fill="#787878" stroke="#dcdcdc" stroke-width="0.5"/>
      <path id="Path_2953" data-name="Path 2953" d="M43.419,227.485h.932a.692.692,0,0,0,0-1.383h-.932a.692.692,0,0,0,0,1.383" transform="translate(-35.339 -187.005)" fill="#787878" stroke="#dcdcdc" stroke-width="0.5"/>
      <path id="Path_2954" data-name="Path 2954" d="M420.12,324.719h2.473a.692.692,0,0,0,.692-.692v-2.81a.692.692,0,0,0-.692-.692H420.12a.692.692,0,0,0-.692.692v2.81a.692.692,0,0,0,.692.692m.692-2.81h1.09v1.427h-1.09Z" transform="translate(-346.902 -265.101)" fill="#787878" stroke="#dcdcdc" stroke-width="0.5"/>
      <path id="Path_2955" data-name="Path 2955" d="M41.436,320.525H38.963a.692.692,0,0,0-.692.692v2.81a.692.692,0,0,0,.692.692h2.473a.692.692,0,0,0,.692-.692v-2.81a.692.692,0,0,0-.692-.692m-.692,2.81h-1.09v-1.427h1.09Z" transform="translate(-31.653 -265.101)" fill="#787878" stroke="#dcdcdc" stroke-width="0.5"/>
      <path id="Path_2956" data-name="Path 2956" d="M35.43,369.22a.53.53,0,0,0-.066-.121.492.492,0,0,0-.086-.1.69.69,0,0,0-.622-.19.773.773,0,0,0-.128.038.673.673,0,0,0-.121.066.5.5,0,0,0-.1.086.5.5,0,0,0-.086.1.683.683,0,0,0-.066.121.782.782,0,0,0-.038.128.606.606,0,0,0-.014.135.7.7,0,0,0,.692.692.568.568,0,0,0,.135-.014.608.608,0,0,0,.131-.038.68.68,0,0,0,.118-.066.5.5,0,0,0,.1-.086.68.68,0,0,0,.2-.488.6.6,0,0,0-.014-.135.765.765,0,0,0-.038-.128" transform="translate(-28.202 -305.022)" fill="#787878" stroke="#dcdcdc" stroke-width="0.5"/>
      <path id="Path_2957" data-name="Path 2957" d="M49.466,369.214a.694.694,0,0,0-.062-.121.651.651,0,0,0-.086-.1.682.682,0,0,0-.623-.19.559.559,0,0,0-.131.038.781.781,0,0,0-.117.066.5.5,0,0,0-.1.086.508.508,0,0,0-.086.1.529.529,0,0,0-.066.121.545.545,0,0,0-.038.128.6.6,0,0,0-.014.135.674.674,0,0,0,.2.488.5.5,0,0,0,.1.086.563.563,0,0,0,.117.066.582.582,0,0,0,.128.038.615.615,0,0,0,.138.014.687.687,0,0,0,.488-.2.675.675,0,0,0,.2-.488.915.915,0,0,0-.014-.135.791.791,0,0,0-.042-.128" transform="translate(-39.814 -305.016)" fill="#787878" stroke="#dcdcdc" stroke-width="0.5"/>
      <path id="Path_2958" data-name="Path 2958" d="M63.505,369.221a.671.671,0,0,0-.062-.121.651.651,0,0,0-.086-.1.5.5,0,0,0-.1-.086.594.594,0,0,0-.121-.066.524.524,0,0,0-.128-.038.709.709,0,0,0-.27,0,.6.6,0,0,0-.249.1.521.521,0,0,0-.108.086.907.907,0,0,0-.086.1.671.671,0,0,0-.062.121.554.554,0,0,0-.038.128.6.6,0,0,0-.014.135.864.864,0,0,0,.011.135.825.825,0,0,0,.042.131.764.764,0,0,0,.062.118.651.651,0,0,0,.086.1.694.694,0,0,0,.491.2.59.59,0,0,0,.135-.014.524.524,0,0,0,.128-.038.492.492,0,0,0,.118-.066.527.527,0,0,0,.107-.086.675.675,0,0,0,.2-.488.87.87,0,0,0-.014-.135.729.729,0,0,0-.042-.128" transform="translate(-51.426 -305.023)" fill="#787878" stroke="#dcdcdc" stroke-width="0.5"/>
      <path id="Path_2959" data-name="Path 2959" d="M77.276,368.908a.8.8,0,0,0-.121-.066.892.892,0,0,0-.128-.038.708.708,0,0,0-.626.187.82.82,0,0,0-.086.107.69.69,0,0,0-.062.121.79.79,0,0,0-.042.128.914.914,0,0,0-.014.135.681.681,0,0,0,.2.488.7.7,0,0,0,.225.152.687.687,0,0,0,.266.052.585.585,0,0,0,.135-.014.531.531,0,0,0,.128-.038.483.483,0,0,0,.117-.066.529.529,0,0,0,.108-.086.651.651,0,0,0,.086-.1.8.8,0,0,0,.062-.118.822.822,0,0,0,.041-.131.914.914,0,0,0,.014-.135.71.71,0,0,0-.2-.491.835.835,0,0,0-.1-.083" transform="translate(-63.021 -305.021)" fill="#787878" stroke="#dcdcdc" stroke-width="0.5"/>
      <path id="Path_2960" data-name="Path 2960" d="M91.569,369.221a.683.683,0,0,0-.062-.121.907.907,0,0,0-.086-.1.643.643,0,0,0-.107-.086.565.565,0,0,0-.118-.066.551.551,0,0,0-.131-.038.708.708,0,0,0-.27,0,.579.579,0,0,0-.128.038.594.594,0,0,0-.121.066.513.513,0,0,0-.1.086.651.651,0,0,0-.086.1.671.671,0,0,0-.062.121.79.79,0,0,0-.042.128.87.87,0,0,0-.014.135.682.682,0,0,0,.052.266.652.652,0,0,0,.152.221.52.52,0,0,0,.108.086.483.483,0,0,0,.117.066.526.526,0,0,0,.128.038.586.586,0,0,0,.135.014.685.685,0,0,0,.266-.052.7.7,0,0,0,.225-.152.641.641,0,0,0,.149-.221.705.705,0,0,0,.055-.266.87.87,0,0,0-.014-.135.743.743,0,0,0-.041-.128" transform="translate(-74.634 -305.023)" fill="#787878" stroke="#dcdcdc" stroke-width="0.5"/>
      <path id="Path_2961" data-name="Path 2961" d="M105.609,369.221a.524.524,0,0,0-.066-.121.6.6,0,0,0-.083-.1.651.651,0,0,0-.107-.086.791.791,0,0,0-.118-.066.8.8,0,0,0-.131-.038.709.709,0,0,0-.27,0,.77.77,0,0,0-.128.038.807.807,0,0,0-.121.066.5.5,0,0,0-.1.086.487.487,0,0,0-.086.1.673.673,0,0,0-.062.121.809.809,0,0,0-.041.128.914.914,0,0,0-.014.135.868.868,0,0,0,.014.135.836.836,0,0,0,.038.131.566.566,0,0,0,.066.118.487.487,0,0,0,.086.1.68.68,0,0,0,.487.2.615.615,0,0,0,.139-.014.579.579,0,0,0,.128-.038.567.567,0,0,0,.118-.066.649.649,0,0,0,.107-.086.89.89,0,0,0,.086-.1.814.814,0,0,0,.062-.118.77.77,0,0,0,.052-.266.6.6,0,0,0-.014-.135.782.782,0,0,0-.038-.128" transform="translate(-86.246 -305.023)" fill="#787878" stroke="#dcdcdc" stroke-width="0.5"/>
      <path id="Path_2962" data-name="Path 2962" d="M119.649,369.217a.572.572,0,0,0-.066-.118.749.749,0,0,0-.19-.19.756.756,0,0,0-.118-.066.916.916,0,0,0-.131-.038.714.714,0,0,0-.27,0,.752.752,0,0,0-.128.038.657.657,0,0,0-.121.066.507.507,0,0,0-.1.086.513.513,0,0,0-.086.1.571.571,0,0,0-.065.118.619.619,0,0,0-.038.131.594.594,0,0,0-.014.135.7.7,0,0,0,.052.266.686.686,0,0,0,.152.221.685.685,0,0,0,.225.152.476.476,0,0,0,.128.038.664.664,0,0,0,.27,0,.48.48,0,0,0,.128-.038.572.572,0,0,0,.121-.066.5.5,0,0,0,.1-.086.684.684,0,0,0,.152-.221.7.7,0,0,0,.052-.266.584.584,0,0,0-.014-.135.628.628,0,0,0-.038-.131" transform="translate(-97.859 -305.022)" fill="#787878" stroke="#dcdcdc" stroke-width="0.5"/>
      <path id="Path_2963" data-name="Path 2963" d="M133.685,369.221a.7.7,0,0,0-.062-.121.633.633,0,0,0-.086-.1.5.5,0,0,0-.1-.086.825.825,0,0,0-.121-.066.767.767,0,0,0-.128-.038.709.709,0,0,0-.27,0,.808.808,0,0,0-.131.038.764.764,0,0,0-.117.066.637.637,0,0,0-.107.086.874.874,0,0,0-.086.1.683.683,0,0,0-.062.121.563.563,0,0,0-.038.128.664.664,0,0,0,0,.27.589.589,0,0,0,.038.131.78.78,0,0,0,.062.118.633.633,0,0,0,.086.1.884.884,0,0,0,.107.09.731.731,0,0,0,.117.062.58.58,0,0,0,.128.038.612.612,0,0,0,.138.014.587.587,0,0,0,.135-.014.531.531,0,0,0,.128-.038.789.789,0,0,0,.121-.062.646.646,0,0,0,.1-.09.675.675,0,0,0,.2-.488.869.869,0,0,0-.014-.135.756.756,0,0,0-.041-.128" transform="translate(-109.47 -305.023)" fill="#787878" stroke="#dcdcdc" stroke-width="0.5"/>
      <path id="Path_2964" data-name="Path 2964" d="M147.726,369.216a.809.809,0,0,0-.062-.118.649.649,0,0,0-.086-.1.5.5,0,0,0-.1-.086.8.8,0,0,0-.121-.066.768.768,0,0,0-.128-.038.7.7,0,0,0-.626.19.905.905,0,0,0-.086.1.81.81,0,0,0-.062.118.628.628,0,0,0-.038.131.594.594,0,0,0-.014.135.7.7,0,0,0,.052.266.641.641,0,0,0,.149.221.7.7,0,0,0,.225.152.7.7,0,0,0,.958-.64.912.912,0,0,0-.014-.135.963.963,0,0,0-.042-.131" transform="translate(-121.083 -305.021)" fill="#787878" stroke="#dcdcdc" stroke-width="0.5"/>
      <path id="Path_2965" data-name="Path 2965" d="M326.947,369.216a.811.811,0,0,0-.062-.118.613.613,0,0,0-.086-.1.692.692,0,0,0-.622-.19.807.807,0,0,0-.131.038.753.753,0,0,0-.117.066.524.524,0,0,0-.108.086.692.692,0,0,0-.2.488.7.7,0,0,0,.052.266.645.645,0,0,0,.149.221.518.518,0,0,0,.108.086.547.547,0,0,0,.117.066.572.572,0,0,0,.128.038.594.594,0,0,0,.138.014.686.686,0,0,0,.487-.2.639.639,0,0,0,.149-.221.691.691,0,0,0,.052-.266.906.906,0,0,0-.01-.135.822.822,0,0,0-.041-.131" transform="translate(-269.314 -305.021)" fill="#787878" stroke="#dcdcdc" stroke-width="0.5"/>
      <path id="Path_2966" data-name="Path 2966" d="M340.97,369.262a.669.669,0,0,0-.062-.121.907.907,0,0,0-.086-.1.713.713,0,0,0-.979,0,.651.651,0,0,0-.086.1.673.673,0,0,0-.062.121.745.745,0,0,0-.042.128.871.871,0,0,0-.014.135.829.829,0,0,0,.014.135.777.777,0,0,0,.042.131.639.639,0,0,0,.149.221.692.692,0,0,0,.754.152.7.7,0,0,0,.225-.152.691.691,0,0,0,.2-.488.6.6,0,0,0-.014-.135.555.555,0,0,0-.038-.128" transform="translate(-280.91 -305.063)" fill="#787878" stroke="#dcdcdc" stroke-width="0.5"/>
      <path id="Path_2967" data-name="Path 2967" d="M355.01,369.221a.53.53,0,0,0-.066-.121.509.509,0,0,0-.086-.1.5.5,0,0,0-.1-.086.779.779,0,0,0-.117-.066.8.8,0,0,0-.131-.038.709.709,0,0,0-.27,0,.767.767,0,0,0-.128.038.807.807,0,0,0-.121.066.51.51,0,0,0-.1.086.7.7,0,0,0-.2.488.692.692,0,0,0,1.383,0,.6.6,0,0,0-.014-.135.538.538,0,0,0-.038-.128" transform="translate(-292.521 -305.023)" fill="#787878" stroke="#dcdcdc" stroke-width="0.5"/>
      <path id="Path_2968" data-name="Path 2968" d="M369.05,369.21a.812.812,0,0,0-.066-.118.64.64,0,0,0-.086-.1.508.508,0,0,0-.1-.086.78.78,0,0,0-.121-.066.522.522,0,0,0-.128-.038.681.681,0,0,0-.622.19.65.65,0,0,0-.086.1.813.813,0,0,0-.066.118.9.9,0,0,0-.038.131.586.586,0,0,0-.014.135.68.68,0,0,0,.2.488.661.661,0,0,0,.225.152.683.683,0,0,0,.263.052.7.7,0,0,0,.692-.692.616.616,0,0,0-.014-.135.971.971,0,0,0-.038-.131" transform="translate(-304.134 -305.015)" fill="#787878" stroke="#dcdcdc" stroke-width="0.5"/>
      <path id="Path_2969" data-name="Path 2969" d="M383.085,369.21a.555.555,0,0,0-.062-.118.508.508,0,0,0-.086-.1.681.681,0,0,0-.622-.19.6.6,0,0,0-.249.1.636.636,0,0,0-.108.086.905.905,0,0,0-.086.1.775.775,0,0,0-.062.118.639.639,0,0,0-.038.131.594.594,0,0,0-.014.135.754.754,0,0,0,.052.266.774.774,0,0,0,.062.118.889.889,0,0,0,.086.1.688.688,0,0,0,.491.2.68.68,0,0,0,.488-.2.5.5,0,0,0,.086-.1.578.578,0,0,0,.066-.118.778.778,0,0,0,.038-.131.828.828,0,0,0,.014-.135.672.672,0,0,0-.055-.266" transform="translate(-315.745 -305.015)" fill="#787878" stroke="#dcdcdc" stroke-width="0.5"/>
      <path id="Path_2970" data-name="Path 2970" d="M396,369.029a.7.7,0,0,0-.149.757.677.677,0,0,0,.149.221.689.689,0,0,0,.979,0,.6.6,0,0,0,.149-.221.694.694,0,0,0,.055-.266.71.71,0,0,0-.2-.491.72.72,0,0,0-.979,0" transform="translate(-327.359 -305.059)" fill="#787878" stroke="#dcdcdc" stroke-width="0.5"/>
      <path id="Path_2971" data-name="Path 2971" d="M410.392,368.8a.874.874,0,0,0-.128.038.79.79,0,0,0-.121.066.5.5,0,0,0-.1.086.691.691,0,0,0-.2.488.86.86,0,0,0,.01.135.841.841,0,0,0,.042.131.745.745,0,0,0,.062.118.64.64,0,0,0,.086.1.7.7,0,0,0,.225.152.692.692,0,0,0,.754-.152.633.633,0,0,0,.086-.1.761.761,0,0,0,.062-.118.822.822,0,0,0,.042-.131.863.863,0,0,0,.01-.135.69.69,0,0,0-.826-.678" transform="translate(-338.97 -305.021)" fill="#787878" stroke="#dcdcdc" stroke-width="0.5"/>
      <path id="Path_2972" data-name="Path 2972" d="M425.189,369.21a.8.8,0,0,0-.063-.118.838.838,0,0,0-.086-.1.687.687,0,0,0-.626-.19.573.573,0,0,0-.128.038.776.776,0,0,0-.121.066.494.494,0,0,0-.1.086.613.613,0,0,0-.086.1.777.777,0,0,0-.062.118.96.96,0,0,0-.041.131.893.893,0,0,0-.014.135.7.7,0,0,0,.2.488.7.7,0,0,0,.225.152.683.683,0,0,0,.263.052.6.6,0,0,0,.138-.014.571.571,0,0,0,.128-.038.552.552,0,0,0,.118-.066.616.616,0,0,0,.107-.086.641.641,0,0,0,.149-.221.694.694,0,0,0,.052-.266.594.594,0,0,0-.014-.135.627.627,0,0,0-.038-.131" transform="translate(-350.565 -305.015)" fill="#787878" stroke="#dcdcdc" stroke-width="0.5"/>
      <path id="Path_2973" data-name="Path 2973" d="M439.229,369.217a.581.581,0,0,0-.066-.118.508.508,0,0,0-.086-.1.5.5,0,0,0-.1-.086.763.763,0,0,0-.118-.066.8.8,0,0,0-.132-.038.714.714,0,0,0-.27,0,.759.759,0,0,0-.128.038.8.8,0,0,0-.121.066.749.749,0,0,0-.19.19.828.828,0,0,0-.066.118.626.626,0,0,0-.038.131.584.584,0,0,0-.014.135.764.764,0,0,0,.052.266.578.578,0,0,0,.066.118.749.749,0,0,0,.19.19.577.577,0,0,0,.121.066.479.479,0,0,0,.128.038.586.586,0,0,0,.135.014.7.7,0,0,0,.266-.052.653.653,0,0,0,.221-.152.674.674,0,0,0,.2-.488.594.594,0,0,0-.014-.135.984.984,0,0,0-.038-.131" transform="translate(-362.178 -305.022)" fill="#787878" stroke="#dcdcdc" stroke-width="0.5"/>
    </g>
  </g>
</svg>
