<svg xmlns="http://www.w3.org/2000/svg" xmlns:xlink="http://www.w3.org/1999/xlink" width="55.33" height="55.32" viewBox="0 0 55.33 55.32">
  <defs>
    <clipPath id="clip-path">
      <rect id="Rectangle_2330" data-name="Rectangle 2330" width="55.333" height="55.317"/>
    </clipPath>
    <clipPath id="clip-Design_White_1">
      <rect width="55.33" height="55.32"/>
    </clipPath>
  </defs>
  <g id="Design_White_1" data-name="Design White – 1" clip-path="url(#clip-Design_White_1)">
    <g id="Group_3000" data-name="Group 3000" transform="translate(0)">
      <g id="Group_2953" data-name="Group 2953" clip-path="url(#clip-path)">
        <path id="Path_2912" data-name="Path 2912" d="M0,28.636a2.694,2.694,0,0,1,2.466-2.079,9.356,9.356,0,0,1,1.062.122.728.728,0,0,0,.5-.121c2.716-2.707,5.419-5.426,8.149-8.168A4.484,4.484,0,0,1,18.386,12.2c.109-.1.231-.2.342-.311q3.856-3.858,7.716-7.714a.656.656,0,0,0,.206-.785A2.6,2.6,0,0,1,27.827.365a2.645,2.645,0,0,1,3.657,3.564,2.561,2.561,0,0,1-2.938,1.263.843.843,0,0,0-.971.286C26.264,6.813,24.929,8.127,23.6,9.449c-.124.123-.241.252-.422.441C32.237,6.4,40.666,7.4,48.681,12.978c.384-.413.8-.881,1.237-1.322a.894.894,0,0,1,1.486,0q1.765,1.748,3.514,3.513c.551.556.544.961-.018,1.525q-1.733,1.742-3.476,3.475a.915.915,0,0,1-1.529-.007q-1.749-1.726-3.489-3.462c-.567-.566-.557-.992.023-1.566.293-.289.592-.573.891-.863a23.56,23.56,0,0,0-27.461-.46,4.451,4.451,0,0,1-1.041,5.445c-1.318,1.207-2.918,1.369-5,.607-5.385,7.224-6.016,18.991.46,27.518.323-.358.619-.722.952-1.048a.877.877,0,0,1,1.376,0q1.838,1.829,3.651,3.682a.825.825,0,0,1,.047,1.251c-1.355,1.364-2.731,2.706-4.1,4.056h-.54a4.361,4.361,0,0,1-.47-.357q-1.8-1.788-3.589-3.589a.878.878,0,0,1,.03-1.445c.445-.44.918-.853,1.337-1.24C7.406,40.677,6.4,32.245,9.819,23.24c-1.494,1.444-2.937,2.925-4.407,4.38a.763.763,0,0,0-.228.885,2.6,2.6,0,0,1-1.7,3.186A2.64,2.64,0,0,1,.211,30.243C.147,30.1.071,29.964,0,29.825V28.636M18.61,15.9a2.7,2.7,0,0,0-2.726-2.695A2.748,2.748,0,0,0,13.2,15.916a2.707,2.707,0,0,0,2.717,2.707A2.671,2.671,0,0,0,18.61,15.9M15.938,48.2l-2.426,2.458,2.412,2.432,2.459-2.445L15.938,48.2M48.255,15.858l2.409,2.412,2.379-2.362-2.416-2.421-2.372,2.372M30.092,2.669a.924.924,0,0,0-.918-.928.917.917,0,0,0-.022,1.833.92.92,0,0,0,.94-.9M2.649,28.276a.8.8,0,0,0-.842.851.9.9,0,0,0,.883.907.839.839,0,0,0,.875-.887.9.9,0,0,0-.915-.871" transform="translate(0 -0.001)"/>
        <path id="Path_2913" data-name="Path 2913" d="M150.8,165.316a4.921,4.921,0,0,1-.626-.783q-1.244-2.422-2.436-4.872a1.283,1.283,0,0,0-.752-.7c-2.857-1.081-5.705-2.187-8.562-3.268a1.522,1.522,0,0,1-.956-.933q-4.336-10.895-8.708-21.775a1.161,1.161,0,0,1,.291-1.448c.9-.855,1.771-1.742,2.639-2.631a1.011,1.011,0,0,1,1.22-.258q11.014,4.407,22.034,8.8a1.424,1.424,0,0,1,.823.926c1.08,2.838,2.178,5.67,3.253,8.511a1.346,1.346,0,0,0,.726.8c1.649.8,3.286,1.629,4.925,2.452.87.437.963,1,.274,1.685q-6.528,6.534-13.064,13.059a6.648,6.648,0,0,1-.54.44Zm-19.878-33.151c-.321.2-.481.4-.309.823q4.166,10.35,8.314,20.708a1.046,1.046,0,0,0,.535.517c2.659,1.045,5.33,2.06,7.99,3.1a.626.626,0,0,0,.791-.176q4.471-4.5,8.973-8.972a.627.627,0,0,0,.161-.8c-1.012-2.594-2.019-5.191-3-7.8a1.3,1.3,0,0,0-.821-.823q-10.218-4.066-20.422-8.167c-.441-.178-.707-.124-.885.247l11.115,11.115a5.1,5.1,0,1,1,0,8.426c-2.279-1.567-2.75-4.09-1.342-7.1l-11.1-11.1m20.335,30.681L162.911,151.2l-4.112-2.056-9.6,9.587,2.06,4.116m-8.368-16.676a3.354,3.354,0,1,0,3.365-3.341,3.322,3.322,0,0,0-3.365,3.341" transform="translate(-110.07 -109.999)"/>
      </g>
    </g>
  </g>
</svg>
