<?xml version="1.0" encoding="UTF-8"?>
<svg width="542px" height="285px" viewBox="0 0 542 285" version="1.1" xmlns="http://www.w3.org/2000/svg" xmlns:xlink="http://www.w3.org/1999/xlink">
    <title>404 copy 2</title>
    <defs>
        <polygon id="path-1" points="93.9 280 93.9 246.4 0 246.4 0 208.3 68.1 64 114.9 64 46.8 208.3 93.9 208.3 93.9 154.3 135.3 154.3 135.3 208.3 154.5 208.3 154.5 246.4 135.3 246.4 135.3 280"></polygon>
        <path d="M270.6,284.5 C254.6,284.5 240.6,281.15 228.6,274.45 C216.6,267.75 207.25,258.4 200.55,246.4 C193.85,234.4 190.5,220.4 190.5,204.4 L190.5,139.6 C190.5,123.6 193.85,109.6 200.55,97.6 C207.25,85.6 216.6,76.25 228.6,69.55 C240.6,62.85 254.6,59.5 270.6,59.5 C286.6,59.5 300.6,62.85 312.6,69.55 C324.6,76.25 333.95,85.6 340.65,97.6 C347.35,109.6 350.7,123.6 350.7,139.6 L350.7,204.4 C350.7,220.4 347.35,234.4 340.65,246.4 C333.95,258.4 324.6,267.75 312.6,274.45 C300.6,281.15 286.6,284.5 270.6,284.5 Z M270.6,245.8 C277.8,245.8 284.3,244.1 290.1,240.7 C295.9,237.3 300.5,232.7 303.9,226.9 C307.3,221.1 309,214.6 309,207.4 L309,136.3 C309,129.1 307.3,122.6 303.9,116.8 C300.5,111 295.9,106.4 290.1,103 C284.3,99.6 277.8,97.9 270.6,97.9 C263.4,97.9 256.9,99.6 251.1,103 C245.3,106.4 240.7,111 237.3,116.8 C233.9,122.6 232.2,129.1 232.2,136.3 L232.2,207.4 C232.2,214.6 233.9,221.1 237.3,226.9 C240.7,232.7 245.3,237.3 251.1,240.7 C256.9,244.1 263.4,245.8 270.6,245.8 Z" id="path-2"></path>
        <polygon id="path-3" points="8.8817842e-16 0 82.0614037 0 82.0614037 55.9542 8.8817842e-16 55.9542"></polygon>
        <path d="M270.6,284.5 C254.6,284.5 240.6,281.15 228.6,274.45 C216.6,267.75 207.25,258.4 200.55,246.4 C193.85,234.4 190.5,220.4 190.5,204.4 C201.445809,204.4 215.345809,204.4 232.2,204.4 C230.934559,233.664386 254.730593,245.8 271,245.8 C287.269407,245.8 301.970428,235.336472 307.000162,220.02003 C307.017538,220.750182 321.584151,215.543506 350.7,204.4 C350.7,220.4 347.35,234.4 340.65,246.4 C333.95,258.4 324.6,267.75 312.6,274.45 C300.6,281.15 286.6,284.5 270.6,284.5 Z" id="path-5"></path>
        <polygon id="path-6" points="480.6 280 480.6 246.4 386.7 246.4 386.7 208.3 454.8 64 501.6 64 433.5 208.3 480.6 208.3 480.6 154.3 522 154.3 522 208.3 541.2 208.3 541.2 246.4 522 246.4 522 280"></polygon>
    </defs>
    <g id="Final-Design" stroke="none" stroke-width="1" fill="none" fill-rule="evenodd">
        <g id="Desktop-|-404" transform="translate(-449, -194)">
            <g id="404-copy" transform="translate(449, 194)">
                <g id="Path" fill-rule="nonzero">
                    <use fill="#FFFFFF" xlink:href="#path-1"></use>
                    <use fill="#0FAA69" xlink:href="#path-1"></use>
                </g>
                <g id="Shape" fill-rule="nonzero">
                    <use fill="#FFFFFF" xlink:href="#path-2"></use>
                    <use fill="#0FAA69" xlink:href="#path-2"></use>
                </g>
                <g id="Group" transform="translate(216, 0)">
                    <path d="M77.647098,46.5321 C78.539098,44.4881 81.450098,43.9291 83.383098,45.0401 C85.316098,46.1511 86.321098,48.4291 86.554098,50.6471 C86.861098,53.5761 86.001098,56.6121 84.202098,58.9451 C82.404098,61.2781 79.686098,62.8821 76.774098,63.3291" id="Fill-37" fill="#ED8080"></path>
                    <path d="M81.004798,59.5833 C81.557798,59.1643 82.067798,58.6923 82.513798,58.1603 C84.062798,56.3163 85.073798,52.9783 84.851798,50.5783 C84.524798,47.0453 81.376798,50.2713 80.359798,51.5463 C78.117798,54.3573 76.898798,57.8813 77.000798,61.4923 C77.600798,61.4043 78.172798,61.1833 78.722798,60.9303 C79.525798,60.5623 80.300798,60.1163 81.004798,59.5833" id="Fill-39" fill="#EF5689"></path>
                    <path d="M84.103498,49.1022 C84.092498,49.0042 83.349498,48.9822 82.310498,49.5152 C81.277498,50.0302 80.053498,51.1782 79.305498,52.7812 C78.562498,54.3792 78.378498,55.9612 78.338498,57.0682 C78.305498,58.1842 78.406498,58.8672 78.518498,58.8712275 C78.640498,58.8762 78.753498,58.1992 78.936498,57.1302 C79.125498,56.0652 79.397498,54.5952 80.074498,53.1432 C80.750498,51.6982 81.766498,50.6202 82.622498,50.0282 C83.476498,49.4222 84.134498,49.2332 84.103498,49.1022" id="Fill-41" fill="#B74F4F"></path>
                    <path d="M80.204498,58.553 C80.314498,58.589 80.526498,58.316 80.761498,57.818 C80.989498,57.324 81.256498,56.579 81.264498,55.683 C81.271498,54.777 80.930498,53.973 80.523498,53.532 C80.116498,53.08 79.732498,52.991 79.677498,53.083 C79.605498,53.185 79.823498,53.435 80.027498,53.871 C80.236498,54.302 80.417498,54.947 80.415498,55.68 C80.410498,56.421 80.264498,57.119 80.186498,57.643 C80.104498,58.167 80.091498,58.516 80.204498,58.553" id="Fill-43" fill="#B74F4F"></path>
                    <path d="M79.053598,174.3597 C62.367598,163.5477 31.065598,164.2517 24.893598,185.9447 C17.976598,210.2497 15.540598,235.8257 17.794598,260.9967 C18.076598,264.1397 18.461598,267.3767 20.027598,270.1157 C23.441598,276.0887 31.173598,277.8147 38.031598,278.3517 C47.648598,279.1037 57.355598,278.6937 66.875598,277.1327" id="Fill-45" fill="#877A73"></path>
                    <path d="M52.171898,265.5253 C50.331898,265.9773 48.173898,266.3133 45.824898,266.0423 C43.503898,265.7873 40.921898,264.9503 38.957898,263.0573 C36.976898,261.1703 35.963898,258.2613 35.613898,255.1583 C35.422898,253.6003 35.359898,251.9773 35.332898,250.3063 C35.316898,248.6353 35.254898,246.9303 35.278898,245.1933 C35.268898,241.7193 35.362898,238.1233 35.534898,234.4443 C36.222898,219.7173 38.418898,206.5093 40.473898,197.0743 C41.477898,192.3463 42.467898,188.5613 43.123898,185.9363 C43.472898,184.6293 43.734898,183.6123 43.900898,182.9183 C44.066898,182.2243 44.135898,181.8543 44.098898,181.842047 C44.060898,181.8313 43.918898,182.1793 43.681898,182.8523 C43.445898,183.5263 43.114898,184.5253 42.698898,185.8153 C41.911898,188.4083 40.800898,192.1743 39.692898,196.8963 C37.429898,206.3203 35.094898,219.5833 34.402898,234.3893 C34.229898,238.0883 34.143898,241.7043 34.168898,245.1953 C34.152898,246.9413 34.223898,248.6563 34.250898,250.3353 C34.289898,252.0123 34.365898,253.6723 34.577898,255.2903 C34.788898,256.9043 35.139898,258.4853 35.747898,259.9403 C36.341898,261.3983 37.224898,262.7083 38.308898,263.7363 C40.513898,265.7953 43.298898,266.6203 45.744898,266.8403 C48.227898,267.0713 50.467898,266.6593 52.333898,266.1383 C54.207898,265.6053 55.748898,264.9573 56.987898,264.4013 C58.226898,263.8403 59.164898,263.3623 59.796898,263.0293 C60.427898,262.6963 60.749898,262.5023 60.733898,262.4663 C60.696898,262.3853 59.321898,262.9923 56.816898,263.9943 C55.561898,264.4843 54.014898,265.0633 52.171898,265.5253" id="Fill-47" fill="#93877F"></path>
                    <path d="M70.528098,209.9207 C71.489098,209.9347 72.455098,209.9587 73.419098,209.9777 L77.582098,174.8507 C60.895098,164.0387 29.594098,164.7427 23.421098,186.4347 C22.133098,190.9637 21.015098,195.5387 20.042098,200.1457 C36.391098,205.5847 53.193098,209.6607 70.528098,209.9207" id="Fill-49" fill="#93877F"></path>
                    <path d="M75.139698,267.8559 C77.0367429,253.661259 78.546698,238.7329 81.022698,224.2859 C83.196698,211.5969 86.967698,198.1709 87.974698,185.2179 C88.082698,183.8239 88.158698,182.4359 88.197698,181.0549 C76.580698,177.0359 59.696698,179.8669 53.957698,191.7689 C48.939698,202.1749 49.116698,214.4019 47.587698,225.6169 C45.294698,242.4319 44.494698,259.4189 44.588698,276.3799 C44.618698,281.8899 73.516698,280 75.139698,267.8559 Z" id="Fill-55" fill="#A09287"></path>
                    <path d="M83.648598,179.877 C83.520598,179.855 83.391598,179.836 83.262598,179.815 C83.024598,180.379 82.777598,180.977 82.521598,181.631 C80.626598,186.227 78.126598,192.983 75.519598,201.487 C72.902598,209.988 70.297598,220.27 68.105598,231.826 C65.905598,243.38 64.0858795,256.304 62.9518795,269.826 C62.9518795,272.540978 64.174598,273.000605 64.174598,269.826 C65.305598,256.34 66.995598,243.546 69.132598,232.018 C71.260598,220.488 73.776598,210.221 76.287598,201.716 C78.788598,193.208 81.166598,186.429 82.932598,181.792 C83.182598,181.099 83.419598,180.472 83.648598,179.877 Z" id="Fill-63" fill="#93877F"></path>
                    <path d="M53.957698,190.0304 C51.244698,195.6564 50.054698,201.8164 49.287698,208.0594 C60.666698,209.5484 72.179698,209.9804 83.636698,209.3284 C85.451698,200.7364 87.311698,192.0064 87.974698,183.4794 C88.082698,182.0854 88.158698,180.6974 88.197698,179.3164 C76.580698,175.2984 59.696698,178.1284 53.957698,190.0304" id="Fill-65" fill="#93877F"></path>
                    <path d="M5.57029801,160.4888 C12.671298,164.4428 30.685298,168.4068 36.992298,161.4058 C40.117298,157.9378 40.557298,151.8268 41.568298,147.5128 C43.488298,139.3238 46.846298,131.9318 43.185298,123.7088 C41.148298,119.1348 38.766298,114.1378 34.387298,111.3728 C32.306298,110.0598 29.919298,109.3178 27.553298,108.7128 C24.679298,107.9788 18.339298,105.6298 15.649298,106.3968 C12.986298,107.1558 10.529298,114.7018 9.44429801,117.2498 C7.73829801,121.2548 6.32829801,125.3858 5.19529801,129.5888 C2.99929801,137.7398 1.81526116,146.2008 1.81526116,154.6468 C1.81429801,155.5448 1.83129801,156.4678 2.16129801,157.3028 C2.74429801,158.7788 4.18129801,159.7148 5.57029801,160.4888" id="Fill-67" fill="#F78989"></path>
                    <path d="M11.690898,160.5877 C8.59489801,160.4937 3.86089801,161.0787 1.95989801,158.1197 C1.09789801,156.7787 0.798898012,155.1577 0.649898012,153.5707 C-0.137101988,145.1787 2.75589801,135.7667 5.51589801,127.9037 C16.663898,127.9797 27.790898,130.3577 37.995898,134.8467 C37.085898,139.8367 35.709898,144.7427 33.891898,149.4777 C33.085898,151.5777 32.170898,153.6787 30.715898,155.3927 C28.509898,157.9897 25.222898,159.4797 21.879898,160.1357 C18.535898,160.7927 15.096898,160.6917 11.690898,160.5877" id="Fill-69" fill="#D0DEEB"></path>
                    <path d="M30.821498,73.2635 C40.281498,81.5505 43.293498,95.1285 42.939498,107.7005 C48.151498,105.8315 53.363498,103.9635 58.574498,102.0955 C58.786498,90.2535 56.034498,78.3705 50.637498,67.8275" id="Fill-71" fill="#F78989"></path>
                    <path d="M5.94009801,129.806 C16.944098,129.453 27.535098,131.71 37.407098,136.593 C39.102098,137.432 40.594098,134.894 38.893098,134.052 C28.561098,128.941 17.466098,126.493 5.94009801,126.863 C4.04709801,126.923 4.04109801,129.867 5.94009801,129.806" id="Fill-73" fill="#C3D2DD"></path>
                    <path d="M35.982698,136.6602 C35.296698,136.4622 34.452698,136.2412 33.458698,136.0462 C32.465698,135.8432 31.341698,135.5732 30.075698,135.4012 C28.815698,135.1962 27.432698,134.9842 25.935698,134.8552 C24.444698,134.6692 22.839698,134.6072 21.152698,134.5162 C17.775698,134.4192 14.053698,134.5162 10.174698,134.9412 C7.61769801,135.2432 5.17469801,135.6772 2.85869801,136.1772 C2.77569801,136.4722 2.69269801,136.7662 2.61269801,137.0632 C5.02769801,136.5502 7.58969801,136.1022 10.270698,135.7862 C14.107698,135.3652 17.786698,135.2452 21.130698,135.2982 C22.800698,135.3682 24.390698,135.4032 25.871698,135.5562 C27.357698,135.6542 28.732698,135.8302 29.987698,135.9952 C31.248698,136.1272 32.372698,136.3552 33.366698,136.5122 C34.363698,136.6612 35.213698,136.8342 35.907698,136.9822 C36.589698,137.1202 37.122698,137.2202 37.492698,137.2812 C37.504698,137.2242 37.515698,137.1672 37.528698,137.1092 C37.170698,136.9962 36.652698,136.8462 35.982698,136.6602" id="Fill-75" fill="#D0DEEB"></path>
                    <path d="M40.929198,125.846 C45.301198,119.66 43.925198,107.052 43.780198,101.14 C43.719198,98.666 43.600198,96.153 42.802198,93.81 C39.276198,83.465 25.254198,89.351 19.862198,94.885 C15.112198,99.761 11.298198,105.736 8.96819801,112.369 C16.812198,121.691 28.848198,125.894 40.929198,125.846" id="Fill-77" fill="#07AA9A"></path>
                    <path d="M20.619998,114.4594 C25.642998,117.1624 30.667998,118.5134 34.300998,119.1924 C36.124998,119.5334 37.612998,119.7244 38.643998,119.8164 C39.675998,119.9094 40.249998,119.9184 40.2561044,119.8624 C40.273998,119.7264 38.006998,119.4244 34.424998,118.6044 C30.854998,117.7814 25.942998,116.3594 21.023998,113.7114 C17.059998,111.5814 13.830998,108.9454 11.500998,106.5294 C11.389998,106.7454 11.273998,106.9584 11.165998,107.1764 C13.456998,109.6634 16.666998,112.3364 20.619998,114.4594" id="Fill-79" fill="#24776D"></path>
                    <path d="M51.023398,87.145 C53.081398,87.062 55.126398,86.908 57.156398,86.682 C56.314398,82.453 55.118398,78.295 53.541398,74.281 C50.402398,74.617 47.255398,74.888 44.101398,75.044 C40.926398,75.2 37.518398,75.203 34.872398,73.441 C34.791398,74.673 34.654398,75.901 34.469398,77.122 C36.691398,79.918 38.411398,83.079 39.705398,86.455 C43.484398,86.845 47.277398,87.296 51.023398,87.145" id="Fill-81" fill="#EF5689"></path>
                    <g id="Group-85" transform="translate(5.7749, 0)">
                        <mask id="mask-4" fill="white">
                            <use xlink:href="#path-3"></use>
                        </mask>
                        <g id="Clip-84"></g>
                        <path d="M5.33146596,55.9542 C0.666465963,48.0282 -0.316534037,37.1162 0.0794659626,28.0992 C0.204465963,25.2562 0.528465963,22.3172 1.93846596,19.8672 C3.34746596,17.4162 6.10646596,15.5812 8.82946596,16.1102 C9.45746596,11.1242 13.964466,7.6442 18.438466,5.6062 C28.117466,1.2002 39.892466,-0.5578 50.436466,0.1522 C55.248466,0.4762 60.795466,0.9792 64.582466,4.4002 C66.213466,5.8732 67.404466,7.9622 67.462466,10.1922 C69.377466,9.2172 71.725466,9.4462 73.651466,10.3992 C79.157466,13.1252 82.366466,21.5072 82.038466,27.4862 C81.731466,33.0952 78.234466,38.5972 73.061466,40.4222" id="Fill-83" fill="#844055" mask="url(#mask-4)"></path>
                    </g>
                    <path d="M77.666398,63.2122 C78.642398,58.7432 78.424398,53.6152 78.482398,49.3492 C78.571398,42.8242 77.995398,36.1872 75.649398,30.0462 C72.667398,22.2402 66.7534058,15.3892 58.274398,13.6612 C44.788398,10.9142 24.855398,12.1582 17.357398,25.6992 C13.107398,33.3722 12.775398,42.6002 13.636398,51.1342 C13.935398,54.1002 14.352398,57.0582 14.986398,59.9722 C15.539398,62.5122 15.926398,65.4702 16.885398,67.8662 C18.994398,73.1312 23.053398,77.3232 28.425398,79.2832 C36.023398,82.0552 44.998398,82.6092 52.998398,81.5032 C62.571398,80.1792 71.971398,76.3522 76.357398,67.1592 C76.940398,65.9382 77.361398,64.6072 77.666398,63.2122" id="Fill-86" fill="#F78989"></path>
                    <path d="M85.753598,143.9239 C84.508598,127.8929 82.982598,112.5519 85.037598,96.5659 C80.090598,95.9909 75.265598,94.3809 70.965598,91.8689 C65.654598,96.9279 57.913598,99.3119 50.676598,98.1159 C48.260598,97.7169 45.849598,96.9099 43.971598,95.3379 C43.196598,94.6899 42.535598,93.8899 42.033598,93.0079 C41.877598,92.8029 41.726598,92.5909 41.582598,92.3659 C41.032598,91.5059 41.121598,90.8929 40.851598,89.8969 C33.705598,96.1549 30.164598,103.4249 30.251598,113.0859 C30.333598,122.1119 32.508598,131.0969 31.737598,140.0899 C30.110598,159.0569 14.628598,175.9869 16.572598,194.9239 C40.970598,202.5839 68.579598,202.9859 93.198598,196.0669 C92.485598,196.2669 86.093598,148.3039 85.753598,143.9239" id="Fill-88" fill="#01B8AC"></path>
                    <path d="M53.434298,55.9627 C53.479298,56.0447 54.276298,55.7277 55.031298,54.6067 C55.393298,54.0417 55.682298,53.2597 55.718298,52.3617 C55.751298,51.4697 55.543298,50.4587 54.973298,49.5697 C54.413298,48.6707 53.517298,48.0637 52.656298,47.8107 C51.793298,47.5397 50.962298,47.5617 50.312298,47.7157 C48.981298,48.0357 48.461298,48.7807 48.535298,48.8287 C48.619298,48.9457 49.241298,48.4337 50.414298,48.3077 C51.535298,48.1657 53.331298,48.5337 54.258298,50.0287 C55.204298,51.5097 55.027298,53.2977 54.508298,54.3107 C53.979298,55.3647 53.346298,55.8597 53.434298,55.9627" id="Fill-90" fill="#B74F4F"></path>
                    <path d="M49.730098,55.6294 C49.841098,55.4184 49.324098,54.9334 48.693098,54.3844 C48.058098,53.8404 47.504098,53.3994 47.311098,53.5404 C47.122098,53.6724 47.420098,54.4104 48.138098,55.0274 C48.853098,55.6474 49.626098,55.8354 49.730098,55.6294" id="Fill-92" fill="#B74F4F"></path>
                    <path d="M56.075898,57.3275 C55.952898,57.2595 55.605898,57.9065 54.699898,58.5195 C53.818898,59.1335 52.302898,59.6475 50.674898,59.3905 C49.033898,59.1225 47.697898,58.2635 46.810898,57.5825 C45.914898,56.8945 45.403898,56.3845 45.305898,56.4665 C45.222898,56.5325 45.571898,57.1865 46.414898,58.0355 C47.243898,58.8675 48.656898,59.9185 50.539898,60.2305 C52.443898,60.5305 54.166898,59.8225 55.069898,58.9925 C56.002898,58.1535 56.163898,57.3515 56.075898,57.3275" id="Fill-94" fill="#B74F4F"></path>
                    <path d="M36.748898,53.7138 C37.217898,53.6478 37.372898,52.0198 37.319898,50.0638 C37.259898,48.1068 37.009898,46.4908 36.537898,46.4518 C36.074898,46.4128 35.557898,48.0508 35.619898,50.1128 C35.677898,52.1748 36.288898,53.7808 36.748898,53.7138" id="Fill-96" fill="#B74F4F"></path>
                    <path d="M62.810198,52.8928 C63.277198,52.8058 63.347198,51.1088 63.249198,49.0748 C63.142198,47.0408 62.900198,45.3588 62.427198,45.3198 C61.965198,45.2788 61.438198,46.9988 61.551198,49.1608 C61.657198,51.3218 62.355198,52.9808 62.810198,52.8928" id="Fill-98" fill="#B74F4F"></path>
                    <path d="M39.890298,33.726 C39.963298,33.52 39.286298,33.015 37.979298,32.735 C36.692298,32.45 34.747298,32.483 32.845298,33.344 C30.943298,34.205 29.635298,35.645 28.999298,36.8 C28.347298,37.967 28.280298,38.809 28.483298,38.89 C28.710298,38.988 29.164298,38.357 29.970298,37.508 C30.768298,36.657 31.979298,35.603 33.546298,34.893 C35.113298,34.184 36.705298,33.97 37.871298,33.932 C39.040298,33.886 39.814298,33.962 39.890298,33.726" id="Fill-100" fill="#B74F4F"></path>
                    <path d="M67.702698,36.2625 C67.910698,36.1885 67.900698,35.4245 67.383698,34.3335 C66.880698,33.2545 65.793698,31.8815 64.146698,30.9685 C62.500698,30.0555 60.759698,29.8605 59.577698,30.0055 C58.379698,30.1445 57.725698,30.5415 57.773698,30.7565 C57.853698,31.2305 60.606698,30.9255 63.322698,32.4555 C66.058698,33.9475 67.257698,36.4455 67.702698,36.2625" id="Fill-102" fill="#B74F4F"></path>
                    <path d="M78.773298,166.7487 C80.451298,176.5117 83.469298,186.4707 85.503298,196.1657 C90.432298,196.7347 94.185298,196.6457 98.860298,195.8617 C99.446298,185.6367 100.005298,171.2027 100.072298,169.4447 C100.810298,150.3327 98.847298,132.1377 96.316298,113.5227 C96.043298,111.5147 95.763298,109.5017 95.480298,107.4827 C93.718298,94.9347 88.585298,75.2077 74.788298,70.8867 C68.310298,68.8587 60.303298,70.2517 57.366298,77.1687 C54.846298,83.1057 56.993298,91.5217 58.553298,97.4027 C61.688298,109.2277 66.885298,120.2567 70.175298,132.0437 C73.410298,143.6307 76.744298,154.9407 78.773298,166.7487" id="Fill-104" fill="#F78989"></path>
                    <path d="M14.048998,55.981 C21.146998,48.642 24.814998,37.949 23.762998,27.661 C33.667998,28.073 43.403998,23.958 51.247998,17.733 C54.162998,15.42 56.983998,12.607 57.917998,8.947 C58.006998,8.599 58.075998,8.222 57.953998,7.885 C57.748998,7.319 57.108998,7.084 56.539998,6.932 C44.721998,3.78 31.945998,7.394 21.596998,14.049 C18.248998,16.201 15.041998,18.715 12.728998,22.003 C7.71299801,29.131 7.65099801,38.861 9.91199801,47.343 C10.732998,50.422 11.897998,53.534 14.136998,55.749" id="Fill-106" fill="#844055"></path>
                    <path d="M16.798498,186.3333 C16.389498,189.1593 16.273498,192.0183 16.572498,194.9243 C40.970498,202.5833 68.579498,202.9863 93.198498,196.0673 C93.014498,196.1183 92.453498,192.9713 91.717498,188.2003 C67.147498,194.0113 41.048498,193.3623 16.798498,186.3333" id="Fill-108" fill="#05AA9A"></path>
                    <path d="M66.614298,99.763 C68.862298,98.051 70.330298,96.272 71.247298,95.005 C71.705298,94.367 72.026298,93.85 72.218298,93.484 C72.420298,93.124 72.513298,92.929 72.488298,92.913 C72.463298,92.898 72.320298,93.064 72.074298,93.391 C71.837298,93.725 71.475298,94.206 70.984298,94.804 C70.000298,95.992 68.493298,97.672 66.254298,99.282 C64.045298,100.911 61.090298,102.465 57.563298,103.314 C54.065298,104.154 49.913298,104.289 46.015298,102.818 C44.071298,102.104 42.360298,100.961 41.023298,99.563 C39.696298,98.147 38.748298,96.466 37.976298,94.835 C37.652298,94.139 37.379298,93.444 37.136298,92.754 C36.942298,92.978 36.761298,93.207 36.576298,93.434 C36.781298,94.008 37.003298,94.584 37.264298,95.161 C38.045298,96.858 39.002298,98.603 40.414298,100.131 C41.836298,101.638 43.664298,102.86 45.714298,103.613 C49.824298,105.162 54.144298,104.984 57.750298,104.075 C61.387298,103.154 64.397298,101.494 66.614298,99.763" id="Fill-120" fill="#24776D"></path>
                    <path d="M69.044498,146.6078 C74.409498,146.7428 79.432498,142.8928 84.784498,143.3238 C85.164498,144.1048 84.299498,144.8928 83.572498,145.2488 C79.749498,147.1188 75.799498,148.6618 71.767498,149.8568 C75.097498,149.8758 78.427498,150.0938 81.736498,150.5118 C84.139498,150.8158 86.614498,151.2568 88.650498,152.7188 C88.256498,153.8188 87.024498,154.1368 85.973498,154.2598 C81.289498,154.8098 76.562498,154.5098 71.860498,154.2098 C76.605498,154.9158 81.389498,155.6318 85.905498,157.4078 C86.668498,157.7078 87.534498,158.1858 87.659498,159.0808 C86.499498,159.7018 85.171498,159.7858 83.886498,159.7388 C79.734498,159.5868 75.503498,158.4968 71.424498,157.6608 C74.534498,158.4878 77.532498,159.8458 80.281498,161.6738 C80.574498,161.8678 80.908498,162.2058 80.776498,162.5578 C80.685498,162.7958 80.425498,162.8778 80.197498,162.9208 C76.446498,163.6328 72.745498,161.7398 69.017498,160.8878 C66.434498,160.2968 63.762498,160.2058 61.152498,160.6188" id="Fill-122" fill="#DD7373"></path>
                    <path d="M83.600798,183.1347 C83.690798,185.3537 83.781798,187.5837 84.212798,189.7627 C85.503798,196.2997 83.616798,203.0797 79.334798,208.2297 C79.087798,208.5267 78.815798,208.8847 78.910798,209.2597 C79.005798,209.6357 79.455798,209.8307 79.839798,209.7727 C80.223798,209.7147 80.550798,209.4707 80.850798,209.2247 C82.982798,207.4767 84.687798,205.2127 85.777798,202.6807 C85.589798,204.9777 85.459798,207.2787 85.389798,209.5817 C85.348798,210.9237 85.242798,212.2637 85.231798,213.6077 C85.226798,214.2697 84.978798,216.4857 85.944798,216.7507 C86.200798,216.8207 86.400798,216.5347 86.511798,216.2937 C86.913798,215.4257 87.137798,214.7457 87.293798,213.7807 C87.459798,212.7467 87.600798,211.7097 87.715798,210.6697 C87.948798,208.5487 88.073798,206.4167 88.089798,204.2837 C88.073798,206.4657 88.541798,208.8427 88.961798,210.9787 C89.177798,212.0737 89.444798,213.1587 89.790798,214.2207 C90.076798,215.0937 90.388798,216.4417 91.062798,217.1097 C91.258798,217.3027 91.563798,217.4117 91.814798,217.2997 C92.571798,216.9597 92.253798,214.8087 92.248798,214.1347 C92.239798,212.8727 92.163798,211.6117 92.050798,210.3557 C91.885798,208.5197 91.952798,206.6507 91.573798,204.8167 C92.281798,208.2397 94.308798,211.6397 96.005798,214.6417 C96.325798,215.2067 96.712798,215.7107 97.400798,215.7237 C98.488798,215.7427 97.065798,210.1217 96.883798,209.6467 C96.066798,207.5187 94.824798,205.6067 93.765798,203.5997 C94.789798,204.2307 95.174798,205.3697 95.863798,206.2807 C96.663798,207.3387 97.484798,208.4007 98.276798,209.4727 C98.861798,210.2637 99.524798,211.1087 100.481798,211.3337 C100.583798,211.3577 100.694798,211.3727 100.790798,211.3327 C100.907798,211.2837 100.978798,211.1647 101.021798,211.0467 C101.208798,210.5407 101.038798,209.9797 100.853798,209.4747 C100.485798,208.4707 99.866798,207.7857 99.378798,206.8447 C98.892798,205.9087 98.536798,204.9097 98.278798,203.8887 C97.845798,202.1677 98.277798,200.3647 98.604798,198.6217 C99.527798,193.7037 99.366798,189.3547 99.080798,184.3987 C99.019798,183.3387 98.910798,182.1697 98.140798,181.4387" id="Fill-124" fill="#F78989"></path>
                    <path d="M60.531098,142.5443 C66.677098,141.8223 72.629098,139.5033 77.643098,135.8753 C78.137098,136.4553 77.988098,137.3353 77.731098,138.0523 C76.748098,140.7963 74.602098,143.0183 72.105098,144.5203 C69.607098,146.0223 66.766098,146.8613 63.912098,147.4503" id="Fill-126" fill="#DD7373"></path>
                    <path d="M97.279998,120.8998 C96.970998,118.4458 96.651998,115.9888 96.315998,113.5228 C96.047998,111.5448 95.771998,109.5628 95.492998,107.5738 C86.075998,112.6418 75.549998,115.6438 64.875998,116.2888 C65.910998,119.1008 66.930998,121.9178 67.891998,124.7588 C78.154998,126.0838 88.310998,125.6788 97.279998,120.8998" id="Fill-128" fill="#EF5689"></path>
                    <path d="M63.720698,122.3384 C76.398698,122.5524 89.895698,119.5184 99.499698,111.3924 C99.473698,111.2354 99.441698,111.0784 99.409698,110.9244 C97.803698,103.3094 95.524698,95.1684 92.777698,87.8844 C90.192698,81.0304 85.624698,74.3214 78.994698,70.8554 C71.767698,67.0764 62.023698,66.7624 57.349698,74.5504 C52.430698,82.7474 54.309698,88.7944 56.701698,97.3194 C59.040698,105.6594 61.380698,113.9984 63.720698,122.3384" id="Fill-130" fill="#07AA9A"></path>
                    <path d="M79.845098,112.2578 C73.067098,114.0798 66.674098,114.8578 61.721098,115.2108 C61.781098,115.4248 61.841098,115.6388 61.901098,115.8528 C66.872098,115.6158 73.280098,114.9018 80.066098,113.0788 C87.461098,111.1008 93.781098,108.0878 98.134098,105.3548 C98.083098,105.1468 98.030098,104.9398 97.978098,104.7318 C93.587098,107.3398 87.246098,110.2768 79.845098,112.2578" id="Fill-132" fill="#24776D"></path>
                    <path d="M72.339298,145.1771 C70.059298,144.2691 68.303298,142.6901 67.732298,140.1881 C67.720298,140.1351 67.721298,140.0831 67.710298,140.0311 C67.099298,139.7411 66.440298,139.5451 65.741298,139.4821 C57.159298,138.7051 48.590298,138.2791 40.002298,137.3411 C35.620298,136.8621 31.220298,136.5091 26.795298,136.3171 C22.335298,136.1241 17.870298,136.2231 13.414298,136.4991 C10.775298,136.6621 7.12229801,136.1671 5.03529801,137.9811 C-1.47970199,143.6471 -2.42670199,158.8341 6.70929801,162.2021 C10.990298,163.7801 15.399298,164.9861 19.874298,165.8231 C34.721298,168.6001 50.192298,166.6131 65.185298,164.9071 C65.379298,164.8851 65.569298,164.8751 65.765298,164.8721 C66.277298,164.8671 66.814298,164.8451 67.368298,164.8071 C69.661298,164.6481 71.685298,163.1691 72.507298,161.0231 C74.201298,156.6011 75.082298,151.6981 73.598298,147.2671 C73.337298,146.4881 72.901298,145.7761 72.339298,145.1771" id="Fill-134" fill="#D0DEEB"></path>
                    <path d="M49.778998,56.1556 C49.311998,55.8556 48.893998,55.5036 48.567998,55.1666 C47.664998,54.2346 46.964998,53.0366 46.904998,51.7406 C46.794998,49.3586 49.066998,47.7826 51.267998,47.8286 C52.868998,47.8616 54.488998,48.8476 54.989998,50.3686 C56.042998,53.5656 53.557998,58.5836 49.778998,56.1556" id="Fill-136" fill="#EF5689"></path>
                    <path d="M18.309698,56.2152 C18.434698,54.7002 17.765698,53.1892 16.726698,52.0802 C14.050698,49.2272 8.90569801,48.0192 5.82569801,50.8782 C3.87069801,52.6922 3.10169801,55.5472 3.39569801,58.1982 C3.77269801,61.5982 5.78169801,64.7342 8.58469801,66.6942 C11.548698,68.7662 14.361698,69.7132 17.991698,68.9472" id="Fill-138" fill="#F78989"></path>
                    <path d="M12.684698,54.9079 C12.750698,54.9519 12.814698,54.9949 12.873698,55.0359 C14.924698,56.4519 16.547698,58.4759 17.373698,60.8359 C17.785698,62.0149 18.361698,64.7559 17.513698,65.8459 C16.636698,66.9729 14.857698,66.0159 13.929698,65.4819 C11.210698,63.9169 9.20469801,61.3959 7.85469801,58.5989 C7.32069801,57.4929 6.64669801,56.0109 7.06069801,54.7539 C7.90369801,52.1919 11.162698,53.8969 12.684698,54.9079" id="Fill-140" fill="#EF5689"></path>
                    <path d="M17.762598,65.8175008 C17.863598,65.8185 18.056598,64.8695 18.009598,63.2775 C17.983598,61.6835 17.290598,59.4195 15.689598,57.5395 C14.108598,55.6355 12.143598,54.5125 10.715598,53.8745 C9.26859801,53.2405 8.31359801,53.0375 8.27659801,53.1385 C8.23059801,53.2565 9.10859801,53.6595 10.444598,54.4105 C11.767598,55.1665 13.571598,56.3155 15.035598,58.0825 C16.523598,59.8405 17.230598,61.8365 17.411598,63.3335 C17.606598,64.8405 17.629598,65.8185 17.762598,65.8175008" id="Fill-142" fill="#B74F4F"></path>
                    <path d="M16.457098,62.7548 C16.499098,62.6358 16.097098,62.4178 15.568098,61.9718 C15.039098,61.5318 14.390098,60.8188 14.011098,59.8718 C13.635098,58.9248 13.615098,57.9608 13.697098,57.2788 C13.773098,56.5908 13.916098,56.1558 13.803098,56.0978 C13.711098,56.0448 13.361098,56.3988 13.110098,57.1478 C12.858098,57.8808 12.765098,59.0378 13.222098,60.1868 C13.681098,61.3358 14.544098,62.1108 15.232098,62.4698 C15.929098,62.8408 16.427098,62.8568 16.457098,62.7548" id="Fill-144" fill="#B74F4F"></path>
                    <path d="M42.306098,57.1332 C40.896098,55.0792 37.871098,54.9542 35.602098,55.0302 C33.413098,55.1032 30.878098,55.8302 29.991098,58.0572 C29.201098,60.0422 29.808098,62.2192 31.394098,63.6152 C32.861098,64.9062 35.909098,65.1812 37.766098,64.8672 C40.430098,64.4162 42.769098,62.6812 42.996098,59.8892 C43.082098,58.8272 42.824098,57.8872 42.306098,57.1332" id="Fill-146" fill="#EF5689"></path>
                    <path d="M71.906198,55.515 C70.521198,53.496 67.548198,53.374 65.318198,53.448 C63.167198,53.52 60.676198,54.235 59.804198,56.423 C59.028198,58.373 59.624198,60.513 61.183198,61.885 C62.624198,63.153 65.619198,63.424 67.444198,63.115 C70.063198,62.672 72.361198,60.967 72.584198,58.223 C72.669198,57.179 72.415198,56.256 71.906198,55.515" id="Fill-148" fill="#EF5689"></path>
                    <g id="Group-176" transform="translate(2.3915, 136.4218)" fill="#D0DEEB">
                        <path d="M11.415,9.298 C14.487,6.784 17.698,4.813 20.744,3.256 C21.015,2.889 21.276,2.562 21.502,2.304 C21.627,2.158 21.735,2.034 21.836,1.919 C21.972,1.868 22.114,1.817 22.242,1.762 C22.082,2.021 21.831,2.397 21.521,2.875 C23.868,1.719 26.088,0.807 28.056,0.092 C27.508,0.058 26.959,0.03 26.411,0 C21.824,1.653 16.144,4.33 10.875,8.641 C5.658,12.909 2.053,18.064 0,22.484 C0.144,22.682 0.294,22.873 0.451,23.059 C2.549,18.708 6.189,13.575 11.415,9.298" id="Fill-150"></path>
                        <path d="M14.4292,23.29 C14.5952,21.262 14.9032,19.044 15.4322,16.757 C15.9842,14.475 16.7022,12.354 17.4622,10.467 C18.2512,8.592 19.0642,6.944 19.8412,5.612 C20.4902,4.481 21.0712,3.568 21.5212,2.875 C21.2612,3.003 21.0062,3.122 20.7442,3.256 C20.6682,3.358 20.5962,3.447 20.5192,3.558 C20.1592,4.065 19.7252,4.627 19.3262,5.302 C18.4712,6.615 17.5862,8.265 16.7402,10.161 C15.9252,12.069 15.1682,14.23 14.6052,16.561 C14.0642,18.898 13.7732,21.169 13.6472,23.24 C13.5572,25.258 13.6062,27.08 13.7712,28.612 C13.9762,28.66 14.1802,28.709 14.3862,28.756 C14.3852,28.735 14.3832,28.717 14.3822,28.696 C14.2842,27.157 14.2952,25.32 14.4292,23.29" id="Fill-152"></path>
                        <path d="M21.8365,1.9194 C21.7355,2.0344 21.6265,2.1584 21.5025,2.3044 C21.2765,2.5614 21.0145,2.8884 20.7435,3.2564 C21.0065,3.1214 21.2615,3.0024 21.5205,2.8754 C21.8315,2.3974 22.0815,2.0204 22.2425,1.7624 C22.1145,1.8174 21.9725,1.8684 21.8365,1.9194" id="Fill-154"></path>
                        <path d="M21.2748,28.0957 C21.3328,27.4787 21.4598,26.8437 21.5538,26.1827 C21.7168,24.8547 22.0628,23.4677 22.3828,22.0017 C23.1348,19.0957 24.1918,15.9587 25.6568,12.8177 C27.1618,9.6947 28.9208,6.8907 30.6948,4.4697 C31.1298,3.9217 31.5468,3.3827 31.9618,2.8637 C32.2248,2.2317 32.3938,1.8827 32.4388,1.8997 C32.4778,1.9137 32.4498,2.0747 32.3788,2.3547 C32.7168,1.9457 33.0568,1.5477 33.4068,1.1817 C33.6008,0.9717 33.7848,0.7617 33.9688,0.5537 C33.6798,0.5267 33.3898,0.5047 33.0998,0.4787 C33.0288,0.5547 32.9608,0.6297 32.8878,0.7057 C31.9268,1.6667 31.0358,2.8127 30.0708,3.9967 C28.2328,6.4317 26.4198,9.2747 24.8888,12.4537 C23.3968,15.6507 22.3438,18.8527 21.6218,21.8177 C21.3158,23.3137 20.9928,24.7287 20.8558,26.0817 C20.7768,26.7547 20.6638,27.4017 20.6218,28.0297 L20.5188,29.8367 C20.5168,29.8577 20.5178,29.8777 20.5158,29.8987 C20.7138,29.9277 20.9138,29.9487 21.1118,29.9757 C21.1148,29.9407 21.1168,29.9087 21.1188,29.8737 L21.2748,28.0957 Z" id="Fill-156"></path>
                        <path d="M30.4661,21.1075 C30.1951,18.4435 30.1781,15.8875 30.3021,13.5705 C30.4001,12.4155 30.4671,11.3125 30.6341,10.2925 C30.7521,9.2655 30.9361,8.3215 31.1081,7.4585 C31.6271,4.9185 32.1811,3.1405 32.3791,2.3545 C32.2401,2.5225 32.1011,2.6905 31.9621,2.8635 C31.9051,3.0015 31.8481,3.1365 31.7821,3.3015 C31.5891,3.7615 31.3721,4.3315 31.1751,5.0115 C30.9711,5.6895 30.7051,6.4545 30.5211,7.3275 C30.3091,8.1945 30.0881,9.1475 29.9371,10.1875 C29.7371,11.2205 29.6421,12.3395 29.5201,13.5155 C29.3511,15.8725 29.3441,18.4805 29.6211,21.1975 C29.9251,23.9125 30.4831,26.4595 31.1471,28.7275 C31.3791,29.4355 31.6031,30.1105 31.8351,30.7645 C32.0951,30.7695 32.3551,30.7675 32.6161,30.7705 C32.3721,30.0475 32.1421,29.2975 31.8991,28.5085 C31.2891,26.2705 30.7651,23.7695 30.4661,21.1075" id="Fill-158"></path>
                        <path d="M32.439,1.8995 C32.394,1.8825 32.225,2.2325 31.962,2.8635 C32.101,2.6905 32.24,2.5225 32.379,2.3555 C32.45,2.0745 32.478,1.9135 32.439,1.8995" id="Fill-160"></path>
                        <path d="M39.6783,14.0701 C40.5013,9.1431 42.1803,4.8151 44.0043,1.5351 C43.7503,1.5141 43.4973,1.4841 43.2433,1.4621 C41.3573,4.7291 39.6553,9.0401 38.8403,13.9281 C37.7783,20.2771 38.1773,26.1261 38.6883,30.2611 C38.7063,30.4071 38.7253,30.5341 38.7433,30.6751 C38.9383,30.6681 39.1333,30.6611 39.3273,30.6531 C39.3133,30.5021 39.2993,30.3541 39.2853,30.1981 C38.9303,26.0721 38.6363,20.2971 39.6783,14.0701" id="Fill-162"></path>
                        <path d="M51.9054,29.6937 C51.9264,29.7307 51.9464,29.7647 51.9674,29.8027 C51.9514,29.7657 51.9354,29.7307 51.9184,29.6927 C51.9144,29.6927 51.9094,29.6937 51.9054,29.6937" id="Fill-164"></path>
                        <path d="M51.0954,26.4277 C51.0934,26.4107 51.0924,26.3907 51.0904,26.3737 C50.8574,25.8037 50.6284,25.2147 50.3874,24.6077 C49.5694,22.3327 48.8234,19.7777 48.3034,17.0367 C47.8124,14.2897 47.5984,11.6367 47.5514,9.2197 C47.5684,8.0117 47.5544,6.8607 47.6534,5.7887 C47.7004,4.7127 47.8234,3.7177 47.9404,2.8087 C47.9844,2.4757 48.0314,2.1677 48.0784,1.8597 C47.8904,1.8447 47.7014,1.8297 47.5134,1.8147 C47.4534,2.1087 47.3894,2.3997 47.3454,2.7197 C47.1894,3.6357 47.0304,4.6427 46.9514,5.7337 C46.8204,6.8217 46.8064,7.9907 46.7684,9.2217 C46.7724,11.6817 46.9664,14.3907 47.4674,17.1907 C47.9974,19.9847 48.7814,22.5847 49.6554,24.8847 C50.1294,26.0217 50.5594,27.1087 51.0694,28.0787 C51.3384,28.6547 51.6214,29.1857 51.9054,29.6937 C51.9094,29.6937 51.9144,29.6927 51.9184,29.6927 C51.5764,28.8837 51.2634,27.7807 51.0954,26.4277" id="Fill-166"></path>
                        <path d="M52.309,29.6515 C52.405,29.6415 52.502,29.6315 52.598,29.6215 C52.38,29.2035 52.167,28.7625 51.953,28.3005 C52.06,28.8195 52.183,29.2655 52.309,29.6515" id="Fill-168"></path>
                        <path d="M51.0903,26.3738 C51.0923,26.3908 51.0933,26.4108 51.0953,26.4278 C51.2633,27.7808 51.5763,28.8838 51.9193,29.6928 C52.0493,29.6788 52.1793,29.6648 52.3093,29.6518 C52.1833,29.2648 52.0603,28.8198 51.9533,28.3008 C51.8713,28.1238 51.7863,27.9608 51.7063,27.7768 C51.4883,27.3328 51.2883,26.8588 51.0903,26.3738" id="Fill-170"></path>
                        <path d="M58.9069,14.1151 C59.4489,9.8841 60.6459,6.0861 61.9259,2.9431 C61.6729,2.9211 61.4189,2.9011 61.1649,2.8801 C59.8279,5.9991 58.6059,9.7781 58.0639,14.0081 C57.3229,19.7651 58.1659,25.0841 59.4849,28.8631 C59.6999,28.8391 59.9149,28.8141 60.1289,28.7901 C58.9399,25.0401 58.1769,19.7991 58.9069,14.1151" id="Fill-172"></path>
                        <path d="M69.7127,25.3763 C68.4407,22.8293 67.1727,19.0603 66.6207,14.7383 C66.2237,11.5383 66.1327,8.5193 66.3427,6.0403 C66.1257,5.7273 65.9397,5.3893 65.7777,5.0303 C65.3317,7.7293 65.3217,11.1683 65.7777,14.8493 C66.3407,19.2643 67.7397,23.1223 69.1797,25.6543 C69.2407,25.7653 69.3007,25.8603 69.3607,25.9663 C69.4927,25.7873 69.6187,25.6033 69.7297,25.4093 C69.7237,25.3973 69.7187,25.3883 69.7127,25.3763" id="Fill-174"></path>
                    </g>
                    <path d="M38.0258282,137.0638 C38.034698,137.0058 37.576698,136.8928 36.736698,136.7378 C35.898698,136.5728 34.670698,136.4248 33.147698,136.3238 C31.622698,136.2108 29.799698,136.2098 27.779698,136.3158 C25.762698,136.4498 23.549698,136.7138 21.258698,137.1668 C16.677698,138.0968 12.698698,139.6078 9.95869801,140.9488 C8.58569801,141.6158 7.50269801,142.2118 6.78469801,142.6728 C6.06169801,143.1268 5.67769801,143.4008 5.70769801,143.4518 C5.77669801,143.5728 7.42969801,142.6788 10.206698,141.4958 C12.979698,140.3098 16.920698,138.9148 21.426698,137.9998 C23.680698,137.5548 25.852698,137.2718 27.835698,137.0968 C29.820698,136.9498 31.615698,136.8888 33.123698,136.9238 C36.140698,136.9728 38.005698,137.2038 38.0258282,137.0638" id="Fill-177" fill="#7391A0"></path>
                </g>
                <g id="Path" fill-rule="nonzero">
                    <use fill="#FFFFFF" xlink:href="#path-5"></use>
                    <use fill="#0FAA69" xlink:href="#path-5"></use>
                </g>
                <g id="Path" fill-rule="nonzero">
                    <use fill="#FFFFFF" xlink:href="#path-6"></use>
                    <use fill="#0FAA69" xlink:href="#path-6"></use>
                </g>
            </g>
        </g>
    </g>
</svg>