<?xml version="1.0" encoding="UTF-8"?>
<svg width="30px" height="30px" viewBox="0 0 30 30" version="1.1" xmlns="http://www.w3.org/2000/svg" xmlns:xlink="http://www.w3.org/1999/xlink">
    <title>ic:baseline-whatsapp</title>
    <defs>
        <rect id="path-1" x="0" y="0" width="30" height="30" rx="15"></rect>
    </defs>
    <g id="Final-Design" stroke="none" stroke-width="1" fill="none" fill-rule="evenodd">
        <g id="Desktop-|-Photostory---Showpage" transform="translate(-1158, -154)">
            <g id="Group-7" transform="translate(0, 134)">
                <g id="ic:baseline-whatsapp" transform="translate(1158, 20)">
                    <mask id="mask-2" fill="white">
                        <use xlink:href="#path-1"></use>
                    </mask>
                    <g id="Clip" fill-rule="nonzero"></g>
                    <rect id="Frame-Background" fill="#0F2F4F" fill-rule="nonzero" mask="url(#mask-2)" x="0" y="0" width="30" height="30" rx="15"></rect>
                    <path d="M19,8 L16.8181818,8 C15.8537582,8 14.9288349,8.36874893 14.2468844,9.02512627 C13.564934,9.68150361 13.1818182,10.5717423 13.1818182,11.5 L13.1818182,13.6 L11,13.6 L11,16.4 L13.1818182,16.4 L13.1818182,22 L16.0909091,22 L16.0909091,16.4 L18.2727273,16.4 L19,13.6 L16.0909091,13.6 L16.0909091,11.5 C16.0909091,11.3143485 16.1675324,11.1363008 16.3039225,11.0050254 C16.4403126,10.8737499 16.6252971,10.8 16.8181818,10.8 L19,10.8 L19,8 Z" id="Vector" stroke="#FFFFFF" stroke-linecap="round" stroke-linejoin="round" fill-rule="nonzero" mask="url(#mask-2)"></path>
                </g>
            </g>
        </g>
    </g>
</svg>