<?xml version="1.0" encoding="UTF-8"?>
<svg width="30px" height="30px" viewBox="0 0 30 30" version="1.1" xmlns="http://www.w3.org/2000/svg" xmlns:xlink="http://www.w3.org/1999/xlink">
    <title>insta</title>
    <defs>
        <rect id="path-1" x="0" y="0" width="30" height="30" rx="15"></rect>
        <rect id="path-3" x="0" y="0" width="30" height="30" rx="15"></rect>
    </defs>
    <g id="Final-Design" stroke="none" stroke-width="1" fill="none" fill-rule="evenodd">
        <g id="Desktop-|-Article-Page-01" transform="translate(-253, -4700)">
            <g id="Group-3" transform="translate(0, 3841)">
                <g id="Group" transform="translate(0, 480)">
                    <g id="Frame-75441" transform="translate(100, 379)">
                        <g id="insta" transform="translate(153, 0)">
                            <g id="Frame-Background-Clipped">
                                <mask id="mask-2" fill="white">
                                    <use xlink:href="#path-1"></use>
                                </mask>
                                <g id="path-1"></g>
                                <rect id="Frame-Background" fill="#0F2F4F" fill-rule="nonzero" mask="url(#mask-2)" x="0" y="0" width="30" height="30" rx="15"></rect>
                            </g>
                            <g id="Vector-Clipped">
                                <mask id="mask-4" fill="white">
                                    <use xlink:href="#path-3"></use>
                                </mask>
                                <g id="path-1"></g>
                                <path d="M11.2898054,6.05437517 C10.3316704,6.09825017 9.67766335,6.24993758 9.10540738,6.47250009 C8.51346371,6.70237508 8.01133344,7.00987507 7.51107823,7.51031256 C7.01044801,8.01056255 6.70294465,8.51268737 6.47231725,9.10443735 C6.24918991,9.67687485 6.09731343,10.3310627 6.05418798,11.2888126 C6.01125003,12.2488126 6,12.55575 6,15 C6,17.44425 6.01087529,17.750063 6.05437574,18.710063 C6.0984387,19.668188 6.25012769,20.3221868 6.47250501,20.8944368 C6.7025699,21.4863743 7.01007299,21.9885005 7.51051568,22.4887505 C8.0105834,22.9893755 8.51271362,23.2976256 9.10428227,23.5275006 C9.67691322,23.7500631 10.3311076,23.9017498 11.2890551,23.9456248 C12.2490651,23.9893123 12.555631,24 14.9997189,24 C17.4441818,24 17.7499979,23.9893123 18.7100079,23.9456248 C19.6681429,23.9017498 20.3228994,23.7500631 20.8955303,23.5275006 C21.4872865,23.2976256 21.988667,22.9893755 22.4887347,22.4887505 C22.989365,21.9885005 23.2968669,21.4863756 23.5274943,20.8946257 C23.7487466,20.3221882 23.9006238,19.6680003 23.9456243,18.7102504 C23.9887497,17.7502504 24,17.44425 24,15 C24,12.55575 23.9887497,12.249 23.9456243,11.289 C23.9006238,10.330875 23.7487466,9.67687476 23.5274943,9.10462475 C23.2968669,8.51268724 22.989365,8.01056255 22.4887347,7.51031256 C21.9881045,7.00968754 21.4874743,6.70218759 20.8949681,6.47250009 C20.3212122,6.24993758 19.6668297,6.09825017 18.7086947,6.05437517 C17.7486847,6.01068767 17.4430563,6 14.9980309,6 C12.5565678,6 12.2498154,6.01068767 11.2898054,6.05437517 Z M14.1934607,7.62187493 C14.4330881,7.62149993 14.7004652,7.62187493 15.0008433,7.62187493 C17.4038683,7.62187493 17.6886845,7.63050011 18.6376319,7.67362511 C19.515141,7.71375011 19.991395,7.86037509 20.3086483,7.98356259 C20.7286527,8.14668759 21.0280945,8.34168727 21.3429103,8.65668726 C21.6579136,8.97168725 21.8529147,9.27168734 22.0164164,9.69168735 C22.1396052,10.0085624 22.2864192,10.4848123 22.3263571,11.3623123 C22.3694826,12.3110623 22.3788574,12.5960621 22.3788574,14.9979372 C22.3788574,17.3998123 22.3694826,17.6848121 22.3263571,18.6335621 C22.2862317,19.5110621 22.1396052,19.9873128 22.0164164,20.3041878 C21.8532897,20.7241878 21.6579136,21.0232503 21.3429103,21.3380628 C21.027907,21.6530628 20.7288402,21.8480621 20.3086483,22.0111871 C19.99177,22.1349371 19.515141,22.281187 18.6376319,22.321312 C17.688872,22.364437 17.4038683,22.3738132 15.0008433,22.3738132 C12.5976307,22.3738132 12.312816,22.364437 11.3640562,22.321312 C10.4865471,22.2808119 10.0102917,22.1341872 9.69285089,22.0109997 C9.27284651,21.8478747 8.9728433,21.6528754 8.65784003,21.3378754 C8.34283676,21.0228754 8.14783489,20.7236257 7.98433319,20.3034382 C7.86114441,19.9865632 7.7143304,19.5103125 7.67439249,18.6328125 C7.63126704,17.6840625 7.62264177,17.399062 7.62264177,14.995687 C7.62264177,12.592312 7.63126704,12.3088128 7.67439249,11.3600628 C7.71451791,10.4825629 7.86114441,10.0063124 7.98433319,9.68906236 C8.14745989,9.26906236 8.34283676,8.96906226 8.65784003,8.65406227 C8.9728433,8.33906228 9.27284651,8.14406244 9.69285089,7.98056245 C10.0101042,7.85681244 10.4865471,7.71056268 11.3640562,7.67025018 C12.1943148,7.63275018 12.5160682,7.62150009 14.1934607,7.61962509 L14.1934607,7.62187493 Z M19.8050186,9.1162498 C19.2087624,9.1162498 18.725007,9.59943719 18.725007,10.1958747 C18.725007,10.7921247 19.2087624,11.2758751 19.8050186,11.2758751 C20.4012748,11.2758751 20.8850303,10.7921247 20.8850303,10.1958747 C20.8850303,9.59962468 20.4012748,9.11587501 19.8050186,9.11587501 L19.8050186,9.1162498 Z M15.0008433,10.3781247 C12.4483792,10.3781247 10.3789206,12.4475625 10.3789206,15 C10.3789206,17.5524375 12.4483792,19.6209369 15.0008433,19.6209369 C17.5533074,19.6209369 19.6220171,17.5524375 19.6220171,15 C19.6220171,12.4475625 17.5533074,10.3781247 15.0008433,10.3781247 Z M15.0008433,12 C16.6576106,12 18.0008745,13.3430625 18.0008745,15 C18.0008745,16.6567501 16.6576106,18 15.0008433,18 C13.3438886,18 12.0008128,16.6567501 12.0008128,15 C12.0008128,13.3430625 13.3438886,12 15.0008433,12 Z" id="icon" fill="#FFFFFF" fill-rule="nonzero" mask="url(#mask-4)"></path>
                            </g>
                        </g>
                    </g>
                </g>
            </g>
        </g>
    </g>
</svg>