<?xml version="1.0" encoding="UTF-8"?>
<svg width="30px" height="30px" viewBox="0 0 30 30" version="1.1" xmlns="http://www.w3.org/2000/svg" xmlns:xlink="http://www.w3.org/1999/xlink">
    <title>ic:baseline-whatsapp</title>
    <defs>
        <rect id="path-1" x="0" y="0" width="30" height="30" rx="15"></rect>
    </defs>
    <g id="Final-Design" stroke="none" stroke-width="1" fill="none" fill-rule="evenodd">
        <g id="Desktop-|-Photostory---Showpage" transform="translate(-1066, -154)">
            <g id="Group-7" transform="translate(0, 134)">
                <g id="ic:baseline-whatsapp" transform="translate(1066, 20)">
                    <mask id="mask-2" fill="white">
                        <use xlink:href="#path-1"></use>
                    </mask>
                    <g id="Clip" fill-rule="nonzero"></g>
                    <rect id="Frame-Background" fill="#0F2F4F" fill-rule="nonzero" mask="url(#mask-2)" x="0" y="0" width="30" height="30" rx="15"></rect>
                    <path d="M13.9321297,16.0678707 C14.2426453,16.3632392 14.2426453,16.8479466 13.9321297,17.1433151 C13.6367612,17.4386836 13.1520538,17.4386836 12.8566852,17.1433151 C12.1473303,16.4328949 11.748908,15.4699976 11.748908,14.4660647 C11.748908,13.4621317 12.1473303,12.4992348 12.8566852,11.7888145 L15.5377229,9.10777685 C16.2481432,8.39842189 17.2110405,8 18.2149734,8 C19.2189063,8 20.1818037,8.39842189 20.8922239,9.10777685 C21.6015788,9.81819707 22,10.7810948 22,11.7850277 C22,12.7889606 21.6015788,13.7518583 20.8922239,14.4622785 L19.7637648,15.5907376 C19.7713384,14.9697063 19.672881,14.3486746 19.4608216,13.7579376 L19.8167795,13.3944075 C20.0290948,13.1843832 20.1976462,12.9343352 20.3126801,12.6587355 C20.4277139,12.3831359 20.4869451,12.0874581 20.4869451,11.7888145 C20.4869451,11.490171 20.4277139,11.1944928 20.3126801,10.9188932 C20.1976462,10.6432935 20.0290948,10.3932455 19.8167795,10.1832213 C19.6067552,9.97090595 19.3567065,9.80235383 19.0811068,9.68731995 C18.8055072,9.57228606 18.5098294,9.51305493 18.2111858,9.51305493 C17.9125423,9.51305493 17.6168645,9.57228606 17.3412648,9.68731995 C17.0656652,9.80235383 16.8156178,9.97090595 16.6055936,10.1832213 L13.9321297,12.8566852 C13.7198143,13.0667094 13.5512622,13.3167575 13.4362283,13.5923572 C13.3211945,13.8679568 13.2619633,14.163635 13.2619633,14.4622785 C13.2619633,14.760922 13.3211945,15.0565999 13.4362283,15.3321995 C13.5512622,15.6077991 13.7198143,15.8578465 13.9321297,16.0678707 M16.0678707,12.8566852 C16.3632392,12.5613167 16.8479466,12.5613167 17.1433151,12.8566852 C17.8526701,13.5671055 18.2510927,14.5300024 18.2510927,15.5339353 C18.2510927,16.5378683 17.8526701,17.5007656 17.1433151,18.2111858 L14.4622785,20.8922239 C13.7518583,21.6015788 12.7889606,22 11.7850277,22 C10.7810948,22 9.81819707,21.6015788 9.10777685,20.8922239 C8.39842189,20.1818037 8,19.2189063 8,18.2149734 C8,17.2110405 8.39842189,16.2481432 9.10777685,15.5377229 L10.2362363,14.4092639 C10.2286627,15.0302951 10.327119,15.6513252 10.5391784,16.2496358 L10.1832213,16.6055936 C9.97090595,16.8156178 9.80235383,17.0656652 9.68731995,17.3412648 C9.57228606,17.6168645 9.51305493,17.9125423 9.51305493,18.2111858 C9.51305493,18.5098294 9.57228606,18.8055072 9.68731995,19.0811068 C9.80235383,19.3567065 9.97090595,19.6067552 10.1832213,19.8167795 C10.3932455,20.0290948 10.6432935,20.1976462 10.9188932,20.3126801 C11.1944928,20.4277139 11.490171,20.4869451 11.7888145,20.4869451 C12.0874581,20.4869451 12.3831359,20.4277139 12.6587355,20.3126801 C12.9343352,20.1976462 13.1843832,20.0290948 13.3944075,19.8167795 L16.0678707,17.1433151 C16.280186,16.9332909 16.4487389,16.6832436 16.5637727,16.4076439 C16.6788066,16.1320443 16.7380378,15.8363665 16.7380378,15.5377229 C16.7380378,15.2390794 16.6788066,14.9434016 16.5637727,14.6678019 C16.4487389,14.3922023 16.280186,14.1421539 16.0678707,13.9321297 C15.994315,13.8632045 15.9356836,13.7799214 15.8956006,13.687431 C15.8555176,13.5949406 15.834836,13.4952098 15.834836,13.3944075 C15.834836,13.2936051 15.8555176,13.1938743 15.8956006,13.1013839 C15.9356836,13.0088935 15.994315,12.9256104 16.0678707,12.8566852 L16.0678707,12.8566852 Z" id="Vector" fill="#FFFFFF" fill-rule="nonzero" mask="url(#mask-2)"></path>
                </g>
            </g>
        </g>
    </g>
</svg>