<?xml version="1.0" encoding="UTF-8"?>
<svg width="30px" height="30px" viewBox="0 0 30 30" version="1.1" xmlns="http://www.w3.org/2000/svg" xmlns:xlink="http://www.w3.org/1999/xlink">
    <title>ic:baseline-whatsapp</title>
    <defs>
        <rect id="path-1" x="0" y="0" width="30" height="30" rx="15"></rect>
    </defs>
    <g id="Final-Design" stroke="none" stroke-width="1" fill="none" fill-rule="evenodd">
        <g id="Desktop-|-Photostory---Showpage" transform="translate(-1204, -154)">
            <g id="Group-7" transform="translate(0, 134)">
                <g id="ic:baseline-whatsapp" transform="translate(1204, 20)">
                    <mask id="mask-2" fill="white">
                        <use xlink:href="#path-1"></use>
                    </mask>
                    <g id="Clip" fill-rule="nonzero"></g>
                    <rect id="Frame-Background" fill="#0F2F4F" fill-rule="nonzero" mask="url(#mask-2)" x="0" y="0" width="30" height="30" rx="15"></rect>
                    <path d="M10.8497452,12.6032859 L7.71419582,12.6032859 C7.61024588,12.6032859 7.51055354,12.645415 7.43704984,12.7204058 C7.36354614,12.7953967 7.32225209,12.8971064 7.32225209,13.0031595 L7.32225209,22.6001264 C7.32225209,22.7061795 7.36354614,22.8078892 7.43704984,22.88288 C7.51055354,22.9578709 7.61024588,23 7.71419582,23 L10.8497452,23 C10.9536952,23 11.0533875,22.9578709 11.1268912,22.88288 C11.2003949,22.8078892 11.2416889,22.7061795 11.2416889,22.6001264 L11.2416889,13.0031595 C11.2416889,12.8971064 11.2003949,12.7953967 11.1268912,12.7204058 C11.0533875,12.645415 10.9536952,12.6032859 10.8497452,12.6032859 Z M10.4578015,22.2002528 L8.10613952,22.2002528 L8.10613952,13.4030331 L10.4578015,13.4030331 L10.4578015,22.2002528 Z M19.080563,12.6032859 C18.2300451,12.6032859 17.403044,12.8895954 16.7289008,13.4182283 L16.7289008,13.0031595 C16.7289008,12.8971064 16.6876071,12.7953967 16.6141034,12.7204058 C16.5405997,12.645415 16.440907,12.6032859 16.3369571,12.6032859 L13.2014075,12.6032859 C13.0974575,12.6032859 12.9977648,12.645415 12.9242611,12.7204058 C12.8507574,12.7953967 12.8094638,12.8971064 12.8094638,13.0031595 L12.8094638,22.6001264 C12.8094638,22.7061795 12.8507574,22.8078892 12.9242611,22.88288 C12.9977648,22.9578709 13.0974575,23 13.2014075,23 L16.3369571,23 C16.440907,23 16.5405997,22.9578709 16.6141034,22.88288 C16.6876071,22.8078892 16.7289008,22.7061795 16.7289008,22.6001264 L16.7289008,18.2015165 C16.7289008,17.8833573 16.8527825,17.5782289 17.0732936,17.3532564 C17.2938047,17.1282838 17.5928821,17.0018957 17.9047319,17.0018957 C18.2165817,17.0018957 18.5156583,17.1282838 18.7361694,17.3532564 C18.9566805,17.5782289 19.080563,17.8833573 19.080563,18.2015165 L19.080563,22.6001264 C19.080563,22.7061795 19.1218566,22.8078892 19.1953603,22.88288 C19.268864,22.9578709 19.3685567,23 19.4725067,23 L22.6080563,23 C22.7120062,23 22.8116989,22.9578709 22.8852026,22.88288 C22.9587063,22.8078892 23,22.7061795 23,22.6001264 L23,16.6020221 C22.9987553,15.5418811 22.5854168,14.5255246 21.8506494,13.7758912 C21.115882,13.0262578 20.1196802,12.6045557 19.080563,12.6032859 L19.080563,12.6032859 Z M22.2161126,22.2002528 L19.8644504,22.2002528 L19.8644504,18.2015165 C19.8644504,17.6712512 19.6579806,17.1627041 19.2904621,16.7877498 C18.9229436,16.4127955 18.4244815,16.2021484 17.9047319,16.2021484 C17.3849822,16.2021484 16.8865202,16.4127955 16.5190016,16.7877498 C16.1514831,17.1627041 15.9450134,17.6712512 15.9450134,18.2015165 L15.9450134,22.2002528 L13.5933512,22.2002528 L13.5933512,13.4030331 L15.9450134,13.4030331 L15.9450134,14.3651291 C15.9449955,14.4479492 15.9701839,14.5287319 16.0170996,14.5963198 C16.0640153,14.6639076 16.1303435,14.7149659 16.2069234,14.7424429 C16.2835033,14.7699198 16.3665566,14.7724595 16.4446121,14.7497114 C16.5226676,14.7269633 16.5918741,14.6800494 16.6426734,14.6154498 C17.0452194,14.0948739 17.5969621,13.7154357 18.2209658,13.5300453 C18.8449696,13.3446548 19.5101266,13.3625548 20.1236834,13.5812483 C20.7372402,13.7999417 21.2686111,14.2085265 21.6436987,14.7500286 C22.0187863,15.2915308 22.2188917,15.9389551 22.2161126,16.6020221 L22.2161126,22.2002528 Z M9.57044121,7.00665471 C9.47833421,7 9.38590348,6.99949729 9.29372883,7.00505514 C9.00037311,6.98469089 8.70604313,7.02599475 8.42897082,7.12640827 C8.1518985,7.2268218 7.89798519,7.38420627 7.68295922,7.58881265 C7.46793324,7.79341904 7.29637441,8.04088957 7.17890978,8.31589481 C7.06144514,8.59090004 7.00057651,8.8875829 7,9.18756546 C6.99763987,9.48441385 7.05500469,9.77860782 7.16861158,10.0519045 C7.28221847,10.3252012 7.44964517,10.5717732 7.66050959,10.7763311 C7.87137401,10.9808889 8.12117995,11.1390711 8.39443742,11.2410684 C8.66769489,11.3430657 8.9585776,11.3867033 9.2490475,11.3692757 L9.27099625,11.3692757 C9.55176936,11.3893353 9.83366588,11.3527775 10.1005907,11.2616891 C10.3675154,11.1706006 10.6142408,11.0267655 10.8266804,10.8383964 C11.0391199,10.6500273 11.2131131,10.4208131 11.3387255,10.1638408 C11.4643378,9.90686847 11.5391096,9.62717062 11.5587714,9.34071683 C11.5784332,9.05426304 11.5426,8.76666329 11.453318,8.49433801 C11.3640359,8.22201273 11.2230536,7.97029514 11.03842,7.75355742 C10.8537865,7.53681969 10.6291178,7.35930631 10.3772416,7.23115251 C10.1253653,7.1029987 9.85121432,7.02671435 9.57044121,7.00665471 L9.57044121,7.00665471 Z M9.54300527,10.5719279 C9.45248164,10.5803242 9.36136406,10.5795203 9.27099625,10.5695284 L9.2490475,10.5695284 C9.06038808,10.5839975 8.87084418,10.5581734 8.69251731,10.4937044 C8.51419045,10.4292354 8.35099903,10.3275383 8.21336209,10.1951061 C8.07572514,10.0626739 7.96666695,9.90241668 7.89315047,9.72456577 C7.81963399,9.54671486 7.78327462,9.35517841 7.78639364,9.16218515 C7.78951267,8.96919188 7.83204155,8.77898249 7.91126511,8.60370096 C7.99048867,8.42841942 8.1046661,8.27191726 8.24650762,8.14418642 C8.38834914,8.01645558 8.55473808,7.92030271 8.73505124,7.86186674 C8.91536441,7.80343077 9.10563952,7.78399569 9.29372883,7.80480241 C9.65339559,7.77107753 10.0114629,7.88450165 10.2891599,8.1201229 C10.5668568,8.35574415 10.7414358,8.69426176 10.7744919,9.0612054 C10.807548,9.42814904 10.6963732,9.79346065 10.4654245,10.0767761 C10.2344759,10.3600915 9.90267203,10.538203 9.54300527,10.5719279 L9.54300527,10.5719279 Z" id="Vector" fill="#FFFFFF" fill-rule="nonzero" mask="url(#mask-2)"></path>
                </g>
            </g>
        </g>
    </g>
</svg>