<?xml version="1.0" encoding="UTF-8"?>
<svg width="300px" height="136px" viewBox="0 0 300 136" version="1.1" xmlns="http://www.w3.org/2000/svg" xmlns:xlink="http://www.w3.org/1999/xlink">
    <title>Group 2</title>
    <defs>
        <linearGradient x1="50%" y1="-3.06161713e-15%" x2="50%" y2="100%" id="linearGradient-1">
            <stop stop-color="#FDEDE5" stop-opacity="0.519999981" offset="0%"></stop>
            <stop stop-color="#FDEDE5" stop-opacity="0.100000001" offset="100%"></stop>
        </linearGradient>
    </defs>
    <g id="--------↳-UI-Design" stroke="none" stroke-width="1" fill="none" fill-rule="evenodd">
        <g id="Home-UI---v2" transform="translate(-1040, -4647)" fill-rule="nonzero">
            <g id="Frame-75773" transform="translate(0, 178)">
                <g id="Frame-75764" transform="translate(100, 4069.4995)">
                    <g id="Frame-75763" transform="translate(0, 15.4995)">
                        <g id="Group-75180" transform="translate(940, 0)">
                            <g id="Group-2" transform="translate(0, 384)">
                                <path d="M0.017578125,0 L0,0 L0,113.945801 C0,126.125977 9.88818359,136 22.0859375,136 L277.914062,136 C290.111816,136 300,126.125977 300,113.945801 L300,0 L299.982422,0 C299.74353,4.90039062 297.076172,9.66992188 292.161255,12.2539062 L150,87 L7.83874512,12.2539062 C2.92382812,9.66992188 0.256469727,4.90039062 0.017578125,0 Z" id="Subtract" fill="#FCCBB5"></path>
                                <path d="M0,104.262766 C0,103.318665 0.478891471,102.439528 1.27073069,101.929984 L142.053307,11.3372825 C146.896207,8.22090692 153.103793,8.22090538 157.946693,11.337281 L298.729271,101.929984 C299.52111,102.439528 300,103.318672 300,104.262773 L300,113.831795 C300,126.074956 290.11181,136 277.91411,136 L22.0858808,136 C9.88818151,136 0,126.074956 0,113.831795 L0,104.262766 Z" id="Rectangle-1858" fill="#F8D3C2"></path>
                                <path d="M157.946693,11.3374031 L298.729271,101.930106 C299.52111,102.43965 300,103.318794 300,104.262895 L300,113.831917 C300,114.187776 299.991646,114.541676 299.975125,114.893432 C299.868233,114.093319 299.416673,113.372445 298.729271,112.930106 L157.946693,22.3374031 C153.103793,19.2210274 146.896207,19.221029 142.053307,22.3374046 L1.27073069,112.930106 C0.583328644,113.372445 0.131767678,114.093314 0.0246109,114.893419 C0.00835381778,114.541676 0,114.187776 0,113.831917 L0,104.262888 C0,103.318787 0.478891471,102.43965 1.27073069,101.930106 L142.053307,11.3374046 C146.896207,8.22102899 153.103793,8.22102745 157.946693,11.3374031 Z" id="Subtract" fill="url(#linearGradient-1)"></path>
                                <path d="M171.023672,69.2286922 L168.031489,65.7535621 C167.459453,65.093727 166.997422,63.8620354 166.997422,62.9822553 L166.997422,59.2431893 C166.997422,56.9117722 165.0833,54.9982502 162.751156,54.9982502 L159.010926,54.9982502 C158.152873,54.9982502 156.898794,54.5363658 156.238753,53.9645088 L152.762538,50.9732567 C151.244443,49.6755811 148.758288,49.6755811 147.218192,50.9732567 L143.763979,53.9865033 C143.103938,54.5363658 141.849859,54.9982502 140.991806,54.9982502 L137.18557,54.9982502 C134.853425,54.9982502 132.939306,56.9117722 132.939306,59.2431893 L132.939306,63.0042493 C132.939306,63.8620348 132.477278,65.093727 131.927243,65.7535621 L128.957059,69.2506872 C127.68098,70.7683079 127.68098,73.2316921 128.957059,74.7493128 L131.927243,78.246439 C132.477278,78.9062741 132.939306,80.1379662 132.939306,80.9957518 L132.939306,84.7568097 C132.939306,87.0882268 134.853425,89.0017514 137.18557,89.0017514 L140.991806,89.0017514 C141.849859,89.0017514 143.103938,89.4636386 143.763979,90.0354957 L147.240194,93.0267451 C148.758289,94.3244207 151.244444,94.3244207 152.784539,93.0267451 L156.260755,90.0354957 C156.920796,89.4636386 158.152873,89.0017514 159.032928,89.0017514 L162.773157,89.0017514 C165.105302,89.0017514 167.019424,87.0882268 167.019424,84.7568097 L167.019424,81.0177468 C167.019424,80.1599612 167.481451,78.9062741 168.053487,78.246439 L171.045674,74.7713078 C172.321753,73.2536871 172.321752,70.7463129 171.023672,69.2286922 Z M159.142933,67.8430383 L148.516273,78.4663828 C148.208254,78.7743058 147.790229,78.9502624 147.350202,78.9502624 C146.910174,78.9502624 146.492149,78.7743058 146.18413,78.4663828 L140.859798,73.1437151 C140.221758,72.5058746 140.221758,71.4501375 140.859798,70.812297 C141.497838,70.1744564 142.553903,70.1744564 143.191943,70.812297 L147.350202,74.9692586 L156.810789,65.5116233 C157.448829,64.8737827 158.504893,64.8737827 159.142933,65.5116233 C159.780972,66.1494638 159.780972,67.2051978 159.142933,67.8430383 Z" id="Vector" fill="#E3A386"></path>
                            </g>
                        </g>
                    </g>
                </g>
            </g>
        </g>
    </g>
</svg>