<svg width="276" height="233" viewBox="0 0 276 233" fill="none" xmlns="http://www.w3.org/2000/svg">
<path d="M149.374 0L137.999 115.262L172.51 0H149.374ZM103.487 0L137.999 115.262L126.626 0H103.487ZM0 75.2081L137.999 115.262L0 52.2787V75.2081ZM48.8845 0L137.999 115.262L78.0374 0H48.8845ZM0 0V24.5023L137.999 115.262L12.2029 0H0ZM276 95.8706L137.999 115.262L276 115.207V95.8706ZM197.957 0L137.999 115.262L227.113 0H197.957ZM276 0H263.794L137.999 115.262L276 24.4998V0ZM276 52.2787L137.999 115.262L276 75.2081V52.2787ZM0 205.853L137.999 115.262L0 178.373V205.853ZM266.278 233L137.999 115.262L229.21 233H266.278ZM276 178.373L137.999 115.262L276 205.853V178.373ZM276 134.751L137.999 115.262L276 155.197V134.751ZM199.103 233L137.999 115.262L173.384 233H199.103ZM0 155.197L137.999 115.262L0 134.751V155.197ZM149.494 233L137.999 115.262L126.507 233H149.494ZM0 115.207L137.999 115.262L0 95.8706V115.207ZM102.616 233L137.999 115.262L76.8966 233H102.616ZM46.7902 233L137.999 115.262L9.7196 233H46.7902Z" fill="url(#paint0_radial_300_4781)"/>
<defs>
<radialGradient id="paint0_radial_300_4781" cx="0" cy="0" r="1" gradientUnits="userSpaceOnUse" gradientTransform="translate(138 116.5) rotate(-90) scale(116.5 138)">
<stop offset="0.435" stop-color="#425BDF" stop-opacity="0"/>
<stop offset="1" stop-color="#425BDF" stop-opacity="0.78"/>
</radialGradient>
</defs>
</svg>
