<?xml version="1.0" encoding="UTF-8"?>
<svg width="30px" height="30px" viewBox="0 0 30 30" version="1.1" xmlns="http://www.w3.org/2000/svg" xmlns:xlink="http://www.w3.org/1999/xlink">
    <title>ic:baseline-whatsapp</title>
    <defs>
        <rect id="path-1" x="0" y="0" width="30" height="30" rx="15"></rect>
    </defs>
    <g id="Final-Design" stroke="none" stroke-width="1" fill="none" fill-rule="evenodd">
        <g id="Desktop-|-Photostory---Showpage" transform="translate(-1250, -154)">
            <g id="Group-7" transform="translate(0, 134)">
                <g id="ic:baseline-whatsapp" transform="translate(1250, 20)">
                    <mask id="mask-2" fill="white">
                        <use xlink:href="#path-1"></use>
                    </mask>
                    <g id="Clip" fill-rule="nonzero"></g>
                    <rect id="Frame-Background" fill="#0F2F4F" fill-rule="nonzero" mask="url(#mask-2)" x="0" y="0" width="30" height="30" rx="15"></rect>
                    <path d="M20.6683407,9.32804068 C19.9312155,8.5871835 19.0532112,7.99977882 18.0855378,7.60008668 C17.1178644,7.20039454 16.0798922,6.99641592 15.03216,7 C10.6422106,7 7.06432173,10.5600366 7.06432173,14.9280237 C7.06432173,16.3280196 7.43417089,17.6880162 8.12562813,18.8880126 L7,23 L11.2211052,21.8960039 C12.3869343,22.5280021 13.6974868,22.8640003 15.03216,22.8640003 C19.4221094,22.8640003 23,19.304011 23,14.9360239 C23,12.8160301 22.1718581,10.8240363 20.6683407,9.32804068 Z M15.03216,21.5200041 C13.8422103,21.5200041 12.6763814,21.2000053 11.655276,20.6000071 L11.4140698,20.4560073 L8.90552759,21.1120051 L9.57286416,18.6800131 L9.41206031,18.4320142 C8.75095157,17.3815917 8.39991154,16.1674145 8.39899488,14.9280237 C8.39899488,11.2960345 11.3738687,8.33604379 15.0241196,8.33604379 C16.7929637,8.33604379 18.4572857,9.02404187 19.7035168,10.2720381 C20.320588,10.883207 20.8096064,11.6101638 21.1422249,12.4107716 C21.4748435,13.2113794 21.6444471,14.0697137 21.6412057,14.9360239 C21.6572861,18.5680131 18.6824109,21.5200041 15.03216,21.5200041 Z M18.6663302,16.5920188 C18.4653252,16.496019 17.4844211,16.0160209 17.3075367,15.9440211 C17.122612,15.8800213 16.9939693,15.8480213 16.8572859,16.0400207 C16.7206025,16.2400201 16.3427125,16.688019 16.2301497,16.8160186 C16.1175869,16.9520182 15.9969839,16.9680178 15.7959789,16.8640181 C15.5949739,16.7680184 14.951758,16.5520193 14.1959792,15.8800214 C13.6010044,15.3520229 13.2070345,14.7040246 13.0864314,14.5040252 C12.9738686,14.3040258 13.0703508,14.2000259 13.1748734,14.0960262 C13.2633156,14.0080265 13.3758791,13.8640267 13.4723615,13.752027 C13.5688439,13.6400273 13.6090449,13.5520277 13.6733665,13.4240281 C13.7376881,13.2880285 13.7055269,13.1760297 13.6572857,13.08003 C13.6090445,12.9840303 13.2070343,12.0080331 13.0462303,11.6080342 C12.8854263,11.2240354 12.7165825,11.272035 12.5959795,11.264035 L12.2100495,11.264035 C12.0733661,11.264035 11.864321,11.3120348 11.6793964,11.5120342 C11.502512,11.7120336 10.9879394,12.1920323 10.9879394,13.1680295 C10.9879394,14.1440266 11.7035174,15.0880238 11.7999998,15.2160234 C11.8964822,15.352023 13.2070345,17.3520168 15.2010042,18.2080144 C15.675376,18.4160137 16.0452251,18.5360137 16.3346724,18.6240135 C16.8090442,18.776013 17.2432154,18.7520119 17.588944,18.704012 C17.9748736,18.6480122 18.7708527,18.224014 18.9316567,17.7600153 C19.1005009,17.2960167 19.100502,16.9040184 19.0442206,16.8160186 C18.9879392,16.7280189 18.8673352,16.6880185 18.6663302,16.5920188 Z" id="Vector" fill="#FFFFFF" fill-rule="nonzero" mask="url(#mask-2)"></path>
                </g>
            </g>
        </g>
    </g>
</svg>