<svg width="36.974" height="52.035" viewBox="0 0 36.974 52.035" xmlns="http://www.w3.org/2000/svg">
    <g fill="none" fill-rule="evenodd">
        <path d="M14.296 50.803c1.823 1.83 4.592 1.27 6.795.553 3.17-1.03 6.234-2.357 9.23-3.807 2.38-1.151 5.5-2.005 6.399-4.84 1.064-3.354-1.451-6.842-3.06-9.52-1.673-2.785-3.52-5.466-5.356-8.144-1.174-1.716-2.27-3.492-3.073-5.417-.807-1.941-1.145-3.998-1.788-5.99-.563-1.734-2.707-4.463-4.423-5.331-.757-.383-1.846-.43-2.639-.088l-8.376 3.61c-1.824.787-3.165 1.185-4.367 2.83-1.184 1.626-2.067 5.747.183 8.851 1.09 1.501 1.976 3.264 2.617 5.004 1.285 3.494 1.406 6.056 2.645 9.567.46 1.303 1.328 3.779 1.75 5.094.835 2.6 1.468 5.624 3.463 7.628" fill="#ADDAE8"/>
        <path d="M10.653 37.874c-.5-1.423-.794-2.668-1.075-3.898a3.47 3.47 0 0 1 .624-.673c1.253-1.014 2.373-.737 3.778-.216 2.77 1.029 5.744 1.681 8.676.914 2.116-.555 5.43-2.172 6.925-4.398a97.966 97.966 0 0 1 2.556 3.994c1.409 2.343 3.607 5.39 2.676 8.322-.787 2.479-3.515 3.226-5.594 4.232-2.62 1.268-5.298 2.428-8.068 3.328-1.926.626-4.348 1.116-5.941-.484-1.744-1.752-2.297-4.395-3.026-6.668a225.473 225.473 0 0 0-1.53-4.453" fill="#E6E2DD"/>
        <path d="M18.057 18.937a26.523 26.523 0 0 0 3.001-1.387 47.975 47.975 0 0 0 3.46 8.445c1.507 2.884 4.02 5.54 5.842 8.246.907 1.346 4.471 8.378 4.494 8.415-.604.842-2.102 1.746-3.657 2.415-1.02-2.518-3.701-6.829-4.477-8.297-1.756-3.322-4.21-5.984-5.592-9.467-1.12-2.834-2.07-5.506-3.071-8.37M16.814 15.152c1.113-.37 2.048-1.097 3.158-1.673.249.748.471 1.503.688 2.261-.939.586-2.01 1.189-3.127 1.573l-.228-.649c-.169-.482-.328-.99-.491-1.512" fill="#A1B8BF"/>
        <path d="M17.322 14.07c-2.005 1.022-3.984 1.7-5.961 2.567-2.024.888-4.289 1.765-6.413 2.378-.846.244-1.576.519-2.509.416-.094-1.979.5-3.81 1.2-4.772 1.201-1.645 2.542-2.043 4.366-2.83l8.376-3.61c.792-.342 1.882-.295 2.639.088.913.46 1.942 1.449 2.795 2.532-1.054 1.599-2.842 2.387-4.493 3.23M14.234 20.158c1.833-.88 4.762-2.499 6.245-3.314 1.31-.72 1.991-1.136 3.272-2.178.122.44.239.882.351 1.323-2.134 1.138-7.565 3.948-9.868 4.17" fill="#D7E2E4"/>
        <path d="M10.834 43.175c-.423-1.315-1.29-3.791-1.75-5.094-1.24-3.51-1.36-6.073-2.646-9.567-.64-1.74-1.527-3.503-2.618-5.004-2.25-3.104-1.366-7.225-.182-8.85l.05-.063c-.194 1.84-.56 4.07-.198 5.883.467 2.345 2.053 3.648 3.125 5.76 2.047 4.028 2.763 8.2 4.453 12.814 1.2 3.278 1.685 7.342 4.142 9.941 1.194 1.262 3.932 2.43 6.078 2.296-.067.021-.13.044-.197.065-2.203.717-4.972 1.277-6.795-.553-1.995-2.004-2.628-5.028-3.462-7.628" fill="#DBE6EC"/>
        <path d="M3.949 11.406c.99-.6 1.967-1.163 2.954-1.681-.001-.006-.001-.011-.005-.016-.574-2.232-2.986-3.234-3.862-5.265C1.52.93 6.436-1.02 8.336.55c1.84 1.524 1.445 3.705 1.554 5.416.052.803.42 1.45.809 2.054.338-.123.681-.24 1.03-.352 1.53-.487 2.297-.8 4.276-1.2.568-.115 2.395-.668 2.415.15.02.845-1.979 1.48-2.574 1.713-.898.35-1.817.804-2.764 1.01a8.363 8.363 0 0 0-1.454.464c.039.17.057.346.048.528-.048 1.023-2.414 2.338-3.751 1.599a1.259 1.259 0 0 1-.225-.163c-.985.486-1.99.945-3.017 1.31-1.015.363-2.56.87-3.568 1.221-.307-1.089 2.058-2.424 2.834-2.893" fill="#F3CA98"/>
        <path d="M1.831 13.134c-.18.114-.358.228-.526.35.559-.868 2.057-1.723 2.644-2.078.99-.6 1.967-1.163 2.954-1.68-.001-.007-.001-.012-.005-.017-.574-2.232-2.986-3.234-3.862-5.265-.572-1.33-.224-2.435.532-3.211-1.07 2.47.52 4.236 2.328 5.678 2.136 1.706 2.19 2.84.942 3.529-1.37.754-2.438 1.158-3.77 1.88-.425.25-.814.545-1.237.814" fill="#F3EBD5"/>
        <path d="M9.176 5.455c.068-.074.085-.227.03-.477-.13-.636-.282-1.27-.438-1.9-.187-.745-.48-1.707-1.183-2.124C7.177.712 6.56.634 6.092.688 5.18.795 4.043 1.78 4.748 2.725c.545.73 1.222.26 2.084.674.636.305.91 1.187 1.257 1.563.267.29.74.876 1.087.493" fill="#BFC2BB"/>
        <path d="m.44 16.803.127.29c.608 1.415 1.431 2.427 3.01 1.789a.832.832 0 0 0 .074-.031l16.786-7.233c.04-.019.083-.037.122-.06 1.487-.706 1.158-1.92.555-3.32l-.125-.291c-.612-1.417-1.28-2.5-2.86-1.853-.022.007-.041.016-.064.026L1.268 13.359c-1.612.703-1.443 2.012-.828 3.444" fill="#E0706B"/>
        <path d="m19.298 12.108 1.139-.49c.04-.019.083-.037.122-.06-.695-2.04-1.445-3.729-2.43-5.464-.022.007-.041.016-.064.026l-1.204.519c.997 1.731 1.744 3.411 2.437 5.469M16.272 13.412l1.26-.543c-.695-2.042-1.447-3.735-2.431-5.472l-1.269.547c.997 1.732 1.747 3.413 2.44 5.468M13.232 14.722l1.256-.542c-.658-1.766-1.637-3.847-2.444-5.466l-1.26.544c.81 1.62 1.799 3.72 2.448 5.464M9.581 15.994l.11.254 1.258-.542-.104-.248c-.63-1.484-1.477-3.475-2.308-5.231l-1.261.543c.826 1.743 1.676 3.739 2.305 5.224M6.645 17.561l1.257-.542c-.855-1.869-1.752-3.894-2.326-5.517l-1.26.543c.59 1.651 1.476 3.661 2.329 5.516M3.577 18.882a.832.832 0 0 0 .074-.031l1.188-.511c-1.019-1.918-1.726-3.614-2.302-5.528l-1.269.547c.587 1.908 1.3 3.616 2.309 5.523" fill="#E28078"/>
        <path d="M5.872 23.637c.288-.172 1.262-.678 1.978-.916l-.15-.448c-.75.248-1.771.779-2.07.958l.242.406zM6.689 25.53c.286-.17 1.262-.678 1.976-.916l-.148-.448c-.75.25-1.771.78-2.07.958l.242.406zM7.504 27.424c.195-.116.7-.384 1.231-.62a8.34 8.34 0 0 1 .747-.296l-.15-.449c-.748.25-1.771.78-2.07.959l.242.406zM10.534 30.61c.223-.097.441-.198.63-.3l-.223-.416c-.664.357-1.702.718-2.024.809l.129.455c.244-.07.888-.29 1.488-.548M9.72 28.717c.222-.097.44-.198.629-.3L10.124 28c-.663.356-1.701.718-2.022.808l.127.455c.246-.07.89-.289 1.49-.547" fill="#7CBCDB"/>
    </g>
</svg>
