<svg width="53.768" height="41.757" viewBox="0 0 53.768 41.757" xmlns="http://www.w3.org/2000/svg">
    <g fill="none" fill-rule="evenodd">
        <path d="M31.93 6.402c-2.558 5.53-.151 12.088 5.379 14.648 5.53 2.56 12.089.152 14.647-5.379 2.56-5.53.153-12.088-5.377-14.648-5.529-2.56-12.087-.152-14.648 5.379" fill="#F6CD6C"/>
        <path d="M50.39 8.846c-.523-1.084-1.327-2.028-2.272-2.774-.57-.449-1.202-.86-1.838-1.206-2.113-1.147-4.542-2.166-6.99-2.114a5.261 5.261 0 0 0-1.847.366c-.306.125-1.355.872-1.686.59-.243-.207-.077-.676.305-.998.921-.776 3.05-1.554 3.932-1.76a7.856 7.856 0 0 1 1.57-.197c.661-.016 1.357.016 2.012.126a10.77 10.77 0 0 1 2.702.822c2.597 1.201 4.753 3.606 5.475 6.396.157.605.636 2.674.498 3.5-.065.388-.3 1.182-.68.531-.416-.706-.571-1.52-.8-2.296a6.756 6.756 0 0 0-.38-.986" fill="#C5C4B7"/>
        <path d="M.07 19.453c-.654 7.029 3.295 14.212 10.546 18.533 4.34 2.588 13.182 6.204 19.515 1.453 3.832-2.875 4.414-8.491 7.248-12.957.991-1.562 2.258-2.984 4.039-4.096.094-.059.188-.119.286-.175a10.694 10.694 0 0 1 .502-.282l.26-.133c.091-.046.18-.09.27-.132.09-.044.18-.086.275-.127l.03-.015c.27-.119.549-.232.836-.34L31.144 8.633c-.626 6.731-1.739 9.66-7.576 9.588-6.714-.084-10.25-5.814-9.394-11.884.305-2.142 1.015-3.794-1.526-4.917C10.16.322 7.203 2.914 5.43 5.595 3.157 9.027.463 15.22.07 19.453" fill="#F6CD6C"/>
        <path d="M38.955 17.59c.202 1.22.064 2.486-.29 3.786-.457 1.662-1.22 3.372-1.286 5.106.991-1.562 2.258-2.985 4.039-4.096.094-.059.188-.119.286-.175a10.695 10.695 0 0 1 .502-.282c.084-.046.173-.091.26-.133a5.61 5.61 0 0 1 .27-.132c.09-.044.18-.086.275-.127.01-.006.02-.01.031-.015.075-.032.15-.066.227-.098-1.595-1.066-3.017-2.394-4.314-3.834M2.908 27.36C5 30.462 7.3 32.44 10.543 34.298c3.442 1.973 8.122 3.156 12.082 3.581 1.986.214 4.019.239 5.995-.103 1.569-.27 2.868-1.14 4.303-1.733-.693 1.293-1.554 2.467-2.792 3.396-6.333 4.753-15.174 1.136-19.516-1.452C3.54 33.769-.393 26.826.033 19.957c.49 3.152 1.473 5.324 2.875 7.403" fill="#EBE7E4"/>
        <path d="M53.768 22.076c-3.325 3.426-10.359 4.38-14.31-2.708-.754-1.351-1.173-3.471-1.264-4.678 2.203 2.349 6.086 3.293 9.829 2.527 2.39 5.377 5.745 4.859 5.745 4.859" fill="#F37F5D"/>
        <path d="M49.175 20.874c-.798-.68-1.493-1.619-2.501-2.037-1.048-.435-2.187-.583-3.234-1.035a14.904 14.904 0 0 1-1.926-.993c1.958.71 4.257.868 6.508.408 2.39 5.377 5.746 4.859 5.746 4.859-.238.247-.498.48-.773.698-1.446-.018-2.73-.973-3.82-1.9" fill="#B8A17E"/>
        <path d="M39.515 15.804c.097 1.079.266 2.187.886 3.092.933 1.358 2.403 2.592 3.789 3.459 2.108 1.32 4.732 1.944 7.18 1.44-3.629 1.765-8.754 1.238-11.912-4.427-.754-1.351-1.173-3.471-1.264-4.678.39.417.833.788 1.321 1.114" fill="#EBE7E4"/>
        <path d="M39.5 8.967c-.511 1.108-.286 2.304.505 2.67.795.366 1.851-.235 2.363-1.342.514-1.11.287-2.305-.503-2.671-.794-.366-1.85.235-2.365 1.343" fill="#534846"/>
        <path d="M40.423 10.468c.593.394 1.27.464 1.806.09-.548.936-1.497 1.415-2.224 1.078-.755-.35-.994-1.458-.566-2.522.196.532.528 1.05.984 1.354" fill="#D9D6D4"/>
        <path d="M40.518 7.9a.55.55 0 1 0 1 .464.55.55 0 0 0-.265-.734.554.554 0 0 0-.735.27M40.929 10.99a.28.28 0 0 0 .136.368.275.275 0 0 0 .365-.135.274.274 0 0 0-.133-.367.278.278 0 0 0-.368.135" fill="#E6E2DD"/>
        <path d="M10.896 1.992c-1.268.247-1.474 1.406-.987 1.947.83.924 2.201.668 2.155 2.639-.016.563-.283 1.917.26 2.291.816.561.933-.95.967-1.428.103-1.454.614-3.35-.188-4.695-.477-.806-1.328-.925-2.207-.754" fill="#C5C4B7"/>
    </g>
</svg>
