<svg width="48.225" height="55.66" viewBox="0 0 48.225 55.66" xmlns="http://www.w3.org/2000/svg" xmlns:xlink="http://www.w3.org/1999/xlink">
    <defs>
        <path id="tsj7ac1msa" d="M0 0h48.225v53.06H0z"/>
    </defs>
    <g fill="none" fill-rule="evenodd">
        <g transform="translate(0 2.6)">
            <mask id="0zihcshy6b" fill="#fff">
                <use xlink:href="#tsj7ac1msa"/>
            </mask>
            <path d="M17.99 30.432c.032-.046.064-.094.106-.138 2.682-2.685 2.825-4.068 2.825-4.068-.523-.742-4.124.339-4.842-.126-1.083-.702-1.032-2.721-1.189-3.852-.595-4.368-.077-8.967 2.013-12.889 1.953-3.67 5.29-5.758 8.712-7.886.135-.084.256-.444.13-.747-.13-.31-.883-.597-1.312-.651-.805-.104-1.656-.055-2.468-.072-.454-.009-.908 0-1.36.03-1.631.107-3.267.4-4.844.83a20.67 20.67 0 0 0-1.863.604C2.8 5.654-3.533 19.623 2.087 34.523 7.707 49.422 21.72 55.897 33.963 51.9c5.684-1.856 11.061-5.356 13.933-11.453.166-.358.462-1.203.262-1.408-.245-.255-.842.02-1.116.137-.533.228-.822.34-1.37.527-3.995 1.369-7.958 2.628-12.234 2.288-3.899-.31-7.525-1.9-10.691-4.148-2.014-1.432-2.828-2.653-4.037-4.806-.521-.927-1.325-1.738-.72-2.606" fill="#F6CD6C" mask="url(#0zihcshy6b)"/>
        </g>
        <path d="M40.483 49.612c-5.133 2.36-8.437 3.715-14.178 3.61-2.692-.05-6.927-.83-9.42-1.898-2.267-.97-4.315-2.443-6.196-4.024a47.258 47.258 0 0 1-7.985-8.66c5.977 13.816 19.44 19.72 31.259 15.862 5.135-1.676 10.009-4.7 13.023-9.76-2.014 1.525-4.23 3.824-6.503 4.87" fill="#E4E1E1"/>
        <path d="M13.898 38.232c.047.603.81 1.235 1.303 1.423 1.217.466 2.458-.158 2.86-1.332M9.559 27.943c1.21.99 3.485.676 4.6-.757" stroke="#E5A02D" stroke-width="4.049" stroke-linecap="round" stroke-linejoin="round"/>
        <path d="M28.625 14.591c-.412.174-1.263-.133-1.414-.42-.908-1.687-3.465-10.273-9.886-2.232-.426.535-.72 1.296-1.408.839-1.614-1.08-3.668-2.589-4.916-3.805-.837-.817-1.518-1.62-2.525-2.176a.29.29 0 0 1-.062-.03 1.643 1.643 0 0 0-.168-.085.401.401 0 0 0-.088-.042l-.049-.025.014-.059c.074-.21.333-.607.54-.912.003-.003.006-.01.013-.017.101-.147.188-.269.237-.331.23-.312.454-.605.674-.88.014-.018.027-.039.046-.057a20.047 20.047 0 0 1 .521-.636c.059-.066.114-.132.175-.199.17-.192.344-.38.52-.558 1.225-1.24 2.521-2.058 4.394-2.63.979-.298 2.035-.322 3.05-.333 1.187-.018 2.34.029 3.462.458 1.103.426 2.107 1.093 3.052 1.795.038.028.074.056.112.088 3.085 2.347 3.923 6.347 4.155 9.05.1 1.174.452 2.809-.45 3.197" fill="#E16C57"/>
        <path d="M8.463 5.883c-.172.25-.31.506-.354.735 1.216.548 1.956 1.443 2.892 2.357 1.248 1.216 3.304 2.724 4.916 3.802.552.367.826-.067 1.152-.515-2.318-2.561-5.516-4.856-8.606-6.38" fill="#E4E1E1"/>
        <path d="M15.751 15.454c-.205-.13-.397-.255-.583-.376-.206-.135-.399-.266-.584-.39a35.74 35.74 0 0 1-1.007-.702l-.087-.064c-.162-.117-.32-.23-.478-.347l-.087-.065c-.335-.245-.671-.495-1.014-.76-.183-.135-.368-.277-.563-.421a86.65 86.65 0 0 0-1.08-.817c-.049-.041-.099-.079-.15-.116l-.065-.048c-.1-.075-.22-.16-.351-.253-.047-.036-.101-.07-.152-.108-.285-.2-.622-.432-.963-.674-.192-.132-.38-.269-.567-.409-.299-.213-.587-.43-.837-.639a7.704 7.704 0 0 1-.531-.478 2.003 2.003 0 0 1-.17-.192c-.395-.49.467-1.395.925-1.998.163-.219.455-.25.82-.156.209.054.439.148.686.271.29.145.602.329.918.535.193.126.388.257.584.398.374.267.746.547 1.087.814l.158.127.25.197c.046.036.092.074.135.11.424.343.76.618.93.74l.138.103c.178.128.37.267.565.41a102.328 102.328 0 0 1 1.103.84c.156.124.308.241.46.364.033.022.064.05.095.073.403.328.788.654 1.128.958.19.172.365.337.513.492.069.062.126.128.188.19.575.624-.908 2.05-1.414 2.391" fill="#E16C57"/>
        <path d="M8.422 10.191a23.04 23.04 0 0 1-.567-.408c.487-.84 1.142-1.88 1.813-2.658.192.127.387.257.582.399-.542.61-1.18 1.546-1.828 2.667M10.119 11.396l-.066-.048c-.1-.075-.22-.16-.351-.252-.047-.037-.101-.07-.152-.108.483-.835 1.127-1.854 1.79-2.62.105.072.211.142.32.218l.25.197c-.535.604-1.16 1.517-1.791 2.613M13.49 13.922c-.162-.117-.32-.23-.478-.347l-.087-.065c.479-.824 1.113-1.831 1.767-2.596.028.026.059.05.089.071.156.125.308.243.46.365-.526.606-1.134 1.503-1.751 2.572" fill="#E4E1E1"/>
        <path d="M7.183 9.265a7.704 7.704 0 0 1-.531-.478c.44-.744.998-1.617 1.575-2.346.209.054.44.148.686.271-.52.619-1.12 1.506-1.73 2.553M8.587 10.313c-.192-.132-.38-.269-.567-.409.486-.84 1.142-1.88 1.811-2.657.193.126.388.257.584.398-.544.612-1.182 1.547-1.828 2.668M10.268 11.512a15.991 15.991 0 0 0-.567-.416l.007-.009c.543-.841 1.268-1.966 1.794-2.628.192.152.375.297.543.435-.504.63-1.214 1.743-1.747 2.57l-.03.048zM11.348 12.329l.013-.014c.528-.822 1.227-1.911 1.752-2.58l.565.411c-.503.634-1.204 1.728-1.729 2.546l-.038.058c-.183-.135-.368-.277-.563-.421M13.577 13.986c-.193-.139-.38-.274-.565-.411a67.727 67.727 0 0 0 1.769-2.59l.555.438a74.045 74.045 0 0 1-1.759 2.563M16.977 12.873c-.486.663-1.23 1.531-1.81 2.205-.204-.135-.398-.266-.583-.39l.019-.021c.598-.7 1.388-1.627 1.86-2.286.19.172.366.337.514.492" fill="#F37F5D"/>
        <path d="M26.663 13.847c-1.046 1.355.354 3.67 2.029 3.318 1.6-.337 2.317-2.846.905-3.82-.486-.334-1.115-.49-1.687-.32-.467.141-.941.427-1.247.822" fill="#E16C57"/>
    </g>
</svg>
