<svg width="38.259" height="40.477" viewBox="0 0 38.259 40.477" xmlns="http://www.w3.org/2000/svg">
    <g fill="none" fill-rule="evenodd">
        <path d="M31.887 34.749c-2.323 2.105-5.44 3.45-8.397 2.234-3.096-1.273-4.99-4.591-4.285-7.889.36-1.664 1.443-4.264 2.733-5.423 3.588-3.22 9.937-2.843 12.238.872 2.28 3.676.679 7.514-2.289 10.206M20.26 21.803c-4.724 4.243-5.434 11.155-1.588 15.44 3.847 4.283 10.793 4.317 15.522.073 4.723-4.243 5.435-11.155 1.589-15.44-3.848-4.283-10.798-4.317-15.523-.073" fill="#F289A3"/>
        <path d="M33.356 36.52c-2.585 2.216-6.502 4.028-10.062 3.568 3.56.993 7.73.074 10.9-2.772 2.565-2.305 3.945-5.398 4.055-8.43-.722 2.963-2.604 5.672-4.893 7.634" fill="#EBE7E4"/>
        <path d="M21.431 35.69c-1.817-1.625-2.76-4.116-2.226-6.596.36-1.664 1.443-4.264 2.733-5.423 3.423-3.073 9.355-2.868 11.894.383a5.65 5.65 0 0 1 2.529-1.462 9.966 9.966 0 0 0-.579-.716c-3.846-4.284-10.797-4.317-15.522-.074-4.724 4.244-5.434 11.156-1.588 15.44.207.232.428.45.653.656a9.159 9.159 0 0 1 2.106-2.208" fill="#DFDCD9"/>
        <path d="M28.992 13.511a1.971 1.971 0 1 1-2.63-2.935 1.971 1.971 0 0 1 2.63 2.935M10.533 30.09A1.972 1.972 0 1 1 7.9 27.155a1.972 1.972 0 0 1 2.634 2.934M32.97 7.573c-3.34-3.307-8.115-3.466-11.205-.018-1.275 1.425-1.834 2.968-2.471 4.72a13.617 13.617 0 0 1-4.14 5.825c-1.742 1.432-3.833 2.424-6.085 2.771-2.045.314-4.452 1.793-5.637 3.825-1.437 2.467.131 6.575 1.731 8.672 3.061 4.009 9.057 3.156 13.03 1.333C25.476 31.36 42.18 16.69 32.969 7.573" fill="#F499B4"/>
        <path d="M9.068 20.871c-2.045.314-4.452 1.793-5.638 3.825-1.436 2.466.132 6.575 1.732 8.672a6.807 6.807 0 0 0 2.433 1.998c-1.071-1.129-1.978-2.402-2.606-3.822-.781-1.48-1.218-3.36-.962-4.921.35-2.153 1.33-3.51 3.105-4.565.905-.538 1.936-1.187 3.224-1.46a11.89 11.89 0 0 1-1.288.273" fill="#BFC2BB"/>
        <path d="M32.969 7.573c-1.013-1.004-2.158-1.715-3.35-2.127 1.675 1.274 3.008 3.448 3.687 4.97 1.429 3.21.352 6.734-1.34 9.626-1.933 3.299-4.58 6.16-7.38 8.741-3.512 3.236-7.573 5.81-12.057 7.408 1.998-.14 4.008-.73 5.663-1.49C25.476 31.36 42.18 16.69 32.969 7.573" fill="#EBE7E4"/>
        <path d="M24.564 20.011c-.147-1.968-2.326-3.216-3.69-4.326-4.15-3.382-3.913-9.447-7.343-13.267C7.59-4.199-1.303 4.273.161 9.8c1.421 5.367 6.404 6.66 9.909 8.554 3.72 2.012 4.18 6.68 7.473 8.012 2.204.892 7.28-2.819 7.02-6.355" fill="#F3CA98"/>
        <path d="M13.531 2.418C10.33-1.147 6.273-.332 3.438 2.044c1.224-.341 3.119-.772 4.3-.574 3.077.513 5.451 2.848 6.587 5.689.756 1.895.74 3.68 1.674 5.506.522 1.02 1.261 2.35 2.2 3.038.783.574 2.421 1.73 3.222 2.279 2.58 1.776 2.16 4.76.279 7.09 1.638-1.262 3-3.186 2.864-5.06-.147-1.97-2.326-3.217-3.69-4.327-4.15-3.382-3.913-9.447-7.343-13.267" fill="#EBE7E4"/>
        <path d="M9.688 16.352c-.222.07-.56-.047-1.038-.4a114.686 114.686 0 0 1-3.579-2.779c-1.388-1.115-3.131-2.67-3.326-4.557-.116-1.096.32-2.478.89-3.41 1.11-1.816 4.298-3.254 5.603-.85 1.009 1.854-.641 2.83-.606 5.05.026 1.636 1.617 3.074 2.073 4.172.352.846 1.128 2.412-.017 2.774" fill="#BFC2BB"/>
    </g>
</svg>
