<?xml version="1.0" encoding="UTF-8"?>
<svg width="21px" height="20px" viewBox="0 0 21 20" version="1.1" xmlns="http://www.w3.org/2000/svg" xmlns:xlink="http://www.w3.org/1999/xlink">
    <title>565423</title>
    <g id="Mobile-design" stroke="none" stroke-width="1" fill="none" fill-rule="evenodd">
        <g id="Zoom-Msite-Article-Updated-Copy" transform="translate(-78.000000, -813.000000)" fill="#FFFFFF" fill-rule="nonzero">
            <g id="notifications" transform="translate(16.000000, 802.000000)">
                <g id="Group-7" transform="translate(62.000000, 9.000000)">
                    <g id="565423" transform="translate(0.000000, 2.038369)">
                        <path d="M18.3660911,8.18546763 L20.41247,8.18546763 C20.2589928,4.90613909 18.6423501,2.02076739 16.1918465,0.153477218 L14.7338129,1.61151079 C16.8108873,3.10023981 18.20753,5.4740048 18.3660911,8.18546763 Z" id="Shape"></path>
                        <path d="M5.68378897,1.61664269 L4.2206235,0.153477218 C1.7701199,2.02076739 0.153477218,4.90613909 0,8.18546763 L2.0463789,8.18546763 C2.20494005,5.4740048 3.60158273,3.10023981 5.68378897,1.61664269 Z" id="Shape"></path>
                        <path d="M16.3453237,8.69702638 C16.3453237,5.55074341 14.6724221,2.92628297 11.7410072,2.2305036 L11.7410072,1.53477218 C11.7410072,0.685515588 11.0554916,0 10.206235,0 C9.35697842,0 8.67146283,0.685515588 8.67146283,1.53477218 L8.67146283,2.23055156 C5.74004796,2.92633094 4.06714628,5.55079137 4.06714628,8.69707434 L4.06714628,13.8129496 L2.02076739,15.8593285 L2.02076739,16.882494 L18.3916547,16.882494 L18.3916547,15.8593285 L16.3453237,13.8129496 L16.3453237,8.69702638 Z" id="Shape"></path>
                        <path d="M10.206235,19.9520384 L10.206235,19.9520384 C10.3494964,19.9520384 10.4876259,19.9366906 10.6206235,19.9111271 C11.2857074,19.7729976 11.8330935,19.3125659 12.0940048,18.703789 C12.196307,18.4582254 12.2526139,18.1921823 12.2526139,17.9057074 L8.15990408,17.9057074 C8.15985612,19.036307 9.07563549,19.9520384 10.206235,19.9520384 Z" id="Shape"></path>
                    </g>
                </g>
            </g>
        </g>
    </g>
</svg>