<svg width="79.281" height="40.667" viewBox="0 0 79.281 40.667" xmlns="http://www.w3.org/2000/svg" xmlns:xlink="http://www.w3.org/1999/xlink">
    <defs>
        <path id="3xclc0oa1a" d="M0 0h79.28v27.12H0z"/>
    </defs>
    <g fill="none" fill-rule="evenodd">
        <path d="M63.878 32.818c3.786 3.343 13.267 1.394 14.708-4.236.93-3.635 1.247-8.295-1.13-11.46-2.544-3.388-6.584-2.775-10.28-2.42.292-3.496.227-10.746-8.965-14.06-7.453-2.685-14.044 3.697-15.526 7.114-4.708-4.891-17.067-3.315-19.454 3.838C15.173 5.383-.036 10.834 0 23.822.02 31.668 5.91 37.78 14.494 38.16c2.265.101 4.704-.015 6.84-.832.451-.171 4.017-2.002 3.691-2.405.002.001 1.343 2.101 4.211 3.83 5.297 3.192 15.134 2.571 19.84-3.227 9.367 5.96 14.802-2.708 14.802-2.708" fill="#F7F7F7"/>
        <g transform="translate(0 13.546)">
            <mask id="6sqn3avgfb" fill="#fff">
                <use xlink:href="#3xclc0oa1a"/>
            </mask>
            <path d="M4.182 0C1.557 8.198 2.655 13.208 6.688 16.575c4.362 3.641 11.274 4.68 16.594 2.162.65-.308 2.26-1.6 2.627-1.643.372-.043 1.58 2.013 2.793 3.096 1.876 1.675 4.437 2.852 7.032 3.243 3.907.59 7.826-.984 10.803-3.465.44-.368.802-.809 1.212-1.208.436-.426.77-.75 1.406-.494.78.314 1.48.818 2.267 1.139 1.474.6 2.988 1.141 4.608.916a7.287 7.287 0 0 0 2.745-.983c1.5-.897 3.46-3.704 5.35-3.12 1.861.574 3.535 2.205 5.552 2.11 7.139-.336 10.42-7.087 8.543-13.51 1.524 3.064 1.181 7.034.366 10.217-1.44 5.63-10.922 7.58-14.708 4.237 0 0-5.435 8.667-14.803 2.708-4.705 5.798-14.542 6.419-19.839 3.227-2.868-1.73-4.21-3.829-4.21-3.83.325.403-3.241 2.233-3.692 2.405-2.136.816-4.575.933-6.84.832C5.909 24.232.02 18.12 0 10.276-.013 5.97 1.657 2.498 4.182 0" fill="#D1E5EF" mask="url(#6sqn3avgfb)"/>
        </g>
    </g>
</svg>
