<svg xmlns="http://www.w3.org/2000/svg" width="16" height="16" viewBox="0 0 16 16">
    <g fill="none" fill-rule="evenodd">
        <g>
            <g>
                <path fill="#0A0A0A" d="M16 8L14.315 9.479 15.209 11.561 13.064 12.141 12.988 14.414 10.81 13.985 9.78 16 8 14.641 6.22 16 5.19 13.985 3.012 14.414 2.936 12.141 0.791 11.561 1.685 9.479 0 8 1.685 6.521 0.791 4.439 2.936 3.859 3.012 1.586 5.19 2.015 6.22 0 8 1.359 9.78 0 10.81 2.015 12.988 1.586 13.064 3.859 15.209 4.439 14.315 6.521z" transform="translate(-280 -15) translate(280 15)"/>
                <g fill="#FFF" fill-rule="nonzero">
                    <path d="M4.79 9.58c1.832.019 3.507-1.037 4.278-2.7-.485.212-1.012.316-1.541.305-2.078-.003-3.761-1.686-3.763-3.763.02-1.406.796-2.69 2.029-3.365C5.46.015 5.125-.004 4.79.001 2.145 0 0 2.145 0 4.79c0 2.645 2.145 4.79 4.79 4.79z" transform="translate(-280 -15) translate(280 15) translate(3.2 3.2)"/>
                </g>
            </g>
        </g>
    </g>
</svg>
