<?xml version="1.0" encoding="UTF-8"?>
<svg width="12px" height="12.0000668px" viewBox="0 0 12 12.0000668" version="1.1" xmlns="http://www.w3.org/2000/svg" xmlns:xlink="http://www.w3.org/1999/xlink">
    <title>Rectangle 12</title>
    <defs>
        <path d="M11.5137737,4.18926696 L8.00722656,4.18926696 C7.7975324,4.19048886 7.61070652,4.04900273 7.54367921,3.83821536 L6.46354735,0.35146361 C6.39573076,0.141241028 6.20944716,0 6,0 C5.79055284,0 5.60426924,0.141241028 5.53645265,0.35146361 L4.45632079,3.83821536 C4.38929348,4.04900273 4.2024676,4.19048886 3.99277344,4.18926696 L0.486226254,4.18926696 C0.277881595,4.18430731 0.0907677911,4.3238381 0.0246226619,4.5334848 C-0.0415224673,4.74313151 0.0287146698,4.97404084 0.197895366,5.1031305 L3.04349944,7.27202702 C3.21162982,7.39869484 3.28261395,7.6266073 3.2187159,7.83460368 L2.13414817,11.3368845 C2.08753691,11.4931131 2.11461727,11.6635903 2.20691765,11.7949855 C2.29921804,11.9263807 2.44546709,12.0026484 2.59991345,12 C2.70290601,11.9994204 2.8030878,11.9642416 2.88602641,11.8994612 L5.71166911,9.74609374 C5.8841142,9.61528162 6.1158858,9.61528162 6.28833089,9.74609374 L9.11397359,11.8994612 C9.1969122,11.9642416 9.29709399,11.9994204 9.40008655,12 C9.55453291,12.0026484 9.70078196,11.9263807 9.79308235,11.7949855 C9.88538273,11.6635903 9.91246309,11.4931131 9.86585183,11.3368845 L8.7812841,7.83460368 C8.71738605,7.6266073 8.78837018,7.39869484 8.95650056,7.27202702 L11.8021046,5.1031305 C11.9712853,4.97404084 12.0415225,4.74313151 11.9753773,4.5334848 C11.9092322,4.3238381 11.7221184,4.18430731 11.5137737,4.18926696 L11.5137737,4.18926696 Z" id="path-1"></path>
        <path d="M11.5137737,4.18926696 L8.00722656,4.18926696 C7.7975324,4.19048886 7.61070652,4.04900273 7.54367921,3.83821536 L6.46354735,0.35146361 C6.39573076,0.141241028 6.20944716,0 6,0 C5.79055284,0 5.60426924,0.141241028 5.53645265,0.35146361 L4.45632079,3.83821536 C4.38929348,4.04900273 4.2024676,4.19048886 3.99277344,4.18926696 L0.486226254,4.18926696 C0.277881595,4.18430731 0.0907677911,4.3238381 0.0246226619,4.5334848 C-0.0415224673,4.74313151 0.0287146698,4.97404084 0.197895366,5.1031305 L3.04349944,7.27202702 C3.21162982,7.39869484 3.28261395,7.6266073 3.2187159,7.83460368 L2.13414817,11.3368845 C2.08753691,11.4931131 2.11461727,11.6635903 2.20691765,11.7949855 C2.29921804,11.9263807 2.44546709,12.0026484 2.59991345,12 C2.70290601,11.9994204 2.8030878,11.9642416 2.88602641,11.8994612 L5.71166911,9.74609374 C5.8841142,9.61528162 6.1158858,9.61528162 6.28833089,9.74609374 L9.11397359,11.8994612 C9.1969122,11.9642416 9.29709399,11.9994204 9.40008655,12 C9.55453291,12.0026484 9.70078196,11.9263807 9.79308235,11.7949855 C9.88538273,11.6635903 9.91246309,11.4931131 9.86585183,11.3368845 L8.7812841,7.83460368 C8.71738605,7.6266073 8.78837018,7.39869484 8.95650056,7.27202702 L11.8021046,5.1031305 C11.9712853,4.97404084 12.0415225,4.74313151 11.9753773,4.5334848 C11.9092322,4.3238381 11.7221184,4.18430731 11.5137737,4.18926696 L11.5137737,4.18926696 Z" id="path-3"></path>
    </defs>
    <g id="Page-1" stroke="none" stroke-width="1" fill="none" fill-rule="evenodd">
        <g id="Times-HP-NewSection-03" transform="translate(-302.0312, -1900)">
            <g id="Group-99" transform="translate(-94, 1118)">
                <g id="entertainment" transform="translate(94, 212)">
                    <g id="Group-97" transform="translate(200.0446, 525.5403)">
                        <g id="Group-96" transform="translate(15.9554, 1)">
                            <g id="1" transform="translate(0, 11.4597)">
                                <g id="Group-3" transform="translate(0, 29)">
                                    <g id="Group-2" transform="translate(86.0312, 0)">
                                        <g id="Rectangle-12" transform="translate(0, 3)">
                                            <mask id="mask-2" fill="white">
                                                <use xlink:href="#path-1"></use>
                                            </mask>
                                            <path stroke="#D4A904" stroke-width="0.5" d="M5.77437886,0.428217234 C6.0133784,0.27950202 6.08615308,0.25995377 6.13384117,0.296111085 C6.17591613,0.328012505 6.20810993,0.373934763 6.22474328,0.42544074 L7.30543425,3.91397378 C7.35526858,4.07069268 7.45026429,4.20109144 7.57102135,4.29254264 C7.69574624,4.38699873 7.84796089,4.44019926 8.00722656,4.43926696 L11.5197233,4.43919615 C11.5670528,4.43806947 11.6117173,4.45391796 11.6484525,4.48131138 C11.6892679,4.51174748 11.7203725,4.55612488 11.7369624,4.60870653 C11.7545006,4.66429381 11.7539493,4.72269906 11.7378083,4.77576369 C11.7225136,4.82604592 11.6931005,4.87183873 11.6505577,4.9043001 L8.80606765,7.07235244 C8.67990545,7.16740184 8.58942965,7.30001408 8.54319067,7.448476 C8.49783127,7.59411379 8.49521693,7.75473567 8.54247281,7.90855749 L9.46408825,10.8846336 L6.41367494,9.52822802 C6.28810236,9.44107809 6.1439424,9.39798465 6,9.39798465 C5.84611597,9.39798465 5.69198327,9.4472363 5.56013619,9.54725266 L3.18098547,11.3603572 L3.46588427,7.8794146 C3.50429425,7.73486605 3.49935501,7.58507964 3.45680933,7.448476 C3.41057035,7.30001408 3.32009455,7.16740184 3.19504637,7.07319662 L0.349547419,4.90438026 C0.306899545,4.87183873 0.277486386,4.82604592 0.262191726,4.77576369 C0.246050723,4.72269906 0.245499409,4.66429381 0.263037618,4.60870653 C0.279627528,4.55612488 0.310732068,4.51174748 0.351547542,4.48131138 C0.388282705,4.45391796 0.432947182,4.43806947 0.486226254,4.43926696 L3.99131669,4.43926271 C4.15203911,4.44019926 4.30425376,4.38699873 4.42897865,4.29254264 C4.54973571,4.20109144 4.64473142,4.07069268 4.69512486,3.91219249 Z"></path>
                                            <mask id="mask-4" fill="white">
                                                <use xlink:href="#path-3"></use>
                                            </mask>
                                            <path stroke="#E70437" stroke-width="0.5" d="M5.77437886,0.428217234 C6.0133784,0.27950202 6.08615308,0.25995377 6.13384117,0.296111085 C6.17591613,0.328012505 6.20810993,0.373934763 6.22474328,0.42544074 L7.30543425,3.91397378 C7.35526858,4.07069268 7.45026429,4.20109144 7.57102135,4.29254264 C7.69574624,4.38699873 7.84796089,4.44019926 8.00722656,4.43926696 L11.5197233,4.43919615 C11.5670528,4.43806947 11.6117173,4.45391796 11.6484525,4.48131138 C11.6892679,4.51174748 11.7203725,4.55612488 11.7369624,4.60870653 C11.7545006,4.66429381 11.7539493,4.72269906 11.7378083,4.77576369 C11.7225136,4.82604592 11.6931005,4.87183873 11.6505577,4.9043001 L8.80606765,7.07235244 C8.67990545,7.16740184 8.58942965,7.30001408 8.54319067,7.448476 C8.49783127,7.59411379 8.49521693,7.75473567 8.54247281,7.90855749 L9.46408825,10.8846336 L6.41367494,9.52822802 C6.28810236,9.44107809 6.1439424,9.39798465 6,9.39798465 C5.84611597,9.39798465 5.69198327,9.4472363 5.56013619,9.54725266 L3.18098547,11.3603572 L3.46588427,7.8794146 C3.50429425,7.73486605 3.49935501,7.58507964 3.45680933,7.448476 C3.41057035,7.30001408 3.32009455,7.16740184 3.19504637,7.07319662 L0.349547419,4.90438026 C0.306899545,4.87183873 0.277486386,4.82604592 0.262191726,4.77576369 C0.246050723,4.72269906 0.245499409,4.66429381 0.263037618,4.60870653 C0.279627528,4.55612488 0.310732068,4.51174748 0.351547542,4.48131138 C0.388282705,4.45391796 0.432947182,4.43806947 0.486226254,4.43926696 L3.99131669,4.43926271 C4.15203911,4.44019926 4.30425376,4.38699873 4.42897865,4.29254264 C4.54973571,4.20109144 4.64473142,4.07069268 4.69512486,3.91219249 Z"></path>
                                        </g>
                                    </g>
                                </g>
                            </g>
                        </g>
                    </g>
                </g>
            </g>
        </g>
    </g>
</svg>