<?xml version="1.0" encoding="UTF-8"?>
<svg width="55px" height="44px" viewBox="0 0 55 44" version="1.1" xmlns="http://www.w3.org/2000/svg" xmlns:xlink="http://www.w3.org/1999/xlink">
    <title>ET Now</title>
    <g id="Times-Web" stroke="none" stroke-width="1" fill="none" fill-rule="evenodd">
        <g id="TN-web-LiveTV" transform="translate(-493.000000, -845.000000)">
            <g id="live-tv-01" transform="translate(180.000000, 360.000000)">
                <g id="ET-Now" transform="translate(313.000000, 485.000000)">
                    <polygon id="Fill-17" fill="#FEFEFE" points="0 44 54.0145278 44 54.0145278 0 0 0"></polygon>
                    <polygon id="Fill-18" fill="#BE1F24" points="0 31.8547215 54.0145278 31.8547215 54.0145278 0 0 0"></polygon>
                    <polygon id="Fill-19" fill="#FEFEFE" points="4.15496368 3.94188862 24.7507123 3.94188862 24.7507123 10.3996118 11.815794 10.3996118 11.815794 13.5615278 23.558644 13.5615278 23.558644 19.5719699 11.815794 19.5719699 11.815794 22.7338859 25.1428571 22.7338859 25.1428571 29.1912833 4.15496368 29.1912833"></polygon>
                    <polygon id="Fill-20" fill="#FEFEFE" points="35.3141061 10.3995285 28.3389831 10.3995285 28.3389831 3.94188862 49.9661017 3.94188862 49.9661017 10.3995285 42.9805486 10.3995285 42.9805486 29.1912833 35.3141061 29.1912833"></polygon>
                    <polygon id="Fill-21" fill="#BE1F24" points="0 44 17.68523 44 17.68523 32.1743341 0 32.1743341"></polygon>
                    <polygon id="Fill-22" fill="#FEFEFE" points="2.4503632 33.6658596 6.8779356 33.6658596 12.2451832 40.3223375 12.2708965 40.3223375 12.2708965 33.6658596 15.1283293 33.6658596 15.1283293 42.8280872 10.7007569 42.8280872 5.3335093 36.1716092 5.30779598 36.1716092 5.30779598 42.8280872 2.4503632 42.8280872"></polygon>
                    <polygon id="Fill-23" fill="#BE1F24" points="18.1113801 44 35.9031477 44 35.9031477 32.1743341 18.1113801 32.1743341"></polygon>
                    <path d="M23.4942494,38.7411142 C23.4942494,39.0702152 23.5153911,39.3536531 23.5583248,39.5897969 C23.6012586,39.8265931 23.6825725,40.0164215 23.8029172,40.1602605 C23.9226113,40.3037733 24.090118,40.4091248 24.3044616,40.4766411 C24.5188051,40.5444835 24.793321,40.5780786 25.1273587,40.5780786 L28.7803064,40.5780786 C29.1146693,40.5780786 29.3891852,40.5444835 29.6035287,40.4766411 C29.817547,40.4091248 29.9847285,40.3037733 30.1050731,40.1602605 C30.2247673,40.0164215 30.3064065,39.8265931 30.3493402,39.5897969 C30.392274,39.3536531 30.4134156,39.0702152 30.4134156,38.7411142 L30.4134156,37.7528326 C30.4134156,37.4658069 30.3899972,37.2104192 30.3428351,36.9863435 C30.295673,36.7629201 30.207854,36.5704824 30.0793779,36.410009 C29.9505766,36.2495355 29.7707102,36.1268973 29.5391281,36.0424204 C29.307546,35.9582697 29.0031066,35.915542 28.6258099,35.915542 L25.2821805,35.915542 C24.9042332,35.915542 24.6001191,35.9582697 24.368537,36.0424204 C24.1372801,36.1268973 23.9570884,36.2495355 23.8286124,36.410009 C23.6998111,36.5704824 23.611992,36.7629201 23.5648299,36.9863435 C23.5176679,37.2104192 23.4942494,37.4658069 23.4942494,37.7528326 L23.4942494,38.7411142 Z M20.5617433,36.8787089 C20.5617433,36.2117003 20.6537907,35.6624375 20.8382108,35.2315728 C21.0223055,34.8007081 21.2925931,34.4611698 21.6484229,34.2116531 C22.0039275,33.9627888 22.4352166,33.7918781 22.9409894,33.6985947 C23.4467621,33.6059637 24.0214891,33.559322 24.6645197,33.559322 L29.2431453,33.559322 C29.8865013,33.559322 30.4605777,33.6059637 30.9666757,33.6985947 C31.4724484,33.7918781 31.9034123,33.9627888 32.2592422,34.2116531 C32.615072,34.4611698 32.8850343,34.8007081 33.0694543,35.2315728 C33.2538743,35.6624375 33.346247,36.2117003 33.346247,36.8787089 L33.346247,39.6152379 C33.346247,40.2910529 33.2538743,40.8422727 33.0694543,41.2685711 C32.8850343,41.6951956 32.615072,42.0331031 32.2592422,42.2822936 C31.9034123,42.5314841 31.4724484,42.702721 30.9666757,42.795352 C30.4605777,42.887983 29.8865013,42.9346247 29.2431453,42.9346247 L24.6645197,42.9346247 C24.0214891,42.9346247 23.4467621,42.887983 22.9409894,42.795352 C22.4352166,42.702721 22.0039275,42.5314841 21.6484229,42.2822936 C21.2925931,42.0331031 21.0223055,41.6951956 20.8382108,41.2685711 C20.6537907,40.8422727 20.5617433,40.2910529 20.5617433,39.6152379 L20.5617433,36.8787089 Z" id="Fill-24" fill="#FEFEFE"></path>
                    <polygon id="Fill-25" fill="#BE1F24" points="36.2227603 44 54.0145278 44 54.0145278 32.1743341 36.2227603 32.1743341"></polygon>
                    <polygon id="Fill-26" fill="#FEFEFE" points="36.6489104 33.6658596 39.4512126 33.6658596 41.4397009 40.3985754 41.4658265 40.3985754 43.8419541 33.6658596 46.5021981 33.6658596 48.8783257 40.3985754 48.9041248 40.3985754 50.8929396 33.6658596 53.6949153 33.6658596 50.6604214 42.8280872 47.3672836 42.8280872 45.1848124 36.7792315 45.1590133 36.7792315 42.9765421 42.8280872 39.6837309 42.8280872"></polygon>
                </g>
            </g>
        </g>
    </g>
</svg>