<?xml version="1.0" encoding="UTF-8"?>
<svg width="175px" height="34px" viewBox="0 0 175 34" version="1.1" xmlns="http://www.w3.org/2000/svg" xmlns:xlink="http://www.w3.org/1999/xlink">
    <title>ET-Now-desktop-logo</title>
    <g id="Times-Web" stroke="none" stroke-width="1" fill="none" fill-rule="evenodd">
        <g id="TN-web-Business" transform="translate(-632.000000, -140.000000)">
            <g id="ET-Now-desktop-logo" transform="translate(632.000000, 140.000000)">
                <g id="Group-27">
                    <polygon id="Fill-17" fill="#FEFEFE" points="0 34 57 34 57 0 0 0"></polygon>
                    <polygon id="Fill-18" fill="#BE1F24" points="0 34 57 34 57 0 0 0"></polygon>
                    <polygon id="Fill-19" fill="#FEFEFE" points="5 4 26.5889446 4 26.5889446 10.9054537 13.0302612 10.9054537 13.0302612 14.2865935 25.3393907 14.2865935 25.3393907 20.7137549 13.0302612 20.7137549 13.0302612 24.0948947 27 24.0948947 27 31 5 31"></polygon>
                    <polygon id="Fill-20" fill="#FEFEFE" points="37.4179012 10.9053646 30 10.9053646 30 4 53 4 53 10.9053646 45.5710066 10.9053646 45.5710066 31 37.4179012 31"></polygon>
                </g>
                <g id="Group" transform="translate(58.000000, 0.000000)">
                    <polygon id="Fill-21" fill="#BE1F24" points="0 34 36 34 36 0 0 0"></polygon>
                    <polygon id="Fill-21-Copy" fill="#BE1F24" points="37 34 71 34 71 0 37 0"></polygon>
                    <polygon id="Fill-21-Copy-2" fill="#BE1F24" points="72 34 117 34 117 0 72 0"></polygon>
                    <polygon id="Fill-22" fill="#FEFEFE" points="2 4 13.114564 4 26.5880008 23.6158524 26.6525491 23.6158524 26.6525491 4 33.8255814 4 33.8255814 31 22.7110174 31 9.23758055 11.3841476 9.17303225 11.3841476 9.17303225 31 2 31"></polygon>
                    <path d="M45,19.0902409 C45,20.1490027 45.0519438,21.06086 45.1574296,21.8205662 C45.2629154,22.582371 45.4626992,23.193074 45.7583792,23.6558232 C46.0524609,24.1175231 46.4640154,24.4564528 46.9906454,24.6736616 C47.5172754,24.8919198 48.1917454,24.9999995 49.0124571,24.9999995 L57.9875429,24.9999995 C58.8090537,24.9999995 59.4835237,24.8919198 60.0101537,24.6736616 C60.5359846,24.4564528 60.94674,24.1175231 61.24242,23.6558232 C61.5365017,23.193074 61.7370846,22.582371 61.8425704,21.8205662 C61.9480562,21.06086 62,20.1490027 62,19.0902409 L62,15.9108075 C62,14.9874077 61.9424623,14.1657918 61.8265877,13.4449103 C61.7107131,12.7261275 61.4949466,12.10703 61.1792883,11.5907655 C60.8628308,11.0745011 60.4209091,10.6799576 59.851925,10.4081842 C59.2829408,10.1374602 58.5349504,9.99999953 57.6079537,9.99999953 L49.3928454,9.99999953 C48.4642505,9.99999953 47.7170592,10.1374602 47.148075,10.4081842 C46.57989,10.6799576 46.1371692,11.0745011 45.8215108,11.5907655 C45.5050534,12.10703 45.2892869,12.7261275 45.1734123,13.4449103 C45.0575377,14.1657918 45,14.9874077 45,15.9108075 L45,19.0902409 Z M38,13.559525 C38,11.6386024 38.2303974,10.0567766 38.6920063,8.81592633 C39.1528011,7.57507607 39.829339,6.59723721 40.7199919,5.87865246 C41.6098306,5.16194637 42.6893604,4.6697393 43.9553249,4.40109193 C45.2212894,4.13432321 46.6598484,3.99999953 48.2693736,3.99999953 L59.7298122,3.99999953 C61.3401516,3.99999953 62.7770824,4.13432321 64.043861,4.40109193 C65.3098255,4.6697393 66.3885412,5.16194637 67.279194,5.87865246 C68.1698468,6.59723721 68.8455707,7.57507607 69.3071796,8.81592633 C69.7687885,10.0567766 70,11.6386024 70,13.559525 L70,21.4404741 C70,23.3867585 69.7687885,24.9742202 69.3071796,26.2019199 C68.8455707,27.4305589 68.1698468,28.4037012 67.279194,29.1213466 C66.3885412,29.838992 65.3098255,30.3321384 64.043861,30.5989071 C62.7770824,30.8656758 61.3401516,30.9999995 59.7298122,30.9999995 L48.2693736,30.9999995 C46.6598484,30.9999995 45.2212894,30.8656758 43.9553249,30.5989071 C42.6893604,30.3321384 41.6098306,29.838992 40.7199919,29.1213466 C39.829339,28.4037012 39.1528011,27.4305589 38.6920063,26.2019199 C38.2303974,24.9742202 38,23.3867585 38,21.4404741 L38,13.559525 Z" id="Fill-24" fill="#FEFEFE"></path>
                    <polygon id="Fill-26" fill="#FEFEFE" points="73 4 80.0346376 4 85.0263528 23.8405163 85.0919361 23.8405163 91.0567448 4 97.7347727 4 103.699581 23.8405163 103.764345 23.8405163 108.75688 4 115.790698 4 108.173188 31 99.9064024 31 94.4277306 13.1747386 94.362967 13.1747386 88.8842952 31 80.6183297 31"></polygon>
                </g>
            </g>
        </g>
    </g>
</svg>