<?xml version="1.0" encoding="UTF-8"?>
<svg width="37px" height="44px" viewBox="0 0 37 44" version="1.1" xmlns="http://www.w3.org/2000/svg" xmlns:xlink="http://www.w3.org/1999/xlink">
    <title>swadesh</title>
    <g id="Times-Web" stroke="none" stroke-width="1" fill="none" fill-rule="evenodd">
        <g id="TN-web-LiveTV" transform="translate(-609.000000, -845.000000)">
            <g id="live-tv-01" transform="translate(180.000000, 360.000000)">
                <g id="swadesh" transform="translate(429.000000, 485.000000)">
                    <g id="Group-37" transform="translate(0.000000, 29.395674)" fill="#F9CE15">
                        <polygon id="Fill-1" points="0 14.604326 36.0971892 14.604326 36.0971892 0 0 0"></polygon>
                    </g>
                    <g id="Group-27">
                        <polygon id="Fill-17" fill="#FEFEFE" points="0 29.4046833 36.0972746 29.4046833 36.0972746 0 0 0"></polygon>
                        <polygon id="Fill-18" fill="#BE1F24" points="0 21.2881363 36.0972746 21.2881363 36.0972746 0 0 0"></polygon>
                        <polygon id="Fill-19" fill="#FEFEFE" points="2.77671343 2.63431787 16.5406103 2.63431787 16.5406103 6.94993844 7.89635634 6.94993844 7.89635634 9.06300978 15.7439651 9.06300978 15.7439651 13.0797176 7.89635634 13.0797176 7.89635634 15.192789 16.8026762 15.192789 16.8026762 19.5081918 2.77671343 19.5081918"></polygon>
                        <polygon id="Fill-20" fill="#FEFEFE" points="23.6000024 6.94988276 18.9386096 6.94988276 18.9386096 2.63431787 33.391759 2.63431787 33.391759 6.94988276 28.7233959 6.94988276 28.7233959 19.5081918 23.6000024 19.5081918"></polygon>
                        <polygon id="Fill-21" fill="#BE1F24" points="0 29.4046833 11.8188315 29.4046833 11.8188315 21.5017297 0 21.5017297"></polygon>
                        <polygon id="Fill-22" fill="#FEFEFE" points="1.63754895 22.4984986 4.59644359 22.4984986 8.18331213 26.9469446 8.20049604 26.9469446 8.20049604 22.4984986 10.1100848 22.4984986 10.1100848 28.6215077 7.15119016 28.6215077 3.56432163 24.1730617 3.54713772 24.1730617 3.54713772 28.6215077 1.63754895 28.6215077"></polygon>
                        <polygon id="Fill-23" fill="#BE1F24" points="12.1036227 29.4046833 23.993652 29.4046833 23.993652 21.5017297 12.1036227 21.5017297"></polygon>
                        <path d="M15.700931,25.8902316 C15.700931,26.110166 15.7150597,26.2995842 15.7437518,26.4573964 C15.772444,26.6156445 15.8267851,26.7425045 15.90721,26.8386305 C15.9872002,26.9345384 16.099143,27.0049436 16.2423863,27.0500639 C16.3856295,27.0954022 16.5690853,27.1178534 16.7923187,27.1178534 L19.2335408,27.1178534 C19.4569916,27.1178534 19.6404473,27.0954022 19.7836906,27.0500639 C19.9267165,27.0049436 20.0384419,26.9345384 20.1188668,26.8386305 C20.198857,26.7425045 20.2534155,26.6156445 20.2821077,26.4573964 C20.3107998,26.2995842 20.3249285,26.110166 20.3249285,25.8902316 L20.3249285,25.2297746 C20.3249285,25.0379587 20.3092782,24.8672862 20.2777604,24.717539 C20.2462425,24.5682278 20.1875541,24.4396239 20.101695,24.3323814 C20.0156186,24.2251389 19.895416,24.1431812 19.7406524,24.0867263 C19.5858888,24.0304893 19.3824355,24.0019349 19.1302926,24.0019349 L16.8957843,24.0019349 C16.6432066,24.0019349 16.4399707,24.0304893 16.2852071,24.0867263 C16.1306608,24.1431812 16.0102408,24.2251389 15.9243818,24.3323814 C15.8383054,24.4396239 15.779617,24.5682278 15.7480991,24.717539 C15.7165812,24.8672862 15.700931,25.0379587 15.700931,25.2297746 L15.700931,25.8902316 Z M13.7411716,24.6456081 C13.7411716,24.1998541 13.8026858,23.8327882 13.9259315,23.5448464 C14.0489599,23.2569046 14.2295899,23.0299951 14.4673868,22.863246 C14.7049663,22.6969329 14.9931918,22.5827153 15.3311938,22.5203751 C15.6691958,22.4584709 16.053279,22.4273008 16.4830089,22.4273008 L19.5428506,22.4273008 C19.9727978,22.4273008 20.3564464,22.4584709 20.6946657,22.5203751 C21.0326677,22.5827153 21.3206758,22.6969329 21.5584727,22.863246 C21.7962696,23.0299951 21.9766822,23.2569046 22.099928,23.5448464 C22.2231737,23.8327882 22.2849053,24.1998541 22.2849053,24.6456081 L22.2849053,26.4743982 C22.2849053,26.9260375 22.2231737,27.2944112 22.099928,27.5793014 C21.9766822,27.8644096 21.7962696,28.0902292 21.5584727,28.2567603 C21.3206758,28.4232913 21.0326677,28.537727 20.6946657,28.5996312 C20.3564464,28.6615354 19.9727978,28.6927055 19.5428506,28.6927055 L16.4830089,28.6927055 C16.053279,28.6927055 15.6691958,28.6615354 15.3311938,28.5996312 C14.9931918,28.537727 14.7049663,28.4232913 14.4673868,28.2567603 C14.2295899,28.0902292 14.0489599,27.8644096 13.9259315,27.5793014 C13.8026858,27.2944112 13.7411716,26.9260375 13.7411716,26.4743982 L13.7411716,24.6456081 Z" id="Fill-24" fill="#FEFEFE"></path>
                        <polygon id="Fill-25" fill="#BE1F24" points="24.2072453 29.4046833 36.0972746 29.4046833 36.0972746 21.5017297 24.2072453 21.5017297"></polygon>
                        <polygon id="Fill-26" fill="#FEFEFE" points="24.4920364 22.4984986 26.3647821 22.4984986 27.6936655 26.9978935 27.7111249 26.9978935 29.2990631 22.4984986 31.0768729 22.4984986 32.6648111 26.9978935 32.6820523 26.9978935 34.0111539 22.4984986 35.8836813 22.4984986 33.8557647 28.6215077 31.6549994 28.6215077 30.1964795 24.5791285 30.1792383 24.5791285 28.7207184 28.6215077 26.5201713 28.6215077"></polygon>
                    </g>
                    <g id="स्वदेश" transform="translate(2.401382, 30.433847)" fill="#000000" fill-rule="nonzero">
                        <path d="M11.0851735,5.88407316 L11.0851735,4.09783666 L4.0453003,4.09783666 C4.42181093,4.6757367 4.64727951,5.25582576 4.72170603,5.83810384 C4.79613255,6.42038191 4.70200489,6.95231263 4.43932305,7.433896 C4.6757367,7.56523692 5.00189999,7.62215131 5.4178129,7.60463919 C5.8337258,7.58712707 6.20804742,7.46454221 6.54077775,7.23688462 C6.51450957,6.87788611 6.71370996,6.47948532 7.13837893,6.04168226 C7.5630479,5.6038792 8.03587521,5.26895985 8.55686085,5.03692423 C9.0778465,4.80488861 9.45216811,4.76767535 9.67982571,4.92528445 C10.1176288,5.24925872 10.586078,5.56885495 11.0851735,5.88407316 Z M11.0851735,7.40762781 L11.0851735,6.58018003 C10.4197129,6.2474497 9.81554466,6.17302318 9.27266886,6.35690046 C8.72979306,6.54077775 8.30731311,6.85599595 8.00522899,7.30255508 C7.70314488,7.7491142 7.66593162,8.09060059 7.89358921,8.32701424 C7.98990589,8.44084304 8.13875893,8.53278168 8.34014834,8.60283017 C8.54153774,8.67287866 8.78670746,8.71009192 9.07565748,8.71446995 C9.3646075,8.71884798 9.69077078,8.61158623 10.0541473,8.3926847 C10.4175239,8.17378317 10.7611993,7.84543088 11.0851735,7.40762781 Z M13.7119919,2.83696384 L13.7119919,4.09783666 L12.726935,4.09783666 L12.726935,11.6893418 L11.0851735,10.9538326 L11.0851735,9.11505976 C10.5598099,9.72798404 10.0256901,10.0344462 9.48281433,10.0344462 C8.63347639,10.0344462 7.84543088,9.4784363 7.11867779,8.36641652 C6.60207018,8.60283017 6.16864515,8.721037 5.8184027,8.721037 C5.49442843,8.721037 4.92966248,8.44522107 4.12410485,7.89358921 C3.75635027,8.30512409 3.27914494,8.60283017 2.69248883,8.78670746 C2.85009794,9.08441354 3.20690743,9.47405827 3.76291732,9.95564164 C4.31892721,10.437225 4.85961399,10.8575159 5.38497767,11.2165145 L5.01722309,11.7024759 C3.80013058,10.9406985 2.94641461,10.3540424 2.45607518,9.94250754 C1.40534783,9.06690142 0.70486293,8.13875893 0.35462048,7.15808007 C0.556009889,6.58893609 0.757399298,6.18615727 0.958788706,5.94974362 C1.03759326,5.85342694 1.18206827,5.85780497 1.39221374,5.96287771 C1.60235921,6.06795044 1.79061452,6.19929136 1.95697969,6.35690046 C2.00075999,6.40943683 2.03797325,6.48605237 2.06861947,6.58674707 C2.09926568,6.68744178 2.1299119,6.82316073 2.16055811,6.99390392 C2.19120433,7.16464711 2.22403956,7.31131114 2.2590638,7.433896 C2.60930625,7.3200672 2.88293316,7.13618991 3.07994454,6.88226414 C3.27695592,6.62833836 3.39078472,6.34157736 3.42143093,6.02198112 C3.45207715,5.70238489 3.44332108,5.38278865 3.39516275,5.06319241 C3.34700441,4.74359618 3.26601084,4.42181093 3.15218205,4.09783666 L0,4.09783666 L0,2.83696384 L13.7119919,2.83696384 Z" id="Shape"></path>
                        <path d="M21.2509606,12.5299236 L19.7536742,10.6517485 C19.2896029,10.9757228 18.7511052,11.1683561 18.1381809,11.2296485 C17.6390854,11.2734289 17.1356119,11.0851735 16.6277603,10.6648826 C16.2512497,10.3584205 15.9666777,10.1241958 15.7740443,9.96220868 C15.581411,9.80022155 15.3515644,9.58132002 15.0845045,9.30550409 C14.8174446,9.02968816 14.5963541,8.76481731 14.4212329,8.51089153 C14.2461116,8.26572182 14.1782522,7.9483146 14.2176544,7.55866987 C14.2570567,7.16902514 14.3468063,6.78594746 14.4869033,6.40943683 C14.6270003,6.0329262 14.8196337,5.7045739 15.0648034,5.42437994 C15.3099731,5.14418598 15.5551428,4.99095491 15.8003125,4.96468673 L18.2169854,4.82021172 L18.2169854,4.09783666 L13.5281146,4.09783666 L13.5281146,2.83696384 L21.6449834,2.83696384 L21.6449834,4.09783666 L19.6748696,4.09783666 L19.6748696,5.96287771 L17.1662581,5.96287771 C16.9035762,5.96287771 16.6649736,6.09421863 16.4504501,6.35690046 C16.2359266,6.6195823 16.0936406,6.93917854 16.0235921,7.31568917 C15.9535436,7.6921998 15.9382205,8.07308847 15.9776228,8.45835516 C16.017025,8.84362186 16.159311,9.17635218 16.4044807,9.45654614 C16.6496505,9.7367401 16.9780028,9.89434921 17.3895376,9.92937345 C17.9149013,9.97315376 18.3964847,9.82430072 18.8342877,9.48281433 C18.4665332,9.00123096 18.304546,8.71228094 18.3483263,8.61596427 C18.5146915,8.28323394 18.8211536,7.98114982 19.2677128,7.70971193 C19.4165658,7.61339525 19.5610408,7.55866987 19.7011378,7.54553578 C19.8412348,7.53240169 19.9725757,7.55648085 20.0951606,7.61777328 C20.2177454,7.67906571 20.3315742,7.75349223 20.4366469,7.84105284 C20.5417197,7.92861346 20.6511704,8.04244225 20.7649992,8.18253923 C20.9663887,8.41895289 21.0911625,8.65755556 21.1393209,8.89834724 C21.1874792,9.13913892 21.1239978,9.37336356 20.9488765,9.60102116 L20.2527697,10.297128 L21.7631902,12.1753032 L21.2509606,12.5299236 Z" id="Path"></path>
                        <path d="M19.5172605,2.82382975 L18.9524946,2.83696384 C18.7511052,2.55676988 18.4971794,2.26125282 18.1907172,1.95041264 C17.8842551,1.63957247 17.5953051,1.41410389 17.3238672,1.27400691 C16.7547232,0.967544768 15.9447875,1.0157031 14.8940602,1.41848192 L13.9615397,0.367754572 C14.4080988,0.227657592 14.9181393,0.124773873 15.4916614,0.0591034134 C16.0651834,-0.00656704593 16.4789073,-0.0175121225 16.732833,0.0262681837 C16.9079543,0.07004849 17.0940206,0.157609102 17.2910319,0.288950021 C17.4880433,0.42029094 17.7003778,0.610735272 17.9280354,0.860283017 C18.155693,1.10983076 18.3373813,1.3155982 18.4731002,1.47758534 C18.6088192,1.63957247 18.8036415,1.88912021 19.0575673,2.22622857 C19.3114931,2.56333693 19.4647241,2.76253732 19.5172605,2.82382975 Z" id="Path"></path>
                        <path d="M27.739202,11.4660622 L27.2269724,12.00456 C26.3688784,11.2165145 25.5195405,10.4766273 24.6789586,9.78489844 C24.6176662,9.78489844 24.4928923,9.7936545 24.304637,9.81116662 C24.1163817,9.82867875 23.9740957,9.84181284 23.877779,9.8505689 C23.7814623,9.85932496 23.6479324,9.86370299 23.4771892,9.86370299 C23.306446,9.86370299 23.1707271,9.85713595 23.0700324,9.84400185 C22.9693377,9.83086776 22.8664539,9.80678859 22.7613812,9.77176435 C22.6563085,9.7367401 22.5731259,9.6929598 22.5118335,9.64042343 C22.012738,9.14132794 21.7631902,8.73417109 21.7631902,8.41895289 C21.7631902,8.31388015 21.8660739,8.16064908 22.0718414,7.95925967 C22.2776088,7.75787026 22.4899433,7.62652934 22.7088448,7.56523692 C22.8927221,7.66155359 23.3436593,7.99866195 24.0616563,8.57656199 C24.7446291,8.27009985 25.2393465,7.862943 25.5458087,7.35509145 C25.0116889,7.18872628 24.3374722,6.7618683 23.5231585,6.07451749 C22.7088448,5.38716668 22.301688,4.85961399 22.301688,4.49185942 C22.301688,4.22917758 22.4045717,3.96649574 22.6103391,3.70381391 C22.8161066,3.44113207 23.0590873,3.2309866 23.3392812,3.0733775 C23.6194752,2.91576839 23.9084252,2.8019396 24.2061313,2.73189111 C24.5038374,2.66184262 24.7490071,2.69248883 24.9416405,2.82382975 C25.3794435,3.08651159 25.8281917,3.45645518 26.2878849,3.93366051 C26.7475781,4.41086585 27.021205,4.76767535 27.1087656,5.004089 C27.3889596,5.79213451 27.3495573,6.65460655 26.9905588,7.5915051 C26.6315603,8.52840365 26.0624163,9.18948628 25.2831268,9.57475297 C26.5615118,10.6079682 27.3802035,11.2384046 27.739202,11.4660622 Z M27.4765202,4.09783666 L26.9642906,2.83696384 L31.2854068,2.83696384 L31.2854068,4.09783666 L30.3266181,4.09783666 L30.3266181,11.6893418 L28.6979907,10.9538326 L28.6979907,4.09783666 L27.4765202,4.09783666 Z M25.7034178,6.90853232 C25.9135633,6.47072926 26.018636,5.90158528 26.018636,5.20110038 C26.018636,4.37803062 25.7647102,3.92271544 25.2568587,3.83515483 C24.871592,3.76510634 24.4907033,3.90082528 24.1141927,4.24231167 C23.728926,4.59255412 23.593207,4.95155263 23.7070358,5.31930721 C23.7420601,5.433136 23.8033525,5.53820874 23.8909131,5.63452541 C24.1273268,5.87969513 24.4359779,6.13580992 24.8168666,6.40286979 C25.1977552,6.66992965 25.4932723,6.83848383 25.7034178,6.90853232 Z" id="Shape"></path>
                    </g>
                </g>
            </g>
        </g>
    </g>
</svg>