<svg width="14.142" height="14.142" viewBox="0 0 14.142 14.142" xmlns="http://www.w3.org/2000/svg">
    <defs>
        <linearGradient x1="96.331%" y1="-25.511%" x2="24%" y2="106.59%" id="jik7oljela">
            <stop stop-color="#E96490" offset="0%"/>
            <stop stop-color="#B62159" offset="100%"/>
        </linearGradient>
    </defs>
    <path d="M25.102 140c-1.04 0-2.02.405-2.756 1.142a3.874 3.874 0 0 0-1.142 2.756c0 .767.22 1.499.63 2.126l-.723.724-.756-.757-1.142 1.142.756.756-.969.97L20.141 150l.97-.97.773.774 1.141-1.142-.773-.773.724-.724c.627.41 1.36.63 2.126.63.52 0 1.026-.1 1.493-.294a3.892 3.892 0 0 0 1.263-.847 3.9 3.9 0 0 0-.007-5.519 3.872 3.872 0 0 0-1.597-.962 3.904 3.904 0 0 0-1.152-.173zm-.567 6.11a2.271 2.271 0 0 1-1.121-.674 2.278 2.278 0 0 1-.592-1.407 2.274 2.274 0 0 1 .751-1.828 2.28 2.28 0 0 1 1.438-.585 2.267 2.267 0 0 1 1.564.536 2.267 2.267 0 0 1 .811 1.746 2.282 2.282 0 0 1-.692 1.637c-.36.351-.83.576-1.33.632a2.298 2.298 0 0 1-.829-.056z" transform="rotate(-45 -150.96 96.47)" fill="url(#jik7oljela)" fill-rule="evenodd"/>
</svg>
