<svg xmlns="http://www.w3.org/2000/svg" width="10" height="14" viewBox="0 0 10 14">
    <g fill="none" fill-rule="evenodd">
        <g fill="#F01616" fill-rule="nonzero">
            <g>
                <g>
                    <g>
                        <g>
                            <g>
                                <g>
                                    <path d="M9.408.566C8.773.186 8.097 0 7.34 0c-.906 0-1.795.267-2.655.525-.84.252-1.633.49-2.418.49-.525 0-1-.112-1.447-.339V.41C.82.184.637 0 .41 0 .184 0 0 .184 0 .41v13.18c0 .226.184.41.41.41.227 0 .41-.184.41-.41V7.15c.453.174.931.26 1.447.26.906 0 1.795-.267 2.654-.524.84-.252 1.634-.49 2.419-.49.604 0 1.142.146 1.646.448.126.076.284.078.413.006.128-.073.208-.21.208-.357V.917c0-.144-.076-.277-.2-.351zM4.686 6.1c-.84.252-1.634.49-2.419.49-.525 0-1-.111-1.447-.339V1.574c.453.175.931.26 1.447.26.906 0 1.795-.266 2.654-.524.84-.252 1.634-.49 2.419-.49.525 0 1 .111 1.446.339v4.677c-.453-.175-.93-.26-1.446-.26-.906 0-1.795.266-2.654.524z" transform="translate(-295 -6126) translate(15 5793) translate(0 125) translate(47 131) translate(47 75) translate(178 1) translate(8.01 1)"/>
                                </g>
                            </g>
                        </g>
                    </g>
                </g>
            </g>
        </g>
    </g>
</svg>
