<?xml version="1.0" encoding="UTF-8"?>
<svg width="900px" height="91px" viewBox="0 0 900 91" version="1.1" xmlns="http://www.w3.org/2000/svg" xmlns:xlink="http://www.w3.org/1999/xlink">
    <title>gadgets</title>
    <g id="logos" stroke="none" stroke-width="1" fill="none" fill-rule="evenodd">
        <g id="GadgetTimes-1024x1024" transform="translate(-62.000000, -467.000000)" fill-rule="nonzero">
            <g id="gadgets" transform="translate(62.000000, 467.000000)">
                <g id="Group" transform="translate(532.249591, 0.222713)" fill="#808080">
                    <polygon id="Path" points="0 17.371607 20.7294324 17.371607 20.7294324 89.1536909 38.1866981 89.1536909 38.1866981 17.371607 59.7555869 17.371607 59.7555869 0.513952869 0 0.513952869"></polygon>
                    <rect id="Rectangle" x="77.2128526" y="0.513952869" width="17.4572658" height="88.6568698"></rect>
                    <path d="M206.334945,1.21635512 L163.265695,60.680702 L121.327141,1.33627746 C120.35063,-0.0513952869 118.174896,0.651006967 118.174896,2.32991967 L118.174896,89.1365592 L135.03255,89.1365592 L135.03255,49.4593977 L162.854532,87.9373358 L163.094377,87.9373358 L192.012792,46.8382381 L192.012792,89.1365592 L209.470057,89.1365592 L209.470057,2.20999734 C209.470057,0.565348155 207.311455,-0.137054098 206.334945,1.21635512 Z" id="Path"></path>
                    <polygon id="Path" points="250.414969 53.1427266 288.481745 53.1427266 288.481745 36.2850725 250.414969 36.2850725 250.414969 17.371607 293.415693 17.371607 293.415693 0.513952869 232.957704 0.513952869 232.957704 89.1536909 295.111737 89.1536909 295.111737 72.2960369 250.414969 72.2960369"></polygon>
                    <path d="M360.280961,46.5812617 C358.276545,44.611109 355.99802,42.9664598 353.479651,41.6473141 C350.94415,40.3281684 348.40865,39.1803404 345.838885,38.2209617 C343.029276,37.1759242 340.322458,36.0109643 337.701298,34.7260822 C335.09727,33.4412 332.9558,31.9850002 331.311151,30.3232192 C329.666502,28.6785701 328.844177,26.811208 328.844177,24.721133 C328.844177,21.6716793 329.923478,19.3760231 332.099212,17.8512963 C334.274946,16.3265695 337.238741,15.5556402 341.007728,15.5556402 C344.057182,15.5556402 347.329349,16.1552518 350.824228,17.3544752 C354.319108,18.5536986 357.74546,20.0784254 361.120417,21.9286557 L367.750409,8.56588114 C364.221266,6.23596147 360.229566,4.23154528 355.758176,2.53550082 C351.303917,0.856588114 345.49625,0 338.352305,0 C332.887273,0.239844672 328.073248,1.47333156 323.893098,3.66619713 C319.712948,5.87619446 316.492176,8.87425286 314.19652,12.6432406 C311.900864,16.4122283 310.770168,20.8836182 310.770168,26.0060152 C310.770168,30.2546922 311.558229,33.8523623 313.117219,36.7818936 C314.67621,39.711425 316.732021,42.161267 319.267522,44.1314197 C321.803023,46.1015723 324.509841,47.7633533 327.405109,49.1338942 C330.300377,50.5044352 333.109986,51.7036586 335.833936,52.7486961 C338.163856,53.6395477 340.305326,54.6674535 342.275479,55.8838086 C344.245631,57.0830319 345.804622,58.4193094 346.969582,59.8583774 C348.134541,61.2974455 348.717021,62.9078311 348.717021,64.6724026 C348.717021,67.242167 348.014619,69.2465832 346.609815,70.702783 C345.20501,72.141851 343.440439,73.1697567 341.3161,73.7693684 C339.191762,74.3689801 337.084555,74.6773518 334.99448,74.6773518 C332.904405,74.6773518 330.608749,74.3518483 328.124643,73.7179731 C325.640538,73.0669662 323.173564,72.1761145 320.723722,71.0111547 C318.27388,69.8461948 316.012487,68.5099174 313.922412,66.9680588 L306.213119,80.570678 C309.348232,82.7464118 312.603266,84.5281151 315.978224,85.9329196 C319.353181,87.3377241 322.779533,88.3827616 326.274413,89.0680321 C329.769292,89.7533026 333.195645,90.0959379 336.570602,90.0959379 C343.149199,90.0959379 348.69989,88.9138463 353.188411,86.5496631 C357.676933,84.1854799 361.103285,81.0674991 363.433205,77.2128526 C365.763125,73.3582061 366.928085,69.1780561 366.928085,64.6895344 C366.928085,60.4408573 366.328473,56.8431873 365.12925,53.9136559 C363.878631,51.0012563 362.285377,48.5514143 360.280961,46.5812617 Z" id="Path"></path>
                </g>
                <g id="Group" fill="#242424">
                    <path d="M44.2170785,59.8755092 L59.4643469,59.8755092 L59.4643469,70.5657289 C58.0252789,71.3709217 56.2607074,71.9534016 54.1877641,72.3131686 C52.0976891,72.6729356 49.8191647,72.861385 47.3350592,72.861385 C43.0178551,72.861385 39.060418,72.2617733 35.4970115,71.06255 C31.9336049,69.8633266 28.8498877,68.0987551 26.2458598,65.7859672 C23.641832,63.4731793 21.620284,60.6464385 20.181216,57.3228766 C18.7421479,53.9993147 18.0226139,50.2645906 18.0226139,46.1015723 C18.0226139,41.3732059 18.6564891,37.2273195 19.9413713,33.6639129 C21.2262535,30.1005063 23.1278791,27.1195797 25.6462481,24.721133 C28.1646172,22.3226863 31.2654662,20.5238512 34.9487951,19.3246279 C38.632124,18.1254045 42.880801,17.5257928 47.6776944,17.5257928 C49.5964518,17.5257928 51.8064492,17.7827693 54.2905547,18.3138539 C56.7746602,18.8278068 59.2073705,19.4959455 61.6229489,20.3011383 C64.0213957,21.1063311 65.940153,21.911524 67.3792211,22.699585 L73.0155709,6.49293791 C69.7262725,4.64270758 65.7345719,3.11798074 61.0062055,1.86736209 C56.2778391,0.633875205 51.0697834,0 45.3991701,0 C39.3859215,0 33.6467811,0.959378688 28.1646172,2.87813606 C22.6824533,4.79689344 17.8341645,7.74355655 13.6368828,11.7009936 C9.43960102,15.6584307 6.11603914,20.6266418 3.66619713,26.5884951 C1.21635512,32.5503483 0,39.5743709 0,47.6605627 C0,53.8279971 1.07930102,59.5157422 3.23790307,64.7066662 C5.39650512,69.9147219 8.51448586,74.4203754 12.608977,78.2236266 C16.6863365,82.0268778 21.620284,84.9906727 27.3765561,87.1150112 C33.1328283,89.2393498 39.6257662,90.301519 46.8382381,90.301519 C49.5621883,90.301519 52.4403244,89.9931473 55.489778,89.3935356 C58.5392317,88.7939239 61.5201584,88.0058629 64.432558,87.0464842 C67.3620893,86.0871055 69.9318537,85.0249362 72.1761145,83.8599764 C74.4203754,82.6950166 76.0650246,81.5643202 77.0929303,80.4336239 L77.0929303,43.0863822 L44.1828149,43.0863822 L44.1828149,59.8755092 L44.2170785,59.8755092 Z" id="Path"></path>
                    <path d="M124.907679,2.17573381 L86.9779571,89.3078768 L104.161115,89.3078768 L111.356455,72.0219287 L140.703164,72.0219287 L147.521605,89.3078768 L167.702821,89.3078768 L129.173488,2.17573381 C128.3169,0.325503483 125.712872,0.325503483 124.907679,2.17573381 Z M117.455362,57.3571401 L126.432406,35.8053832 L134.92976,57.3571401 L117.455362,57.3571401 Z" id="Shape"></path>
                    <path d="M244.710093,15.4357178 C240.906841,11.0328549 235.887235,7.50371188 229.634142,4.86542049 C223.381048,2.2271291 215.825941,0.907983401 206.934557,0.907983401 L180.517379,0.907983401 L180.517379,89.3078768 L211.268893,89.3078768 C217.265009,89.3078768 222.952754,88.3313664 228.332128,86.3612137 C233.694369,84.4081928 238.422736,81.5643202 242.500095,77.8295961 C246.577455,74.1120037 249.798226,69.6234819 252.162409,64.3811627 C254.526592,59.1388434 255.708684,53.2283854 255.708684,46.6669205 C255.708684,41.150493 254.834964,35.6683291 253.070393,30.2204287 C251.305821,24.7725283 248.513344,19.8557125 244.710093,15.4357178 Z M235.595995,57.1686908 C234.19119,60.5779114 232.186774,63.3875205 229.582746,65.6317813 C226.978719,67.8760422 223.87787,69.5720866 220.280199,70.7370465 C216.682529,71.9020063 212.673697,72.4844862 208.270834,72.4844862 L197.940381,72.4844862 L197.940381,17.5943199 L212.108349,17.5943199 C214.112765,17.5943199 216.545475,17.9712186 219.440743,18.7421479 C222.318879,19.4959455 225.14562,20.8836182 227.903834,22.8880344 C230.662047,24.8924506 232.991967,27.7191914 234.876461,31.351125 C236.760955,35.0001904 237.703202,39.6942932 237.703202,45.4676971 C237.68607,49.87056 236.983668,53.7766018 235.595995,57.1686908 Z" id="Shape"></path>
                    <polygon id="Path" points="395.623787 53.399703 433.587772 53.399703 433.587772 36.5763125 395.623787 36.5763125 395.623787 17.731374 438.504588 17.731374 438.504588 0.907983401 378.217916 0.907983401 378.217916 89.3078768 440.1835 89.3078768 440.1835 72.4844862 395.623787 72.4844862"></polygon>
                    <polygon id="Path" points="452.192866 0.907983401 452.192866 17.731374 472.853771 17.731374 472.853771 89.3078768 490.259641 89.3078768 490.259641 17.731374 511.760003 17.731374 511.760003 0.907983401"></polygon>
                    <path d="M315.138767,71.850611 C300.336925,71.850611 288.293296,59.8069821 288.293296,45.0051395 C288.293296,30.2032969 300.336925,18.159668 315.138767,18.159668 C323.362013,18.159668 330.728671,21.8943922 335.662618,27.7363231 L355.586858,27.7363231 C348.871207,12.0264971 333.298435,1.02790574 315.138767,1.02790574 C290.845928,1.02790574 271.161533,20.7123006 271.161533,45.0051395 C271.161533,69.2979785 290.845928,88.9823733 315.138767,88.9823733 C333.401226,88.9823733 349.059657,77.8467278 355.70678,61.9998477 L335.902463,61.9998477 C330.968516,68.0130963 323.499067,71.850611 315.138767,71.850611 Z" id="Path"></path>
                </g>
                <path d="M313.699699,53.4339666 L358.225149,53.4339666 C358.756234,50.6928846 359.047474,47.8832756 359.047474,44.9880078 C359.047474,42.0070811 358.756234,39.1118133 358.190886,36.3022043 L313.716831,36.3022043 L313.716831,53.4339666 L313.699699,53.4339666 Z" id="Path" fill="#FF6900"></path>
            </g>
        </g>
    </g>
</svg>