<svg width="80" height="80" viewBox="0 0 80 80" xmlns="http://www.w3.org/2000/svg" xmlns:xlink="http://www.w3.org/1999/xlink">
    <defs>
        <path id="or5gqnv8ca" d="M0 0h80v80H0z"/>
        <path id="5o3blz9fcc" d="M0 0h6.782v13.63H0z"/>
        <path id="1n0q2zu8te" d="M0 0h7.045v16.667H0z"/>
    </defs>
    <g fill="none" fill-rule="evenodd">
        <mask id="y1ou08ckrb" fill="#fff">
            <use xlink:href="#or5gqnv8ca"/>
        </mask>
        <use fill="#F4F4F4" xlink:href="#or5gqnv8ca"/>
        <g mask="url(#y1ou08ckrb)">
            <path d="M65.111 39.321s.624-.851.143-1.566c-.484-.706-.283-1.445.055-1.817.344-.368.541-1.137.487-2.333-.061-1.193-.344-5.06.368-5.23.709-.17 1.107 1.738 1.107 2.446 0 .71.173 2.358.173 2.358s.995-.678 1.394-.198c.395.484.766 1.08.766 1.08s.426-.14.907.086c.487.228.654.937.456 1.448.74.599.682 1.594.341 2.078-.34.48-.934.766-1.448.398 0 0 0 1.193-.256 1.762-.255.568-.937.739-1.563.766-.627.03-.74.058-.91.43a4.713 4.713 0 0 1-.487.763l-1.533-2.47z" fill="#FDD6B5"/>
            <g transform="translate(64.866 28.266)">
                <mask id="6bc2p15sad" fill="#fff">
                    <use xlink:href="#5o3blz9fcc"/>
                </mask>
                <path d="m.363 11.056 1.424 2.296c.104-.143.277-.395.386-.635.198-.43.372-.457.995-.481.785-.037 1.281-.274 1.479-.712.243-.538.243-1.707.243-1.719 0-.04.025-.073.058-.088a.106.106 0 0 1 .103.01.753.753 0 0 0 .445.145c.304 0 .635-.2.864-.523.31-.438.374-1.381-.32-1.941a.106.106 0 0 1-.033-.113c.176-.453.042-1.12-.402-1.326a1.31 1.31 0 0 0-.538-.119c-.18 0-.302.04-.302.04a.095.095 0 0 1-.112-.043c-.006-.006-.371-.596-.764-1.068-.073-.094-.18-.137-.328-.137-.408 0-.925.35-.931.353a.089.089 0 0 1-.095.01.098.098 0 0 1-.057-.083c-.01-.064-.17-1.658-.17-2.367 0-.705-.402-2.485-.99-2.348-.562.137-.374 3.59-.316 4.724.012.156.018.29.025.405.054 1.15-.122 1.98-.512 2.4-.331.362-.49 1.047-.048 1.701.453.66.033 1.412-.104 1.619m1.415 2.573h-.003c-.034-.003-.064-.021-.076-.048L.163 11.107a.096.096 0 0 1 .003-.112c.009-.006.575-.803.143-1.448-.505-.74-.323-1.528.063-1.944.344-.375.509-1.175.457-2.258-.01-.112-.015-.25-.022-.401C.652 2.09.674.158 1.276.012A.432.432 0 0 1 1.386 0c.781 0 1.116 1.938 1.116 2.555 0 .57.116 1.762.158 2.19.195-.115.57-.303.9-.303a.59.59 0 0 1 .484.213c.323.39.633.864.737 1.025.067-.012.164-.024.286-.024.216 0 .429.042.62.136.536.25.7.977.53 1.51.739.644.66 1.664.304 2.162-.368.52-.965.743-1.433.512-.01.359-.058 1.174-.262 1.63-.228.508-.785.785-1.649.828-.614.027-.681.054-.824.368-.173.374-.484.77-.496.788a.097.097 0 0 1-.079.04" fill="#C46749" mask="url(#6bc2p15sad)"/>
            </g>
            <path d="M65.943 35.418c.337-.365.69-.724 1.226-.724.52 0 1.043 0 1.567.003.778.006 1.098.41.578 1.07-.542.7-1.646.414-2.349.831.414.423.706.882.803 1.482.04.249.024.532-.027.781-.03.156-.14.283-.043.156.067-.083.128-.168.192-.25.146-.2.52-.742.897-.94-.03.006-.057.015-.088.018-.408.012-.112-.855-.088-.988.049-.25.1-.435.255-.633.268-.35.837-.384 1.032-.791a1.928 1.928 0 0 0-.073-.676c-.186-.133-.514-.079-.733-.17-.256-.106-.46-.304-.618-.53-.237-.325-.569-.79-.32-1.195l.016-.021c-.298.079-.59.25-.69.316-.08.466-.21.925-.448.965-.435.079-.48-1.263-.496-1.479-.052-.657-.021-1.339-.122-1.99-.054-.383-.152-.778-.155-1.168 0-.37.052-.745.256-1.013a.374.374 0 0 0-.353-.094c-.709.167-.426 4.034-.368 5.226.058 1.196-.143 1.966-.484 2.334-.091.1-.176.228-.234.377.255-.304.572-.581.867-.897" fill="#F0CFB9"/>
            <path d="M70.976 35.593c-.189.554-.274 1.5-.877 1.725-.06.024-.079-.055-.07-.098.162-.672.63-1.45.411-2.147-.073-.238-.237-.581-.143-.834a.552.552 0 0 1 .08-.146c-.214-.073-.615-.088-.755-.08.1.208.24.509.295.716.085.122.13.258.103.417 0 .07.01.194 0 .261-.088.627-.185 1.144-.514 1.689-.134.219-.313.53-.557.669.153-.033.299.012.423.173.514.679.192 1.564-.453 2.03-.344.255-.77.474-1.208.471-.219-.003-.456-.027-.642-.143-.246-.152-.42.146-.611.295-.021.012-.067.04-.097.015-.375-.337-.737-.69-1.099-1.043l1.381 2.23s.317-.399.487-.767c.17-.37.283-.398.91-.429.627-.024 1.308-.194 1.564-.766.255-.566.255-1.762.255-1.762a.83.83 0 0 0 .624.158c-.122-.143-.155-.343-.046-.63.113-.288.402-.468.584-.702.158-.204.155-.62.32-.825.003-.006.085.156.088.153-.067-.165-.326-.487-.453-.63" fill="#F0CFB9"/>
            <path d="M65.482 35.738c.225-.283.463-.556.706-.821.128-.131.253-.256.405-.38.04-.022.073-.05.115-.07l.143-.05c.091-.02.189-.039.28-.042.189-.006.371.012.55.028.177.015.35.009.53.006.365 0 .73 0 1.095.04.183.027.371.051.554.14a.423.423 0 0 1 .237.255c.016.079.025.21.003.304-.03.198-.13.377-.255.523a2.06 2.06 0 0 1-.42.378c-.08.054-.155.103-.237.146a2.379 2.379 0 0 1-.247.127c-.164.086-.34.146-.51.21-.174.058-.35.113-.527.155-.177.046-.353.076-.533.12l.058-.053a.062.062 0 0 0 0-.033c0-.003 0 0 0 0s0 .006.003.009l.019.03.051.064.098.131c.067.091.127.183.185.28.11.195.198.405.234.627.04.222.022.453-.048.663a1.732 1.732 0 0 1-.329.572c.125-.183.228-.377.283-.584.052-.207.055-.43.006-.636a1.907 1.907 0 0 0-.246-.578 2.065 2.065 0 0 0-.192-.262l-.1-.124-.055-.067-.024-.037c-.003-.006-.01-.012-.016-.024-.003-.01-.006-.01-.006-.022a.11.11 0 0 1-.003-.054.064.064 0 0 1 .046-.043l.006-.003c.176-.049.353-.082.52-.134.174-.051.344-.1.508-.164a3.724 3.724 0 0 0 .724-.329c.08-.042.152-.09.222-.14a1.66 1.66 0 0 0 .378-.35.948.948 0 0 0 .216-.434.51.51 0 0 0-.003-.235.234.234 0 0 0-.131-.121c-.143-.073-.317-.1-.49-.125a8.324 8.324 0 0 0-1.074-.055c-.173-.003-.365-.003-.544-.03-.183-.019-.356-.043-.533-.043a1.147 1.147 0 0 0-.252.027l-.116.034c-.043.015-.082.043-.119.064-.13.103-.273.222-.404.344-.262.246-.511.505-.76.766" fill="#C46749"/>
            <path d="M67.443 33.18s.03.08.052.201a2.409 2.409 0 0 1-.021.882c-.028.119-.058.195-.058.195s-.034-.079-.055-.198a2.183 2.183 0 0 1-.03-.44c.003-.162.024-.32.051-.442.028-.119.061-.198.061-.198M69.603 34.06s.064.07.155.213c.049.073.097.161.152.268.046.106.104.23.134.377.021.073.03.149.04.228.009.082.024.161.012.25-.01.085-.01.176-.028.264-.015.085-.036.17-.057.262-.092.35-.22.718-.39 1.07a3.423 3.423 0 0 1-.304.506 1.413 1.413 0 0 1-.426.401.714.714 0 0 1-.292.082.632.632 0 0 1-.28-.051c-.176-.08-.268-.253-.31-.393a.95.95 0 0 1-.037-.404c.012-.12.037-.223.064-.302a.851.851 0 0 1 .082-.18c.025-.039.034-.057.034-.057s-.006.021-.022.064c-.02.036-.036.103-.054.182a1.21 1.21 0 0 0 .036.664c.049.121.134.25.268.295.03.009.064.021.097.021.03.006.073.003.116 0a.559.559 0 0 0 .21-.073c.137-.079.252-.216.359-.362.11-.146.198-.313.28-.478.167-.337.295-.693.398-1.03l.073-.253c.019-.083.025-.162.037-.238.018-.079.009-.155.006-.23a.973.973 0 0 0-.021-.214c-.022-.14-.061-.262-.095-.374a1.685 1.685 0 0 0-.115-.274 1.688 1.688 0 0 0-.122-.234" fill="#C46749"/>
            <path d="M70.967 35.596s.015.2-.028.496c-.015.149-.051.32-.106.502-.03.088-.06.182-.097.274-.046.088-.086.188-.143.27l-.083.131-.103.122c-.058.079-.152.137-.228.198a1.244 1.244 0 0 1-.262.118c-.091.01-.173.043-.252.034-.076-.01-.15-.016-.21-.025-.061-.021-.11-.04-.152-.051-.08-.03-.125-.05-.125-.05s.049 0 .134.013c.042.003.094.012.152.018.055-.006.125-.015.192-.018.07-.003.136-.046.213-.06.073-.031.136-.08.21-.122.063-.061.133-.11.188-.183l.085-.106.073-.12c.055-.075.092-.166.134-.246.04-.085.08-.17.11-.255.03-.085.07-.164.09-.24l.07-.226c.09-.282.138-.474.138-.474" fill="#C46749"/>
            <path d="M67.6 34.749c-.453-.043-.833.091-1.186.371-.408.329-.627.812-.95 1.214-.033.043-.017.11.031.055.25-.271.435-.56.654-.852.347-.463.858-.536 1.388-.596.06-.003.152-.183.064-.192M69.496 34.859c-.231-.097-.477-.106-.727-.11-.262-.006-.499.055-.751.067-.022.003-.052.052-.025.061.183.04.405.022.597.046.273.027.544.067.815.112.058.013.155-.149.091-.176M67.817 37.928c-.149-.38-.502-1.013-.912-1.165-.034-.012-.08.055-.058.085 0 .003.003.006.006.01.018.03.049-.025.052-.037-.07.207.502.8.611 1.004.286.517.116.952.046 1.484-.021.15.164-.009.185-.076.122-.447.25-.852.07-1.305M69.202 37.996c-.423-.067-.858.393-1.059.712-.042.08.022.119.07.046a1.38 1.38 0 0 1 .41-.408c.165-.106.348-.137.527-.2.04-.016.128-.138.052-.15M67.051 30.723c-.033-.593-.137-1.33-.456-1.843-.022-.043-.08.045-.064.076.596 1.345.386 3.012.587 4.45.012.08.116-.045.119-.085.027-.854-.14-1.743-.186-2.598" fill="#FCDFDB"/>
            <path d="M45.82 101.693c4.038.244 5.513-.59 5.492-1.986-.66-.11-1.488-.231-2.547-.475-2.68-.614-3.647-1.229-3.778-1.843-.134-.615.967-4.792 1.843-9.316.88-4.53.785-8.345.785-8.345l-3.38-.401s-1.667 2.504-2.987 7.25c-1.317 4.745-.569 10.593-.569 11.295 0 .262-.119.533-.268.834l.006.003s-.133 2.504 5.403 2.984" fill="#FDD6B5"/>
            <path d="M40.514 98.72c0 .164.122 2.424 5.315 2.875 2.583.158 4.275-.131 4.983-.852.26-.262.39-.572.399-.953l-.265-.042a31.067 31.067 0 0 1-2.205-.42c-2.468-.563-3.694-1.177-3.855-1.92-.082-.392.259-1.944.782-4.301.335-1.521.715-3.243 1.068-5.054.794-4.094.788-7.648.782-8.235l-3.231-.386c-.237.377-1.743 2.86-2.942 7.17-1.113 4.013-.748 8.805-.612 10.609.028.331.046.55.046.663 0 .28-.125.572-.265.846m6.611 3.115h-.003c-.404 0-.842-.012-1.308-.04-5.348-.468-5.5-2.79-5.497-3.07-.003-.024-.003-.045.009-.066.128-.259.252-.536.252-.785 0-.104-.015-.332-.04-.648-.14-1.813-.507-6.632.615-10.675 1.312-4.707 2.985-7.256 3.003-7.28.021-.031.058-.05.091-.043l3.38.404a.091.091 0 0 1 .085.095c.003.04.089 3.879-.784 8.366-.35 1.81-.734 3.535-1.065 5.06-.478 2.16-.855 3.863-.782 4.216.14.65 1.35 1.229 3.705 1.77.876.201 1.604.317 2.19.411l.35.058c.046.009.083.052.083.094.006.469-.143.864-.454 1.18-.63.64-1.883.953-3.83.953" fill="#C46749"/>
            <path d="M42.701 100.006c-1.59-.876-1.092-1.7-.657-2.686.441-.986-.554-4.756.274-8.218.93-3.89 4.335-6.194 3.678-1.204 0 0-.773 3.997-1.485 6.903-.715 2.902-.492 3.559 1.038 4.107 1.536.547 3.946.547 3.946 1.153 0 .602-4.065 1.45-6.794-.055m3.07-18.576s1.26.052 1.205.766c-.055.712-1.044.986-1.427.767-.38-.219-.493-1.481.222-1.533m2.993 17.803c-2.68-.614-3.647-1.229-3.778-1.843-.134-.615.967-4.795 1.844-9.319.879-4.527.784-8.342.784-8.342l-3.376-.404s-1.67 2.503-2.991 7.252c-1.314 4.746-.569 10.59-.569 11.296 0 .262-.115.533-.268.83l.006.004s-.133 2.504 5.404 2.987c4.037.244 5.515-.593 5.49-1.99-.66-.109-1.487-.228-2.546-.47" fill="#F0CFB9"/>
            <path d="M44.15 79.59c-1.493-.265-5.667.529-5.667.529s.648 1.284-.2 1.935c-.846.645-2.7 1.533-5.343 5.707-2.476 3.934-3.015 4.67-3.912 4.999-.228.608-.463 1.621-.186 2.893.463 2.108 1.387 4.913 2.57 5.804.904.685 2.097.36 2.748-.067-.62-.949-.922-2.202-1.129-3.739-.222-1.627-.352-1.846 1.099-3.12 1.454-1.276 5.318-4.57 7.557-6.986 2.242-2.419 3.428-4.791 2.464-7.955" fill="#FDD6B5"/>
            <path d="M29.106 92.834a4.99 4.99 0 0 0-.167 2.799c.486 2.218 1.408 4.895 2.534 5.75.328.246.72.37 1.159.37.462 0 .973-.145 1.39-.392-.53-.851-.855-1.965-1.089-3.696l-.036-.27c-.195-1.412-.238-1.704 1.168-2.936.198-.174.435-.387.709-.624 1.719-1.49 4.91-4.271 6.842-6.358 2.534-2.732 3.27-5.072 2.458-7.8a5.116 5.116 0 0 0-.709-.043c-1.582 0-4.156.45-4.743.556.14.35.463 1.37-.28 1.938-.121.095-.264.192-.429.305-.985.681-2.637 1.822-4.886 5.384-2.424 3.834-3.005 4.664-3.921 5.017m3.526 9.118c-.487 0-.916-.14-1.28-.417-1.17-.882-2.112-3.605-2.605-5.86-.283-1.28-.055-2.312.189-2.95a.109.109 0 0 1 .06-.061c.88-.32 1.433-1.105 3.864-4.953 2.27-3.6 3.943-4.752 4.94-5.443.162-.11.302-.207.42-.295.773-.593.18-1.798.17-1.81a.11.11 0 0 1 0-.088.098.098 0 0 1 .07-.055c.034-.006 3.101-.584 4.905-.584.326 0 .596.021.803.055a.108.108 0 0 1 .08.07c1.085 3.56-.646 6.069-2.486 8.05-1.944 2.096-5.136 4.88-6.854 6.373-.277.24-.518.447-.712.624-1.327 1.162-1.296 1.375-1.105 2.759l.037.27c.237 1.762.575 2.867 1.113 3.7.016.021.022.049.016.07a.124.124 0 0 1-.04.067 3.062 3.062 0 0 1-1.585.478" fill="#C46749"/>
            <path d="M41.736 82.71c-1.762-.177-1.935-1.057-.968-1.583 0 0 1.844-.703 2.458.088.615.791.265 1.67-1.49 1.494m-3.453 6.967c-3.493 2.504-6.13 4.22-5.869 6.66.265 2.436 1.521 4.283.396 4.414-1.12.134-2.042-1.385-2.964-4.153-.924-2.768.265-1.649 3.03-6.264 0 0 3.298-6.459 6.925-6.395 3.626.07 1.977 3.231-1.518 5.738M44.15 79.59c-1.494-.265-5.668.526-5.668.526s.645 1.284-.2 1.935c-.846.648-2.702 1.536-5.343 5.71-2.476 3.93-3.014 4.667-3.912 4.999-.228.608-.462 1.621-.185 2.893.462 2.105 1.387 4.91 2.57 5.805.904.684 2.096.355 2.747-.067-.62-.953-.921-2.203-1.128-3.74-.222-1.627-.353-1.846 1.098-3.12 1.451-1.275 5.318-4.57 7.557-6.986 2.242-2.418 3.429-4.791 2.464-7.955" fill="#F0CFB9"/>
            <path d="m32.02 68.71-5.074 8.372s1.977-.261 3.955 1.451c1.974 1.716 6.459 2.638 10.018 1.716 2.705-.724 3.693-.13 5.208 0 1.518.131 3.694-.46 5.276-2.309 1.582-1.844 2.966-2.44 4.22-2.37-1.586-3.431-4.549-6.924-5.474-7.584-2.768 1.052-9.887 3.431-18.129.724" fill="#68CADE"/>
            <path d="M27.246 76.97c.603 0 2.17.145 3.718 1.487 1.418 1.232 4.201 2.06 6.927 2.06 1.071 0 2.081-.125 3.003-.366.897-.237 1.682-.352 2.41-.352.672 0 1.22.094 1.749.191.362.067.702.128 1.083.161.133.013.27.016.407.016 1.765 0 3.554-.855 4.783-2.288 1.393-1.625 2.735-2.413 4.113-2.413h.021c-1.554-3.297-4.399-6.665-5.327-7.368-6.145 2.33-12.382 2.58-18.068.73l-4.937 8.144c.036 0 .073-.003.118-.003m10.645 3.742c-2.81 0-5.582-.824-7.055-2.102-1.503-1.302-3.012-1.442-3.59-1.442-.185 0-.289.015-.289.015a.11.11 0 0 1-.097-.042c-.018-.034-.021-.076 0-.107l5.077-8.372a.097.097 0 0 1 .116-.043c5.677 1.862 11.913 1.616 18.062-.724.03-.012.064-.006.094.012 1.013.728 3.937 4.241 5.488 7.597.016.015.025.04.025.067 0 .055-.046.094-.1.097h-.007c-.058-.006-.118-.006-.176-.006-1.314 0-2.61.767-3.961 2.343-1.269 1.478-3.112 2.36-4.935 2.36a4.76 4.76 0 0 1-.423-.018c-.392-.033-.754-.1-1.1-.158-.521-.097-1.06-.195-1.717-.195-.709 0-1.478.113-2.357.35a12.25 12.25 0 0 1-3.055.368" fill="#079B9A"/>
            <path d="M50.15 67.985c-2.77 1.056-9.888 3.432-18.13.724l-.873 1.44c1.67.69 6.194 2.576 12.58 1.438 2.568-.806 3.763.414 5.287 2.744 1.528 2.33 1.61 2.732 1.61 2.732s-1.61 3.137-6.267 1.689c-4.66-1.448-6.669 2.65-9.964.161-2.884-2.184-5.467-3.38-7.301-2.072l-.146.24s1.977-.261 3.955 1.455c1.974 1.713 6.459 2.634 10.018 1.713 2.705-.725 3.693-.131 5.208 0 1.518.13 3.694-.46 5.276-2.31 1.582-1.843 2.966-2.436 4.22-2.37-1.586-3.431-4.549-6.924-5.474-7.584" fill="#07769E"/>
            <path d="M50.15 67.985c-2.77 1.056-9.888 3.432-18.13.724l-.575.956c1.823.641 8.64 2.625 17.67.094 1.132-.49 3.182 3.182 4.807 5.017-1.552.143-2.404 1.98-3.11 3.252-.708 1.271-3.252 2.12-6.148 1.557-2.896-.569-4.308-.286-5.862.563-1.555.846-3.672.14-5.939-.919-1.977-.927-3.794-2.826-5.823-2.154.411-.027 2.136-.033 3.86 1.46 1.975 1.714 6.46 2.635 10.02 1.714 2.704-.725 3.692-.131 5.207 0 1.518.13 3.694-.46 5.276-2.31 1.582-1.843 2.966-2.436 4.22-2.37-1.586-3.431-4.549-6.924-5.474-7.584" fill="#07769E"/>
            <g fill="#6C96BB">
                <path d="M31.42 71.128c-.937 1.13-1.59 2.434-2.607 3.517-.07.073-.055.274.058.162 1.092-1.08 1.719-2.4 2.595-3.633.03-.046-.003-.097-.046-.046M37.514 79.269c-.88 0-1.78.088-2.61-.262-.493-.207-.916-.73-1.333-1.053-1.214-.94-2.093-1.749-3.696-1.816-.015 0-.04.043-.019.043 1.655.24 2.635 1.21 3.895 2.2.444.35.794.73 1.326.958.69.3 1.625.152 2.352.13.076-.003.173-.2.085-.2M44.941 78.775c-.867-.255-1.773-.535-2.68-.635-.791-.082-1.439.24-2.194.368-.015.006-.04.055-.009.055.855-.098 1.588-.366 2.474-.201.785.149 1.524.483 2.321.63.082.018.192-.183.088-.217M46.082 78.948a.675.675 0 0 0-.27-.058c-.07-.003-.14.168-.07.164a.64.64 0 0 1 .258.034c.055.024.137-.116.082-.14"/>
            </g>
            <path d="M63.72 39.69s1.278-1.196 1.421-.825c.14.372 2.072 3.326 2.072 3.326s-.74.77-1.047.851c-.316.089-2.446-3.352-2.446-3.352" fill="#FEFEFE"/>
            <path d="M63.845 39.707c.959 1.543 2.066 3.143 2.307 3.237.219-.073.705-.529.937-.766-.296-.45-1.908-2.927-2.039-3.277h-.006c-.24 0-.833.475-1.199.806m2.307 3.438c-.369 0-1.884-2.379-2.516-3.401a.097.097 0 0 1 .015-.125c.164-.155 1.007-.922 1.378-.922a.21.21 0 0 1 .204.134c.11.286 1.4 2.288 2.065 3.307a.093.093 0 0 1-.012.122c-.079.079-.77.79-1.095.882l-.04.003" fill="#ABAAA7"/>
            <path d="M65.197 40.31c-.158-.2-.56-.623-.426-.927.088-.198.231-.335.393-.46-.012-.024-.019-.045-.025-.057-.14-.371-1.417.824-1.417.824s2.13 3.44 2.443 3.353c.31-.082 1.05-.852 1.05-.852s-.095-.143-.244-.374c-.752-.012-1.254-.852-1.774-1.506" fill="#503B44"/>
            <path d="M43.292 45.243s3.694.197 7.052.66c3.429.264 4.156.064 4.156.064s.329-1.382 1.451-.527c0 0 2.37-1.317 4.414-3.428 2.045-2.109 3.164-3.362 3.694-2.635.526.727.66 1.187 1.582 2.108.922.922 1.122 1.518.657 2.507-.46.986-4.019 5.34-10.015 7.977-4.29 1.91-6.727 1.579-8.309.59-3.1-4.216-6.197-7.119-4.682-7.316" fill="#EDACCD"/>
            <path d="M48.043 52.486c.833.52 1.78.77 2.887.77 1.472 0 3.261-.463 5.309-1.379 6.002-2.638 9.513-6.945 9.972-7.928.426-.916.28-1.476-.639-2.394a7.324 7.324 0 0 1-1.18-1.497 9.979 9.979 0 0 0-.414-.624c-.082-.112-.176-.167-.295-.167-.526 0-1.5 1.007-2.841 2.397l-.405.417c-2.03 2.1-4.414 3.432-4.442 3.447a.098.098 0 0 1-.103-.006c-.225-.174-.43-.262-.612-.262-.502 0-.684.724-.684.73a.104.104 0 0 1-.07.076c-.01 0-.283.07-1.235.07-.773 0-1.765-.045-2.951-.137-3.329-.456-7.016-.657-7.05-.66-.224.034-.264.131-.276.165-.18.45.922 1.804 2.315 3.523a84.973 84.973 0 0 1 2.714 3.459m2.887.967c-1.156 0-2.139-.268-3.009-.81-.012-.002-.021-.014-.027-.024-.95-1.293-1.886-2.449-2.714-3.468-1.548-1.907-2.57-3.164-2.352-3.72.064-.159.216-.253.454-.286.054 0 3.75.203 7.079.66a39.32 39.32 0 0 0 2.93.137c.693 0 1.016-.04 1.131-.058.061-.204.296-.819.858-.819.207 0 .438.086.679.26.368-.214 2.5-1.482 4.335-3.38l.402-.418c1.481-1.53 2.372-2.455 2.987-2.455.183 0 .335.08.456.247.168.23.299.438.423.632.271.43.524.837 1.15 1.464.98.982 1.147 1.618.679 2.616-.466 1.001-4.02 5.367-10.07 8.026-2.075.924-3.891 1.396-5.391 1.396" fill="#CA68A8"/>
            <path d="M65.64 41.484c-.922-.922-1.056-1.381-1.582-2.105a.494.494 0 0 0-.15-.14c.12.694.369 1.311 1.017 2.251.84 1.217.544 2.44-1.348 4.54-1.892 2.101-5.169 4.371-8.822 5.585-3.657 1.223-5.845-.67-7.232-2.394-1.387-1.72-1.935-3.067-.672-2.94 1.262.126 3.276.545 5.13.627 1.846.086 2.269 1.558 2.393 1.053.128-.505.505-1.68 1.305-1.43.794.253.63 1.853.63 1.853s.21-1.01.164-1.895c-.04-.883 1.765-1.512 3.113-3.32.334-.453.706-.958 1.074-1.46-.098.1-.192.201-.292.305-2.045 2.108-4.418 3.428-4.418 3.428-1.122-.855-1.45.526-1.45.526s-.725.198-4.154-.066c-3.361-.46-7.055-.66-7.055-.66-1.515.2 1.582 3.1 4.682 7.319 1.582.989 4.022 1.317 8.309-.593 6-2.638 9.556-6.991 10.018-7.977.462-.989.265-1.582-.66-2.507" fill="#D177AF"/>
            <path d="M49.686 65.15c.462-4.085-.085-6.744-.48-9.467-.396-2.726-1.498-4.922-2.77-6.461-1.274-1.54-2.51-3.122-2.51-3.122-.27-.042-.531-.079-.793-.115-.742-.1-1.436-.159-2.087-.19a15.581 15.581 0 0 0-2.817.114c-1.406.188-2.516.578-3.398 1.089-3.094 1.792-3.368 5.05-3.535 6.291-.265 1.974.79 4.217.59 5.403-.195 1.187-.326 3.56-1.05 6.264-.727 2.699-1.19 3.556 1.91 4.679.773.167 1.567.301 2.38.405a37.28 37.28 0 0 0 4.651.28 40.491 40.491 0 0 0 4.698-.277 26.578 26.578 0 0 0 3.322-.584c1.4-.35 2.351-.78 2.616-1.208.922-1.515.396-2.702-.727-3.1" fill="#EDACCD"/>
            <path d="M40.241 45.878c-.706 0-1.375.043-1.999.128-1.299.176-2.43.538-3.364 1.077-2.903 1.685-3.295 4.727-3.46 6.03l-.024.185c-.146 1.077.11 2.24.332 3.264.192.855.353 1.595.262 2.145-.058.32-.104.733-.162 1.211-.155 1.305-.368 3.088-.897 5.062-.043.168-.091.332-.134.484-.642 2.349-.834 3.058 1.987 4.077.718.158 1.515.292 2.354.398 1.458.189 3.01.283 4.61.283h.033a41.42 41.42 0 0 0 4.685-.274 27.55 27.55 0 0 0 3.307-.584c1.408-.356 2.315-.766 2.555-1.165.444-.724.572-1.408.368-1.977-.16-.448-.529-.797-1.04-.977a.095.095 0 0 1-.064-.106c.405-3.593.027-6.076-.338-8.48a56.7 56.7 0 0 1-.146-.96c-.353-2.422-1.33-4.7-2.747-6.414-1.165-1.408-2.303-2.865-2.485-3.094-.259-.04-.508-.079-.758-.112a24.91 24.91 0 0 0-2.075-.183c-.27-.012-.541-.018-.8-.018zm-.496 24.539c-1.609 0-3.167-.091-4.633-.28a28.422 28.422 0 0 1-2.388-.405c-3.003-1.089-2.76-1.968-2.118-4.32l.131-.483c.527-1.963.74-3.736.895-5.032.054-.48.106-.898.16-1.223.083-.511-.075-1.235-.258-2.072-.228-1.037-.483-2.22-.337-3.328l.024-.186c.17-1.33.569-4.441 3.56-6.173.952-.553 2.108-.927 3.434-1.104.864-.122 1.82-.155 2.839-.115.657.03 1.362.094 2.09.188.261.037.526.073.803.119a.107.107 0 0 1 .06.036c.013.016 1.245 1.598 2.504 3.119 1.445 1.74 2.434 4.052 2.793 6.51.043.32.094.642.14.961.365 2.398.745 4.88.353 8.455.523.21.91.59 1.083 1.074.158.438.213 1.162-.383 2.141-.344.57-1.646.995-2.678 1.254-.946.237-2.099.444-3.334.593-1.5.177-3.127.268-4.706.27h-.034z" fill="#CA68A8"/>
            <path d="M41.655 67.022c-4.55.137-3.194-3.468-2.583-4.487.612-1.022.749-1.427-1.56-1.768-2.312-.34-2.994-1.29-3.672-2.379-.682-1.086-.956-3.06-.067-4.283.882-1.223 1.086-3.398 1.086-4.217 0-.812 1.77-.745 4.077-.337 1.146.2 1.022 1.019.547 2.586-.478 1.56-.888 2.987-.684 4.417.206 1.427.754 1.02.684-.274-.067-1.29.609-2.446.952-3.605.338-1.153.271-1.56.752-.45.888 2.13.468 4.87.858 4.24.59-1.374.496-3.72-.323-4.873-.812-1.16-1.22-2.178-.337-2.379.885-.207 1.7-.478 2.582-1.497.682-.785 2.574 1.658 3.408 2.82a11.655 11.655 0 0 0-.94-1.317c-1.275-1.536-2.507-3.118-2.507-3.118-.27-.046-.536-.08-.797-.116a23.79 23.79 0 0 0-2.084-.191c-1.053-.043-1.987-.004-2.817.115-1.406.189-2.516.578-3.398 1.09-3.094 1.791-3.371 5.05-3.536 6.288-.264 1.977.788 4.22.59 5.406-.194 1.183-.325 3.56-1.052 6.26-.724 2.702-1.186 3.56 1.91 4.68.773.17 1.57.304 2.383.404 1.533.198 3.115.283 4.651.283a40.491 40.491 0 0 0 4.697-.277c1.254-.149 2.389-.35 3.323-.584 1.399-.35 2.351-.779 2.616-1.21.922-1.516.395-2.7-.727-3.098.34-3.008.134-5.244-.161-7.304l.018.338c.408 6.05-3.331 8.7-7.889 8.837" fill="#D177AF"/>
            <path d="M44.077 69.7c-.864-.126-1.738-.296-2.614-.284-.882.012-1.74.177-2.604.323-1.07.18-2.175.353-3.23.03-.36-.11-3.317-1.19-2.018-1.82.384-.185.764-.215 1.18-.16.153.024.314.057.47.048.477-.149.653-.356.535-.605a.371.371 0 0 1-.022-.222c.107-.304.384-.472.682-.539.25-.054.833-.09.815-.468-.018-.353-.34-.618-.548-.87-.063-.07.052-.22.131-.216.183.012.828.128.803-.222-.018-.29-.09-.667-.255-.907-.274-.39-.66-.66-.934-1.046-.055-.073.04-.195.11-.213.188-.061.37-.092.562-.131.417-.094.067-.557-.137-.688a4.144 4.144 0 0 0-1.15-.493c-1.226-.325-2.506.116-3.702.375-.06.015-.07-.05-.067-.095.076-.657.365-1.293.353-1.956-.012-.657-.143-1.287-.204-1.935-.097-1.037-.128-2.072.183-3.078.334-1.105.925-2.127 1.277-3.231.402-1.245.612-2.507.472-3.818 0-.016.006-.028.01-.046-2.474 1.84-2.727 4.71-2.879 5.853-.265 1.978.791 4.22.59 5.406-.194 1.184-.325 3.56-1.052 6.264-.724 2.699-1.187 3.557 1.91 4.68.773.167 1.57.3 2.382.4 1.534.199 3.116.284 4.652.284a40.491 40.491 0 0 0 4.697-.277c.453-.052.895-.116 1.311-.18a21.384 21.384 0 0 1-1.71-.164" fill="#D177AF"/>
            <path d="M29.376 64.2c-.486.825-.949 1.494-.772 2.087.112.365.56.721.882.94.76-.843 1.597-3.197 1.977-4.749a.612.612 0 0 0-.386-.13c-.386.024-1.21 1.03-1.7 1.852" fill="#FEFEFE"/>
            <path d="M31.105 62.444c-.32.022-1.092.883-1.642 1.807l-.15.247c-.407.678-.763 1.269-.611 1.758.07.247.344.545.77.84.733-.888 1.527-3.16 1.88-4.573a.487.487 0 0 0-.247-.079m-1.618 4.883a.094.094 0 0 1-.055-.015c-.356-.24-.803-.612-.925-.998-.17-.572.204-1.199.636-1.917l.15-.246c.459-.773 1.31-1.874 1.776-1.901l.036-.003c.137 0 .28.048.417.152.034.021.043.067.034.103-.332 1.366-1.166 3.867-1.996 4.792a.093.093 0 0 1-.073.033" fill="#ABAAA7"/>
            <path d="M31.079 62.346c-.104.006-.24.085-.393.21.119.094.177.262.14.523-.04.29-.313.584-.499.788-.423.46-.745.931-.88 1.558-.081.392-.507.496-.87.429a.983.983 0 0 0 .028.432c.113.365.557.72.882.94.761-.843 1.598-3.194 1.975-4.75a.615.615 0 0 0-.383-.13" fill="#503B44"/>
            <path d="M33.18 51.639c.532-1.57 2.08-5.351-1.75-4.153 0 0-2.574.593-6.857 6.194-2.242 3.167-2.44 4.813-1.388 7.32 1.056 2.5 4.549 5.141 4.549 5.141s.197 1.056 1.122 1.385c.195.07.41-.052.63-.299-.323-.219-.77-.575-.882-.943-.177-.59.286-1.26.772-2.084.49-.824 1.315-1.828 1.701-1.852a.612.612 0 0 1 .386.13c.034-.146.07-.292.098-.422-.201-1.123-.983-.718-1.603-2.23-.621-1.506-.916-2.127-1.36-2.066 2.157-2.011 4.049-4.554 4.581-6.121" fill="#EDACCD"/>
            <path d="M32.686 47.352c-.335 0-.748.076-1.229.228-.033.006-2.604.663-6.809 6.164-2.144 3.027-2.452 4.648-1.372 7.219 1.035 2.446 4.485 5.074 4.521 5.096.015.015.03.04.037.063 0 .01.197 1.004 1.055 1.312.125.042.277-.022.448-.192-.338-.237-.718-.572-.828-.928-.173-.572.2-1.199.636-1.917l.149-.249c.456-.77 1.308-1.871 1.777-1.901h.033c.1 0 .198.024.292.076.025-.095.046-.186.064-.271-.094-.499-.301-.657-.59-.876-.301-.231-.679-.52-1.004-1.311-.584-1.421-.888-2.06-1.257-2.008a.103.103 0 0 1-.1-.055.098.098 0 0 1 .021-.119c2.112-1.965 4.028-4.52 4.558-6.078l.11-.317c.361-1.04.97-2.783.431-3.544-.188-.264-.496-.392-.943-.392m-3.718 20.292a.49.49 0 0 1-.146-.025c-.873-.313-1.131-1.22-1.177-1.424-.362-.273-3.535-2.75-4.548-5.16-1.104-2.616-.776-4.347 1.396-7.41 4.256-5.567 6.806-6.212 6.912-6.237 1.196-.374 2.002-.295 2.382.244.603.842-.003 2.576-.401 3.723a8.31 8.31 0 0 0-.113.317c-.532 1.57-2.348 4.016-4.45 6.011.38.131.666.749 1.225 2.109.305.739.645.997.94 1.226.305.23.566.429.67 1.016v.04c-.03.133-.061.28-.1.428a.095.095 0 0 1-.061.07c-.03.01-.067.006-.092-.015a.53.53 0 0 0-.3-.113c-.32.022-1.093.883-1.644 1.807l-.146.247c-.407.678-.763 1.269-.614 1.758.079.259.374.575.842.889.025.018.04.042.043.07 0 .027-.003.057-.024.079-.213.234-.405.35-.594.35" fill="#CA68A8"/>
            <path d="M33.18 51.639c.532-1.57 2.08-5.351-1.75-4.153 0 0-2.33.536-6.24 5.406l.049.016s4.067-4.847 5.838-4.588c1.774.261 1.354 1.773-.73 4.484-2.084 2.71-2.817 3.648-4.068 4.271-1.195.682-1.405 1.774-1.405 1.774s1.199-1.092 2.139-1.043c.937.054-.837.94-1.099 2.135 1.464-.989 2.136-1.509 2.87-.517.73.989 1.904 1.692.73 2.918-1.202 1.253-2.14 2.662-2.714 1.877-.57-.782-2.76-1.668-3.332-4.22-.575-2.559-.626-3.493.676-5.631-.015-.003-.028-.006-.037-.006-1.798 2.732-1.895 4.317-.922 6.638 1.056 2.5 4.549 5.141 4.549 5.141s.197 1.056 1.122 1.385c.195.07.41-.052.63-.299-.323-.219-.77-.575-.882-.943-.177-.59.286-1.26.772-2.084.49-.824 1.315-1.828 1.701-1.852a.612.612 0 0 1 .386.13c.034-.146.07-.292.098-.422-.201-1.123-.983-.718-1.603-2.23-.621-1.506-.916-2.127-1.36-2.066 2.157-2.011 4.049-4.554 4.581-6.121" fill="#D177AF"/>
            <path d="M26.221 59.45c.07-.107.146-.21.22-.317l.112-.158c.036-.058.088-.1.13-.146l.278-.277c.045-.052.1-.082.155-.125l.155-.118.158-.119.17-.097.174-.098c.055-.033.122-.054.176-.082.122-.055.244-.106.371-.143.128-.042.253-.073.39-.1l-.03.185a2.464 2.464 0 0 0-.745-.222 2.373 2.373 0 0 0-.39-.03c-.131 0-.265.01-.393.03-.067.003-.13.022-.197.034-.061.015-.131.027-.19.052l-.19.06-.18.08c-.128.045-.24.121-.362.182-.061.03-.116.073-.17.11l-.171.112.152-.137c.055-.042.1-.094.158-.13.116-.077.22-.165.344-.226l.186-.097.191-.073c.067-.03.131-.049.198-.07.067-.015.13-.043.204-.052l.204-.033.213-.015c.14-.004.277 0 .42.015.136.018.273.045.41.085.137.04.268.079.399.152.051.027.064.085.045.134a.103.103 0 0 1-.073.049h-.006c-.115.018-.24.051-.359.088-.121.03-.234.082-.353.13-.057.028-.118.04-.176.074l-.167.088-.168.085-.158.1-.161.104c-.052.04-.11.067-.152.11l-.29.249c-.048.04-.1.079-.142.128l-.128.143c-.085.097-.176.191-.262.286" fill="#CA68A8"/>
            <path d="M29.724 67.551s-.794-.9-.073-2.376c.72-1.475 1.798-2.844 3.453-3.669 1.655-.827 2.285-.638 3.635-.359 1.403.283 1.476.682 1.296 1.007-.18.323-.541.469-1.655.36-1.12-.107-1.767.07-1.767.07s1.481.288 2.196.647c.721.362.937.794.83 1.19-.109.395-.468.575-1.402.252-.937-.325-2.16-.864-3.203-.182 2.05-.107 3.921.578 3.885 1.26-.034.687-.682.647-1.978.252-1.296-.399-1.907-.146-1.907-.146s.906.018 1.704.325c.79.305 1.016.724.918 1.102-.097.374-.572.404-1.576.14-1.004-.268-1.253-.295-1.253-.295s-.049 1.204-1.333 1.17c-1.286-.033-1.77-.748-1.77-.748" fill="#FDD6B5"/>
            <path d="M35.16 61.01c-.586 0-1.192.173-2.01.58-1.442.724-2.59 1.944-3.41 3.63-.682 1.393.03 2.23.054 2.263.012.019.49.688 1.7.715l.052.003c1.123 0 1.178-1.034 1.18-1.074 0-.03.013-.054.034-.073a.098.098 0 0 1 .076-.021c.01 0 .268.027 1.266.292.441.116.767.173 1 .173.35 0 .43-.127.457-.24.1-.38-.204-.73-.858-.986-.77-.295-1.66-.313-1.67-.313a.1.1 0 0 1-.094-.079.104.104 0 0 1 .058-.113c.009 0 .213-.085.626-.085.402 0 .855.076 1.348.225.633.195 1.04.277 1.33.277.352 0 .505-.125.523-.438.003-.097-.046-.2-.146-.31-.405-.426-1.64-.855-3.213-.855-.14 0-.28.003-.426.012a.104.104 0 0 1-.097-.07.1.1 0 0 1 .036-.112 2.135 2.135 0 0 1 1.208-.347c.636 0 1.272.225 1.829.423.088.033.173.06.252.09.313.107.572.165.767.165.289 0 .447-.11.51-.35.107-.39-.167-.766-.778-1.07-.694-.35-2.154-.64-2.166-.64a.103.103 0 0 1-.082-.09c0-.05.03-.092.076-.104.012-.003.398-.11 1.092-.11.228 0 .465.013.703.037.243.024.45.036.626.036.618 0 .822-.14.934-.35.067-.112.076-.206.037-.295-.073-.152-.347-.374-1.266-.565l-.194-.037c-.524-.113-.937-.195-1.363-.195m-3.615 7.393-.057-.003c-1.32-.033-1.829-.76-1.847-.791-.027-.033-.818-.955-.08-2.476.844-1.725 2.015-2.976 3.5-3.715.848-.426 1.478-.605 2.099-.605.447 0 .87.085 1.405.197l.192.04c.815.167 1.272.39 1.405.678.067.143.052.305-.042.475-.177.316-.496.447-1.108.447-.182 0-.392-.012-.641-.04a7.45 7.45 0 0 0-1.217-.009c.499.12 1.24.314 1.7.545.943.469.955 1.016.88 1.302-.14.52-.627.63-1.53.316a2.397 2.397 0 0 1-.26-.09c-.544-.192-1.159-.411-1.76-.411-.26 0-.497.04-.719.118 1.44 0 2.848.387 3.356.922.137.146.204.301.194.456-.02.42-.258.627-.718.627-.307 0-.739-.088-1.387-.286a5.565 5.565 0 0 0-.523-.137c.128.04.256.076.383.128 1.026.395 1.056.934.98 1.217-.067.261-.28.39-.648.39-.253 0-.587-.056-1.047-.18a21.575 21.575 0 0 0-1.147-.274c-.048.307-.286 1.159-1.363 1.159" fill="#C46749"/>
            <path d="M34.775 62.566s-.11.04-.277.088c-.168.046-.39.098-.612.146-.112.019-.216.055-.322.07-.107.019-.201.046-.283.061-.043.006-.08.021-.113.028-.033.009-.067.02-.091.024a.39.39 0 0 1-.076.018s.021-.021.058-.052c.021-.015.048-.036.079-.057.03-.019.058-.05.1-.067.04-.019.08-.043.128-.064.049-.018.094-.043.15-.058.103-.037.215-.073.33-.094.113-.022.229-.046.338-.052a2.123 2.123 0 0 1 .59.01" fill="#C46749"/>
            <path d="M37.137 46.119s-.04-.989-.046-1.585h-.14s-1.323-.11-1.877-.033c-.548.073-.368.955-.368.955s-1.028-.368-1.804 0c-.846.477-2.133 2.282-2.133 2.282s5.175 1.195 9.498 1.393c-.733-1.686-3.13-3.012-3.13-3.012" fill="#EDACCD"/>
            <path d="M30.939 47.676c.86.188 5.345 1.153 9.17 1.347-.783-1.566-2.997-2.808-3.022-2.817a.099.099 0 0 1-.048-.082c0-.012-.037-.894-.046-1.49h-.036c-.022 0-.761-.061-1.354-.061-.22 0-.393.009-.514.024a.304.304 0 0 0-.213.125c-.14.197-.098.584-.07.715a.106.106 0 0 1-.03.094c-.031.024-.07.033-.101.018-.003 0-.45-.158-.958-.158-.296 0-.557.055-.773.155-.682.39-1.704 1.719-2.005 2.13m9.327 1.554c-4.286-.194-9.467-1.38-9.516-1.393a.098.098 0 0 1-.073-.064.09.09 0 0 1 .012-.091c.055-.076 1.312-1.829 2.167-2.312a1.97 1.97 0 0 1 .86-.177c.363 0 .691.073.87.125-.018-.192-.018-.505.128-.712a.496.496 0 0 1 .347-.204c.131-.018.314-.027.542-.027.605 0 1.35.064 1.36.064l.124-.006a.192.192 0 0 1 .073.027c.019.018.03.046.03.073.007.508.034 1.308.04 1.527.362.204 2.44 1.448 3.128 3.033a.094.094 0 0 1-.006.095.102.102 0 0 1-.086.042" fill="#CA68A8"/>
            <path d="M32.861 45.857c.825-.185 1.634.226 2.45.353 1.36.21 2.451.496 3.203 1.744.04.063-.01.152-.058.194-.532.432-1.229.523-1.895.542-.213.006-.42.006-.627 0 1.396.204 2.911.377 4.335.44-.736-1.688-3.133-3.011-3.133-3.011s-.037-.989-.043-1.588l-.14.003s-1.326-.11-1.877-.033c-.55.073-.371.955-.371.955s-1.025-.368-1.801 0c-.277.155-.6.456-.91.785.268-.162.548-.314.867-.384" fill="#D177AF"/>
            <path d="M40.526 47.928c.265-.544.113-.995 0-1.554-.082-.42.043-1.445.11-1.938l-3.544.097c.006.596.045 1.585.045 1.585s2.398 1.327 3.13 3.015c.037 0 .074.003.107.003 0 0-.11-.663.152-1.208" fill="#FDD6B5"/>
            <path d="M37.232 46.06c.34.194 2.245 1.332 3.024 2.813-.013-.255.015-.641.182-.985.216-.447.137-.822.034-1.287-.013-.07-.028-.137-.043-.21-.082-.395.018-1.287.094-1.856l-3.331.095c.006.505.033 1.229.04 1.43m3.142 3.176h-.006l-.103-.007a.093.093 0 0 1-.086-.057c-.714-1.64-3.066-2.954-3.09-2.967a.095.095 0 0 1-.052-.082c0-.009-.037-1-.046-1.59 0-.056.046-.098.098-.098l3.544-.098c.033 0 .058.007.079.03a.115.115 0 0 1 .021.08c-.058.435-.191 1.494-.11 1.908.013.066.031.136.043.2.104.49.192.91-.051 1.418-.247.505-.143 1.14-.143 1.147a.098.098 0 0 1-.022.082.099.099 0 0 1-.076.034" fill="#C46749"/>
            <path d="M40.526 47.928c.265-.544.113-.995 0-1.554-.082-.42.043-1.445.11-1.938l-3.544.097c.006.596.045 1.585.045 1.585s2.398 1.327 3.13 3.015c.037 0 .074.003.107.003 0 0-.11-.663.152-1.208" fill="#F0CFB9"/>
            <path d="M40.517 46.28c-.057-.463.058-1.385.12-1.847l-3.545.1c.003.475.03 1.202.042 1.476 1.026.383 2.361.307 3.383.27" fill="#F0CFB9"/>
            <path d="M40.636 44.434c-.067.493-.192 1.518-.11 1.941.113.557.265 1.01 0 1.552-.261.544-.152 1.21-.152 1.21 4.418-1.399 4.49-4.821 4.49-4.821l-4.228.118z" fill="#EDACCD"/>
            <path d="M40.723 44.532c-.061.472-.177 1.433-.098 1.823.012.067.03.134.04.2.106.49.194.91-.049 1.418-.182.378-.173.825-.155 1.035 2.166-.718 3.222-1.941 3.727-2.845.438-.794.544-1.49.572-1.746l-4.037.115zm-.347 4.704a.103.103 0 0 1-.052-.015.083.083 0 0 1-.043-.07c-.006-.025-.118-.7.156-1.266.219-.444.136-.818.036-1.284l-.046-.21c-.082-.426.034-1.414.113-1.971.003-.049.046-.082.094-.082l4.226-.122c.03 0 .058.01.076.03.018.019.03.046.03.07 0 .034-.124 3.514-4.56 4.914-.009.006-.018.006-.03.006z" fill="#CA68A8"/>
            <path d="M41.177 48.124a.06.06 0 0 1-.046-.067c.073-.751.08-1.755.724-2.278.816-.667 1.88-.469 2.86-.63.143-.502.15-.834.15-.834l-4.23.119c-.066.493-.191 1.518-.109 1.94.113.558.265 1.01 0 1.555-.262.542-.152 1.208-.152 1.208a8.122 8.122 0 0 0 1.94-.891 3.141 3.141 0 0 1-1.137-.122" fill="#D177AF"/>
            <path d="M40.244 48.983c-.015-.052-.07.03-.067.06.225 2.057-.225 3.536-1.08 5.395-.356.77-.383 1.916-.006 2.674.097.198.423-.22.371-.374-.538-1.616.41-2.897.773-4.418.265-1.113.307-2.233.009-3.337" fill="#FEFEFE"/>
            <path d="M40.333 50.124c-.009 1.548-.441 2.823-1.147 4.356-.356.767-.359 1.874-.009 2.58a.359.359 0 0 0 .119-.115c.064-.086.079-.159.073-.177-.39-1.171-.03-2.15.353-3.179.155-.417.31-.849.42-1.293.176-.751.24-1.482.191-2.172m-1.168 7.14a.18.18 0 0 1-.161-.11c-.378-.754-.378-1.94 0-2.762.851-1.834 1.296-3.3 1.07-5.342-.006-.06.046-.122.055-.13a.125.125 0 0 1 .1-.053c.043 0 .098.046.11.089.28 1.046.28 2.187-.006 3.386-.11.459-.27.891-.429 1.314-.368.998-.718 1.944-.35 3.051.049.137-.067.31-.103.36-.043.06-.155.197-.286.197" fill="#ABAAA7"/>
            <path d="M42.134 52.836c-.49-1.47-1.382-2.558-1.33-4.174.003-.04-.046 0-.049.022-.167 1.055.025 1.84.442 2.817.337.788.69 1.585.87 2.424.17.819-.025 1.716-.022 2.54 0 .317.338-.048.36-.2.173-1.21.115-2.267-.271-3.429" fill="#FEFEFE"/>
            <path d="M40.809 49.74c.048.59.225 1.132.48 1.725l.055.125c.316.746.648 1.512.818 2.315.116.551.073 1.132.028 1.695a10.55 10.55 0 0 0-.046.867v.006a.539.539 0 0 0 .161-.222c.18-1.247.098-2.288-.264-3.383-.162-.478-.365-.916-.56-1.342-.27-.59-.532-1.159-.672-1.785m1.302 6.948c-.037 0-.165-.015-.165-.222 0-.29.025-.59.046-.882.043-.548.088-1.114-.024-1.637-.165-.785-.493-1.546-.81-2.279l-.051-.124c-.408-.953-.624-1.762-.447-2.878.009-.055.07-.122.133-.122.03 0 .061.012.076.033.022.022.034.061.034.086-.034 1.064.35 1.895.754 2.777.204.432.408.88.57 1.366.374 1.126.459 2.197.276 3.471-.021.143-.234.411-.392.411" fill="#ABAAA7"/>
            <path d="M35.253 45.54s.125-.013.313.006c.095.009.201.02.317.042.115.021.234.055.359.088.115.04.237.067.346.122.107.055.204.104.283.152.168.094.265.17.265.17s-.128-.018-.307-.066a9.03 9.03 0 0 1-.301-.089c-.104-.04-.229-.063-.341-.1a5.06 5.06 0 0 1-.344-.113 1.906 1.906 0 0 1-.298-.097l-.216-.079c-.049-.021-.076-.037-.076-.037" fill="#CA68A8"/>
            <path d="M29.02 49.488c-1.287.919-2.437 2.29-3.368 3.572-1.052 1.45-1.627 2.914-1.938 4.688-.04.216.198.07.222-.058.344-1.722.934-3.07 1.865-4.54.791-1.246 2.127-2.625 3.24-3.577.034-.03.049-.137-.021-.085M25.859 62.014c-.502-.512-1.056-.959-1.488-1.537-.48-.639-.484-1.314-.569-2.075-.003-.042-.055.022-.058.04-.07.76-.048 1.396.326 2.069.374.675 1.052 1.26 1.66 1.703.077.061.19-.137.129-.2M63.403 39.651c-.813.368-1.217.943-1.674 1.692-.824 1.36-1.95 2.525-3.164 3.544-.076.067-.106.292.04.185.87-.641 1.594-1.414 2.275-2.245.825-1.01 1.34-2.424 2.516-3.07.04-.02.076-.14.007-.106M57.633 45.816c-.252.359-.636.587-.818.991-.174.387-.122.864-.091 1.272.012.113.164-.052.167-.112.021-.478-.082-1.013.231-1.424.183-.237.41-.43.572-.685.046-.073-.012-.106-.06-.042M55.36 47.162c-.386.21-.608.359-.885.681-.32.368-.852-.122-1.193-.286-1.46-.706-3.28-.46-4.837-.757-.018-.003-.045.045-.021.051.998.228 2.014.247 3.018.432 1.05.195 1.898.578 2.88.931.037.012.068-.021.083-.045.24-.387.566-.66.95-.889.042-.024.081-.161.005-.118M37.775 47.307c-1.083-.998-2.5-1.125-3.897-1.274-.021-.003-.049.045-.024.051.593.131 1.14.271 1.746.335.767.082 1.479.615 2.093 1.025.049.034.128-.094.082-.137M38.304 48.03c-.119-.21-.24-.433-.423-.59-.012-.016-.046.03-.036.045.158.197.24.432.377.642.027.048.103-.058.082-.098" fill="#FEFEFE"/>
            <path d="M41.923 44.351s.137.076.347.143c.106.034.23.064.365.085.07.016.14.016.213.025.07.006.143.006.216.009.143 0 .289-.015.425-.03.067-.013.134-.022.198-.031.064-.012.122-.027.177-.04.112-.018.2-.048.267-.063a.938.938 0 0 1 .104-.025s-.034.025-.091.061c-.055.034-.134.091-.247.137a2.331 2.331 0 0 1-.377.134 2.18 2.18 0 0 1-.456.055 1.767 1.767 0 0 1-.463-.061 1.371 1.371 0 0 1-.374-.152 1.025 1.025 0 0 1-.304-.247" fill="#C46749"/>
            <g fill="#F0CFB9">
                <path d="M33.854 65.947c-.201-.046-.423-.085-.648-.134-.116.021-.174.046-.174.046s.36.009.822.088"/>
                <path d="M34.659 67.153c-1.385-.42-2.242-.398-2.242-.398s.328.903-.658 1.01c-.988.112-2.376-.502-1.804-2.26.572-1.76 1.716-2.988 1.716-2.988s.003-.022.01-.049c-.886.764-1.543 1.707-2.03 2.708-.72 1.475.073 2.376.073 2.376s.484.715 1.77.748c1.285.034 1.333-1.171 1.333-1.171s.25.027 1.254.295c1.004.265 1.478.234 1.576-.14v-.006c-.19.042-.496.024-.998-.125"/>
                <path d="M33.854 65.947c.128.024.25.052.37.076a6.729 6.729 0 0 0-.37-.076M36.542 62.01c-1.825-.042-2.282-.392-3.28.433-.47.389-.042.428.49.264.271-.082.572-.143 1.023-.155.252-.049.809-.116 1.603-.04 1.113.11 1.478-.036 1.655-.359.094-.164.119-.34-.052-.517-.216.21-.63.393-1.439.375M36.316 64.245c-1.968-.615-2.522-.636-3.361.225l.13-.01c1.032-.632 2.23-.106 3.152.214.934.322 1.293.14 1.403-.253a.892.892 0 0 0 .021-.219c-.164.2-.541.295-1.345.043M35.912 65.9c-1.143-.42-2.485-.42-2.838-.11.046.009.085.018.13.024.262-.048.831-.088 1.738.189 1.253.383 1.898.429 1.968-.192-.191.17-.508.271-.998.088"/>
            </g>
            <g fill="#FCDFDB">
                <path d="M37.205 61.348c-.736-.22-1.64-.402-2.398-.292-.724.103-1.435.581-2.068.9-.01.006-.022.043-.003.034.611-.231 1.18-.581 1.816-.764.815-.231 1.78.15 2.598.24.046.007.11-.103.055-.118M37.318 63.734c-1.26-.88-2.784-1.205-4.214-.597-.009.003-.021.034-.003.028.888-.283 1.664-.356 2.556-.049.538.186 1.058.612 1.612.703.033.009.08-.064.049-.085M32.276 62.17c-.642.47-1.232 1.087-1.573 1.814-.03.07.043.08.076.024a6.582 6.582 0 0 1 1.512-1.767c.034-.024.043-.11-.015-.07M36.536 65.578c-.912-.894-2.281-.82-3.45-.824-.018 0-.042.043-.02.049.489.054.988 0 1.48.058.691.076 1.336.508 1.92.83.05.027.107-.076.07-.113M35.45 66.55c-.71-.517-1.659-.645-2.52-.53-.021.007-.052.065-.021.065.879.012 1.685.167 2.452.614.055.03.143-.11.088-.149"/>
            </g>
            <path d="M48.81 56.238c-.201-2.82-1.303-4.935-3.028-7.1-.051-.065-.155.078-.115.136 1.344 1.993 2.324 3.867 2.701 6.28.426 2.698-.134 5.092-.925 7.645-.094.313.256.127.329-.034 1.013-2.175 1.205-4.563 1.037-6.927M47.077 64.206c-.18.453-.532.773-.964.974-.104.048-.259.413-.058.356.581-.15 1.034-.804 1.208-1.348.055-.17-.15-.08-.186.018" fill="#FEFEFE"/>
            <path d="M15.065 15.601c1.379-1.99 3.423-3.565 5.942-3.307.575.061 1.132.213 1.673.411.03-.049.058-.097.088-.143.067-.1.238-.018.17.082-.027.043-.051.088-.075.128.048.015.097.036.143.055.027.009.009.055-.016.048-.054-.018-.106-.033-.158-.051-.508.833-.79 1.773-1.022 2.716-.262 1.071-.447 2.142-.484 3.243-.082 2.227.43 4.436 1.138 6.535.727 2.163 1.71 4.226 2.668 6.3.45.974.892 1.957 1.235 2.976.308.919.581 1.89 1.077 2.732.025-.01.052-.006.064.018.213.36.36.752.572 1.108.237.398.624.693.916 1.052.526.663 1 1.378 1.345 2.148.352.788.438 1.63.225 2.464-.089.335-.25.654-.457.928-.24.329-.532.511-.815.749a3.658 3.658 0 0 1-.198.453c-.334.65-1.04.955-1.372 1.591-.207.399-.204.891-.161 1.323.046.46.286.615.618.727.243-.027.483-.07.72-.118.04-.006.061.048.022.064-.15.054-.298.106-.447.149.036.015.03.058-.01.064a.912.912 0 0 1-.298.012c-1.025.225-2.038.079-2.908-.633-.788-.642-1.25-1.828-1.165-2.872-.581.97-.015 2.358.882 2.93.015.006.027.009.04.015.012.003.018.012.02.021.016.01.034.022.05.03.036.022.009.074-.028.059-.033-.013-.058-.028-.088-.04-.228-.021-.441-.091-.672-.073-.232.015-.423.04-.64-.006-1.262-.104-2.324-1.034-2.926-2.187a3.705 3.705 0 0 1-.398-1.589 3.463 3.463 0 0 1-1.257-2.044c-.137-.666-.064-1.746.46-2.297-.323.131-.688.155-1.047.03-.983-.343-1.357-1.374-1.28-2.351.002-.037.048-.046.072-.024v-.01c.234.305.52.545.931.554.511.012.907-.51 1.11-.91.436-.82-.06-1.776-.52-2.464-.836-1.238-2.068-2.154-2.984-3.33-.97-1.254-1.37-2.779-1.868-4.26-.505-1.494-.846-2.978-.925-4.56-.155-2.942.335-5.981 2.038-8.446" fill="#443A33"/>
            <path d="M16.007 16.89c.32-.717.709-1.393 1.129-2.056.216-.338.499-.709.55-1.126.037-.295-.188-.368-.453-.356 1.086-.766 2.355-1.204 3.775-1.058.572.06 1.132.216 1.67.41.031-.048.061-.097.092-.143.064-.1.237-.018.167.083-.024.042-.048.088-.076.127.052.016.098.037.146.055.028.01.01.058-.015.049l-.161-.052c-.508.837-.791 1.774-1.022 2.72-.262 1.068-.445 2.139-.484 3.24-.08 2.227.432 4.435 1.138 6.535.727 2.166 1.712 4.225 2.668 6.3.453.974.891 1.956 1.235 2.975.31.92.584 1.893 1.08 2.732.024-.009.049-.006.06.022.217.356.36.748.576 1.104.237.399.623.697.915 1.056.524.66 1.001 1.375 1.345 2.148a3.71 3.71 0 0 1 .222 2.46c-.085.338-.25.655-.453.929-.24.328-.533.51-.819.748a3.447 3.447 0 0 1-.194.453c-.338.651-1.04.956-1.372 1.591-.21.399-.207.892-.162 1.324.046.46.286.617.618.73.24-.03.48-.073.718-.119.043-.009.064.046.021.061-.149.058-.295.107-.444.15.034.014.028.057-.009.063a.93.93 0 0 1-.301.012c-1.025.228-2.038.08-2.909-.633-.787-.641-1.247-1.828-1.165-2.871-.578.97-.015 2.357.883 2.93l.042.014c.012.003.018.016.021.025.016.009.034.018.046.027.037.021.01.073-.024.058-.034-.012-.061-.027-.092-.04-.228-.02-.438-.09-.669-.073-.231.019-.423.04-.639-.006-1.262-.1-2.327-1.034-2.926-2.187a3.702 3.702 0 0 1-.399-1.585 3.47 3.47 0 0 1-1.256-2.048c-.137-.666-.067-1.743.456-2.296a1.47 1.47 0 0 1-1.047.033c-.949-.335-1.332-1.311-1.286-2.257.045.048.094.097.146.137.23.733.736 1.31 1.658 1.183 1.131-.161 1.843-1.123 2.074-2.175.195 1.792-1.378 3.255-1.195 5.123.015.137.198.11.228-.006.277-1.104.93-1.74 1.786-2.44.32-.262.59-.526.779-.84-.122.706-.423 1.345-.791 1.993-.408.709-.877 1.485-.937 2.318-.104 1.494.642 3.082 1.965 3.824.094.052.18-.07.146-.149-.785-1.977.642-3.434 2.181-4.444-.678 1.642-1.135 3.498.15 4.977.066.079.227.033.2-.086-.511-1.974 2.035-2.777 2.163-4.639.085-1.238-.532-2.376-1.451-3.167.74.362 2.102 1.09 2.662 1.737.097.11-.59-1.335-.678-1.457-3.825-5.205-10.31-3.547-12.662-12.802.423 1.375 1.679 3.106 2.464 4.302.806 1.223 5.105 4.338 3.526 2.659-1.451-1.54-1.859-2.714-2.54-4.205-.758-1.655-1.397-3.489-1.616-5.302-.234-1.896.034-3.846.262-5.729.219-1.746.858-3.38 1.256-5.09.01-.048-.027-.1-.073-.115-1.67-.602-3.063 5.147-3.173 6.063-.176 1.512-.255 3.073-.353 4.59-.45-2.816-.541-5.886.627-8.517" fill="#443A33"/>
            <g transform="translate(13 22.94)">
                <mask id="zxarf584qf" fill="#fff">
                    <use xlink:href="#1n0q2zu8te"/>
                </mask>
                <path d="M1.302 4.764c.648 1.722 1.372 3.407 2.546 4.85.642.79 1.354 1.515 2.093 2.208.557.782.977 1.643 1.083 2.58.1.888-.149 2.15-1.256 2.257a1.563 1.563 0 0 1-.508-.033c.487-.015.864-.517 1.065-.904.435-.824-.061-1.776-.52-2.464-.837-1.238-2.07-2.154-2.985-3.334C1.85 8.67 1.45 7.146.952 5.668.447 4.174.106 2.686.027 1.108.006.738-.003.367 0 0c.24 1.63.72 3.222 1.302 4.764" fill="#443A33" mask="url(#zxarf584qf)"/>
            </g>
            <path d="M15.814 15.03c.876-1.055 1.929-2.074 3.289-2.451 1.186-.326 2.382-.158 3.538.188-.508.837-.8 1.786-1.025 2.738-.24 1.017-.43 2.039-.457 3.088-.064 2.242.38 4.466 1.092 6.58.776 2.3 1.823 4.479 2.83 6.678.468 1.029.906 2.057 1.26 3.128.282.852.571 1.667 1.064 2.415.444 1.46 1.725 2.38 2.443 3.69.456.837.821 1.835.581 2.793-.125.49-.332.974-.675 1.348-.122.131-.262.238-.396.35.259-.964.01-1.907-.611-2.78-.046-.058-.134 0-.092.057.6.886.907 1.956.42 2.976-.23.495-.532.86-.952 1.213-.228.195-.472.414-.587.697-.253.62-.329 1.795.243 2.194-.897.057-1.767-.092-2.504-.758-.41-.377-.748-.846-.876-1.4-.112-.49-.097-.979-.14-1.469a.067.067 0 0 0-.006-.042c-.006-.061-.009-.119-.018-.183-.003-.033-.049-.036-.06-.003a2.208 2.208 0 0 0-.031.137.054.054 0 0 0-.025.021c-.815.861-.389 2.468.527 3.149a.107.107 0 0 0-.043-.01c-.006-.011-.012-.014-.021-.014-.01.003-.018.003-.024.003a1.118 1.118 0 0 0-.174-.019c-.152 0-.307.019-.46.043-1.353-.085-2.582-1.062-3.093-2.33-.64-1.594-.174-3.11.76-4.47.01-.009-.006-.02-.009-.012-.65.694-1.122 1.415-1.223 2.386-.021.182-.03.374-.03.56-1.15-1.16-1.433-2.903-.45-4.33.003-.003.003-.003.003-.009.249-.18.459-.426.59-.712.009-.021-.018-.04-.03-.024-.475.657-1.281 1.107-2.079.709-.778-.39-.84-1.016-.976-1.728.344.34.803.535 1.299.27 1.09-.587 1.278-1.868.764-2.914-.642-1.293-1.765-2.194-2.717-3.243-1.199-1.314-1.804-2.769-2.343-4.439-.52-1.61-1-3.17-1.089-4.88-.17-3.255.377-6.616 2.513-9.19m-2.787 9.017c.08 1.579.42 3.067.925 4.56.5 1.479.898 3.003 1.868 4.257.916 1.18 2.148 2.096 2.982 3.334.462.687.958 1.64.523 2.464-.204.396-.6.919-1.11.907-.411-.01-.697-.25-.935-.551v.01c-.02-.022-.066-.013-.07.02-.076.98.299 2.011 1.281 2.355.36.125.724.097 1.047-.033-.523.553-.596 1.63-.46 2.297.17.818.606 1.542 1.257 2.047.021.55.14 1.092.398 1.585.6 1.153 1.665 2.087 2.927 2.187.216.05.408.025.639.006.231-.018.444.055.672.074.03.012.055.027.088.04.037.014.064-.034.028-.056l-.049-.03c-.003-.01-.009-.021-.021-.024-.012-.007-.024-.01-.04-.016-.897-.569-1.463-1.956-.882-2.93-.085 1.044.377 2.234 1.165 2.876.87.708 1.883.857 2.909.632.09.013.188.01.298-.012.04-.006.045-.052.009-.067.149-.04.298-.091.447-.149.04-.012.018-.07-.021-.06a9.371 9.371 0 0 1-.721.118c-.332-.113-.572-.27-.618-.727-.042-.435-.045-.928.162-1.327.331-.635 1.037-.937 1.372-1.588.079-.152.143-.304.197-.456.283-.237 1.056-1.07.816-.748-.137.185.529-1.214.456-.925-.216.833.128-1.676-.225-2.464-.344-.773-.819-1.485-1.345-2.148-.292-.36-.678-.657-.916-1.056-.213-.356-.359-.748-.571-1.104-.013-.028-.04-.03-.064-.022-.496-.84-.77-1.813-1.077-2.728-.347-1.02-.785-2.005-1.235-2.979-.959-2.075-1.941-4.134-2.669-6.297-.708-2.102-1.22-4.308-1.137-6.538.036-1.101.222-2.17.483-3.24.232-.946.515-1.883 1.023-2.72.051.018.103.034.158.052.024.009.042-.04.015-.049-.046-.015-.094-.036-.146-.051.027-.043.052-.089.079-.128.067-.1-.103-.186-.17-.085-.03.045-.058.097-.089.143-.541-.195-1.098-.35-1.673-.408-2.519-.259-4.563 1.314-5.941 3.304-1.704 2.464-2.194 5.503-2.039 8.448" fill="#020303"/>
            <path d="M22.157 11.094c.307.548.115 1.065-.097 1.196.133-.38.17-.794.097-1.196" fill="#F8B448"/>
            <path d="M22.098 12.176c.136-.17.14-.514.097-.752a2.367 2.367 0 0 0-.08-.523v.003c.21.237.335.63.262 1.007-.04.22-.173.408-.34.453.021-.064.042-.124.06-.188" fill="#B47C2B"/>
            <path d="M22.157 11.094c.307.548.115 1.065-.097 1.196.133-.38.17-.794.097-1.196" fill="#F8B448"/>
            <path d="M22.059 12.292c.213-.134.405-.651.097-1.196a.341.341 0 0 0-.012-.064c.128-.161 1.36-1.661 2.306-1.43.487.119.642 3.198-.252 3.566-.782.322-1.893-.55-2.17-.788a1.46 1.46 0 0 0 .03-.088" fill="#F8B448"/>
            <path d="M22.08 12.324a.639.639 0 0 0 .316-.538c.003-.064-.103-.837-.17-.751.07-.089.143-.17.219-.256.37-.402.788-.806 1.24-1.013.594-.268.895-.134 1.005.587.106.679.204 2.3-.441 2.729-.667.444-1.634-.286-2.17-.758m-.082.134c.551.472 1.318.968 2.017.807.773-.18.925-1.257.916-2.103-.009-.824-.079-1.795-.882-1.609-.709.164-1.384.742-1.917 1.4.046.185.064.38.064.571.052.268.055.563-.112.697-.025.08-.055.158-.086.237" fill="#B47C2B"/>
            <path d="M22.288 11.926s.006-.03.033-.079a.484.484 0 0 1 .043-.091c.024-.028.045-.07.076-.1a.921.921 0 0 1 .219-.198c.042-.03.085-.07.134-.085.051-.019.094-.04.143-.061.1-.046.197-.052.292-.07.045-.006.091-.012.13-.012.043.006.083.006.12.009.145.015.237.048.237.048s-.098.046-.238.083l-.112.03c-.043.006-.086.027-.128.04-.04.015-.088.03-.13.042a.492.492 0 0 0-.135.043c-.091.04-.18.064-.258.11-.04.024-.083.039-.119.06a.759.759 0 0 1-.103.06c-.03.02-.058.047-.083.065-.027.021-.051.036-.064.051-.036.03-.057.055-.057.055" fill="#B47C2B"/>
            <path d="M22.564 10.955c.633-.876 1.685-1.36 1.87-.922.193.438-.093.694.065 1.202.155.508.003 1.716-.955 1.271-.959-.447-.776-1.143.374-1.265 0 0-.38-.27-.904-.07-.523.2-.602-.006-.45-.216m-.536 1.427c.277.234 1.388 1.107 2.17.785.894-.369.739-3.444.252-3.563-.946-.234-2.178 1.269-2.306 1.427.006.018.01.04.012.064.308.544.116 1.062-.097 1.195l-.03.092" fill="#F8B448"/>
            <path d="M22.93 10.649c.41-.435 1.049-.797 1.28-.587.234.21.055.684-.48.803-.54.115-1.26.27-.8-.216M23.41 11.582c.49-.168 1.014-.156.965.337-.049.493-1.82-.051-.964-.337M21.328 12.425c-.313-.063-.569-.733.1-1.29 0 0-1.277-1.925-2.625-1.895-.66.018-1.621 3-.563 3.544 1.065.548 3.088-.359 3.088-.359" fill="#F8B448"/>
            <path d="M21.343 12.378c-.56-.201-.025-.998.188-1.199.013-.01.006-.021 0-.033-.532-.794-1.283-1.552-2.2-1.871-.985-.344-1.316.59-1.535 1.393-.223.827-.293 1.914.657 2.251.915.323 2.114-.073 2.96-.444.082-.036-.119-.128-.174-.103-.788.346-2.272.903-3.042.32-.724-.552-.195-2.121.11-2.766.319-.679.742-.749 1.439-.365.532.298.97.778 1.347 1.247.076.1.15.198.22.298-.068-.097-.4.636-.411.697-.052.304.14.566.41.663.128.049.156-.04.03-.088" fill="#B47C2B"/>
            <path d="M21.013 11.965s-.003-.03-.021-.085a.596.596 0 0 0-.04-.098c-.018-.03-.036-.079-.07-.115a1.153 1.153 0 0 0-.234-.24c-.046-.037-.091-.083-.152-.107-.055-.034-.113-.06-.17-.091-.116-.064-.24-.089-.357-.125a.678.678 0 0 0-.164-.04c-.055-.009-.11-.012-.155-.015-.192-.018-.32-.006-.32-.006s.116.067.29.13c.042.02.088.037.14.056.048.012.094.042.149.06.048.025.103.052.158.07.058.019.112.04.161.073.104.055.216.095.307.162.043.027.095.051.137.079l.116.085c.036.021.064.052.094.076.028.024.055.046.07.067.037.036.061.064.061.064" fill="#B47C2B"/>
            <path d="M18.333 10.833c.329-.466.03-.776.38-1.165.354-.393 1.583.3 2.185 1.29.146.237-.012.42-.636.118-.62-.307-1.183-.121-1.183-.121 1.454.355 1.512 1.08.17 1.317-1.345.24-1.241-.977-.916-1.44m-.09 1.954c1.06.545 3.084-.362 3.084-.362-.31-.06-.566-.733.103-1.287 0 0-1.277-1.926-2.628-1.895-.657.015-1.622 3-.56 3.544" fill="#F8B448"/>
            <path d="M20.502 10.58c-.423-.51-1.15-.998-1.503-.84-.353.159-.24.658.423.889.657.225 1.552.52 1.08-.049M19.65 11.391c-.594-.261-1.27-.356-1.33.134-.055.496 2.364.323 1.33-.134M22.005 10.83c-.28-.1-.626.164-.778.371-.22.304-.439.788-.207 1.14.152.235.493.372.766.32.262-.055.42-.304.518-.532.152-.38.176-1.129-.299-1.3" fill="#F8B448"/>
            <path d="M21.67 11.059c.214-.113.43-.043.466.392.027.332-.03 1.23-.604.952-.67-.32-.258-1.144.139-1.344m.308-.229c-.273-.1-.613.165-.759.372-.216.3-.43.788-.204 1.14.148.235.48.372.747.317.255-.052.412-.301.504-.53.151-.38.175-1.131-.288-1.299" fill="#B47C2B"/>
            <path d="M22.228 10.987c.013.22-.054.487-.097.6-.06.155-.176.365-.362.374a.429.429 0 0 1-.426-.283c-.064-.204-.033-.444.058-.657-.07.058-.128.122-.174.18-.219.304-.44.787-.206 1.14.149.234.492.371.766.32.259-.055.42-.305.514-.533.122-.307.168-.852-.073-1.14" fill="#F8B448"/>
            <path d="M18.797 18.326c.745-2.535 2.23-4.868 4.137-6.675a.121.121 0 0 1-.027-.067c-.049-1.08.836-2.084 1.588-2.744.894-.782 1.98-1.348 3.09-1.752 1.37-.502 2.867-.737 4.309-.907a26.904 26.904 0 0 1 5.095-.11c3.313.238 6.7 1.001 9.739 2.349 2.549 1.129 5.178 3.094 6.528 5.595 1.162.362 2.118 1.217 2.9 2.15.784.935 1.798 2.38 1.682 3.676 0 .027-.046.021-.049-.006-.006-.076-.012-.156-.021-.235-.304-.608-.624-1.159-1.132-1.624-.508-.466-1.077-.679-1.66-.97 2.09 1.517 2.996 4.122 2.786 6.668a7.244 7.244 0 0 1-.554 2.196c-.998 2.364-2.911 3.475-4.873 4.798-3.815 2.58-8.428 3.715-12.741 5.214-2.35.816-4.734 1.522-7.162 2.05-1.512.333-2.321 1.43-3.891 1.026-1.688-.441-4.037-2.239-5.309-3.365-2.172-1.925-3.736-4.733-4.548-7.532-.456-1.558-.496-3.228-.487-4.846.01-1.668.128-3.286.6-4.89" fill="#443A33"/>
            <path d="M55.78 15.982c-.73-.73-1.525-1.223-2.456-1.658-2.066-.965-4.162-1.862-6.24-2.793.913.17 1.802.453 2.666.8.708.28 1.408.684 2.19.648.085-.003.11-.094.091-.158-.38-1.284-1.767-2.124-2.76-2.915a29.15 29.15 0 0 0-.577-.45c1.853 1.144 3.562 2.704 4.563 4.56 1.162.362 2.118 1.217 2.9 2.151.304.362.638.797.933 1.272-.432-.49-.848-.995-1.31-1.457" fill="#443A33"/>
            <path d="M18.797 18.326c.745-2.535 2.23-4.868 4.137-6.675a.121.121 0 0 1-.027-.067c-.049-1.08.836-2.084 1.588-2.744.894-.782 1.98-1.348 3.09-1.752 1.37-.502 2.867-.737 4.309-.907a26.904 26.904 0 0 1 5.095-.11c.66.05 1.32.12 1.984.207-1.874.003-3.748-.124-5.622.03a18.795 18.795 0 0 0-5.288 1.215c-.097.04-.079.219.037.219 1.168 0 2.297-.31 3.453-.432 1.059-.11 2.142-.034 3.197.079 1.865.204 3.812.584 5.434 1.566-1.302-.249-2.601-.55-3.922-.702-1.305-.158-2.613-.131-3.927-.076-1.29.051-2.571.16-3.818.508-.36.1-1.381.307-1.451.821-.092.688 2.284.76 2.683.8 1.214.128 2.44.377 3.587.81 1.034.389 1.938.997 2.902 1.505a.21.21 0 0 0-.024.01c-2.41-.7-4.84-1.242-7.369-1.169-2.2.064-4.69 1.038-6.285 2.571-2.568 2.47-1.415 6.739.76 9.105-.876-.368-1.691-.876-2.15-1.758-.411-.79-.603-1.673-1.047-2.446-.055-.094-.204-.088-.219.03-.185 1.296-.012 2.638.374 3.885.31.995.76 2.136 1.607 2.802.514.408 1.128.636 1.56.01.374-.533.578-1.41 1.172-1.75-.262 1.223-.71 2.474-.399 3.73.024.094.186.143.219.021.31-1.089.469-2.251 1.01-3.264.505-.952 1.18-1.81 1.63-2.796.54-1.186.877-2.455.895-3.739.523 1.847.63 3.81-.237 5.589-.536 1.092-1.22 2.117-1.661 3.252-.207.517-.399 1.062-.466 1.61-.07.593-.07 1.183-.134 1.773-.015.146.213.173.229.027.313-3.109 2.683-5.394 3.553-8.332.392-1.33.493-2.632.435-4.007-.055-1.302-.125-2.68.453-3.867.253 1.78 1.205 3.42 2.535 4.621 1.232 1.108 2.738 2.413 4.441 2.62.119.015.164-.128.085-.204-1.05-.946-2.29-1.783-2.975-3.054-.548-1.026-1.016-2.273-1.04-3.475.289.645.638 1.25 1.14 1.777.998 1.04 2.41 1.573 3.67 2.203 2.235 1.116 5.05 2.4 6.443 4.563.11.183.274.715.429.852.052-1.975-2.866-4.798-3.748-5.485-.718-.566-2.966-1.753-3.441-2.316-.31-.365-.733-1.548-1.086-1.755.633.365 1.244.797 1.929 1.044.842.3 1.713.517 2.57.754 1.604.441 3.277.922 4.755 1.707a26.362 26.362 0 0 1 4.424 2.975c.718.593 1.4 1.223 1.993 1.947.486.587.952 1.196 1.475 1.765.082.085.207.027.2-.092-.039-1.104-.656-2.114-1.256-3.015a20.707 20.707 0 0 0-2.473-3.075c-1.618-1.634-3.63-2.796-5.625-3.919 1.238.326 2.492.581 3.7 1.038 1.5.566 2.962 1.241 4.274 2.169 2.263 1.606 4.128 3.937 4.517 6.757.019.103.186.137.22.024.724-2.285-.217-4.94-1.82-6.644-.989-1.047-2.233-2.148-3.602-2.887.885.286 1.75.645 2.58 1.074.824.426 1.603.879 2.206 1.606.398.475.742.992 1.1 1.497.07.292.101.575.074.86 0 .028-.046.022-.049-.005-.006-.076-.012-.156-.021-.235-.304-.608-.624-1.159-1.132-1.624-.508-.466-1.077-.679-1.66-.97 2.09 1.517 2.996 4.122 2.786 6.668a7.244 7.244 0 0 1-.554 2.196c-.998 2.364-2.911 3.475-4.873 4.798-3.815 2.58-8.428 3.715-12.741 5.214-2.35.816-4.734 1.522-7.162 2.05-1.512.333-2.321 1.43-3.891 1.026-1.688-.441-4.037-2.239-5.309-3.365-2.172-1.925-3.736-4.733-4.548-7.532-.456-1.558-.496-3.228-.487-4.846.01-1.668.128-3.286.6-4.89" fill="#443A33"/>
            <path d="m23.042 22.702.098.055-.098-.055M22.228 21.992l.104.122-.104-.122M23.886 23.073a3.04 3.04 0 0 1-.587-.225c.182.091.38.168.59.222 0 0 0 .003-.003.003" fill="#020303"/>
            <path d="M18.428 23.403c.003-.569.012-1.14.04-1.707.213 1.947.93 3.8 2.312 5.236.006.01.027-.006.015-.018-1.402-1.689-2.005-3.696-2.288-5.83.07-.848.198-1.688.438-2.521a16.053 16.053 0 0 1 1.756-3.934c-.563 1.543-.438 3.286.119 4.831.307.855.76 1.807 1.408 2.532-.681-.773-1.113-1.81-1.363-2.75-.435-1.665-.456-3.338.064-4.975a16.53 16.53 0 0 1 1.61-2.068c.532-.344 1.155-.594 1.727-.798.925-.331 1.88-.556 2.86-.63 1.856-.142 3.672.168 5.488.494.046.006.061-.064.016-.073-1.96-.402-4.038-.77-6.042-.505-1.004.13-1.993.383-2.918.797a9.192 9.192 0 0 0-.849.413l.213-.216a.106.106 0 0 0 .092-.088c.206-.204.42-.401.638-.59.028-.024-.015-.08-.045-.055-.198.167-.396.34-.587.52.006-.407.146-.797.359-1.165.65-.508 1.411-.824 2.18-1.153a15.225 15.225 0 0 1 2.991-.91c2.176-.422 4.372-.41 6.575-.307.003 0 .006-.012 0-.012-2.315-.243-4.722-.27-7 .243-1.223.277-2.325.725-3.466 1.223-.292.125-.632.256-.943.432.43-.532.986-.985 1.46-1.308 1.001-.681 2.1-1.18 3.271-1.487a26.042 26.042 0 0 1 9.276-.697c3.115.329 6.367 1.047 9.2 2.412 1.293.624 2.522 1.406 3.592 2.358.968.864 1.728 1.844 2.498 2.875a4.473 4.473 0 0 0-.575-.115c-.021 0-.033.024-.012.033.712.283 1.4.53 2.02.992a8.43 8.43 0 0 1 1.567 1.52c.697.88 1.396 1.887 1.61 3.004-.284-.63-.573-1.232-1.111-1.695-.545-.468-1.141-.79-1.859-.849a5.097 5.097 0 0 0-.353-.228 3.859 3.859 0 0 0-.34-.137c2.424 1.534 3.87 4.722 3.443 7.505-.779 5.057-7.021 7.433-11.131 9.133-2.12.873-4.3 1.625-6.462 2.38-2.212.769-4.451 1.475-6.73 2.001-2.25.523-3.73 1.713-5.926.672-.964-.644-2.857-1.846-3.727-2.625-2.138-1.904-3.77-4.609-4.572-7.38-.457-1.552-.548-3.17-.539-4.78m-.23-.188c-.01 1.618.033 3.285.486 4.846.815 2.799 2.376 5.607 4.548 7.532 1.272 1.126 3.623 2.924 5.309 3.365 1.57.405 2.382-.693 3.894-1.025 2.425-.53 4.813-1.235 7.158-2.05 4.314-1.5 8.926-2.635 12.744-5.215 1.96-1.323 3.873-2.434 4.87-4.798a7.244 7.244 0 0 0 .555-2.196c.21-2.546-.697-5.15-2.787-6.669.584.292 1.156.505 1.664.97.508.466.824 1.017 1.129 1.625.009.08.018.159.024.235.003.027.046.033.046.006.115-1.296-.898-2.741-1.683-3.675-.779-.934-1.737-1.79-2.899-2.151-1.35-2.501-3.98-4.466-6.529-5.595-3.039-1.348-6.422-2.111-9.735-2.349a26.936 26.936 0 0 0-5.099.11c-1.442.17-2.939.405-4.308.907-1.107.404-2.196.97-3.09 1.752-.445.39-.934.903-1.254 1.481a1.067 1.067 0 0 0-.158.31c0 .007 0 .01.003.01-.125.301-.195.62-.18.943a.124.124 0 0 0 .03.067c-.176.161-.343.335-.51.508a2.985 2.985 0 0 0-.59.6c-.006.008.006.02.015.015.033-.043.073-.077.11-.11-1.437 1.634-2.553 3.578-3.165 5.662-.471 1.603-.59 3.221-.599 4.889" fill="#020303"/>
            <path d="M22.433 28.846c.785-.015 1.375.788 1.798 1.478.003.003.006.012.01.019.002.133.014.267.063.392.052.234.134.468.253.715.331.697.781 1.32 1.46 1.704h.003c.152.13.338.24.566.316.009.003.018-.015.006-.018-1.293-.554-1.184-2.608-.864-3.715.465-1.615 1.53-2.936 2.464-4.305.995-1.466 1.707-2.966 1.96-4.727.133-.946.3-2.078.088-3.076.2.298.435.578.687.837.797.815 1.78 1.588 2.78 2.141 1.123.62 2.368.974 3.508 1.561 1.038.532 2.28 1.113 2.973 2.08.012.016.033.004.027-.014-.015-.061-.043-.119-.07-.177.015-.003.024-.015.018-.03-.499-1.64-1.682-2.772-3.005-3.742l.359.155c.937.399 1.874.815 2.768 1.299.95.511 1.789 1.126 2.55 1.892.368.375.754.758 1.034 1.208.359.587.34 1.025.231 1.676-.006.025.034.04.043.013.03-.089.067-.183.1-.283.006 0 .015 0 .021-.003 1.04-1.403.627-3.338-.121-4.768a11.372 11.372 0 0 0-1.53-2.217c-.31-.353-.615-.706-.983-.998 2.367 1.028 4.721 2.078 6.878 3.523 2.154 1.439 4.81 3.653 4.725 6.498a5.448 5.448 0 0 0-.094.188c-.019.037.03.07.051.04.025-.033.046-.064.067-.094.022.003.043-.003.043-.025 0-.012 0-.027.006-.04a7.14 7.14 0 0 0 .405-.644c.146-.262.27-.53.37-.803-.07.483-.176.97-.325 1.46-.42 1.39-1.125 2.677-1.521 4.07-.338 1.19-.231 2.468-.219 3.694.012 1.062-.043 2.126-.42 3.133-.42 1.114-1.366 1.835-2.309 2.495a16.685 16.685 0 0 1-2.826 1.573c-.651.365-1.32.7-2.035.964a7.839 7.839 0 0 1-2.011.49c-.156.015-.965.243-1.056.1-.033-.051-.03-.094-.006-.127-.222.146-.463.27-.727.37-.645.232-1.37.208-2.032.089-.688-.128-1.421-.432-2.087-.852-2.745-.03-5.349-1.658-7.262-3.514-.953-.924-1.78-1.983-2.55-3.063-.678-.958-1.646-2.072-1.883-3.264-.882.432-1.743.127-2.564-.466-.928-.681-1.415-1.816-1.488-2.939-.058-1.016.532-2.245 1.673-2.27" fill="#F6C6AA"/>
            <path d="M43.863 24.894c.359.588.337 1.029.228 1.68-.003.015.012.027.027.024-.2.323-.465.627-.794.904.152-2.827-2.507-4.886-4.861-6.073a12.966 12.966 0 0 0-1.311-1.089l.359.158c.937.399 1.874.81 2.768 1.296.95.511 1.786 1.13 2.546 1.896.371.37.758.754 1.038 1.204M43.681 36.258c.636.152 1.266.301 1.893.043.07-.028.085-.116.045-.177-.486-.645-.94-1.131-.785-2.005.15-.857.448-1.667.813-2.452.483-1.03.952-2.077 1.478-3.081.685-1.306 2.166-3.69 3.788-2.763 0 .034.012.067.045.092.767.535 1.077 1.542 1.138 2.44.022.34.152 1.107-.112 1.387-.22.225-.63-.454-.721-.587-.301-.45-.57-1.053-1.144-1.2-.767-.19-1.016.037-1.555.536-.106.1-.727.98.283.189 1.19-.931 2.078-.043 2.352 1.354.164.855.283 1.935-.085 2.716-.03-.815-.268-1.59-.457-2.39-.036-.144-.255-.11-.222.03.408 1.633.192 3.121-.809 4.5-.067.093.033.21.137.173.046-.016.39-.107.435-.125-.386.675-1.606 1.022-2.15.9-.695-.155-1.854-.845-1.498-.222.29.508.749.892.268 1.442-.532.606-1.396 1.153-2.114 1.497-.749.356-1.29.368-1.905-.213-.404-.383-.852-.934-.919-1.509-.11-1.016 1.2-.718 1.801-.575" fill="#F3CAAB"/>
            <path d="M51.436 28.742a4.239 4.239 0 0 1-.286-.378c-.305-.447-.718-.946-1.32-.94-1.193.016-1.933 1.029-2.641 1.814.681-1.6.742-1.658 1.201-2.273.53-.703 1.223-1.28 2.072-1.317.15.03.298.091.45.176a.1.1 0 0 0 .046.088c.733.515 1.046 1.458 1.126 2.322-.05.295-.296.921-.648.508" fill="#F3CAAB"/>
            <path d="M47.847 35.605c-1.357-.645-1.552-2.562-1.071-4.016.907-2.747 2.893-4.229 3.94-2.607.602.934.858 2.622.398 3.77l-.012-.16c.07-.605.119-1.225-.021-1.806-.088-.38-.34-1.09-.837-1.12-.913-.058-1.256 1.695-1.402 2.318-.256 1.132-.524 3.6 1.433 2.924-.609.767-1.57 1.104-2.428.697M45.898 36.413c.362.736-.822 1.354-1.366 1.554-.66.238-1.296.162-1.637-.508-.183-.353-.322-.739-.307-1.138.928.332 1.725 1.193 2.786.673.542-.265.35-.782.061-1.193.183.189.35.384.463.612M33.77 32.357c.055.016.356.061.341.006-.39-1.435.475-3.678 1.485-4.657 1.025-.992 2.522-1.479 3.745-.724 1.466.903 1.624 3.164 1.077 4.636-.03-.733-.168-1.448-.314-2.172-.03-.143-.03.377-.024.523.076 1.296-.34 2.358-1.132 3.307.408-.258.642-.65.922-1.025-.645 2.22-2.172 2.458-3.648 2.16-.094-.018-.337-.304-.313-.228.137.45.155 1.14-.04 1.554.04-1.25-.45-1.673-1.14-2.363-.548-.548-1.26-.834-2.002-.977.368-.094.566-.173 1.043-.04" fill="#F3CAAB"/>
            <path d="M37.205 34.283c-2.014.1-3.091-1.522-2.973-3.478.131-2.27 2.918-4.584 5.023-3.532 1.829.919 1.223 3.876.308 5.3-.439.678-1.512 1.67-2.358 1.71" fill="#F3CAAB"/>
            <path d="M21.304 29.404c-.562.788-.79 1.792.03 2.465.068.054.162.006.177-.074.21-1.003.463-2.351 1.634-1.5.237.174 1.104 1.062 1.582 2.057.082-.079.152-.155.2-.24.284.42.634.785 1.09 1.04h.003c.152.131.338.244.566.32.009.003.018-.018.006-.022-1.293-.553-1.184-2.604-.864-3.714.465-1.616 1.53-2.933 2.464-4.305.995-1.463 1.707-2.963 1.96-4.725.133-.949.3-2.08.09-3.075.198.298.433.575.685.833.797.819 1.78 1.591 2.78 2.142 1.123.62 2.368.977 3.508 1.56.785.405 1.686.837 2.38 1.44-.728-.505-1.61-.83-2.42-1.047-1.228-.331-2.765-.712-4.42-1.201-1.073-.317-.486.684-1.8 3.039-1.284 2.29-3.347 4.441-3.32 7.021.04 3.225.645 6.422 4.253 9.708.642.581 1.342.943 2.094 1.323.094-.191-.092-.63-.28-1.28.785.84 3.666 2.884 4.715 3.167.989.267 2.06.343 2.988-.131.842-.423 1.128-.81 1.655-1.43-.335.523-.679 1.144-.104 1.202.472.051.718-.025 1.141-.183.827-.304 1.664-.575 2.473-.934 1.202-.535 2.769-1.15 3.952-2.072-.38.353-.809.667-1.235.968a16.461 16.461 0 0 1-2.826 1.57c-.651.365-1.32.702-2.035.967a7.966 7.966 0 0 1-2.011.49c-.156.015-.965.243-1.056.1-.033-.054-.03-.094-.006-.13-.222.149-.463.273-.724.37-.648.232-1.372.207-2.032.089-.691-.128-1.424-.43-2.09-.852-.238 0-.472-.021-.71-.046-1.228-.133-2.418-.569-3.52-1.18-.014-.01-.03-.018-.045-.027a20.347 20.347 0 0 1-.344-.204l-.094-.055c-.1-.06-.198-.125-.298-.189-.043-.027-.085-.054-.125-.085-.091-.058-.18-.121-.27-.182a6.332 6.332 0 0 0-.15-.11c-.079-.058-.16-.119-.237-.173-.06-.046-.115-.092-.173-.134-.07-.058-.143-.11-.21-.167-.067-.05-.128-.107-.192-.159-.06-.048-.122-.1-.18-.152a4.75 4.75 0 0 1-.224-.198c-.046-.042-.095-.079-.14-.124-.116-.107-.235-.213-.35-.326-.953-.928-1.78-1.986-2.55-3.066-.678-.959-1.646-2.072-1.883-3.262-.882.43-1.743.128-2.561-.468a3.2 3.2 0 0 1-.533-.496c-.584-.666-.9-1.555-.958-2.443-.03-.59.155-1.256.544-1.71" fill="#F3CAAB"/>
            <path d="M22.626 34.018c.557.29 1.211.441 1.835.27a2.22 2.22 0 0 0 1.031-.66c-.185.205.946 2.535 1.126 2.851.642 1.129 1.518 2.166 2.418 3.091 1.61 1.655 3.977 3.52 6.286 4.101.088.025.167-.103.115-.158-.493-.535-.733-1.098-.946-1.506.472.539 1.357 1.333 1.898 1.78a7.924 7.924 0 0 0 3.247 1.606 5.186 5.186 0 0 1-.655-.076c-.69-.125-1.423-.435-2.087-.852-2.747-.03-5.348-1.655-7.261-3.514-.956-.921-1.777-1.98-2.547-3.06-.684-.961-1.649-2.075-1.886-3.267-.88.432-1.746.127-2.565-.466a3.299 3.299 0 0 1-.477-.441c.149.116.301.216.468.301" fill="#F3CAAB"/>
            <path d="M23.443 33.727c-.578-.292-1.156-.864-1.229-1.54-.054-.483.05-1.292.615-1.387.231-.04.53.125.742.186.615.505 1.223 1.366 1.241 2.257.019.797-.672.834-1.369.484M41.976 27.37c.04.319.08 1-.252 1.21-.444.28-.928-.687-1.108-.976-.712-1.114-2.078-2.252-3.492-2.112-.773.076-1.451.587-2.032 1.05-.01.003-.557.502-.502.052.024-.19.024-.329.353-.73.66-.792 1.542-1.39 2.592-1.503 1.782-.195 4.22 1.052 4.441 3.008" fill="#F3CAAB"/>
            <path d="M41.881 27.268c-.13.773-.703.493-1.09.113-.605-.596-1.043-1.223-1.776-1.686-.693-.435-1.655-.702-2.421-.3-.384.2-.718.465-1.047.739-.14.112-.274.246-.426.343-.313.201-.456.134-.517-.015.027-.14.088-.295.34-.6.66-.79 1.543-1.39 2.59-1.502 1.66-.18 3.885.891 4.365 2.616.003.104-.003.201-.018.292M27.136 34.259c-.94-.158-1.92-1.25-2.206-2.069a4.478 4.478 0 0 1-.234-1.33c.055.229.134.457.247.694.325.688.77 1.3 1.43 1.683.237.331.52.648.763 1.022" fill="#F3CAAB"/>
            <path d="M40.006 24.731c.028.088.07.204.113.329-.773-1.272-2.279-2.011-3.617-2.532-1.053-.407-2.182-.675-3.182-1.198-1.16-.6-1.85-1.57-2.678-2.531a.122.122 0 0 0-.048-.04h-.003a.068.068 0 0 0-.03-.009c-.007-.003-.013-.003-.016 0-.012 0-.021 0-.027.003-.006.003-.01.003-.013.006-.012.003-.02.01-.03.015-.003 0-.003.003-.006.006a.052.052 0 0 0-.018.019c-.006.009-.013.018-.013.027l-.003.003a.103.103 0 0 0-.003.061 8.875 8.875 0 0 1-.867 5.023c-.678 1.384-1.706 2.519-2.558 3.784-.663.98-1.357 2.19-1.546 3.414.016-.487.095-.959.201-1.324.469-1.615 1.53-2.939 2.464-4.304.995-1.464 1.71-2.97 1.96-4.731.133-.946.298-2.075.094-3.073.198.295.429.578.681.837a12.513 12.513 0 0 0 2.781 2.142c1.12.617 2.37.973 3.51 1.56.82.42 1.765.876 2.468 1.524.146.323.277.654.386.99M53.622 28.881c.03-.137-.16-.158-.216-.057-.21.365-.444.705-.657 1.058.07-.523.122-1.058.018-1.573a7.826 7.826 0 0 0-.596-1.788c-.566-1.208-1.42-2.21-2.4-3.1-2.023-1.841-4.442-3.146-6.93-4.241-.256-.29-.52-.575-.825-.813 2.367 1.026 4.722 2.078 6.879 3.517 2.157 1.445 4.812 3.65 4.724 6.501a2.18 2.18 0 0 0-.094.19c-.018.033.033.069.055.036l.067-.092c.018.003.04-.003.04-.024 0-.015 0-.027.005-.04.146-.21.283-.426.405-.648.149-.255.27-.526.371-.803-.067.484-.176.97-.325 1.464-.216.727-.515 1.426-.81 2.126.095-.569.174-1.144.29-1.713" fill="#F3CAAB"/>
            <path d="M53.985 28.706c-.003-.088-.122-.119-.186-.073l-.2.158c-.05-.045-.153-.033-.192.034-.073.124-.15.25-.232.37-.02.028-.042.05-.067.077.1-1.403-.118-2.848-.876-4.058-.888-1.433-2.141-2.288-3.492-3.25a41.874 41.874 0 0 0-2.416-1.59c.88.456 1.74.955 2.57 1.511 2.158 1.442 4.814 3.651 4.726 6.502a2.18 2.18 0 0 0-.095.188c-.018.034.03.067.055.037l.067-.095c.018.004.036 0 .04-.02 0-.016 0-.028.003-.04.149-.21.285-.43.407-.648.15-.259.27-.53.371-.807a9.549 9.549 0 0 1-.325 1.467c-.052.173-.11.344-.17.517.006-.094.012-.189.012-.28" fill="#F3CAAB"/>
            <path d="M48.367 35.54c.681-.122 1.405-1.172 1.649-1.783.289-.718.374-1.576.307-2.337-.076-.916-.283-2.391-1.476-2.312-1.296.821-2.065 2.087-2.29 2.994-.21.848-.213 2.312.362 3.002.292.353 1.134.493 1.448.435" fill="#FEFEFE"/>
            <path d="M46.652 32.03c.226-.909.901-2.098 2.197-2.923.152-.01.289.006.41.046-.27.14-.516.453-.699.76-.548.934-1.278 2.954-1.04 4.022.234 1.062 1.846.554 2.39-.48.21-.39.354-.831.427-1.29a4.86 4.86 0 0 1-.323 1.59c-.243.615-.748 1.47-1.414 1.64-.868.226-1.46-.06-1.753-.413-.572-.694-.404-2.106-.195-2.951" fill="#DDDDDC"/>
            <path d="M38.411 33.305c.557-.502.821-1.317 1.01-2.014.335-1.235.63-3.824-1.083-4.22-.01 0-.015-.006-.015-.009-.536.003-1.101.198-1.558.454-.93.523-1.652 1.445-2.072 2.412a3.662 3.662 0 0 0-.3 1.658c.136 2.352 2.527 3.06 4.018 1.72" fill="#FEFEFE"/>
            <path d="M34.864 31.65c.745.968 2.014 1.619 3.197 1.09 1.18-.524 1.387-2.717 1.384-3.803-.003-1.007-.544-1.78-1.423-1.853.097-.012.2-.021.3-.021 0 .003.007.009.016.009 1.713.395 1.418 2.984 1.083 4.22-.189.696-.453 1.511-1.01 2.013-1.49 1.339-3.882.633-4.019-1.719-.015-.246 0-.49.034-.727.11.28.252.548.438.791" fill="#DDDDDC"/>
            <path d="M24.881 34.375c1.038 2.318 2.699 4.536 4.509 6.312 1.944 1.91 4.271 3.052 6.918 3.542-.672-.46-1.253-1.038-1.616-1.668-.015-.02.013-.051.037-.03 1.104.989 2.148 1.926 3.614 2.343 1.314.374 2.89.1 3.876-.883.015-.012.037.006.021.022-.24.234-.483.45-.745.641.103-.04.222-.06.268-.066.7-.107 1.363-.174 2.053-.375 1.695-.486 3.286-1.411 4.822-2.263.018-.01.034.01.03.024.439-.289.868-.593 1.275-.925 1.178-.946 1.677-2.27 1.78-3.742.085-1.192-.03-2.388.064-3.583.106-1.37.67-2.595 1.18-3.852.338-.833.633-1.66.834-2.519.122-.191.216-.398.298-.611a9.43 9.43 0 0 1-.344 1.618c-.417 1.39-1.125 2.677-1.52 4.07-.339 1.193-.232 2.471-.22 3.694.012 1.065-.043 2.127-.42 3.134-.417 1.116-1.366 1.837-2.309 2.497a16.461 16.461 0 0 1-2.826 1.57c-.651.368-1.32.703-2.032.967a8.03 8.03 0 0 1-2.011.49c-.158.015-.968.244-1.059.1-.033-.054-.03-.094-.006-.13-.222.149-.46.274-.724.371-.648.231-1.37.21-2.032.091-.69-.13-1.424-.432-2.09-.855-2.744-.03-5.349-1.658-7.26-3.51-.954-.928-1.779-1.984-2.549-3.067-.705-.992-1.718-2.15-1.907-3.389-.012-.06.07-.064.091-.018" fill="#A97F63"/>
            <path d="M46.507 32.265c-.393 1.555-.022 2.939.824 3.1.852.155 1.856-.976 2.248-2.53.39-1.552.019-2.94-.83-3.098-.849-.158-1.85.974-2.242 2.528" fill="#332C26"/>
            <path d="M46.843 32.438c-.299 1.186-.013 2.242.632 2.364.648.118 1.415-.746 1.713-1.926.298-1.187.015-2.248-.63-2.367-.648-.122-1.417.74-1.715 1.929" fill="#332C26"/>
            <path d="M47.068 32.363c-.234.937-.012 1.771.5 1.865.513.1 1.116-.584 1.353-1.524.234-.934.012-1.77-.499-1.868-.514-.091-1.116.587-1.354 1.527" fill="#0D0E0D"/>
            <path d="M49.668 32.384a6.18 6.18 0 0 1-.088.45c-.393 1.555-1.397 2.687-2.248 2.529-.846-.159-1.217-1.543-.825-3.097.037-.143.076-.283.125-.42.709 1.016 2.008 1.463 3.036.538" fill="#333332"/>
            <path d="M48.438 31.915c-.085.487.064.894.335.91.27.015.562-.369.65-.859.089-.486-.063-.894-.334-.91-.274-.014-.566.369-.651.859M48.352 33.468c-.046.235.027.43.158.435.128.007.268-.176.31-.407.04-.234-.03-.43-.158-.435-.13-.006-.27.176-.31.407" fill="#FEFEFE"/>
            <path d="M34.558 30.533c-.341 1.743.197 3.25 1.204 3.362 1.004.116 2.09-1.208 2.425-2.954.34-1.743-.198-3.25-1.202-3.362-1.004-.112-2.09 1.211-2.427 2.954" fill="#332C26"/>
            <path d="M34.965 30.7c-.259 1.33.152 2.48.919 2.564.766.085 1.594-.925 1.852-2.254.259-1.333-.155-2.482-.919-2.565-.766-.088-1.597.925-1.852 2.255" fill="#332C26"/>
            <path d="M35.22 30.599c-.2 1.052.122 1.962.727 2.029.603.067 1.26-.73 1.467-1.783.204-1.053-.122-1.956-.73-2.026-.603-.067-1.26.727-1.464 1.78" fill="#0D0E0D"/>
            <path d="M38.263 30.438a7.682 7.682 0 0 1-.073.502c-.338 1.747-1.424 3.07-2.428 2.957-1.004-.112-1.546-1.621-1.205-3.364.034-.159.07-.317.113-.469.91 1.071 2.46 1.467 3.593.374" fill="#333332"/>
            <path d="M36.789 30.008c-.064.544.143.982.46.976.319 0 .629-.444.693-.992.064-.544-.143-.985-.46-.982-.319.006-.63.45-.693.998M36.804 31.73c-.03.26.067.47.219.466.152-.003.298-.213.331-.471.03-.262-.07-.469-.222-.466-.149 0-.298.21-.328.472" fill="#FEFEFE"/>
            <path d="M44.718 41.02c-.98 1.056-2.616 2.672-4.904 2.18-3.252-.707-2.57-5.653-2.57-5.653-.986.015-1.272-.807-.676-.578.596.225 1.625-.192 1.85-.414.225-.222.286.048.152.328-.14.277-.6.46-.6.46s.098.252.582.623c1.92 1.47 7.14 2.188 8.262 1.412 1.248-.864.01-.977.01-.977s1.17.223.599.837a2.35 2.35 0 0 1-.937.53c-.6.155-1.22.666-1.768 1.253" fill="#F2CBAB"/>
            <path d="M37.745 37.307c.159.34.508.618.797.834 1.074.815 2.465 1.18 3.76 1.43 1.543.295 3.35.389 4.315-.058.219-.104.453-.22.672-.52.125-.174-.116-.469-.472-.6.247.03.481.128.594.244.158.16.1.422-.052.541-.837.654-1.597.715-2.696.721-1.937.01-4.055-.38-5.765-1.332-.495-.277-1.12-.682-1.366-1.22-.02-.046.183-.104.213-.04" fill="#A4765D"/>
            <path d="M37.662 37.322s.743 1.673 5.002 2.357c1.284.21 2.306.207 3.109.089 0 0-1.056.31-2.373 1.956-1.323 1.646-4.302 1.704-5.169-.536-.852-2.22-.569-3.866-.569-3.866" fill="#7B1315"/>
            <path d="M38.063 40.703c-.642-1.971-.401-3.38-.401-3.38s.742 1.673 5.001 2.358c1.287.207 2.31.204 3.11.085 0 0-1.053.313-2.374 1.96-.082.106-.18.203-.276.3-.746-.928-2.322-2.181-5.06-1.323" fill="#7B1315"/>
            <path d="M40.984 42.916c-1.138.052-2.273-.484-2.75-1.728a8.846 8.846 0 0 1-.207-.602c1.077.118 2.488.614 2.957 2.33" fill="#E1414F"/>
            <path d="M37.743 39.416c-.22-1.268-.08-2.093-.08-2.093s.743 1.67 4.999 2.358c.219.037.432.06.636.085-.776.624-2.708 1.646-5.555-.35" fill="#FEFEFE"/>
            <path d="M39.056 40.165a7.933 7.933 0 0 1-1.315-.748c-.219-1.269-.079-2.096-.079-2.096s.743 1.673 5.002 2.36c.219.037.429.061.636.086-.6.474-1.874 1.192-3.727.59.091.027.188.045.292.067 1.78.365 3.614-.493 2.333-.657-.83-.11-3.112-.791-3.82-1.394-.606-.52-.688 1.092.678 1.792" fill="#DFE0DF"/>
            <path d="M40.253 41.728c-.246-.46-.955-.892-1.311-.709-.356.18 1.974 1.953 1.311.709" fill="#E05B44"/>
            <path d="M38.874 40.76s-.632-.095-.283.605c.347.696 2.556 1.85 2.145.912.1.192.183.402.247.64-1.138.05-2.273-.485-2.75-1.729a8.788 8.788 0 0 1-.204-.602 5.1 5.1 0 0 1 .845.173" fill="#E1414F"/>
            <path d="M37.73 37.637c.512.706 1.568 1.168 2.298 1.436 1.262.462 2.628.748 3.973.806.487.021.976.021 1.463-.033-.03.015-.064.027-.094.045-.35.189-.676.42-.974.682-.492.432-.864.97-1.338 1.417-.867.81-2.23 1.163-3.344.645-1.207-.566-1.615-1.858-1.837-3.088-.113-.614-.201-1.274-.146-1.91m-.18-.295h.003c-.164 1.013.022 2.139.317 3.109.392 1.29 1.061 2.27 2.467 2.482.98.153 2.102-.176 2.826-.851.825-.77 1.497-1.923 2.644-2.279.122-.04.049-.091-.043-.08-1.268.174-2.576.037-3.824-.233-.912-.201-1.831-.46-2.656-.904-.529-.283-1.247-.7-1.518-1.284 0-.003 0-.003-.003-.003l-.009-.009c-.003-.003-.006-.006-.012-.006a.033.033 0 0 0-.018-.006c-.003-.003-.006-.003-.01-.003-.051-.006-.133.012-.155.046-.006.003-.012.012-.009.02" fill="#A4765D"/>
            <path d="M38.367 36.87c-.408.508-1.099.612-1.665.326-.051-.021-.27-.17-.21-.143.448.228 1.689-.107 2.024-.523.036-.043-.076.252-.15.34M43.53 36.9c.596.323 1.116.335 1.7-.049.758-.499-.076-1.028-.358-1.466-.384-.608-.153-1.214.085-1.828.012-.034.064-.17.051-.14-.261.766-.264 1.576.341 2.184.237.24.673.523.466.934-.393.773-1.835 1.4-2.312.396-.01-.019.006-.043.027-.03" fill="#A4765D"/>
            <path d="M24.406 29.277c.006-.007.015-.004.012.003-.325 1.153.447 2.795 1.348 3.662-.365-.508-.432-1.216-.41-1.907.045-1.524.766-2.848 1.593-4.089 1.04-1.554 2.185-3 2.732-4.822.478-1.57.648-3.389.238-4.99a3.711 3.711 0 0 1-.375-1.277c0-.027.04-.036.046-.009.316 1.165 1.01 2.078 1.886 2.884.937.864 2.035 1.646 3.198 2.17 1.201.538 2.403.997 3.547 1.657.575.332 1.42.749 1.816 1.363-.639-1.481-1.82-2.668-3.079-3.669-.718-.325-1.4-.7-1.95-1.293-.015-.015.003-.036.022-.021.425.371.9.648 1.396.891h.003c.006.003.006.006.012.01.542.261 1.101.477 1.655.714 1.126.475 2.236.968 3.261 1.637a9.935 9.935 0 0 1 2.243 2.026c.304.377.58.764.72 1.23.061.21.04.422-.015.626.737-1.576.299-3.267-.51-4.749-.64-1.159-1.552-2.36-2.63-3.203-.334-.146-.669-.29-1-.432-.027-.016-.006-.055.021-.043.222.08.444.158.666.243a5.96 5.96 0 0 0-.307-.203c-.003-.004-.003-.01.006-.01.17.107.365.204.545.305 2.808 1.052 5.591 2.248 8.037 3.994 1.899 1.354 4.357 3.602 4.19 6.173.276-.542.55-1.077.718-1.664.21-.74.146-1.537-.028-2.276-.304-1.335-1.147-2.61-2.154-3.52-.033-.03-.07-.058-.106-.088a2.18 2.18 0 0 0-.14-.152c.313.24.614.508.891.779a6.431 6.431 0 0 1 1.79 3.413c.255 1.387-.208 2.65-.996 3.766-.003.013-.003.028-.006.04-.003.018-.024.027-.042.024-.019.03-.04.061-.064.095-.025.027-.07-.006-.055-.04.03-.064.064-.125.094-.189.089-2.844-2.567-5.059-4.724-6.498-2.157-1.445-4.512-2.497-6.882-3.523.371.292.679.645.986.998.6.672 1.11 1.418 1.527 2.218.751 1.43 1.162 3.365.125 4.764-.006.006-.012.006-.022.006-.033.1-.067.195-.103.283-.006.027-.043.01-.04-.012.11-.651.131-1.09-.228-1.676-.28-.45-.666-.837-1.037-1.208-.76-.767-1.6-1.381-2.547-1.892-.894-.487-1.834-.9-2.768-1.3-.122-.051-.24-.103-.362-.158 1.32.974 2.51 2.106 3.009 3.742.006.019-.003.03-.018.034a.955.955 0 0 1 .066.176c.004.019-.015.03-.024.015-.693-.967-1.938-1.551-2.975-2.08-1.138-.588-2.385-.94-3.505-1.561a12.46 12.46 0 0 1-2.784-2.142 5.998 5.998 0 0 1-.684-.836c.207.997.046 2.13-.088 3.075-.253 1.762-.97 3.265-1.963 4.728-.93 1.369-1.995 2.69-2.46 4.305-.323 1.107-.433 3.16.863 3.714.01.003.003.025-.009.019a1.662 1.662 0 0 1-.566-.317h-.003c-.675-.383-1.131-1.007-1.46-1.704-.362-.763-.426-1.432-.143-2.23" fill="#020303"/>
            <path d="M46.724 32.152c.225-.906.827-2.22 2.123-3.045 1.193-.076 1.4 1.396 1.479 2.312.064.764-.022 1.619-.31 2.337-.244.614-.767 1.402-1.434 1.597-.82.24-1.387-.025-1.673-.377-.578-.694-.395-1.978-.185-2.824m-.384 1.953c.152 1.22 1.248 1.71 2.398 1.537.14-.018.575-.134.696-.177.247-.146.469-.328.667-.538-.344.295-.752.496-1.233.517.49-.149.837-.757 1.044-1.177.441-.934.675-1.914.554-2.951-.089-.749-.384-2.486-1.433-2.318.079-.046.161-.08.246-.113.864-.304 1.448.417 1.722 1.275.222.7.22 1.38.198 2.105-.003.015.021.018.024 0 .113-.791.128-1.77-.24-2.5-.356-.704-.682-1.382-1.494-1.2-.867.201-1.764 1.169-2.227 1.853-.593.886-1.056 2.604-.922 3.687M34.391 31.585a3.624 3.624 0 0 1 .305-1.658c.416-.964 1.14-1.89 2.068-2.413.46-.255 1.022-.447 1.558-.45 0 .003.006.01.015.01 1.713.392 1.42 2.98 1.083 4.216-.188.7-.453 1.512-1.01 2.014-1.49 1.341-3.882.633-4.019-1.719m-.94.84c1.004.626 1.92 1.134 2.258 2.357.012.034.073.028.067-.012a2.725 2.725 0 0 0-.366-.985c.515.282 1.16.365 1.74.352.792-.018 1.662-.206 2.14-.888.008-.012-.01-.027-.019-.015-.435.447-.989.672-1.57.73.216-.097.423-.234.587-.362.712-.557 1.068-1.433 1.281-2.282.231-.915.435-2.02.125-2.945-.134-.401-.414-.967-.815-1.235.32.098.611.295.83.624.502.751.651 1.655.618 2.54 0 .025.033.021.033 0 .03-.925-.015-2.105-.687-2.823-.715-.767-1.844-.685-2.72-.237-1.108.569-2.008 1.594-2.458 2.753-.347.897-.35 2.002.085 2.878a2.546 2.546 0 0 0-1.123-.469c-.012-.003-.012.01-.006.019" fill="#A4765D"/>
            <path d="M49.674 25.625c1.527-.86 2.4 1.244 2.48 2.394.011.153.066.852-.238.843-.508-.024-.511-.815-.682-1.147-.715-1.36-2.801-.426-3.367.566-.003.006-.006.01-.016.012-.027.07-.14.03-.124-.042.258-1.065.982-2.081 1.947-2.626M40.535 24.339c.709.432 1.08 1.278 1.29 2.053.134.5-.06 1.074-.602.633-.356-.292-.594-.724-.94-1.028-.502-.45-1.13-.718-1.777-.88a3.665 3.665 0 0 0-1.968.05c-.505.164-.846.565-1.242.89a.081.081 0 0 1-.009.037c-.124.177-.25.247-.462.247-.049 0-.1-.046-.085-.098.657-2.281 3.964-3.35 5.795-1.904" fill="#443A33"/>
            <path d="M47.945 28.005c.261-.773.773-1.51 1.43-1.99 1.649-1.21 2.759.864 2.653 2.306-.025.356-.323.52-.46.018-.033-.13-.055-.27-.103-.398a1.405 1.405 0 0 0-.517-.685c-.609-.435-1.26-.422-1.935-.115-.43.195-.843.456-1.068.864m-.216.246c-.015.07.094.113.125.043.009-.003.012-.006.015-.012.563-.992 2.653-1.926 3.365-.566.173.331.176 1.12.684 1.144.301.012.25-.688.237-.84-.082-1.15-.955-3.255-2.482-2.394-.965.541-1.686 1.557-1.944 2.625M35.069 25.81c.024-.052.052-.1.073-.15.076-.136.164-.264.258-.386.183-.204.372-.404.597-.557.496-.346 1.04-.635 1.633-.77 1.954-.437 3.77.77 4.065 2.739.076.517-.326.292-.45.115-.578-.62-1.068-1.229-1.871-1.582-1.482-.642-3.161-.517-4.217.77-.274.374-.301.167-.088-.18m-.329.436c-.015.051.034.097.085.097.213 0 .338-.073.46-.246a.058.058 0 0 0 .012-.037c.395-.325.733-.727 1.238-.891a3.707 3.707 0 0 1 1.972-.052c.648.161 1.274.432 1.776.88.347.306.584.738.937 1.027.545.445.74-.133.606-.632-.213-.776-.581-1.622-1.29-2.05-1.835-1.446-5.142-.378-5.796 1.904" fill="#020303"/>
            <path d="M22.398 28.852c.818-.015 1.43.86 1.855 1.573a1.08 1.08 0 0 0-.009.14c-.377-.548-.782-1.114-1.378-1.43-.627-.335-1.28.112-1.628.626-.292.435-.331 1.01-.3 1.515.112 1.847 2.135 4.086 4.033 2.909.064-.04.168.122.104.167-.986.67-1.953.371-2.863-.295-.934-.678-1.418-1.813-1.488-2.936-.064-1.013.53-2.245 1.674-2.27" fill="#A4765D"/>
            <path d="M23.862 31.134c.691.62 1.193 1.7.846 2.604-.018.045-.091.018-.079-.025.13-.416.088-.818-.049-1.195-.277.23-.757.28-1.08.173-.033-.009-.024-.06.01-.055.31.08.76-.057.985-.286l.015-.012a4.2 4.2 0 0 0-.316-.569 3.119 3.119 0 0 0-.554-.611c-.23-.204-.505-.317-.818-.247-.213.046-.34.335-.453.508-.028.043-.098.025-.092-.033.156-.919 1.056-.73 1.585-.252" fill="#A4765D"/>
            <path d="M48.91 35.875c1.686-.365 2.142-1.165 2.532-.146.118.31.073 1.494-.92 2.145-1.931 1.262-3.461-1.594-1.612-1.999M34.525 33.186c1.65 1.138.919 4.482.003 3.246-.916-1.235-3.483-2.37-3.252-3.31.143-.58 1.527-1.125 3.25.064" fill="#F3CAAB"/>
            <path d="M30.838 13.525c.581-1.43 2.057-.922 3.173-.612.98.268 1.938.441 2.942.213.636-.146 1.33-.298 1.542-.992.089-.289.006-.572.481-.59.259-.009.52.006.773.061.563.134 1.086.359 1.61.602.79.362 1.6.785 2.485.846.538.037 1.26.094 1.524-.478.121-.264-.022-.526-.238-.742 1.205.186 2.4.441 3.572.773 1.457.42 2.86.986 4.223 1.646.623.304 1.244.63 1.81 1.034.578.408 1.059.934 1.573 1.412.024.021-.006.054-.03.036-.28-.225-.557-.456-.834-.681a14.758 14.758 0 0 0-3.295-1.57c-.636-.21-1.296-.353-1.953-.502a18.45 18.45 0 0 1 2.832 1.573c2.525 1.73 4.253 4.235 4.408 7.353.003.046-.064.049-.07.003a9.444 9.444 0 0 0-.325-1.549c-1.689-3.112-4.7-5.04-7.983-6.172-1.707-.587-3.477-.895-5.233-1.29a30.058 30.058 0 0 1-1.819-.469c1.962 1.257 4.061 2.306 5.993 3.627 1.105.757 2.127 1.649 3.088 2.58.837.806 1.57 1.715 2.057 2.774.012.03-.037.052-.049.024a7.598 7.598 0 0 0-.867-1.305c-2.43-2.029-5.068-3.574-8.04-4.667-1.443-.532-2.909-.982-4.324-1.582-.833-.352-1.901-.797-2.656-1.439-.273-.012-.523.05-.526.405-.006.329.18.679.32.958.35.676.803 1.184 1.38 1.668.886.736 1.908 1.296 2.842 1.965.7.496 1.269 1.05 1.783 1.694.325.362.557.8.864 1.175.024.027-.024.07-.049.042-.37-.374-.657-.815-1.037-1.177-.53-.508-1.144-.925-1.762-1.314-1.113-.703-2.33-1.196-3.529-1.72-1.092-.47-2.12-1.015-3.063-1.736-.526-.399-1.451-1.056-1.506-1.804-.825.097-.24 2.239-.06 2.729.303.851.83 1.6 1.423 2.272.605.685 1.369 1.141 2.069 1.71.155.103.307.207.465.307.04.03.01.1-.036.073-1.464-.821-2.927-1.64-4.114-2.847a7.182 7.182 0 0 1-1.934-3.62c-.019-.241.009-.478.1-.697M21.01 23.338c.502.642 1.327 1.375 1.972 1.22.048-.012.073-.1.054-.168-.149-.608-.617-.98-.961-1.308-.605-.569-1.013-1.296-1.472-2.114-.003-.003-.01-.003-.013-.006a1.487 1.487 0 0 0-.225-.317c-.042-.042-.103-.012-.121.049-.247.828.322 2.08.766 2.644M26.857 24.936c1.177-2.303 1.767-4.764 1.247-7.347-.015-.058.076-.091.091-.027.621 2.242.442 4.378-.498 6.504-.95 2.15-2.322 4.159-2.151 6.626.003.08-.116.1-.134.024-.475-2.017.56-4.04 1.445-5.78M22.065 16.531c.164.813.493 1.634.922 2.343.307.51.751 1.183 1.393 1.314 1.375.277 1.363-1.594 1.022-2.446-.477-1.165-1.88-1.789-2.738-2.634-.042-.043-.115.018-.082.07.043.06.082.118.128.176-.164-.085-.335-.11-.502.015-.31.228-.207.855-.143 1.162M22.73 21.29c.049.061.165.08.198-.009.453-1.153-.289-2.306-.843-3.282-.033-.058-.112-.037-.14.009-.027-.024-.048-.052-.079-.076-.064-.052-.167-.021-.185.06-.213 1.069.386 2.48 1.05 3.299M24.673 15.768c.5.398 1.141.906 1.82.827.785-.088.584-1.098.623-1.618.089-1.263 1.44-.81 2.242-1.11.439-.168.691-.707.229-1.035-.992-.715-2.297-.639-3.423-.326-.763.21-2.327.636-2.528 1.555-.161.74.523 1.296 1.037 1.707M33.102 6.976c.575.229 1.19.253 1.798.274.785.022 1.536.131 2.309.277 1.628.307 3.24.697 4.81 1.247 1.545.536 3.094 1.035 4.612 1.64.718.29 1.481.511 2.172.849.55.274 1.044.575 1.667.602.091.003.137-.097.122-.17-.158-.709-.776-1.05-1.35-1.402-.859-.697-1.866-1.211-2.885-1.613a32.28 32.28 0 0 0-3.991-1.323 27.305 27.305 0 0 0-4.649-.746c-1.408-.106-2.841-.185-4.24.055-.028 0-.04.015-.05.037-.103.012-.206.03-.307.064-.085.03-.112.17-.018.21M28.782 8.988c1.144-.234 2.087-.076 2.827-.055 1.439.046 7.213 1.16 8.445 1.552.74.234 2.735 1.107 2.449.34-.408-1.122-3.337-1.746-4.433-1.986-2.412-.532-6.66-.986-8.999-.103-.63.237-.39.27-.289.252" fill="#605348"/>
            <path d="M28.987 9.648c.666.572 1.838.462 2.65.575.748.106 1.573.316 2.288.553.632.204 1.229.5 1.907.536.088.006.128-.104.088-.174-1.198-1.94-4.876-2.196-6.896-1.66-.073.017-.092.118-.037.17M16.236 19.19c.344-1.475.836-3.136 2.227-3.918.03-.015.057-.021.088-.015-.277.645-.59 1.277-.797 1.95-.31.991-.566 2.02-.758 3.039-.353 1.907-.432 3.857-.127 5.78.352 2.24.976 4.901 2.214 7.055a13.753 13.753 0 0 1-2.163-2.905c-.894-1.613-1.253-3.386-1.335-5.227-.089-1.962.207-3.857.65-5.759" fill="#605348"/>
            <path d="M16.093 15.548s-1.837 2.862-1.649 6.486c.183 3.617.752 7.861 3.003 10.937 0 0-4.5-3.803-3.918-10.934.456-5.604 2.564-6.49 2.564-6.49M17.92 39.844c1.09.201 1.865-.32 2.096-1.378.17-.794.076-1.716-.21-2.47-.012-.034.046-.06.061-.03.447.89.612 2.013.35 2.978-.115.432-.371.8-.748 1.037-.53.329-1.056.183-1.56-.094-.022-.012-.013-.046.011-.043" fill="#605348"/>
            <path d="M19.739 43.463c.02.246.09.493.234.736.003.003.015 0 .012-.01a1.312 1.312 0 0 1-.064-.203c.015.01.04 0 .04-.027a5.5 5.5 0 0 1 .097-1.315c.265-.638.751-1.232 1.156-1.712.627-.74 1.114-1.424 1.208-2.37.444.453.67 1.068.654 1.719-.027.794-.344 1.4-.748 2.06-.362.58-.633 1.11-.73 1.77-.198.569-.08 1.275.057 1.843.119.487.323 1.166.828 1.382.018.006.033-.013.018-.028a2.814 2.814 0 0 1-.304-.404c-.301-.776-.371-1.6.009-2.37.295-.603.73-1.083 1.122-1.622.493-.678.916-1.478 1.001-2.327.213-2.233-1.807-3.252-3.577-4.031-.073-.03-.146.049-.104.119.177.289.371.568.539.864.462 1.326-.122 2.293-.78 3.407-.477.803-.85 1.63-.668 2.519M25.095 44.336c.423-.937.709-1.852.596-2.893a6.564 6.564 0 0 0-.508-1.965c.478.274 1.013.447 1.51.666.34.155.653.326.942.563.724.587.907 1.153.968 1.287-.5-.752-1.071-.946-1.488-1.09-.295-.1-.596-.103-.9-.13.736.675 1.01 1.776.788 2.747-.146.633-.578 1.15-.953 1.658-.675.922-1.287 2.145-.648 3.23.01.022-.018.037-.033.02-.511-.615-.752-1.37-.785-2.146.043-.636.213-1.274.511-1.947" fill="#605348"/>
            <path d="M45.384 36.276a1.475 1.475 0 0 0-.578-.63 1.016 1.016 0 0 1-.48-.593 3.163 3.163 0 0 1 0-.24c.024-.712.525-1.533.787-2.175.006-.016.027-.003.021.012-.194.556-.377 1.116-.456 1.703-.055.402.021.667.228 1.023.15.261.308.456.487.69.046.061.08.189-.01.21M38.812 37.892c.654.268 1.269.593 1.941.822a14.67 14.67 0 0 0 2.075.517c.742.137 1.503.213 2.26.204.508-.006 1.835-.055 2.002-.724.003-.022.033-.019.033.003-.009.401-.459.599-.788.733-.696.283-1.557.207-2.284.152-1.768-.137-3.827-.572-5.257-1.68-.019-.012.003-.033.018-.027M36.456 36.882c.383.034.752.1 1.132.015.37-.082.675-.362.894-.657.012-.015.034 0 .025.018-.353.825-1.278 1.062-2.084.721-.055-.024-.019-.103.033-.097M38.007 42.655c.685.53 1.36.989 2.251 1.055.782.058 1.521-.194 2.242-.462.03-.01.05.03.022.049-1.388.91-3.73 1.229-4.643-.533a.085.085 0 0 1 .128-.11" fill="#F3CAAB"/>
        </g>
    </g>
</svg>
