<svg xmlns="http://www.w3.org/2000/svg" width="50" height="50" viewBox="0 0 50 50">
    <g fill="none" fill-rule="evenodd">
        <g>
            <g>
                <g transform="translate(-163 -382) translate(70 382) translate(93)">
                    <circle cx="25" cy="25" r="24.5" fill="#FFF" stroke="#848484"/>
                    <g fill-rule="nonzero">
                        <path fill="#FBBB00" d="M4.876 13.295l-.766 2.859-2.8.059C.475 14.66 0 12.886 0 11c0-1.824.444-3.544 1.23-5.059l2.492.457 1.092 2.477c-.229.666-.353 1.381-.353 2.125 0 .807.146 1.581.415 2.295z" transform="translate(14 14)"/>
                        <path fill="#518EF8" d="M21.808 8.945C21.934 9.61 22 10.298 22 11c0 .788-.083 1.556-.24 2.297-.536 2.521-1.935 4.723-3.873 6.281h-.001l-3.139-.16-.444-2.774c1.286-.754 2.291-1.934 2.82-3.347h-5.881V8.945H21.808z" transform="translate(14 14)"/>
                        <path fill="#28B446" d="M17.886 19.578C16.001 21.093 13.606 22 11 22c-4.19 0-7.831-2.341-9.69-5.787l3.566-2.918c.929 2.48 3.32 4.244 6.124 4.244 1.205 0 2.334-.326 3.303-.895l3.583 2.934z" transform="translate(14 14)"/>
                        <path fill="#F14336" d="M18.021 2.532L14.458 5.45C13.455 4.823 12.27 4.46 11 4.46c-2.867 0-5.304 1.846-6.186 4.414L1.231 5.94H1.23C3.06 2.411 6.749 0 11 0c2.669 0 5.116.95 7.021 2.532z" transform="translate(14 14)"/>
                    </g>
                </g>
            </g>
        </g>
    </g>
</svg>
