<svg xmlns="http://www.w3.org/2000/svg" xmlns:xlink="http://www.w3.org/1999/xlink" width="42" height="42" viewBox="0 0 42 42">
    <defs>
        <filter id="0vimup05ba" width="160%" height="160%" x="-30%" y="-30%" filterUnits="objectBoundingBox">
            <feOffset in="SourceAlpha" result="shadowOffsetOuter1"/>
            <feGaussianBlur in="shadowOffsetOuter1" result="shadowBlurOuter1" stdDeviation="3"/>
            <feColorMatrix in="shadowBlurOuter1" values="0 0 0 0 0 0 0 0 0 0 0 0 0 0 0 0 0 0 0.5 0"/>
        </filter>
        <circle id="trcf95ub0b" cx="15" cy="15" r="15"/>
    </defs>
    <g fill="none" fill-rule="evenodd">
        <g>
            <g>
                <g>
                    <g>
                        <g transform="translate(-20 -2812) translate(16 605) translate(0 2125) translate(10 88)">
                            <use fill="#000" filter="url(#0vimup05ba)" xlink:href="#trcf95ub0b"/>
                            <use fill="#FFF" xlink:href="#trcf95ub0b"/>
                        </g>
                        <g fill="#000" fill-rule="nonzero">
                            <path d="M11.648 0H.352C.157 0 0 .157 0 .352v11.297c0 .194.157.351.352.351h11.296c.195 0 .352-.157.352-.352V.352C12 .157 11.843 0 11.648 0zm-.351 9.548L9.094 6.905c-.06-.073-.147-.118-.24-.126-.095-.007-.188.023-.26.084L6.869 8.35 3.824 4.647c-.074-.09-.187-.137-.302-.127-.115.01-.218.076-.276.177L.703 9.185V.703h10.594v8.845z" transform="translate(-20 -2812) translate(16 605) translate(0 2125) translate(10 88) translate(9 9)"/>
                            <path d="M8.26 2.26c-.817 0-1.482.664-1.482 1.48 0 .817.665 1.482 1.481 1.482.817 0 1.482-.665 1.482-1.481 0-.817-.665-1.482-1.482-1.482z" transform="translate(-20 -2812) translate(16 605) translate(0 2125) translate(10 88) translate(9 9)"/>
                        </g>
                    </g>
                </g>
            </g>
        </g>
    </g>
</svg>
