<svg width="10" height="10" viewBox="0 0 10 10" xmlns="http://www.w3.org/2000/svg">
    <path d="M5 0C3.372 0 3.179.006 2.536.036c-.595.027-.918.126-1.133.21a1.89 1.89 0 0 0-.701.456 1.89 1.89 0 0 0-.456.701c-.084.215-.183.538-.21 1.133C.006 3.179 0 3.372 0 5c0 1.628.006 1.821.036 2.464.027.595.126.918.21 1.133.11.285.242.488.456.701.213.214.416.346.701.456.215.084.538.183 1.133.21.643.03.835.036 2.464.036s1.821-.006 2.464-.036c.595-.027.918-.126 1.133-.21a1.89 1.89 0 0 0 .701-.456 1.89 1.89 0 0 0 .456-.701c.084-.215.183-.538.21-1.133C9.994 6.821 10 6.628 10 5c0-1.628-.006-1.821-.036-2.464-.027-.595-.126-.918-.21-1.133a1.89 1.89 0 0 0-.456-.701 1.89 1.89 0 0 0-.701-.456C8.382.162 8.059.063 7.464.036 6.821.006 6.628 0 5 0zm0 1.868a3.132 3.132 0 1 1 0 6.264 3.132 3.132 0 0 1 0-6.264zm0 5.165a2.033 2.033 0 1 0 0-4.066 2.033 2.033 0 0 0 0 4.066zm3.987-5.289a.732.732 0 1 1-1.463 0 .732.732 0 0 1 1.463 0z" fill="#FFF" fill-rule="evenodd"/>
</svg>
