<svg
      width="14px"
      height="14px"
      viewBox="0 0 10 10"
      version="1.1"
      xmlns="http://www.w3.org/2000/svg"
      xmlnsXlink="http://www.w3.org/1999/xlink"
    >
      <g
        id="Web-Design"
        stroke="none"
        strokeWidth="1"
        fill="none"
        fillRule="evenodd"
      >
        <g
          id="HP-V1-Widget"
          transform="translate(-1236.000000, -139.000000)"
          fill="#ffffff"
        >
          <g id="top-band" transform="translate(0.000000, 127.000000)">
            <g id="Group-54" transform="translate(1186.000000, 9.000000)">
              <g id="insta" transform="translate(50.000000, 2.000000)">
                <g id="insta-icon" transform="translate(0.000000, 1.000000)">
                  <path
                    d="M5.0000121,0 C3.37152805,0 3.17862581,0.00622186775 2.53552156,0.0355639235 C1.94088496,0.0626786869 1.61795287,0.162034956 1.40304413,0.245558129 C1.11836324,0.35619609 0.91519614,0.488356379 0.701788356,0.701788356 C0.488356379,0.91519614 0.35619609,1.11836324 0.245558129,1.40304413 C0.162034956,1.61795287 0.0626786869,1.94088496 0.0355639235,2.53552156 C0.00622186775,3.17862581 0,3.37152805 0,5.0000121 C0,6.62847195 0.00622186775,6.82137419 0.0355639235,7.46447844 C0.0626786869,8.05911504 0.162034956,8.38204713 0.245558129,8.59695587 C0.35619609,8.88163676 0.488380597,9.08480386 0.701788356,9.29821164 C0.91519614,9.51164362 1.11836324,9.64380391 1.40304413,9.75444187 C1.61795287,9.83796504 1.94088496,9.93732131 2.53552156,9.96443608 C3.17855318,9.99377813 3.37140699,10 5.0000121,10 C6.62859301,10 6.82147101,9.99377813 7.46447844,9.96443608 C8.05911504,9.93732131 8.38204713,9.83796504 8.59695587,9.75444187 C8.88163676,9.64380391 9.08480386,9.51164362 9.29821164,9.29821164 C9.51164362,9.08480386 9.64380391,8.88163676 9.75444187,8.59695587 C9.83796504,8.38204713 9.93732131,8.05911504 9.96443608,7.46447844 C9.99377813,6.82137419 10,6.62847195 10,5.0000121 C10,3.37152805 9.99377813,3.17862581 9.96443608,2.53552156 C9.93732131,1.94088496 9.83796504,1.61795287 9.75444187,1.40304413 C9.64380391,1.11836324 9.51164362,0.91519614 9.29821164,0.701788356 C9.08480386,0.488356379 8.88163676,0.35619609 8.59695587,0.245558129 C8.38204713,0.162034956 8.05911504,0.0626786869 7.46447844,0.0355639235 C6.82137419,0.00622186775 6.62847195,0 5.0000121,0 Z M5.0000121,1.86813506 C6.72969237,1.86813506 8.13186494,3.27030763 8.13186494,5.0000121 C8.13186494,6.72969237 6.72969237,8.13186494 5.0000121,8.13186494 C3.27030763,8.13186494 1.86813506,6.72969237 1.86813506,5.0000121 C1.86813506,3.27030763 3.27030763,1.86813506 5.0000121,1.86813506 Z M5.0000121,7.03296623 C6.12278148,7.03296623 7.03296623,6.12278148 7.03296623,5.0000121 C7.03296623,3.87721852 6.12278148,2.96703377 5.0000121,2.96703377 C3.87721852,2.96703377 2.96703377,3.87721852 2.96703377,5.0000121 C2.96703377,6.12278148 3.87721852,7.03296623 5.0000121,7.03296623 Z M8.98748122,1.74439971 C8.98748122,2.14860346 8.65980404,2.47625643 8.25560029,2.47625643 C7.85142073,2.47625643 7.52374357,2.14860346 7.52374357,1.74439971 C7.52374357,1.34019596 7.85142073,1.01251878 8.25560029,1.01251878 C8.65980404,1.01251878 8.98748122,1.34019596 8.98748122,1.74439971 Z"
                    id="Insta"
                  ></path>
                </g>
              </g>
            </g>
          </g>
        </g>
      </g>
    </svg>