<svg width="118" height="118" viewBox="0 0 118 118" xmlns="http://www.w3.org/2000/svg" xmlns:xlink="http://www.w3.org/1999/xlink">
    <defs>
        <radialGradient cx="50.15%" cy="50.082%" fx="50.15%" fy="50.082%" r="49.993%" id="d">
            <stop stop-color="#FFF" offset="15%"/>
            <stop stop-color="#F6F6F6" stop-opacity=".915" offset="22.21%"/>
            <stop stop-color="#DDD" stop-opacity=".775" offset="34.15%"/>
            <stop stop-color="#B4B4B4" stop-opacity=".596" offset="49.34%"/>
            <stop stop-color="#7B7B7B" stop-opacity=".386" offset="67.19%"/>
            <stop stop-color="#333" stop-opacity=".153" offset="87.02%"/>
            <stop stop-opacity="0" offset="100%"/>
        </radialGradient>
        <radialGradient cx="50.144%" cy="50.131%" fx="50.144%" fy="50.131%" r="49.993%" id="e">
            <stop stop-color="#FFF" offset="15%"/>
            <stop stop-color="#F6F6F6" stop-opacity=".915" offset="22.21%"/>
            <stop stop-color="#DDD" stop-opacity=".775" offset="34.15%"/>
            <stop stop-color="#B4B4B4" stop-opacity=".596" offset="49.34%"/>
            <stop stop-color="#7B7B7B" stop-opacity=".386" offset="67.19%"/>
            <stop stop-color="#333" stop-opacity=".153" offset="87.02%"/>
            <stop stop-opacity="0" offset="100%"/>
        </radialGradient>
        <radialGradient cx="50.155%" cy="50.132%" fx="50.155%" fy="50.132%" r="49.993%" id="f">
            <stop stop-color="#FFF" offset="15%"/>
            <stop stop-color="#F6F6F6" stop-opacity=".915" offset="22.21%"/>
            <stop stop-color="#DDD" stop-opacity=".775" offset="34.15%"/>
            <stop stop-color="#B4B4B4" stop-opacity=".596" offset="49.34%"/>
            <stop stop-color="#7B7B7B" stop-opacity=".386" offset="67.19%"/>
            <stop stop-color="#333" stop-opacity=".153" offset="87.02%"/>
            <stop stop-opacity="0" offset="100%"/>
        </radialGradient>
        <radialGradient cx="50.148%" cy="50.199%" fx="50.148%" fy="50.199%" r="49.993%" id="g">
            <stop stop-color="#FFF" offset="15%"/>
            <stop stop-color="#F6F6F6" stop-opacity=".915" offset="22.21%"/>
            <stop stop-color="#DDD" stop-opacity=".775" offset="34.15%"/>
            <stop stop-color="#B4B4B4" stop-opacity=".596" offset="49.34%"/>
            <stop stop-color="#7B7B7B" stop-opacity=".386" offset="67.19%"/>
            <stop stop-color="#333" stop-opacity=".153" offset="87.02%"/>
            <stop stop-opacity="0" offset="100%"/>
        </radialGradient>
        <radialGradient cx="50.298%" cy="50.166%" fx="50.298%" fy="50.166%" r="49.993%" id="h">
            <stop stop-color="#FFF" offset="15%"/>
            <stop stop-color="#F6F6F6" stop-opacity=".915" offset="22.21%"/>
            <stop stop-color="#DDD" stop-opacity=".775" offset="34.15%"/>
            <stop stop-color="#B4B4B4" stop-opacity=".596" offset="49.34%"/>
            <stop stop-color="#7B7B7B" stop-opacity=".386" offset="67.19%"/>
            <stop stop-color="#333" stop-opacity=".153" offset="87.02%"/>
            <stop stop-opacity="0" offset="100%"/>
        </radialGradient>
        <radialGradient cx="50.29%" cy="50.135%" fx="50.29%" fy="50.135%" r="49.993%" id="i">
            <stop stop-color="#FFF" offset="15%"/>
            <stop stop-color="#F6F6F6" stop-opacity=".915" offset="22.21%"/>
            <stop stop-color="#DDD" stop-opacity=".775" offset="34.15%"/>
            <stop stop-color="#B4B4B4" stop-opacity=".596" offset="49.34%"/>
            <stop stop-color="#7B7B7B" stop-opacity=".386" offset="67.19%"/>
            <stop stop-color="#333" stop-opacity=".153" offset="87.02%"/>
            <stop stop-opacity="0" offset="100%"/>
        </radialGradient>
        <radialGradient cx="50.154%" cy="50.188%" fx="50.154%" fy="50.188%" r="49.993%" id="j">
            <stop stop-color="#FFF" offset="15%"/>
            <stop stop-color="#F6F6F6" stop-opacity=".915" offset="22.21%"/>
            <stop stop-color="#DDD" stop-opacity=".775" offset="34.15%"/>
            <stop stop-color="#B4B4B4" stop-opacity=".596" offset="49.34%"/>
            <stop stop-color="#7B7B7B" stop-opacity=".386" offset="67.19%"/>
            <stop stop-color="#333" stop-opacity=".153" offset="87.02%"/>
            <stop stop-opacity="0" offset="100%"/>
        </radialGradient>
        <radialGradient cx="50.237%" cy="50.137%" fx="50.237%" fy="50.137%" r="49.993%" id="k">
            <stop stop-color="#FFF" offset="15%"/>
            <stop stop-color="#F6F6F6" stop-opacity=".915" offset="22.21%"/>
            <stop stop-color="#DDD" stop-opacity=".775" offset="34.15%"/>
            <stop stop-color="#B4B4B4" stop-opacity=".596" offset="49.34%"/>
            <stop stop-color="#7B7B7B" stop-opacity=".386" offset="67.19%"/>
            <stop stop-color="#333" stop-opacity=".153" offset="87.02%"/>
            <stop stop-opacity="0" offset="100%"/>
        </radialGradient>
        <radialGradient cx="50.132%" cy="50.049%" fx="50.132%" fy="50.049%" r="49.993%" id="l">
            <stop stop-color="#FFF" offset="15%"/>
            <stop stop-color="#F6F6F6" stop-opacity=".915" offset="22.21%"/>
            <stop stop-color="#DDD" stop-opacity=".775" offset="34.15%"/>
            <stop stop-color="#B4B4B4" stop-opacity=".596" offset="49.34%"/>
            <stop stop-color="#7B7B7B" stop-opacity=".386" offset="67.19%"/>
            <stop stop-color="#333" stop-opacity=".153" offset="87.02%"/>
            <stop stop-opacity="0" offset="100%"/>
        </radialGradient>
        <radialGradient cx="50.183%" cy="50.105%" fx="50.183%" fy="50.105%" r="49.993%" id="m">
            <stop stop-color="#FFF" offset="15%"/>
            <stop stop-color="#F6F6F6" stop-opacity=".915" offset="22.21%"/>
            <stop stop-color="#DDD" stop-opacity=".775" offset="34.15%"/>
            <stop stop-color="#B4B4B4" stop-opacity=".596" offset="49.34%"/>
            <stop stop-color="#7B7B7B" stop-opacity=".386" offset="67.19%"/>
            <stop stop-color="#333" stop-opacity=".153" offset="87.02%"/>
            <stop stop-opacity="0" offset="100%"/>
        </radialGradient>
        <radialGradient cx="50.058%" cy="50.086%" fx="50.058%" fy="50.086%" r="49.993%" id="n">
            <stop stop-color="#FFF" offset="15%"/>
            <stop stop-color="#F6F6F6" stop-opacity=".915" offset="22.21%"/>
            <stop stop-color="#DDD" stop-opacity=".775" offset="34.15%"/>
            <stop stop-color="#B4B4B4" stop-opacity=".596" offset="49.34%"/>
            <stop stop-color="#7B7B7B" stop-opacity=".386" offset="67.19%"/>
            <stop stop-color="#333" stop-opacity=".153" offset="87.02%"/>
            <stop stop-opacity="0" offset="100%"/>
        </radialGradient>
        <radialGradient cx="50.156%" cy="50.151%" fx="50.156%" fy="50.151%" r="49.993%" id="o">
            <stop stop-color="#FFF" offset="15%"/>
            <stop stop-color="#F6F6F6" stop-opacity=".915" offset="22.21%"/>
            <stop stop-color="#DDD" stop-opacity=".775" offset="34.15%"/>
            <stop stop-color="#B4B4B4" stop-opacity=".596" offset="49.34%"/>
            <stop stop-color="#7B7B7B" stop-opacity=".386" offset="67.19%"/>
            <stop stop-color="#333" stop-opacity=".153" offset="87.02%"/>
            <stop stop-opacity="0" offset="100%"/>
        </radialGradient>
        <radialGradient cx="50.106%" cy="50.184%" fx="50.106%" fy="50.184%" r="49.993%" id="p">
            <stop stop-color="#FFF" offset="15%"/>
            <stop stop-color="#F6F6F6" stop-opacity=".915" offset="22.21%"/>
            <stop stop-color="#DDD" stop-opacity=".775" offset="34.15%"/>
            <stop stop-color="#B4B4B4" stop-opacity=".596" offset="49.34%"/>
            <stop stop-color="#7B7B7B" stop-opacity=".386" offset="67.19%"/>
            <stop stop-color="#333" stop-opacity=".153" offset="87.02%"/>
            <stop stop-opacity="0" offset="100%"/>
        </radialGradient>
        <radialGradient cx="50.169%" cy="50.154%" fx="50.169%" fy="50.154%" r="49.993%" id="q">
            <stop stop-color="#FFF" offset="15%"/>
            <stop stop-color="#F6F6F6" stop-opacity=".915" offset="22.21%"/>
            <stop stop-color="#DDD" stop-opacity=".775" offset="34.15%"/>
            <stop stop-color="#B4B4B4" stop-opacity=".596" offset="49.34%"/>
            <stop stop-color="#7B7B7B" stop-opacity=".386" offset="67.19%"/>
            <stop stop-color="#333" stop-opacity=".153" offset="87.02%"/>
            <stop stop-opacity="0" offset="100%"/>
        </radialGradient>
        <radialGradient cx="49.583%" cy="49.285%" fx="49.583%" fy="49.285%" r="49.876%" id="r">
            <stop stop-color="#FFF" offset="15%"/>
            <stop stop-color="#F6F6F6" stop-opacity=".915" offset="22.21%"/>
            <stop stop-color="#DDD" stop-opacity=".775" offset="34.15%"/>
            <stop stop-color="#B4B4B4" stop-opacity=".596" offset="49.34%"/>
            <stop stop-color="#7B7B7B" stop-opacity=".386" offset="67.19%"/>
            <stop stop-color="#333" stop-opacity=".153" offset="87.02%"/>
            <stop stop-opacity="0" offset="100%"/>
        </radialGradient>
        <radialGradient cx="49.216%" cy="49.715%" fx="49.216%" fy="49.715%" r="49.876%" id="s">
            <stop stop-color="#FFF" offset="15%"/>
            <stop stop-color="#F6F6F6" stop-opacity=".915" offset="22.21%"/>
            <stop stop-color="#DDD" stop-opacity=".775" offset="34.15%"/>
            <stop stop-color="#B4B4B4" stop-opacity=".596" offset="49.34%"/>
            <stop stop-color="#7B7B7B" stop-opacity=".386" offset="67.19%"/>
            <stop stop-color="#333" stop-opacity=".153" offset="87.02%"/>
            <stop stop-opacity="0" offset="100%"/>
        </radialGradient>
        <radialGradient cx="49.672%" cy="49.502%" fx="49.672%" fy="49.502%" r="49.876%" id="t">
            <stop stop-color="#FFF" offset="15%"/>
            <stop stop-color="#F6F6F6" stop-opacity=".915" offset="22.21%"/>
            <stop stop-color="#DDD" stop-opacity=".775" offset="34.15%"/>
            <stop stop-color="#B4B4B4" stop-opacity=".596" offset="49.34%"/>
            <stop stop-color="#7B7B7B" stop-opacity=".386" offset="67.19%"/>
            <stop stop-color="#333" stop-opacity=".153" offset="87.02%"/>
            <stop stop-opacity="0" offset="100%"/>
        </radialGradient>
        <radialGradient cx="49.582%" cy="49.549%" fx="49.582%" fy="49.549%" r="49.876%" id="u">
            <stop stop-color="#FFF" offset="15%"/>
            <stop stop-color="#F6F6F6" stop-opacity=".915" offset="22.21%"/>
            <stop stop-color="#DDD" stop-opacity=".775" offset="34.15%"/>
            <stop stop-color="#B4B4B4" stop-opacity=".596" offset="49.34%"/>
            <stop stop-color="#7B7B7B" stop-opacity=".386" offset="67.19%"/>
            <stop stop-color="#333" stop-opacity=".153" offset="87.02%"/>
            <stop stop-opacity="0" offset="100%"/>
        </radialGradient>
        <radialGradient cx="49.385%" cy="49.166%" fx="49.385%" fy="49.166%" r="49.876%" id="v">
            <stop stop-color="#FFF" offset="15%"/>
            <stop stop-color="#F6F6F6" stop-opacity=".915" offset="22.21%"/>
            <stop stop-color="#DDD" stop-opacity=".775" offset="34.15%"/>
            <stop stop-color="#B4B4B4" stop-opacity=".596" offset="49.34%"/>
            <stop stop-color="#7B7B7B" stop-opacity=".386" offset="67.19%"/>
            <stop stop-color="#333" stop-opacity=".153" offset="87.02%"/>
            <stop stop-opacity="0" offset="100%"/>
        </radialGradient>
        <radialGradient cx="49.721%" cy="49.009%" fx="49.721%" fy="49.009%" r="49.876%" id="w">
            <stop stop-color="#FFF" offset="15%"/>
            <stop stop-color="#F6F6F6" stop-opacity=".915" offset="22.21%"/>
            <stop stop-color="#DDD" stop-opacity=".775" offset="34.15%"/>
            <stop stop-color="#B4B4B4" stop-opacity=".596" offset="49.34%"/>
            <stop stop-color="#7B7B7B" stop-opacity=".386" offset="67.19%"/>
            <stop stop-color="#333" stop-opacity=".153" offset="87.02%"/>
            <stop stop-opacity="0" offset="100%"/>
        </radialGradient>
        <radialGradient cx="49.85%" cy="48.885%" fx="49.85%" fy="48.885%" r="49.876%" id="x">
            <stop stop-color="#FFF" offset="15%"/>
            <stop stop-color="#F6F6F6" stop-opacity=".915" offset="22.21%"/>
            <stop stop-color="#DDD" stop-opacity=".775" offset="34.15%"/>
            <stop stop-color="#B4B4B4" stop-opacity=".596" offset="49.34%"/>
            <stop stop-color="#7B7B7B" stop-opacity=".386" offset="67.19%"/>
            <stop stop-color="#333" stop-opacity=".153" offset="87.02%"/>
            <stop stop-opacity="0" offset="100%"/>
        </radialGradient>
        <radialGradient cx="48.643%" cy="49.185%" fx="48.643%" fy="49.185%" r="49.876%" id="y">
            <stop stop-color="#FFF" offset="15%"/>
            <stop stop-color="#F6F6F6" stop-opacity=".915" offset="22.21%"/>
            <stop stop-color="#DDD" stop-opacity=".775" offset="34.15%"/>
            <stop stop-color="#B4B4B4" stop-opacity=".596" offset="49.34%"/>
            <stop stop-color="#7B7B7B" stop-opacity=".386" offset="67.19%"/>
            <stop stop-color="#333" stop-opacity=".153" offset="87.02%"/>
            <stop stop-opacity="0" offset="100%"/>
        </radialGradient>
        <radialGradient cx="49.571%" cy="48.536%" fx="49.571%" fy="48.536%" r="49.876%" id="z">
            <stop stop-color="#FFF" offset="15%"/>
            <stop stop-color="#F6F6F6" stop-opacity=".915" offset="22.21%"/>
            <stop stop-color="#DDD" stop-opacity=".775" offset="34.15%"/>
            <stop stop-color="#B4B4B4" stop-opacity=".596" offset="49.34%"/>
            <stop stop-color="#7B7B7B" stop-opacity=".386" offset="67.19%"/>
            <stop stop-color="#333" stop-opacity=".153" offset="87.02%"/>
            <stop stop-opacity="0" offset="100%"/>
        </radialGradient>
        <radialGradient cx="48.886%" cy="49.043%" fx="48.886%" fy="49.043%" r="49.876%" id="A">
            <stop stop-color="#FFF" offset="15%"/>
            <stop stop-color="#F6F6F6" stop-opacity=".915" offset="22.21%"/>
            <stop stop-color="#DDD" stop-opacity=".775" offset="34.15%"/>
            <stop stop-color="#B4B4B4" stop-opacity=".596" offset="49.34%"/>
            <stop stop-color="#7B7B7B" stop-opacity=".386" offset="67.19%"/>
            <stop stop-color="#333" stop-opacity=".153" offset="87.02%"/>
            <stop stop-opacity="0" offset="100%"/>
        </radialGradient>
        <radialGradient cx="49.631%" cy="48.82%" fx="49.631%" fy="48.82%" r="49.876%" id="B">
            <stop stop-color="#FFF" offset="15%"/>
            <stop stop-color="#F6F6F6" stop-opacity=".915" offset="22.21%"/>
            <stop stop-color="#DDD" stop-opacity=".775" offset="34.15%"/>
            <stop stop-color="#B4B4B4" stop-opacity=".596" offset="49.34%"/>
            <stop stop-color="#7B7B7B" stop-opacity=".386" offset="67.19%"/>
            <stop stop-color="#333" stop-opacity=".153" offset="87.02%"/>
            <stop stop-opacity="0" offset="100%"/>
        </radialGradient>
        <radialGradient cx="48.335%" cy="49.161%" fx="48.335%" fy="49.161%" r="49.876%" id="C">
            <stop stop-color="#FFF" offset="15%"/>
            <stop stop-color="#F6F6F6" stop-opacity=".915" offset="22.21%"/>
            <stop stop-color="#DDD" stop-opacity=".775" offset="34.15%"/>
            <stop stop-color="#B4B4B4" stop-opacity=".596" offset="49.34%"/>
            <stop stop-color="#7B7B7B" stop-opacity=".386" offset="67.19%"/>
            <stop stop-color="#333" stop-opacity=".153" offset="87.02%"/>
            <stop stop-opacity="0" offset="100%"/>
        </radialGradient>
        <radialGradient cx="49.039%" cy="48.796%" fx="49.039%" fy="48.796%" r="49.876%" id="D">
            <stop stop-color="#FFF" offset="15%"/>
            <stop stop-color="#F6F6F6" stop-opacity=".915" offset="22.21%"/>
            <stop stop-color="#DDD" stop-opacity=".775" offset="34.15%"/>
            <stop stop-color="#B4B4B4" stop-opacity=".596" offset="49.34%"/>
            <stop stop-color="#7B7B7B" stop-opacity=".386" offset="67.19%"/>
            <stop stop-color="#333" stop-opacity=".153" offset="87.02%"/>
            <stop stop-opacity="0" offset="100%"/>
        </radialGradient>
        <radialGradient cx="49.572%" cy="48.893%" fx="49.572%" fy="48.893%" r="49.876%" id="E">
            <stop stop-color="#FFF" offset="15%"/>
            <stop stop-color="#F6F6F6" stop-opacity=".915" offset="22.21%"/>
            <stop stop-color="#DDD" stop-opacity=".775" offset="34.15%"/>
            <stop stop-color="#B4B4B4" stop-opacity=".596" offset="49.34%"/>
            <stop stop-color="#7B7B7B" stop-opacity=".386" offset="67.19%"/>
            <stop stop-color="#333" stop-opacity=".153" offset="87.02%"/>
            <stop stop-opacity="0" offset="100%"/>
        </radialGradient>
        <radialGradient cx="49.779%" cy="48.921%" fx="49.779%" fy="48.921%" r="49.876%" id="F">
            <stop stop-color="#FFF" offset="15%"/>
            <stop stop-color="#F6F6F6" stop-opacity=".915" offset="22.21%"/>
            <stop stop-color="#DDD" stop-opacity=".775" offset="34.15%"/>
            <stop stop-color="#B4B4B4" stop-opacity=".596" offset="49.34%"/>
            <stop stop-color="#7B7B7B" stop-opacity=".386" offset="67.19%"/>
            <stop stop-color="#333" stop-opacity=".153" offset="87.02%"/>
            <stop stop-opacity="0" offset="100%"/>
        </radialGradient>
        <radialGradient cx="49.532%" cy="49.165%" fx="49.532%" fy="49.165%" r="49.876%" id="G">
            <stop stop-color="#FFF" offset="15%"/>
            <stop stop-color="#F6F6F6" stop-opacity=".915" offset="22.21%"/>
            <stop stop-color="#DDD" stop-opacity=".775" offset="34.15%"/>
            <stop stop-color="#B4B4B4" stop-opacity=".596" offset="49.34%"/>
            <stop stop-color="#7B7B7B" stop-opacity=".386" offset="67.19%"/>
            <stop stop-color="#333" stop-opacity=".153" offset="87.02%"/>
            <stop stop-opacity="0" offset="100%"/>
        </radialGradient>
        <radialGradient cx="49.81%" cy="49.466%" fx="49.81%" fy="49.466%" r="49.876%" id="H">
            <stop stop-color="#FFF" offset="15%"/>
            <stop stop-color="#F6F6F6" stop-opacity=".915" offset="22.21%"/>
            <stop stop-color="#DDD" stop-opacity=".775" offset="34.15%"/>
            <stop stop-color="#B4B4B4" stop-opacity=".596" offset="49.34%"/>
            <stop stop-color="#7B7B7B" stop-opacity=".386" offset="67.19%"/>
            <stop stop-color="#333" stop-opacity=".153" offset="87.02%"/>
            <stop stop-opacity="0" offset="100%"/>
        </radialGradient>
        <radialGradient cx="48.943%" cy="49.308%" fx="48.943%" fy="49.308%" r="49.876%" id="I">
            <stop stop-color="#FFF" offset="15%"/>
            <stop stop-color="#F6F6F6" stop-opacity=".915" offset="22.21%"/>
            <stop stop-color="#DDD" stop-opacity=".775" offset="34.15%"/>
            <stop stop-color="#B4B4B4" stop-opacity=".596" offset="49.34%"/>
            <stop stop-color="#7B7B7B" stop-opacity=".386" offset="67.19%"/>
            <stop stop-color="#333" stop-opacity=".153" offset="87.02%"/>
            <stop stop-opacity="0" offset="100%"/>
        </radialGradient>
        <radialGradient cx="48.584%" cy="49.223%" fx="48.584%" fy="49.223%" r="49.876%" id="J">
            <stop stop-color="#FFF" offset="15%"/>
            <stop stop-color="#F6F6F6" stop-opacity=".915" offset="22.21%"/>
            <stop stop-color="#DDD" stop-opacity=".775" offset="34.15%"/>
            <stop stop-color="#B4B4B4" stop-opacity=".596" offset="49.34%"/>
            <stop stop-color="#7B7B7B" stop-opacity=".386" offset="67.19%"/>
            <stop stop-color="#333" stop-opacity=".153" offset="87.02%"/>
            <stop stop-opacity="0" offset="100%"/>
        </radialGradient>
        <radialGradient cx="49.313%" cy="49.651%" fx="49.313%" fy="49.651%" r="49.876%" id="K">
            <stop stop-color="#FFF" offset="15%"/>
            <stop stop-color="#F6F6F6" stop-opacity=".915" offset="22.21%"/>
            <stop stop-color="#DDD" stop-opacity=".775" offset="34.15%"/>
            <stop stop-color="#B4B4B4" stop-opacity=".596" offset="49.34%"/>
            <stop stop-color="#7B7B7B" stop-opacity=".386" offset="67.19%"/>
            <stop stop-color="#333" stop-opacity=".153" offset="87.02%"/>
            <stop stop-opacity="0" offset="100%"/>
        </radialGradient>
        <radialGradient cx="49.458%" cy="49.239%" fx="49.458%" fy="49.239%" r="49.876%" id="L">
            <stop stop-color="#FFF" offset="15%"/>
            <stop stop-color="#F6F6F6" stop-opacity=".915" offset="22.21%"/>
            <stop stop-color="#DDD" stop-opacity=".775" offset="34.15%"/>
            <stop stop-color="#B4B4B4" stop-opacity=".596" offset="49.34%"/>
            <stop stop-color="#7B7B7B" stop-opacity=".386" offset="67.19%"/>
            <stop stop-color="#333" stop-opacity=".153" offset="87.02%"/>
            <stop stop-opacity="0" offset="100%"/>
        </radialGradient>
        <radialGradient cx="49.159%" cy="49.527%" fx="49.159%" fy="49.527%" r="49.876%" id="M">
            <stop stop-color="#FFF" offset="15%"/>
            <stop stop-color="#F6F6F6" stop-opacity=".915" offset="22.21%"/>
            <stop stop-color="#DDD" stop-opacity=".775" offset="34.15%"/>
            <stop stop-color="#B4B4B4" stop-opacity=".596" offset="49.34%"/>
            <stop stop-color="#7B7B7B" stop-opacity=".386" offset="67.19%"/>
            <stop stop-color="#333" stop-opacity=".153" offset="87.02%"/>
            <stop stop-opacity="0" offset="100%"/>
        </radialGradient>
        <radialGradient cx="48.82%" cy="49.336%" fx="48.82%" fy="49.336%" r="49.876%" id="N">
            <stop stop-color="#FFF" offset="15%"/>
            <stop stop-color="#F6F6F6" stop-opacity=".915" offset="22.21%"/>
            <stop stop-color="#DDD" stop-opacity=".775" offset="34.15%"/>
            <stop stop-color="#B4B4B4" stop-opacity=".596" offset="49.34%"/>
            <stop stop-color="#7B7B7B" stop-opacity=".386" offset="67.19%"/>
            <stop stop-color="#333" stop-opacity=".153" offset="87.02%"/>
            <stop stop-opacity="0" offset="100%"/>
        </radialGradient>
        <radialGradient cx="49.129%" cy="49.283%" fx="49.129%" fy="49.283%" r="49.876%" id="O">
            <stop stop-color="#FFF" offset="15%"/>
            <stop stop-color="#F6F6F6" stop-opacity=".915" offset="22.21%"/>
            <stop stop-color="#DDD" stop-opacity=".775" offset="34.15%"/>
            <stop stop-color="#B4B4B4" stop-opacity=".596" offset="49.34%"/>
            <stop stop-color="#7B7B7B" stop-opacity=".386" offset="67.19%"/>
            <stop stop-color="#333" stop-opacity=".153" offset="87.02%"/>
            <stop stop-opacity="0" offset="100%"/>
        </radialGradient>
        <path id="P" d="M0 .778h6.876v6.908H0z"/>
        <path id="R" d="M.24.8h9.782v11.686H.241z"/>
        <path id="T" d="M.705.666h9.47V7.66H.704z"/>
        <filter x="-11.8%" y="-11.8%" width="123.5%" height="123.5%" filterUnits="objectBoundingBox" id="b">
            <feOffset in="SourceAlpha" result="shadowOffsetOuter1"/>
            <feGaussianBlur stdDeviation="4" in="shadowOffsetOuter1" result="shadowBlurOuter1"/>
            <feComposite in="shadowBlurOuter1" in2="SourceAlpha" operator="out" result="shadowBlurOuter1"/>
            <feColorMatrix values="0 0 0 0 0 0 0 0 0 0 0 0 0 0 0 0 0 0 0.152808129 0" in="shadowBlurOuter1"/>
        </filter>
        <circle id="a" cx="51" cy="51" r="51"/>
    </defs>
    <g fill="none" fill-rule="evenodd">
        <g transform="translate(8 8)">
            <mask id="c" fill="#fff">
                <use xlink:href="#a"/>
            </mask>
            <use fill="#000" filter="url(#b)" xlink:href="#a"/>
            <circle stroke="#FFF" stroke-width="3" stroke-linejoin="square" fill="#38256B" cx="51" cy="51" r="49.5"/>
            <g mask="url(#c)" fill-rule="nonzero">
                <g transform="translate(7 11)">
                    <circle fill="url(#d)" cx="61" cy="1" r="1"/>
                    <circle fill="url(#e)" cx="31" cy="71" r="1"/>
                    <circle fill="url(#f)" cx="1" cy="46" r="1"/>
                    <circle fill="url(#g)" cx="2" cy="34" r="1"/>
                    <circle fill="url(#h)" cx="82" cy="24" r="1"/>
                    <circle fill="url(#i)" cx="80" cy="54" r="1"/>
                    <circle fill="url(#j)" cx="43" cy="84" r="1"/>
                    <circle fill="url(#k)" cx="69" cy="67" r="1"/>
                    <circle fill="url(#l)" cx="33" cy="2" r="1"/>
                    <circle fill="url(#m)" cx="23" cy="29" r="1"/>
                    <circle fill="url(#n)" cx="8" cy="12" r="1"/>
                    <circle fill="url(#o)" cx="12" cy="40" r="1"/>
                    <circle fill="url(#p)" cx="7" cy="65" r="1"/>
                    <circle fill="url(#q)" cx="46" cy="21" r="1"/>
                    <circle fill="url(#q)" cx="53" cy="70" r="1"/>
                    <circle fill="url(#r)" cx="30.5" cy="19.5" r="1"/>
                    <circle fill="url(#s)" cx="40.5" cy="7.5" r="1"/>
                    <circle fill="url(#t)" cx="15.5" cy="5.5" r="1"/>
                    <circle fill="url(#u)" cx="26.5" cy="10.5" r="1"/>
                    <circle fill="url(#v)" cx="47.5" cy="40.5" r="1"/>
                    <circle fill="url(#w)" cx="25.5" cy="57.5" r="1"/>
                    <circle fill="url(#x)" cx="13.5" cy="57.5" r="1"/>
                    <circle fill="url(#y)" cx="77.5" cy="42.5" r="1"/>
                    <circle fill="url(#z)" cx="27.5" cy="81.5" r="1"/>
                    <circle fill="url(#A)" cx="70.5" cy="52.5" r="1"/>
                    <circle fill="url(#B)" cx="22.5" cy="68.5" r="1"/>
                    <circle fill="url(#C)" cx="78.5" cy="39.5" r="1"/>
                    <circle fill="url(#D)" cx="61.5" cy="52.5" r="1"/>
                    <circle fill="url(#E)" cx="22.5" cy="50.5" r="1"/>
                    <circle fill="url(#F)" cx="4.5" cy="52.5" r="1"/>
                    <circle fill="url(#G)" cx="24.5" cy="43.5" r="1"/>
                    <circle fill="url(#H)" cx="7.5" cy="23.5" r="1"/>
                    <circle fill="url(#I)" cx="69.5" cy="33.5" r="1"/>
                    <circle fill="url(#J)" cx="88.5" cy="39.5" r="1"/>
                    <circle fill="url(#K)" cx="49.5" cy="6.5" r="1"/>
                    <circle fill="url(#L)" cx="34.5" cy="32.5" r="1"/>
                    <circle fill="url(#M)" cx="60.5" cy="7.5" r="1"/>
                    <circle fill="url(#s)" cx="44.5" cy="74.5" r="1"/>
                    <circle fill="url(#K)" cx="57.5" cy="78.5" r="1"/>
                    <circle fill="url(#M)" cx="61.5" cy="65.5" r="1"/>
                    <circle fill="url(#N)" cx="69.5" cy="19.5" r="1"/>
                    <circle fill="url(#O)" cx="59.5" cy="35.5" r="1"/>
                </g>
            </g>
        </g>
        <path d="m54.022 76.787-1.589 1.664c-1.105 1.157-2.218 2.307-3.322 3.464 2.047 1.05 3.974 2.385 6.185 3.092.677-2.053 1.352-4.11 2.034-6.163l-3.308-2.057" fill="#FFF"/>
        <g transform="rotate(-120 55.773 24.89)">
            <mask id="Q" fill="#fff">
                <use xlink:href="#P"/>
            </mask>
            <path d="m4.647 6.481 2.229-.57c-.061-1.301-.117-2.593-.177-3.893C4.576 1.608 2.45 1.19.329.778-.137 3.05.085 5.385 0 7.686c1.551-.4 3.098-.806 4.648-1.205" fill="#FFF" mask="url(#Q)"/>
        </g>
        <path d="M56.254 85.695c.597.132 1.601.586 2.709.58 1.109-.007 2.106-.475 2.702-.614-.55-1.527-1.93-4.754-2.747-6.568-.793 1.825-2.133 5.068-2.664 6.602M64.531 75.984c1.504 1.583 3.98 3.357 4.922 5.324 1.787-1.302 3.58-2.604 5.375-3.9-2-1.999-3.998-3.99-5.99-5.99l-4.307 4.566M48.904 71.543c-1.967 2.023-3.94 4.04-5.915 6.064 1.81 1.273 3.62 2.553 5.423 3.833.916-1.98 3.371-3.785 4.855-5.386l-4.363-4.511M72.792 61.655a100.5 100.5 0 0 0 1.058-8.886l-2.153-.098c-.868 1.856-1.473 4.394-3.472 5.334-2.214 1.01-2.856.59-3.83 2.982-.727 1.794-.944 3.413-2.09 5.043-.622.89-3.71 1.493-2.56 2.771 1.363 1.54 3.294 2.592 4.962 3.763 1.555 1.091 4.292-2.893 5.65-3.99 1.769-1.412 2.08-4.833 2.435-6.92M58.909 77.55c1.413-.009 5.038-1.636 5.912-3.492-1.703.176-5.948-2.244-5.96-4.126.012 1.882-4.203 4.355-5.907 4.2.897 1.844 4.54 3.427 5.955 3.417M45.628 67.813a8.6 8.6 0 0 1-1.222-3.774c-1.092.622-8.49 4.437-7.88 5.41 1.64 2.586 3.172 4.876 5.368 6.99.03.036.068.067.105.103.031.031.068.062.104.098.39.354 4.855-4.556 5.57-5.304.793-.823-1.46-2.549-2.045-3.523" fill="#FFF"/>
        <g transform="rotate(-120 37.508 24.275)">
            <mask id="S" fill="#fff">
                <use xlink:href="#R"/>
            </mask>
            <path d="M.54 9.248c-.08 1.759.522 1.435 2.046 2.013 1.075.412 2.145.817 3.222 1.225.65-2.523 2.578-4.928 3.597-7.39 1.013-2.453 1.04-3.181-1.937-3.572C5.068 1.204 2.65 1.03.241.8c.14 2.81.44 5.628.3 8.448" fill="#FFF" mask="url(#S)"/>
        </g>
        <path d="M72.067 67.648c-.572.98-2.805 2.735-2.001 3.548.725.74 5.25 5.594 5.634 5.234.036-.037.074-.067.104-.099.037-.037.074-.067.104-.105 2.17-2.14 3.674-4.45 5.28-7.055.598-.98-6.847-4.703-7.946-5.313a8.599 8.599 0 0 1-1.175 3.79M47.35 68.718c1.37 1.08 4.156 5.028 5.699 3.918 1.652-1.19 3.57-2.265 4.913-3.824 1.136-1.293-1.96-1.857-2.593-2.738-1.166-1.616-1.403-3.232-2.153-5.017-1.004-2.38-1.642-1.95-3.867-2.933-2.01-.916-2.647-3.445-3.538-5.291l-2.152.124c.26 2.975.646 5.936 1.168 8.872.383 2.082.736 5.499 2.523 6.89" fill="#FFF"/>
        <path d="M44.147 51.214c3.495.508 6.62-.336 8.245 3.865.831 2.166 1.779 4.288 2.605 6.46.237.613.366 1.644 1.203 1.72.148.01 2.62.186 2.621.284 0-.098 2.47-.304 2.617-.317.836-.086.953-1.119 1.183-1.736.797-2.18 1.72-4.314 2.523-6.49 1.573-4.222 4.707-3.418 8.196-3.967-.886-1.982-2.776-4.337-3.695-4.91-.007-.005-.012-.005-.02-.005-.004-.006-.016-.012-.023-.02-.012-.005-.025-.01-.038-.023l-.086-.055c.006.006.019.013.031.025-3.098-1.844-7.235-1.572-10.806-1.538-3.573.01-7.713-.21-10.787 1.673.012-.013.023-.02.03-.025-.013.006-.037.024-.085.056a.126.126 0 0 1-.038.024c-.006.007-.018.013-.023.02-.007-.001-.013 0-.019.006-.913.583-2.774 2.961-3.634 4.953M47.192 44.524a66.39 66.39 0 0 0-3.92-4.206c-1.112-1.1-2.278-2.476-3.599-1.336-.832.724-1.6 1.51-2.303 2.35-1.428 1.712-2.572 3.633-3.536 5.63 3.09-.382 6.609.944 9.692 1.323.616.1 4.137-3.21 3.666-3.761" fill="#FFF"/>
        <g transform="rotate(-120 36.438 10.002)">
            <mask id="U" fill="#fff">
                <use xlink:href="#T"/>
            </mask>
            <path d="M2.517 2.994C.673 3.353-.056 4.395 1.731 5.42c1.997 1.143 4.122 1.709 6.344 2.195 2.242.497 2.084-3.08 2.082-3.088-.002-.023.018-2.643.018-3.86-2.552.99-4.958 1.798-7.658 2.328" fill="#FFF" mask="url(#U)"/>
        </g>
        <path d="M32.331 53.582s0 .019-.006.05v.023a.025.025 0 0 0-.006.02v.004c0 .013 0 .025-.005.044v.03c-.006.02-.006.038-.006.056-.006.056-.018.117-.023.197-.146 1.28-.175 2.571-.246 3.856 3.364-.72 6.849-1.068 10.291-1.12 1.242-.027.4-2.058.375-2.986-.053-1.616.099-2.922.47-4.478-3.066-.597-6.144-1.118-9.227-1.634-.88-.167-1.447 4.412-1.617 5.938M56.794 43.191c1.893-.08 1.286-.808 1.196-2.571a714.17 714.17 0 0 1-.202-3.774c-.035-.628.093-3.807-.486-3.823-.59-.008-1.18-.017-1.77-.019-1.36-.016-2.639-.07-3.902.505-.025.005-.043.018-.067.03-.006 0-.012.006-.019.006a.183.183 0 0 1-.05.026c-.005.006-.018.006-.023.012-.68.268-1.387.47-2.105.604a27.91 27.91 0 0 1 1.68 9.243c1.912-.116 3.837-.153 5.748-.239M70.212 44.38c-.463.556 3.098 3.824 3.713 3.715 3.078-.419 6.58-1.787 9.675-1.443-.99-1.987-2.159-3.892-3.608-5.586a20.728 20.728 0 0 0-2.332-2.322c-1.336-1.123-2.482.268-3.583 1.381a67.195 67.195 0 0 0-3.865 4.255M82.625 57.904c-2.646-.316-5.686.189-8.205-.478-.171 1.138-.343 2.27-.508 3.41-.243 1.613-.818 1.978.755 2.767 2.53 1.258 4.839 2.897 7.222 4.395.976-2.214 2.008-4.408 2.903-6.659 1.114-2.786.466-3.12-2.167-3.435M74.813 53.556c-.013.928-.83 2.968.413 2.98 3.443.01 6.931.313 10.305.993-.088-1.285-.133-2.577-.294-3.854-.007-.079-.02-.141-.026-.196 0-.02 0-.036-.007-.055v-.031a.117.117 0 0 1-.006-.043l-.001-.006c0-.006 0-.013-.007-.019l.001-.025c-.005-.03-.006-.05-.006-.05-.188-1.522-.813-6.093-1.691-5.916-3.078.554-6.148 1.115-9.207 1.75.391 1.552.559 2.855.526 4.472M59.521 36.835c-.047 1.26-.1 2.514-.155 3.776-.069 1.765-.667 2.5 1.228 2.557 1.912.06 3.837.074 5.75.166a27.924 27.924 0 0 1 1.565-9.263s-2.39-1.129-6.18-1.106c-.313.002-1.18.026-1.77.042-.578.022-.411 3.2-.438 3.828M67.555 42.238c.019 2.06 1.284 1.936 2.5.502 1.782-2.097 3.665-3.799 5.775-5.54-1.061-.596-3.356-1.86-3.374-1.873-.007-.006-3.05-1.892-3.713.306-.662 2.175-1.208 4.305-1.188 6.605" fill="#FFF"/>
    </g>
</svg>
