<svg xmlns="http://www.w3.org/2000/svg" width="17" height="16" viewBox="0 0 17 16">
    <g fill="none" fill-rule="evenodd">
        <g fill="#04BF92" fill-rule="nonzero">
            <g>
                <g>
                    <g>
                        <g>
                            <g>
                                <g>
                                    <path d="M15.444 0h-3.016c-.072-.002-.143.025-.194.077-.051.05-.079.121-.076.194v.615C9.07.883 4.873.881 2.752.886c-.812.001-1.486.628-1.486 1.396v.025c.004.34.135.666.369.914-.563.197-.963.71-.963 1.313.006.372.163.726.435.98-.48.23-.798.702-.798 1.245v.026c-.002.386.162.753.45 1.01-.447.24-.752.695-.752 1.215 0 .77.659 1.395 1.472 1.396l4.687.005-.09 3.248-.001.013c.019 1.122.858 2.06 1.971 2.204l.631.099c.078.012.158-.01.22-.059.062-.049.1-.122.107-.2l.262-3.438c.032-.422.178-.827.42-1.174.156-.223.35-.417.574-.572.092-.063.201-.13.31-.202.5-.33 1.127-.742 1.588-1.213v.98c0 .158.114.298.27.298h3.016c.162-.005.292-.135.297-.297V.27c0-.157-.14-.271-.297-.271zm-5.188 9.857c-.11.072-.217.14-.312.206-.281.193-.525.435-.72.715-.302.43-.483.933-.523 1.457l-.24 3.132-.331-.052-.008-.001c-.83-.11-1.459-.808-1.48-1.645l.098-3.534c.003-.076-.026-.15-.08-.205-.053-.055-.126-.086-.203-.086l-4.98-.006c-.5 0-.907-.364-.907-.821 0-.457.408-.822.908-.822h.241l.048.001h1.967c.157 0 .284-.128.284-.285 0-.156-.127-.283-.284-.283H1.73c-.483-.036-.853-.398-.853-.843V6.76c0-.457.391-.834.892-.834h1.78c.157 0 .284-.127.284-.284 0-.157-.127-.284-.283-.284H2.15c-.5 0-.908-.375-.908-.835 0-.457.408-.832.908-.832H3.47c.156 0 .283-.127.283-.284 0-.157-.127-.284-.283-.284h-.714c-.501 0-.922-.359-.922-.816v-.024c0-.456.42-.828.919-.83 2.12-.004 6.318-.001 9.405.002v6.712c-.284.624-1.218 1.24-1.902 1.69zm4.917-.03h-2.448V.567h2.448v9.26z" transform="translate(-186 -6124) translate(15 5793) translate(0 125) translate(47 131) translate(47 75) translate(70) rotate(180 11.876 8)"/>
                                </g>
                            </g>
                        </g>
                    </g>
                </g>
            </g>
        </g>
    </g>
</svg>
