<svg xmlns="http://www.w3.org/2000/svg" width="24" height="17" viewBox="0 0 24 17">
    <g fill="none" fill-rule="evenodd">
        <g fill="#EA2318">
            <g>
                <path fill-rule="nonzero" d="M23.083.033H.698C.313.033 0 .346 0 .732v12.86c0 .387.313.7.698.7h8.73v1.278H7.544c-.386 0-.698.312-.698.698 0 .386.312.699.698.699h8.693c.386 0 .699-.313.699-.699 0-.386-.313-.698-.699-.698h-1.884V14.29h8.73c.386 0 .698-.312.698-.698V.732c0-.386-.312-.699-.698-.699zM12.957 15.57h-2.132V14.29h2.132v1.279zm9.428-2.675H1.397V1.43h20.988v11.465z" transform="translate(-300 -13) translate(300 13)"/>
                <path d="M9.563 4.25L9.563 10.328 15.938 7.468z" transform="translate(-300 -13) translate(300 13)"/>
            </g>
        </g>
    </g>
</svg>
