<svg width="305" height="34" viewBox="0 0 305 34" xmlns="http://www.w3.org/2000/svg">
    <g fill="none" fill-rule="evenodd">
        <path fill="#FFF" d="M115.706 30.794h27.867V12.746h-27.867zM149.99 30.794h27.868V12.746h-27.867zM182.925 30.794h30.063V12.746h-30.063z"/>
        <path d="M123.91 18.37c-.03.016-.066.016-.09.016v10.613h-4.697V14.366c.057-.006.1-.021.135-.021 2.336 0 4.676-.006 7.017 0 .095 0 .242.063.317.159.381.43.746.878 1.114 1.335a785.713 785.713 0 0 1 3.661 4.397c1.09 1.32 2.182 2.665 3.282 3.99.2.242.429.459.642.693.024-.02.062-.034.104-.056V14.366h4.697v14.647c-.09.014-.132.027-.194.027-2.316 0-4.626.006-6.948-.007-.101 0-.23-.05-.287-.124a96.403 96.403 0 0 1-1.693-2.027c-.553-.67-1.1-1.348-1.66-2.032-.955-1.142-1.916-2.283-2.877-3.43l-2.523-3.05zm-10.132 15.007h32.02v-22.98h-32.02v22.98zM163.858 29.2c-1.36 0-2.724-.016-4.085 0-1.358.026-2.682-.131-3.938-.61a3.622 3.622 0 0 1-1.935-1.668c-.504-.898-.63-1.913-.657-2.917-.02-1.555-.048-3.119.022-4.674.035-.83.173-1.68.439-2.454.41-1.21 1.43-1.93 2.681-2.303 1.008-.312 2.04-.408 3.096-.408 2.766 0 5.526.006 8.289 0 1.393-.008 2.754.082 4.054.595.914.352 1.598.934 2.048 1.764.435.848.57 1.762.581 2.69.006 1.395.02 2.778-.012 4.183 0 .67-.02 1.368-.134 2.032-.223 1.39-.907 2.504-2.296 3.105-1.005.435-2.097.63-3.185.65-1.664.041-3.309.014-4.968.014zm-16.109 4.177h32.2v-22.98h-32.2v22.98z" fill="#224099"/>
        <path d="M163.884 25.423h3.459c.499 0 .972-.102 1.396-.366.402-.237.617-.601.7-1.01.249-1.163.314-2.332.145-3.5a8.27 8.27 0 0 0-.338-1.513c-.167-.486-.605-.713-1.093-.9-.553-.213-1.125-.193-1.693-.193-2.015 0-4.027-.057-6.052.02-1.39.063-2.104.708-2.217 1.964-.106 1.211-.053 2.442-.005 3.659.025.614.264 1.224.907 1.529.38.171.836.275 1.276.282 1.166.048 2.352.028 3.515.028" fill="#034EA1"/>
        <path d="M212.216 14.345c-.228.692-.442 1.33-.656 1.979-.257.765-.535 1.513-.788 2.288-.274.761-.508 1.508-.77 2.274-.302.871-.633 1.751-.932 2.62-.239.735-.443 1.452-.687 2.172-.335 1.019-.682 2.033-1.027 3.043-.078.2-.165.331-.451.331-1.627-.019-3.243-.012-4.863-.006-.216.006-.33-.054-.396-.277-.187-.62-.418-1.221-.639-1.831-.18-.465-.375-.928-.54-1.404-.325-.864-.64-1.734-.957-2.62-.251-.693-.503-1.378-.747-2.062-.193-.497-.374-.99-.598-1.542-.084.188-.162.319-.207.45-.29.762-.561 1.522-.856 2.283-.204.572-.431 1.154-.64 1.726-.31.866-.613 1.738-.931 2.602-.258.719-.505 1.453-.796 2.135-.09.208-.049.546-.45.54-1.625-.006-3.237 0-4.863-.006-.108 0-.231-.013-.357-.013-1.656-4.89-3.304-9.76-4.972-14.667.17-.015.274-.021.386-.021 1.282 0 2.575.006 3.86-.008.308-.014.409.104.48.361.23.786.46 1.581.704 2.365.253.815.523 1.646.768 2.468.319 1.072.634 2.15.951 3.23.194.613.38 1.237.568 1.851.041.145.114.279.206.477.078-.143.133-.22.152-.294.209-.556.41-1.128.602-1.704.225-.627.458-1.259.69-1.879.327-.905.658-1.813.974-2.712.245-.705.496-1.417.746-2.124.22-.605.462-1.209.669-1.819.07-.206.217-.234.403-.234 1.181.014 2.376.022 3.559 0 .362 0 .595 0 .726.457.234.877.6 1.716.907 2.579.469 1.274.936 2.559 1.403 3.831.23.642.469 1.266.699 1.89.234.657.458 1.321.676 1.983h.114c1.078-3.583 2.171-7.15 3.238-10.712h4.642zm-30.084 19.037h31.862V10.397h-31.862c-.004.126-.017.25-.017.382v21.353c0 .42.013.829.017 1.25z" fill="#224099"/>
        <g>
            <path fill="#B52025" d="M0 33.382h114.008V10.396H0z"/>
            <path d="M35.06 12.994v.472c-.012 5.523-.012 11.032-.012 16.546 0 .551 0 .551.605.551.735 0 1.495-.015 2.232.016.353 0 .426-.108.426-.416-.022-4.01-.022-8.008-.029-12.01 0-.236 0-.465.086-.731.3.415.605.81.916 1.211 1.058 1.489 2.118 2.937 3.18 4.417 1.098 1.487 2.174 2.985 3.264 4.475.69.935 1.394 1.859 2.088 2.794a.533.533 0 0 0 .352.165c.992.016 1.968.016 2.973 0 .11 0 .269-.079.339-.172 1.136-1.537 2.243-3.088 3.378-4.62 1.059-1.466 2.144-2.909 3.208-4.374.826-1.141 1.643-2.298 2.468-3.424.118-.173.263-.322.453-.544v13.222h2.297c.927 0 .927 0 .927-.888 0-5.382-.01-10.775-.01-16.153v-.537h-1.95c-.558 0-1.118-.013-1.677.024-.171 0-.388.094-.479.214-1.045 1.44-2.077 2.889-3.117 4.314-.916 1.277-1.884 2.521-2.806 3.796-.834 1.122-1.651 2.268-2.463 3.402a512.72 512.72 0 0 0-2.062 2.788c-.4-.528-.773-1.023-1.144-1.521-1.032-1.424-2.077-2.85-3.112-4.275-.942-1.292-1.886-2.583-2.822-3.882-1.125-1.534-2.235-3.078-3.36-4.622-.079-.1-.23-.214-.337-.214-1.248-.024-2.5-.024-3.811-.024M94.588 24.972c-.838 0-1.657-.015-2.471 0-.082 0-.208.188-.217.284-.03.984-.07 2.001.332 2.945.32.78.903 1.354 1.69 1.732 1.055.488 2.165.71 3.34.71 2.852.03 5.707.07 8.57.07 1.248 0 2.514-.008 3.74-.323 1.686-.424 3.054-1.378 3.247-3.3a16.536 16.536 0 0 0-.047-3.354c-.146-1.001-.819-1.739-1.786-2.22-1.012-.521-2.116-.764-3.247-.77-3.035-.073-6.085-.05-9.137-.112-.864-.02-1.744-.142-2.602-.309-.7-.149-1.19-.636-1.322-1.305-.166-.805-.204-1.624.064-2.418.311-.881 1.038-1.196 1.887-1.315 2.351-.354 4.712-.174 7.082-.18 1.354-.01 2.712.086 4.065.189.76.06 1.526.28 1.812 1.077.108.338.113.708.153 1.048.023.188 0 .394 0 .615h2.753c0-1.52-.061-2.978-1.457-4.008-.578-.413-1.24-.653-1.947-.805-1.951-.447-3.934-.447-5.922-.447-1.85.013-3.708.013-5.562.093-1.13.041-2.275.175-3.306.623-1.032.426-1.8 1.109-2.128 2.19-.455 1.51-.416 3.03.068 4.512.338 1.03 1.194 1.644 2.259 1.992 1.652.541 3.373.558 5.086.597 2.764.062 5.532.04 8.286.127.999.014 1.893.37 2.216 1.408.077.27.097.553.097.82 0 .691.094 1.386-.235 2.032-.237.463-.623.74-1.086.937-.713.29-1.464.29-2.188.29-2.964.034-5.909.034-8.866 0-.802 0-1.62-.024-2.364-.416-.57-.317-.788-.811-.835-1.378-.051-.527-.022-1.049-.022-1.63M72.093 20.476v-5.18h15.073v-2.341H68.953v17.617h.436c5.817-.009 11.647-.024 17.478-.024.372 0 .471-.096.458-.45a11.807 11.807 0 0 1 0-1.536c.02-.36-.12-.448-.484-.448-4.723.022-9.447.017-14.188.017h-.545v-5.239H86.92c0-.771.008-1.48-.014-2.188 0-.09-.135-.188-.23-.212-.109-.048-.231-.016-.344-.016h-14.24zM2.124 12.965v2.307h9.024v15.267h3.178V15.296h8.803v-2.33zM26.76 30.548h3.108v-17.53H26.76z" fill="#FFF"/>
        </g>
        <g fill="#B52025" fill-rule="nonzero">
            <path d="M234.682 25.164h-6.945v.618c0 .994-.206 1.736-.618 2.227-.413.491-1.073.736-1.982.736-.691 0-1.47-.3-2.337-.9a8.416 8.416 0 0 1-2.172-2.172c-.582-.849-.873-1.625-.873-2.328 0-.787.218-1.366.654-1.736.437-.37 1.097-.554 1.982-.554h.364v-6.728h-4.164v-4.109h24.6v4.11h-3.509v19.054h-5v-8.218zm0-4.11v-6.727h-6.945v6.728h6.945z"/>
            <path d="M250.864 24.29c2.4 2.4 4.836 4.534 7.31 6.4L254.936 34a146.49 146.49 0 0 1-5.891-5.31c-1.71-1.635-2.915-2.911-3.618-3.826-.703-.916-1.149-1.63-1.337-2.146a4.366 4.366 0 0 1-.282-1.5c0-.812.258-1.482.773-2.009.515-.527 1.246-.79 2.191-.79 1.2 0 2.249.454 3.146 1.363 1.32-.86 1.981-2.024 1.981-3.491 0-.691-.078-1.346-.236-1.964h-9v-4.109h16.855v4.11h-2.982c.242.836.363 1.769.363 2.8 0 1.636-.503 3.05-1.509 4.245-1.006 1.194-2.515 2.166-4.527 2.918z"/>
            <path d="M270.482 14.327h-3.509v19.055h-5V14.327h-2.982v-4.109h11.491z"/>
            <path d="M293.5 14.327h-8.127v3.164c2.06.873 3.618 2.04 4.673 3.5 1.054 1.46 1.582 3.13 1.582 5.009 0 2.352-.891 4.17-2.673 5.455-1.782 1.284-4.218 1.927-7.31 1.927-1.95 0-3.723-.352-5.317-1.055-1.594-.703-2.83-1.697-3.71-2.982-.878-1.284-1.318-2.763-1.318-4.436 0-2.206.81-4 2.428-5.382 1.618-1.382 3.839-2.151 6.663-2.309v-2.89h-10.436v-4.11H293.5v4.11zM283.028 21.2h-.182c-1.927 0-3.312.185-4.155.555-.842.37-1.454.839-1.836 1.409-.382.57-.573 1.224-.573 1.963 0 1.31.46 2.328 1.382 3.055.921.727 2.194 1.09 3.818 1.09 1.649 0 2.921-.32 3.818-.963.897-.642 1.346-1.564 1.346-2.764 0-.933-.3-1.772-.9-2.518-.6-.745-1.506-1.354-2.718-1.827z"/>
            <path d="M304.464 10.218v4.11h-3.51v19.054h-5V14.327h-2.98v-4.109h2.69c-1.2-2.073-2.458-3.603-3.773-4.59-1.315-.989-2.754-1.483-4.318-1.483-1.115 0-1.982.255-2.6.764-.618.51-.927 1.224-.927 2.146 0 1.163.327 2.315.982 3.454l-4.819-.018c-.775-1.491-1.163-2.915-1.163-4.273 0-1.927.697-3.445 2.09-4.554C282.532.554 284.465 0 286.937 0c2.922 0 5.495.81 7.719 2.427 2.224 1.618 4.221 4.215 5.99 7.791h3.819z"/>
        </g>
    </g>
</svg>
