<?xml version="1.0" encoding="UTF-8"?>
<svg width="1190px" height="101px" viewBox="0 0 1190 101" version="1.1" xmlns="http://www.w3.org/2000/svg" xmlns:xlink="http://www.w3.org/1999/xlink">
    <title>Telugu Copy</title>
    <defs>
        <polygon id="path-1" points="0 0 42 0 42 27 0 27"></polygon>
        <polygon id="path-3" points="0 0 42 0 42 49 0 49"></polygon>
    </defs>
    <g id="Telugu-logo" stroke="none" stroke-width="1" fill="none" fill-rule="evenodd">
        <g id="Telugu-Copy" transform="translate(0, 0.52)">
            <g id="logo-01-copy">
                <g id="Group-52" transform="translate(495, 0)">
                    <polygon id="Fill-1" fill="#FFFFFF" points="8.38814233 88.7428357 129.626724 88.7428357 129.626724 10.2237395 8.38814233 10.2237395"></polygon>
                    <polygon id="Fill-2" fill="#FFFFFF" points="157.548337 88.7428357 278.786919 88.7428357 278.786919 10.2237395 157.548337 10.2237395"></polygon>
                    <polygon id="Fill-3" fill="#FFFFFF" points="300.830297 88.7428357 431.621009 88.7428357 431.621009 10.2237395 300.830297 10.2237395"></polygon>
                    <path d="M44.079899,34.6872738 C43.9505779,34.7587899 43.7957844,34.7587899 43.6919356,34.7587899 L43.6919356,80.9337065 L23.2542948,80.9337065 L23.2542948,17.2716309 C23.5021603,17.2442001 23.686345,17.1775823 23.8421182,17.1775823 C34.0046055,17.1775823 44.1837479,17.1521109 54.3707278,17.1775823 C54.7851433,17.1775823 55.4229318,17.4528704 55.7511332,17.8692313 C57.4068358,19.7404063 58.9959185,21.6889754 60.5947982,23.6767315 C65.8852091,29.9926818 71.2412602,36.4056198 76.5248131,42.8077813 C81.2665887,48.5545418 86.0181614,54.4012289 90.800105,60.1685625 C91.6691039,61.2187717 92.6674241,62.1621966 93.5961851,63.1810563 C93.7000339,63.091906 93.8636447,63.032146 94.0478294,62.9390771 L94.0478294,17.2716309 L114.480572,17.2716309 L114.480572,80.9934666 C114.093588,81.0522469 113.907444,81.1100476 113.639005,81.1100476 C103.561752,81.1100476 93.5119304,81.1355191 83.4111645,81.0816371 C82.9693172,81.0816371 82.4089256,80.8631701 82.1600803,80.5398781 C79.6794655,77.6498434 77.217465,74.7039674 74.7966122,71.7218435 C72.3884956,68.8053576 70.0117295,65.8555629 67.5722623,62.8822561 C63.4202695,57.9123761 59.2369261,52.9503335 55.0584812,47.9618398 C51.3934022,43.5356782 47.742039,39.1134353 44.079899,34.6872738 L44.079899,34.6872738 Z M0,99.9785452 L139.308274,99.9785452 L139.308274,0 L0,0 L0,99.9785452 Z" id="Fill-28" fill="#224099"></path>
                    <path d="M217.876263,81.803362 C211.958841,81.803362 206.028682,81.737724 200.104402,81.803362 C194.199715,81.9199431 188.438066,81.2351518 182.974247,79.1543269 C179.241568,77.7367404 176.396503,75.2473919 174.556616,71.8978907 C172.361095,67.9880166 171.818338,63.5736111 171.698814,59.2062299 C171.608681,52.4406098 171.490137,45.6377621 171.792866,38.8721419 C171.94472,35.2620478 172.543321,31.560844 173.702312,28.1946884 C175.487336,22.9318863 179.926383,19.7988928 185.366689,18.175575 C189.753811,16.8177485 194.237924,16.4004079 198.835683,16.4004079 C210.867449,16.4004079 222.878641,16.4248998 234.89767,16.4004079 C240.95813,16.3670991 246.879471,16.7579885 252.533353,18.9887034 C256.512917,20.5179726 259.489263,23.0514064 261.443776,26.6634599 C263.338527,30.3519278 263.921452,34.3274399 263.973376,38.3636918 C263.998849,44.4357036 264.057631,50.4538334 263.921452,56.5660118 C263.921452,59.4805383 263.830339,62.5155646 263.338527,65.4055992 C262.367639,71.4482209 259.391293,76.2985807 253.347488,78.9133274 C248.975062,80.8080145 244.223489,81.6524924 239.490531,81.737724 C232.253444,81.9199431 225.095715,81.803362 217.876263,81.803362 L217.876263,81.803362 Z M147.794975,99.9792309 L287.885054,99.9792309 L287.885054,0.000685770938 L147.794975,0.000685770938 L147.794975,99.9792309 Z" id="Fill-29" fill="#224099"></path>
                    <path d="M217.993044,65.3727802 L233.038385,65.3727802 C235.210392,65.3727802 237.268754,64.9289884 239.11354,63.7817916 C240.864274,62.7511759 241.799893,61.1660653 242.155526,59.3908983 C243.24006,54.3289291 243.526134,49.242468 242.791355,44.1609054 C242.487646,41.9115767 242.018367,39.6504919 241.320817,37.5765247 C240.590936,35.4643502 238.689327,34.4778197 236.564346,33.6617523 C234.158188,32.7379209 231.667776,32.8251118 229.199898,32.8251118 C220.433491,32.8251118 211.676881,32.5743155 202.870307,32.9083839 C196.822583,33.1826923 193.715937,35.9894548 193.224124,41.4560289 C192.760724,46.7256887 192.990954,52.0796004 193.199632,57.3717927 C193.312298,60.0433603 194.349806,62.6982735 197.149805,64.0257301 C198.803548,64.7712611 200.784513,65.2219106 202.698858,65.2542398 C207.773734,65.4629101 212.932864,65.3727802 217.993044,65.3727802" id="Fill-30" fill="#034EA1"></path>
                    <path d="M428.264244,17.1774844 C427.269842,20.1909578 426.339122,22.9634318 425.408402,25.7878283 C424.293496,29.1157767 423.08454,32.372209 421.982371,35.7422834 C420.790069,39.054557 419.770195,42.3051112 418.633737,45.637958 C417.318972,49.4253729 415.878804,53.2558935 414.578735,57.0344913 C413.538287,60.2331229 412.649694,63.3533807 411.589653,66.4834352 C410.13185,70.9164545 408.622124,75.3298803 407.122194,79.7246924 C406.782237,80.5946418 406.400151,81.162852 405.155925,81.162852 C398.079511,81.0815391 391.047183,81.1099497 384.003099,81.1354211 C383.061602,81.162852 382.564891,80.9012794 382.278817,79.9333627 C381.465661,77.2333845 380.457544,74.6176582 379.500372,71.9637247 C378.714648,69.9436394 377.868182,67.9294322 377.150058,65.855465 C375.733403,62.0964605 374.364754,58.3119846 372.987288,54.4550129 C371.892957,51.4454582 370.797646,48.4643139 369.734665,45.4890477 C368.897017,43.3239709 368.108354,41.1814266 367.134526,38.7812283 C366.767137,39.596316 366.428158,40.1655059 366.232217,40.7405738 C364.975255,44.0508881 363.790791,47.3582634 362.510315,50.6685777 C361.621722,53.1589059 360.632219,55.69136 359.724032,58.1807085 C358.378896,61.9465706 357.057273,65.7388839 355.672949,69.498868 C354.552166,72.6250038 353.475469,75.821676 352.211649,78.7891049 C351.821726,79.6913835 351.998073,81.162852 350.250278,81.1354211 C343.183661,81.1099497 336.172887,81.1354211 329.096472,81.1099497 C328.627193,81.1099497 328.091294,81.052149 327.542659,81.052149 C320.336923,59.7805141 313.169397,38.5892124 305.912716,17.2441021 C306.652394,17.1774844 307.105018,17.1520129 307.593891,17.1520129 C313.169397,17.1520129 318.793887,17.1774844 324.384088,17.118704 C325.725305,17.058944 326.162254,17.5693535 326.47478,18.6881398 C327.477998,22.1081774 328.478278,25.567402 329.53636,28.9786226 C330.63657,32.525038 331.813196,36.1400305 332.878136,39.7148564 C334.26344,44.3780988 335.636008,49.0707314 337.016413,53.7672827 C337.86092,56.4349316 338.670156,59.1466658 339.484292,61.8211725 C339.665537,62.4511021 339.983942,63.032048 340.383662,63.8961194 C340.72362,63.2730475 340.961688,62.9389791 341.043983,62.6147074 C341.952171,60.1958954 342.824109,57.7104656 343.660777,55.2044626 C344.641463,52.4731349 345.654478,49.7261325 346.667494,47.0281137 C348.087088,43.0888495 349.525296,39.1407682 350.902762,35.2299145 C351.969661,32.1635387 353.058115,29.0648338 354.147547,25.9906206 C355.101781,23.3572602 356.155944,20.7297778 357.057273,18.0758443 C357.360982,17.1774844 358.00171,17.058944 358.809967,17.058944 C363.950483,17.118704 369.148801,17.1520129 374.293236,17.058944 C375.869582,17.058944 376.882598,17.058944 377.451807,19.0457203 C378.471681,22.8595864 380.067621,26.5088675 381.399041,30.2649329 C383.439768,35.8069418 385.472658,41.3969546 387.502608,46.9340651 C388.501908,49.7261325 389.542355,52.4408057 390.542635,55.1544993 C391.562508,58.0122048 392.536336,60.9022394 393.484691,63.7814977 L393.981402,63.7814977 C398.672233,48.1949039 403.427724,32.6788466 408.06859,17.1774844 L428.264244,17.1774844 Z M297.37948,100 L436,100 L436,0.000881705492 L297.37948,0.000881705492 C297.361845,0.551457802 297.307961,1.08733881 297.307961,1.66240672 L297.307961,94.5608568 C297.307961,96.3889262 297.361845,98.1680119 297.37948,100 L297.37948,100 Z" id="Fill-31" fill="#224099"></path>
                </g>
                <g id="Group-51">
                    <polygon id="Fill-24" fill="#B52025" points="0 100 496 100 496 0 0 0"></polygon>
                    <path d="M152.533887,11.3006615 L152.533887,13.3555707 C152.478161,37.3819431 152.478161,61.3503051 152.478161,85.3387476 C152.478161,87.7383728 152.478161,87.7383728 155.110672,87.7383728 C158.307135,87.7383728 161.617279,87.6703221 164.823772,87.805308 C166.35736,87.805308 166.676115,87.3345307 166.676115,85.9947121 C166.580266,68.5502962 166.580266,51.1560816 166.549059,33.7495956 C166.549059,32.7210254 166.549059,31.7236917 166.921311,30.5634824 C168.229765,32.3718471 169.557166,34.0920805 170.906858,35.8357411 C175.513196,42.311717 180.122878,48.6114303 184.743706,55.0505918 C189.520567,61.5209897 194.200464,68.0371267 198.945004,74.5209117 C201.947538,78.5872221 205.009143,82.6055623 208.026166,86.6729883 C208.308141,87.0511719 209.07605,87.3947724 209.559755,87.3947724 C213.875202,87.4628231 218.120434,87.4628231 222.492721,87.3947724 C222.973082,87.3947724 223.66186,87.0511719 223.96724,86.6428675 C228.912395,79.9582771 233.726035,73.2100983 238.665617,66.5411261 C243.269726,60.1666685 247.991975,53.8903825 252.620604,47.515925 C256.213838,42.5493368 259.769178,37.5180446 263.359068,32.6183915 C263.872865,31.8664867 264.503687,31.2183313 265.330666,30.2511184 L265.330666,87.7751871 L275.323511,87.7751871 C279.354754,87.7751871 279.354754,87.7751871 279.354754,83.9107978 C279.354754,60.4957664 279.314631,37.0327648 279.314631,13.6378139 L279.314631,11.3006615 L270.830854,11.3006615 C268.401186,11.3006615 265.965946,11.2437667 263.53182,11.4055266 C262.78843,11.4055266 261.842197,11.8160622 261.449884,12.3348096 C256.900386,18.5977086 252.412188,24.9041154 247.889439,31.1067727 C243.903892,36.6601591 239.690981,42.0740972 235.682029,47.6207901 C232.050902,52.499247 228.496676,57.4859157 224.963627,62.4223831 C221.99007,66.422874 219.05775,70.3687011 215.992802,74.5499169 C214.253026,72.2506945 212.629161,70.1009605 211.016441,67.9322616 C206.528242,61.7374134 201.978745,55.5358717 197.476057,49.3332143 C193.377943,43.7117772 189.274256,38.0981492 185.198432,32.4465913 C180.304546,25.76981 175.477532,19.0528676 170.582531,12.3348096 C170.240371,11.8975 169.581686,11.4055266 169.115814,11.4055266 C163.684726,11.3006615 158.242492,11.3006615 152.533887,11.3006615" id="Fill-32" fill="#FFFFFF"></path>
                    <path d="M411.512866,63.4134696 C407.866135,63.4134696 404.304108,63.3454188 400.762142,63.4134696 C400.406608,63.4134696 399.856032,64.231194 399.819253,64.6484231 C399.684395,68.9300416 399.513872,73.3533395 401.262564,77.4620422 C402.652379,80.8500764 405.1935,83.3512199 408.617325,84.996709 C413.206946,87.1196689 418.033961,88.0813039 423.146294,88.0813039 C435.554319,88.2118274 447.975718,88.3869744 460.435011,88.3869744 C465.862755,88.3869744 471.367402,88.355738 476.702641,86.984683 C484.038455,85.139504 489.988912,80.9906402 490.83038,72.6304399 C491.237182,67.8334207 491.209319,62.8333649 490.626421,58.0363458 C489.988912,53.679983 487.06328,50.4704426 482.854828,48.3742567 C478.452447,46.1085019 473.646609,45.0520421 468.727088,45.0230368 C455.525521,44.7106728 442.253738,44.8054976 428.978612,44.5411038 C425.219314,44.4552037 421.388686,43.9197224 417.658365,43.1968228 C414.607906,42.5486674 412.478046,40.4279387 411.905179,37.5184908 C411.18408,34.0166669 411.015787,30.4523701 412.182696,26.9974007 C413.536846,23.1642477 416.697643,21.7931927 420.392299,21.277792 C430.622539,19.7382836 440.894016,20.5180781 451.204501,20.4901884 C457.095889,20.4533741 463.003994,20.8672564 468.88758,21.315722 C472.195495,21.5756535 475.529044,22.5361729 476.771741,26.0000669 C477.239843,27.4726403 477.264362,29.0801995 477.437114,30.5628131 C477.536307,31.3805375 477.437114,32.2763529 477.437114,33.2368723 L489.416046,33.2368723 C489.416046,26.624795 489.147445,20.2804583 483.077733,15.7980343 C480.563361,14.0041723 477.680081,12.9566372 474.603987,12.2973259 C466.116867,10.3506286 457.488202,10.3506286 448.84059,10.3506286 C440.791479,10.4075235 432.710047,10.4075235 424.643103,10.7578175 C419.725812,10.9374268 414.746107,11.5164158 410.260138,13.4675755 C405.76971,15.3216792 402.429474,18.2924843 401.001765,22.9913319 C399.022366,29.5654793 399.191774,36.1786722 401.296,42.6234117 C402.770519,47.1091824 406.490809,49.7776637 411.12501,51.2915137 C418.311478,53.6465155 425.801097,53.7201441 433.25505,53.8897132 C445.278563,54.1585694 457.319909,54.0603978 469.30107,54.439697 C473.646609,54.5010542 477.536307,56.0483718 478.945068,60.5664945 C479.276083,61.7378596 479.366359,62.9716976 479.366359,64.1352536 C479.366359,67.1428731 479.773161,70.1649951 478.340995,72.9729247 C477.313401,74.9910195 475.631581,76.1902743 473.616517,77.0515066 C470.514789,78.316581 467.246997,78.316581 464.100688,78.316581 C451.204501,78.4593759 438.391904,78.4593759 425.526923,78.316581 C422.038455,78.316581 418.479771,78.2083691 415.240957,76.5015228 C412.763364,75.1248898 411.812673,72.9729247 411.608715,70.50748 C411.38581,68.2138355 411.512866,65.9447339 411.512866,63.4134696" id="Fill-33" fill="#FFFFFF"></path>
                    <path d="M313.645059,43.8525642 L313.645059,21.3154988 L379.22269,21.3154988 L379.22269,11.1313156 L299.98765,11.1313156 L299.98765,87.7754103 L301.884575,87.7754103 C327.188786,87.7374803 352.555412,87.6694296 377.920923,87.6694296 C379.541444,87.6694296 379.971651,87.2522005 379.915925,85.7115764 C379.771037,83.4870982 379.771037,81.268198 379.915925,79.032564 C380.002858,77.4618191 379.392098,77.0825199 377.808355,77.0825199 C357.263172,77.1795759 336.710187,77.1572641 316.082529,77.1572641 L313.710816,77.1572641 L313.710816,54.3647296 L378.152744,54.3647296 C378.152744,51.0068162 378.189523,47.9255681 378.091445,44.8420888 C378.091445,44.4560961 377.502975,44.0243644 377.093944,43.9206149 C376.619155,43.7120004 376.085297,43.8525642 375.593791,43.8525642 L316.082529,43.8525642 L313.645059,43.8525642 Z" id="Fill-34" fill="#FFFFFF"></path>
                    <polygon id="Fill-35" fill="#FFFFFF" points="9.2422118 11.1753813 9.2422118 21.210076 48.5014111 21.210076 48.5014111 87.6331731 62.3248845 87.6331731 62.3248845 21.314941 100.624476 21.314941 100.624476 11.1753813"></polygon>
                    <polygon id="Fill-36" fill="#FFFFFF" points="116.421219 87.6694296 129.94377 87.6694296 129.94377 11.4057497 116.421219 11.4057497"></polygon>
                </g>
            </g>
            <g id="Group-17" transform="translate(951, 0.48)">
                <path d="M12.841405,56.1622657 C12.841405,57.4238214 13.250063,58.5500281 14.0648087,59.5408856 C14.8821247,60.4423617 15.8305196,60.8918229 16.9202742,60.8918229 C18.189941,60.8918229 19.3233886,60.4423617 20.3180467,59.5408856 C21.2253188,58.5500281 21.6802399,57.4238214 21.6802399,56.1622657 C21.6802399,54.9007099 21.2253188,53.7745033 20.3180467,52.7836457 C19.3233886,51.8821697 18.189941,51.4327085 16.9202742,51.4327085 C15.8305196,51.4327085 14.8821247,51.8821697 14.0648087,52.7836457 C13.250063,53.7745033 12.841405,54.9007099 12.841405,56.1622657 M4,56.1622657 C4,52.6482966 5.26966689,49.6297564 7.80643048,47.1091986 C10.3483344,44.5860871 13.3837121,43.3245314 16.9202742,43.3245314 C19.6395202,43.3245314 22.2251172,44.2719751 24.6719246,46.1617549 C27.0287759,47.9647071 28.7533639,50.3958833 29.8405483,53.4603912 C30.6552941,55.7128045 31.7450486,57.5132029 33.1021015,58.8666939 C34.4617245,60.2150774 35.8701809,60.8918229 37.3197601,60.8918229 C39.7691377,60.8918229 41.8509802,59.2242198 43.5781384,55.8941213 C45.3001562,52.6482966 46.1611651,48.6848664 46.1611651,44.0012769 C46.1611651,39.3151336 44.346621,35.3517034 40.7201028,32.1084325 C37.186111,28.7757802 32.875926,27.1107309 27.7998287,27.1107309 L25.0805826,27.1107309 C22.3587663,27.1107309 20.9991433,25.7572399 20.9991433,23.0553654 C20.9991433,20.3509372 22.3587663,19 25.0805826,19 L27.7998287,19 C35.3253036,19 41.717331,21.43373 46.9759109,26.2960825 C52.3244469,31.1635426 55,37.0627203 55,44.0012769 C55,50.9372797 53.2779822,56.8390112 49.8313763,61.7039175 C46.3847704,66.5688237 42.2159452,69 37.3197601,69 C35.1428211,69 33.1483647,68.5045712 31.3363907,67.5137137 C29.5244167,66.6122376 28.1185305,65.3047142 27.118732,63.5936973 C26.3939424,65.2153328 25.0805826,66.5228561 23.1760822,67.5137137 C21.3615381,68.5045712 19.2771254,69 16.9202742,69 C13.3837121,69 10.3483344,67.7384443 7.80643048,65.2153328 C5.26966689,62.694775 4,59.6762347 4,56.1622657" id="Fill-1" fill="#B42126"></path>
                <path d="M70.5710849,31.5012756 C70.5710849,32.7615988 71.0251007,33.8841538 71.9382916,34.8765945 C72.9366105,35.7746386 74.0768094,36.2262118 75.3485696,36.2262118 C76.6229095,36.2262118 77.7605287,35.7746386 78.7614272,34.8765945 C79.6694589,33.8841538 80.1260543,32.7615988 80.1260543,31.5012756 C80.1260543,30.2384012 79.6694589,29.1158462 78.7614272,28.1234055 C77.7605287,27.2253614 76.6229095,26.7763394 75.3485696,26.7763394 C74.0768094,26.7763394 72.9366105,27.2253614 71.9382916,28.1234055 C71.0251007,29.1158462 70.5710849,30.2384012 70.5710849,31.5012756 M61.6997188,31.5012756 C61.6997188,30.4195408 61.8338599,29.475574 62.1073012,28.6642729 C62.2904553,27.855523 62.6077505,27.2253614 63.064346,26.7763394 L0,26.7763394 L0,18 L75.3485696,18 C79.0787224,18 82.3110055,19.3036946 85.0402597,21.9161863 C87.6792267,24.615421 89,27.8096003 89,31.5012756 C89,35.1903997 87.6792267,38.384579 85.0402597,41.0838137 C82.3110055,43.6963054 79.0787224,45 75.3485696,45 C71.6184169,45 68.3861337,43.6963054 65.6568795,41.0838137 C63.0179125,38.384579 61.6997188,35.1903997 61.6997188,31.5012756" id="Fill-3" fill="#B42126"></path>
                <path d="M94,45.6661189 C94,39.4420707 96.3326134,34.1075322 100.992657,29.6650233 C105.748596,25.2199945 111.416847,23 117.997408,23 C124.583153,23 130.253996,25.2199945 135.007343,29.6650233 C139.667387,34.1075322 142,39.4420707 142,45.6661189 C142,52.0665571 139.667387,57.5774856 135.007343,62.1989044 C130.253996,66.7321282 124.583153,69 117.997408,69 C111.416847,69 105.748596,66.7321282 100.992657,62.1989044 C96.3326134,57.5774856 94,52.0665571 94,45.6661189 M102.913175,45.6661189 C102.913175,49.9322377 104.374946,53.5331142 107.303672,56.4662284 C110.227214,59.4875377 113.793521,60.9994522 117.997408,60.9994522 C122.206479,60.9994522 125.772786,59.4875377 128.696328,56.4662284 C131.625054,53.5331142 133.086825,49.9322377 133.086825,45.6661189 C133.086825,41.57639 131.625054,38.109066 128.696328,35.2641468 C125.772786,32.4217475 122.206479,30.9980279 117.997408,30.9980279 C113.793521,30.9980279 110.227214,32.4217475 107.303672,35.2641468 C104.374946,38.109066 102.913175,41.57639 102.913175,45.6661189" id="Fill-5" fill="#B42126"></path>
                <g id="Group-9" transform="translate(103, 0)">
                    <mask id="mask-2" fill="white">
                        <use xlink:href="#path-1"></use>
                    </mask>
                    <g id="Clip-8"></g>
                    <path d="M0,12.1508164 L8.12961044,12.1508164 C8.12961044,14.0414084 8.80558434,15.6156259 10.1626532,16.8760206 C11.4249832,18.2257144 13.0073767,18.8992856 14.902152,18.8992856 C15.7138328,18.8992856 16.663781,18.631388 17.7468756,18.0904899 C18.8325306,17.4602926 19.9156252,16.6055715 20.9987197,15.5263267 L37.2605011,-0.00153084366 L42,5.39979589 L26.421874,20.9251021 C24.5194172,22.9049932 22.5811132,24.392463 20.5967201,25.3798571 C18.607206,26.4591019 16.7124307,27 14.902152,27 C10.7490093,27 7.22575139,25.561007 4.33237822,22.6804695 C1.44412607,19.799932 0,16.2891972 0,12.1508164" id="Fill-7" fill="#B42126" mask="url(#mask-2)"></path>
                </g>
                <path d="M124.229091,86.6673774 C124.229091,87.9121923 124.683828,89.0234542 125.598469,90.001163 C126.598373,90.8906765 127.737799,91.3341733 129.014163,91.3341733 C130.29311,91.3341733 131.429952,90.8906765 132.43244,90.001163 C133.344498,89.0234542 133.801818,87.9121923 133.801818,86.6673774 C133.801818,85.4225625 133.344498,84.3138205 132.43244,83.3335918 C131.429952,82.4440783 130.29311,82.0005815 129.014163,82.0005815 C127.737799,82.0005815 126.598373,82.4440783 125.598469,83.3335918 C124.683828,84.3138205 124.229091,85.4225625 124.229091,86.6673774 M129.014163,74 C132.569378,74 135.620766,75.2448149 138.173493,77.7344447 C140.723636,80.2240744 142,83.2000388 142,86.6673774 C142,90.3111068 140.723636,93.4659818 138.173493,96.1345222 C135.620766,98.7123474 132.569378,100 129.014163,100 L88,100 L88,91.3341733 L117.392536,91.3341733 C116.937799,90.8024811 116.617416,90.134716 116.436555,89.3359178 C116.162679,88.5345997 116.025742,87.6450863 116.025742,86.6673774 C116.025742,83.2000388 117.302105,80.2240744 119.852249,77.7344447 C122.40756,75.2448149 125.461531,74 129.014163,74" id="Fill-10" fill="#B42126"></path>
                <path d="M177.431991,60.8333333 C183.137044,60.8333333 187.661565,59.2 191.013252,55.9333333 C194.449629,52.7566929 196.174234,48.492021 196.174234,43.1393176 C196.174234,39.7826247 195.447949,36.7423097 194.000513,34.0209449 C192.550511,31.2970079 190.56157,29.3472966 188.02599,28.1666667 L192.101395,20.6816273 C195.994587,22.4049869 199.112734,25.3089764 201.468667,29.3935958 C203.822034,33.475643 205,38.0566929 205,43.1393176 C205,50.9433071 202.510615,57.2039895 197.52928,61.9213648 C192.460688,66.6413123 185.759881,69 177.431991,69 C169.104102,69 162.452055,66.6413123 157.47072,61.9213648 C152.489385,57.2039895 150,50.9433071 150,43.1393176 C150,36.7886089 151.85549,31.3407349 155.569036,26.8059843 C159.282581,22.2686614 163.760907,20 169.011712,20 C172.725258,20 175.940927,21.2732283 178.653586,23.8119685 C181.281555,26.3507087 182.592973,29.3935958 182.592973,32.9303412 C182.592973,36.4696588 181.281555,39.5099738 178.653586,42.0512861 C175.940927,44.5900262 172.725258,45.8606824 169.011712,45.8606824 C166.840558,45.8606824 164.892679,45.3616798 163.173207,44.3636745 C161.451169,43.3656693 160.23214,42.0512861 159.508422,40.4179528 C159.054174,41.6860367 158.828333,42.5940157 158.828333,43.1393176 C158.828333,48.492021 160.50161,52.7566929 163.853297,55.9333333 C167.289674,59.2 171.816761,60.8333333 177.431991,60.8333333 M164.258784,32.9303412 C164.258784,34.2009974 164.713033,35.3379003 165.618963,36.3333333 C166.612151,37.2413123 167.743922,37.6940157 169.011712,37.6940157 C170.282068,37.6940157 171.41384,37.2413123 172.407027,36.3333333 C173.312958,35.3379003 173.767206,34.2009974 173.767206,32.9303412 C173.767206,31.6622572 173.312958,30.5253543 172.407027,29.5299213 C171.41384,28.6219423 170.282068,28.1666667 169.011712,28.1666667 C167.743922,28.1666667 166.612151,28.6219423 165.618963,29.5299213 C164.713033,30.5253543 164.258784,31.6622572 164.258784,32.9303412" id="Fill-12" fill="#B42126"></path>
                <g id="Group-16" transform="translate(197, 20)">
                    <mask id="mask-4" fill="white">
                        <use xlink:href="#path-3"></use>
                    </mask>
                    <g id="Clip-15"></g>
                    <path d="M16.5253922,8.16666667 L16.5253922,0 C23.5935757,0 29.6077775,2.45128609 34.5627928,7.35128609 C39.5204104,12.2512861 42.0005205,18.1930184 42.0005205,25.1816273 C42.0005205,31.7149606 39.7520262,37.3377428 35.2498327,42.0576903 C30.7528441,46.6850394 25.2929586,49 18.8623689,49 C14.2716931,49 10.2353335,47.7730709 6.74548294,45.324357 C3.16714997,42.9656693 0.916053238,39.8790551 0,36.0696588 L0,27.223937 C0,26.6786352 0.182169678,26.1770604 0.549111458,25.724357 C1.00713808,25.3616798 1.51200833,25.1816273 2.06632463,25.1816273 C2.61543609,25.1816273 3.11770392,25.3616798 3.57833296,25.724357 C3.94527474,26.1770604 4.13004684,26.6786352 4.13004684,27.223937 C4.8639304,31.1233596 6.65179567,34.3900262 9.4988475,37.0213648 C12.3458993,39.5626772 15.6067366,40.8333333 19.2787568,40.8333333 C23.0392594,40.8333333 26.3000967,39.2900262 29.0534612,36.2059843 C31.7157409,33.2119685 33.0455796,29.5363255 33.0455796,25.1816273 C33.0455796,20.464252 31.439884,16.4696588 28.2284928,13.2029921 C25.0144992,9.84629921 21.1108633,8.16666667 16.5253922,8.16666667" id="Fill-14" fill="#B42126" mask="url(#mask-4)"></path>
                </g>
            </g>
        </g>
    </g>
</svg>