<?xml version="1.0" encoding="UTF-8"?>
<svg width="1236px" height="101px" viewBox="0 0 1236 101" version="1.1" xmlns="http://www.w3.org/2000/svg" xmlns:xlink="http://www.w3.org/1999/xlink">
    <title>Tamil-logo</title>
    <defs>
        <polygon id="path-1" points="0 0 65.5405405 0 65.5405405 75 0 75"></polygon>
    </defs>
    <g id="Tamil-logo" stroke="none" stroke-width="1" fill="none" fill-rule="evenodd">
        <g transform="translate(0, 0.52)">
            <g id="logo-01-copy">
                <g id="Group-52" transform="translate(495, 0)">
                    <polygon id="Fill-1" fill="#FFFFFF" points="8.38814233 88.7428357 129.626724 88.7428357 129.626724 10.2237395 8.38814233 10.2237395"></polygon>
                    <polygon id="Fill-2" fill="#FFFFFF" points="157.548337 88.7428357 278.786919 88.7428357 278.786919 10.2237395 157.548337 10.2237395"></polygon>
                    <polygon id="Fill-3" fill="#FFFFFF" points="300.830297 88.7428357 431.621009 88.7428357 431.621009 10.2237395 300.830297 10.2237395"></polygon>
                    <path d="M44.079899,34.6872738 C43.9505779,34.7587899 43.7957844,34.7587899 43.6919356,34.7587899 L43.6919356,80.9337065 L23.2542948,80.9337065 L23.2542948,17.2716309 C23.5021603,17.2442001 23.686345,17.1775823 23.8421182,17.1775823 C34.0046055,17.1775823 44.1837479,17.1521109 54.3707278,17.1775823 C54.7851433,17.1775823 55.4229318,17.4528704 55.7511332,17.8692313 C57.4068358,19.7404063 58.9959185,21.6889754 60.5947982,23.6767315 C65.8852091,29.9926818 71.2412602,36.4056198 76.5248131,42.8077813 C81.2665887,48.5545418 86.0181614,54.4012289 90.800105,60.1685625 C91.6691039,61.2187717 92.6674241,62.1621966 93.5961851,63.1810563 C93.7000339,63.091906 93.8636447,63.032146 94.0478294,62.9390771 L94.0478294,17.2716309 L114.480572,17.2716309 L114.480572,80.9934666 C114.093588,81.0522469 113.907444,81.1100476 113.639005,81.1100476 C103.561752,81.1100476 93.5119304,81.1355191 83.4111645,81.0816371 C82.9693172,81.0816371 82.4089256,80.8631701 82.1600803,80.5398781 C79.6794655,77.6498434 77.217465,74.7039674 74.7966122,71.7218435 C72.3884956,68.8053576 70.0117295,65.8555629 67.5722623,62.8822561 C63.4202695,57.9123761 59.2369261,52.9503335 55.0584812,47.9618398 C51.3934022,43.5356782 47.742039,39.1134353 44.079899,34.6872738 L44.079899,34.6872738 Z M0,99.9785452 L139.308274,99.9785452 L139.308274,0 L0,0 L0,99.9785452 Z" id="Fill-28" fill="#224099"></path>
                    <path d="M217.876263,81.803362 C211.958841,81.803362 206.028682,81.737724 200.104402,81.803362 C194.199715,81.9199431 188.438066,81.2351518 182.974247,79.1543269 C179.241568,77.7367404 176.396503,75.2473919 174.556616,71.8978907 C172.361095,67.9880166 171.818338,63.5736111 171.698814,59.2062299 C171.608681,52.4406098 171.490137,45.6377621 171.792866,38.8721419 C171.94472,35.2620478 172.543321,31.560844 173.702312,28.1946884 C175.487336,22.9318863 179.926383,19.7988928 185.366689,18.175575 C189.753811,16.8177485 194.237924,16.4004079 198.835683,16.4004079 C210.867449,16.4004079 222.878641,16.4248998 234.89767,16.4004079 C240.95813,16.3670991 246.879471,16.7579885 252.533353,18.9887034 C256.512917,20.5179726 259.489263,23.0514064 261.443776,26.6634599 C263.338527,30.3519278 263.921452,34.3274399 263.973376,38.3636918 C263.998849,44.4357036 264.057631,50.4538334 263.921452,56.5660118 C263.921452,59.4805383 263.830339,62.5155646 263.338527,65.4055992 C262.367639,71.4482209 259.391293,76.2985807 253.347488,78.9133274 C248.975062,80.8080145 244.223489,81.6524924 239.490531,81.737724 C232.253444,81.9199431 225.095715,81.803362 217.876263,81.803362 L217.876263,81.803362 Z M147.794975,99.9792309 L287.885054,99.9792309 L287.885054,0.000685770938 L147.794975,0.000685770938 L147.794975,99.9792309 Z" id="Fill-29" fill="#224099"></path>
                    <path d="M217.993044,65.3727802 L233.038385,65.3727802 C235.210392,65.3727802 237.268754,64.9289884 239.11354,63.7817916 C240.864274,62.7511759 241.799893,61.1660653 242.155526,59.3908983 C243.24006,54.3289291 243.526134,49.242468 242.791355,44.1609054 C242.487646,41.9115767 242.018367,39.6504919 241.320817,37.5765247 C240.590936,35.4643502 238.689327,34.4778197 236.564346,33.6617523 C234.158188,32.7379209 231.667776,32.8251118 229.199898,32.8251118 C220.433491,32.8251118 211.676881,32.5743155 202.870307,32.9083839 C196.822583,33.1826923 193.715937,35.9894548 193.224124,41.4560289 C192.760724,46.7256887 192.990954,52.0796004 193.199632,57.3717927 C193.312298,60.0433603 194.349806,62.6982735 197.149805,64.0257301 C198.803548,64.7712611 200.784513,65.2219106 202.698858,65.2542398 C207.773734,65.4629101 212.932864,65.3727802 217.993044,65.3727802" id="Fill-30" fill="#034EA1"></path>
                    <path d="M428.264244,17.1774844 C427.269842,20.1909578 426.339122,22.9634318 425.408402,25.7878283 C424.293496,29.1157767 423.08454,32.372209 421.982371,35.7422834 C420.790069,39.054557 419.770195,42.3051112 418.633737,45.637958 C417.318972,49.4253729 415.878804,53.2558935 414.578735,57.0344913 C413.538287,60.2331229 412.649694,63.3533807 411.589653,66.4834352 C410.13185,70.9164545 408.622124,75.3298803 407.122194,79.7246924 C406.782237,80.5946418 406.400151,81.162852 405.155925,81.162852 C398.079511,81.0815391 391.047183,81.1099497 384.003099,81.1354211 C383.061602,81.162852 382.564891,80.9012794 382.278817,79.9333627 C381.465661,77.2333845 380.457544,74.6176582 379.500372,71.9637247 C378.714648,69.9436394 377.868182,67.9294322 377.150058,65.855465 C375.733403,62.0964605 374.364754,58.3119846 372.987288,54.4550129 C371.892957,51.4454582 370.797646,48.4643139 369.734665,45.4890477 C368.897017,43.3239709 368.108354,41.1814266 367.134526,38.7812283 C366.767137,39.596316 366.428158,40.1655059 366.232217,40.7405738 C364.975255,44.0508881 363.790791,47.3582634 362.510315,50.6685777 C361.621722,53.1589059 360.632219,55.69136 359.724032,58.1807085 C358.378896,61.9465706 357.057273,65.7388839 355.672949,69.498868 C354.552166,72.6250038 353.475469,75.821676 352.211649,78.7891049 C351.821726,79.6913835 351.998073,81.162852 350.250278,81.1354211 C343.183661,81.1099497 336.172887,81.1354211 329.096472,81.1099497 C328.627193,81.1099497 328.091294,81.052149 327.542659,81.052149 C320.336923,59.7805141 313.169397,38.5892124 305.912716,17.2441021 C306.652394,17.1774844 307.105018,17.1520129 307.593891,17.1520129 C313.169397,17.1520129 318.793887,17.1774844 324.384088,17.118704 C325.725305,17.058944 326.162254,17.5693535 326.47478,18.6881398 C327.477998,22.1081774 328.478278,25.567402 329.53636,28.9786226 C330.63657,32.525038 331.813196,36.1400305 332.878136,39.7148564 C334.26344,44.3780988 335.636008,49.0707314 337.016413,53.7672827 C337.86092,56.4349316 338.670156,59.1466658 339.484292,61.8211725 C339.665537,62.4511021 339.983942,63.032048 340.383662,63.8961194 C340.72362,63.2730475 340.961688,62.9389791 341.043983,62.6147074 C341.952171,60.1958954 342.824109,57.7104656 343.660777,55.2044626 C344.641463,52.4731349 345.654478,49.7261325 346.667494,47.0281137 C348.087088,43.0888495 349.525296,39.1407682 350.902762,35.2299145 C351.969661,32.1635387 353.058115,29.0648338 354.147547,25.9906206 C355.101781,23.3572602 356.155944,20.7297778 357.057273,18.0758443 C357.360982,17.1774844 358.00171,17.058944 358.809967,17.058944 C363.950483,17.118704 369.148801,17.1520129 374.293236,17.058944 C375.869582,17.058944 376.882598,17.058944 377.451807,19.0457203 C378.471681,22.8595864 380.067621,26.5088675 381.399041,30.2649329 C383.439768,35.8069418 385.472658,41.3969546 387.502608,46.9340651 C388.501908,49.7261325 389.542355,52.4408057 390.542635,55.1544993 C391.562508,58.0122048 392.536336,60.9022394 393.484691,63.7814977 L393.981402,63.7814977 C398.672233,48.1949039 403.427724,32.6788466 408.06859,17.1774844 L428.264244,17.1774844 Z M297.37948,100 L436,100 L436,0.000881705492 L297.37948,0.000881705492 C297.361845,0.551457802 297.307961,1.08733881 297.307961,1.66240672 L297.307961,94.5608568 C297.307961,96.3889262 297.361845,98.1680119 297.37948,100 L297.37948,100 Z" id="Fill-31" fill="#224099"></path>
                </g>
                <g id="Group-51">
                    <polygon id="Fill-24" fill="#B52025" points="0 100 496 100 496 0 0 0"></polygon>
                    <path d="M152.533887,11.3006615 L152.533887,13.3555707 C152.478161,37.3819431 152.478161,61.3503051 152.478161,85.3387476 C152.478161,87.7383728 152.478161,87.7383728 155.110672,87.7383728 C158.307135,87.7383728 161.617279,87.6703221 164.823772,87.805308 C166.35736,87.805308 166.676115,87.3345307 166.676115,85.9947121 C166.580266,68.5502962 166.580266,51.1560816 166.549059,33.7495956 C166.549059,32.7210254 166.549059,31.7236917 166.921311,30.5634824 C168.229765,32.3718471 169.557166,34.0920805 170.906858,35.8357411 C175.513196,42.311717 180.122878,48.6114303 184.743706,55.0505918 C189.520567,61.5209897 194.200464,68.0371267 198.945004,74.5209117 C201.947538,78.5872221 205.009143,82.6055623 208.026166,86.6729883 C208.308141,87.0511719 209.07605,87.3947724 209.559755,87.3947724 C213.875202,87.4628231 218.120434,87.4628231 222.492721,87.3947724 C222.973082,87.3947724 223.66186,87.0511719 223.96724,86.6428675 C228.912395,79.9582771 233.726035,73.2100983 238.665617,66.5411261 C243.269726,60.1666685 247.991975,53.8903825 252.620604,47.515925 C256.213838,42.5493368 259.769178,37.5180446 263.359068,32.6183915 C263.872865,31.8664867 264.503687,31.2183313 265.330666,30.2511184 L265.330666,87.7751871 L275.323511,87.7751871 C279.354754,87.7751871 279.354754,87.7751871 279.354754,83.9107978 C279.354754,60.4957664 279.314631,37.0327648 279.314631,13.6378139 L279.314631,11.3006615 L270.830854,11.3006615 C268.401186,11.3006615 265.965946,11.2437667 263.53182,11.4055266 C262.78843,11.4055266 261.842197,11.8160622 261.449884,12.3348096 C256.900386,18.5977086 252.412188,24.9041154 247.889439,31.1067727 C243.903892,36.6601591 239.690981,42.0740972 235.682029,47.6207901 C232.050902,52.499247 228.496676,57.4859157 224.963627,62.4223831 C221.99007,66.422874 219.05775,70.3687011 215.992802,74.5499169 C214.253026,72.2506945 212.629161,70.1009605 211.016441,67.9322616 C206.528242,61.7374134 201.978745,55.5358717 197.476057,49.3332143 C193.377943,43.7117772 189.274256,38.0981492 185.198432,32.4465913 C180.304546,25.76981 175.477532,19.0528676 170.582531,12.3348096 C170.240371,11.8975 169.581686,11.4055266 169.115814,11.4055266 C163.684726,11.3006615 158.242492,11.3006615 152.533887,11.3006615" id="Fill-32" fill="#FFFFFF"></path>
                    <path d="M411.512866,63.4134696 C407.866135,63.4134696 404.304108,63.3454188 400.762142,63.4134696 C400.406608,63.4134696 399.856032,64.231194 399.819253,64.6484231 C399.684395,68.9300416 399.513872,73.3533395 401.262564,77.4620422 C402.652379,80.8500764 405.1935,83.3512199 408.617325,84.996709 C413.206946,87.1196689 418.033961,88.0813039 423.146294,88.0813039 C435.554319,88.2118274 447.975718,88.3869744 460.435011,88.3869744 C465.862755,88.3869744 471.367402,88.355738 476.702641,86.984683 C484.038455,85.139504 489.988912,80.9906402 490.83038,72.6304399 C491.237182,67.8334207 491.209319,62.8333649 490.626421,58.0363458 C489.988912,53.679983 487.06328,50.4704426 482.854828,48.3742567 C478.452447,46.1085019 473.646609,45.0520421 468.727088,45.0230368 C455.525521,44.7106728 442.253738,44.8054976 428.978612,44.5411038 C425.219314,44.4552037 421.388686,43.9197224 417.658365,43.1968228 C414.607906,42.5486674 412.478046,40.4279387 411.905179,37.5184908 C411.18408,34.0166669 411.015787,30.4523701 412.182696,26.9974007 C413.536846,23.1642477 416.697643,21.7931927 420.392299,21.277792 C430.622539,19.7382836 440.894016,20.5180781 451.204501,20.4901884 C457.095889,20.4533741 463.003994,20.8672564 468.88758,21.315722 C472.195495,21.5756535 475.529044,22.5361729 476.771741,26.0000669 C477.239843,27.4726403 477.264362,29.0801995 477.437114,30.5628131 C477.536307,31.3805375 477.437114,32.2763529 477.437114,33.2368723 L489.416046,33.2368723 C489.416046,26.624795 489.147445,20.2804583 483.077733,15.7980343 C480.563361,14.0041723 477.680081,12.9566372 474.603987,12.2973259 C466.116867,10.3506286 457.488202,10.3506286 448.84059,10.3506286 C440.791479,10.4075235 432.710047,10.4075235 424.643103,10.7578175 C419.725812,10.9374268 414.746107,11.5164158 410.260138,13.4675755 C405.76971,15.3216792 402.429474,18.2924843 401.001765,22.9913319 C399.022366,29.5654793 399.191774,36.1786722 401.296,42.6234117 C402.770519,47.1091824 406.490809,49.7776637 411.12501,51.2915137 C418.311478,53.6465155 425.801097,53.7201441 433.25505,53.8897132 C445.278563,54.1585694 457.319909,54.0603978 469.30107,54.439697 C473.646609,54.5010542 477.536307,56.0483718 478.945068,60.5664945 C479.276083,61.7378596 479.366359,62.9716976 479.366359,64.1352536 C479.366359,67.1428731 479.773161,70.1649951 478.340995,72.9729247 C477.313401,74.9910195 475.631581,76.1902743 473.616517,77.0515066 C470.514789,78.316581 467.246997,78.316581 464.100688,78.316581 C451.204501,78.4593759 438.391904,78.4593759 425.526923,78.316581 C422.038455,78.316581 418.479771,78.2083691 415.240957,76.5015228 C412.763364,75.1248898 411.812673,72.9729247 411.608715,70.50748 C411.38581,68.2138355 411.512866,65.9447339 411.512866,63.4134696" id="Fill-33" fill="#FFFFFF"></path>
                    <path d="M313.645059,43.8525642 L313.645059,21.3154988 L379.22269,21.3154988 L379.22269,11.1313156 L299.98765,11.1313156 L299.98765,87.7754103 L301.884575,87.7754103 C327.188786,87.7374803 352.555412,87.6694296 377.920923,87.6694296 C379.541444,87.6694296 379.971651,87.2522005 379.915925,85.7115764 C379.771037,83.4870982 379.771037,81.268198 379.915925,79.032564 C380.002858,77.4618191 379.392098,77.0825199 377.808355,77.0825199 C357.263172,77.1795759 336.710187,77.1572641 316.082529,77.1572641 L313.710816,77.1572641 L313.710816,54.3647296 L378.152744,54.3647296 C378.152744,51.0068162 378.189523,47.9255681 378.091445,44.8420888 C378.091445,44.4560961 377.502975,44.0243644 377.093944,43.9206149 C376.619155,43.7120004 376.085297,43.8525642 375.593791,43.8525642 L316.082529,43.8525642 L313.645059,43.8525642 Z" id="Fill-34" fill="#FFFFFF"></path>
                    <polygon id="Fill-35" fill="#FFFFFF" points="9.2422118 11.1753813 9.2422118 21.210076 48.5014111 21.210076 48.5014111 87.6331731 62.3248845 87.6331731 62.3248845 21.314941 100.624476 21.314941 100.624476 11.1753813"></polygon>
                    <polygon id="Fill-36" fill="#FFFFFF" points="116.421219 87.6694296 129.94377 87.6694296 129.94377 11.4057497 116.421219 11.4057497"></polygon>
                </g>
            </g>
            <g id="Group-10" transform="translate(951, 0.48)">
                <g id="Group-3">
                    <mask id="mask-2" fill="white">
                        <use xlink:href="#path-1"></use>
                    </mask>
                    <g id="Clip-2"></g>
                    <path d="M24.1643786,57.5742574 C24.1643786,60.2178218 24.9369625,62.4983498 26.4821304,64.4092409 C28.0239966,66.3234323 29.8663121,67.2805281 31.9991721,67.2805281 C34.2046681,67.2805281 36.08,66.3234323 37.6251679,64.4092409 C39.1703358,62.4983498 39.9429197,60.2178218 39.9429197,57.5742574 C39.9429197,54.8514851 39.1703358,52.4983498 37.6251679,50.5148515 C36.08,48.6006601 34.2046681,47.6435644 31.9991721,47.6435644 C29.8663121,47.6435644 28.0239966,48.6006601 26.4821304,50.5148515 C24.9369625,52.4983498 24.1643786,54.8514851 24.1643786,57.5742574 M-0.000330164076,38.1617162 C-0.000330164076,27.6435644 3.38385161,18.6369637 10.1489135,11.1386139 C16.9172771,3.71287129 25.0855363,0 34.647088,0 C43.1785277,0 50.4619472,2.79207921 56.4940449,8.37953795 C62.5261425,13.9669967 65.5405405,20.7326733 65.5405405,28.6765677 L65.5405405,73.8943894 L56.7152548,73.8943894 L56.7152548,29.7788779 C56.7152548,23.6765677 54.5427752,18.4917492 50.2077209,14.2277228 C45.9386994,9.88778878 40.7518217,7.71947195 34.647088,7.71947195 C27.5122423,7.71947195 21.4438266,10.6963696 16.4418408,16.6534653 C11.3639173,22.6072607 8.82825723,29.7788779 8.82825723,38.1617162 C8.82825723,42.6468647 9.45226733,46.6171617 10.7035892,50.0726073 C11.8822749,53.6006601 13.5694134,56.2838284 15.778211,58.1221122 C15.778211,53.1254125 17.3596969,48.8217822 20.5259704,45.2178218 C23.6856406,41.689769 27.5122423,39.9240924 31.9991721,39.9240924 C36.6313741,39.9240924 40.5702315,41.6534653 43.8025378,45.1089109 C47.1173851,48.5643564 48.7682055,52.7194719 48.7682055,57.5742574 C48.7682055,62.8679868 47.1504015,67.0924092 43.9147936,70.2541254 C40.675884,73.4191419 36.3738461,75 31.0086798,75 C22.4739385,75 15.1542009,71.3960396 9.04946716,64.1914191 C3.01406785,56.9834983 -0.000330164076,48.3069307 -0.000330164076,38.1617162" id="Fill-1" fill="#B52025" mask="url(#mask-2)"></path>
                </g>
                <path d="M91.095563,53.911098 C89.6318037,53.911098 88.3851413,54.4265091 87.3588651,55.4573311 C86.3325889,56.4881532 85.8194508,57.7370339 85.8194508,59.2105808 C85.8194508,61.4209013 86.8819098,63.3338692 89.0068278,64.9527885 C91.2074008,66.4957177 93.8059847,67.2721382 96.8124476,67.2721382 C99.5985243,67.2721382 101.943828,66.3866885 103.84836,64.6190929 C105.825258,62.7788111 106.815351,60.6081377 106.815351,58.1070726 L106.815351,53.911098 L91.095563,53.911098 Z M96.8124476,46.1799323 L106.815351,46.1799323 L106.815351,37.1271998 L96.8124476,37.1271998 L96.8124476,46.1799323 Z M77.027027,59.2105808 C77.027027,55.6753897 78.0861967,52.6952566 80.2111147,50.2668776 C82.4116876,47.7625085 85.0135609,46.5136279 88.0200238,46.5136279 L88.0200238,29.7297297 L127.702703,29.7297297 L127.702703,37.1271998 L115.607775,37.1271998 L115.607775,46.1799323 L127.702703,46.1799323 L127.702703,53.911098 L115.607775,53.911098 L115.607775,58.1070726 C115.607775,62.7424681 113.815081,66.7203841 110.223114,70.0309089 C106.703513,73.3447376 102.417494,75 97.3617685,75 C91.7205389,75 86.9180926,73.4537669 82.9610085,70.3613006 C79.0039244,67.2721382 77.027027,63.5519277 77.027027,59.2105808 L77.027027,59.2105808 Z" id="Fill-4" fill="#B52025"></path>
                <path d="M162.817263,18.4242505 C162.817263,16.6688935 163.439444,15.2028087 164.683807,14.0292835 C165.859038,12.7867274 167.323962,12.1621622 169.088455,12.1621622 C170.846364,12.1621622 172.311288,12.7867274 173.486519,14.0292835 C174.730882,15.2028087 175.356355,16.6688935 175.356355,18.4242505 C175.356355,20.1796076 174.730882,21.6489795 173.486519,22.8192175 C172.311288,24.0650608 170.846364,24.6863389 169.088455,24.6863389 C167.323962,24.6863389 165.859038,24.0650608 164.683807,22.8192175 C163.439444,21.6489795 162.817263,20.1796076 162.817263,18.4242505 M137.837838,62.3673462 L137.837838,29.9622716 L146.64055,29.9622716 L146.64055,62.3673462 C146.64055,63.7578256 146.897324,64.9280637 147.41087,65.8846346 C147.927708,66.8346312 148.54989,67.3112731 149.283998,67.3112731 C151.26576,67.3112731 153.132304,65.8451884 154.890213,62.9163061 C156.654706,60.0597419 157.93528,56.3978173 158.745103,51.9305322 L158.745103,29.9622716 L167.544524,29.9622716 L167.544524,66.5420717 L191.200579,66.5420717 L191.200579,29.9622716 L200,29.9622716 L200,73.90208 L158.745103,73.90208 L158.745103,67.6399917 C157.93528,69.8391188 156.578991,71.6306349 154.676235,73.0244015 C152.766896,74.3425629 150.636995,75 148.293117,75 C145.4324,75 142.973302,73.7541567 140.919116,71.2657573 C138.868223,68.8463888 137.837838,65.8846346 137.837838,62.3673462" id="Fill-6" fill="#B52025"></path>
                <path d="M225.458753,53.855787 C224.139458,53.855787 223.043327,54.2578434 222.167079,55.0652518 C221.218631,55.8759557 220.742766,56.864619 220.742766,58.0411284 C220.742766,60.5358555 221.838896,62.7010282 224.027876,64.5366465 C226.151218,66.2997627 228.747145,67.1829686 231.815654,67.1829686 C234.959645,67.1829686 237.667153,66.2997627 239.934897,64.5366465 C242.13044,62.7010282 243.223289,60.5358555 243.223289,58.0411284 L243.223289,53.855787 L225.458753,53.855787 Z M232.147118,46.144213 L243.223289,46.144213 L243.223289,37.1144213 L232.147118,37.1144213 L232.147118,46.144213 Z M208.783784,92.621276 C208.783784,89.098339 209.958678,86.053256 212.29534,83.4794358 C214.635283,80.9847087 217.48391,79.7356973 220.847784,79.7356973 L253.754675,79.7356973 C256.314501,79.7356973 258.506762,78.341682 260.334741,75.5536515 C262.162719,72.7623253 263.078349,69.3843923 263.078349,65.4198524 C263.078349,62.2627208 261.978937,59.5471922 259.783393,57.269971 C257.666614,54.9894543 255.067406,53.855787 251.998897,53.855787 L251.998897,58.0411284 C251.998897,62.6647772 250.019955,66.6326127 246.078479,69.9347482 C242.13044,73.2401793 237.375071,74.891247 231.815654,74.891247 C226.331719,74.891247 221.655114,73.2401793 217.775993,69.9347482 C213.900154,66.6326127 211.967157,62.6647772 211.967157,58.0411284 C211.967157,54.8839968 213.060006,52.1684682 215.255549,49.891247 C217.52001,47.6140258 220.227519,46.477063 223.37151,46.477063 L223.37151,29.7356973 L242.23874,29.7356973 C241.211528,28.486686 240.410762,27.0564197 239.823315,25.4383074 C239.314631,23.8234906 239.058649,22.0999209 239.058649,20.2643027 C239.058649,14.684946 241.139328,9.91299763 245.307249,5.94845769 C249.478453,1.9806222 254.519341,0 260.439759,0 C267.098588,0 272.763024,1.9806222 277.439629,5.94845769 C282.122798,9.91299763 284.459459,14.684946 284.459459,20.2643027 L284.459459,73.7872397 L275.687133,73.7872397 L275.687133,20.2643027 C275.687133,16.8105721 274.187337,13.8412866 271.187746,11.3432639 C268.266919,8.92103876 264.679881,7.70827841 260.439759,7.70827841 C256.934767,7.70827841 253.971276,8.92103876 251.559132,11.3432639 C249.071506,13.8412866 247.830975,16.8105721 247.830975,20.2643027 C247.830975,21.8791194 248.159158,23.4939362 248.815524,25.108753 C249.478453,26.7235697 250.390801,28.2658845 251.559132,29.7356973 L265.159028,29.7356973 L265.159028,37.1144213 L251.998897,37.1144213 L251.998897,46.477063 C257.482832,46.477063 262.162719,48.3093857 266.035276,51.9806222 C269.911115,55.7276562 271.850676,60.2063011 271.850676,65.4198524 C271.850676,71.513314 270.098179,76.6873187 266.583341,80.9484577 C263.006149,85.2788031 258.723363,87.4472713 253.754675,87.4472713 L220.847784,87.4472713 C219.971536,87.4472713 219.203588,87.9580807 218.547223,88.9895861 C217.890857,90.0177959 217.55611,91.2272607 217.55611,92.621276 L217.55611,100 L208.783784,100 L208.783784,92.621276 Z" id="Fill-8" fill="#B52025"></path>
            </g>
        </g>
    </g>
</svg>