<svg width="187" height="20" viewBox="0 0 187 20" xmlns="http://www.w3.org/2000/svg">
    <g fill="none" fill-rule="evenodd">
        <path fill="#FFF" d="M100.781 17.75h24.243V2.063h-24.243zM130.608 17.75h24.243V2.063h-24.243zM159.258 17.75h26.154V2.063h-26.154z"/>
        <path d="M107.918 6.95c-.026.014-.057.014-.077.014v9.226h-4.087V3.47c.05-.005.086-.018.117-.018 2.033 0 4.068-.006 6.105 0 .083 0 .21.055.276.138.331.374.649.763.969 1.16a683.122 683.122 0 0 1 3.185 3.823c.948 1.148 1.898 2.316 2.854 3.468.174.21.374.399.56.602.02-.017.053-.03.09-.048V3.47h4.086v12.732c-.078.012-.115.024-.169.024-2.015 0-4.024.005-6.044-.006-.088 0-.2-.044-.25-.108a83.815 83.815 0 0 1-1.473-1.762c-.481-.583-.956-1.172-1.444-1.766-.83-.993-1.667-1.985-2.502-2.982l-2.196-2.652zm-8.814 13.046h27.856V.019H99.104v19.977zM142.67 16.364c-1.182 0-2.368-.013-3.553 0-1.18.023-2.333-.113-3.425-.53a3.15 3.15 0 0 1-1.683-1.449c-.44-.781-.548-1.663-.572-2.536-.018-1.352-.042-2.71.019-4.063.03-.721.15-1.46.382-2.133.357-1.052 1.244-1.678 2.332-2.002.877-.271 1.774-.355 2.693-.355 2.406 0 4.808.005 7.211 0 1.212-.006 2.396.072 3.527.517.796.306 1.39.812 1.782 1.534.379.737.495 1.531.505 2.338.006 1.213.017 2.415-.01 3.637 0 .582-.018 1.188-.116 1.766-.195 1.207-.79 2.176-1.998 2.699-.875.378-1.825.547-2.771.564-1.447.036-2.879.013-4.322.013zm-14.013 3.632h28.013V.02h-28.013v19.976z" fill="#224099"/>
        <path d="M142.694 13.081h3.009c.434 0 .846-.088 1.214-.318.35-.206.538-.522.609-.877.217-1.011.274-2.028.127-3.043a7.184 7.184 0 0 0-.294-1.316c-.146-.422-.526-.619-.951-.782-.481-.184-.98-.167-1.473-.167-1.753 0-3.504-.05-5.265.017-1.21.054-1.83.615-1.929 1.708-.092 1.052-.046 2.122-.005 3.18.023.533.23 1.064.79 1.33.331.148.727.238 1.11.245 1.015.041 2.046.023 3.058.023" fill="#034EA1"/>
        <path d="M184.74 3.452c-.199.602-.385 1.156-.57 1.72-.224.665-.465 1.316-.686 1.989-.238.662-.442 1.311-.67 1.977-.262.757-.55 1.522-.81 2.277-.208.64-.386 1.263-.598 1.888-.291.886-.593 1.768-.893 2.646-.068.174-.145.287-.393.287-1.415-.016-2.822-.01-4.23-.005-.188.005-.288-.047-.345-.24-.163-.54-.364-1.063-.556-1.593-.157-.403-.326-.806-.47-1.22-.283-.751-.557-1.508-.832-2.278-.219-.602-.438-1.197-.65-1.792-.168-.432-.326-.86-.52-1.34-.074.163-.142.277-.18.392-.252.661-.489 1.322-.745 1.983-.178.498-.375 1.004-.557 1.501-.27.753-.533 1.51-.81 2.262-.224.624-.44 1.263-.692 1.856-.078.18-.043.474-.392.469-1.414-.005-2.815 0-4.23-.005-.094 0-.201-.012-.311-.012-1.441-4.25-2.874-8.484-4.325-12.75.148-.012.238-.018.336-.018 1.115 0 2.24.006 3.357-.006.268-.012.356.09.418.313.2.684.401 1.375.613 2.056.22.71.455 1.431.668 2.146.277.931.551 1.869.827 2.807.17.533.33 1.075.494 1.61.036.125.1.242.18.414.068-.124.115-.191.132-.256.181-.483.356-.98.523-1.48.196-.546.399-1.095.601-1.634.284-.787.572-1.576.847-2.357.213-.613.431-1.232.649-1.847.19-.526.401-1.05.582-1.581.06-.18.189-.203.35-.203 1.028.012 2.068.018 3.096 0 .315 0 .518 0 .632.397.204.762.523 1.491.79 2.241.407 1.108.814 2.225 1.22 3.331.2.558.407 1.1.607 1.643.204.57.4 1.148.589 1.723h.1c.937-3.114 1.888-6.214 2.816-9.311h4.038zM158.568 20h27.72V.02h-27.72c-.003.11-.014.217-.014.332v18.561c0 .365.01.721.014 1.087z" fill="#224099"/>
        <g>
            <path fill="#B52025" d="M0 19.98h99.279V0H0z"/>
            <path d="M30.53 2.258v.41c-.01 4.801-.01 9.59-.01 14.383 0 .48 0 .48.527.48.64 0 1.302-.014 1.944.013.307 0 .37-.094.37-.362-.019-3.485-.019-6.96-.025-10.439 0-.205 0-.404.075-.636.262.361.527.705.797 1.053.922 1.294 1.845 2.553 2.77 3.84.956 1.292 1.893 2.594 2.843 3.89.6.812 1.213 1.615 1.817 2.428.057.075.21.144.307.144.864.014 1.714.014 2.589 0a.43.43 0 0 0 .295-.15c.99-1.336 1.953-2.684 2.942-4.017.921-1.273 1.867-2.527 2.793-3.801.72-.992 1.431-1.998 2.15-2.977.102-.15.229-.28.394-.473v11.494h2c.807 0 .807 0 .807-.772 0-4.679-.008-9.367-.008-14.041v-.467H54.21c-.486 0-.974-.011-1.46.02-.15 0-.34.083-.418.187-.91 1.25-1.809 2.511-2.714 3.75-.798 1.11-1.64 2.192-2.443 3.3-.727.975-1.438 1.971-2.146 2.957-.595.8-1.182 1.588-1.795 2.424-.348-.46-.673-.89-.996-1.323-.899-1.237-1.81-2.477-2.71-3.716-.82-1.123-1.642-2.245-2.458-3.374-.98-1.334-1.946-2.676-2.925-4.018-.069-.088-.2-.186-.294-.186-1.087-.021-2.176-.021-3.32-.021M82.368 12.67c-.73 0-1.443-.013-2.152 0-.071 0-.181.164-.189.247-.027.856-.061 1.74.29 2.56.277.677.786 1.177 1.471 1.506.919.424 1.885.616 2.908.616 2.484.026 4.97.061 7.464.061 1.086 0 2.188-.006 3.256-.28 1.468-.369 2.66-1.198 2.828-2.868a14.35 14.35 0 0 0-.041-2.916c-.128-.87-.713-1.512-1.556-1.93a6.222 6.222 0 0 0-2.827-.67c-2.643-.063-5.3-.044-7.956-.096a13.68 13.68 0 0 1-2.266-.269c-.61-.13-1.037-.553-1.152-1.135-.144-.7-.178-1.411.056-2.102.27-.766.904-1.04 1.643-1.143 2.048-.307 4.104-.151 6.167-.157 1.18-.007 2.362.075 3.54.165.662.052 1.33.244 1.578.936.094.294.098.615.133.912.02.163 0 .342 0 .534h2.398c0-1.321-.054-2.589-1.269-3.484-.503-.359-1.08-.568-1.696-.7-1.699-.389-3.426-.389-5.157-.389-1.61.011-3.228.011-4.843.081-.984.036-1.981.152-2.879.542-.899.37-1.567.964-1.853 1.903a6.427 6.427 0 0 0 .059 3.922c.295.897 1.04 1.43 1.967 1.732 1.439.47 2.938.486 4.43.52 2.406.053 4.816.034 7.215.11.87.012 1.648.32 1.93 1.224.066.234.084.48.084.713 0 .6.082 1.204-.205 1.765-.206.404-.542.643-.946.815-.62.253-1.275.253-1.904.253-2.582.029-5.146.029-7.721 0-.698 0-1.41-.021-2.059-.363-.496-.275-.686-.705-.727-1.197-.045-.458-.02-.912-.02-1.418M62.779 8.762V4.259h13.126V2.224h-15.86v15.314h.38c5.065-.008 10.142-.021 15.219-.021.324 0 .41-.083.4-.391a10.246 10.246 0 0 1 0-1.335c.017-.314-.105-.39-.422-.39-4.113.02-8.227.016-12.355.016h-.475v-4.555H75.69c0-.67.008-1.286-.012-1.902 0-.077-.118-.164-.2-.184-.095-.042-.201-.014-.3-.014H62.78zM1.85 2.233v2.005h7.858V17.51h2.767V4.259h7.666V2.233zM23.303 17.517h2.706V2.279h-2.706z" fill="#FFF"/>
        </g>
    </g>
</svg>
