<svg width="10" height="10" viewBox="0 0 10 10" xmlns="http://www.w3.org/2000/svg" xmlns:xlink="http://www.w3.org/1999/xlink">
    <defs>
        <path d="M6.346 0v1.554h1.001L5.801 3.101a3.729 3.729 0 0 0-2.048-.607 3.73 3.73 0 0 0-2.708 1.155A3.756 3.756 0 0 0 0 6.177a3.733 3.733 0 0 0 1.219 2.84 3.746 3.746 0 0 0 2.363.98l.161.003h.018a3.755 3.755 0 0 0 3.742-3.616A3.714 3.714 0 0 0 6.9 4.2l1.546-1.546v1H10V0H6.346zM2.2 7.802a2.183 2.183 0 0 1-.645-1.555c0-.587.229-1.14.644-1.555a2.2 2.2 0 0 1 2.263-.528c.293.1.562.26.793.476a2.186 2.186 0 0 1 .697 1.606h.001a2.2 2.2 0 0 1-2.171 2.199h-.028c-.587 0-1.14-.228-1.554-.643z" id="xtn12c0a3a"/>
        <path d="M6.955 0v3.654H5.401V2.653L3.854 4.2c.189.29.336.602.438.93a4.982 4.982 0 0 1-2.083-.49 2.187 2.187 0 0 0-.793-.476A5.027 5.027 0 0 1 0 2.56c.23-.044.468-.066.708-.066.738 0 1.443.212 2.047.607l1.547-1.547h-1V0" id="9kguz5qacd"/>
        <linearGradient x1="85.714%" y1="-30.55%" x2="21.918%" y2="104.958%" id="m53qt7f16b">
            <stop stop-color="#FFB81F" offset="0%"/>
            <stop stop-color="#ED6600" offset="100%"/>
        </linearGradient>
    </defs>
    <g fill="none" fill-rule="evenodd">
        <g>
            <mask id="kdntetkwec" fill="#fff">
                <use xlink:href="#xtn12c0a3a"/>
            </mask>
            <path d="M6.346 0v1.554h1.001L5.801 3.101a3.729 3.729 0 0 0-2.048-.607 3.73 3.73 0 0 0-2.708 1.155A3.756 3.756 0 0 0 0 6.177a3.733 3.733 0 0 0 1.219 2.84 3.746 3.746 0 0 0 2.363.98l.161.003h.018a3.755 3.755 0 0 0 3.742-3.616A3.714 3.714 0 0 0 6.9 4.2l1.546-1.546v1H10V0H6.346zM2.2 7.802a2.183 2.183 0 0 1-.645-1.555c0-.587.229-1.14.644-1.555a2.2 2.2 0 0 1 2.263-.528c.293.1.562.26.793.476a2.186 2.186 0 0 1 .697 1.606h.001a2.2 2.2 0 0 1-2.171 2.199h-.028c-.587 0-1.14-.228-1.554-.643z" fill="url(#m53qt7f16b)" mask="url(#kdntetkwec)"/>
        </g>
        <g transform="translate(3.045)">
            <mask id="o7hv6o1jhe" fill="#fff">
                <use xlink:href="#9kguz5qacd"/>
            </mask>
            <path d="M0 2.56a5.027 5.027 0 0 0 1.416 1.604c.293.1.562.26.793.476a4.982 4.982 0 0 0 2.083.49 3.715 3.715 0 0 0-.438-.93l1.547-1.547v1h1.554V0H3.301v1.554h1L2.756 3.101a3.729 3.729 0 0 0-2.047-.607c-.24 0-.477.022-.708.066" mask="url(#o7hv6o1jhe)"/>
        </g>
    </g>
</svg>
