<svg width="80" height="80" viewBox="0 0 80 80" xmlns="http://www.w3.org/2000/svg" xmlns:xlink="http://www.w3.org/1999/xlink">
    <defs>
        <path id="94z37kj1ea" d="M0 0h80v80H0z"/>
        <path id="darkcheu9c" d="M0 0h2.934v2.78H0z"/>
    </defs>
    <g fill="none" fill-rule="evenodd">
        <mask id="iqj1lf2hqb" fill="#fff">
            <use xlink:href="#94z37kj1ea"/>
        </mask>
        <use fill="#F4F4F4" xlink:href="#94z37kj1ea"/>
        <g mask="url(#iqj1lf2hqb)">
            <path d="M34.08 68.902c-4.036 2.434-6.618 7.988-7.389 12.784-.591 3.683 5.454 9.608 10.119 10.285 4.663.677 10.843-3.196 12.15-6.893 1.308-3.697-.16-12.094-3.344-14.837" fill="#FAA181"/>
            <path d="M24.633 49.496c-2.477 5.895 8.435 26.046 16.326 23.675 6.449-1.936 11.025-24.313 4.778-27.878-5.077-2.897-19.048-.694-21.104 4.203" fill="#FAA181"/>
            <path d="M30.854 39.249c1.498 1.14 2.262 4.336 1.418 5.7-2.109 1.293-2.464 4.941 3.175 4.706 5.638-.235 5.895-3.91 3.916-4.835-1.685-.788-2.01-5.099-1.284-5.874" fill="#FAA181"/>
            <path d="M37.141 40.149c-.478 2.03-2.803 2.33-2.906 2.703-.344 1.239-1.294 2.968-2.264 2.675 1.145-1.221.382-4.2-.174-5.327" fill="#F26E4E"/>
            <path d="M27.953 77.034a23.468 23.468 0 0 0-1.262 4.652c-.591 3.683 5.454 9.608 10.118 10.285 4.664.677 10.844-3.196 12.151-6.893.395-1.115.537-2.658.455-4.345" fill="#0C0C11"/>
            <path d="M61.523 45.951c-1.527 1.106 4.341 7.22 5.416 5.563 1.12-1.728-3.26-7.125-5.416-5.563" fill="#AFA798"/>
            <path d="M45.225 45.658c1.642-2.039 11.46 7.079 15.232 8.9 2.528 1.218 1.276 5.701-1.638 6.225-2.913.525-11.553-5.058-12.014-5.556" fill="#FAA181"/>
            <path d="M56.672 54.425c-.5-4.022 7.149-9.338 9.123-13.39 1.157-2.622 7.262-1.304 3.464 2.796-1.858 6.264-6.883 16.622-10.955 16.954" fill="#FAA181"/>
            <path d="M67.098 37.27c1.187-.94 3.122-1.861 4.17-1.497 1.155.401 1.996 4.34 1.464 6.213-1.28 1.77-2.606 2.618-4.19 1.904" fill="#FAA181"/>
            <path d="M69.176 36.932c.52 1.345.402 3.832 0 4.66 1.344.144 1.71.777 2.313 1.096 1.135-.085.977-2.677.225-4.209-.752-1.531-1.972-1.62-2.538-1.547" fill="#F26E4E"/>
            <path d="M65.932 41.749c-.412-1.558-.116-4.203.555-5.1 1.245-1.666.696-3.547 1.46-4.016.563-.346 1.882 1.735.899 4.079 1.07 1.382.726 3.789.341 4.402" fill="#FAA181"/>
            <g transform="translate(70.946 40.365)">
                <mask id="wypvp6ormd" fill="#fff">
                    <use xlink:href="#darkcheu9c"/>
                </mask>
                <path d="M1.85 0c1.926.695.965 2.37-.402 2.729-1.08.283-2.5-.668-.26-1.32" fill="#FAA181" mask="url(#wypvp6ormd)"/>
            </g>
            <path d="M72.059 38.603c2.602.267 1.929 2.641.345 3.508-1.252.686-3.306-.054-.73-1.555" fill="#FAA181"/>
            <path d="M71.3 36.932c2.91.098 2.342 2.786.65 3.87-1.34.856-3.676.19-.93-1.672" fill="#FAA181"/>
            <path d="M70.277 35.728c2.9-.258 2.666 2.48 1.118 3.761-1.224 1.015-3.451.716-1.128-1.545.322-.313.581-.853.581-.853" fill="#FAA181"/>
            <path d="M55.096 50.665c.813.631 1.803 1.013 1.803 1.013.984-2.24 3.586-4.361 4.624-5.727-.252 1.685 4.145 5.344 5.416 5.563-1.134 3.388-5.45 8.943-7.472 9.608-2.021.664-5.464-1.03-6.884-1.904" fill="#D8D6CE"/>
            <path d="M61.435 46.815c-1.448 1.175-4.253 3.974-4.508 5.792-.255 1.818.164 3.88.164 3.88-.765-.82-1.169-2.362-1.169-2.362-.58 1.733-1.155 4-1.155 4 .821 1.039 2.984 1.586 4.213 1.176 1.23-.41 4.4-3.575 5.794-8.465-1.94-1.284-2.956-2.88-3.34-4.02" fill="#F0EAEC"/>
            <path d="M52.98 59.454c1.149-1.092 3.196-6.643 3.155-8.131.153.038.527.251.527.251.61.974-.634 7.051-2.467 8.51-.679-.17-1.214-.63-1.214-.63" fill="#1D1D27"/>
            <path d="M46.956 44.826c2.417.186 6.087 3.65 7.047 4.448.961.8 1.721.848 1.906 2.022.185 1.175-1.619 7.895-2.428 8.51-1 .758-4.395-2.213-5.378-2.13" fill="#C98211"/>
            <path d="M47.696 45.187c1.275-.059 5.939 4.25 7.537 4.824.942 2.131-.8 6.93-1.506 7.932-1.527-.597-4.772-1.94-5.812-7.768-.78-4.376-.219-4.988-.219-4.988" fill="#F2AF08"/>
            <path d="M53.045 57.121c-.104.632-.382 1.77-.382 1.77.676.08 1.498-.864 2.266-3.84" fill="#F2AF08"/>
            <path d="M48.171 45.8c.703-.936 5.263 3.366 6.293 3.839-.22 1.853-.993 4.412-1.752 4.486-2.47-1.132-5.483-7.07-4.54-8.325M55.355 50.042c.665.32.337 4.265-1.493 5.67 1.094-2.68.752-6.028 1.493-5.67" fill="#FFC648"/>
            <path d="M56.594 52.212c-.26 2.136-.078 6.556-1.207 8.384.697.35 1.824.545 1.824.545.854-1.05-.278-7.064-.321-9.622M59.62 61.064c.023-1.006-1.528-3.406-1.985-5.739.748 1.479 2.3 2.977 3.447 4.718-.672.775-1.461 1.02-1.461 1.02" fill="#1D1D27"/>
            <path d="M56.865 51.583c.186 1.501 1.222 3.833 5.566 7.088.365-.236.945-1.128.945-1.128-2.337-1.752-5.542-4.576-6.033-6.707-.324.269-.478.747-.478.747M64.264 56.361c.505-.521.859-1.25.859-1.25-2.282-.736-6.147-4.143-6.54-5.98 0 0-.686.788-.892 1.175.352 1.364 4.017 4.825 6.573 6.055M65.882 53.82c-3.04-.792-5.854-4.122-6.34-5.716.392-.51 1.003-1.044 1.003-1.044.757 1.485 2.68 4.049 6.107 5.233 0 0-.628 1.32-.77 1.527" fill="#1D1D27"/>
            <path d="M60.737 47.415c-.19-.303-.75.71-.792 1.102-.042.393 1.864 3.613 4.25 4.347.228-.167.529-1.32.529-1.32-1.749-.431-3.274-2.99-3.987-4.129M58.611 49.63c-.246.185-.786 1.019-.786 1.019.684 1.194 2.733 3.876 4.884 4.676.266-.367.667-.962.667-.962-1.5-.751-4.15-3.196-4.765-4.733M57.407 51.323c-.25.397-.374.787-.374.787.308 1.885 2.627 4.528 4.05 5.224.417-.164.735-.973.735-.973-1.408-.912-3.627-3.038-4.41-5.038M56.146 51.797c.022-.251.308-.152.502.367.194.52-.185 3.612-.755 4.984-.458.316-.964-.503-.964-.503.465-1.776 1.162-4.232 1.217-4.848" fill="#363642"/>
            <path d="M57.033 54.022c-.152-.893-.478-.002-.505 1.303-.027 1.306-.582 3.772.601 3.656.874-.086-.04-4.634-.096-4.959M57.635 55.183c-.19.135.819 3.538 1.474 4.002.752-.095.835-.574.835-.574-.643-1.051-2.212-3.496-2.309-3.428" fill="#363642"/>
            <path d="M66.315 40.702c-.922 2.061-4.497 5.993-4.497 5.993.639 1.305 2.377 2.773 3.411 3.25.86-1.646 2.787-5.802 2.787-5.802-1.783-1.648-1.7-3.44-1.7-3.44" fill="#FFC599"/>
            <path d="M67.995 32.87c-.355.08-.184 1.168-.492 2.213-.307 1.045-.778 1.477-1.004 2.183-.225.706-1.064 3.706.533 5.23 2.167 2.066 3.75.711 3.855.352.104-.36-.814-.807-1.309-.834-.71-.04-1.358.281-1.358.281.707-1.481 1.13-4.16-.049-5.532.842-1.769.46-4.036-.176-3.893" fill="#FFC599"/>
            <path d="M69.354 36.196c1.066-.505 2.117-.382 2.691.178.574.56.04 1.976-1.007 2.814-1.048.837-1.662.6-1.684.205-.02-.397 1.631-2.202 1.945-2.461-.382.068-2.04-.053-1.945-.736" fill="#FFC599"/>
            <path d="M72.687 37.542c.01.778-.942 2.335-2.56 2.674-.383.336.193.88 1.72-.123 1.528-1.004 1.393-2.316.84-2.551M73.312 39.416c-.533 1.168-1.516 1.824-2.464 1.916-.4.396.026.994 1.624.185 1.598-.81 1.199-2.142.84-2.1M73.507 41.394c-.318.286-1.055 1.137-2.018 1.116.813.605 2.684-.473 2.018-1.116" fill="#FFC599"/>
            <path d="M70.14 38.964c-.315-.069-.812.46-.666.756.146.296 1.034.08 1.044-.173.009-.252-.14-.532-.379-.583M70.815 40.365c-.298-.12-.974.229-.821.522.112.215 1.006.253 1.057.005.052-.248-.01-.436-.236-.527M71.46 41.513c-.298-.12-.974.228-.82.522.111.214 1.005.252 1.057.004.051-.248-.01-.436-.236-.526M71.827 42.425c-.22-.106-.689.192-.587.422.074.168.592.258.713.109.088-.109.04-.451-.126-.531M67.726 32.809c.225.08.235.75.167.997-.069.246-.361.222-.454.11-.052-.41.187-1.041.287-1.107" fill="#FF9A92"/>
            <path d="M49.596 57.74c.104 1.997-.153 6.405.154 11.4.308 4.994 1.425 12.05.95 13.197-.476 1.149-2.934 3.768-10.374 3.695-7.44-.073-12.777-4.446-16.028-4.475.07-3.566 1.99-9.565 2.056-10.38.065-.815-.65-7.111-1.427-9.678-.913-6.036-1.974-12.144-1.114-13.52.822-1.316 6.095-3.274 7.063-3.103 1.045.073.999 2.11 4.118 2.45 3.38.37 5.077-1.33 4.775-3.451 2.828-.231 6.46.303 7.695 1.031 1.164.687-.508 6.157 2.132 12.834" fill="#C98211"/>
            <path d="M28.843 45.914c-.255-.716-4.344 1.065-4.568 2.275-.473 2.601 1.758 11.155 2.56 13.175 1.092 2.748 2.797 6.924 4.63 9.588-.494.605-2.6-2.582-3.553-3.811-.34 2.459-.507 9.22-1.899 12.703 3.69 1.353 8.69 4.163 15.41 3.967 6.72-.197 8.606-2.556 8.81-3.139-.245-2.262-1.28-12.23-1.525-15.631-.155-2.139.083-7.696.006-12.544-.046-2.862-1.214-6.003-.613-6.997-1.519-1.48-5.367-1.358-5.367-1.358.697 5.91-11.716 7.878-13.891 1.772" fill="#F2AF08"/>
            <path d="M24.904 47.768c-.035 3.71 4.704 16.095 6.154 18.635 1.45 2.541 2.782 6.116 1.962 6.772-2.131-.082-3.977-2.53-3.977-2.53.776 2.878-.425 6.918.164 8.696 3.722 3.525 16.348 5.901 19.872.492 0-2.783-2.085-8.573-1.816-17.924.19-6.554.755-13.698.47-16.366-1.834-1.045-4.556-1.093-4.556-1.093-1.31 6.288-11.53 6.986-14.76 1.698-1.466 0-3.513 1.62-3.513 1.62" fill="#FFC648"/>
            <path d="M31.329 45.363c-.246-.537-2.011-.07-1.995.588.029 1.114 2.44 4.712 8.169 3.678 5.15-.928 5.059-5.172 4.676-5.632-.382-.46-2.262-.678-2.163.06.1.737.273 2.88-3.142 3.42-3.414.54-4.975-.869-5.545-2.114" fill="#F2AF08"/>
            <path d="M40.485 44.438c-.25 3.708-7.148 4.553-9.286 1.21-1.585-.153-.345 3.114 3.807 3.76 3.35.52 5.696-1.02 6.269-2.596.824-2.271-.728-3.292-.79-2.374" fill="#FFC648"/>
            <path d="M35.602 56.171c-.616-.877-2.213-1.79-3.923-.99s-1.01 7.742 1.299 9.023c2.308 1.28 3.85-1.035 3.564-2.176-.287-1.142-1.638-2.283-1.893-1.76-.254.523-.18 1.688-1.23 1.823-1.052.134-2.432-4.4-.777-5.27 1.655-.872 1.357.865 1.957.95.6.084 1.516-.87 1.003-1.6" fill="#2D2D3A"/>
            <path d="M37.343 60.088c-.798-.946-.144-2.59.725-2.57.762.018 1.252 1.136.912 2.32-.242.841-1.243.717-1.637.25m.148-3.874c-1.312-.266-2.175 1.771-1.612 3.765.413 1.467 1.258 2.726 2.483 2.231 1.778-.719 2.255-5.362-.87-5.996" fill="#2D2D3A"/>
            <path d="M40.682 61.56c-.31-.504-.4-2.911.07-3.054.938-.285 1.837.564 1.532 2.263-.121.679-1.087 1.63-1.602.79m-.334 1.567c1.824.925 3.374-.786 3.459-3.505.072-2.333-2.125-4.26-3.47-3.575-1.253.64-.974 1.9-.836 3.17.214 1.973-.325 3.315.847 3.91" fill="#2D2D3A"/>
            <path d="M42.143 54.335c-.04.676 1.318 1.264 1.866 4.24.36 1.956-.331 3.134.072 3.536.402.4 2.54.022 3.137-.791.598-.813.6-3.19.087-3.355-.513-.164-.435 1.02-.667 1.526-.231.506-1.34 1.202-1.544.654-.203-.548.403-4.854-.32-5.689-.721-.834-2.608-.504-2.63-.121M37.033 67.357c.42-.186 2.184-.268 2.36.125.174.393.492 1.362.07 1.793-.422.43-1.97.688-2.285-.028-.316-.715-.417-1.77-.145-1.89M40.372 67.167c-.101.345.084 1.71.462 1.984s2.346-.449 2.434-1.051c.088-.602.062-1.767-.567-1.757-.63.01-2.2.386-2.329.824" fill="#2D2D3A"/>
            <path d="M33.439 65.304c1.685 2.995 10.133 1.846 12.372-2.383 1.126.068 1.505-.718.476-1.049-1.03-.33-1.304.412-1.186.941.119.53-1.68 2.742-5.914 3.447-4.233.705-5.466-.789-5.308-1.25.159-.46.067-1.818-1.123-.783-1.19 1.036.243 1.37.683 1.077" fill="#2D2D3A"/>
            <path d="M17.198 73.99c.962 1.62 7.012-3.028 6.242-4.847-.77-1.818-7.601 2.557-6.242 4.847" fill="#AFA798"/>
            <path d="M24.21 49.067c-1.582-.275-2.227 1.166-3.68 2.7-3.017 3.184-8.098 7.012-8.45 10.286-.25 2.337 3.26 4.748 5.478 3.122 2.412-1.768 5.201-4.647 6.724-5.449" fill="#FAA181"/>
            <path d="M18.518 61.012c2.958 2.224 6.269 13.86 8.127 16.383.63 1.644-1.916 4.321-3.675 2.494-3.317-4.376-11.333-12.86-10.874-18.072" fill="#FAA181"/>
            <path d="M16.05 55.513c-1.96 1.547-4.49 4.42-4.664 6.792-.328 4.454 4.756 10.3 5.812 11.685.211-2.095 5.019-4.717 6.242-4.847-.784-1.456-1.864-4.652-2.63-5.69 1.148-.615 1.64-1.394 1.64-1.394" fill="#D8D6CE"/>
            <path d="M24.143 47.697c-2.376 1.037-6.16 5.757-7.225 6.495-1.066.737-1.393.942-1.27 1.803.122.86 4.671 6.433 6.31 6.843 1.23 0 2.131-2.418 4.057-2.786" fill="#C98211"/>
            <path d="M20.82 60.636c.714 1.015 1.564 1.487 1.564 1.487-.567.378-2.153-.542-4.183-2.85" fill="#F2AF08"/>
            <path d="M24.242 48.084c-1.612.824-7.05 6.335-8.17 7.04-.425 1.567 2.977 5.977 5.312 6.026 1.563-.61 3.279-3.598 3.73-7.86.45-4.262-.872-5.206-.872-5.206" fill="#F2AF08"/>
            <path d="M24.45 48.146c-3.045 1.41-6.42 5.837-7.399 6.408.4 1.823 2.753 4.828 3.516 4.828 2.347-1.366 4.915-7.168 3.884-11.236M16.224 55.02c-.534.507 1.627 4.484 3.798 5.263-1.86-2.219-3.201-5.831-3.798-5.264" fill="#FFC648"/>
            <path d="M15.623 56.633c-1.516 1.276-3.29 3.31-3.54 5.18-.237 1.773 2.863 7.5 5.9 10 2.02-2.029 4.549-2.828 4.549-2.828-.458-1.542-1.618-4.558-2.51-5.25-.891-.692-4.129-1.53-4.129-1.53 1.312-.31 3.811.633 3.811.633l.41-.246c-1.407-.97-3.775-4.755-4.491-5.96" fill="#F0EAEC"/>
            <path d="M14.907 56.511c.495 1.505 4.848 6.163 6.21 6.765-.195.11-.306.177-.306.177-1.141.133-6.339-3.658-6.871-5.94.445-.54.967-1.002.967-1.002" fill="#1D1D27"/>
            <path d="M19.704 62.838c-1.934-.941-5.634-2.099-6.995-3.761-.558.544-.863 1.533-.863 1.533.714 1.15 5.985 1.94 8.417 2.733M11.37 62.764c.945.348 3.383-.452 5.737-.124-1.64.225-3.46 1.459-5.479 1.977-.258-.636-.258-1.853-.258-1.853" fill="#1D1D27"/>
            <path d="M20.621 63.237c-1.48-.314-3.977-.1-8.47 2.948.105.422.546 1.222.546 1.222 2.418-1.639 6.264-3.656 8.439-3.426-.182-.57-.515-.744-.515-.744M13.448 68.761c.328.647.856 1.361.856 1.361 1.726-1.697 5.86-4.7 7.666-4.4 0 0-.424-.922-.575-1.23-1.404-.11-5.952 2.253-7.947 4.27M15.404 71.682c1.74-2.615 5.383-4.801 7.075-4.671.231.55.535 1.25.535 1.25-1.65.232-4.432 1.798-6.668 4.652 0 0-.793-1.03-.942-1.23" fill="#1D1D27"/>
            <path d="M22.229 68.364c.35-.073-.11-1.04-.465-1.215-.354-.175-3.608 1.143-5.12 3.13.079.272 1.009 1.009 1.009 1.009 1.434-1.653 3.262-2.646 4.576-2.924M21.259 65.706c-.088-.295-.685-1.09-.685-1.09-1.357.23-4.448 1.513-5.94 3.257.254.377.77.956.77.956 1.223-1.15 4.2-3.076 5.855-3.123M20.099 63.891c-.287-.372-.61-.621-.61-.621-1.543-.453-4.995 1.104-6.139 2.199.01.448.52.983.52.983 1.341-1.007 4.082-2.514 6.229-2.56M18.345 61.15c.19.165-.282.453-.817.306-.534-.148-2.636-2.19-3.412-3.457.3-.562.969-.849.969-.849 1.164 1.42 2.793 3.594 3.26 4M16.82 62.203c.889.175.172-.446-1.04-.935-1.21-.49-2.945-2.372-3.55-.915-.461 1.114 4.266 1.786 4.59 1.85M17.139 62.56c-.06-.226-4.247-.02-4.909.436-.17.739.464 1.107.464 1.107 1.21-.242 4.476-1.43 4.445-1.544" fill="#363642"/>
            <path d="M26.218 76.707c.141.249 3.695 2.372 4.724 4.23.621 1.123-5.52 4.396-6.66 3.224-.722-.743-1.335-4.399-1.335-4.399" fill="#FAA181"/>
            <path d="M22.947 69.766c1.292 2.428 2.839 6.574 3.068 7.082.23.508-1.23 1.842-2.038 1.556-.808-.285-4.74-5.875-4.74-5.875 1.355-1.912 3.392-2.76 3.71-2.763" fill="#FFC599"/>
            <path d="M25.916 76.943c.465.082 3.932 2.822 4.628 3.72.696.898 1.964 5.357 1.8 6.238-.164.88-1.066-1.286-1.803-3.88.061-.935-.141-1.48-.368-1.496-.281-.02-.103 3.177-1.2 3.286.113-.954.396-2.75-.255-2.623-.492.097.174 2.827-1.332 3.278.264-1.254.325-3.095-.327-2.97-.318.061-.092 2.81-1.02 3.053-.68.178.376-2.845-.457-2.845-.573 0 .001 2.383-.942 2.632-.358.094-.338-.677-.212-1.253.314-1.432-1.23-4.012-.365-5.639" fill="#FFC599"/>
            <path d="M23.223 7.589c-1.115-1.22-3.575-.022-2.91 1.592.667 1.614 3.626-.721 2.91-1.592" fill="#C98211"/>
            <path d="M21.535 7.155c.671-.211 1.45.372.312.908-1.138.535-1.613-.497-.312-.908" fill="#F2AF08"/>
            <path d="M16.175 27.722s-6.224 9.352-3.783 13.376c1.398 2.305 3.934-1.997 15.323-1.837 8.635-10.866-2.64-18.764-2.64-18.764" fill="#376082"/>
            <path d="M15.595 29.403c-3.275 4.131-4.211 9.554-3.082 11.257-.288-1.727 1.696-9.3 3.082-11.257" fill="#457793"/>
            <path d="M16.945 29.673c-3.032 3.756-4.3 9.557-3.576 11.035.725 1.477 6.608-2.422 13.005-1.633 6.397.789-5.224-9.392-5.676-9.356" fill="#BF8D00"/>
            <path d="M16.782 29.69c-5.239 8.204-.565 10.621 7.12 8.16 7.687-2.46-2.09-6.324-2.09-6.324" fill="#936900"/>
            <path d="M43.022 23.822c.649-.133 1.718-2.381 3.438-1.423 1.056.586.916 4.947-1.674 5.707-1.08.318-1.89-1.18-1.899-1.224" fill="#FFC599"/>
            <path d="M44.188 25.754c-.075-1.67 1.36-2.496 2.004-2.75-.793 1.158-.956 3.99-.766 4.474" fill="#FAA181"/>
            <path d="M40.422 15.06c4.195 3.784 4.801 10.196 5.247 11.613 2.342 7.465-3.13 13.16-7.731 14.068-8.323 1.64-18.659-3.59-20.236-11.384C14.225 12.168 33.42 7.904 40.422 15.06" fill="#FAA181"/>
            <path d="M21.404 32.472c-1.057-.46-4.714-2.25-5.86-.159-.88 1.602 2.44 5.334 5.163 5.005 1.4-.169 1.635-2.136 1.624-2.186" fill="#FAA181"/>
            <path d="M23.256 26.725c-.154 5.138 5.035 15.919 15.884 12.928 4.519-1.245 8.612-8.146 5.87-14.004-.472-1.006-.153-2.703-2.15-5.86-.915-.052-2.29-.795-2.29-.795.905 2.81.191 3.044-.483 3.268-.674.225-3.74-1.643-4.71-3.098-.324 2.917-2.312 3.851-3.328 3.899-1.014.047-1.63-1.418-1.818-2.968-3.173.973-6.927 5.027-6.975 6.63" fill="#FFC599"/>
            <path d="M39.535 27.146c-.663-.663-.97-5.636 1.903-6.114 2.676-.446 3.627 3.097 3.407 4.331-.425 2.382-4.013 3.08-5.31 1.783" fill="#7C3505"/>
            <path d="M39.568 27.237c-.623-.623-.896-5.224 1.795-5.726 2.355-.44 3.365 2.925 3.145 4.083-.435 2.287-3.722 2.863-4.94 1.643" fill="#FCCACA"/>
            <path d="M39.568 27.237c-.59-.59-1.07-5.018 1.212-5.39 2.556-.415 3.824 2.986 3.447 4.228-.52 1.718-3.508 2.315-4.66 1.162" fill="#FFF"/>
            <path d="M40.447 22.331c2.61-1.028 4.121 3.679 2.98 4.823-.844.64-2.611 1.028-3.374.355-.785-.692-1.407-4.468.394-5.178" fill="#559AC4"/>
            <path d="M39.341 16.904c-.536.093-1.423 1.95-.953 1.76 2.283-.923 3.207-.21 3.274-.484.14-.566-1.643-1.393-2.32-1.276M26.466 20.185c.608-.322 2.288.143 2.384.53.095.385-2.188.184-4.609 2.86-.233-1.094 1.593-3.056 2.225-3.39" fill="#7C3505"/>
            <path d="M40.663 23.314c2.558-.72 3.787 4.017 1.299 4.364-2.488.347-2.955-3.898-1.3-4.364" fill="#001826"/>
            <path d="M43.91 24.236c-.49-.476-1.65.603-1.375 1.093.274.49 2.117-.371 1.375-1.093" fill="#FFF"/>
            <path d="M33.136 28.979c.398-.936-1.494-5.853-5.189-5.086-3.288.683-3.073 5.425-2.006 6.372 1.933 1.717 6.42.544 7.195-1.286" fill="#7C3505"/>
            <path d="M33.168 28.96c.359-.846-1.34-5.255-4.685-4.572-3.347.683-2.793 4.879-1.828 5.736 1.75 1.554 5.81.492 6.513-1.164" fill="#FCCACA"/>
            <path d="M32.59 29.248c.554-1.01-1.048-5.14-4.137-4.51-3.09.63-2.347 4.54-1.456 5.332 1.616 1.434 4.795.635 5.594-.822" fill="#FFF"/>
            <path d="M28.261 25.227c2.429-.692 4.764 3.714 3.317 5.061-1.363.797-3.712.827-4.288.27-.576-.557-1.664-4.58.971-5.33" fill="#559AC4"/>
            <path d="M28.194 26.419c1.986-.906 4.324 3.73 1.671 4.52-2.652.79-3.717-3.587-1.671-4.52" fill="#001826"/>
            <path d="M32.002 27.51c-.52-.506-1.753.643-1.462 1.164.291.52 2.252-.395 1.462-1.163M28.226 28.993c.498-.263.74.679.35.887-.39.208-.85-.625-.35-.887M40.642 25.836c.498-.262.74.68.35.888-.39.207-.849-.626-.35-.888" fill="#FFF"/>
            <path d="M22.86 22c-2.667 2.91-1.232 8.669.638 11.789-.891.538-1.534.26-1.534.26-1.953-2.726-4.847-2.9-4.847-2.9-1.621-1.157-1.42-3.44-.808-5.706" fill="#160F13"/>
            <path d="M22 23.315c-1.29 2.715.363 7.628 1.889 9.316-1.7-.525-3.447-2.762-3.773-3.941.26 1.679.97 2.555.97 2.555-1.558-.542-2.92-2.125-2.92-2.125 1.199-3.509 3.833-5.805 3.833-5.805" fill="#3F2F39"/>
            <path d="M38.225 16.111c4.569-1.13 8.482 2.174 7.921 3.313-.56 1.138-7.696-2.742-10.174-3.526 5.866 1.587 4.687 4.575 3.963 5.044-.725.47-5.827-4.677-5.827-4.677s-.356 5.32-2.062 5.879c-1.707.56-1.782-3.722-1.306-4.919-4.892 1.574-7.522-4.983-1.434-7.035 6.09-2.052 13.54 1.738 9.84 4.56" fill="#160F13"/>
            <path d="M27.816 13.961c1.62.176 3.155 1.535 3.155 1.535.4-1.453-.805-2.85-.805-2.85 1.71.348 2.63 2.951 2.63 2.951 1.052.047 3.587-.405 3.587-.405-.398-2.777-1.316-2.79-1.776-3.194 1.66.213 2.79 2.499 3.563 3.435-.11-3.278-2.947-6.474-7.792-4.112 1.604.263 2.661 1.326 2.661 1.326-1.697-1.063-3.728-1.223-5.005.05M33.021 17.463c.161 2.39-.764 4.45-1.7 4.396-.93-.873-.827-3.072.029-4.276" fill="#3F2F39"/>
            <path d="M38.173 17.33c3.086.827 3.992 2.667 3.829 3.166.844-1.215.543-3.35-3.633-3.93M33.788 16.804c1.928.343 2.562 3.736 2.261 5.03 1.002-1.475 1.029-4.225-1.926-5.344" fill="#160F13"/>
            <path d="M31.423 33.799c-.702.648.278 1.02 1.354.701-.477-.209-.549-1.445-1.354-.701M42.886 32.12c.677.674.07.952-1.043.81.437-.283.426-1.425 1.043-.81" fill="#FAA181"/>
            <path d="M31.858 34.044c-.568.422.585.819 3.313.405-1.402.116-2.479.101-2.871-.158-.321-.21-.296-.356-.442-.247M41.02 33.202c.574-.087 1.112-.367 1.25-.678.085-.195.193-.31.305-.183.27.305-.187.602-1.52.947" fill="#C13A36"/>
            <path d="m39.022 34.12-5.273.488s3.259.91 4.831.603c1.573-.306 2.329-1.178 3.163-2.13-.626.348-2.07.856-2.721 1.039" fill="#F27F7C"/>
            <path d="M38.911 33.452c-.6.36-.836-.081-1.894.223-1.058.304-3.085 1.039-4.429.781 4.53.448 7.994-.49 9.309-1.505-1.128.387-1.89-.156-2.986.501" fill="#E8524A"/>
            <path d="M38.356 29.586c.545.037.626.281 1.216.356.787.1.366.692-.401.923-.767.23-1.576.467-2.373.554-.797.088-.664-.56-.094-.86.426-.224 1.005-1.018 1.652-.973" fill="#FFAD8D"/>
            <path d="M38.932 30.288c.097-.188.985-.22.925-.024-.1.336-1.122.406-.925.024" fill="#CE6C4E"/>
            <path d="M35.832 29.716c-.67.668-.506 1.899.823 1.702.423-.02-.1-.345-.1-.345-.684-.079-.792-.455-.723-1.357" fill="#FFAD8D"/>
            <path d="M37.34 30.669c-.205-.14-1.078.317-.92.473.25.247 1.275-.232.92-.473" fill="#CE6C4E"/>
            <path d="M20.487 33.836c-2.032-1.316-3.954-1.234-4.44-.245 1.176-.044 3.417.588 3.638 1.147-.407.934.78 1.288 1.255 1.1-1.558-.677-.453-2.002-.453-2.002" fill="#F26E4E"/>
            <path d="M20.047 32.838c-1.182-1.32-3.052-2.196-4.261-.878-.349.571-.117.976-.117.976.28-.642 2.39-.814 4.378-.098" fill="#FFC599"/>
            <path d="M42.1 16.538c2.499.093 4.182 2.004 3.572 2.82-2.614-1.779-4.92-2.572-5.96-2.636 1.967.469 2.532 2.2 2.127 2.83-.177-1.372-2.187-2.492-3.254-2.773 1.657 1.411 1.742 2.865 1.218 3.43-.829-.922-4.65-3.88-4.65-3.88 1.645-.13 3.658 1.895 3.658 1.895-.68-1.204-1.542-2.203-1.542-2.203 1.23.069 4.831.517 4.831.517" fill="#3F2F39"/>
            <path d="M32.08 11.002c4.899-1.324 7.006 3.037 5.603 3.22-4.961.647-7.458 2.207-8.368 2.416-.91.21-1.725-4.422 2.766-5.636m-15.907 19.69c1.726-6.893 17.357-16.003 27.003-14.204.267-2.473-7.371-14.305-19.602-9.24-12.23 5.064-11.089 17.094-7.4 23.444" fill="#376082"/>
            <path d="M22.625 7.825c-6.225 3.033-6.49 10.668-4.491 15.407 1.683-2.2 8.072-5.567 10.37-6.538-1.436-3.603 1.724-5.772 3.54-6.295 1.816-.523 5.754.197 6.688 3.3 1.346-.324 3.173.165 3.173.165-3.25-6.07-10.205-10.46-19.28-6.04" fill="#457793"/>
            <path d="M29.692 16.516c2.246-1.518 6.011-3.29 7.27-2.984.597.145.78 2.316.063 2.487-2.79.56-6.245 2.383-6.245 2.383-.423.173-.693-.32-.693-.32" fill="#F2AF08"/>
            <path d="M36.819 13.527c.544-.002.832 1.93.23 2.064-.604.134-.658-2.062-.23-2.064" fill="#FFC648"/>
            <path d="M29.81 16.47c2.053-1.54 5.884-3.035 6.396-2.866.512.168.886 1.668.355 1.877-.53.209-3.97 1.441-6.256 2.661-2.887 1.187-8.447 4.128-11.782 7.8-.44-.556-.757-1.485-.083-2.388.674-.904 5.05-4.59 11.37-7.084M37.76 14.42c1.694-.275 4.127-.155 4.564.114.437.269.614 1.474.435 1.496-1.461-.43-4.536-.174-5.132-.086.83-.646.133-1.525.133-1.525" fill="#457793"/>
            <path d="M23.877 7.724C29.91 4.37 39.128 7.607 37.96 11.35c-4.999-3.385-11.68.238-10.181 4.993-5.603 2.502-10.496-4.954-3.9-8.62M35.931 13.743c.548.029.64.999.307 1.4-.333.4-3.844 1.195-4.037.707-.192-.488 2.853-2.154 3.73-2.107" fill="#5086A3"/>
        </g>
    </g>
</svg>
