<?xml version="1.0" encoding="UTF-8"?>
<svg width="325px" height="34px" viewBox="0 0 325 34" version="1.1" xmlns="http://www.w3.org/2000/svg" xmlns:xlink="http://www.w3.org/1999/xlink">
    <title>MN-web</title>
    <g id="Times-Web" stroke="none" stroke-width="1" fill="none" fill-rule="evenodd">
        <g id="MN-web">
            <polygon id="Fill-1" fill="#231F20" points="0 34 325 34 325 0 0 0"></polygon>
            <g id="Group-4" transform="translate(174.220441, 4.322645)">
                <polygon id="Fill-2" fill="#C62026" points="0 25.3226453 45.7995992 25.3226453 45.7995992 0 0 0"></polygon>
                <polygon id="Fill-3" fill="#C62026" points="49.5511022 25.3226453 94.8817635 25.3226453 94.8817635 0 49.5511022 0"></polygon>
                <polygon id="Fill-4" fill="#C62026" points="98.7895792 25.3226453 144.589178 25.3226453 144.589178 0 98.7895792 0"></polygon>
                <g id="Group-3" transform="translate(9.449027, 2.280623)" fill="#FEFEFE">
                    <polygon id="Fill-15" points="0 0.223491667 9.61564079 0.223491667 21.2714554 14.9260583 21.3275732 14.9260583 21.3275732 0.223491667 27.532813 0.223491667 27.532813 20.460375 17.9173888 20.460375 6.26135757 5.75780833 6.20545646 5.75780833 6.20545646 20.460375 0 20.460375"></polygon>
                    <path d="M55.2842252,11.4319833 C55.2842252,12.1586833 55.3303762,12.7833333 55.423978,13.30485 C55.5169299,13.8268 55.6937334,14.2458333 55.9550386,14.5626 C56.2156937,14.8798 56.5792676,15.1125 57.0448935,15.26135 C57.5105194,15.41085 58.1072313,15.4851667 58.8339457,15.4851667 L66.7723365,15.4851667 C67.4990509,15.4851667 68.0953294,15.41085 68.5613887,15.26135 C69.0270146,15.1125 69.3903718,14.8798 69.6514603,14.5626 C69.9123321,14.2458333 70.088919,13.8268 70.1825208,13.30485 C70.2754727,12.7833333 70.3222736,12.1586833 70.3222736,11.4319833 L70.3222736,9.25166667 C70.3222736,8.61856667 70.2707059,8.0548 70.1686539,7.5608 C70.0661685,7.06723333 69.8752814,6.64321667 69.5955592,6.28896667 C69.3160537,5.93515 68.9245292,5.66496667 68.4216359,5.47841667 C67.9185259,5.29251667 67.2568128,5.19891667 66.4371465,5.19891667 L59.1693523,5.19891667 C58.3492527,5.19891667 57.6879729,5.29251667 57.1846463,5.47841667 C56.6815363,5.66496667 56.2904452,5.93515 56.0109397,6.28896667 C55.7312174,6.64321667 55.539897,7.06723333 55.437845,7.5608 C55.3351429,8.0548 55.2842252,8.61856667 55.2842252,9.25166667 L55.2842252,11.4319833 Z M48.9108488,7.32333333 C48.9108488,5.85151667 49.1110528,4.63991667 49.511894,3.6894 C49.9125187,2.7391 50.4994803,1.98921667 51.2729957,1.43931667 C52.0460777,0.890066667 52.9823129,0.512633333 54.0821347,0.30745 C55.1813065,0.1027 56.430198,0 57.8277257,0 L67.7787732,0 C69.1760842,0 70.4245423,0.1027 71.5241475,0.30745 C72.6235359,0.512633333 73.5599879,0.890066667 74.3335032,1.43931667 C75.1063685,1.98921667 75.6933302,2.7391 76.0943881,3.6894 C76.4950128,4.63991667 76.6952167,5.85151667 76.6952167,7.32333333 L76.6952167,13.36075 C76.6952167,14.85185 76.4950128,16.0675667 76.0943881,17.0083333 C75.6933302,17.94975 75.1063685,18.6950833 74.3335032,19.24455 C73.5599879,19.79445 72.6235359,20.1718833 71.5241475,20.3764167 C70.4245423,20.5813833 69.1760842,20.6840833 67.7787732,20.6840833 L57.8277257,20.6840833 C56.430198,20.6840833 55.1813065,20.5813833 54.0821347,20.3764167 C52.9823129,20.1718833 52.0460777,19.79445 51.2729957,19.24455 C50.4994803,18.6950833 49.9125187,17.94975 49.511894,17.0083333 C49.1110528,16.0675667 48.9108488,14.85185 48.9108488,13.36075 L48.9108488,7.32333333 Z" id="Fill-17"></path>
                    <polygon id="Fill-19" points="93.3914263 0.223491667 99.45713 0.223491667 103.761732 15.0937583 103.817633 15.0937583 108.960752 0.223491667 114.719216 0.223491667 119.862118 15.0937583 119.918236 15.0937583 124.222621 0.223491667 130.288325 0.223491667 123.719728 20.460375 116.591687 20.460375 111.867826 7.09940833 111.811925 7.09940833 107.088065 20.460375 99.9600233 20.460375"></polygon>
                </g>
            </g>
            <g id="Group-2" transform="translate(4.376754, 6.164875)" fill="#FEFEFE">
                <polygon id="Fill-5" points="0 0.419941602 9.65321432 0.419941602 16.7584672 13.6163097 23.8639665 0.419941602 33.5171809 0.419941602 33.5171809 20.9224725 27.402665 20.9224725 27.402665 6.19695912 27.3459669 6.19695912 19.108232 20.9224725 14.4089489 20.9224725 6.17121396 6.19695912 6.1145159 6.19695912 6.1145159 20.9224725 0 20.9224725"></polygon>
                <polygon id="Fill-6" points="37.7959699 20.9224725 44.2141535 20.9224725 44.2141535 0.419941602 37.7959699 0.419941602"></polygon>
                <path d="M54.6124017,10.3297344 L65.0274755,10.3297344 C65.8788204,10.3297344 66.4790865,10.1550207 66.8295094,9.80460467 C67.1794381,9.45468292 67.3544024,8.91077207 67.3544024,8.17287212 L67.3544024,7.49180974 C67.3544024,6.58364419 67.1225994,5.99747585 66.6592404,5.73231622 C66.1953872,5.46765083 65.4624151,5.33519458 64.4598299,5.33519458 L54.6124017,5.33519458 L54.6124017,10.3297344 Z M48.3124497,0.226979607 L67.3259831,0.226979607 C68.5366474,0.226979607 69.5397269,0.373768813 70.334233,0.666852987 C71.1287392,0.960431401 71.7576718,1.371886 72.2212779,1.90121677 C72.6846368,2.43128891 73.0110887,3.06984667 73.2003862,3.81713718 C73.3891896,4.56442768 73.4843326,5.40166982 73.4843326,6.32836936 L73.4843326,7.63390367 C73.4843326,8.31471893 73.4368847,8.9298003 73.342483,9.47840643 C73.2475871,10.0272597 73.0728699,10.5096377 72.8173428,10.9257875 C72.5618158,11.3419374 72.2022493,11.6968016 71.7388903,11.9898857 C71.2752842,12.283217 70.6841617,12.5147684 69.9652757,12.6850339 L69.9652757,12.7418715 C70.4380255,12.8367656 70.8828501,12.9645265 71.2990082,13.1249073 C71.7151663,13.2857824 72.0794282,13.5363619 72.391794,13.8768931 C72.7039126,14.2174243 72.9495546,14.6572977 73.1297086,15.1965133 C73.3093683,15.7357288 73.3990746,16.430877 73.3990746,17.282205 L73.3990746,20.7727733 L67.0988754,20.7727733 L67.0988754,18.3040457 C67.0988754,17.2256146 66.9145203,16.4783241 66.5458102,16.0621742 C66.1766057,15.6462714 65.4999781,15.4377023 64.5166686,15.4377023 L54.6124017,15.4377023 L54.6124017,20.7727733 L48.3124497,20.7727733 L48.3124497,0.226979607 Z" id="Fill-7"></path>
                <path d="M83.9841703,10.3297344 L94.398997,10.3297344 C95.2503419,10.3297344 95.8508551,10.1550207 96.201278,9.80460467 C96.5509596,9.45468292 96.726171,8.91077207 96.726171,8.17287212 L96.726171,7.49180974 C96.726171,6.58364419 96.4941209,5.99747585 96.0307619,5.73231622 C95.5669087,5.46765083 94.8339366,5.33519458 93.8315985,5.33519458 L83.9841703,5.33519458 L83.9841703,10.3297344 Z M77.6839711,0.226979607 L96.6977517,0.226979607 C97.908416,0.226979607 98.9112483,0.373768813 99.7060016,0.666852987 C100.500508,0.960431401 101.129193,1.371886 101.593046,1.90121677 C102.056653,2.43128891 102.382857,3.06984667 102.572155,3.81713718 C102.760958,4.56442768 102.855854,5.40166982 102.855854,6.32836936 L102.855854,7.63390367 C102.855854,8.31471893 102.808653,8.9298003 102.714004,9.47840643 C102.619109,10.0272597 102.444391,10.5096377 102.189111,10.9257875 C101.933832,11.3419374 101.574018,11.6968016 101.110659,11.9898857 C100.646806,12.283217 100.055683,12.5147684 99.3370443,12.6850339 L99.3370443,12.7418715 C99.809794,12.8367656 100.254372,12.9645265 100.670777,13.1249073 C101.086688,13.2857824 101.451444,13.5363619 101.763315,13.8768931 C102.075434,14.2174243 102.321323,14.6572977 102.50123,15.1965133 C102.680643,15.7357288 102.770843,16.430877 102.770843,17.282205 L102.770843,20.7727733 L96.470644,20.7727733 L96.470644,18.3040457 C96.470644,17.2256146 96.2862889,16.4783241 95.9173316,16.0621742 C95.5483743,15.6462714 94.8719938,15.4377023 93.8881901,15.4377023 L83.9841703,15.4377023 L83.9841703,20.7727733 L77.6839711,20.7727733 L77.6839711,0.226979607 Z" id="Fill-9"></path>
                <path d="M113.526183,11.6067264 C113.526183,12.3446263 113.57289,12.9787359 113.667786,13.5080667 C113.762434,14.0378917 113.942094,14.4636793 114.207259,14.7849351 C114.47193,15.1069323 114.84064,15.343426 115.313637,15.4944163 C115.786386,15.6461479 116.392336,15.7215194 117.130004,15.7215194 L125.189484,15.7215194 C125.927646,15.7215194 126.532855,15.6461479 127.006098,15.4944163 C127.478601,15.343426 127.847558,15.1069323 128.112476,14.7849351 C128.377394,14.4636793 128.557054,14.0378917 128.65195,13.5080667 C128.746351,12.9787359 128.793552,12.3446263 128.793552,11.6067264 L128.793552,9.39302651 C128.793552,8.75026771 128.741162,8.17769096 128.637616,7.67628473 C128.533577,7.17512562 128.339584,6.74464279 128.056132,6.38508337 C127.771938,6.02601819 127.374809,5.75146801 126.864249,5.56217418 C126.353195,5.37312748 125.68151,5.27848057 124.848946,5.27848057 L117.470789,5.27848057 C116.637978,5.27848057 115.96654,5.37312748 115.455981,5.56217418 C114.944926,5.75146801 114.54755,6.02601819 114.263851,6.38508337 C113.980151,6.74464279 113.785911,7.17512562 113.682119,7.67628473 C113.577832,8.17769096 113.526183,8.75026771 113.526183,9.39302651 L113.526183,11.6067264 Z M107.055468,7.43509573 C107.055468,5.94076184 107.258852,4.71084621 107.665619,3.74584309 C108.072633,2.78108709 108.668451,2.01971075 109.453814,1.46146695 C110.238435,0.903717389 111.189124,0.52068158 112.305881,0.312112404 C113.421896,0.104284588 114.689647,0 116.10839,0 L126.211345,0 C127.630089,0 128.897592,0.104284588 130.014101,0.312112404 C131.130117,0.52068158 132.080806,0.903717389 132.866168,1.46146695 C133.651037,2.01971075 134.247102,2.78108709 134.654116,3.74584309 C135.060636,4.71084621 135.264267,5.94076184 135.264267,7.43509573 L135.264267,13.5646572 C135.264267,15.0785135 135.060636,16.3128773 134.654116,17.2682427 C134.247102,18.2236082 133.651037,18.9805364 132.866168,19.5382859 C132.080806,20.0965297 131.130117,20.4795655 130.014101,20.6878876 C128.897592,20.8957154 127.630089,21 126.211345,21 L116.10839,21 C114.689647,21 113.421896,20.8957154 112.305881,20.6878876 C111.189124,20.4795655 110.238435,20.0965297 109.453814,19.5382859 C108.668451,18.9805364 108.072633,18.2236082 107.665619,17.2682427 C107.258852,16.3128773 107.055468,15.0785135 107.055468,13.5646572 L107.055468,7.43509573 Z" id="Fill-11"></path>
                <path d="M145.764401,10.3297344 L156.179475,10.3297344 C157.030573,10.3297344 157.631086,10.1550207 157.981262,9.80460467 C158.331438,9.45468292 158.506402,8.91077207 158.506402,8.17287212 L158.506402,7.49180974 C158.506402,6.58364419 158.274352,5.99747585 157.810993,5.73231622 C157.34714,5.46765083 156.614168,5.33519458 155.61183,5.33519458 L145.764401,5.33519458 L145.764401,10.3297344 Z M139.464202,0.226979607 L158.477736,0.226979607 C159.6884,0.226979607 160.691232,0.373768813 161.485986,0.666852987 C162.280739,0.960431401 162.909424,1.371886 163.373278,1.90121677 C163.836637,2.43128891 164.163088,3.06984667 164.352386,3.81713718 C164.540942,4.56442768 164.636085,5.40166982 164.636085,6.32836936 L164.636085,7.63390367 C164.636085,8.31471893 164.588637,8.9298003 164.494236,9.47840643 C164.39934,10.0272597 164.224623,10.5096377 163.969343,10.9257875 C163.713816,11.3419374 163.354249,11.6968016 162.89089,11.9898857 C162.427037,12.283217 161.835914,12.5147684 161.117276,12.6850339 L161.117276,12.7418715 C161.589778,12.8367656 162.034603,12.9645265 162.450761,13.1249073 C162.866919,13.2857824 163.231428,13.5363619 163.5433,13.8768931 C163.855665,14.2174243 164.101307,14.6572977 164.281461,15.1965133 C164.460874,15.7357288 164.551074,16.430877 164.551074,17.282205 L164.551074,20.7727733 L158.250628,20.7727733 L158.250628,18.3040457 C158.250628,17.2256146 158.06652,16.4783241 157.697563,16.0621742 C157.328606,15.6462714 156.651978,15.4377023 155.668421,15.4377023 L145.764401,15.4377023 L145.764401,20.7727733 L139.464202,20.7727733 L139.464202,0.226979607 Z" id="Fill-13"></path>
            </g>
        </g>
    </g>
</svg>