<?xml version="1.0" encoding="UTF-8"?>
<svg width="123px" height="44px" viewBox="0 0 123 44" version="1.1" xmlns="http://www.w3.org/2000/svg" xmlns:xlink="http://www.w3.org/1999/xlink">
    <title>Mirror Now</title>
    <g id="Times-Web" stroke="none" stroke-width="1" fill="none" fill-rule="evenodd">
        <g id="TN-web-LiveTV" transform="translate(-707.000000, -845.000000)">
            <g id="live-tv-01" transform="translate(180.000000, 360.000000)">
                <g id="Mirror-Now" transform="translate(527.000000, 485.000000)">
                    <polygon id="Fill-1" fill="#231F20" points="0 44 122.723647 44 122.723647 0 0 0"></polygon>
                    <polygon id="Fill-2" fill="#C62026" points="3.38461538 40.6153846 40.1139601 40.6153846 40.1139601 20.3076923 3.38461538 20.3076923"></polygon>
                    <polygon id="Fill-3" fill="#C62026" points="43.1225071 40.6153846 79.4757835 40.6153846 79.4757835 20.3076923 43.1225071 20.3076923"></polygon>
                    <polygon id="Fill-4" fill="#C62026" points="82.6096866 40.6153846 119.339031 40.6153846 119.339031 20.3076923 82.6096866 20.3076923"></polygon>
                    <polygon id="Fill-5" fill="#FEFEFE" points="3.50997151 3.63532764 10.2974408 3.63532764 15.2933606 12.9140963 20.2894538 3.63532764 27.0769231 3.63532764 27.0769231 18.0512821 22.7776206 18.0512821 22.7776206 7.69732475 22.7377544 7.69732475 16.9455519 18.0512821 13.6413427 18.0512821 7.84914016 7.69732475 7.80927403 7.69732475 7.80927403 18.0512821 3.50997151 18.0512821"></polygon>
                    <polygon id="Fill-6" fill="#FEFEFE" points="30.0854701 18.0512821 34.5982906 18.0512821 34.5982906 3.63532764 30.0854701 3.63532764"></polygon>
                    <g id="Group-35" transform="translate(10.962336, 3.340054)" fill="#FEFEFE">
                        <path d="M30.9472798,7.26315114 L38.2704357,7.26315114 C38.8690422,7.26315114 39.2911076,7.14030457 39.5375007,6.89391641 C39.7835462,6.64787577 39.906569,6.26543547 39.906569,5.74659552 L39.906569,5.2677198 C39.906569,4.62916092 39.7435812,4.21700809 39.4177794,4.03056627 C39.09163,3.84447197 38.576255,3.75133794 37.8713068,3.75133794 L30.9472798,3.75133794 L30.9472798,7.26315114 Z M26.5175915,0.15959628 L39.8865864,0.15959628 C40.7378414,0.15959628 41.4431372,0.262808246 42.0017787,0.468884663 C42.5604202,0.675308594 43.0026418,0.964614862 43.3286174,1.33680347 C43.6544192,1.70951334 43.8839575,2.15850277 44.0170584,2.6839455 C44.1498117,3.20938824 44.2167097,3.79807871 44.2167097,4.4496694 L44.2167097,5.36763037 C44.2167097,5.84633234 44.1833476,6.2788148 44.1169709,6.66455649 C44.0502467,7.05047194 43.9273977,7.38964661 43.7477289,7.68225427 C43.56806,7.97486193 43.3152378,8.22437773 42.989436,8.43045415 C42.6634604,8.63670432 42.2478242,8.79951512 41.7423536,8.91923405 L41.7423536,8.95919827 C42.0747583,9.02592116 42.387528,9.1157538 42.6801415,9.22852243 C42.972755,9.34163857 43.2288786,9.5178287 43.4485125,9.75726656 C43.6679726,9.99670442 43.840691,10.3059928 43.9673627,10.6851317 C44.0936869,11.0642706 44.1567622,11.5530505 44.1567622,12.1516452 L44.1567622,14.6059701 L39.7269001,14.6059701 L39.7269001,12.8701325 C39.7269001,12.1118547 39.5972744,11.5864119 39.3380231,11.2938043 C39.0784242,11.0013704 38.6026667,10.854719 37.9112718,10.854719 L30.9472798,10.854719 L30.9472798,14.6059701 L26.5175915,14.6059701 L26.5175915,0.15959628 Z" id="Fill-7"></path>
                        <path d="M51.5994656,7.26315114 L58.9224478,7.26315114 C59.5210543,7.26315114 59.9432934,7.14030457 60.1896865,6.89391641 C60.4355583,6.64787577 60.5587548,6.26543547 60.5587548,5.74659552 L60.5587548,5.2677198 C60.5587548,4.62916092 60.3955932,4.21700809 60.0697914,4.03056627 C59.7436421,3.84447197 59.2282671,3.75133794 58.5234926,3.75133794 L51.5994656,3.75133794 L51.5994656,7.26315114 Z M47.1696036,0.15959628 L60.5387723,0.15959628 C61.3900272,0.15959628 62.0951492,0.262808246 62.6539645,0.468884663 C63.212606,0.675308594 63.6546539,0.964614862 63.9808032,1.33680347 C64.3067788,1.70951334 64.5361433,2.15850277 64.6692442,2.6839455 C64.8019976,3.20938824 64.8687218,3.79807871 64.8687218,4.4496694 L64.8687218,5.36763037 C64.8687218,5.84633234 64.8355334,6.2788148 64.768983,6.66455649 C64.7022588,7.05047194 64.5794098,7.38964661 64.3999147,7.68225427 C64.2204196,7.97486193 63.9674237,8.22437773 63.6416218,8.43045415 C63.3154725,8.63670432 62.8998363,8.79951512 62.3945394,8.91923405 L62.3945394,8.95919827 C62.7269441,9.02592116 63.0395401,9.1157538 63.3323273,9.22852243 C63.624767,9.34163857 63.8812382,9.5178287 64.1005246,9.75726656 C64.3199847,9.99670442 64.4928768,10.3059928 64.6193748,10.6851317 C64.7455253,11.0642706 64.808948,11.5530505 64.808948,12.1516452 L64.808948,14.6059701 L60.3790859,14.6059701 L60.3790859,12.8701325 C60.3790859,12.1118547 60.2494603,11.5864119 59.9900351,11.2938043 C59.73061,11.0013704 59.2550263,10.854719 58.5632839,10.854719 L51.5994656,10.854719 L51.5994656,14.6059701 L47.1696036,14.6059701 L47.1696036,0.15959628 Z" id="Fill-9"></path>
                        <path d="M72.3713554,8.16104311 C72.3713554,8.67988306 72.4041962,9.12574486 72.4709204,9.49793346 C72.5374709,9.87046958 72.6637951,10.1698538 72.8502406,10.3957386 C73.0363386,10.6221446 73.29559,10.7884305 73.6281685,10.8945964 C73.9605732,11.0012835 74.3866351,11.0542796 74.9053116,11.0542796 L80.5721779,11.0542796 C81.0912019,11.0542796 81.5167425,11.0012835 81.8494948,10.8945964 C82.1817258,10.7884305 82.4411509,10.6221446 82.6274226,10.3957386 C82.8136944,10.1698538 82.9400186,9.87046958 83.0067428,9.49793346 C83.0731195,9.12574486 83.1063079,8.67988306 83.1063079,8.16104311 L83.1063079,6.60452327 C83.1063079,6.15257996 83.0694705,5.74998379 82.9966647,5.39742979 C82.9235113,5.04504954 82.787109,4.74236394 82.5878051,4.48954676 C82.38798,4.23707708 82.1087462,4.04403248 81.749756,3.91093422 C81.3904183,3.77800972 80.918136,3.71146059 80.3327353,3.71146059 L75.1449279,3.71146059 C74.5593535,3.71146059 74.0872449,3.77800972 73.7282548,3.91093422 C73.3689171,4.04403248 73.0895095,4.23707708 72.8900319,4.48954676 C72.6905543,4.74236394 72.5539782,5.04504954 72.4809986,5.39742979 C72.4076714,5.74998379 72.3713554,6.15257996 72.3713554,6.60452327 L72.3713554,8.16104311 Z M67.8215983,5.22784245 C67.8215983,4.17713074 67.9646035,3.31233957 68.2506141,2.63381646 C68.5367984,1.95546711 68.9557361,1.4201202 69.5079484,1.02760196 C70.0596395,0.635431244 70.7280979,0.366107091 71.5133237,0.219455745 C72.2980283,0.0733256727 73.189422,0 74.1869837,0 L81.2906795,0 C82.2882412,0 83.1794612,0.0733256727 83.9645133,0.219455745 C84.7492178,0.366107091 85.4176762,0.635431244 85.9698886,1.02760196 C86.5217534,1.4201202 86.9408649,1.95546711 87.2270492,2.63381646 C87.512886,3.31233957 87.656065,4.17713074 87.656065,5.22784245 L87.656065,9.53772393 C87.656065,10.6021625 87.512886,11.4700813 87.2270492,12.1418279 C86.9408649,12.8135744 86.5217534,13.3457937 85.9698886,13.7379644 C85.4176762,14.1304827 84.7492178,14.3998068 83.9645133,14.5462844 C83.1794612,14.6924145 82.2882412,14.7657401 81.2906795,14.7657401 L74.1869837,14.7657401 C73.189422,14.7657401 72.2980283,14.6924145 71.5133237,14.5462844 C70.7280979,14.3998068 70.0596395,14.1304827 69.5079484,13.7379644 C68.9557361,13.3457937 68.5367984,12.8135744 68.2506141,12.1418279 C67.9646035,11.4700813 67.8215983,10.6021625 67.8215983,9.53772393 L67.8215983,5.22784245 Z" id="Fill-11"></path>
                        <path d="M95.0390294,7.26315114 L102.362185,7.26315114 C102.960618,7.26315114 103.382857,7.14030457 103.629077,6.89391641 C103.875296,6.64787577 103.998319,6.26543547 103.998319,5.74659552 L103.998319,5.2677198 C103.998319,4.62916092 103.835157,4.21700809 103.509355,4.03056627 C103.183206,3.84447197 102.667831,3.75133794 101.963056,3.75133794 L95.0390294,3.75133794 L95.0390294,7.26315114 Z M90.6091674,0.15959628 L103.978162,0.15959628 C104.829417,0.15959628 105.534539,0.262808246 106.093355,0.468884663 C106.65217,0.675308594 107.094218,0.964614862 107.420367,1.33680347 C107.746169,1.70951334 107.975707,2.15850277 108.108808,2.6839455 C108.241388,3.20938824 108.308286,3.79807871 108.308286,4.4496694 L108.308286,5.36763037 C108.308286,5.84633234 108.274923,6.2788148 108.208547,6.66455649 C108.141823,7.05047194 108.018974,7.38964661 107.839478,7.68225427 C107.65981,7.97486193 107.406987,8.22437773 107.081186,8.43045415 C106.755036,8.63670432 106.3394,8.79951512 105.834103,8.91923405 L105.834103,8.95919827 C106.166334,9.02592116 106.479104,9.1157538 106.771717,9.22852243 C107.064331,9.34163857 107.320628,9.5178287 107.539915,9.75726656 C107.759548,9.99670442 107.932267,10.3059928 108.058939,10.6851317 C108.185089,11.0642706 108.248512,11.5530505 108.248512,12.1516452 L108.248512,14.6059701 L103.818476,14.6059701 L103.818476,12.8701325 C103.818476,12.1118547 103.689024,11.5864119 103.429599,11.2938043 C103.170174,11.0013704 102.694416,10.854719 102.002848,10.854719 L95.0390294,10.854719 L95.0390294,14.6059701 L90.6091674,14.6059701 L90.6091674,0.15959628 Z" id="Fill-13"></path>
                        <polygon id="Fill-15" points="0 18.9758327 7.7113379 18.9758327 17.0588091 30.7666703 17.1038132 30.7666703 17.1038132 18.9758327 22.0801535 18.9758327 22.0801535 35.2049586 14.3689893 35.2049586 5.02134439 23.414121 4.97651406 23.414121 4.97651406 35.2049586 0 35.2049586"></polygon>
                        <path d="M44.3356143,27.9645697 C44.3356143,28.5473524 44.3726254,29.0482954 44.4476902,29.4665297 C44.5222336,29.8851116 44.6640226,30.2211586 44.8735783,30.4751921 C45.0826127,30.7295731 45.3741836,30.9161887 45.7475959,31.0355601 C46.1210083,31.1554528 46.599546,31.2150516 47.1823402,31.2150516 L53.5485945,31.2150516 C54.1313888,31.2150516 54.609579,31.1554528 54.9833388,31.0355601 C55.3567511,30.9161887 55.6481483,30.7295731 55.8575302,30.4751921 C56.0667384,30.2211586 56.2083536,29.8851116 56.2834184,29.4665297 C56.3579618,29.0482954 56.3954942,28.5473524 56.3954942,27.9645697 L56.3954942,26.2160478 C56.3954942,25.7083284 56.3541391,25.2562113 56.2722977,24.8600442 C56.1901087,24.4642245 56.0370253,24.1241811 55.8126999,23.8400875 C55.5885482,23.5563415 55.2745622,23.3396659 54.871263,23.1900606 C54.46779,23.0409767 53.937124,22.9659134 53.2797863,22.9659134 L47.4513222,22.9659134 C46.793637,22.9659134 46.2633185,23.0409767 45.8596718,23.1900606 C45.4561988,23.3396659 45.1425603,23.5563415 44.9184086,23.8400875 C44.6940832,24.1241811 44.5406523,24.4642245 44.4588109,24.8600442 C44.3764482,25.2562113 44.3356143,25.7083284 44.3356143,26.2160478 L44.3356143,27.9645697 Z M39.2244355,24.6696059 C39.2244355,23.4892711 39.3849907,22.5176191 39.7064484,21.7553448 C40.0277325,20.9932443 40.4984509,20.3918696 41.1187776,19.950873 C41.7387567,19.5103977 42.4895778,19.2077121 43.3715885,19.0431637 C44.2530779,18.8789629 45.2546361,18.7966018 46.3753943,18.7966018 L54.3557142,18.7966018 C55.4762987,18.7966018 56.4775094,18.8789629 57.3593463,19.0431637 C58.2410094,19.2077121 58.9920043,19.5103977 59.6123309,19.950873 C60.2321363,20.3918696 60.7028548,20.9932443 61.0244863,21.7553448 C61.3457703,22.5176191 61.5063255,23.4892711 61.5063255,24.6696059 L61.5063255,29.5113592 C61.5063255,30.7071584 61.3457703,31.6821118 61.0244863,32.436567 C60.7028548,33.1915434 60.2321363,33.7892693 59.6123309,34.2299183 C58.9920043,34.6709149 58.2410094,34.9736005 57.3593463,35.1376276 C56.4775094,35.3020022 55.4762987,35.3843633 54.3557142,35.3843633 L46.3753943,35.3843633 C45.2546361,35.3843633 44.2530779,35.3020022 43.3715885,35.1376276 C42.4895778,34.9736005 41.7387567,34.6709149 41.1187776,34.2299183 C40.4984509,33.7892693 40.0277325,33.1915434 39.7064484,32.436567 C39.3849907,31.6821118 39.2244355,30.7071584 39.2244355,29.5113592 L39.2244355,24.6696059 Z" id="Fill-17"></path>
                        <polygon id="Fill-19" points="74.8959806 18.9758327 79.7604188 18.9758327 83.2125279 30.9011587 83.2573583 30.9011587 87.3819223 18.9758327 91.9999675 18.9758327 96.1243578 30.9011587 96.1693619 30.9011587 99.6212972 18.9758327 104.485735 18.9758327 99.217998 35.2049586 93.5016098 35.2049586 89.7132732 24.4900275 89.6684429 24.4900275 85.8801063 35.2049586 80.163718 35.2049586"></polygon>
                    </g>
                </g>
            </g>
        </g>
    </g>
</svg>