<?xml version="1.0" encoding="UTF-8"?>
<svg width="512px" height="180px" viewBox="0 0 512 180" version="1.1" xmlns="http://www.w3.org/2000/svg" xmlns:xlink="http://www.w3.org/1999/xlink">
    <title>Mob-gadgets-DarkTheme</title>
    <g id="logos" stroke="none" stroke-width="1" fill="none" fill-rule="evenodd">
        <g id="GadgetTimes-1024x1024-Copy" transform="translate(-256.000000, -738.000000)" fill-rule="nonzero">
            <g id="Mob-gadgets-DarkTheme" transform="translate(256.000000, 738.000000)">
                <g id="Group" transform="translate(226.000000, 110.000000)" fill="#808080">
                    <polygon id="Path" points="0 13.4968625 16.1057235 13.4968625 16.1057235 69.2679217 29.6691386 69.2679217 29.6691386 13.4968625 46.4270774 13.4968625 46.4270774 0.399315459 0 0.399315459"></polygon>
                    <rect id="Rectangle" x="59.9904925" y="0.399315459" width="13.5634151" height="68.8819167"></rect>
                    <path d="M160.311846,0.945046587 L126.849211,47.1458452 L94.2650694,1.03822019 C93.50637,-0.0399315459 91.8159346,0.505799582 91.8159346,1.81023008 L91.8159346,69.2546111 L104.913482,69.2546111 L104.913482,38.4274577 L126.529759,68.3228751 L126.716106,68.3228751 L149.184256,36.3909488 L149.184256,69.2546111 L162.747671,69.2546111 L162.747671,1.71705647 C162.747671,0.439247005 161.070546,-0.106484122 160.311846,0.945046587 Z" id="Path"></path>
                    <polygon id="Path" points="194.559802 41.2892185 224.135767 41.2892185 224.135767 28.1916714 194.559802 28.1916714 194.559802 13.4968625 227.969196 13.4968625 227.969196 0.399315459 180.996387 0.399315459 180.996387 69.2679217 229.286937 69.2679217 229.286937 56.1703746 194.559802 56.1703746"></polygon>
                    <path d="M279.920137,36.1912911 C278.362807,34.6605819 276.592508,33.3827724 274.635862,32.3578627 C272.665906,31.332953 270.69595,30.4411485 268.699373,29.6957597 C266.516448,28.8838182 264.413387,27.9787032 262.376878,26.9804145 C260.353679,25.9821259 258.689865,24.8507321 257.412056,23.5596121 C256.134246,22.2818026 255.495341,20.8309565 255.495341,19.2070736 C255.495341,16.8378019 256.333904,15.0541928 258.024339,13.8695569 C259.714775,12.6849211 262.017494,12.0859479 264.945807,12.0859479 C267.315079,12.0859479 269.857387,12.5518159 272.572732,13.483552 C275.288078,14.4152881 277.950181,15.5999239 280.572352,17.0374596 L285.723522,6.65525765 C282.981555,4.84502757 279.880205,3.28769728 276.406161,1.96995627 C272.945427,0.665525765 268.433162,0 262.882677,0 C258.636623,0.186347214 254.896368,1.14470432 251.648602,2.84845028 C248.400837,4.56550675 245.89846,6.89484693 244.114851,9.8231603 C242.331242,12.7514737 241.452748,16.2255182 241.452748,20.2053622 C241.452748,23.50637 242.065031,26.3015782 243.276288,28.5776764 C244.487545,30.8537745 246.084807,32.7571782 248.054763,34.2878874 C250.02472,35.8185967 252.127781,37.1097167 254.377258,38.1745579 C256.626735,39.2393991 258.80966,40.1711352 260.926032,40.9830766 C262.736262,41.6752234 264.400076,42.4738543 265.930785,43.4189009 C267.461495,44.350637 268.672751,45.3888572 269.577867,46.5069405 C270.482982,47.6250238 270.935539,48.8762122 270.935539,50.2471953 C270.935539,52.2437726 270.389808,53.8011029 269.298346,54.9324967 C268.206883,56.05058 266.8359,56.8492109 265.185396,57.3150789 C263.534893,57.7809469 261.897699,58.0205362 260.273816,58.0205362 C258.649933,58.0205362 256.866324,57.7676364 254.9363,57.2751474 C253.006275,56.7693478 251.089561,56.077201 249.186157,55.1720859 C247.282753,54.2669709 245.525765,53.2287507 243.901882,52.0308043 L237.912151,62.5993535 C240.347975,64.2897889 242.876973,65.6740825 245.499144,66.7655448 C248.121316,67.857007 250.783419,68.6689485 253.498764,69.2013691 C256.214109,69.7337897 258.876212,70 261.498384,70 C266.609622,70 270.922229,69.0815744 274.409584,67.2447233 C277.896939,65.4078722 280.559042,62.9853584 282.369272,59.9904925 C284.179502,56.9956265 285.084617,53.7478608 285.084617,50.2605058 C285.084617,46.959498 284.618749,44.1642898 283.687013,41.8881917 C282.715345,39.6254041 281.477467,37.7220004 279.920137,36.1912911 Z" id="Path"></path>
                </g>
                <g id="Group" fill="#FFFFFF">
                    <path d="M44.2170785,59.8755092 L59.4643469,59.8755092 L59.4643469,70.5657289 C58.0252789,71.3709217 56.2607074,71.9534016 54.1877641,72.3131686 C52.0976891,72.6729356 49.8191647,72.861385 47.3350592,72.861385 C43.0178551,72.861385 39.060418,72.2617733 35.4970115,71.06255 C31.9336049,69.8633266 28.8498877,68.0987551 26.2458598,65.7859672 C23.641832,63.4731793 21.620284,60.6464385 20.181216,57.3228766 C18.7421479,53.9993147 18.0226139,50.2645906 18.0226139,46.1015723 C18.0226139,41.3732059 18.6564891,37.2273195 19.9413713,33.6639129 C21.2262535,30.1005063 23.1278791,27.1195797 25.6462481,24.721133 C28.1646172,22.3226863 31.2654662,20.5238512 34.9487951,19.3246279 C38.632124,18.1254045 42.880801,17.5257928 47.6776944,17.5257928 C49.5964518,17.5257928 51.8064492,17.7827693 54.2905547,18.3138539 C56.7746602,18.8278068 59.2073705,19.4959455 61.6229489,20.3011383 C64.0213957,21.1063311 65.940153,21.911524 67.3792211,22.699585 L73.0155709,6.49293791 C69.7262725,4.64270758 65.7345719,3.11798074 61.0062055,1.86736209 C56.2778391,0.633875205 51.0697834,0 45.3991701,0 C39.3859215,0 33.6467811,0.959378688 28.1646172,2.87813606 C22.6824533,4.79689344 17.8341645,7.74355655 13.6368828,11.7009936 C9.43960102,15.6584307 6.11603914,20.6266418 3.66619713,26.5884951 C1.21635512,32.5503483 0,39.5743709 0,47.6605627 C0,53.8279971 1.07930102,59.5157422 3.23790307,64.7066662 C5.39650512,69.9147219 8.51448586,74.4203754 12.608977,78.2236266 C16.6863365,82.0268778 21.620284,84.9906727 27.3765561,87.1150112 C33.1328283,89.2393498 39.6257662,90.301519 46.8382381,90.301519 C49.5621883,90.301519 52.4403244,89.9931473 55.489778,89.3935356 C58.5392317,88.7939239 61.5201584,88.0058629 64.432558,87.0464842 C67.3620893,86.0871055 69.9318537,85.0249362 72.1761145,83.8599764 C74.4203754,82.6950166 76.0650246,81.5643202 77.0929303,80.4336239 L77.0929303,43.0863822 L44.1828149,43.0863822 L44.1828149,59.8755092 L44.2170785,59.8755092 Z" id="Path"></path>
                    <path d="M124.907679,2.17573381 L86.9779571,89.3078768 L104.161115,89.3078768 L111.356455,72.0219287 L140.703164,72.0219287 L147.521605,89.3078768 L167.702821,89.3078768 L129.173488,2.17573381 C128.3169,0.325503483 125.712872,0.325503483 124.907679,2.17573381 Z M117.455362,57.3571401 L126.432406,35.8053832 L134.92976,57.3571401 L117.455362,57.3571401 Z" id="Shape"></path>
                    <path d="M244.710093,15.4357178 C240.906841,11.0328549 235.887235,7.50371188 229.634142,4.86542049 C223.381048,2.2271291 215.825941,0.907983401 206.934557,0.907983401 L180.517379,0.907983401 L180.517379,89.3078768 L211.268893,89.3078768 C217.265009,89.3078768 222.952754,88.3313664 228.332128,86.3612137 C233.694369,84.4081928 238.422736,81.5643202 242.500095,77.8295961 C246.577455,74.1120037 249.798226,69.6234819 252.162409,64.3811627 C254.526592,59.1388434 255.708684,53.2283854 255.708684,46.6669205 C255.708684,41.150493 254.834964,35.6683291 253.070393,30.2204287 C251.305821,24.7725283 248.513344,19.8557125 244.710093,15.4357178 Z M235.595995,57.1686908 C234.19119,60.5779114 232.186774,63.3875205 229.582746,65.6317813 C226.978719,67.8760422 223.87787,69.5720866 220.280199,70.7370465 C216.682529,71.9020063 212.673697,72.4844862 208.270834,72.4844862 L197.940381,72.4844862 L197.940381,17.5943199 L212.108349,17.5943199 C214.112765,17.5943199 216.545475,17.9712186 219.440743,18.7421479 C222.318879,19.4959455 225.14562,20.8836182 227.903834,22.8880344 C230.662047,24.8924506 232.991967,27.7191914 234.876461,31.351125 C236.760955,35.0001904 237.703202,39.6942932 237.703202,45.4676971 C237.68607,49.87056 236.983668,53.7766018 235.595995,57.1686908 Z" id="Shape"></path>
                    <polygon id="Path" points="395.623787 53.399703 433.587772 53.399703 433.587772 36.5763125 395.623787 36.5763125 395.623787 17.731374 438.504588 17.731374 438.504588 0.907983401 378.217916 0.907983401 378.217916 89.3078768 440.1835 89.3078768 440.1835 72.4844862 395.623787 72.4844862"></polygon>
                    <polygon id="Path" points="452.192866 0.907983401 452.192866 17.731374 472.853771 17.731374 472.853771 89.3078768 490.259641 89.3078768 490.259641 17.731374 511.760003 17.731374 511.760003 0.907983401"></polygon>
                    <path d="M315.138767,71.850611 C300.336925,71.850611 288.293296,59.8069821 288.293296,45.0051395 C288.293296,30.2032969 300.336925,18.159668 315.138767,18.159668 C323.362013,18.159668 330.728671,21.8943922 335.662618,27.7363231 L355.586858,27.7363231 C348.871207,12.0264971 333.298435,1.02790574 315.138767,1.02790574 C290.845928,1.02790574 271.161533,20.7123006 271.161533,45.0051395 C271.161533,69.2979785 290.845928,88.9823733 315.138767,88.9823733 C333.401226,88.9823733 349.059657,77.8467278 355.70678,61.9998477 L335.902463,61.9998477 C330.968516,68.0130963 323.499067,71.850611 315.138767,71.850611 Z" id="Path"></path>
                </g>
                <path d="M313.699699,53.4339666 L358.225149,53.4339666 C358.756234,50.6928846 359.047474,47.8832756 359.047474,44.9880078 C359.047474,42.0070811 358.756234,39.1118133 358.190886,36.3022043 L313.716831,36.3022043 L313.716831,53.4339666 L313.699699,53.4339666 Z" id="Path" fill="#FF6900"></path>
            </g>
        </g>
    </g>
</svg>