<svg xmlns="http://www.w3.org/2000/svg" width="17" height="18" viewBox="0 0 17 18">
    <g fill="none" fill-rule="evenodd">
        <g fill="#2340A3" fill-rule="nonzero">
            <g>
                <path d="M7.91 18c1.08 0 2.008-.652 2.416-1.582H5.494C5.902 17.348 6.831 18 7.91 18zM13.36 8.714V7.559c0-2.455-1.632-4.536-3.868-5.215v-.762C9.492.71 8.782 0 7.91 0c-.872 0-1.582.71-1.582 1.582v.762c-2.235.68-3.867 2.76-3.867 5.215v1.155c0 2.156-.822 4.2-2.314 5.757-.147.152-.188.377-.105.572.083.194.274.32.485.32h14.766c.211 0 .402-.126.485-.32.083-.195.042-.42-.104-.572-1.493-1.556-2.315-3.6-2.315-5.757zM8.437 2.135c-.174-.017-.35-.026-.528-.026-.178 0-.354.01-.527.026v-.553c0-.29.236-.527.527-.527.29 0 .527.236.527.527v.553z" transform="translate(-334 -13) translate(334 13)"/>
            </g>
        </g>
    </g>
</svg>
