<?xml version="1.0" encoding="UTF-8"?>
<svg width="26px" height="23px" viewBox="0 0 26 23" version="1.1" xmlns="http://www.w3.org/2000/svg" xmlns:xlink="http://www.w3.org/1999/xlink">
    <title>offline</title>
    <g id="TimesMobile" stroke="none" stroke-width="1" fill="none" fill-rule="evenodd">
        <g id="TN-Msite-offline" transform="translate(-113.000000, -3.000000)" fill="#FFFFFF">
            <g id="offline" transform="translate(113.000000, 4.986073)">
                <path d="M14.8247923,18.0482039 C14.8247923,19.1339577 13.9444514,20.0139271 12.8590691,20.0139271 C11.7733153,20.0139271 10.8929744,19.1339577 10.8929744,18.0482039 C10.8929744,16.9624501 11.7733153,16.0824806 12.8590691,16.0824806 C13.9444514,16.0824806 14.8247923,16.9624501 14.8247923,18.0482039" id="Fill-1"></path>
                <path d="M12.8589205,2.01392713 C7.62739251,2.01392713 2.96752892,4.50451186 0,8.36129653 L1.75399569,10.1152922 C4.26018139,6.69607784 8.3041778,4.47145265 12.8589205,4.47145265 C17.4136632,4.47145265 21.4576596,6.69607784 23.9638454,10.1152922 L25.717841,8.36129653 C22.7503121,4.50451186 18.0904485,2.01392713 12.8589205,2.01392713" id="Fill-3"></path>
                <path d="M12.8589205,6.27336562 C8.66522901,6.27336562 4.94922459,8.35795347 2.69191164,11.5450104 L4.46262266,13.31535 C6.24373433,10.5599201 9.34089995,8.73089113 12.8589205,8.73089113 C16.3769411,8.73089113 19.4741067,10.5599201 21.2552184,13.31535 L23.025558,11.5450104 C20.7686164,8.35795347 17.052612,6.27336562 12.8589205,6.27336562" id="Fill-5"></path>
                <path d="M12.8589205,10.7375484 C9.8913916,10.7375484 7.29865761,12.3656219 5.92168557,14.7744872 L7.75257179,16.6053734 C8.58573831,14.6051052 10.5603764,13.1947024 12.8589205,13.1947024 C15.1574646,13.1947024 17.1321027,14.6051052 17.9652693,16.6053734 L19.7961555,14.7744872 C18.4191834,12.3656219 15.8264494,10.7375484 12.8589205,10.7375484" id="Fill-7"></path>
                <rect id="Rectangle" stroke="#FF0000" transform="translate(11.500000, 9.513927) rotate(-40.000000) translate(-11.500000, -9.513927) " x="10.5" y="-2.98607288" width="2" height="25"></rect>
            </g>
        </g>
    </g>
</svg>