<?xml version="1.0" encoding="UTF-8"?>
<svg width="29px" height="20px" viewBox="0 0 29 20" version="1.1" xmlns="http://www.w3.org/2000/svg" xmlns:xlink="http://www.w3.org/1999/xlink">
    <title>online</title>
    <g id="TimesMobile" stroke="none" stroke-width="1" fill="none" fill-rule="evenodd">
        <g id="TN-Msite-Online" transform="translate(-110.000000, -5.000000)" fill="#FFFFFF">
            <g id="online" transform="translate(110.000000, 5.000000)">
                <path d="M16.4719915,17.8158631 C16.4719915,19.0222562 15.4938349,20 14.2878546,20 C13.0814615,20 12.1033049,19.0222562 12.1033049,17.8158631 C12.1033049,16.60947 13.0814615,15.6317261 14.2878546,15.6317261 C15.4938349,15.6317261 16.4719915,16.60947 16.4719915,17.8158631" id="Fill-1"></path>
                <path d="M14.2876895,0 C8.47488057,0 3.29725435,2.76731636 0,7.05263267 L1.9488841,9.00151676 C4.73353488,5.20238967 9.22686422,2.7305839 14.2876895,2.7305839 C19.3485147,2.7305839 23.8418441,5.20238967 26.6264948,9.00151676 L28.5753789,7.05263267 C25.2781246,2.76731636 20.1004984,0 14.2876895,0" id="Fill-3"></path>
                <path d="M14.2876895,4.73270943 C9.62803223,4.73270943 5.49913844,7.04891815 2.99101293,10.5900926 L4.95846962,12.5571365 C6.93748259,9.49554774 10.3787777,7.46329333 14.2876895,7.46329333 C18.1966012,7.46329333 21.6378963,9.49554774 23.6169093,12.5571365 L25.5839533,10.5900926 C23.0762405,7.04891815 18.9473467,4.73270943 14.2876895,4.73270943" id="Fill-5"></path>
                <path d="M14.2876895,9.69291249 C10.9904351,9.69291249 8.10961957,11.5018831 6.57965063,14.1784001 L8.61396865,16.2127181 C9.53970924,13.9901978 11.7337516,12.4230837 14.2876895,12.4230837 C16.8416274,12.4230837 19.0356697,13.9901978 19.9614103,16.2127181 L21.9957283,14.1784001 C20.4657594,11.5018831 17.5849438,9.69291249 14.2876895,9.69291249" id="Fill-7"></path>
            </g>
        </g>
    </g>
</svg>