<svg width="118" height="118" viewBox="0 0 118 118" xmlns="http://www.w3.org/2000/svg" xmlns:xlink="http://www.w3.org/1999/xlink">
    <defs>
        <radialGradient cx="50.15%" cy="50.082%" fx="50.15%" fy="50.082%" r="49.993%" id="d">
            <stop stop-color="#FFF" offset="15%"/>
            <stop stop-color="#F6F6F6" stop-opacity=".915" offset="22.21%"/>
            <stop stop-color="#DDD" stop-opacity=".775" offset="34.15%"/>
            <stop stop-color="#B4B4B4" stop-opacity=".596" offset="49.34%"/>
            <stop stop-color="#7B7B7B" stop-opacity=".386" offset="67.19%"/>
            <stop stop-color="#333" stop-opacity=".153" offset="87.02%"/>
            <stop stop-opacity="0" offset="100%"/>
        </radialGradient>
        <radialGradient cx="50.144%" cy="50.131%" fx="50.144%" fy="50.131%" r="49.993%" id="e">
            <stop stop-color="#FFF" offset="15%"/>
            <stop stop-color="#F6F6F6" stop-opacity=".915" offset="22.21%"/>
            <stop stop-color="#DDD" stop-opacity=".775" offset="34.15%"/>
            <stop stop-color="#B4B4B4" stop-opacity=".596" offset="49.34%"/>
            <stop stop-color="#7B7B7B" stop-opacity=".386" offset="67.19%"/>
            <stop stop-color="#333" stop-opacity=".153" offset="87.02%"/>
            <stop stop-opacity="0" offset="100%"/>
        </radialGradient>
        <radialGradient cx="50.155%" cy="50.132%" fx="50.155%" fy="50.132%" r="49.993%" id="f">
            <stop stop-color="#FFF" offset="15%"/>
            <stop stop-color="#F6F6F6" stop-opacity=".915" offset="22.21%"/>
            <stop stop-color="#DDD" stop-opacity=".775" offset="34.15%"/>
            <stop stop-color="#B4B4B4" stop-opacity=".596" offset="49.34%"/>
            <stop stop-color="#7B7B7B" stop-opacity=".386" offset="67.19%"/>
            <stop stop-color="#333" stop-opacity=".153" offset="87.02%"/>
            <stop stop-opacity="0" offset="100%"/>
        </radialGradient>
        <radialGradient cx="50.148%" cy="50.199%" fx="50.148%" fy="50.199%" r="49.993%" id="g">
            <stop stop-color="#FFF" offset="15%"/>
            <stop stop-color="#F6F6F6" stop-opacity=".915" offset="22.21%"/>
            <stop stop-color="#DDD" stop-opacity=".775" offset="34.15%"/>
            <stop stop-color="#B4B4B4" stop-opacity=".596" offset="49.34%"/>
            <stop stop-color="#7B7B7B" stop-opacity=".386" offset="67.19%"/>
            <stop stop-color="#333" stop-opacity=".153" offset="87.02%"/>
            <stop stop-opacity="0" offset="100%"/>
        </radialGradient>
        <radialGradient cx="50.298%" cy="50.166%" fx="50.298%" fy="50.166%" r="49.993%" id="h">
            <stop stop-color="#FFF" offset="15%"/>
            <stop stop-color="#F6F6F6" stop-opacity=".915" offset="22.21%"/>
            <stop stop-color="#DDD" stop-opacity=".775" offset="34.15%"/>
            <stop stop-color="#B4B4B4" stop-opacity=".596" offset="49.34%"/>
            <stop stop-color="#7B7B7B" stop-opacity=".386" offset="67.19%"/>
            <stop stop-color="#333" stop-opacity=".153" offset="87.02%"/>
            <stop stop-opacity="0" offset="100%"/>
        </radialGradient>
        <radialGradient cx="50.29%" cy="50.135%" fx="50.29%" fy="50.135%" r="49.993%" id="i">
            <stop stop-color="#FFF" offset="15%"/>
            <stop stop-color="#F6F6F6" stop-opacity=".915" offset="22.21%"/>
            <stop stop-color="#DDD" stop-opacity=".775" offset="34.15%"/>
            <stop stop-color="#B4B4B4" stop-opacity=".596" offset="49.34%"/>
            <stop stop-color="#7B7B7B" stop-opacity=".386" offset="67.19%"/>
            <stop stop-color="#333" stop-opacity=".153" offset="87.02%"/>
            <stop stop-opacity="0" offset="100%"/>
        </radialGradient>
        <radialGradient cx="50.154%" cy="50.188%" fx="50.154%" fy="50.188%" r="49.993%" id="j">
            <stop stop-color="#FFF" offset="15%"/>
            <stop stop-color="#F6F6F6" stop-opacity=".915" offset="22.21%"/>
            <stop stop-color="#DDD" stop-opacity=".775" offset="34.15%"/>
            <stop stop-color="#B4B4B4" stop-opacity=".596" offset="49.34%"/>
            <stop stop-color="#7B7B7B" stop-opacity=".386" offset="67.19%"/>
            <stop stop-color="#333" stop-opacity=".153" offset="87.02%"/>
            <stop stop-opacity="0" offset="100%"/>
        </radialGradient>
        <radialGradient cx="50.237%" cy="50.137%" fx="50.237%" fy="50.137%" r="49.993%" id="k">
            <stop stop-color="#FFF" offset="15%"/>
            <stop stop-color="#F6F6F6" stop-opacity=".915" offset="22.21%"/>
            <stop stop-color="#DDD" stop-opacity=".775" offset="34.15%"/>
            <stop stop-color="#B4B4B4" stop-opacity=".596" offset="49.34%"/>
            <stop stop-color="#7B7B7B" stop-opacity=".386" offset="67.19%"/>
            <stop stop-color="#333" stop-opacity=".153" offset="87.02%"/>
            <stop stop-opacity="0" offset="100%"/>
        </radialGradient>
        <radialGradient cx="50.132%" cy="50.049%" fx="50.132%" fy="50.049%" r="49.993%" id="l">
            <stop stop-color="#FFF" offset="15%"/>
            <stop stop-color="#F6F6F6" stop-opacity=".915" offset="22.21%"/>
            <stop stop-color="#DDD" stop-opacity=".775" offset="34.15%"/>
            <stop stop-color="#B4B4B4" stop-opacity=".596" offset="49.34%"/>
            <stop stop-color="#7B7B7B" stop-opacity=".386" offset="67.19%"/>
            <stop stop-color="#333" stop-opacity=".153" offset="87.02%"/>
            <stop stop-opacity="0" offset="100%"/>
        </radialGradient>
        <radialGradient cx="50.183%" cy="50.105%" fx="50.183%" fy="50.105%" r="49.993%" id="m">
            <stop stop-color="#FFF" offset="15%"/>
            <stop stop-color="#F6F6F6" stop-opacity=".915" offset="22.21%"/>
            <stop stop-color="#DDD" stop-opacity=".775" offset="34.15%"/>
            <stop stop-color="#B4B4B4" stop-opacity=".596" offset="49.34%"/>
            <stop stop-color="#7B7B7B" stop-opacity=".386" offset="67.19%"/>
            <stop stop-color="#333" stop-opacity=".153" offset="87.02%"/>
            <stop stop-opacity="0" offset="100%"/>
        </radialGradient>
        <radialGradient cx="50.058%" cy="50.086%" fx="50.058%" fy="50.086%" r="49.993%" id="n">
            <stop stop-color="#FFF" offset="15%"/>
            <stop stop-color="#F6F6F6" stop-opacity=".915" offset="22.21%"/>
            <stop stop-color="#DDD" stop-opacity=".775" offset="34.15%"/>
            <stop stop-color="#B4B4B4" stop-opacity=".596" offset="49.34%"/>
            <stop stop-color="#7B7B7B" stop-opacity=".386" offset="67.19%"/>
            <stop stop-color="#333" stop-opacity=".153" offset="87.02%"/>
            <stop stop-opacity="0" offset="100%"/>
        </radialGradient>
        <radialGradient cx="50.156%" cy="50.151%" fx="50.156%" fy="50.151%" r="49.993%" id="o">
            <stop stop-color="#FFF" offset="15%"/>
            <stop stop-color="#F6F6F6" stop-opacity=".915" offset="22.21%"/>
            <stop stop-color="#DDD" stop-opacity=".775" offset="34.15%"/>
            <stop stop-color="#B4B4B4" stop-opacity=".596" offset="49.34%"/>
            <stop stop-color="#7B7B7B" stop-opacity=".386" offset="67.19%"/>
            <stop stop-color="#333" stop-opacity=".153" offset="87.02%"/>
            <stop stop-opacity="0" offset="100%"/>
        </radialGradient>
        <radialGradient cx="50.106%" cy="50.184%" fx="50.106%" fy="50.184%" r="49.993%" id="p">
            <stop stop-color="#FFF" offset="15%"/>
            <stop stop-color="#F6F6F6" stop-opacity=".915" offset="22.21%"/>
            <stop stop-color="#DDD" stop-opacity=".775" offset="34.15%"/>
            <stop stop-color="#B4B4B4" stop-opacity=".596" offset="49.34%"/>
            <stop stop-color="#7B7B7B" stop-opacity=".386" offset="67.19%"/>
            <stop stop-color="#333" stop-opacity=".153" offset="87.02%"/>
            <stop stop-opacity="0" offset="100%"/>
        </radialGradient>
        <radialGradient cx="50.169%" cy="50.154%" fx="50.169%" fy="50.154%" r="49.993%" id="q">
            <stop stop-color="#FFF" offset="15%"/>
            <stop stop-color="#F6F6F6" stop-opacity=".915" offset="22.21%"/>
            <stop stop-color="#DDD" stop-opacity=".775" offset="34.15%"/>
            <stop stop-color="#B4B4B4" stop-opacity=".596" offset="49.34%"/>
            <stop stop-color="#7B7B7B" stop-opacity=".386" offset="67.19%"/>
            <stop stop-color="#333" stop-opacity=".153" offset="87.02%"/>
            <stop stop-opacity="0" offset="100%"/>
        </radialGradient>
        <radialGradient cx="49.583%" cy="49.285%" fx="49.583%" fy="49.285%" r="49.876%" id="r">
            <stop stop-color="#FFF" offset="15%"/>
            <stop stop-color="#F6F6F6" stop-opacity=".915" offset="22.21%"/>
            <stop stop-color="#DDD" stop-opacity=".775" offset="34.15%"/>
            <stop stop-color="#B4B4B4" stop-opacity=".596" offset="49.34%"/>
            <stop stop-color="#7B7B7B" stop-opacity=".386" offset="67.19%"/>
            <stop stop-color="#333" stop-opacity=".153" offset="87.02%"/>
            <stop stop-opacity="0" offset="100%"/>
        </radialGradient>
        <radialGradient cx="49.216%" cy="49.715%" fx="49.216%" fy="49.715%" r="49.876%" id="s">
            <stop stop-color="#FFF" offset="15%"/>
            <stop stop-color="#F6F6F6" stop-opacity=".915" offset="22.21%"/>
            <stop stop-color="#DDD" stop-opacity=".775" offset="34.15%"/>
            <stop stop-color="#B4B4B4" stop-opacity=".596" offset="49.34%"/>
            <stop stop-color="#7B7B7B" stop-opacity=".386" offset="67.19%"/>
            <stop stop-color="#333" stop-opacity=".153" offset="87.02%"/>
            <stop stop-opacity="0" offset="100%"/>
        </radialGradient>
        <radialGradient cx="49.672%" cy="49.502%" fx="49.672%" fy="49.502%" r="49.876%" id="t">
            <stop stop-color="#FFF" offset="15%"/>
            <stop stop-color="#F6F6F6" stop-opacity=".915" offset="22.21%"/>
            <stop stop-color="#DDD" stop-opacity=".775" offset="34.15%"/>
            <stop stop-color="#B4B4B4" stop-opacity=".596" offset="49.34%"/>
            <stop stop-color="#7B7B7B" stop-opacity=".386" offset="67.19%"/>
            <stop stop-color="#333" stop-opacity=".153" offset="87.02%"/>
            <stop stop-opacity="0" offset="100%"/>
        </radialGradient>
        <radialGradient cx="49.582%" cy="49.549%" fx="49.582%" fy="49.549%" r="49.876%" id="u">
            <stop stop-color="#FFF" offset="15%"/>
            <stop stop-color="#F6F6F6" stop-opacity=".915" offset="22.21%"/>
            <stop stop-color="#DDD" stop-opacity=".775" offset="34.15%"/>
            <stop stop-color="#B4B4B4" stop-opacity=".596" offset="49.34%"/>
            <stop stop-color="#7B7B7B" stop-opacity=".386" offset="67.19%"/>
            <stop stop-color="#333" stop-opacity=".153" offset="87.02%"/>
            <stop stop-opacity="0" offset="100%"/>
        </radialGradient>
        <radialGradient cx="49.385%" cy="49.166%" fx="49.385%" fy="49.166%" r="49.876%" id="v">
            <stop stop-color="#FFF" offset="15%"/>
            <stop stop-color="#F6F6F6" stop-opacity=".915" offset="22.21%"/>
            <stop stop-color="#DDD" stop-opacity=".775" offset="34.15%"/>
            <stop stop-color="#B4B4B4" stop-opacity=".596" offset="49.34%"/>
            <stop stop-color="#7B7B7B" stop-opacity=".386" offset="67.19%"/>
            <stop stop-color="#333" stop-opacity=".153" offset="87.02%"/>
            <stop stop-opacity="0" offset="100%"/>
        </radialGradient>
        <radialGradient cx="49.721%" cy="49.009%" fx="49.721%" fy="49.009%" r="49.876%" id="w">
            <stop stop-color="#FFF" offset="15%"/>
            <stop stop-color="#F6F6F6" stop-opacity=".915" offset="22.21%"/>
            <stop stop-color="#DDD" stop-opacity=".775" offset="34.15%"/>
            <stop stop-color="#B4B4B4" stop-opacity=".596" offset="49.34%"/>
            <stop stop-color="#7B7B7B" stop-opacity=".386" offset="67.19%"/>
            <stop stop-color="#333" stop-opacity=".153" offset="87.02%"/>
            <stop stop-opacity="0" offset="100%"/>
        </radialGradient>
        <radialGradient cx="49.85%" cy="48.885%" fx="49.85%" fy="48.885%" r="49.876%" id="x">
            <stop stop-color="#FFF" offset="15%"/>
            <stop stop-color="#F6F6F6" stop-opacity=".915" offset="22.21%"/>
            <stop stop-color="#DDD" stop-opacity=".775" offset="34.15%"/>
            <stop stop-color="#B4B4B4" stop-opacity=".596" offset="49.34%"/>
            <stop stop-color="#7B7B7B" stop-opacity=".386" offset="67.19%"/>
            <stop stop-color="#333" stop-opacity=".153" offset="87.02%"/>
            <stop stop-opacity="0" offset="100%"/>
        </radialGradient>
        <radialGradient cx="48.643%" cy="49.185%" fx="48.643%" fy="49.185%" r="49.876%" id="y">
            <stop stop-color="#FFF" offset="15%"/>
            <stop stop-color="#F6F6F6" stop-opacity=".915" offset="22.21%"/>
            <stop stop-color="#DDD" stop-opacity=".775" offset="34.15%"/>
            <stop stop-color="#B4B4B4" stop-opacity=".596" offset="49.34%"/>
            <stop stop-color="#7B7B7B" stop-opacity=".386" offset="67.19%"/>
            <stop stop-color="#333" stop-opacity=".153" offset="87.02%"/>
            <stop stop-opacity="0" offset="100%"/>
        </radialGradient>
        <radialGradient cx="49.571%" cy="48.536%" fx="49.571%" fy="48.536%" r="49.876%" id="z">
            <stop stop-color="#FFF" offset="15%"/>
            <stop stop-color="#F6F6F6" stop-opacity=".915" offset="22.21%"/>
            <stop stop-color="#DDD" stop-opacity=".775" offset="34.15%"/>
            <stop stop-color="#B4B4B4" stop-opacity=".596" offset="49.34%"/>
            <stop stop-color="#7B7B7B" stop-opacity=".386" offset="67.19%"/>
            <stop stop-color="#333" stop-opacity=".153" offset="87.02%"/>
            <stop stop-opacity="0" offset="100%"/>
        </radialGradient>
        <radialGradient cx="48.886%" cy="49.043%" fx="48.886%" fy="49.043%" r="49.876%" id="A">
            <stop stop-color="#FFF" offset="15%"/>
            <stop stop-color="#F6F6F6" stop-opacity=".915" offset="22.21%"/>
            <stop stop-color="#DDD" stop-opacity=".775" offset="34.15%"/>
            <stop stop-color="#B4B4B4" stop-opacity=".596" offset="49.34%"/>
            <stop stop-color="#7B7B7B" stop-opacity=".386" offset="67.19%"/>
            <stop stop-color="#333" stop-opacity=".153" offset="87.02%"/>
            <stop stop-opacity="0" offset="100%"/>
        </radialGradient>
        <radialGradient cx="49.631%" cy="48.82%" fx="49.631%" fy="48.82%" r="49.876%" id="B">
            <stop stop-color="#FFF" offset="15%"/>
            <stop stop-color="#F6F6F6" stop-opacity=".915" offset="22.21%"/>
            <stop stop-color="#DDD" stop-opacity=".775" offset="34.15%"/>
            <stop stop-color="#B4B4B4" stop-opacity=".596" offset="49.34%"/>
            <stop stop-color="#7B7B7B" stop-opacity=".386" offset="67.19%"/>
            <stop stop-color="#333" stop-opacity=".153" offset="87.02%"/>
            <stop stop-opacity="0" offset="100%"/>
        </radialGradient>
        <radialGradient cx="48.335%" cy="49.161%" fx="48.335%" fy="49.161%" r="49.876%" id="C">
            <stop stop-color="#FFF" offset="15%"/>
            <stop stop-color="#F6F6F6" stop-opacity=".915" offset="22.21%"/>
            <stop stop-color="#DDD" stop-opacity=".775" offset="34.15%"/>
            <stop stop-color="#B4B4B4" stop-opacity=".596" offset="49.34%"/>
            <stop stop-color="#7B7B7B" stop-opacity=".386" offset="67.19%"/>
            <stop stop-color="#333" stop-opacity=".153" offset="87.02%"/>
            <stop stop-opacity="0" offset="100%"/>
        </radialGradient>
        <radialGradient cx="49.039%" cy="48.796%" fx="49.039%" fy="48.796%" r="49.876%" id="D">
            <stop stop-color="#FFF" offset="15%"/>
            <stop stop-color="#F6F6F6" stop-opacity=".915" offset="22.21%"/>
            <stop stop-color="#DDD" stop-opacity=".775" offset="34.15%"/>
            <stop stop-color="#B4B4B4" stop-opacity=".596" offset="49.34%"/>
            <stop stop-color="#7B7B7B" stop-opacity=".386" offset="67.19%"/>
            <stop stop-color="#333" stop-opacity=".153" offset="87.02%"/>
            <stop stop-opacity="0" offset="100%"/>
        </radialGradient>
        <radialGradient cx="49.572%" cy="48.893%" fx="49.572%" fy="48.893%" r="49.876%" id="E">
            <stop stop-color="#FFF" offset="15%"/>
            <stop stop-color="#F6F6F6" stop-opacity=".915" offset="22.21%"/>
            <stop stop-color="#DDD" stop-opacity=".775" offset="34.15%"/>
            <stop stop-color="#B4B4B4" stop-opacity=".596" offset="49.34%"/>
            <stop stop-color="#7B7B7B" stop-opacity=".386" offset="67.19%"/>
            <stop stop-color="#333" stop-opacity=".153" offset="87.02%"/>
            <stop stop-opacity="0" offset="100%"/>
        </radialGradient>
        <radialGradient cx="49.779%" cy="48.921%" fx="49.779%" fy="48.921%" r="49.876%" id="F">
            <stop stop-color="#FFF" offset="15%"/>
            <stop stop-color="#F6F6F6" stop-opacity=".915" offset="22.21%"/>
            <stop stop-color="#DDD" stop-opacity=".775" offset="34.15%"/>
            <stop stop-color="#B4B4B4" stop-opacity=".596" offset="49.34%"/>
            <stop stop-color="#7B7B7B" stop-opacity=".386" offset="67.19%"/>
            <stop stop-color="#333" stop-opacity=".153" offset="87.02%"/>
            <stop stop-opacity="0" offset="100%"/>
        </radialGradient>
        <radialGradient cx="49.532%" cy="49.165%" fx="49.532%" fy="49.165%" r="49.876%" id="G">
            <stop stop-color="#FFF" offset="15%"/>
            <stop stop-color="#F6F6F6" stop-opacity=".915" offset="22.21%"/>
            <stop stop-color="#DDD" stop-opacity=".775" offset="34.15%"/>
            <stop stop-color="#B4B4B4" stop-opacity=".596" offset="49.34%"/>
            <stop stop-color="#7B7B7B" stop-opacity=".386" offset="67.19%"/>
            <stop stop-color="#333" stop-opacity=".153" offset="87.02%"/>
            <stop stop-opacity="0" offset="100%"/>
        </radialGradient>
        <radialGradient cx="49.81%" cy="49.466%" fx="49.81%" fy="49.466%" r="49.876%" id="H">
            <stop stop-color="#FFF" offset="15%"/>
            <stop stop-color="#F6F6F6" stop-opacity=".915" offset="22.21%"/>
            <stop stop-color="#DDD" stop-opacity=".775" offset="34.15%"/>
            <stop stop-color="#B4B4B4" stop-opacity=".596" offset="49.34%"/>
            <stop stop-color="#7B7B7B" stop-opacity=".386" offset="67.19%"/>
            <stop stop-color="#333" stop-opacity=".153" offset="87.02%"/>
            <stop stop-opacity="0" offset="100%"/>
        </radialGradient>
        <radialGradient cx="48.943%" cy="49.308%" fx="48.943%" fy="49.308%" r="49.876%" id="I">
            <stop stop-color="#FFF" offset="15%"/>
            <stop stop-color="#F6F6F6" stop-opacity=".915" offset="22.21%"/>
            <stop stop-color="#DDD" stop-opacity=".775" offset="34.15%"/>
            <stop stop-color="#B4B4B4" stop-opacity=".596" offset="49.34%"/>
            <stop stop-color="#7B7B7B" stop-opacity=".386" offset="67.19%"/>
            <stop stop-color="#333" stop-opacity=".153" offset="87.02%"/>
            <stop stop-opacity="0" offset="100%"/>
        </radialGradient>
        <radialGradient cx="48.584%" cy="49.223%" fx="48.584%" fy="49.223%" r="49.876%" id="J">
            <stop stop-color="#FFF" offset="15%"/>
            <stop stop-color="#F6F6F6" stop-opacity=".915" offset="22.21%"/>
            <stop stop-color="#DDD" stop-opacity=".775" offset="34.15%"/>
            <stop stop-color="#B4B4B4" stop-opacity=".596" offset="49.34%"/>
            <stop stop-color="#7B7B7B" stop-opacity=".386" offset="67.19%"/>
            <stop stop-color="#333" stop-opacity=".153" offset="87.02%"/>
            <stop stop-opacity="0" offset="100%"/>
        </radialGradient>
        <radialGradient cx="49.313%" cy="49.651%" fx="49.313%" fy="49.651%" r="49.876%" id="K">
            <stop stop-color="#FFF" offset="15%"/>
            <stop stop-color="#F6F6F6" stop-opacity=".915" offset="22.21%"/>
            <stop stop-color="#DDD" stop-opacity=".775" offset="34.15%"/>
            <stop stop-color="#B4B4B4" stop-opacity=".596" offset="49.34%"/>
            <stop stop-color="#7B7B7B" stop-opacity=".386" offset="67.19%"/>
            <stop stop-color="#333" stop-opacity=".153" offset="87.02%"/>
            <stop stop-opacity="0" offset="100%"/>
        </radialGradient>
        <radialGradient cx="49.458%" cy="49.239%" fx="49.458%" fy="49.239%" r="49.876%" id="L">
            <stop stop-color="#FFF" offset="15%"/>
            <stop stop-color="#F6F6F6" stop-opacity=".915" offset="22.21%"/>
            <stop stop-color="#DDD" stop-opacity=".775" offset="34.15%"/>
            <stop stop-color="#B4B4B4" stop-opacity=".596" offset="49.34%"/>
            <stop stop-color="#7B7B7B" stop-opacity=".386" offset="67.19%"/>
            <stop stop-color="#333" stop-opacity=".153" offset="87.02%"/>
            <stop stop-opacity="0" offset="100%"/>
        </radialGradient>
        <radialGradient cx="49.159%" cy="49.527%" fx="49.159%" fy="49.527%" r="49.876%" id="M">
            <stop stop-color="#FFF" offset="15%"/>
            <stop stop-color="#F6F6F6" stop-opacity=".915" offset="22.21%"/>
            <stop stop-color="#DDD" stop-opacity=".775" offset="34.15%"/>
            <stop stop-color="#B4B4B4" stop-opacity=".596" offset="49.34%"/>
            <stop stop-color="#7B7B7B" stop-opacity=".386" offset="67.19%"/>
            <stop stop-color="#333" stop-opacity=".153" offset="87.02%"/>
            <stop stop-opacity="0" offset="100%"/>
        </radialGradient>
        <radialGradient cx="48.82%" cy="49.336%" fx="48.82%" fy="49.336%" r="49.876%" id="N">
            <stop stop-color="#FFF" offset="15%"/>
            <stop stop-color="#F6F6F6" stop-opacity=".915" offset="22.21%"/>
            <stop stop-color="#DDD" stop-opacity=".775" offset="34.15%"/>
            <stop stop-color="#B4B4B4" stop-opacity=".596" offset="49.34%"/>
            <stop stop-color="#7B7B7B" stop-opacity=".386" offset="67.19%"/>
            <stop stop-color="#333" stop-opacity=".153" offset="87.02%"/>
            <stop stop-opacity="0" offset="100%"/>
        </radialGradient>
        <radialGradient cx="49.129%" cy="49.283%" fx="49.129%" fy="49.283%" r="49.876%" id="O">
            <stop stop-color="#FFF" offset="15%"/>
            <stop stop-color="#F6F6F6" stop-opacity=".915" offset="22.21%"/>
            <stop stop-color="#DDD" stop-opacity=".775" offset="34.15%"/>
            <stop stop-color="#B4B4B4" stop-opacity=".596" offset="49.34%"/>
            <stop stop-color="#7B7B7B" stop-opacity=".386" offset="67.19%"/>
            <stop stop-color="#333" stop-opacity=".153" offset="87.02%"/>
            <stop stop-opacity="0" offset="100%"/>
        </radialGradient>
        <filter x="-11.8%" y="-11.8%" width="123.5%" height="123.5%" filterUnits="objectBoundingBox" id="b">
            <feOffset in="SourceAlpha" result="shadowOffsetOuter1"/>
            <feGaussianBlur stdDeviation="4" in="shadowOffsetOuter1" result="shadowBlurOuter1"/>
            <feComposite in="shadowBlurOuter1" in2="SourceAlpha" operator="out" result="shadowBlurOuter1"/>
            <feColorMatrix values="0 0 0 0 0 0 0 0 0 0 0 0 0 0 0 0 0 0 0.152808129 0" in="shadowBlurOuter1"/>
        </filter>
        <circle id="a" cx="51" cy="51" r="51"/>
    </defs>
    <g fill="none" fill-rule="evenodd">
        <g transform="translate(8 8)">
            <mask id="c" fill="#fff">
                <use xlink:href="#a"/>
            </mask>
            <use fill="#000" filter="url(#b)" xlink:href="#a"/>
            <circle stroke="#FFF" stroke-width="3" stroke-linejoin="square" fill="#38256B" cx="51" cy="51" r="49.5"/>
            <g mask="url(#c)" fill-rule="nonzero">
                <g transform="translate(8 10)">
                    <circle fill="url(#d)" cx="61" cy="1" r="1"/>
                    <circle fill="url(#e)" cx="31" cy="71" r="1"/>
                    <circle fill="url(#f)" cx="1" cy="46" r="1"/>
                    <circle fill="url(#g)" cx="2" cy="34" r="1"/>
                    <circle fill="url(#h)" cx="82" cy="24" r="1"/>
                    <circle fill="url(#i)" cx="80" cy="54" r="1"/>
                    <circle fill="url(#j)" cx="43" cy="84" r="1"/>
                    <circle fill="url(#k)" cx="69" cy="67" r="1"/>
                    <circle fill="url(#l)" cx="33" cy="2" r="1"/>
                    <circle fill="url(#m)" cx="23" cy="29" r="1"/>
                    <circle fill="url(#n)" cx="8" cy="12" r="1"/>
                    <circle fill="url(#o)" cx="12" cy="40" r="1"/>
                    <circle fill="url(#p)" cx="7" cy="65" r="1"/>
                    <circle fill="url(#q)" cx="46" cy="21" r="1"/>
                    <circle fill="url(#q)" cx="53" cy="70" r="1"/>
                    <circle fill="url(#r)" cx="30.5" cy="19.5" r="1"/>
                    <circle fill="url(#s)" cx="40.5" cy="7.5" r="1"/>
                    <circle fill="url(#t)" cx="15.5" cy="5.5" r="1"/>
                    <circle fill="url(#u)" cx="26.5" cy="10.5" r="1"/>
                    <circle fill="url(#v)" cx="47.5" cy="40.5" r="1"/>
                    <circle fill="url(#w)" cx="25.5" cy="57.5" r="1"/>
                    <circle fill="url(#x)" cx="13.5" cy="57.5" r="1"/>
                    <circle fill="url(#y)" cx="77.5" cy="42.5" r="1"/>
                    <circle fill="url(#z)" cx="27.5" cy="81.5" r="1"/>
                    <circle fill="url(#A)" cx="70.5" cy="52.5" r="1"/>
                    <circle fill="url(#B)" cx="22.5" cy="68.5" r="1"/>
                    <circle fill="url(#C)" cx="78.5" cy="39.5" r="1"/>
                    <circle fill="url(#D)" cx="61.5" cy="52.5" r="1"/>
                    <circle fill="url(#E)" cx="22.5" cy="50.5" r="1"/>
                    <circle fill="url(#F)" cx="4.5" cy="52.5" r="1"/>
                    <circle fill="url(#G)" cx="24.5" cy="43.5" r="1"/>
                    <circle fill="url(#H)" cx="7.5" cy="23.5" r="1"/>
                    <circle fill="url(#I)" cx="69.5" cy="33.5" r="1"/>
                    <circle fill="url(#J)" cx="88.5" cy="39.5" r="1"/>
                    <circle fill="url(#K)" cx="49.5" cy="6.5" r="1"/>
                    <circle fill="url(#L)" cx="34.5" cy="32.5" r="1"/>
                    <circle fill="url(#M)" cx="60.5" cy="7.5" r="1"/>
                    <circle fill="url(#s)" cx="44.5" cy="74.5" r="1"/>
                    <circle fill="url(#K)" cx="57.5" cy="78.5" r="1"/>
                    <circle fill="url(#M)" cx="61.5" cy="65.5" r="1"/>
                    <circle fill="url(#N)" cx="69.5" cy="19.5" r="1"/>
                    <circle fill="url(#O)" cx="59.5" cy="35.5" r="1"/>
                </g>
            </g>
        </g>
        <g fill="#FFF">
            <path d="M75.083 47.561c.732.292 1.124.332 1.834.406l.15.015c.269.028.561.105.844.18.363.094.739.193 1.03.176a1.473 1.473 0 0 0-.008-.119c-.09-2.186-.766-3.565-2.409-4.916a5.413 5.413 0 0 0-.171-.136c-.674-.518-1.494-.948-2.576-1.356-.067-.024-.154-.047-.198-.01-.14.121-.022.701.043 1.012.031.156.058.29.063.372.011.19.018.403.024.63.035 1.194.083 2.83.993 3.53.115.088.244.162.381.216M55.65 46.866c.598-.638 1.772-.901 2.769-.136.145.112.283.243.41.39.717.829.447 1.826-.138 2.446-.627.663-1.7.997-2.54.353a1.924 1.924 0 0 1-.282-.268c-1.01-1.152-.749-2.22-.219-2.785M43.512 70.434c.016-.155-.677-.776-1.288-1.325-1.86-1.668-4.97-4.46-5.1-7.496-.057-1.291.441-2.506 1.478-3.61 4.03-4.296 10.49-3.943 13.981-3.352.467.08 1.192.273 2.111.519 3.214.857 8.59 2.29 10.735.802.54-.375.837-.901.905-1.61.355-3.635-3.085-7.099-6.033-9.364a34.211 34.211 0 0 0-1.001-.739c-2.231-1.582-5.168-3.439-8.112-3.758-1.567-.17-3.984-.214-5.642.216-5.95 1.544-10.232 4.04-13.086 7.63-.977 1.23-3.269 4.443-3.446 7.716-.13 2.406.654 3.681 1.74 5.447.173.282.353.575.538.887.663 1.118 1.61 2.128 2.98 3.18.862.663 1.79 1.266 2.689 1.848l.43.279c.24.156.503.332.783.519 1.844 1.233 4.632 3.097 5.338 2.211"/>
            <path d="M42.657 67.563c.271.312 1.052 1.22 1.58 1.836l.518.602c.188.238.38.433.57.58.434.334.883.432 1.334.294 1.332-.41 2.44-2.729 2.913-4.11-1.256-.456-5.82-.039-6.915.798M44.742 71.876c-.738-.277-1.13-.31-1.842-.368l-.15-.013a5.957 5.957 0 0 1-.846-.162c-.366-.088-.743-.18-1.035-.156.003.05.007.086.012.118.133 2.184.837 3.549 2.505 4.867l.069.053c.703.541 1.563.98 2.708 1.384.067.024.155.043.199.006.138-.124.006-.702-.064-1.012a3.301 3.301 0 0 1-.071-.37c-.015-.19-.026-.402-.037-.628-.057-1.182-.138-2.8-1.037-3.492a1.586 1.586 0 0 0-.41-.227M57.911 48.902a.483.483 0 0 0 .168-.39c-.011-.243-.199-.527-.5-.758-.317-.243-.687-.371-.947-.328a.407.407 0 0 0-.282.177c-.206.313-.012 1.13.442 1.48.334.256.721.193 1.119-.181M46.653 55.388l-.241.038c-.99.153-1.645.254-1.933.659-.215.302-.245.8-.069 1.654.31.238 1.943-.045 4.065-.705 1.96-.61 3.213-1.187 3.524-1.442l-.52-.064c-1.64-.204-3.188-.397-4.826-.14M36.143 43.832l.474-.3c.916-.582 1.863-1.185 2.844-1.696 2.682-1.394 5.583-2.19 8.023-2.21a1.447 1.447 0 0 0-.685-.219c-2.934-.794-10.36-.454-12.22 1.262-.329.302-.457.62-.392.97.106.57.65 1.355 1.266 1.83.241.184.479.31.69.363M61.46 70.27a.484.484 0 0 0-.177.39c.01.249.208.55.516.786.31.24.662.363.915.323a.404.404 0 0 0 .28-.171c.218-.317.034-1.145-.426-1.499-.326-.25-.71-.192-1.109.17M83.121 75.77l-.498.303c-.92.56-1.873 1.14-2.858 1.627-2.709 1.34-5.625 2.079-8.066 2.05.304.192.556.224.68.233 2.92.852 10.35.66 12.245-1.018.333-.295.468-.61.409-.963-.095-.584-.656-1.414-1.276-1.891a1.93 1.93 0 0 0-.636-.34"/>
            <path d="M63.69 72.336c-.595.624-1.76.879-2.742.125a2.81 2.81 0 0 1-.441-.429c-.693-.835-.414-1.82.17-2.426.63-.654 1.702-.98 2.533-.342.108.084.213.183.306.295.978 1.163.705 2.224.175 2.777m24.65-15.03c-.688-1.213-1.722-2.328-3.255-3.505-.75-.577-1.545-1.115-2.313-1.635l-.423-.286a80.28 80.28 0 0 1-.771-.535c-1.821-1.27-4.57-3.189-5.295-2.318-.018.155.662.79 1.263 1.351 1.824 1.705 4.88 4.558 4.949 7.597.03 1.29-.491 2.495-1.55 3.578-4.116 4.215-10.566 3.734-14.045 3.072-.465-.088-1.187-.295-2.101-.56-3.195-.919-8.542-2.46-10.716-1.015-.548.364-.855.885-.938 1.592-.445 3.787 3.206 7.461 6.348 9.876.166.127.327.247.485.365 2.197 1.626 5.097 3.54 8.035 3.919 1.563.2 3.98.294 5.645-.104 5.98-1.425 10.31-3.836 13.235-7.368 1.002-1.21 3.358-4.377 3.6-7.645.177-2.402-.581-3.694-1.631-5.481a81.965 81.965 0 0 1-.522-.898"/>
            <path d="M75.033 49.435a3.258 3.258 0 0 0-.595-.62c-.42-.322-.859-.419-1.305-.287-1.334.396-2.483 2.682-2.98 4.047 1.247.482 5.817.155 6.93-.66-.26-.31-.988-1.192-1.501-1.816l-.55-.664M72.844 64.008l.244-.034c.992-.133 1.648-.221 1.943-.62.222-.298.262-.794.13-1.61 0-.01-.006-.026-.03-.044-.33-.254-2.137.042-4.394.72-1.906.573-2.98 1.066-3.246 1.276l.532.076c1.636.236 3.18.46 4.821.236"/>
        </g>
    </g>
</svg>
