<svg width="71.482" height="36.666" viewBox="0 0 71.482 36.666" xmlns="http://www.w3.org/2000/svg" xmlns:xlink="http://www.w3.org/1999/xlink">
    <defs>
        <path id="0ye5a0seua" d="M0 0h71.482v36.666H0z"/>
    </defs>
    <g fill="none" fill-rule="evenodd">
        <g>
            <mask id="kkiymt90nb" fill="#fff">
                <use xlink:href="#0ye5a0seua"/>
            </mask>
            <path d="M13.887 29.59C10.474 32.603 1.925 30.847.626 25.77c-.839-3.277-1.124-7.478 1.02-10.332 2.293-3.055 5.936-2.503 9.268-2.182-.264-3.152-.205-9.69 8.084-12.676 6.719-2.422 12.662 3.332 13.998 6.413 4.245-4.41 15.388-2.99 17.54 3.46 7.265-5.6 20.978-.684 20.946 11.026-.018 7.073-5.328 12.583-13.068 12.928-2.042.09-4.241-.015-6.167-.75-.407-.156-3.622-1.805-3.328-2.169-.002 0-1.211 1.894-3.797 3.453-4.776 2.878-13.645 2.318-17.888-2.91-8.446 5.374-13.347-2.44-13.347-2.44" fill="#F7F7F7" mask="url(#kkiymt90nb)"/>
        </g>
        <path d="M67.712 12.213c2.366 7.392 1.376 11.91-2.26 14.945-3.933 3.283-10.165 4.22-14.962 1.949-.586-.278-2.037-1.441-2.368-1.48-.336-.04-1.426 1.815-2.519 2.79-1.69 1.51-4 2.572-6.34 2.925-3.523.531-7.056-.887-9.74-3.125-.397-.331-.723-.728-1.093-1.089-.393-.383-.694-.675-1.267-.444-.704.282-1.335.736-2.045 1.025-1.328.541-2.693 1.03-4.154.828a6.563 6.563 0 0 1-2.476-.888c-1.352-.808-3.12-3.339-4.823-2.813-1.678.518-3.187 1.989-5.006 1.903-6.436-.303-9.395-6.39-7.702-12.18-1.375 2.762-1.066 6.34-.33 9.211 1.298 5.077 9.847 6.833 13.26 3.82 0 0 4.9 7.815 13.347 2.442 4.243 5.227 13.112 5.787 17.888 2.909 2.586-1.559 3.795-3.452 3.797-3.453-.294.364 2.921 2.013 3.328 2.169 1.926.735 4.125.84 6.167.75 7.74-.345 13.05-5.855 13.068-12.928.012-3.882-1.494-7.012-3.77-9.266" fill="#D1E5EF"/>
    </g>
</svg>
