<svg xmlns="http://www.w3.org/2000/svg" width="22" height="14" viewBox="0 0 22 14">
    <g fill="none" fill-rule="evenodd">
        <g fill="red" fill-rule="nonzero">
            <g>
                <g>
                    <g>
                        <path d="M7.376 6.609L.918.15c-.213-.206-.554-.2-.76.013-.202.209-.202.54 0 .748l6.077 6.077-6.077 6.077c-.21.21-.21.551 0 .761.21.21.55.21.76 0L7.376 7.37c.21-.21.21-.551 0-.761z" opacity=".4" transform="translate(-192 -181) translate(131.5 180.198) translate(16.5) translate(44 .802)"/>
                        <path d="M14.376 6.609L7.918.15c-.213-.206-.554-.2-.76.013-.202.209-.202.54 0 .748l6.077 6.077-6.077 6.077c-.21.21-.21.551 0 .761.21.21.55.21.76 0l6.458-6.457c.21-.21.21-.551 0-.761z" opacity=".7" transform="translate(-192 -181) translate(131.5 180.198) translate(16.5) translate(44 .802)"/>
                        <path d="M21.376 6.609L14.918.15c-.213-.206-.554-.2-.76.013-.202.209-.202.54 0 .748l6.077 6.077-6.077 6.077c-.21.21-.21.551 0 .761.21.21.55.21.76 0l6.458-6.457c.21-.21.21-.551 0-.761z" transform="translate(-192 -181) translate(131.5 180.198) translate(16.5) translate(44 .802)"/>
                    </g>
                </g>
            </g>
        </g>
    </g>
</svg>
