<svg xmlns="http://www.w3.org/2000/svg" width="14" height="14" viewBox="0 0 14 14">
    <g fill="none" fill-rule="evenodd">
        <g fill="#8E8E93">
            <g>
                <g>
                    <path d="M13.743 12.574L9.91 8.74c.687-.938 1.055-2.07 1.05-3.232C10.947 2.474 8.494.018 5.46 0 4.01-.007 2.616.568 1.59 1.595.564 2.622-.008 4.017 0 5.468c.013 3.033 2.467 5.49 5.5 5.508 1.167.005 2.304-.367 3.242-1.061l.004-.003 3.83 3.831c.206.217.515.305.805.23.29-.076.517-.303.592-.593.076-.29-.013-.6-.23-.806zM5.496 9.878c-2.426-.014-4.39-1.98-4.4-4.406-.006-1.161.451-2.276 1.272-3.098.82-.822 1.935-1.281 3.096-1.276 2.427.014 4.39 1.979 4.4 4.406.007 1.16-.451 2.276-1.272 3.098-.82.821-1.935 1.28-3.096 1.276z" transform="translate(-330 -119) translate(16 108) translate(15 6) translate(299 5)"/>
                </g>
            </g>
        </g>
    </g>
</svg>
