<svg xmlns="http://www.w3.org/2000/svg" width="53" height="75" viewBox="0 0 53 75">
    <g fill="none" fill-rule="evenodd">
        <g fill="#FFF" fill-rule="nonzero">
            <g>
                <g>
                    <path d="M59.9 32.385H59.8c-1.34-.007-2.637.486-3.635 1.382-.807-2.235-2.86-3.842-5.264-3.842-1.473.01-2.88.616-3.902 1.679-.938-1.9-2.821-3.19-4.986-3.19h-.105c-1.16-.017-2.293.36-3.21 1.07V5.937c0-3.274-2.55-5.937-5.65-5.937-3.096 0-5.632 2.661-5.634 5.933L27.39 42.81l-1.52-1.847c-1.335-1.66-3.298-2.692-5.422-2.848-2.081-.142-4.128.582-5.656 2.002l-1.323 1.096c-.427.354-.549.957-.293 1.45l12.868 24.734c2.353 4.52 6.83 7.34 11.683 7.34h14.502v-.012c7.353 0 13.315-6.38 13.322-14.215.003-3.505-.01-6.118-.008-8.235.007-5.665.002-7.756-.013-13.997-.007-3.266-2.538-5.894-5.63-5.894zm3.272 19.883l-.01 8.246c-.006 6.54-4.942 11.871-11.003 11.871H37.727c-3.973 0-7.65-2.335-9.596-6.074l-12.43-23.886.613-.512c.016-.012.03-.027.045-.04 1.056-.994 2.476-1.504 3.922-1.409 1.478.113 2.841.836 3.766 1.995l3.6 4.382c.316.384.838.528 1.306.36.468-.166.78-.61.78-1.106l.021-40.16c.002-1.976 1.495-3.583 3.297-3.583 1.801 0 3.295 1.609 3.295 3.585v28.185c0 .063-.003.127-.003.192l.003.082v7.775c0 .65.526 1.177 1.176 1.177.65 0 1.177-.527 1.177-1.177v-8.01c0-1.905 1.455-3.394 3.21-3.394h.105c1.802 0 3.302 1.572 3.302 3.548v7.114c0 .65.527 1.177 1.177 1.177s1.176-.527 1.176-1.177v-5.582c0-1.976 1.428-3.584 3.24-3.584 1.803 0 3.23 1.607 3.23 3.584v5.266c0 .65.527 1.177 1.177 1.177s1.177-.527 1.177-1.177v-2.851c0-1.977 1.506-3.524 3.308-3.524h.099c1.798 0 3.263 1.573 3.268 3.544.014 6.237.011 8.325.004 13.986z" transform="translate(-161 -180) translate(131.5 180.198) translate(16.5)"/>
                </g>
            </g>
        </g>
    </g>
</svg>
