<?xml version="1.0" encoding="UTF-8"?>
<svg width="22.7322404px" height="16px" viewBox="0 0 22.7322404 16" version="1.1" xmlns="http://www.w3.org/2000/svg" xmlns:xlink="http://www.w3.org/1999/xlink">
    <title>shorts-icon copy</title>
    <g id="New-Header-design" stroke="none" stroke-width="1" fill="none" fill-rule="evenodd">
        <g id="TimesNow-Languages-02-Text-ad-01-space" transform="translate(-1171, -147)">
            <g id="Header" transform="translate(0, 100)">
                <g id="header" transform="translate(0, 40)">
                    <g id="shorts-icon-copy" transform="translate(1171, 7)">
                        <rect id="Rectangle" stroke="#232323" stroke-width="0.7" x="0.35" y="0.35" width="22.0322404" height="15.3" rx="1"></rect>
                        <rect id="Rectangle" fill="#232323" x="17.6612022" y="0" width="1" height="15.7377049"></rect>
                        <rect id="Rectangle-Copy-15" fill="#232323" x="4.3715847" y="0" width="1" height="15.7377049"></rect>
                        <polygon id="Rectangle-Copy-18" fill="#232323" transform="translate(2.2951, 5.3552) rotate(90) translate(-2.2951, -5.3552)" points="1.92349727 3.16939891 2.66666667 3.16939891 2.66666667 7.54098361 1.92349727 7.54098361"></polygon>
                        <polygon id="Rectangle-Copy-19" fill="#232323" transform="translate(2.2951, 10.4262) rotate(90) translate(-2.2951, -10.4262)" points="1.92349727 8.24043716 2.66666667 8.24043716 2.66666667 12.6120219 1.92349727 12.6120219"></polygon>
                        <polygon id="Rectangle-Copy-21" fill="#232323" transform="translate(19.9563, 5.3552) rotate(90) translate(-19.9563, -5.3552)" points="19.5846995 3.16939891 20.3278689 3.16939891 20.3278689 7.54098361 19.5846995 7.54098361"></polygon>
                        <polygon id="Rectangle-Copy-20" fill="#232323" transform="translate(19.9563, 10.4262) rotate(90) translate(-19.9563, -10.4262)" points="19.5846995 8.24043716 20.3278689 8.24043716 20.3278689 12.6120219 19.5846995 12.6120219"></polygon>
                        <path d="M13.1562091,8.01310903 L10.487756,5.17623981 C10.4120759,5.09578324 10.2855021,5.09191116 10.2050455,5.16759127 C10.1648627,5.20538854 10.1420765,5.25810474 10.1420765,5.31327077 L10.1420765,10.7984243 C10.1420765,10.9088813 10.2316196,10.9984243 10.3420765,10.9984243 C10.394857,10.9984243 10.4454977,10.9775607 10.4829604,10.9403811 L13.1514135,8.2920968 C13.228333,8.2157586 13.2304596,8.09204575 13.1562091,8.01310903 Z" id="Path" stroke="#EA2217" stroke-width="0.7"></path>
                    </g>
                </g>
            </g>
        </g>
    </g>
</svg>