<svg xmlns="http://www.w3.org/2000/svg" xmlns:xlink="http://www.w3.org/1999/xlink" width="40" zoomAndPan="magnify" viewBox="0 0 30 30.000001" height="40" preserveAspectRatio="xMidYMid meet" version="1.0"><defs><clipPath id="4869fe88f8"><path d="M 0.484375 0 L 29.515625 0 L 29.515625 29.03125 L 0.484375 29.03125 Z M 0.484375 0 " clip-rule="nonzero"/></clipPath><clipPath id="df2a213d72"><path d="M 1.644531 1.304688 L 28.5 1.304688 L 28.5 28 L 1.644531 28 Z M 1.644531 1.304688 " clip-rule="nonzero"/></clipPath><clipPath id="a3f5e9d3ce"><path d="M 6.289062 21.410156 L 9.410156 21.410156 L 9.410156 24.53125 L 6.289062 24.53125 Z M 6.289062 21.410156 " clip-rule="nonzero"/></clipPath><clipPath id="6d36bd6dc6"><path d="M 7.851562 21.410156 C 6.988281 21.410156 6.289062 22.109375 6.289062 22.972656 C 6.289062 23.832031 6.988281 24.53125 7.851562 24.53125 C 8.710938 24.53125 9.410156 23.832031 9.410156 22.972656 C 9.410156 22.109375 8.710938 21.410156 7.851562 21.410156 Z M 7.851562 21.410156 " clip-rule="nonzero"/></clipPath><clipPath id="24f83f82be"><path d="M 6.289062 19.851562 L 9.410156 19.851562 L 9.410156 22.972656 L 6.289062 22.972656 Z M 6.289062 19.851562 " clip-rule="nonzero"/></clipPath><clipPath id="4a55ce7a33"><path d="M 7.851562 19.851562 C 6.988281 19.851562 6.289062 20.550781 6.289062 21.410156 C 6.289062 22.273438 6.988281 22.972656 7.851562 22.972656 C 8.710938 22.972656 9.410156 22.273438 9.410156 21.410156 C 9.410156 20.550781 8.710938 19.851562 7.851562 19.851562 Z M 7.851562 19.851562 " clip-rule="nonzero"/></clipPath></defs><g clip-path="url(#4869fe88f8)"><path fill="#ffffff" d="M 0.484375 0 L 29.515625 0 L 29.515625 29.03125 L 0.484375 29.03125 Z M 0.484375 0 " fill-opacity="1" fill-rule="nonzero"/><path fill="#ffffff" d="M 0.484375 0 L 29.515625 0 L 29.515625 29.03125 L 0.484375 29.03125 Z M 0.484375 0 " fill-opacity="1" fill-rule="nonzero"/></g><g clip-path="url(#df2a213d72)"><path fill="#224099" d="M 14.925781 1.304688 C 14.054688 1.304688 13.191406 1.390625 12.335938 1.5625 C 11.480469 1.730469 10.648438 1.984375 9.84375 2.316406 C 9.039062 2.652344 8.273438 3.058594 7.546875 3.542969 C 6.820312 4.027344 6.152344 4.578125 5.535156 5.195312 C 4.917969 5.8125 4.367188 6.484375 3.882812 7.207031 C 3.398438 7.933594 2.988281 8.699219 2.65625 9.503906 C 2.324219 10.308594 2.070312 11.140625 1.898438 11.996094 C 1.730469 12.851562 1.644531 13.714844 1.644531 14.585938 C 1.644531 15.457031 1.730469 16.320312 1.898438 17.175781 C 2.070312 18.03125 2.324219 18.863281 2.65625 19.667969 C 2.988281 20.472656 3.398438 21.238281 3.882812 21.964844 C 4.367188 22.6875 4.917969 23.359375 5.535156 23.976562 C 6.152344 24.59375 6.820312 25.144531 7.546875 25.628906 C 8.273438 26.113281 9.039062 26.523438 9.84375 26.855469 C 10.648438 27.1875 11.480469 27.441406 12.335938 27.609375 C 13.191406 27.78125 14.054688 27.867188 14.925781 27.867188 C 15.796875 27.867188 16.660156 27.78125 17.515625 27.609375 C 18.371094 27.441406 19.203125 27.1875 20.007812 26.855469 C 20.8125 26.523438 21.578125 26.113281 22.304688 25.628906 C 23.027344 25.144531 23.699219 24.59375 24.316406 23.976562 C 24.933594 23.359375 25.484375 22.6875 25.96875 21.964844 C 26.453125 21.238281 26.859375 20.472656 27.195312 19.667969 C 27.527344 18.863281 27.78125 18.03125 27.949219 17.175781 C 28.121094 16.320312 28.207031 15.457031 28.207031 14.585938 C 28.207031 13.714844 28.121094 12.851562 27.949219 11.996094 C 27.78125 11.140625 27.527344 10.308594 27.195312 9.503906 C 26.859375 8.699219 26.453125 7.933594 25.96875 7.207031 C 25.484375 6.484375 24.933594 5.8125 24.316406 5.195312 C 23.699219 4.578125 23.027344 4.027344 22.304688 3.542969 C 21.578125 3.058594 20.8125 2.652344 20.007812 2.316406 C 19.203125 1.984375 18.371094 1.730469 17.515625 1.5625 C 16.660156 1.390625 15.796875 1.304688 14.925781 1.304688 Z M 22.507812 15.53125 L 17.195312 20.839844 C 17.070312 20.96875 16.925781 21.0625 16.765625 21.132812 C 16.601562 21.199219 16.429688 21.234375 16.253906 21.234375 C 16.074219 21.234375 15.90625 21.199219 15.742188 21.132812 C 15.578125 21.0625 15.433594 20.96875 15.308594 20.839844 C 15.183594 20.714844 15.085938 20.574219 15.019531 20.410156 C 14.953125 20.246094 14.917969 20.074219 14.917969 19.898438 C 14.917969 19.722656 14.953125 19.550781 15.019531 19.386719 C 15.085938 19.222656 15.183594 19.082031 15.308594 18.957031 L 18.363281 15.914062 L 8.285156 15.914062 C 8.109375 15.914062 7.941406 15.878906 7.777344 15.8125 C 7.613281 15.746094 7.46875 15.648438 7.347656 15.527344 C 7.222656 15.402344 7.125 15.257812 7.058594 15.09375 C 6.992188 14.933594 6.957031 14.761719 6.957031 14.585938 C 6.957031 14.410156 6.992188 14.242188 7.058594 14.078125 C 7.125 13.914062 7.222656 13.773438 7.347656 13.648438 C 7.46875 13.523438 7.613281 13.425781 7.777344 13.359375 C 7.941406 13.292969 8.109375 13.257812 8.285156 13.257812 L 18.363281 13.257812 L 15.308594 10.21875 C 15.183594 10.09375 15.089844 9.949219 15.019531 9.785156 C 14.953125 9.621094 14.917969 9.453125 14.917969 9.273438 C 14.917969 9.097656 14.953125 8.925781 15.019531 8.765625 C 15.089844 8.601562 15.183594 8.457031 15.308594 8.332031 C 15.433594 8.207031 15.578125 8.109375 15.742188 8.042969 C 15.90625 7.976562 16.078125 7.941406 16.253906 7.941406 C 16.429688 7.941406 16.601562 7.976562 16.761719 8.042969 C 16.925781 8.109375 17.070312 8.207031 17.195312 8.332031 L 22.507812 13.644531 C 22.628906 13.769531 22.722656 13.917969 22.785156 14.082031 C 22.925781 14.417969 22.925781 14.753906 22.785156 15.089844 C 22.722656 15.253906 22.628906 15.402344 22.507812 15.53125 Z M 22.507812 15.53125 " fill-opacity="1" fill-rule="nonzero"/></g><g clip-path="url(#a3f5e9d3ce)"><g clip-path="url(#6d36bd6dc6)"><path fill="#224099" d="M 6.289062 21.410156 L 9.410156 21.410156 L 9.410156 24.53125 L 6.289062 24.53125 Z M 6.289062 21.410156 " fill-opacity="1" fill-rule="nonzero"/></g></g><g clip-path="url(#24f83f82be)"><g clip-path="url(#4a55ce7a33)"><path fill="#224099" d="M 6.289062 19.851562 L 9.410156 19.851562 L 9.410156 22.972656 L 6.289062 22.972656 Z M 6.289062 19.851562 " fill-opacity="1" fill-rule="nonzero"/></g></g></svg>