<svg xmlns="http://www.w3.org/2000/svg" xmlns:xlink="http://www.w3.org/1999/xlink" width="36" height="36" viewBox="0 0 36 36">
  <defs>
    <filter id="Ellipse_3" x="-18.5" y="-17.5" width="74" height="74" filterUnits="userSpaceOnUse">
      <feOffset dy="2" input="SourceAlpha"/>
      <feGaussianBlur stdDeviation="6.5" result="blur"/>
      <feFlood flood-opacity="0.161"/>
      <feComposite operator="in" in2="blur"/>
      <feComposite in="SourceGraphic"/>
    </filter>
    <clipPath id="clip-Web_1920_2">
      <rect width="36" height="36"/>
    </clipPath>
  </defs>
  <g id="Web_1920_2" data-name="Web 1920 – 2" clip-path="url(#clip-Web_1920_2)">
    <g id="Group_2" data-name="Group 2" transform="translate(1 0)">
      <g transform="matrix(1, 0, 0, 1, -1, 0)" filter="url(#Ellipse_3)">
        <g id="Ellipse_3-2" data-name="Ellipse 3" transform="translate(1 0)" fill="none" stroke="#aeaeae" stroke-width="1">
          <circle cx="17.5" cy="17.5" r="17.5" stroke="none"/>
          <circle cx="17.5" cy="17.5" r="17" fill="none"/>
        </g>
      </g>
      <g id="arrow-left-short" transform="translate(13.199 13.222)">
        <path id="Path_3019" data-name="Path 3019" d="M9.163,10.288a.56.56,0,0,0,0,.794l2.967,2.965L9.163,17.013a.561.561,0,0,0,.794.794l3.362-3.362a.56.56,0,0,0,0-.794L9.957,10.288a.56.56,0,0,0-.794,0Z" transform="translate(-4.516 -10.123)" fill="#929292" fill-rule="evenodd"/>
        <path id="Path_3020" data-name="Path 3020" d="M18.531,17.435a.56.56,0,0,0-.56-.56H10.685a.56.56,0,1,0,0,1.121h7.285A.56.56,0,0,0,18.531,17.435Z" transform="translate(-10.125 -13.512)" fill="#929292" fill-rule="evenodd"/>
      </g>
    </g>
  </g>
</svg>
