<svg xmlns="http://www.w3.org/2000/svg" xmlns:xlink="http://www.w3.org/1999/xlink" width="40" zoomAndPan="magnify" viewBox="0 0 30 30.000001" height="40" preserveAspectRatio="xMidYMid meet" version="1.0"><defs><clipPath id="be7bfdd91c"><path d="M 2.226562 2.902344 L 27.628906 2.902344 L 27.628906 28.304688 L 2.226562 28.304688 Z M 2.226562 2.902344 " clip-rule="nonzero"/></clipPath><clipPath id="615897c81a"><path d="M 2.804688 3.484375 L 27.484375 3.484375 L 27.484375 28 L 2.804688 28 Z M 2.804688 3.484375 " clip-rule="nonzero"/></clipPath></defs><g clip-path="url(#be7bfdd91c)"><path fill="#224099" d="M 14.996094 2.902344 C 7.949219 2.902344 2.226562 8.628906 2.226562 15.671875 C 2.226562 22.71875 7.949219 28.441406 14.996094 28.441406 C 22.039062 28.441406 27.765625 22.71875 27.765625 15.671875 C 27.765625 8.628906 22.039062 2.902344 14.996094 2.902344 Z M 14.996094 3.457031 C 21.75 3.457031 27.210938 8.921875 27.210938 15.671875 C 27.210938 22.425781 21.75 27.886719 14.996094 27.886719 C 8.242188 27.886719 2.78125 22.425781 2.78125 15.671875 C 2.78125 8.921875 8.242188 3.457031 14.996094 3.457031 Z M 14.996094 3.457031 " fill-opacity="1" fill-rule="nonzero"/></g><g clip-path="url(#615897c81a)"><path fill="#ffffff" d="M 2.804688 15.675781 C 2.804688 8.941406 8.265625 3.484375 14.996094 3.484375 C 21.730469 3.484375 27.1875 8.941406 27.1875 15.675781 C 27.1875 22.40625 21.730469 27.867188 14.996094 27.867188 C 8.265625 27.867188 2.804688 22.40625 2.804688 15.675781 Z M 2.804688 15.675781 " fill-opacity="1" fill-rule="nonzero"/></g><path fill="#224099" d="M 22.609375 14.609375 L 18.4375 10.4375 C 17.121094 9.121094 15.085938 11.167969 16.40625 12.492188 L 18.109375 14.191406 L 8.527344 14.191406 C 6.664062 14.191406 6.644531 17.082031 8.507812 17.082031 L 18.109375 17.082031 L 16.398438 18.789062 C 15.082031 20.109375 17.128906 22.140625 18.453125 20.820312 L 22.625 16.648438 C 23.179688 16.09375 23.164062 15.164062 22.609375 14.609375 " fill-opacity="1" fill-rule="nonzero"/></svg>