<?xml version="1.0" encoding="UTF-8"?>
<svg width="838px" height="100px" viewBox="0 0 838 100" version="1.1" xmlns="http://www.w3.org/2000/svg" xmlns:xlink="http://www.w3.org/1999/xlink">
    <title>SportsNow</title>
    <defs>
        <polygon id="path-1" points="0 0 66 0 66 64 0 64"></polygon>
        <polygon id="path-3" points="0 0 54 0 54 64 0 64"></polygon>
    </defs>
    <g id="Sports-Now" stroke="none" stroke-width="1" fill="none" fill-rule="evenodd">
        <g id="logo-01-copy" transform="translate(0, 0)">
            <g id="Group-52" transform="translate(402, 0)">
                <polygon id="Fill-1" fill="#FFFFFF" points="8.38814233 88.7428357 129.626724 88.7428357 129.626724 10.2237395 8.38814233 10.2237395"></polygon>
                <polygon id="Fill-2" fill="#FFFFFF" points="157.548337 88.7428357 278.786919 88.7428357 278.786919 10.2237395 157.548337 10.2237395"></polygon>
                <polygon id="Fill-3" fill="#FFFFFF" points="300.830297 88.7428357 431.621009 88.7428357 431.621009 10.2237395 300.830297 10.2237395"></polygon>
                <path d="M44.079899,34.6872738 C43.9505779,34.7587899 43.7957844,34.7587899 43.6919356,34.7587899 L43.6919356,80.9337065 L23.2542948,80.9337065 L23.2542948,17.2716309 C23.5021603,17.2442001 23.686345,17.1775823 23.8421182,17.1775823 C34.0046055,17.1775823 44.1837479,17.1521109 54.3707278,17.1775823 C54.7851433,17.1775823 55.4229318,17.4528704 55.7511332,17.8692313 C57.4068358,19.7404063 58.9959185,21.6889754 60.5947982,23.6767315 C65.8852091,29.9926818 71.2412602,36.4056198 76.5248131,42.8077813 C81.2665887,48.5545418 86.0181614,54.4012289 90.800105,60.1685625 C91.6691039,61.2187717 92.6674241,62.1621966 93.5961851,63.1810563 C93.7000339,63.091906 93.8636447,63.032146 94.0478294,62.9390771 L94.0478294,17.2716309 L114.480572,17.2716309 L114.480572,80.9934666 C114.093588,81.0522469 113.907444,81.1100476 113.639005,81.1100476 C103.561752,81.1100476 93.5119304,81.1355191 83.4111645,81.0816371 C82.9693172,81.0816371 82.4089256,80.8631701 82.1600803,80.5398781 C79.6794655,77.6498434 77.217465,74.7039674 74.7966122,71.7218435 C72.3884956,68.8053576 70.0117295,65.8555629 67.5722623,62.8822561 C63.4202695,57.9123761 59.2369261,52.9503335 55.0584812,47.9618398 C51.3934022,43.5356782 47.742039,39.1134353 44.079899,34.6872738 L44.079899,34.6872738 Z M0,99.9785452 L139.308274,99.9785452 L139.308274,0 L0,0 L0,99.9785452 Z" id="Fill-28" fill="#224099"></path>
                <path d="M217.876263,81.803362 C211.958841,81.803362 206.028682,81.737724 200.104402,81.803362 C194.199715,81.9199431 188.438066,81.2351518 182.974247,79.1543269 C179.241568,77.7367404 176.396503,75.2473919 174.556616,71.8978907 C172.361095,67.9880166 171.818338,63.5736111 171.698814,59.2062299 C171.608681,52.4406098 171.490137,45.6377621 171.792866,38.8721419 C171.94472,35.2620478 172.543321,31.560844 173.702312,28.1946884 C175.487336,22.9318863 179.926383,19.7988928 185.366689,18.175575 C189.753811,16.8177485 194.237924,16.4004079 198.835683,16.4004079 C210.867449,16.4004079 222.878641,16.4248998 234.89767,16.4004079 C240.95813,16.3670991 246.879471,16.7579885 252.533353,18.9887034 C256.512917,20.5179726 259.489263,23.0514064 261.443776,26.6634599 C263.338527,30.3519278 263.921452,34.3274399 263.973376,38.3636918 C263.998849,44.4357036 264.057631,50.4538334 263.921452,56.5660118 C263.921452,59.4805383 263.830339,62.5155646 263.338527,65.4055992 C262.367639,71.4482209 259.391293,76.2985807 253.347488,78.9133274 C248.975062,80.8080145 244.223489,81.6524924 239.490531,81.737724 C232.253444,81.9199431 225.095715,81.803362 217.876263,81.803362 L217.876263,81.803362 Z M147.794975,99.9792309 L287.885054,99.9792309 L287.885054,0.000685770938 L147.794975,0.000685770938 L147.794975,99.9792309 Z" id="Fill-29" fill="#224099"></path>
                <path d="M217.993044,65.3727802 L233.038385,65.3727802 C235.210392,65.3727802 237.268754,64.9289884 239.11354,63.7817916 C240.864274,62.7511759 241.799893,61.1660653 242.155526,59.3908983 C243.24006,54.3289291 243.526134,49.242468 242.791355,44.1609054 C242.487646,41.9115767 242.018367,39.6504919 241.320817,37.5765247 C240.590936,35.4643502 238.689327,34.4778197 236.564346,33.6617523 C234.158188,32.7379209 231.667776,32.8251118 229.199898,32.8251118 C220.433491,32.8251118 211.676881,32.5743155 202.870307,32.9083839 C196.822583,33.1826923 193.715937,35.9894548 193.224124,41.4560289 C192.760724,46.7256887 192.990954,52.0796004 193.199632,57.3717927 C193.312298,60.0433603 194.349806,62.6982735 197.149805,64.0257301 C198.803548,64.7712611 200.784513,65.2219106 202.698858,65.2542398 C207.773734,65.4629101 212.932864,65.3727802 217.993044,65.3727802" id="Fill-30" fill="#034EA1"></path>
                <path d="M428.264244,17.1774844 C427.269842,20.1909578 426.339122,22.9634318 425.408402,25.7878283 C424.293496,29.1157767 423.08454,32.372209 421.982371,35.7422834 C420.790069,39.054557 419.770195,42.3051112 418.633737,45.637958 C417.318972,49.4253729 415.878804,53.2558935 414.578735,57.0344913 C413.538287,60.2331229 412.649694,63.3533807 411.589653,66.4834352 C410.13185,70.9164545 408.622124,75.3298803 407.122194,79.7246924 C406.782237,80.5946418 406.400151,81.162852 405.155925,81.162852 C398.079511,81.0815391 391.047183,81.1099497 384.003099,81.1354211 C383.061602,81.162852 382.564891,80.9012794 382.278817,79.9333627 C381.465661,77.2333845 380.457544,74.6176582 379.500372,71.9637247 C378.714648,69.9436394 377.868182,67.9294322 377.150058,65.855465 C375.733403,62.0964605 374.364754,58.3119846 372.987288,54.4550129 C371.892957,51.4454582 370.797646,48.4643139 369.734665,45.4890477 C368.897017,43.3239709 368.108354,41.1814266 367.134526,38.7812283 C366.767137,39.596316 366.428158,40.1655059 366.232217,40.7405738 C364.975255,44.0508881 363.790791,47.3582634 362.510315,50.6685777 C361.621722,53.1589059 360.632219,55.69136 359.724032,58.1807085 C358.378896,61.9465706 357.057273,65.7388839 355.672949,69.498868 C354.552166,72.6250038 353.475469,75.821676 352.211649,78.7891049 C351.821726,79.6913835 351.998073,81.162852 350.250278,81.1354211 C343.183661,81.1099497 336.172887,81.1354211 329.096472,81.1099497 C328.627193,81.1099497 328.091294,81.052149 327.542659,81.052149 C320.336923,59.7805141 313.169397,38.5892124 305.912716,17.2441021 C306.652394,17.1774844 307.105018,17.1520129 307.593891,17.1520129 C313.169397,17.1520129 318.793887,17.1774844 324.384088,17.118704 C325.725305,17.058944 326.162254,17.5693535 326.47478,18.6881398 C327.477998,22.1081774 328.478278,25.567402 329.53636,28.9786226 C330.63657,32.525038 331.813196,36.1400305 332.878136,39.7148564 C334.26344,44.3780988 335.636008,49.0707314 337.016413,53.7672827 C337.86092,56.4349316 338.670156,59.1466658 339.484292,61.8211725 C339.665537,62.4511021 339.983942,63.032048 340.383662,63.8961194 C340.72362,63.2730475 340.961688,62.9389791 341.043983,62.6147074 C341.952171,60.1958954 342.824109,57.7104656 343.660777,55.2044626 C344.641463,52.4731349 345.654478,49.7261325 346.667494,47.0281137 C348.087088,43.0888495 349.525296,39.1407682 350.902762,35.2299145 C351.969661,32.1635387 353.058115,29.0648338 354.147547,25.9906206 C355.101781,23.3572602 356.155944,20.7297778 357.057273,18.0758443 C357.360982,17.1774844 358.00171,17.058944 358.809967,17.058944 C363.950483,17.118704 369.148801,17.1520129 374.293236,17.058944 C375.869582,17.058944 376.882598,17.058944 377.451807,19.0457203 C378.471681,22.8595864 380.067621,26.5088675 381.399041,30.2649329 C383.439768,35.8069418 385.472658,41.3969546 387.502608,46.9340651 C388.501908,49.7261325 389.542355,52.4408057 390.542635,55.1544993 C391.562508,58.0122048 392.536336,60.9022394 393.484691,63.7814977 L393.981402,63.7814977 C398.672233,48.1949039 403.427724,32.6788466 408.06859,17.1774844 L428.264244,17.1774844 Z M297.37948,100 L436,100 L436,0.000881705492 L297.37948,0.000881705492 C297.361845,0.551457802 297.307961,1.08733881 297.307961,1.66240672 L297.307961,94.5608568 C297.307961,96.3889262 297.361845,98.1680119 297.37948,100 L297.37948,100 Z" id="Fill-31" fill="#224099"></path>
            </g>
            <g id="Group-51">
                <polygon id="Fill-24" fill="#B52025" points="0 100 403 100 403 0 0 0"></polygon>
                <g id="Group-15" transform="translate(20, 18)">
                    <path d="M0,53.7451989 L9.54439357,42.341265 C15.6439563,47.2036956 22.4481014,49.7678608 29.6073261,49.7678608 C34.2029125,49.7678608 36.6773161,48.1761818 36.6773161,45.524623 L36.6773161,45.346117 C36.6773161,42.7838113 34.6453679,41.3687789 26.2480118,39.4256661 C13.0803181,36.4189546 2.91685888,32.7075162 2.91685888,19.977803 L2.91685888,19.8011563 C2.91685888,8.30796944 12.0187971,0 26.8670775,0 C37.3837574,0 45.604503,2.82820535 52.3212724,8.22057584 L43.7473061,20.3310962 C38.0920577,16.3537581 31.9051193,14.2321392 26.4246222,14.2321392 C22.271491,14.2321392 20.2395428,16.0004649 20.2395428,18.2094773 L20.2395428,18.3861239 C20.2395428,21.2143293 22.3607257,22.4527151 30.932833,24.3976873 C45.1620477,27.4917923 54,32.0883233 54,43.6689038 L54,43.843691 C54,56.4860106 44.0131511,64 28.9882604,64 C18.0291252,64 7.59982098,60.5526018 0,53.7451989" id="Fill-1" fill="#FEFEFE"></path>
                    <path d="M87.1634396,31.8230062 C93.2359055,31.8230062 96.9300968,28.6333914 96.9300968,23.7614039 L96.9300968,23.5862732 C96.9300968,18.2708696 93.2359055,15.4371056 87.0764522,15.4371056 L79.0680524,15.4371056 L79.0680524,31.8230062 L87.1634396,31.8230062 Z M62,1 L88.3960706,1 C103.968679,1 114,9.05973917 114,22.7870064 L114,22.9658633 C114,37.5799627 102.824886,45.2857143 87.5150911,45.2857143 L79.0680524,45.2857143 L79.0680524,63 L62,63 L62,1 Z" id="Fill-3" fill="#FEFEFE"></path>
                    <g id="Group-7" transform="translate(119, 0)">
                        <mask id="mask-2" fill="white">
                            <use xlink:href="#path-1"></use>
                        </mask>
                        <g id="Clip-6"></g>
                        <path d="M48.6682104,32.175307 L48.6682104,31.9996302 C48.6682104,23.1214771 42.2790347,15.3842989 32.9125401,15.3842989 C23.6325847,15.3842989 17.4183289,22.943951 17.4183289,31.8239533 L17.4183289,31.9996302 C17.4183289,40.8777832 23.8075045,48.6149614 33.0874599,48.6149614 C42.4521133,48.6149614 48.6682104,41.0553093 48.6682104,32.175307 M0,32.175307 L0,31.9996302 C0,14.3283886 14.1795508,-0.00129446098 33.0874599,-0.00129446098 C51.9953689,-0.00129446098 66,14.1527117 66,31.8239533 L66,31.9996302 C66,49.6708717 51.8186079,64.0005548 32.9125401,64.0005548 C14.0046311,64.0005548 0,49.8465486 0,32.175307" id="Fill-5" fill="#FEFEFE" mask="url(#mask-2)"></path>
                    </g>
                    <path d="M222.5,30.7600745 C228.342239,30.7600745 231.704599,27.9243622 231.704599,23.4080897 L231.704599,23.2310905 C231.704599,18.3589566 228.165371,15.8791057 222.410635,15.8791057 L211.17112,15.8791057 L211.17112,30.7600745 L222.5,30.7600745 Z M194,1 L223.296838,1 C232.76767,1 239.317383,3.47985095 243.476581,7.72969318 C247.105174,11.273402 248.963222,16.0561048 248.963222,22.1672326 L248.963222,22.3442318 C248.963222,31.8239324 243.919683,38.1120594 236.219395,41.389338 L251,63 L231.173994,63 L218.694539,44.2231872 L218.515809,44.2231872 L211.17112,44.2231872 L211.17112,63 L194,63 L194,1 Z" id="Fill-8" fill="#FEFEFE"></path>
                    <polygon id="Fill-10" fill="#FEFEFE" points="272.469254 16.0561048 254 16.0561048 254 1 308 1 308 16.0561048 289.530746 16.0561048 289.530746 63 272.469254 63"></polygon>
                    <g id="Group-14" transform="translate(309, 0)">
                        <mask id="mask-4" fill="white">
                            <use xlink:href="#path-3"></use>
                        </mask>
                        <g id="Clip-13"></g>
                        <path d="M0,53.7451989 L9.54638409,42.341265 C15.6441718,47.2036956 22.4502696,49.7678608 29.6077338,49.7678608 C34.2033835,49.7678608 36.6778212,48.1761818 36.6778212,45.524623 L36.6778212,45.346117 C36.6778212,42.7838113 34.645845,41.3687789 26.2483733,39.4256661 C13.0804982,36.4189546 2.91689905,32.7075162 2.91689905,19.977803 L2.91689905,19.8011563 C2.91689905,8.30796944 12.0208217,0 26.8674475,0 C37.3842722,0 45.6051311,2.82820535 52.3219929,8.22057584 L43.7479085,20.3310962 C38.0925823,16.3537581 31.9055587,14.2321392 26.4268451,14.2321392 C22.2717977,14.2321392 20.2398215,16.0004649 20.2398215,18.2094773 L20.2398215,18.3861239 C20.2398215,21.2143293 22.3610336,22.4527151 30.933259,24.3976873 C45.1626696,27.4917923 54.0007436,32.0883233 54.0007436,43.6689038 L54.0007436,43.843691 C54.0007436,56.4860106 44.0137572,64 28.9886596,64 C18.0293735,64 7.59992564,60.5526018 0,53.7451989" id="Fill-12" fill="#FEFEFE" mask="url(#mask-4)"></path>
                    </g>
                </g>
            </g>
        </g>
    </g>
</svg>