<svg width="0" height="0" class="hidden">

<symbol id="Links" xmlns="http://www.w3.org/2000/svg" width="33.509" height="33.509" viewBox="0 0 33.509 33.509">
  <g id="Group_3025" data-name="Group 3025" transform="translate(-312.277 -813.71)">
    <path id="Path_2865" data-name="Path 2865" d="M1260.754,2097.548A16.754,16.754,0,1,0,1244,2080.794,16.756,16.756,0,0,0,1260.754,2097.548Zm0-2.1a14.652,14.652,0,1,1,14.652-14.651A14.677,14.677,0,0,1,1260.754,2095.445Z" transform="translate(-931.722 -1250.33)" fill="#224099"/>
    <path id="Path_2866" data-name="Path 2866" d="M1260.2,2077.765H1248.96v-2.086h11.254l-4.188-4.188,1.48-1.48,6.712,6.711-6.729,6.712-1.48-1.48Z" transform="matrix(0.799, -0.602, 0.602, 0.799, -1924.951, -71.376)" fill="#224099"/>
  </g>
</symbol>

<symbol id="DownloadBrochure" data-name="Group 1201" xmlns="http://www.w3.org/2000/svg" xmlns:xlink="http://www.w3.org/1999/xlink" width="20.12" height="18.439" viewBox="0 0 20.12 18.439">
  <defs>
    <clipPath id="clip-path">
      <rect id="Rectangle_1968" data-name="Rectangle 1968" width="20.12" height="18.439" fill="#fff"/>
    </clipPath>
  </defs>
  <g id="Group_1200" data-name="Group 1200" clip-path="url(#clip-path)">
    <path id="Path_3747" data-name="Path 3747" d="M10.063,174.756H2.676A2.522,2.522,0,0,1,0,172.084q0-1.545,0-3.09a.849.849,0,0,1,.832-.941.849.849,0,0,1,.844.931c0,1.048,0,2.1,0,3.143a.854.854,0,0,0,.953.954H17.483a.857.857,0,0,0,.959-.973c0-1.039,0-2.078,0-3.117a.843.843,0,1,1,1.676,0q0,1.585,0,3.169a2.512,2.512,0,0,1-2.616,2.6q-3.72,0-7.439,0" transform="translate(0 -156.317)" fill="#fff"/>
    <path id="Path_3748" data-name="Path 3748" d="M76.959,12.487v-.346q0-5.564,0-11.127A1.554,1.554,0,0,1,77,.6a.82.82,0,0,1,.875-.6.847.847,0,0,1,.756.778c.007.1,0,.192,0,.288q0,5.537,0,11.075V12.5c.417-.332.791-.627,1.163-.924q.839-.67,1.676-1.341a.837.837,0,1,1,1.046,1.3q-2.062,1.655-4.13,3.3a.839.839,0,0,1-1.186,0q-2.016-1.608-4.028-3.22a.835.835,0,1,1,1.044-1.3c.835.661,1.665,1.327,2.5,1.99.065.052.134.1.241.177" transform="translate(-67.737 0)" fill="#fff"/>
  </g>
</symbol>

 <symbol id="menuIcon" viewBox="0 0 18 14" fill="none" xmlns="http://www.w3.org/2000/svg">
    <path d="M1 1H17" stroke="#224099" stroke-width="2" stroke-linecap="round"/>
    <path d="M1 7H17" stroke="#224099" stroke-width="2" stroke-linecap="round"/>
    <path d="M1 13H17" stroke="#224099" stroke-width="2" stroke-linecap="round"/>
  </symbol>

<symbol id="Login_Icon" data-name="Navigation Login Icon" xmlns="http://www.w3.org/2000/svg" width="20" height="20" viewBox="0 0 20 20">
  <path id="Path_163" data-name="Path 163" d="M1262,26a10,10,0,1,1-10,10A10,10,0,0,1,1262,26Zm-3.51,14.565h7.02a1.085,1.085,0,0,0,.37-.062v0a1.145,1.145,0,0,0,.77-1.062v-.329a3.347,3.347,0,0,0-1.37-2.674c-2.63-2.029-7.93-.934-7.93,2.674v.329A1.145,1.145,0,0,0,1258.49,40.565Zm-.26-.876a.376.376,0,0,0,.26.106h7.02a.368.368,0,0,0,.37-.362h0v-.322c0-2.919-4.55-3.716-6.69-2.067a2.616,2.616,0,0,0-1.07,2.39A.346.346,0,0,0,1258.23,39.689Zm7.65-.255v0Zm0,1.069ZM1262,30.346a2.189,2.189,0,0,0-2.15,2.227,2.146,2.146,0,0,0,3.68,1.569A2.243,2.243,0,0,0,1262,30.346Zm.97,1.19a1.4,1.4,0,1,0,0,2.073A1.508,1.508,0,0,0,1262.97,31.536Zm5.56-2.062a9.233,9.233,0,1,0,0,13.054A9.237,9.237,0,0,0,1268.53,29.473Z" transform="translate(-1252 -26)" fill="#a6302d" fill-rule="evenodd"/>
</symbol>



<symbol id="fb" xmlns="http://www.w3.org/2000/svg" width="23" height="22.86" viewBox="0 0 23 22.86">
  <path id="Path_165" data-name="Path 165" d="M183.5,3212.07a11.5,11.5,0,1,0-13.3,11.36v-8.04h-2.92v-3.32h2.92v-2.53c0-2.89,1.717-4.48,4.344-4.48a17.282,17.282,0,0,1,2.574.23v2.83h-1.45a1.657,1.657,0,0,0-1.874,1.79v2.16h3.189l-.51,3.32H173.8v8.04A11.5,11.5,0,0,0,183.5,3212.07Z" transform="translate(-160.5 -3200.57)"/>
</symbol>


<symbol id="insta" xmlns="http://www.w3.org/2000/svg" width="19.5" height="19.49" viewBox="0 0 19.5 19.49">
  <path id="Path_166" data-name="Path 166" d="M208.5,3211.74a3.25,3.25,0,1,1,3.249,3.25A3.244,3.244,0,0,1,208.5,3211.74Zm-1.757,0a5.007,5.007,0,1,0,5.006-5A5.006,5.006,0,0,0,206.744,3211.74Zm9.041-5.2a1.171,1.171,0,0,0,.2.65,1.181,1.181,0,0,0,1.2.5,1.233,1.233,0,0,0,.6-.32,1.174,1.174,0,0,0-.176-1.8,1.163,1.163,0,0,0-.65-.2h0a1.176,1.176,0,0,0-.827.35A1.161,1.161,0,0,0,215.785,3206.54Zm-7.974,13.14a5.642,5.642,0,0,1-1.81-.34,3.084,3.084,0,0,1-1.122-.73,2.961,2.961,0,0,1-.729-1.12,5.352,5.352,0,0,1-.336-1.81c-.047-1.02-.056-1.33-.056-3.94s.01-2.91.056-3.93a5.4,5.4,0,0,1,.336-1.81,2.973,2.973,0,0,1,.729-1.12,2.84,2.84,0,0,1,1.122-.73,5.371,5.371,0,0,1,1.81-.34c1.028-.05,1.337-.05,3.939-.05s2.912.01,3.941.05a5.377,5.377,0,0,1,1.81.34,3.231,3.231,0,0,1,1.851,1.85,5.378,5.378,0,0,1,.336,1.81c.047,1.02.056,1.33.056,3.93s-.009,2.91-.056,3.94a5.4,5.4,0,0,1-.336,1.81,2.973,2.973,0,0,1-.729,1.12,3.076,3.076,0,0,1-1.122.73,5.642,5.642,0,0,1-1.81.34c-1.028.04-1.337.05-3.941.05S208.839,3219.72,207.811,3219.68Zm-.081-17.62a7.256,7.256,0,0,0-2.366.45,5.031,5.031,0,0,0-2.852,2.85,7.155,7.155,0,0,0-.453,2.37c-.048,1.04-.059,1.37-.059,4.01s.011,2.98.059,4.02a7.155,7.155,0,0,0,.453,2.37,4.734,4.734,0,0,0,1.125,1.72,4.828,4.828,0,0,0,1.727,1.13,7.261,7.261,0,0,0,2.366.45c1.041.05,1.372.06,4.02.06s2.981-.01,4.02-.06a7.263,7.263,0,0,0,2.367-.45,4.837,4.837,0,0,0,1.727-1.13,4.747,4.747,0,0,0,1.125-1.72,7.155,7.155,0,0,0,.453-2.37c.047-1.04.058-1.37.058-4.02s-.011-2.97-.058-4.01a7.181,7.181,0,0,0-.453-2.37,4.76,4.76,0,0,0-1.125-1.72,4.711,4.711,0,0,0-1.726-1.13,7.274,7.274,0,0,0-2.367-.45c-1.04-.05-1.372-.06-4.02-.06S208.771,3202.01,207.73,3202.06Z" transform="translate(-202 -3202)"/>
</symbol>


<!-- 
<symbol id="twitter" xmlns="http://www.w3.org/2000/svg" width="19.5" height="16.073" viewBox="0 0 19.5 16.073">
  <path id="Path_167" data-name="Path 167" d="M261.413,3205.93a7.974,7.974,0,0,1-1.973.56c.318-.05.785-.62.971-.85a3.645,3.645,0,0,0,.635-1.18c0-.03.032-.08,0-.1a.093.093,0,0,0-.052-.01.092.092,0,0,0-.052.01,9.85,9.85,0,0,1-2.336.91.133.133,0,0,1-.088,0,.205.205,0,0,1-.076-.04,2.123,2.123,0,0,0-.2-.22,4.434,4.434,0,0,0-1.115-.72,3.967,3.967,0,0,0-1.738-.28,4.147,4.147,0,0,0-1.651.45,4.236,4.236,0,0,0-1.306,1.11,4.164,4.164,0,0,0-.794,1.59,4.31,4.31,0,0,0-.04,1.67c0,.1,0,.11-.082.1a12.481,12.481,0,0,1-8.056-4.09c-.1-.11-.145-.11-.222,0a4.086,4.086,0,0,0,.694,4.82,5.907,5.907,0,0,0,.5.43,3.844,3.844,0,0,1-1.552-.43c-.09-.06-.14-.02-.145.09a2.6,2.6,0,0,0,0,.45,4.127,4.127,0,0,0,2.54,3.28,2.314,2.314,0,0,0,.513.16,4.561,4.561,0,0,1-1.52.05c-.109-.03-.149.03-.109.14a4.283,4.283,0,0,0,3.175,2.67c.146.03.291.03.454.06l-.027.03c-.313.57-1.579.96-2.159,1.16a7.765,7.765,0,0,1-3.311.42c-.177-.02-.218-.02-.263,0s0,.08.05.12c.226.15.453.28.689.41a11.041,11.041,0,0,0,2.213.91,11.818,11.818,0,0,0,11.453-2.68,12.027,12.027,0,0,0,3.175-8.77c0-.12.15-.2.236-.26a7.814,7.814,0,0,0,1.556-1.62.5.5,0,0,0,.108-.33C261.5,3205.88,261.5,3205.89,261.413,3205.93Z" transform="translate(-242 -3204.001)"/>
</symbol> -->


<svg id="linkedin" xmlns="http://www.w3.org/2000/svg" width="19.5" height="19.5" viewBox="0 0 19.5 19.5">
  <path id="Path_168" data-name="Path 168" d="M283.441,3202a1.423,1.423,0,0,0-1.441,1.4v16.7a1.423,1.423,0,0,0,1.441,1.4h16.618a1.423,1.423,0,0,0,1.441-1.4v-16.7a1.423,1.423,0,0,0-1.441-1.4Zm4.485,7.54v8.78h-2.918v-8.78Zm.192-2.71a1.519,1.519,0,0,1-1.651,1.51h-.019a1.521,1.521,0,1,1,1.67-1.51Zm4.341,11.49h-2.918s.038-7.96,0-8.78h2.918v1.24a2.9,2.9,0,0,1,2.63-1.45c1.919,0,3.359,1.26,3.359,3.96v5.03H295.53v-4.7c0-1.18-.422-1.98-1.478-1.98a1.592,1.592,0,0,0-1.5,1.07,1.94,1.94,0,0,0-.1.71Z" transform="translate(-282 -3202)" fill-rule="evenodd"/>
</svg>



<symbol id="LocationIcon" data-name="Group 1344" xmlns="http://www.w3.org/2000/svg" xmlns:xlink="http://www.w3.org/1999/xlink" width="13.679" height="18.255" viewBox="0 0 13.679 18.255">
  <defs>
    <clipPath id="clip-path">
      <rect id="Rectangle_1996" data-name="Rectangle 1996" width="13.679" height="18.255" fill="none"/>
    </clipPath>
  </defs>
  <g id="Group_1310" data-name="Group 1310" clip-path="url(#clip-path)">
    <path id="Path_3758" data-name="Path 3758" d="M7.3,0c.362.06.727.1,1.085.182a6.875,6.875,0,0,1,5.2,5.494,7.538,7.538,0,0,1-.522,4.1,18.994,18.994,0,0,1-2.4,4.21,33.847,33.847,0,0,1-3.531,4.1c-.235.233-.346.233-.58,0A31.185,31.185,0,0,1,1.81,12.155,13.135,13.135,0,0,1,.16,8.275,6.83,6.83,0,0,1,6.259.029.763.763,0,0,0,6.378,0ZM9.978,6.843a3.137,3.137,0,1,0-3.1,3.137,3.139,3.139,0,0,0,3.1-3.137" transform="translate(0)"/>
  </g>
</symbol>



<symbol id="arrowleft" xmlns="http://www.w3.org/2000/svg" width="11.53" height="10.09" viewBox="0 0 11.53 10.09">
  <path id="Path_3019" data-name="Path 3019" d="M14.554,10.335a.721.721,0,0,1,0,1.02l-3.815,3.813,3.815,3.813A.721.721,0,0,1,13.533,20L9.21,15.679a.721.721,0,0,1,0-1.02l4.323-4.323a.721.721,0,0,1,1.02,0Z" transform="translate(-8.998 -10.123)" fill="#929292" fill-rule="evenodd"/>
  <path id="Path_3020" data-name="Path 3020" d="M10.125,17.6a.721.721,0,0,1,.721-.721h9.367a.721.721,0,1,1,0,1.441H10.846A.721.721,0,0,1,10.125,17.6Z" transform="translate(-9.403 -12.551)" fill="#929292" fill-rule="evenodd"/>
</symbol>



<symbol id="arrowright" xmlns="http://www.w3.org/2000/svg" width="11.53" height="10.09" viewBox="0 0 11.53 10.09">
  <g id="arrow-left-short" transform="translate(0)">
    <path id="Path_3019" data-name="Path 3019" d="M9.21,10.335a.721.721,0,0,0,0,1.02l3.815,3.813L9.21,18.981A.721.721,0,0,0,10.23,20l4.323-4.323a.721.721,0,0,0,0-1.02L10.23,10.335a.721.721,0,0,0-1.02,0Z" transform="translate(-3.236 -10.123)" fill="#929292" fill-rule="evenodd"/>
    <path id="Path_3020" data-name="Path 3020" d="M20.933,17.6a.721.721,0,0,0-.721-.721H10.846a.721.721,0,1,0,0,1.441h9.367A.721.721,0,0,0,20.933,17.6Z" transform="translate(-10.125 -12.551)" fill="#929292" fill-rule="evenodd"/>
  </g>
</symbol>




<symbol id="Notifications" xmlns="http://www.w3.org/2000/svg" xmlns:xlink="http://www.w3.org/1999/xlink" width="47.514" height="47.515" viewBox="0 0 47.514 47.515">
  <defs>
    <clipPath id="clip-path">
      <rect id="Rectangle_2250" data-name="Rectangle 2250" width="47.514" height="47.514" rx="10" fill="none"/>
    </clipPath>
  </defs>
  <g id="Group_1" data-name="Group 1" transform="translate(-19 -20)">
    <g id="Group_3030" data-name="Group 3030" transform="translate(-386 -127.999)">
      <path id="Path_5778" data-name="Path 5778" d="M37.421,47.515H10.093A10.093,10.093,0,0,1,0,37.422V10.093A10.092,10.092,0,0,1,10.094,0H37.421A10.092,10.092,0,0,1,47.514,10.094V37.422A10.093,10.093,0,0,1,37.421,47.515" transform="translate(405 147.999)" fill="#f5b0ae"/>
      <g id="Group_2053" data-name="Group 2053" transform="translate(405 148)">
        <g id="Group_2052" data-name="Group 2052" clip-path="url(#clip-path)">
          <path id="Path_5779" data-name="Path 5779" d="M87.261,56.594A18.285,18.285,0,1,1,68.976,38.309,18.285,18.285,0,0,1,87.261,56.594" transform="translate(-28.974 -21.922)" fill="#a6302d"/>
        </g>
      </g>
    </g>
    <g id="Group_1767" data-name="Group 1767" transform="translate(26.988 26.001)">
      <path id="Path_5737" data-name="Path 5737" d="M42.679,35.5c-.189,2.451-1.362,3.8-3.3,3.856a3.311,3.311,0,0,1-2.642-1.112,3.482,3.482,0,0,1-.868-2.741c-.727,0-1.417-.016-2.1.014-.13.006-.266.176-.375.293a5.794,5.794,0,1,1-5.1-9.64c.138-.02.274-.051.445-.083V25.66c0-1.913-.033-3.826.006-5.738A10.388,10.388,0,0,1,35.2,10.066a2.216,2.216,0,0,0,.209-.1c.02-.011.03-.04.065-.089a4.162,4.162,0,0,1,.058-3.69A4.009,4.009,0,0,1,37.654,4.22a4.067,4.067,0,0,1,3.4.085,4.2,4.2,0,0,1,2.2,2.473,14.916,14.916,0,0,1,1.767-.951,5.1,5.1,0,1,1-3.356,4.844.372.372,0,0,0-.346-.437,9.761,9.761,0,0,0-11.653,7.861,12.905,12.905,0,0,0-.15,1.877c-.019,1.887-.007,3.774-.007,5.661v.4c.507.121.98.192,1.423.346a5.526,5.526,0,0,1,3.643,3.634.449.449,0,0,0,.515.368q2.984-.038,5.967-.042c2.489-.006,4.977-.009,7.466.007.368,0,.479-.1.477-.471-.014-3.338.009-6.676-.021-10.013a20.47,20.47,0,0,0-.267-2.441c-.033-.253-.051-.485.242-.555s.47.083.5.38a27.118,27.118,0,0,1,.29,2.745c.037,3.312.022,6.624.013,9.936,0,.328.074.452.429.5a3.075,3.075,0,0,1,2.487,1.944,6.055,6.055,0,0,1,.351,1.177A1.666,1.666,0,0,1,51.356,35.5c-2.028.013-4.057,0-6.085,0H42.679m-8.557-3.6a5.01,5.01,0,1,0-1.466,3.555A5.013,5.013,0,0,0,34.122,31.9m.168,2.815c.191.011.39.033.59.034H51.01c.141,0,.283,0,.423-.009a.9.9,0,0,0,.865-1.019A2.694,2.694,0,0,0,49.48,31.1H34.927a17.765,17.765,0,0,1-.138,1.85,17.412,17.412,0,0,1-.5,1.765M46.8,6.284A4.317,4.317,0,1,0,51.11,10.6,4.317,4.317,0,0,0,46.8,6.284m-5.116,3.2c.272-.582.531-1.094.748-1.624a1.164,1.164,0,0,0,.1-.674,3.362,3.362,0,0,0-3.518-2.5,3.408,3.408,0,0,0-2.906,4.7c.041.091.155.231.212.221.469-.085.933-.2,1.408-.308-.555-1.2-.442-2.064.32-2.688a1.823,1.823,0,0,1,2.31-.057,2.616,2.616,0,0,1,.707,1.014,1.858,1.858,0,0,1-.323,1.741l.942.178M39.278,35.524c-.757,0-1.514.009-2.271,0-.265,0-.356.09-.369.352a2.6,2.6,0,0,0,2.562,2.7,2.629,2.629,0,0,0,2.691-2.667c-.008-.3-.123-.4-.417-.393-.731.015-1.463.005-2.194.005m1.1-27.411A1.111,1.111,0,0,0,39.3,6.957a1.132,1.132,0,0,0-1.173,1.112,1.162,1.162,0,0,0,1.11,1.15,1.141,1.141,0,0,0,1.144-1.106" transform="translate(-23.307 -3.89)" fill="#fff"/>
      <path id="Path_5738" data-name="Path 5738" d="M42.679,35.5c-.189,2.451-1.362,3.8-3.3,3.856a3.311,3.311,0,0,1-2.642-1.112,3.482,3.482,0,0,1-.868-2.741c-.727,0-1.417-.016-2.1.014-.13.006-.266.176-.375.293a5.794,5.794,0,1,1-5.1-9.64c.138-.02.274-.051.445-.083V25.66c0-1.913-.033-3.826.006-5.738A10.388,10.388,0,0,1,35.2,10.066a2.216,2.216,0,0,0,.209-.1c.02-.011.03-.04.065-.089a4.162,4.162,0,0,1,.058-3.69A4.009,4.009,0,0,1,37.654,4.22a4.067,4.067,0,0,1,3.4.085,4.2,4.2,0,0,1,2.2,2.473,14.916,14.916,0,0,1,1.767-.951,5.1,5.1,0,1,1-3.356,4.844.372.372,0,0,0-.346-.437,9.761,9.761,0,0,0-11.653,7.861,12.905,12.905,0,0,0-.15,1.877c-.019,1.887-.007,3.774-.007,5.661v.4c.507.121.98.192,1.423.346a5.526,5.526,0,0,1,3.643,3.634.449.449,0,0,0,.515.368q2.984-.038,5.967-.042c2.489-.006,4.977-.009,7.466.007.368,0,.479-.1.477-.471-.014-3.338.009-6.676-.021-10.013a20.47,20.47,0,0,0-.267-2.441c-.033-.253-.051-.485.242-.555s.47.083.5.38a27.118,27.118,0,0,1,.29,2.745c.037,3.312.022,6.624.013,9.936,0,.328.074.452.429.5a3.075,3.075,0,0,1,2.487,1.944,6.055,6.055,0,0,1,.351,1.177A1.666,1.666,0,0,1,51.356,35.5c-2.028.013-4.057,0-6.085,0Zm-8.557-3.6a5.01,5.01,0,1,0-1.466,3.555A5.013,5.013,0,0,0,34.122,31.9Zm.168,2.815c.191.011.39.033.59.034H51.01c.141,0,.283,0,.423-.009a.9.9,0,0,0,.865-1.019A2.694,2.694,0,0,0,49.48,31.1H34.927a17.765,17.765,0,0,1-.138,1.85,17.411,17.411,0,0,1-.5,1.77ZM46.8,6.284A4.317,4.317,0,1,0,51.11,10.6,4.317,4.317,0,0,0,46.8,6.284Zm-5.116,3.2c.272-.582.531-1.094.748-1.624a1.164,1.164,0,0,0,.1-.674,3.362,3.362,0,0,0-3.518-2.5,3.408,3.408,0,0,0-2.906,4.7c.041.091.155.231.212.221.469-.085.933-.2,1.408-.308-.555-1.2-.442-2.064.32-2.688a1.823,1.823,0,0,1,2.31-.057,2.616,2.616,0,0,1,.707,1.014,1.858,1.858,0,0,1-.323,1.741Zm-2.406,26.04c-.757,0-1.514.009-2.271,0-.265,0-.356.09-.369.352a2.6,2.6,0,0,0,2.562,2.7,2.629,2.629,0,0,0,2.691-2.667c-.008-.3-.123-.4-.417-.393C40.741,35.534,40.01,35.524,39.278,35.524Zm1.1-27.411A1.111,1.111,0,0,0,39.3,6.957a1.132,1.132,0,0,0-1.173,1.112,1.162,1.162,0,0,0,1.11,1.15,1.141,1.141,0,0,0,1.14-1.106Z" transform="translate(-23.307 -3.89)" fill="none" stroke="#fff" stroke-width="0.7"/>
      <path id="Path_5739" data-name="Path 5739" d="M76.059,70.961h2.805c.294,0,.58.037.576.4s-.287.4-.581.4H73.171c-.283,0-.546-.061-.557-.388-.012-.359.264-.414.562-.413h2.882" transform="translate(-55.624 -47.849)" fill="#fff"/>
      <path id="Path_5740" data-name="Path 5740" d="M76.059,70.961h2.805c.294,0,.58.037.576.4s-.287.4-.581.4H73.171c-.283,0-.546-.061-.557-.388-.012-.359.264-.414.562-.413C74.137,70.963,75.1,70.961,76.059,70.961Z" transform="translate(-55.624 -47.849)" fill="none" stroke="#fff" stroke-width="1"/>
      <path id="Path_5741" data-name="Path 5741" d="M87.111,63.5H86.46c-.254,0-.431-.121-.442-.376a.378.378,0,0,1,.409-.411,10.994,10.994,0,0,1,1.414.016.536.536,0,0,1,.364.381c0,.127-.216.327-.372.371a2.726,2.726,0,0,1-.723.016h0" transform="translate(-64.41 -42.434)" fill="#fff"/>
      <path id="Path_5742" data-name="Path 5742" d="M87.111,63.5H86.46c-.254,0-.431-.121-.442-.376a.378.378,0,0,1,.409-.411,10.994,10.994,0,0,1,1.414.016.536.536,0,0,1,.364.381c0,.127-.216.327-.372.371a2.726,2.726,0,0,1-.723.016Z" transform="translate(-64.41 -42.434)" fill="none" stroke="#fff" stroke-width="1"/>
      <path id="Path_5743" data-name="Path 5743" d="M35.271,82.975V81H33.3v-.76h1.974V78.272h.759v1.969H38V81H36.03v1.974Z" transform="translate(-29.855 -52.643)" fill="#fff"/>
      <path id="Path_5744" data-name="Path 5744" d="M35.271,82.975V81H33.3v-.76h1.974V78.272h.759v1.969H38V81H36.03v1.974Z" transform="translate(-29.855 -52.643)" fill="none" stroke="#fff" stroke-width="0.728"/>
      <g id="Group_1766" data-name="Group 1766" transform="translate(21.303 4.184)">
        <path id="Path_5745" data-name="Path 5745" d="M90.895,19.663a3.852,3.852,0,0,0-3.683-3.628c-.38-.02-.612.182-.549.489.051.248.233.323.464.333a2.983,2.983,0,0,1,2.165,1,2.894,2.894,0,0,1,.769,1.791c.006.082.009.164.021.244a.406.406,0,0,0,.811-.034c0-.063,0-.127,0-.191" transform="translate(-86.129 -16.033)" fill="#fff"/>
        <path id="Path_5746" data-name="Path 5746" d="M87.15,21.192c-.294,0-.466.121-.488.358-.024.255.133.423.427.459a1.227,1.227,0,0,1,1.22,1.218c.029.279.188.44.428.432s.393-.191.39-.489a2.06,2.06,0,0,0-1.977-1.978" transform="translate(-86.134 -19.414)" fill="#fff"/>
        <path id="Path_5747" data-name="Path 5747" d="M85.418,25.5c-.171,0-.271.071-.284.208a.246.246,0,0,0,.248.267.714.714,0,0,1,.71.709c.017.163.109.256.249.252s.229-.111.227-.285a1.2,1.2,0,0,0-1.15-1.151" transform="translate(-85.133 -22.239)" fill="#fff"/>
      </g>
    </g>
  </g>
</symbol>



<symbol id="newsIcon" xmlns="http://www.w3.org/2000/svg" xmlns:xlink="http://www.w3.org/1999/xlink" width="47.514" height="47.515" viewBox="0 0 47.514 47.515">
  <defs>
    <clipPath id="clip-path">
      <rect id="Rectangle_2250" data-name="Rectangle 2250" width="47.514" height="47.514" rx="10" fill="none"/>
    </clipPath>
  </defs>
  <g id="Group_2" data-name="Group 2" transform="translate(-93 -20)">
    <g id="Group_3030" data-name="Group 3030" transform="translate(-312 -127.999)">
      <path id="Path_5778" data-name="Path 5778" d="M37.421,47.515H10.093A10.093,10.093,0,0,1,0,37.422V10.093A10.092,10.092,0,0,1,10.094,0H37.421A10.092,10.092,0,0,1,47.514,10.094V37.422A10.093,10.093,0,0,1,37.421,47.515" transform="translate(405 147.999)" fill="#f5b0ae"/>
      <g id="Group_2053" data-name="Group 2053" transform="translate(405 148)">
        <g id="Group_2052" data-name="Group 2052" clip-path="url(#clip-path)">
          <path id="Path_5779" data-name="Path 5779" d="M87.261,56.594A18.285,18.285,0,1,1,68.976,38.309,18.285,18.285,0,0,1,87.261,56.594" transform="translate(-28.974 -21.922)" fill="#a6302d"/>
        </g>
      </g>
    </g>
    <g id="Group_3032" data-name="Group 3032" transform="translate(-235.999 -128)">
      <path id="Path_5751" data-name="Path 5751" d="M35.337,84.053V81.744H33.028v-.889h2.309v-2.3h.888v2.3h2.3v.889h-2.3v2.309Z" transform="translate(307.691 102.752)" fill="#fff"/>
      <path id="Path_5754" data-name="Path 5754" d="M84.113,15.255a2.771,2.771,0,0,1,.05-.285,1.328,1.328,0,0,1,.907-1,1.244,1.244,0,0,1,1.361.367c.044.047.084.1.129.151.043-.05.083-.1.127-.149a1.246,1.246,0,0,1,.766-.421,1.277,1.277,0,0,1,1.2.451,1.513,1.513,0,0,1,.333,1.269,1.783,1.783,0,0,1-.36.8,5.419,5.419,0,0,1-.812.834q-.519.452-1.041.9a.285.285,0,0,1-.405.009c-.454-.393-.908-.786-1.356-1.185a3.41,3.41,0,0,1-.6-.686,1.713,1.713,0,0,1-.288-.794.29.29,0,0,0-.007-.032Zm2.445,2.708.032-.025c.387-.334.776-.665,1.159-1a4.035,4.035,0,0,0,.721-.786,1.358,1.358,0,0,0,.239-.941,1.11,1.11,0,0,0-.536-.874.971.971,0,0,0-.959-.046,1.177,1.177,0,0,0-.455.418c-.017.025-.032.051-.05.076a.179.179,0,0,1-.3,0,3.082,3.082,0,0,0-.213-.275.949.949,0,0,0-.937-.3,1.025,1.025,0,0,0-.783.709,1.335,1.335,0,0,0,.172,1.229,3.27,3.27,0,0,0,.556.634c.347.312.7.616,1.052.923l.3.259" transform="translate(277.197 141.347)" fill="#fff"/>
      <path id="Path_5756" data-name="Path 5756" d="M74.806,69.124h3.281c.343,0,.678.044.674.466s-.335.471-.679.47H71.428c-.331,0-.639-.072-.651-.453-.014-.42.309-.484.657-.483,1.124,0,2.248,0,3.372,0" transform="translate(288.991 108.381)" fill="#fff"/>
      <path id="Path_5758" data-name="Path 5758" d="M85.459,61.8H84.7a.451.451,0,0,1-.517-.44.442.442,0,0,1,.478-.48,12.861,12.861,0,0,1,1.654.019.627.627,0,0,1,.426.445c0,.148-.252.382-.435.435a3.186,3.186,0,0,1-.845.019h0" transform="translate(280.99 113.313)" fill="#fff"/>
      <path id="Path_5750" data-name="Path 5750" d="M37.037,75.374a6.618,6.618,0,1,1-6.618-6.618A6.618,6.618,0,0,1,37.037,75.374Z" transform="translate(313.198 108.6)" fill="none" stroke="#fff" stroke-width="1.5"/>
      <circle id="Ellipse_53" data-name="Ellipse 53" cx="2.691" cy="2.691" r="2.691" transform="translate(346.927 160.556)" fill="none" stroke="#fff" stroke-width="1.808"/>
      <path id="Path_5752" data-name="Path 5752" d="M35.337,84.053V81.744H33.028v-.889h2.309v-2.3h.888v2.3h2.3v.889h-2.3v2.309Z" transform="translate(307.691 102.752)" fill="none" stroke="#fff" stroke-width="0.728"/>
      <circle id="Ellipse_54" data-name="Ellipse 54" cx="5.144" cy="5.144" r="5.144" transform="translate(358.712 152)" fill="none" stroke="#fff" stroke-width="1.32"/>
      <path id="Path_5753" data-name="Path 5753" d="M60.825,22.348a7.343,7.343,0,0,0-.074-1.138,6.8,6.8,0,0,0-.7-2.088,4.524,4.524,0,0,1-1.289,1.591A4.679,4.679,0,0,1,59,22.136c.016,2.513,0,5.026,0,7.54v.247c-.29-.23-.533-.421-.775-.614l-3.7-2.96a.945.945,0,0,0-1.426.019q-3.379,2.88-6.755,5.764c-.051.043-.1.084-.175.143L42.6,29.341c-.206-.169-.411-.34-.618-.508a.929.929,0,0,0-1.338,0q-2.669,2.194-5.335,4.391l-.162.129a2.244,2.244,0,0,1-.025-.231c0-3.656-.01-7.311,0-10.967a4.747,4.747,0,0,1,4.716-4.715q5.822-.016,11.645,0c-.006-.1-.015-.191-.015-.288a4.5,4.5,0,0,1,.276-1.543H39.926a6.321,6.321,0,0,0-1.052.077A6.591,6.591,0,0,0,33.3,22.3V36.437c0,.113.006.227.009.341a7.354,7.354,0,0,1,1.809-.472,1.375,1.375,0,0,1,.586-1.06c1.787-1.421,3.535-2.892,5.3-4.344.1-.078.192-.153.309-.246.063.046.11.077.154.113l3.287,2.708c-.087.079-.159.149-.235.214-.629.539-1.262,1.071-1.886,1.616a.9.9,0,0,0-.248,1.063.861.861,0,0,0,.919.529,1.351,1.351,0,0,0,.6-.29q4.677-3.974,9.34-7.964c.194-.166.39-.329.6-.5l1.883,1.507c1.033.826,2.069,1.647,3.094,2.483a.549.549,0,0,1,.176.374q.019,2.013.006,4.026a4.763,4.763,0,0,1-4.771,4.778q-5.557.009-11.114,0a7.379,7.379,0,0,1,.356,1.828H54.153A6.849,6.849,0,0,0,55.6,43a6.575,6.575,0,0,0,5.234-6.5c.006-2.361,0-4.722,0-7.083V22.359" transform="translate(307.53 140.327)" fill="#fff"/>
      <path id="Path_5755" data-name="Path 5755" d="M84.113,15.255a2.771,2.771,0,0,1,.05-.285,1.328,1.328,0,0,1,.907-1,1.244,1.244,0,0,1,1.361.367c.044.047.084.1.129.151.043-.05.083-.1.127-.149a1.246,1.246,0,0,1,.766-.421,1.277,1.277,0,0,1,1.2.451,1.513,1.513,0,0,1,.333,1.269,1.783,1.783,0,0,1-.36.8,5.419,5.419,0,0,1-.812.834q-.519.452-1.041.9a.285.285,0,0,1-.405.009c-.454-.393-.908-.786-1.356-1.185a3.41,3.41,0,0,1-.6-.686,1.713,1.713,0,0,1-.288-.794.29.29,0,0,0-.007-.032Zm2.445,2.708.032-.025c.387-.334.776-.665,1.159-1a4.035,4.035,0,0,0,.721-.786,1.358,1.358,0,0,0,.239-.941,1.11,1.11,0,0,0-.536-.874.971.971,0,0,0-.959-.046,1.177,1.177,0,0,0-.455.418c-.017.025-.032.051-.05.076a.179.179,0,0,1-.3,0,3.082,3.082,0,0,0-.213-.275.949.949,0,0,0-.937-.3,1.025,1.025,0,0,0-.783.709,1.335,1.335,0,0,0,.172,1.229,3.27,3.27,0,0,0,.556.634c.347.312.7.616,1.052.923Z" transform="translate(277.197 141.347)" fill="none" stroke="#fff" stroke-width="0.5"/>
      <path id="Path_5757" data-name="Path 5757" d="M74.806,69.124h3.281c.343,0,.678.044.674.466s-.335.471-.679.47H71.428c-.331,0-.639-.072-.651-.453-.014-.42.309-.484.657-.483C72.558,69.127,73.682,69.124,74.806,69.124Z" transform="translate(285.159 108.381)" fill="none" stroke="#fff" stroke-width="1.5"/>
      <path id="Path_5759" data-name="Path 5759" d="M85.459,61.8H84.7a.451.451,0,0,1-.517-.44.442.442,0,0,1,.478-.48,12.861,12.861,0,0,1,1.654.019.627.627,0,0,1,.426.445c0,.148-.252.382-.435.435a3.186,3.186,0,0,1-.845.019Z" transform="translate(277.157 113.313)" fill="none" stroke="#fff" stroke-width="1.5"/>
    </g>
  </g>
</symbol>



<symbol id="ContactIcon" xmlns="http://www.w3.org/2000/svg" xmlns:xlink="http://www.w3.org/1999/xlink" width="47.514" height="47.515" viewBox="0 0 47.514 47.515">
  <defs>
    <clipPath id="clip-path">
      <rect id="Rectangle_2250" data-name="Rectangle 2250" width="47.514" height="47.514" rx="10" fill="none"/>
    </clipPath>
  </defs>
  <g id="Group_3" data-name="Group 3" transform="translate(-163 -20)">
    <g id="Group_3030" data-name="Group 3030" transform="translate(-242 -127.999)">
      <path id="Path_5778" data-name="Path 5778" d="M37.421,47.515H10.093A10.093,10.093,0,0,1,0,37.422V10.093A10.092,10.092,0,0,1,10.094,0H37.421A10.092,10.092,0,0,1,47.514,10.094V37.422A10.093,10.093,0,0,1,37.421,47.515" transform="translate(405 147.999)" fill="#788ece"/>
      <g id="Group_2053" data-name="Group 2053" transform="translate(405 148)">
        <g id="Group_2052" data-name="Group 2052" clip-path="url(#clip-path)">
          <path id="Path_5779" data-name="Path 5779" d="M87.261,56.594A18.285,18.285,0,1,1,68.976,38.309,18.285,18.285,0,0,1,87.261,56.594" transform="translate(-28.974 -21.922)" fill="#788ece"/>
        </g>
      </g>
    </g>
    <g id="Group_3029" data-name="Group 3029" transform="translate(-241.443 -127.251)">
      <path id="Path_5780" data-name="Path 5780" d="M19.1,23.545v-.48c0-3.888.031-7.777-.016-11.664a2.3,2.3,0,0,1,2.427-2.417C26.8,9.023,32.1,9,37.4,9a2.15,2.15,0,0,1,2.366,2.372c0,1.212,0,2.423,0,3.689h5.587a1.249,1.249,0,0,1,1.432,1.431v4.941a1.237,1.237,0,0,1-1.417,1.407h-5.58v1.4c.457.127.89.219,1.3.367,1.058.38,2.109.781,3.159,1.182a1.561,1.561,0,0,1,.809,2.439c-.361.577-.729,1.149-1.1,1.721a3.012,3.012,0,0,1-3.514,1.4l-.679-.168v12.3A2.152,2.152,0,0,1,37.4,45.855H21.432A2.143,2.143,0,0,1,19.1,43.529V37.88H11.68c-1.069,0-1.533-.468-1.533-1.542V25.082c0-1.087.448-1.535,1.53-1.536H19.1ZM38.568,15.06c0-1.38.015-2.715-.009-4.05a.894.894,0,0,0-.943-.819c-.668-.011-1.337,0-2-.007a.291.291,0,0,0-.34.245c-.15.51-.334,1.009-.488,1.518a.686.686,0,0,1-.736.541q-4.623-.007-9.246,0a.67.67,0,0,1-.716-.516c-.155-.5-.329-.985-.473-1.484a.353.353,0,0,0-.412-.307c-.581.02-1.163.006-1.745.007-.833,0-1.171.336-1.171,1.167V23.131c0,.13.013.26.021.414h.481c2.24,0,4.481.035,6.72-.014,1.2-.027,1.736.5,1.721,1.739-.043,3.689-.015,7.38-.015,11.069,0,1.085-.451,1.54-1.529,1.54h-7.4V43.5c0,.83.34,1.166,1.173,1.166h15.93c.859,0,1.191-.33,1.191-1.186q0-6.167.009-12.333a.487.487,0,0,0-.371-.529,18.1,18.1,0,0,1-10.9-12.494A2.941,2.941,0,0,1,28.606,14.8q.93-.612,1.876-1.2a1.547,1.547,0,0,1,2.393.787c.464,1.2.91,2.4,1.359,3.609a1.583,1.583,0,0,1-.162,1.489c-.243.373-.505.736-.714,1.128a.634.634,0,0,0-.026.532,13.508,13.508,0,0,0,4.181,4.2c.28.18,1.04-.136,1.053-.453.026-.674.008-1.351.008-2.057h-1.42a1.208,1.208,0,0,1-1.347-1.355V16.428a1.218,1.218,0,0,1,1.37-1.371h1.389M28,36.671V24.753c-.131-.007-.24-.019-.349-.019q-7.961,0-15.922-.007c-.3,0-.4.067-.4.387q.016,5.588,0,11.176c0,.34.112.407.426.406q7.924-.013,15.848-.007c.133,0,.265-.013.4-.019m13.091-6.388a1.9,1.9,0,0,0,1.775-.837c.4-.609.793-1.226,1.181-1.844.226-.36.159-.556-.245-.71-1.155-.44-2.308-.883-3.472-1.3a.8.8,0,0,0-.577.077c-.4.216-.769.5-1.161.73a1.489,1.489,0,0,1-1.651-.011,14.791,14.791,0,0,1-4.64-4.629,1.509,1.509,0,0,1,0-1.708c.234-.379.5-.738.711-1.13a.807.807,0,0,0,.071-.577c-.411-1.166-.85-2.321-1.288-3.477-.152-.4-.347-.463-.712-.234-.576.361-1.148.729-1.721,1.1a1.8,1.8,0,0,0-.874,2.193A16.928,16.928,0,0,0,39.372,29.784c.632.239,1.3.38,1.72.5M24.769,10.2c.095.294.2.559.262.833.051.211.158.269.365.264.569-.013,1.139,0,1.708,0h6.313c.12,0,.314-.036.346-.111.135-.309.22-.638.329-.976Zm19.794,6.083H38.02l3.271,2.883,3.271-2.883M40.3,19.907l-2.16,1.718h6.3l-2.161-1.718c-.944.754-.841.98-1.982,0M45.569,21V16.989L43.177,19.1,45.569,21m-8.553,0,2.391-1.9L37.016,17Z" transform="translate(399.296 143.271)" fill="#fff"/>
      <path id="Path_5781" data-name="Path 5781" d="M53.137,85.28c.421,0,.842,0,1.262,0a1.613,1.613,0,1,1,0,3.221q-1.262.011-2.525,0a1.613,1.613,0,1,1,0-3.221c.421-.007.842,0,1.262,0m.011,2.034h1.258c.284,0,.5-.121.5-.424s-.216-.42-.5-.42H51.888c-.28,0-.508.1-.517.4-.009.326.22.441.518.442h1.258" transform="translate(375.588 98.083)" fill="#fff"/>
      <path id="Path_5782" data-name="Path 5782" d="M20.6,56.03a4.51,4.51,0,0,1,2.453,2.894,3.718,3.718,0,0,1,.129.69.571.571,0,0,1-.623.689c-.457.011-.915,0-1.372,0h-6.12c-.689,0-.91-.271-.784-.952a4.631,4.631,0,0,1,2.56-3.337,2.6,2.6,0,0,1-.642-2.26,2.464,2.464,0,0,1,.923-1.519,2.559,2.559,0,0,1,3.361.142,2.6,2.6,0,0,1,.115,3.65m1.218,3.07a3.241,3.241,0,0,0-6.193,0ZM18.727,55.62A1.384,1.384,0,0,0,20.1,54.26a1.4,1.4,0,0,0-1.392-1.394,1.379,1.379,0,1,0,.012,2.757" transform="translate(396.867 117.984)" fill="#fff"/>
      <path id="Path_5783" data-name="Path 5783" d="M41.169,67.308h1.966c.434,0,.7.239.7.6a.618.618,0,0,1-.679.588q-2,.011-4.006,0a.592.592,0,0,1-.653-.606c0-.353.252-.572.672-.576.668-.006,1.335,0,2,0" transform="translate(382.506 108.727)" fill="#fff"/>
      <path id="Path_5784" data-name="Path 5784" d="M41.143,61.981H39.177c-.421,0-.671-.217-.683-.568a.6.6,0,0,1,.678-.617q1.985-.009,3.969,0a.619.619,0,0,1,.69.612.609.609,0,0,1-.685.573h-2" transform="translate(382.505 112.586)" fill="#fff"/>
      <path id="Path_5785" data-name="Path 5785" d="M41.209,54.323c.63,0,1.26-.005,1.891,0,.464.005.74.24.732.6s-.278.579-.719.581q-1.965.007-3.93,0c-.441,0-.7-.239-.689-.6s.252-.572.675-.578c.68-.01,1.36,0,2.04,0" transform="translate(382.506 116.419)" fill="#fff"/>
    </g>
  </g>
</symbol>



<!-- <symbol id="instaWhite" xmlns="http://www.w3.org/2000/svg" width="16" height="16" viewBox="0 0 16 16">
  <path id="Path_3304" data-name="Path 3304" d="M1270.67,29.328a7.978,7.978,0,0,0-13.61,5.6,7.842,7.842,0,0,0,1.07,3.96L1257,43l4.22-1.1a7.973,7.973,0,0,0,11.78-6.96A7.871,7.871,0,0,0,1270.67,29.328Zm-5.64,12.192a6.64,6.64,0,0,1-3.37-.92l-.25-.144-2.5.656.66-2.432-.16-.248a6.61,6.61,0,0,1,10.29-8.16,6.464,6.464,0,0,1,1.44,2.139,6.591,6.591,0,0,1-6.11,9.109Zm3.64-4.928c-.2-.1-1.19-.576-1.36-.648-.19-.064-.32-.1-.45.1s-.52.648-.63.776-.23.152-.43.048a5.182,5.182,0,0,1-1.6-.984,5.9,5.9,0,0,1-1.11-1.376c-.12-.2-.02-.3.08-.408a4.4,4.4,0,0,0,.3-.344,1.168,1.168,0,0,0,.2-.328.347.347,0,0,0-.01-.344c-.05-.1-.45-1.072-.61-1.472-.16-.384-.33-.336-.45-.344h-.39a.71.71,0,0,0-.53.248,2.24,2.24,0,0,0-.69,1.656,3.816,3.816,0,0,0,.81,2.048,8.866,8.866,0,0,0,3.4,2.992,10.907,10.907,0,0,0,1.13.416,2.793,2.793,0,0,0,1.26.08,2.031,2.031,0,0,0,1.34-.944,1.509,1.509,0,0,0,.11-.944C1268.99,36.728,1268.87,36.688,1268.67,36.592Z" transform="translate(-1257 -27)" fill="#fff"/>
</symbol> -->


<svg id="instaWhite" xmlns="http://www.w3.org/2000/svg" width="38.729" height="38.73" viewBox="0 0 38.729 38.73">
  <g id="Group_2787" data-name="Group 2787" transform="translate(-33 -17)">
    <g id="Group_820" data-name="Group 820" transform="translate(33 17)">
      <path id="Path_3303" data-name="Path 3303" d="M1288.729,39.365a19.365,19.365,0,1,0-19.365,19.365A19.368,19.368,0,0,0,1288.729,39.365Z" transform="translate(-1250 -20)" fill="#224099"/>
    </g>
    <g id="Group_821" data-name="Group 821" transform="translate(42.037 26.037)">
      <path id="Path_3304" data-name="Path 3304" d="M1274.648,30.006a10.3,10.3,0,0,0-17.57,7.23,10.124,10.124,0,0,0,1.381,5.112L1257,47.656l5.448-1.425a10.293,10.293,0,0,0,15.208-8.985A10.162,10.162,0,0,0,1274.648,30.006Zm-7.281,15.74a8.572,8.572,0,0,1-4.351-1.188l-.323-.186-3.227.847.852-3.14-.206-.32A8.533,8.533,0,0,1,1273.4,31.224a8.344,8.344,0,0,1,1.859,2.761,8.509,8.509,0,0,1-7.888,11.76Zm4.7-6.362c-.258-.124-1.536-.744-1.756-.837-.245-.083-.413-.124-.581.124s-.671.837-.813,1-.3.2-.555.062a6.69,6.69,0,0,1-2.066-1.27,7.618,7.618,0,0,1-1.433-1.776c-.155-.258-.026-.392.1-.527a5.708,5.708,0,0,0,.387-.444,1.508,1.508,0,0,0,.258-.423.448.448,0,0,0-.013-.444c-.065-.124-.581-1.384-.787-1.9-.207-.5-.426-.434-.581-.444h-.5a.917.917,0,0,0-.684.32,2.892,2.892,0,0,0-.891,2.138,4.927,4.927,0,0,0,1.046,2.644,11.446,11.446,0,0,0,4.389,3.863,14.088,14.088,0,0,0,1.459.537,3.606,3.606,0,0,0,1.627.1,2.623,2.623,0,0,0,1.73-1.219,1.948,1.948,0,0,0,.142-1.219C1272.479,39.559,1272.324,39.507,1272.066,39.383Z" transform="translate(-1257 -27)" fill="#fff"/>
    </g>
  </g>
</svg>


<!-- 
<symbol id="WhiteFb" xmlns="http://www.w3.org/2000/svg" width="9" height="15" viewBox="0 0 9 15">
  <g id="Group_823" data-name="Group 823" transform="translate(0.5 0.5)">
    <path id="Path_3300" data-name="Path 3300" d="M1177,28h-2.18a3.693,3.693,0,0,0-2.57,1.025,3.408,3.408,0,0,0-1.07,2.475v2.1H1169v2.8h2.18V42h2.91V36.4h2.18l.73-2.8h-2.91V31.5a.71.71,0,0,1,.21-.495.768.768,0,0,1,.52-.205H1177Z" transform="translate(-1169 -28)" fill="none" stroke="#fff" stroke-linecap="round" stroke-linejoin="round" stroke-width="1"/>
  </g>
</symbol> -->


<svg id="WhiteFb" xmlns="http://www.w3.org/2000/svg" width="38.729" height="38.73" viewBox="0 0 38.729 38.73">
  <g id="Group_2788" data-name="Group 2788" transform="translate(-92.385 -17)">
    <g id="Group_817" data-name="Group 817" transform="translate(92.385 17)">
      <path id="Path_3299" data-name="Path 3299" d="M1196.729,39.365a19.365,19.365,0,1,0-19.365,19.365A19.368,19.368,0,0,0,1196.729,39.365Z" transform="translate(-1158 -20)" fill="#224099"/>
    </g>
    <g id="Group_823" data-name="Group 823" transform="translate(106.586 27.328)">
      <path id="Path_3300" data-name="Path 3300" d="M1179.328,28h-2.814a4.768,4.768,0,0,0-3.318,1.323,4.4,4.4,0,0,0-1.381,3.2V35.23H1169v3.615h2.814v7.23h3.757v-7.23h2.814l.942-3.615h-3.757V32.518a.917.917,0,0,1,.271-.639.99.99,0,0,1,.671-.265h2.814Z" transform="translate(-1169 -28)" fill="none" stroke="#fff" stroke-linecap="round" stroke-linejoin="round" stroke-width="1"/>
    </g>
  </g>
</svg>


<!-- <symbol id="twitterWhite" data-name="Group 1023" xmlns="http://www.w3.org/2000/svg" xmlns:xlink="http://www.w3.org/1999/xlink" width="16.336" height="16.707" viewBox="0 0 16.336 16.707">
  <defs>
    <clipPath id="clip-path">
      <rect id="Rectangle_867" data-name="Rectangle 867" width="16.336" height="16.707" fill="#fff"/>
    </clipPath>
  </defs>
  <g id="Group_1022" data-name="Group 1022" clip-path="url(#clip-path)">
    <path id="Path_3741" data-name="Path 3741" d="M15.806,0Q14.468,1.559,13.13,3.117q-1.648,1.917-3.3,3.832c-.032.037-.062.075-.1.126l6.607,9.616c-.059.005-.1.012-.139.012q-2.291,0-4.583,0a.236.236,0,0,1-.221-.123q-2.124-3.1-4.254-6.194c-.036-.053-.074-.1-.12-.168L5.8,11.643Q3.663,14.122,1.528,16.6a.328.328,0,0,1-.215.1c-.423.01-.847,0-1.313,0L6.377,9.291c-.031-.048-.059-.093-.089-.137L.133.193C.09.131.054.064.015,0H4.877a.764.764,0,0,0,.039.071L9.022,6.049c.02.03.036.063.057.1L14.371,0ZM14.358,15.656c-.051-.076-.084-.126-.118-.174L11.6,11.7Q7.947,6.48,4.3,1.255a.361.361,0,0,0-.344-.176c-.6.009-1.207,0-1.81,0-.051,0-.1.005-.171.009.038.059.062.1.089.139q5,7.16,10.008,14.32a.241.241,0,0,0,.226.117c.63,0,1.261,0,1.892,0,.047,0,.094,0,.169-.009" fill="#fff"/>
  </g>
</symbol> -->



<symbol id="twitterWhite" xmlns="http://www.w3.org/2000/svg" xmlns:xlink="http://www.w3.org/1999/xlink" width="38.729" height="38.73" viewBox="0 0 38.729 38.73">
  <defs>
    <clipPath id="clip-path">
      <rect id="Rectangle_867" data-name="Rectangle 867" width="21.089" height="21.569" fill="#fff"/>
    </clipPath>
  </defs>
  <g id="Group_2789" data-name="Group 2789" transform="translate(-151.771 -17)">
    <g id="Group_815" data-name="Group 815" transform="translate(151.771 17)">
      <path id="Path_3297" data-name="Path 3297" d="M1150.729,39.365a19.365,19.365,0,1,0-19.365,19.365A19.368,19.368,0,0,0,1150.729,39.365Z" transform="translate(-1112 -20)" fill="#224099"/>
    </g>
    <g id="Group_1023" data-name="Group 1023" transform="translate(160.374 25.124)">
      <g id="Group_1022" data-name="Group 1022" clip-path="url(#clip-path)">
        <path id="Path_3741" data-name="Path 3741" d="M20.405,0Q18.678,2.012,16.95,4.025,14.823,6.5,12.694,8.972c-.041.048-.08.1-.135.162l8.53,12.415c-.077.007-.128.015-.179.015q-2.958,0-5.917,0a.3.3,0,0,1-.286-.158q-2.743-4-5.492-8c-.047-.068-.1-.135-.154-.217L7.482,15.031q-2.753,3.2-5.509,6.4a.423.423,0,0,1-.278.131c-.546.012-1.093.006-1.695.006l8.233-9.57c-.04-.062-.076-.121-.114-.177L.171.249C.116.169.07.083.02,0H6.3a.986.986,0,0,0,.05.091l5.3,7.717c.026.038.046.081.074.131L18.552,0ZM18.536,20.212c-.066-.1-.108-.162-.152-.225l-3.411-4.88Q10.259,8.365,5.55,1.62a.465.465,0,0,0-.444-.227c-.779.012-1.558,0-2.337.005-.066,0-.132.007-.22.012.048.076.08.129.115.179q6.461,9.243,12.92,18.487a.311.311,0,0,0,.292.151c.814-.006,1.628,0,2.442,0,.06,0,.121-.006.219-.012" fill="#fff"/>
      </g>
    </g>
  </g>
</symbol>



<symbol id="saveicon" data-name="Group 1535" xmlns="http://www.w3.org/2000/svg" xmlns:xlink="http://www.w3.org/1999/xlink" width="16.499" height="22" viewBox="0 0 16.499 22">
  <defs>
    <clipPath id="clip-path">
      <rect id="Rectangle_2094" data-name="Rectangle 2094" width="16.499" height="22" fill="#fff"/>
    </clipPath>
  </defs>
  <g id="Group_1534" data-name="Group 1534" clip-path="url(#clip-path)">
    <path id="Path_5734" data-name="Path 5734" d="M1.758,0H14.736A4.246,4.246,0,0,1,15.3.187a2.026,2.026,0,0,1,1.19,1.972c0,5.991-.01,11.981.008,17.972a1.7,1.7,0,0,1-1.362,1.854c-.006,0-.01.01-.015.015h-.516a2.422,2.422,0,0,1-1.184-.765q-2.175-2.194-4.368-4.372a1.033,1.033,0,0,0-1.616,0c-1.457,1.456-2.918,2.909-4.368,4.372A2.432,2.432,0,0,1,1.887,22H1.372c-.011-.009-.021-.022-.033-.026A1.6,1.6,0,0,1,0,20.217Q0,11.6,0,2.975c0-.315-.009-.63,0-.945A2,2,0,0,1,1.272.153,4.326,4.326,0,0,1,1.758,0M1.293,11.195q0,4.5,0,9c0,.072,0,.144,0,.215a.309.309,0,0,0,.467.261.967.967,0,0,0,.231-.188q2.273-2.268,4.544-4.538a2.314,2.314,0,0,1,3.418,0q2.272,2.269,4.542,4.54a1.171,1.171,0,0,0,.191.172.324.324,0,0,0,.509-.248,1.682,1.682,0,0,0,0-.193q0-9.01,0-18.021c0-.635-.268-.9-.9-.9H2.189c-.629,0-.9.27-.9.906q0,4.5,0,9" transform="translate(0)" fill="#fff"/>
  </g>
</symbol>



<symbol id="Brochure" xmlns="http://www.w3.org/2000/svg" xmlns:xlink="http://www.w3.org/1999/xlink" width="81.035" height="18" viewBox="0 0 81.035 18">
  <defs>
    <clipPath id="clip-path">
      <rect id="Rectangle_1968" data-name="Rectangle 1968" width="17.168" height="15.734" fill="#fff"/>
    </clipPath>
  </defs>
  <g id="Group_1533" data-name="Group 1533" transform="translate(-482.947 -634)">
    <g id="Group_1201" data-name="Group 1201" transform="translate(482.947 634)">
      <g id="Group_1200" data-name="Group 1200" clip-path="url(#clip-path)">
        <path id="Path_3747" data-name="Path 3747" d="M8.587,173.772h-6.3A2.152,2.152,0,0,1,0,171.492q0-1.318,0-2.637a.724.724,0,0,1,.71-.8.725.725,0,0,1,.72.794c0,.894,0,1.788,0,2.682a.729.729,0,0,0,.813.814H14.918a.731.731,0,0,0,.818-.831c0-.886,0-1.773,0-2.659a.719.719,0,1,1,1.43,0q0,1.352,0,2.7a2.143,2.143,0,0,1-2.232,2.218q-3.174,0-6.348,0" transform="translate(0 -158.039)" fill="#fff"/>
        <path id="Path_3748" data-name="Path 3748" d="M76.352,10.655v-.3q0-4.747,0-9.495a1.326,1.326,0,0,1,.035-.353A.7.7,0,0,1,77.135,0a.723.723,0,0,1,.645.663c.006.082,0,.164,0,.246q0,4.725,0,9.45v.3c.356-.283.675-.535.992-.788q.716-.571,1.43-1.144A.715.715,0,1,1,81.1,9.846q-1.759,1.413-3.524,2.818a.716.716,0,0,1-1.012,0q-1.72-1.372-3.437-2.748a.713.713,0,1,1,.89-1.11c.712.564,1.421,1.132,2.131,1.7.056.044.115.084.206.151" transform="translate(-68.483 0)" fill="#fff"/>
      </g>
    </g>
    <text id="Brochure" transform="translate(505.982 648)" fill="#fff" font-size="13" font-family="Manrope-Bold, Manrope" font-weight="700"><tspan x="0" y="0">Brochure</tspan></text>
  </g>
</symbol>



<symbol id="userIcon" xmlns="http://www.w3.org/2000/svg" width="11.867" height="13.2" viewBox="0 0 11.867 13.2">
  <path id="Path_3743" data-name="Path 3743" d="M345.333,34V32.667A2.667,2.667,0,0,0,342.666,30h-5.333a2.667,2.667,0,0,0-2.667,2.667V34m8-9.333A2.666,2.666,0,1,1,340,22,2.667,2.667,0,0,1,342.666,24.667Z" transform="translate(-334.066 -21.4)" fill="none" stroke="#224099" stroke-linecap="round" stroke-linejoin="round" stroke-width="1.2"/>
</symbol>


<symbol id="search" xmlns="http://www.w3.org/2000/svg" width="13.609" height="13.609" viewBox="0 0 13.609 13.609">
  <path id="Path_3742" data-name="Path 3742" d="M306,34l-2.333-2.333m1.666-4A5.667,5.667,0,1,1,299.667,22,5.666,5.666,0,0,1,305.333,27.667Z" transform="translate(-293.333 -21.333)" fill="none" stroke="#224099" stroke-linecap="round" stroke-linejoin="round" stroke-width="1.333"/>
</symbol>


<symbol id="FilterIcon" xmlns="http://www.w3.org/2000/svg" xmlns:xlink="http://www.w3.org/1999/xlink" width="26.667" height="21.355" viewBox="0 0 26.667 21.355">
  <defs>
    <clipPath id="clip-path">
      <rect id="Rectangle_2124" data-name="Rectangle 2124" width="26.667" height="21.355"/>
    </clipPath>
  </defs>
  <g id="Group_1610" data-name="Group 1610" transform="translate(-167 -3563.211)">
    <g id="Group_1609" data-name="Group 1609" transform="translate(167 3563.211)">
      <g id="Group_1608" data-name="Group 1608" clip-path="url(#clip-path)">
        <path id="Path_5735" data-name="Path 5735" d="M26.666,107.443a1.024,1.024,0,0,1-1.074.632c-4.337-.012-8.674-.007-13.011-.007h-.314a3.47,3.47,0,0,1-6.662.24.294.294,0,0,0-.342-.245c-1.4.009-2.793-.009-4.189.012A1.015,1.015,0,0,1,0,107.443v-.417a1.01,1.01,0,0,1,1.073-.632c1.405.021,2.811,0,4.216.011a.261.261,0,0,0,.307-.219,3.461,3.461,0,0,1,6.6,0c.021.065.044.129.074.215h.307c4.337,0,8.675.005,13.012-.007a1.022,1.022,0,0,1,1.074.632Zm-15.972-.22a1.8,1.8,0,1,0-1.787,1.817,1.8,1.8,0,0,0,1.787-1.817" transform="translate(0.001 -96.557)"/>
        <path id="Path_5736" data-name="Path 5736" d="M0,210.9a1.065,1.065,0,0,1,1.114-.614c4.313.012,8.625,0,12.938.012a.387.387,0,0,0,.453-.313,3.457,3.457,0,0,1,6.538.025.359.359,0,0,0,.422.288c1.354-.01,2.707.009,4.061-.013a1.081,1.081,0,0,1,1.141.615v.417a.968.968,0,0,1-1.034.649c-1.413-.019-2.827,0-4.241-.01a.281.281,0,0,0-.327.234,3.457,3.457,0,0,1-6.588,0c-.065-.205-.17-.233-.355-.233-4.363,0-8.725,0-13.088.009A.975.975,0,0,1,0,211.319Zm17.775-1.569a1.8,1.8,0,0,0-.009,3.6,1.8,1.8,0,1,0,.009-3.6" transform="translate(0 -193.245)"/>
        <path id="Path_5737" data-name="Path 5737" d="M26.667,3.7a1.068,1.068,0,0,1-1.115.615c-1.388-.022-2.776,0-4.165-.011a.283.283,0,0,0-.325.238,3.46,3.46,0,0,1-6.583,0c-.064-.2-.16-.238-.349-.238-4.338,0-8.677,0-13.015.011A1.078,1.078,0,0,1,0,3.7V3.281a.967.967,0,0,1,1.033-.649c4.354.011,8.708,0,13.063.012a.34.34,0,0,0,.394-.285,3.458,3.458,0,0,1,6.566.024.312.312,0,0,0,.361.261c1.4-.01,2.793.009,4.189-.013a.983.983,0,0,1,1.06.65Zm-8.9,1.569a1.8,1.8,0,1,0-1.8-1.8,1.806,1.806,0,0,0,1.8,1.8" transform="translate(0 0)"/>
      </g>
    </g>
  </g>
</symbol>


<symbol id="Photos" data-name="Group 1520" xmlns="http://www.w3.org/2000/svg" xmlns:xlink="http://www.w3.org/1999/xlink" width="23.042" height="20.186" viewBox="0 0 23.042 20.186">
  <defs>
    <clipPath id="clip-path">
      <rect id="Rectangle_2089" data-name="Rectangle 2089" width="23.042" height="20.186" fill="#fff"/>
    </clipPath>
  </defs>
  <g id="Group_1519" data-name="Group 1519">
    <g id="Group_1518" data-name="Group 1518" clip-path="url(#clip-path)">
      <path id="Path_5728" data-name="Path 5728" d="M0,18.281V6.31a1.186,1.186,0,0,0,.039-.148A2.224,2.224,0,0,1,1.9,4.262,8.716,8.716,0,0,1,3,4.254c.02-.093.039-.156.047-.222.08-.654.166-1.308.235-1.964A2.237,2.237,0,0,1,5.872.021c.989.124,1.979.232,2.97.344q2.87.325,5.74.647c2.092.237,4.183.482,6.276.71a2.307,2.307,0,0,1,2.171,2.513c-.186,1.728-.388,3.455-.584,5.182-.223,1.973-.45,3.945-.669,5.919a2.223,2.223,0,0,1-1.641,2.145.31.31,0,0,0-.273.384,2,2,0,0,1-.519,1.487,2.5,2.5,0,0,1-1.983.834q-3.588-.007-7.176,0-3.97,0-7.941,0A2.059,2.059,0,0,1,.4,19.266a5.249,5.249,0,0,1-.4-.985M1.122,14.53c.118-.084.2-.138.272-.194q1.664-1.21,3.329-2.419a2.5,2.5,0,0,1,3.329.162q1.418,1.248,2.836,2.5a1.441,1.441,0,0,0,1.858.181q2.914-1.7,5.827-3.391a.316.316,0,0,0,.181-.318c-.005-1.44,0-2.88-.006-4.319a1.621,1.621,0,0,0-.064-.464,1.269,1.269,0,0,0-1.321-.905H2.313c-.06,0-.12,0-.18,0a.915.915,0,0,0-.658.3,1.357,1.357,0,0,0-.355.988q0,3.836,0,7.671v.211M18.75,12.58c-.115.064-.186.1-.255.143q-2.558,1.479-5.116,2.958a3.5,3.5,0,0,1-.52.262,2.566,2.566,0,0,1-2.736-.536c-.962-.836-1.911-1.687-2.871-2.526a1.314,1.314,0,0,0-1.765-.15c-1.427,1.032-2.842,2.081-4.258,3.128a.288.288,0,0,0-.1.2c-.007.682-.011,1.365,0,2.047a.97.97,0,0,0,.753.924,2.193,2.193,0,0,0,.469.035q7.479,0,14.959,0c.1,0,.195,0,.292-.011A1.152,1.152,0,0,0,18.75,17.8q0-2.474,0-4.949ZM4.142,4.239h.292q6.468,0,12.936,0a2.422,2.422,0,0,1,1.149.257,2.369,2.369,0,0,1,1.345,2.241q0,4.691,0,9.381V16.4a.966.966,0,0,0,.707-.8c.2-1.689.392-3.379.588-5.069q.371-3.193.744-6.386a1.094,1.094,0,0,0-.949-1.258c-.9-.128-1.815-.219-2.723-.325q-3.014-.352-6.029-.7c-2.151-.249-4.3-.492-6.454-.743a1.132,1.132,0,0,0-1.359.991c-.1.7-.166,1.4-.251,2.131" transform="translate(0 0)" fill="#fff"/>
      <path id="Path_5729" data-name="Path 5729" d="M141.407,110.957a2.348,2.348,0,1,1,2.342-2.351,2.364,2.364,0,0,1-2.342,2.351m-.013-3.573a1.228,1.228,0,1,0,1.24,1.218,1.232,1.232,0,0,0-1.24-1.218" transform="translate(-129.734 -99.141)" fill="#fff"/>
    </g>
  </g>
</symbol>


<symbol id="Videos" xmlns="http://www.w3.org/2000/svg" xmlns:xlink="http://www.w3.org/1999/xlink" width="22.993" height="17.516" viewBox="0 0 22.993 17.516">
  <defs>
    <clipPath id="clip-path">
      <rect id="Rectangle_2090" data-name="Rectangle 2090" width="22.993" height="17.516" fill="#fff"/>
    </clipPath>
  </defs>
  <g id="Group_1524" data-name="Group 1524" clip-path="url(#clip-path)">
    <path id="Path_5730" data-name="Path 5730" d="M0,2.966c.034-.143.067-.288.1-.43A3.364,3.364,0,0,1,3.34,0Q11.49,0,19.639,0a3.35,3.35,0,0,1,3.348,3.342q.013,5.41,0,10.821a3.351,3.351,0,0,1-3.347,3.343q-8.15.01-16.3,0a3.358,3.358,0,0,1-3.3-2.838A.75.75,0,0,0,0,14.55V2.966M11.5,1.349H3.51A2.026,2.026,0,0,0,1.347,3.51q0,5.241,0,10.483A2.028,2.028,0,0,0,3.52,16.167H19.48a2.027,2.027,0,0,0,2.163-2.161q0-5.242,0-10.483A2.028,2.028,0,0,0,19.47,1.35H11.5" transform="translate(0 0)" fill="#fff"/>
    <path id="Path_5731" data-name="Path 5731" d="M146.677,82.687c0-1.085,0-2.17,0-3.255a.693.693,0,0,1,1.132-.625q2.584,1.621,5.172,3.235a.692.692,0,0,1,0,1.289q-2.585,1.618-5.172,3.235a.693.693,0,0,1-1.132-.624c.006-1.085,0-2.17,0-3.255m1.365-2.142V84.83l3.426-2.143-3.426-2.142" transform="translate(-137.876 -73.93)" fill="#fff"/>
  </g>
</symbol>


<symbol id="toolTip" xmlns="http://www.w3.org/2000/svg" xmlns:xlink="http://www.w3.org/1999/xlink" width="16.03" height="16" viewBox="0 0 16.03 16">
  <defs>
    <clipPath id="clip-path">
      <rect id="Rectangle_2414" data-name="Rectangle 2414" width="16.03" height="16" fill="#a6302d"/>
    </clipPath>
  </defs>
  <g id="Group_2947" data-name="Group 2947" transform="translate(-395 -300)">
    <ellipse id="Ellipse_146" data-name="Ellipse 146" cx="3.5" cy="6.5" rx="3.5" ry="6.5" transform="translate(400 302)" fill="#fff"/>
    <g id="Group_2946" data-name="Group 2946" transform="translate(395 300)">
      <g id="Group_2945" data-name="Group 2945" clip-path="url(#clip-path)">
        <path id="Path_6114" data-name="Path 6114" d="M0,8.469V7.532c.013-.108.026-.215.038-.323A7.808,7.808,0,0,1,1.77,3.014a7.871,7.871,0,0,1,5.9-3,7.571,7.571,0,0,1,4.392,1.1,7.915,7.915,0,0,1,3.843,5.525c.055.3.083.6.124.894v.938c-.013.108-.026.215-.038.323a7.785,7.785,0,0,1-1.315,3.631,7.941,7.941,0,0,1-5.3,3.455c-.3.054-.6.083-.9.123H7.545c-.108-.013-.216-.026-.324-.038A7.817,7.817,0,0,1,3.584,14.65,7.924,7.924,0,0,1,.124,9.363c-.055-.3-.083-.6-.124-.894m8.954.94V9.175c0-.693,0-1.385,0-2.078a.939.939,0,1,0-1.876.026q0,1.406,0,2.812c0,.594,0,1.187,0,1.781a.938.938,0,1,0,1.876.005c.007-.771,0-1.542,0-2.312M8,5.187a.936.936,0,1,0-.928-.946A.947.947,0,0,0,8,5.187" transform="translate(0 -0.001)" fill="#a6302d"/>
      </g>
    </g>
  </g>
</symbol>


<symbol id="toolTipIcon" xmlns="http://www.w3.org/2000/svg" xmlns:xlink="http://www.w3.org/1999/xlink" width="16.03" height="16" viewBox="0 0 16.03 16">
  <defs>
    <clipPath id="clip-path">
      <rect id="Rectangle_2414" data-name="Rectangle 2414" width="16.03" height="16" fill="#224099"/>
    </clipPath>
  </defs>
  <g id="Group_2947" data-name="Group 2947" transform="translate(-395 -300)">
    <ellipse id="Ellipse_146" data-name="Ellipse 146" cx="3.5" cy="6.5" rx="3.5" ry="6.5" transform="translate(400 302)" fill="#fff"/>
    <g id="Group_2946" data-name="Group 2946" transform="translate(395 300)">
      <g id="Group_2945" data-name="Group 2945" clip-path="url(#clip-path)">
        <path id="Path_6114" data-name="Path 6114" d="M0,8.469V7.532c.013-.108.026-.215.038-.323A7.808,7.808,0,0,1,1.77,3.014a7.871,7.871,0,0,1,5.9-3,7.571,7.571,0,0,1,4.392,1.1,7.915,7.915,0,0,1,3.843,5.525c.055.3.083.6.124.894v.938c-.013.108-.026.215-.038.323a7.785,7.785,0,0,1-1.315,3.631,7.941,7.941,0,0,1-5.3,3.455c-.3.054-.6.083-.9.123H7.545c-.108-.013-.216-.026-.324-.038A7.817,7.817,0,0,1,3.584,14.65,7.924,7.924,0,0,1,.124,9.363c-.055-.3-.083-.6-.124-.894m8.954.94V9.175c0-.693,0-1.385,0-2.078a.939.939,0,1,0-1.876.026q0,1.406,0,2.812c0,.594,0,1.187,0,1.781a.938.938,0,1,0,1.876.005c.007-.771,0-1.542,0-2.312M8,5.187a.936.936,0,1,0-.928-.946A.947.947,0,0,0,8,5.187" transform="translate(0 -0.001)" fill="#a6302d"/>
      </g>
    </g>
  </g>
</symbol>



<symbol id="closeIcon" xmlns="http://www.w3.org/2000/svg" xmlns:xlink="http://www.w3.org/1999/xlink" width="8" height="8" viewBox="0 0 8 8">
  <defs>
    <clipPath id="clip-path">
      <rect id="Rectangle_2447" data-name="Rectangle 2447" width="8" height="8" transform="translate(0 -0.25)" fill="#8f8f8f"/>
    </clipPath>
  </defs>
  <g id="Group_3004" data-name="Group 3004" transform="translate(0.25 0.5)">
    <g id="Group_3003" data-name="Group 3003" transform="translate(-0.25 -0.25)" clip-path="url(#clip-path)">
      <path id="Path_6116" data-name="Path 6116" d="M7.252,0H7.4a.435.435,0,0,1,.3.3v.15a.7.7,0,0,1-.2.278Q5.978,2.257,4.449,3.787l-.068.071c.028.024.052.042.073.064Q5.979,5.446,7.5,6.969a.73.73,0,0,1,.2.283V7.4a.439.439,0,0,1-.3.3h-.15a.707.707,0,0,1-.278-.2Q5.447,5.977,3.917,4.449l-.075-.071a.878.878,0,0,1-.061.076Q2.256,5.981.729,7.508a.7.7,0,0,1-.278.2H.3A.441.441,0,0,1,0,7.4v-.15a.712.712,0,0,1,.2-.278Q1.727,5.447,3.255,3.917l.072-.075a1,1,0,0,1-.082-.066Q1.718,2.25.191.724A.689.689,0,0,1,0,.451V.3A.435.435,0,0,1,.3,0h.15A.683.683,0,0,1,.724.19L3.787,3.255a.347.347,0,0,1,.045.079l.035-.013a.844.844,0,0,1,.061-.076Q5.454,1.717,6.98.191A.685.685,0,0,1,7.252,0" transform="translate(0.046 0.046)" fill="#8f8f8f"/>
    </g>
  </g>
</symbol>


<symbol id="CleaFilters" data-name="Group 1227" xmlns="http://www.w3.org/2000/svg" xmlns:xlink="http://www.w3.org/1999/xlink" width="13.781" height="14.678" viewBox="0 0 13.781 14.678">
  <defs>
    <clipPath id="clip-path">
      <rect id="Rectangle_1978" data-name="Rectangle 1978" width="13.781" height="14.678" fill="#224099"/>
    </clipPath>
  </defs>
  <g id="Group_1226" data-name="Group 1226" clip-path="url(#clip-path)">
    <path id="Path_3752" data-name="Path 3752" d="M10.309,1.7c-.045-.259-.083-.477-.12-.7a.825.825,0,0,1,.67-.991.808.808,0,0,1,.932.7q.249,1.39.482,2.784a.817.817,0,0,1-.7.983l-2.785.475a.814.814,0,0,1-.96-.66.8.8,0,0,1,.644-.934c.34-.072.684-.123,1.027-.183l.019-.066c-.4-.155-.788-.345-1.2-.459A5.294,5.294,0,1,0,12.158,8.6a.806.806,0,0,1,.931-.74.818.818,0,0,1,.676,1.018,6.721,6.721,0,0,1-1.81,3.635,6.782,6.782,0,0,1-5.318,2.157A6.924,6.924,0,0,1,5.148,1.061a6.812,6.812,0,0,1,4.97.542l.191.1" transform="translate(0 0)" fill="#224099"/>
  </g>
</symbol>


<symbol id="MCleaFilters" xmlns="http://www.w3.org/2000/svg" xmlns:xlink="http://www.w3.org/1999/xlink" width="13.781" height="14.678" viewBox="0 0 13.781 14.678">
  <defs>
    <clipPath id="clip-path">
      <rect id="Rectangle_1978" data-name="Rectangle 1978" width="13.781" height="14.678" fill="#ffa100"/>
    </clipPath>
  </defs>
  <g id="Group_1226" data-name="Group 1226" clip-path="url(#clip-path)">
    <path id="Path_3752" data-name="Path 3752" d="M10.309,1.7c-.045-.259-.083-.477-.12-.7a.825.825,0,0,1,.67-.991.808.808,0,0,1,.932.7q.249,1.39.482,2.784a.817.817,0,0,1-.7.983l-2.785.475a.814.814,0,0,1-.96-.66.8.8,0,0,1,.644-.934c.34-.072.684-.123,1.027-.183l.019-.066c-.4-.155-.788-.345-1.2-.459A5.294,5.294,0,1,0,12.158,8.6a.806.806,0,0,1,.931-.74.818.818,0,0,1,.676,1.018,6.721,6.721,0,0,1-1.81,3.635,6.782,6.782,0,0,1-5.318,2.157A6.924,6.924,0,0,1,5.148,1.061a6.812,6.812,0,0,1,4.97.542l.191.1" transform="translate(0 0)" fill="#ffa100"/>
  </g>
</symbol>


<symbol id="Enquire" data-name="Group 1210" xmlns="http://www.w3.org/2000/svg" xmlns:xlink="http://www.w3.org/1999/xlink" width="19.901" height="20.894" viewBox="0 0 19.901 20.894">
  <defs>
    <clipPath id="clip-path">
      <rect id="Rectangle_1974" data-name="Rectangle 1974" width="19.901" height="20.894" fill="#fff"/>
    </clipPath>
  </defs>
  <g id="Group_1209" data-name="Group 1209" transform="translate(0)">
    <g id="Group_1208" data-name="Group 1208" clip-path="url(#clip-path)">
      <path id="Path_3749" data-name="Path 3749" d="M9.97,19.928a10.932,10.932,0,0,1-3.248-.59,1.165,1.165,0,0,0-.787-.008c-1.567.507-3.138,1-4.705,1.506a.693.693,0,0,1-.771-.128.686.686,0,0,1-.131-.769c.43-1.293.846-2.591,1.277-3.884a.981.981,0,0,0-.1-.888A9.872,9.872,0,0,1,2.347,3.54,9.624,9.624,0,0,1,9.238.027a9.938,9.938,0,0,1,2.653,19.66c-.631.125-1.28.163-1.921.241m-.055-.475.008.054c.682-.09,1.374-.132,2.043-.278A9.515,9.515,0,1,0,.468,9.188a9.3,9.3,0,0,0,1.377,5.721,1.466,1.466,0,0,1,.149,1.335c-.427,1.264-.838,2.534-1.246,3.8a.412.412,0,0,0,.026.343.417.417,0,0,0,.345.025q2.367-.742,4.727-1.505a1.447,1.447,0,0,1,.976.01,9.258,9.258,0,0,0,3.093.531" transform="translate(0 0)" fill="#fff"/>
      <path id="Path_3750" data-name="Path 3750" d="M102.167,61.179a3.95,3.95,0,0,1,2.105-3.575,1.943,1.943,0,1,0-2.871-1.912,4.024,4.024,0,0,1-.059.528,1.168,1.168,0,0,1-1.31.874A1.192,1.192,0,0,1,99.025,55.9a4.3,4.3,0,1,1,6.544,3.676c-.116.069-.235.134-.346.21a1.535,1.535,0,0,0-.7,1.252c-.012.262,0,.528-.031.787a1.171,1.171,0,0,1-2.319-.028,5.23,5.23,0,0,1,0-.617" transform="translate(-93.38 -48.703)" fill="#fff"/>
      <path id="Path_3751" data-name="Path 3751" d="M154.994,256.4a1.179,1.179,0,1,1-1.189,1.173,1.185,1.185,0,0,1,1.189-1.173" transform="translate(-145.039 -241.787)" fill="#fff"/>
    </g>
  </g>
</symbol>

<symbol id="EnquireWhite" data-name="Group 1210" xmlns="http://www.w3.org/2000/svg" xmlns:xlink="http://www.w3.org/1999/xlink" width="19.901" height="20.894" viewBox="0 0 19.901 20.894">
  <defs>
    <clipPath id="clip-path">
      <rect id="Rectangle_1974" data-name="Rectangle 1974" width="19.901" height="20.894" fill="#fff"/>
    </clipPath>
  </defs>
  <g id="Group_1209" data-name="Group 1209" transform="translate(0)">
    <g id="Group_1208" data-name="Group 1208" clip-path="url(#clip-path)">
      <path id="Path_3749" data-name="Path 3749" d="M9.97,19.928a10.932,10.932,0,0,1-3.248-.59,1.165,1.165,0,0,0-.787-.008c-1.567.507-3.138,1-4.705,1.506a.693.693,0,0,1-.771-.128.686.686,0,0,1-.131-.769c.43-1.293.846-2.591,1.277-3.884a.981.981,0,0,0-.1-.888A9.872,9.872,0,0,1,2.347,3.54,9.624,9.624,0,0,1,9.238.027a9.938,9.938,0,0,1,2.653,19.66c-.631.125-1.28.163-1.921.241m-.055-.475.008.054c.682-.09,1.374-.132,2.043-.278A9.515,9.515,0,1,0,.468,9.188a9.3,9.3,0,0,0,1.377,5.721,1.466,1.466,0,0,1,.149,1.335c-.427,1.264-.838,2.534-1.246,3.8a.412.412,0,0,0,.026.343.417.417,0,0,0,.345.025q2.367-.742,4.727-1.505a1.447,1.447,0,0,1,.976.01,9.258,9.258,0,0,0,3.093.531" transform="translate(0 0)" fill="#A6302D"/>
      <path id="Path_3750" data-name="Path 3750" d="M102.167,61.179a3.95,3.95,0,0,1,2.105-3.575,1.943,1.943,0,1,0-2.871-1.912,4.024,4.024,0,0,1-.059.528,1.168,1.168,0,0,1-1.31.874A1.192,1.192,0,0,1,99.025,55.9a4.3,4.3,0,1,1,6.544,3.676c-.116.069-.235.134-.346.21a1.535,1.535,0,0,0-.7,1.252c-.012.262,0,.528-.031.787a1.171,1.171,0,0,1-2.319-.028,5.23,5.23,0,0,1,0-.617" transform="translate(-93.38 -48.703)" fill="#A6302D"/>
      <path id="Path_3751" data-name="Path 3751" d="M154.994,256.4a1.179,1.179,0,1,1-1.189,1.173,1.185,1.185,0,0,1,1.189-1.173" transform="translate(-145.039 -241.787)" fill="#A6302D"/>
    </g>
  </g>
</symbol>


<symbol id="popupClose" xmlns="http://www.w3.org/2000/svg" xmlns:xlink="http://www.w3.org/1999/xlink" width="74" height="74" viewBox="0 0 74 74">
  <defs>
    <filter id="Ellipse_3" x="0" y="0" width="74" height="74" filterUnits="userSpaceOnUse">
      <feOffset dy="2" input="SourceAlpha"/>
      <feGaussianBlur stdDeviation="6.5" result="blur"/>
      <feFlood flood-opacity="0.161"/>
      <feComposite operator="in" in2="blur"/>
      <feComposite in="SourceGraphic"/>
    </filter>
  </defs>
  <g id="Group_3061" data-name="Group 3061" transform="translate(485.5 -141.5)">
    <g id="Group_3060" data-name="Group 3060">
      <g id="Group_549" data-name="Group 549" transform="translate(-466 159)">
        <g transform="matrix(1, 0, 0, 1, -19.5, -17.5)" filter="url(#Ellipse_3)">
          <circle id="Ellipse_3-2" data-name="Ellipse 3" cx="17.5" cy="17.5" r="17.5" transform="translate(19.5 17.5)" fill="#fff"/>
        </g>
      </g>
      <g id="Group_3027" data-name="Group 3027" transform="translate(-454.971 169.588)">
        <g id="Group_874" data-name="Group 874" transform="translate(0 0)">
          <line id="Line_70" data-name="Line 70" x2="12.971" y2="14.412" fill="none" stroke="#474747" stroke-width="1"/>
          <line id="Line_71" data-name="Line 71" x1="12.971" y2="14.412" fill="none" stroke="#474747" stroke-width="1"/>
        </g>
      </g>
    </g>
  </g>
</symbol>


<symbol id="FilterIcon2" xmlns="http://www.w3.org/2000/svg" xmlns:xlink="http://www.w3.org/1999/xlink" width="34" height="34" viewBox="0 0 34 34">
  <defs>
    <clipPath id="clip-path">
      <rect id="Rectangle_2204" data-name="Rectangle 2204" width="29.364" height="23.515"/>
    </clipPath>
    <clipPath id="clip-Web_1920_2">
      <rect width="34" height="34"/>
    </clipPath>
  </defs>
  <g id="Web_1920_2" data-name="Web 1920  2" clip-path="url(#clip-Web_1920_2)">
    <rect width="34" height="34" fill="#EBEBEB"/>
    <g id="Group_1908" data-name="Group 1908" transform="translate(2 5)">
      <g id="Group_1907" data-name="Group 1907" clip-path="url(#clip-path)">
        <path id="Path_5735" data-name="Path 5735" d="M29.363,107.816a1.127,1.127,0,0,1-1.182.7c-4.776-.014-9.551-.008-14.327-.008h-.346a3.821,3.821,0,0,1-7.336.265.324.324,0,0,0-.376-.27c-1.538.01-3.076-.01-4.613.014a1.117,1.117,0,0,1-1.183-.7v-.459a1.112,1.112,0,0,1,1.182-.7c1.547.023,3.095,0,4.642.012a.288.288,0,0,0,.338-.241,3.811,3.811,0,0,1,7.272,0c.023.072.049.142.081.237h.338c4.776,0,9.552.006,14.328-.008a1.126,1.126,0,0,1,1.182.7Zm-17.587-.243a1.984,1.984,0,1,0-1.967,2,1.986,1.986,0,0,0,1.967-2" transform="translate(0.001 -95.829)"/>
        <path id="Path_5736" data-name="Path 5736" d="M0,211.23a1.173,1.173,0,0,1,1.227-.677c4.749.013,9.5,0,14.246.014a.426.426,0,0,0,.5-.345,3.806,3.806,0,0,1,7.2.027.4.4,0,0,0,.464.317c1.49-.012,2.981.01,4.471-.014a1.19,1.19,0,0,1,1.257.677v.459a1.066,1.066,0,0,1-1.138.715c-1.556-.021-3.113,0-4.67-.011a.31.31,0,0,0-.36.257,3.806,3.806,0,0,1-7.255,0c-.072-.226-.187-.256-.391-.256-4.8,0-9.607,0-14.411.01A1.073,1.073,0,0,1,0,211.689ZM19.572,209.5a1.982,1.982,0,0,0-.01,3.964,1.982,1.982,0,1,0,.01-3.964" transform="translate(0 -191.787)"/>
        <path id="Path_5737" data-name="Path 5737" d="M29.364,4.072a1.177,1.177,0,0,1-1.228.677c-1.528-.024-3.057,0-4.586-.012A.311.311,0,0,0,23.193,5a3.81,3.81,0,0,1-7.249,0c-.071-.222-.176-.262-.384-.262-4.777.005-9.554,0-14.331.012A1.187,1.187,0,0,1,0,4.072V3.613A1.064,1.064,0,0,1,1.138,2.9c4.795.012,9.589,0,14.384.013a.375.375,0,0,0,.434-.314,3.808,3.808,0,0,1,7.23.026.344.344,0,0,0,.4.287c1.538-.011,3.076.01,4.613-.014a1.082,1.082,0,0,1,1.167.716ZM19.565,5.8a1.982,1.982,0,1,0-1.978-1.983A1.989,1.989,0,0,0,19.565,5.8" transform="translate(0 0)"/>
      </g>
    </g>
  </g>
</symbol>



<symbol id="SortIcon" xmlns="http://www.w3.org/2000/svg" xmlns:xlink="http://www.w3.org/1999/xlink" width="34" height="34" viewBox="0 0 34 34">
  <defs>
    <clipPath id="clip-path">
      <rect id="Rectangle_2203" data-name="Rectangle 2203" width="28.739" height="21"/>
    </clipPath>
    <clipPath id="clip-Web_1920_1">
      <rect width="34" height="34"/>
    </clipPath>
  </defs>
  <g id="Web_1920_1" data-name="Web 1920  1" clip-path="url(#clip-Web_1920_1)">
    <rect width="34" height="34" fill="#EBEBEB"/>
    <g id="Group_1905" data-name="Group 1905" transform="translate(-286.11 -1482.76)">
      <g id="Group_1904" data-name="Group 1904" transform="translate(289.11 1489.76)">
        <g id="Group_1903" data-name="Group 1903" clip-path="url(#clip-path)">
          <path id="Path_5730" data-name="Path 5730" d="M5.964,17.252c.722-.666,1.448-1.325,2.162-2a1.077,1.077,0,0,1,.951-.352.973.973,0,0,1,.813.686.99.99,0,0,1-.255,1.062Q8.32,18.01,7,19.367c-.409.422-.816.847-1.231,1.263a1.018,1.018,0,0,1-1.6-.006Q2.247,18.65.332,16.665A1.026,1.026,0,1,1,1.8,15.239c.623.632,1.238,1.271,1.853,1.911a1.911,1.911,0,0,1,.182.264l.113-.058v-.4q0-7.794,0-15.587A4.151,4.151,0,0,1,3.963.926,1.016,1.016,0,0,1,5.98.9,3.556,3.556,0,0,1,6,1.377Q6,9.154,6,16.932v.41l-.038-.089" transform="translate(0 -0.016)"/>
          <path id="Path_5731" data-name="Path 5731" d="M123.767,2.053c-2.33,0-4.661,0-6.992,0a1.142,1.142,0,0,1-.995-.407,1.019,1.019,0,0,1,.562-1.607,1.96,1.96,0,0,1,.445-.04q6.976,0,13.951,0a1.8,1.8,0,0,1,.566.077,1.015,1.015,0,0,1-.258,1.96c-.138.013-.278.012-.416.012h-6.863" transform="translate(-103.223 0)"/>
          <path id="Path_5732" data-name="Path 5732" d="M122.158,61.178q-2.724,0-5.448,0a1.037,1.037,0,0,1-1.117-.922,1.009,1.009,0,0,1,.932-1.123c.1-.007.192-.006.288-.006q5.368,0,10.736.007a1.657,1.657,0,0,1,.76.175.966.966,0,0,1,.423,1.113,1.026,1.026,0,0,1-1.031.755c-1.079.007-2.158,0-3.237,0h-2.307" transform="translate(-103.237 -52.807)"/>
          <path id="Path_5733" data-name="Path 5733" d="M120.531,120.189c-1.325,0-2.65.005-3.975,0a1.009,1.009,0,0,1-.96-.716.981.981,0,0,1,.368-1.11,1.3,1.3,0,0,1,.652-.212c2.618-.014,5.235-.012,7.853-.007a1.024,1.024,0,1,1,0,2.048c-1.314.007-2.628,0-3.943,0Z" transform="translate(-103.205 -105.515)"/>
          <path id="Path_5734" data-name="Path 5734" d="M118.95,177.3c.759,0,1.518-.005,2.276,0a1.028,1.028,0,1,1,.006,2.049q-2.276.009-4.553,0a1.039,1.039,0,0,1-1.118-1.025,1.025,1.025,0,0,1,1.111-1.024c.759-.007,1.517,0,2.276,0" transform="translate(-103.215 -158.357)"/>
        </g>
      </g>
    </g>
  </g>
</symbol>



<symbol id="twitter" xmlns="http://www.w3.org/2000/svg" xmlns:xlink="http://www.w3.org/1999/xlink" width="25" height="25" viewBox="0 0 25 25">
  <defs>
    <clipPath id="clip-path">
      <rect id="Rectangle_2504" data-name="Rectangle 2504" width="22.97" height="23.511" fill="none"/>
    </clipPath>
    <clipPath id="clip-Web_1920_1">
      <rect width="25" height="25"/>
    </clipPath>
  </defs>
  <g id="Web_1920_1" data-name="Web 1920  1" clip-path="url(#clip-Web_1920_1)">
    <g id="Group_3118" data-name="Group 3118" transform="translate(1 1)">
      <g id="Group_3117" data-name="Group 3117" transform="translate(0 0)" clip-path="url(#clip-path)">
        <path id="Path_6119" data-name="Path 6119" d="M22.958,0c-.544.641-1.084,1.284-1.632,1.922q-3.583,4.168-7.17,8.333c-.05.058-.1.118-.153.188L22.97,23.49c-.086.006-.142.014-.2.014-2.15,0-4.3,0-6.451,0a.332.332,0,0,1-.31-.175q-2.828-4.125-5.663-8.244c-.047-.068-.1-.134-.159-.222-.392.454-.77.892-1.147,1.33Q6,19.74,2.954,23.284a.576.576,0,0,1-.506.226c-.555-.015-1.111,0-1.721,0L9.29,13.552l-1.33-1.937L.126.214C.079.146.042.072,0,0H6.841c.027.046.051.093.081.137q3.032,4.414,6.065,8.827c.033.048.074.091.12.147.071-.081.132-.148.192-.218q2.447-2.844,4.893-5.688Q19.568,1.6,20.938,0ZM20.214,21.982c-.07-.107-.11-.172-.154-.234Q13.029,11.692,6,1.636a.359.359,0,0,0-.335-.179c-.887.008-1.775,0-2.662,0-.065,0-.129.008-.226.015.066.1.113.176.164.249l9.146,13.082q2.444,3.5,4.887,6.993a.368.368,0,0,0,.354.186c.359-.013.719,0,1.078,0h1.807" transform="translate(0 0)"/>
      </g>
    </g>
  </g>
</symbol>


</svg>