<?xml version="1.0" encoding="UTF-8"?>
<svg width="66px" height="66px" viewBox="0 0 66 66" version="1.1" xmlns="http://www.w3.org/2000/svg" xmlns:xlink="http://www.w3.org/1999/xlink">
    <title>1099639</title>
    <g id="TN-Design" stroke="none" stroke-width="1" fill="none" fill-rule="evenodd" opacity="0.400000006">
        <g id="Times-HP-01-RHS-LiveTV-01-02" transform="translate(-415, -3671)" fill="#000000" fill-rule="nonzero">
            <g id="Group-73" transform="translate(-40, 1301)">
                <g id="Group-19" transform="translate(0, 1234)">
                    <g id="sports-copy" transform="translate(0, 422)">
                        <g id="scorecard" transform="translate(200, 652)">
                            <g id="1099639" transform="translate(255, 62)">
                                <path d="M10.3145196,2.23126786 C10.2673518,1.58139852 10.0026629,0.981771306 9.57952689,0.567820892 C9.15547514,0.148409461 8.60869552,-0.0514663684 8.06054218,0.0113361874 L1.87927722,0.703801906 C1.33249761,0.762235565 0.82784853,1.07788643 0.477066948,1.58139852 C0.125827573,2.08436453 -0.0422362123,2.7336878 0.00905301557,3.38519537 L0.300760337,7.07142857 L10.6071429,5.92023157 L10.3145196,2.23126786 Z" id="Shape"></path>
                                <path d="M17.3820753,65.6113494 C17.5989405,65.3686437 17.7051089,65.0415861 17.6729062,64.7134935 L16.5357475,52.2946196 C11.4044451,45.7177604 10.5737155,36.6289745 14.4244567,29.1837565 L12.5028598,8.25 L1.17857143,9.34139946 L6.27616167,64.9411918 C6.3320133,65.5435574 6.82511747,66.0025766 7.41281714,66 L16.5463141,66 C16.8658254,65.9989541 17.1697387,65.8576776 17.3820753,65.6113494 Z" id="Shape"></path>
                                <path d="M25.9285714,20.0357143 C29.3657909,18.8722634 33.0178657,18.8588161 36.4611441,19.9980621 L36.5357143,9.42857143 L26.0036076,9.42857143 L25.9285714,20.0357143 Z" id="Shape"></path>
                                <path d="M29.6135245,48.8706338 C22.2346626,41.9609231 19.5795388,31.7365555 22.7374619,22.3928571 C21.8037684,22.8913969 20.916223,23.4628196 20.0828746,24.1005456 C19.9057949,24.7058792 19.7389105,25.3142496 19.6090521,25.9190771 C19.4936819,26.4515276 18.9978584,26.8336571 18.4215441,26.8341633 C18.3405167,26.8341633 18.2589527,26.8265713 18.1789985,26.8113873 C17.9385993,26.7617865 17.7202008,26.6418332 17.5559995,26.4682301 C12.6852316,31.8944686 11.5900199,39.4915063 14.7484796,45.9467107 C17.9069395,52.4024213 24.7459763,56.546122 32.2836734,56.5714286 C32.2471842,56.3396203 32.2895761,56.1032567 32.4049461,55.8957426 C32.5600252,55.6300235 32.8208154,55.4331383 33.1299002,55.3486142 C33.4389849,55.2645963 33.7711437,55.2995195 34.0528616,55.4462976 C34.6227365,55.743397 35.2183687,56.0182266 35.815074,56.2743292 C37.2783971,56.0288553 38.7068408,55.6234438 40.0714286,55.0661927 C36.1359641,53.7689771 32.5610984,51.6508157 29.6135245,48.8706338 L29.6135245,48.8706338 Z M17.0016861,36.1662206 C16.7333833,34.5931631 16.5981587,33.0018849 16.5981587,31.408076 C16.5981587,31.2056233 16.5981587,31.004689 16.5981587,30.8042607 C16.6335748,30.1822248 17.1739364,29.6922893 17.8350343,29.683179 C18.156461,29.6892526 18.4628628,29.8157854 18.6855541,30.0349405 C18.908782,30.2540956 19.0300547,30.547652 19.0230789,30.8513311 L19.0230789,31.408076 C19.0241521,32.8799072 19.1486445,34.3487015 19.3965563,35.8018058 C19.5028041,36.424854 19.0536654,37.0119668 18.3925674,37.1121809 C18.3281748,37.1223035 18.2627089,37.1273649 18.1972431,37.1273649 C17.6032208,37.1263525 17.0966652,36.7199287 17.0016861,36.1662206 Z M22.4584271,46.6730098 C22.2743715,46.7737299 22.0650953,46.8263676 21.8525995,46.8253698 C21.4184857,46.8263676 21.0165683,46.608225 20.7997795,46.2534266 C19.8505245,44.6975775 19.0531288,43.0637842 18.4167147,41.3717857 C18.202609,40.7791055 18.5336947,40.1337875 19.1593766,39.9242489 C19.7855953,39.7152165 20.4735234,40.0199078 20.702654,40.6075268 C21.290237,42.1684372 22.0269963,43.6751914 22.9038097,45.1095687 C23.0647913,45.3727572 23.1077198,45.6855467 23.0240093,45.9791031 C22.9397623,46.2721535 22.7358521,46.5221825 22.4562807,46.6730098 L22.4584271,46.6730098 Z M29.8485577,54.2589126 C29.4230296,54.7463174 28.6594399,54.8166697 28.1421523,54.4153073 C27.346903,53.7988387 26.566142,53.1342878 25.8320657,52.4388628 C25.2262382,51.8730074 24.640265,51.2691923 24.081122,50.6481686 C23.6475448,50.1663311 23.709791,49.4440812 24.2206395,49.0351268 C24.7314879,48.6261723 25.4966873,48.6848835 25.9302646,49.1667209 C26.4470157,49.7386498 26.990597,50.2979254 27.5459837,50.8207596 C28.2285458,51.4645592 28.947597,52.0790031 29.68221,52.650932 C30.1978879,53.0522945 30.2708662,53.7720138 29.8464112,54.2589126 L29.8485577,54.2589126 Z" id="Shape"></path>
                                <path d="M46.2860122,49.8719325 C46.8007547,49.9781076 47.3374013,50.0445958 47.8709186,50.1141766 C51.5179245,45.4940159 52.7518464,39.446677 51.2013604,33.791052 C49.6508743,28.1349116 45.4969488,23.5302133 39.9886297,21.3608407 L39.9818499,21.3608407 C39.7393419,21.3531095 39.5051784,21.2696127 39.3137797,21.1222045 C37.2892299,20.407327 35.1556819,20.0393222 33.0059668,20.0357143 C32.5532853,20.0357143 32.1052977,20.0692162 31.6588745,20.1006564 C31.4231464,20.5748362 31.1874183,21.049016 30.984546,21.5335041 C30.8275678,21.9195482 30.4739757,22.1937479 30.0572793,22.2525049 C29.6400614,22.3107466 29.223365,22.145299 28.9631255,21.8180119 C28.7034073,21.4902094 28.6403031,21.0505623 28.7972813,20.6645179 C28.8197068,20.6088534 28.8468259,20.5552504 28.8702944,20.4990705 C28.1213883,20.6660642 27.3829126,20.8784143 26.6606042,21.1350898 C23.8866267,27.6926874 24.1437372,35.1187555 27.3636164,41.4737958 C30.5834953,47.828836 36.4464498,52.4809523 43.4207683,54.2142857 C44.3282172,53.6112526 45.1809063,52.9314231 45.9699696,52.1830436 C45.9146883,52.1711891 45.8521056,52.1680967 45.8004748,52.1562422 C45.3785632,52.0804764 45.0317508,51.7851449 44.8940689,51.3836383 C44.7569085,50.9826472 44.850261,50.5393921 45.1391845,50.2260211 C45.4275863,49.9126501 45.8656651,49.7791582 46.2823615,49.8765713 L46.2860122,49.8719325 Z M27.1127625,29.492509 L27.1127625,29.353863 C27.1122425,27.8916368 27.2488814,26.4330184 27.5205945,24.9965629 C27.6410662,24.3641513 28.2569841,23.9476978 28.8968921,24.0662427 C29.5367999,24.1847877 29.95819,24.7940056 29.8377184,25.4259018 C29.5926029,26.7211342 29.4695236,28.0359524 29.4700451,29.353863 C29.4830832,30.0074064 28.9688621,30.553744 28.3080934,30.5882767 L28.2914047,30.5882767 C27.9873571,30.6001313 27.6911324,30.4908636 27.4694854,30.2846985 C27.2478383,30.0785333 27.1195439,29.7929947 27.1127625,29.492509 Z M30.4379906,38.9049782 C29.8366753,39.1503148 29.1477443,38.8683839 28.8984566,38.2746283 C28.3148731,36.8845599 27.8710576,35.4408886 27.5727468,33.9647463 C27.4465383,33.3349117 27.8601056,32.7231166 28.4974059,32.5973559 C29.1341848,32.4710798 29.7542749,32.8782559 29.8836124,33.5070597 C30.1521964,34.8352785 30.551161,36.1346342 31.075291,37.3860566 C31.3224925,37.9792968 31.0372199,38.6586108 30.4379906,38.9049782 Z M35.5984544,45.7512068 C35.135864,46.203224 34.3900871,46.1991007 33.9321905,45.7419295 C32.8609835,44.6729633 31.8956456,43.5050378 31.0492149,42.2546462 C30.7894967,41.909835 30.7430812,41.4511176 30.9287432,41.0619809 C31.1144052,40.6733597 31.5018962,40.4166841 31.9363244,40.3955522 C32.371274,40.3744201 32.7822336,40.591409 33.0059668,40.9604446 C33.7668678,42.0881679 34.6352025,43.1411562 35.5984544,44.1054937 C36.0579155,44.5600879 36.0579155,45.2966128 35.5984544,45.7512068 Z M42.9800819,50.1770569 C42.8575241,50.4615648 42.6254467,50.6857694 42.3349588,50.8012219 C42.0449922,50.9161589 41.7200839,50.912551 41.432725,50.7909136 C40.0308729,50.1992197 38.6905604,49.4735184 37.4316055,48.6246334 C36.9491973,48.2437434 36.8464573,47.5592752 37.1953559,47.0562323 C37.5447758,46.5531893 38.2274485,46.4016579 38.760966,46.7088439 C39.8926695,47.4732012 41.0979076,48.1257138 42.3589488,48.6571045 C42.9555703,48.9096567 43.2330202,49.5915479 42.9800819,50.1816957 L42.9800819,50.1770569 Z" id="Shape"></path>
                                <path d="M52.7596924,29.1803582 C56.6127718,36.6291642 55.7817943,45.7238293 50.647541,52.3036424 L49.5051985,64.7195267 C49.4745146,65.048181 49.5806504,65.3752825 49.797449,65.619056 C50.0137445,65.863347 50.3205825,66.0015371 50.6415047,66 L59.7721962,66 C60.3602185,66.0030897 60.8536742,65.5429738 60.9090057,64.9405273 L66,9.34102856 L54.680699,8.25 L52.7596924,29.1803582 Z" id="Shape"></path>
                                <path d="M64.1234288,0.702891957 L57.9418691,0.0121305735 C57.3950634,-0.0527988249 56.8491737,0.144717405 56.4251017,0.561575151 C56.0014875,0.978432617 55.7354121,1.57971159 55.6854944,2.23173366 L55.3928571,5.92070519 L65.6983573,7.07142857 L65.9914525,3.38573087 C66.0940358,2.03476288 65.2614624,0.838752581 64.1284664,0.708893868 L64.1234288,0.702891957 Z" id="Shape"></path>
                                <path d="M36.4470047,59.5356645 C33.7218809,60.0474199 30.9333932,59.8397589 28.2857143,58.9285714 L28.2857143,64.7622534 C28.2857143,65.446055 28.7607101,66 29.3464756,66 L37.8320959,66 C38.4178614,66 38.8928571,65.446055 38.8928571,64.7622534 L38.8928571,58.9285714 C38.1920977,59.1603407 37.4805428,59.344989 36.7619474,59.4808727 C36.6619731,59.5175832 36.5577743,59.5362125 36.4531064,59.5367604 L36.4470047,59.5356645 Z" id="Shape"></path>
                                <path d="M38.8928571,2.42130963 C38.8974658,1.79885028 38.6787971,1.19975272 38.2850063,0.755880535 C37.8912154,0.312527462 37.3546109,0.0602212514 36.7931896,0.0550296978 L30.4443065,0 L30.4260451,0 C29.2643386,0 28.3198959,1.03829744 28.3100628,2.32630538 L28.2857143,5.89285714 L38.8670302,5.89285714 L38.8928571,2.42130963 Z" id="Shape"></path>
                            </g>
                        </g>
                    </g>
                </g>
            </g>
        </g>
    </g>
</svg>