<svg width="46" height="46" viewBox="0 0 46 46" xmlns="http://www.w3.org/2000/svg">
    <g fill="#000" fill-rule="nonzero" opacity=".034">
        <path d="M7.189 1.555a1.806 1.806 0 0 0-.512-1.16A1.291 1.291 0 0 0 5.618.009L1.31.49C.929.53.577.75.333 1.102c-.245.35-.362.803-.327 1.257L.21 4.93l7.183-.803-.204-2.57zM12.115 45.73a.82.82 0 0 0 .202-.627l-.792-8.655C7.949 31.864 7.37 25.529 10.053 20.34L8.714 5.75l-7.893.76 3.553 38.752c.04.42.383.74.793.738h6.365c.223 0 .435-.1.583-.27zM18.071 13.964c2.396-.81 4.941-.82 7.341-.026l.052-7.367h-7.34l-.053 7.393z"/>
        <path d="M20.64 34.061c-5.143-4.816-6.994-11.942-4.793-18.454-.65.348-1.269.746-1.85 1.19-.123.422-.24.846-.33 1.268-.08.37-.426.637-.828.638a.827.827 0 0 1-.603-.255c-3.395 3.781-4.158 9.076-1.957 13.575 2.202 4.5 6.968 7.388 12.222 7.406a.732.732 0 0 1 .084-.471.838.838 0 0 1 .506-.382.891.891 0 0 1 .643.068c.397.207.812.399 1.228.578a13.956 13.956 0 0 0 2.967-.843 19.523 19.523 0 0 1-7.29-4.318zm-8.79-8.854a19.722 19.722 0 0 1-.282-3.317v-.42c.025-.434.402-.775.862-.782a.87.87 0 0 1 .593.245c.156.153.24.358.236.57v.387c0 1.026.087 2.05.26 3.063.074.434-.24.843-.7.913a.878.878 0 0 1-.136.01c-.414 0-.767-.283-.833-.67zm3.803 7.323a.872.872 0 0 1-.422.106.855.855 0 0 1-.734-.399 20.158 20.158 0 0 1-1.661-3.402c-.15-.413.081-.863.518-1.009.436-.146.915.067 1.075.476.41 1.088.923 2.138 1.534 3.138a.758.758 0 0 1 .084.606.806.806 0 0 1-.396.484h.002zm5.15 5.287a.88.88 0 0 1-1.189.109 21.537 21.537 0 0 1-2.83-2.626.767.767 0 0 1 .097-1.124.88.88 0 0 1 1.192.092 20.06 20.06 0 0 0 2.615 2.428c.359.28.41.781.114 1.12h.002z"/>
        <path d="M32.26 34.76c.359.073.733.12 1.105.168a12.86 12.86 0 0 0 2.32-11.377c-1.08-3.942-3.975-7.151-7.814-8.663h-.005a.806.806 0 0 1-.465-.166 13.274 13.274 0 0 0-4.397-.758c-.315 0-.628.024-.939.046-.164.33-.328.66-.47.998a.828.828 0 0 1-1.409.198.805.805 0 0 1-.115-.803c.015-.04.034-.077.05-.116-.521.117-1.036.265-1.54.444a16.827 16.827 0 0 0 .49 14.175c2.245 4.43 6.331 7.672 11.192 8.88.632-.42 1.227-.894 1.777-1.416-.039-.008-.082-.01-.118-.019a.819.819 0 0 1-.632-.538.805.805 0 0 1 .17-.807.828.828 0 0 1 .797-.244l.003-.003zM18.897 20.554v-.096c0-1.02.095-2.036.284-3.037a.822.822 0 0 1 .96-.649c.445.083.739.508.655.948a14.69 14.69 0 0 0-.256 2.738.85.85 0 0 1-.81.86h-.012a.796.796 0 0 1-.573-.211.778.778 0 0 1-.248-.553zm2.317 6.56a.826.826 0 0 1-1.073-.439 15.892 15.892 0 0 1-.924-3.004.811.811 0 0 1 .645-.953.821.821 0 0 1 .966.634c.187.926.465 1.832.83 2.704a.809.809 0 0 1-.444 1.059zm3.597 4.772a.828.828 0 0 1-1.161-.006 16.505 16.505 0 0 1-2.01-2.43.804.804 0 0 1-.084-.832.824.824 0 0 1 1.448-.07c.53.785 1.136 1.52 1.807 2.191.32.317.32.83 0 1.147zm5.145 3.085a.817.817 0 0 1-.45.435.83.83 0 0 1-.629-.007 16.386 16.386 0 0 1-2.788-1.51.805.805 0 0 1-.165-1.093.828.828 0 0 1 1.091-.242c.789.532 1.629.987 2.508 1.358.416.176.61.65.433 1.062v-.003z"/>
        <path d="M36.772 20.338c2.685 5.191 2.106 11.53-1.472 16.116l-.796 8.654a.829.829 0 0 0 .203.626.78.78 0 0 0 .589.266h6.363a.801.801 0 0 0 .793-.738L46 6.51l-7.89-.76-1.338 14.588zM44.692.49 40.384.008a1.286 1.286 0 0 0-1.057.383c-.296.29-.481.71-.516 1.164l-.204 2.572 7.183.802.204-2.57c.072-.94-.509-1.774-1.298-1.865L44.692.49zM25.402 41.495c-1.899.356-3.842.211-5.688-.424v4.066c0 .477.331.863.74.863h5.914c.408 0 .74-.386.74-.863v-4.066c-.49.162-.985.29-1.486.385a.633.633 0 0 1-.215.04l-.005-.001zM27.107 1.688a1.733 1.733 0 0 0-.424-1.161 1.41 1.41 0 0 0-1.04-.489L21.22 0h-.013c-.81 0-1.468.724-1.475 1.621l-.017 2.486h7.375l.018-2.42z"/>
    </g>
</svg>
