<?xml version="1.0" encoding="UTF-8"?>
<svg width="352px" height="63px" viewBox="0 0 352 63" version="1.1" xmlns="http://www.w3.org/2000/svg" xmlns:xlink="http://www.w3.org/1999/xlink">
    <title>TimesNow world logo-01</title>
    <defs>
        <linearGradient x1="0.000211812717%" y1="49.9967667%" x2="99.9996078%" y2="49.9967667%" id="linearGradient-1">
            <stop stop-color="#B7181E" offset="0%"></stop>
            <stop stop-color="#ED1C24" offset="51.65%"></stop>
            <stop stop-color="#B7181E" offset="100%"></stop>
        </linearGradient>
        <linearGradient x1="3.41470577e-05%" y1="50.0004581%" x2="99.999761%" y2="50.0004581%" id="linearGradient-2">
            <stop stop-color="#B7181E" offset="0%"></stop>
            <stop stop-color="#ED1C24" offset="51.65%"></stop>
            <stop stop-color="#B7181E" offset="100%"></stop>
        </linearGradient>
    </defs>
    <g id="Times-Now-World" stroke="none" stroke-width="1" fill="none" fill-rule="evenodd">
        <g id="TN-World" transform="translate(-544.000000, -792.000000)">
            <g id="TimesNow-world-logo-01" transform="translate(544.000000, 793.072000)">
                <g id="Group" transform="translate(143.714286, 0.000000)" stroke="#808285" stroke-linecap="round" stroke-linejoin="round" stroke-width="2">
                    <circle id="Oval" cx="30" cy="30" r="30"></circle>
                    <ellipse id="Oval" cx="30" cy="30" rx="15.6521272" ry="30"></ellipse>
                    <line x1="30" y1="0" x2="30" y2="60" id="Path"></line>
                </g>
                <g id="Group" transform="translate(0.000000, 17.571429)" fill-rule="nonzero">
                    <rect id="Rectangle" fill="#FFFFFF" x="0" y="0" width="351.428571" height="26.5714286"></rect>
                    <g transform="translate(5.224714, 3.101571)">
                        <g transform="translate(0.000000, 0.025405)">
                            <path d="M23.0781429,3.01359473 L13.5394286,3.01359473 L13.5394286,20.1457376 L9.82028571,20.1457376 L9.82028571,3.01359473 L0,3.01359473 L0,0.192309014 L23.0781429,0.192309014 L23.0781429,3.01359473 Z M30.7637143,20.1457376 L30.7637143,0.359451871 L27.0424286,0.359451871 L27.0424286,20.1457376 L30.7637143,20.1457376 Z M52.401,17.1521662 L41.1904286,0.847166157 L40.8874286,0.359451871 L40.14,0.359451871 L36.9064286,0.359451871 L36.9064286,20.1457376 L40.14,20.1457376 L40.14,5.03945187 L49.0697143,18.0281662 L49.7318571,18.9885947 L49.8458571,19.122309 L50.6125714,20.1461662 L52.4005714,20.1461662 L52.4027143,20.1461662 L54.1881429,20.1461662 L55.035,18.9624519 L55.0667143,18.9890233 L55.7314286,18.0285947 L64.659,5.03988044 L64.659,20.1461662 L67.8951429,20.1461662 L67.8951429,0.359880442 L64.659,0.359880442 L63.9094286,0.359880442 L63.6064286,0.847594728 L52.4031429,17.1525947 L52.401,17.1525947 L52.401,17.1521662 Z M93.6107143,2.95788044 L93.6107143,0.272451871 L77.0948571,0.272451871 L77.0948571,0.272451871 L73.6452857,0.272451871 L73.6452857,0.359880442 L73.6452857,2.95830901 L73.6452857,8.8460233 L73.6452857,11.439309 L73.6452857,17.5528804 L73.6452857,20.1435947 L73.6452857,20.1461662 L93.6107143,20.1461662 L93.6107143,17.5528804 L77.0948571,17.5528804 L77.0948571,11.4388804 L93.6107143,11.4388804 L93.6107143,8.84559473 L77.0948571,8.84559473 L77.0948571,2.95788044 L93.6107143,2.95788044 L93.6107143,2.95788044 Z M115.027286,17.6565947 C115.027286,17.6565947 107.169429,17.6300233 104.333571,17.6107376 C101.505,17.598309 101.703857,15.4515947 101.703857,15.4515947 L101.703857,13.9400233 L98.7055714,13.8650233 L98.7055714,15.978309 C98.7055714,15.978309 98.361,19.5710233 102.524143,20.1461662 C107.395714,20.3985947 116.652857,20.1461662 116.652857,20.1461662 C116.652857,20.1461662 120.735857,19.8504519 121.344857,16.6820233 C121.344857,16.6820233 121.471286,15.0980233 121.344857,12.5240233 C120.796714,8.87773759 115.872,9.01573759 115.872,9.01573759 C115.872,9.01573759 107.495143,8.86316616 107.148,8.8460233 C100.959429,8.5550233 101.735571,7.5530233 101.619429,5.59273759 C101.619429,2.48516616 104.535429,2.95830901 104.535429,2.95830901 C107.762143,2.98016616 115.190571,2.95830901 115.190571,2.95830901 C115.190571,2.95830901 117.922286,2.73245187 117.747429,5.98573759 L120.857571,5.98573759 L120.857571,4.44545187 C120.811714,0.326023299 115.828714,0.212023299 115.828714,0.212023299 L105.326571,0.0011661565 C105.326571,0.0011661565 99.3587143,-0.183119558 98.568,4.08159473 C98.5071429,6.33030901 97.7164286,10.5320233 102.888429,11.1435947 C108.065143,11.7525947 113.484857,11.4397376 113.484857,11.4397376 C113.484857,11.4397376 117.812571,11.0248804 118.171714,13.152309 C118.356,14.9205947 118.848857,17.3805947 116.226,17.5528804 C116.136,17.5571662 115.027286,17.6565947 115.027286,17.6565947 Z" id="Shape" fill="url(#linearGradient-1)"></path>
                            <g transform="translate(125.773714, 0.020880)">
                                <path d="M58.8084468,0 L84.7392645,0 C85.0802945,0 85.3595311,0.278945096 85.3595311,0.620266629 L85.3595311,19.8202587 C85.3595311,20.1642035 85.0808775,20.4428571 84.7369327,20.4428571 L58.8110701,20.4428571 C58.4671252,20.4428571 58.1884716,20.1642035 58.1884716,19.8202587 L58.1884716,0.620266629 C58.1884716,0.278945096 58.4674167,0 58.8084468,0 Z" id="Path" fill="#264995"></path>
                                <path d="M0.620266629,0 L26.5461292,0 C26.8894911,0 27.1678532,0.278362138 27.1678532,0.621724022 L27.1678532,19.8199672 C27.1678532,20.163912 26.8891996,20.4425657 26.5452548,20.4425657 L0.621724022,20.4425657 C0.278362138,20.4425657 0,20.1642035 0,19.8208416 L0,0.61997515 C0,0.277487702 0.277779181,0 0.620266629,0 Z" id="Path" fill="#264995"></path>
                                <path d="M29.7153769,0 L55.6429883,0 C55.9854758,0 56.2629635,0.277487702 56.2629635,0.61997515 L56.2629635,19.8199672 C56.2629635,20.163912 55.9843099,20.4425657 55.640365,20.4425657 L29.7180002,20.4425657 C29.3740553,20.4425657 29.0954015,20.163912 29.0954015,19.8199672 L29.0954015,0.61997515 C29.0951102,0.277487702 29.3728894,0 29.7153769,0 Z" id="Path" fill="#264995"></path>
                                <polygon id="Path" fill="#FFFFFF" points="80.0173099 3.96789926 76.9827254 13.5027498 73.7062135 3.96789926 73.6995095 3.96789926 69.8484932 3.96789926 69.8435381 3.96789926 66.5684836 13.5027498 63.5341906 3.96789926 59.6750129 3.96789926 63.9300186 17.3374433 65.2483767 17.3374433 67.7894878 17.3374433 69.1093033 17.3374433 71.7740014 9.57769791 74.4401568 17.3374433 75.7602638 17.3374433 78.299626 17.3374433 79.6194415 17.3374433 83.8747387 3.96789926"></polygon>
                                <polygon id="Path" fill="#FFFFFF" points="18.14105 3.96789926 18.14105 13.7356413 10.2609239 3.96789926 7.98739024 3.96789926 6.60140912 3.96789926 3.88715966 3.96789926 3.88715966 17.3374433 7.98739024 17.3374433 7.98739024 7.39160782 15.7652073 17.3374433 18.14105 17.3374433 19.5666722 17.3374433 22.242738 17.3374433 22.242738 3.96789926"></polygon>
                                <path d="M46.480356,13.8163809 L38.6145124,13.8163809 C38.0315551,13.8163809 37.5590681,13.3438939 37.5590681,12.7609366 L37.5590681,8.25234436 C37.5590681,7.669387 38.0315551,7.19690006 38.6145124,7.19690006 L46.4800646,7.19690006 C47.0633134,7.19690006 47.5363833,7.66967848 47.5363833,8.25321879 L47.5363833,12.7603536 C47.5363833,13.3436024 47.0636049,13.8163809 46.480356,13.8163809 Z M51.7141472,13.2258451 L51.7141472,8.01041705 C51.7141472,5.64943975 49.8002982,3.73704814 47.4425272,3.73704814 L37.5759739,3.73704814 C35.2214091,3.73704814 33.309309,5.64943975 33.309309,8.01041705 L33.309309,13.2258451 C33.309309,15.5850735 35.2214091,17.4974651 37.5759739,17.4974651 L47.4425272,17.4974651 C49.8000067,17.4974651 51.7141472,15.5850735 51.7141472,13.2258451 Z" id="Shape" fill="#FFFFFF"></path>
                            </g>
                        </g>
                        <g transform="translate(215.345143, 0.000000)">
                            <path d="M0.912,0 L124.595571,0 C125.097,0 125.507571,0.44811522 125.507571,0.996435934 L125.507571,19.4426752 C125.507571,19.9952102 125.097857,20.4428571 124.592143,20.4428571 L0.915428571,20.4428571 C0.409714286,20.4428571 0,19.9952102 0,19.4426752 L0,0.996435934 C0,0.44811522 0.410571429,0 0.912,0 Z" id="Path" fill="url(#linearGradient-2)"></path>
                            <g transform="translate(5.821286, 3.701143)" fill="#FFFFFF">
                                <polygon id="Path" points="0 0.213 2.36142857 0.213 5.32671429 9.42771429 8.38028571 0.177857143 10.227 0.177857143 13.281 9.42771429 16.2458571 0.213 18.5365714 0.213 14.2221429 12.7302857 12.3222857 12.7302857 9.26828571 3.79971429 6.21471429 12.7302857 4.33242857 12.7302857"></polygon>
                                <path d="M30.5352857,6.46285714 L30.5352857,6.42728571 C30.5352857,2.92928571 33.234,0 37.0512857,0 C40.8681429,0 43.5317143,2.89414286 43.5317143,6.39171429 L43.5317143,6.42728571 C43.5317143,9.92485714 40.833,12.8545714 37.0157143,12.8545714 C33.1984286,12.8545714 30.5352857,9.96042857 30.5352857,6.46285714 Z M41.241,6.46285714 L41.241,6.42728571 C41.241,4.01271429 39.4834286,2.00657143 37.0157143,2.00657143 C34.548,2.00657143 32.8255714,3.97714286 32.8255714,6.39171429 L32.8255714,6.42728571 C32.8255714,8.84185714 34.5835714,10.8304286 37.0512857,10.8304286 C39.519,10.8304286 41.241,8.87742857 41.241,6.46285714 Z" id="Shape"></path>
                                <path d="M57.1821429,0.213 L62.7218571,0.213 C64.2844286,0.213 65.5092857,0.674571429 66.3081429,1.45585714 C66.9647143,2.13085714 67.3375714,3.054 67.3375714,4.137 L67.3375714,4.17257143 C67.3375714,6.21428571 66.1127143,7.43957143 64.3902857,7.93628571 L67.746,12.6415714 L65.1535714,12.6415714 L62.1,8.30957143 L59.3657143,8.30957143 L59.3657143,12.6415714 L57.1817143,12.6415714 L57.1817143,0.213 L57.1821429,0.213 Z M62.5615714,6.37414286 C64.1241429,6.37414286 65.1184286,5.55728571 65.1184286,4.29685714 L65.1184286,4.26128571 C65.1184286,2.92971429 64.1597143,2.20157143 62.5435714,2.20157143 L59.3657143,2.20157143 L59.3657143,6.37371429 L62.5615714,6.37371429 L62.5615714,6.37414286 Z" id="Shape"></path>
                                <polygon id="Path" points="81.0235714 0.213 83.2075714 0.213 83.2075714 10.6525714 89.7411429 10.6525714 89.7411429 12.6411429 81.0235714 12.6411429"></polygon>
                                <path d="M103.019143,0.213 L107.652857,0.213 C111.558857,0.213 114.257571,2.89414286 114.257571,6.39171429 L114.257571,6.42728571 C114.257571,9.92485714 111.558857,12.6415714 107.652857,12.6415714 L103.019143,12.6415714 L103.019143,0.213 Z M105.202714,2.20157143 L105.202714,10.6525714 L107.652857,10.6525714 C110.262857,10.6525714 111.967286,8.895 111.967286,6.46242857 L111.967286,6.42685714 C111.967286,3.99428571 110.262429,2.20114286 107.652857,2.20114286 L105.202714,2.20114286 L105.202714,2.20157143 Z" id="Shape"></path>
                            </g>
                        </g>
                    </g>
                </g>
            </g>
        </g>
    </g>
</svg>