<svg width="47" height="20" viewBox="0 0 47 20" xmlns="http://www.w3.org/2000/svg">
    <g fill="none" fill-rule="evenodd">
        <path fill="#FFF" d="M.894 18.801h12.92V10.44H.894zM16.79 18.801h12.92V10.44H16.79zM32.06 18.801h13.938V10.44H32.06z"/>
        <path fill="#B52025" d="M0 9.351h46.465V0H0z"/>
        <path d="M4.698 13.045c-.014.008-.03.008-.042.008v4.917H2.478v-6.78c.027-.002.046-.01.063-.01 1.083 0 2.168-.002 3.253 0 .044 0 .112.03.147.074.177.2.346.407.517.619.563.672 1.134 1.355 1.697 2.037.506.612 1.012 1.234 1.522 1.848.092.112.199.213.298.321.01-.01.028-.016.048-.026V11.19H12.2v6.786c-.041.006-.06.012-.09.012-1.073 0-2.144.003-3.22-.003-.048 0-.108-.023-.134-.057a44.67 44.67 0 0 1-.785-.94c-.257-.31-.51-.624-.77-.94-.442-.53-.888-1.058-1.333-1.59-.391-.47-.78-.942-1.17-1.413zM0 19.998h14.846V9.35H0v10.647zM23.22 18.062c-.632 0-1.263-.007-1.895 0-.63.013-1.243-.06-1.825-.282a1.679 1.679 0 0 1-.897-.773c-.234-.416-.292-.886-.305-1.351-.01-.72-.022-1.445.01-2.165.016-.385.08-.779.203-1.137.19-.56.664-.894 1.244-1.067.467-.145.945-.19 1.435-.19 1.282 0 2.562.003 3.843 0 .646-.003 1.277.039 1.88.276.424.163.74.433.95.818.201.392.263.816.269 1.246.002.646.009 1.287-.006 1.938 0 .31-.01.633-.062.941-.103.644-.42 1.16-1.065 1.439a3.89 3.89 0 0 1-1.476.3c-.772.02-1.535.007-2.304.007zm-7.47 1.936h14.93V9.35H15.75v10.647z" fill="#224099"/>
        <path d="M23.232 16.313h1.603a1.2 1.2 0 0 0 .647-.17.676.676 0 0 0 .325-.467c.115-.54.146-1.081.067-1.622a3.829 3.829 0 0 0-.156-.701c-.078-.225-.28-.33-.507-.417-.257-.099-.522-.09-.785-.09-.934 0-1.868-.026-2.806.01-.645.029-.976.328-1.028.91-.05.561-.025 1.131-.003 1.695.012.284.123.567.421.708.177.08.388.128.592.131.54.022 1.09.013 1.63.013" fill="#034EA1"/>
        <path d="m45.64 11.18-.304.917c-.119.355-.248.701-.365 1.06-.127.353-.236.7-.357 1.054-.14.403-.294.811-.432 1.214-.111.34-.206.673-.319 1.006-.155.472-.316.942-.476 1.41-.036.093-.077.153-.21.153-.754-.009-1.503-.006-2.254-.003-.1.003-.153-.025-.183-.128-.087-.287-.195-.566-.297-.849-.083-.215-.174-.43-.25-.65-.151-.4-.297-.803-.444-1.214-.116-.32-.233-.638-.346-.955-.09-.23-.174-.458-.277-.714-.04.087-.076.147-.097.209-.134.352-.26.704-.396 1.057-.095.265-.2.535-.297.8-.144.4-.284.805-.432 1.205-.12.333-.234.673-.369.99-.041.095-.023.252-.209.25-.753-.004-1.5 0-2.254-.004-.05 0-.107-.006-.166-.006-.768-2.265-1.531-4.521-2.305-6.794.079-.008.127-.01.18-.01.594 0 1.193.002 1.789-.004.143-.006.19.048.222.167.107.365.214.733.327 1.096.117.378.242.763.356 1.143l.44 1.497c.09.284.177.573.264.857.02.068.053.13.096.221.036-.066.061-.102.07-.136.097-.258.19-.522.279-.79.104-.29.212-.583.32-.87.152-.42.305-.84.452-1.256.113-.327.23-.657.346-.984.101-.28.214-.56.31-.843.032-.096.1-.108.186-.108.548.006 1.102.01 1.65 0 .168 0 .276 0 .337.211.109.407.279.795.42 1.195.218.59.435 1.186.651 1.775.107.297.218.587.324.876.109.304.213.612.314.918h.053c.5-1.66 1.006-3.312 1.5-4.963h2.153zM31.692 20h14.773V9.351H31.692c-.002.059-.008.116-.008.177v9.893c0 .194.006.384.008.579z" fill="#224099"/>
        <path d="M14.29 1.057v.192c-.006 2.247-.006 4.488-.006 6.731 0 .225 0 .225.247.225.299 0 .61-.007.91.006.143 0 .173-.044.173-.17-.009-1.63-.009-3.257-.012-4.885 0-.096 0-.19.035-.298.123.17.247.33.373.493.432.606.864 1.195 1.297 1.797.447.605.885 1.214 1.33 1.82.281.381.568.757.85 1.137a.217.217 0 0 0 .144.068c.405.006.802.006 1.212 0a.2.2 0 0 0 .138-.07c.463-.626.914-1.257 1.377-1.88.431-.597.874-1.184 1.307-1.78.337-.464.67-.935 1.006-1.393.048-.07.107-.13.185-.221v5.38h.936c.378 0 .378 0 .378-.362 0-2.19-.004-4.384-.004-6.572v-.218h-.795c-.228 0-.456-.006-.684.01a.274.274 0 0 0-.195.086c-.426.586-.846 1.176-1.27 1.756-.373.52-.768 1.026-1.144 1.544-.34.456-.673.923-1.004 1.384-.278.374-.553.743-.84 1.134a92.493 92.493 0 0 1-.466-.618c-.42-.58-.847-1.16-1.269-1.74-.384-.525-.768-1.05-1.15-1.579-.458-.624-.91-1.252-1.37-1.88-.031-.041-.093-.087-.136-.087-.51-.01-1.02-.01-1.554-.01M38.55 5.93c-.342 0-.675-.006-1.007 0-.033 0-.085.077-.088.116-.013.4-.03.814.135 1.198.13.317.368.55.689.704.43.199.882.289 1.36.289 1.163.012 2.327.028 3.494.028.508 0 1.024-.003 1.524-.13.687-.173 1.244-.561 1.323-1.343a6.716 6.716 0 0 0-.019-1.365c-.06-.407-.334-.707-.728-.903a2.912 2.912 0 0 0-1.323-.314c-1.237-.029-2.48-.02-3.724-.045a6.403 6.403 0 0 1-1.06-.125.667.667 0 0 1-.54-.532c-.067-.327-.083-.66.027-.983.127-.359.423-.487.769-.535.958-.144 1.92-.071 2.886-.074.552-.003 1.106.035 1.657.077.31.025.622.114.738.438.044.138.046.288.063.427.009.077 0 .16 0 .25h1.122c0-.618-.025-1.211-.594-1.63a2.102 2.102 0 0 0-.794-.328c-.795-.182-1.603-.182-2.413-.182-.754.005-1.511.005-2.267.038-.46.017-.927.07-1.347.253-.421.174-.734.452-.868.891a3.008 3.008 0 0 0 .028 1.836c.138.42.487.669.92.81.674.22 1.375.228 2.074.243 1.126.026 2.254.016 3.376.052.408.006.772.15.904.573.03.11.04.225.04.334 0 .28.037.563-.097.826-.096.189-.253.3-.442.381-.29.119-.597.119-.892.119-1.208.013-2.408.013-3.613 0-.327 0-.66-.01-.964-.17-.232-.129-.32-.33-.34-.56-.02-.215-.009-.427-.009-.664M29.382 4.1V1.994h6.143v-.952h-7.423v7.167h.178c2.37-.003 4.747-.01 7.123-.01.152 0 .192-.039.187-.183a4.795 4.795 0 0 1 0-.624c.008-.147-.05-.183-.197-.183-1.925.01-3.85.007-5.783.007h-.222V5.084h6.037c0-.314.003-.602-.006-.89 0-.037-.055-.077-.093-.087-.045-.02-.095-.006-.14-.006H29.381zM.866 1.045v.938h3.678v6.212h1.295V1.993h3.587v-.948zM10.906 8.198h1.267V1.067h-1.267z" fill="#FFF"/>
    </g>
</svg>
