<svg
      width="14px"
      height="14px"
      viewBox="0 0 13 10"
      version="1.1"
      xmlns="http://www.w3.org/2000/svg"
      xmlnsXlink="http://www.w3.org/1999/xlink"
    >
      <g
        id="Web-Design"
        stroke="none"
        strokeWidth="1"
        fill="none"
        fillRule="evenodd"
      >
        <g
          id="HP-V1-Widget"
          transform="translate(-1206.000000, -137.000000)"
          fill="#ffffff"
          fillRule="nonzero"
        >
          <g id="top-band" transform="translate(0.000000, 127.000000)">
            <g id="Group-54" transform="translate(1186.000000, 10.000000)">
              <g id="twt" transform="translate(20.000000, 0.000000)">
                <path
                  d="M3.9312501,10 C8.64812522,10 11.2281253,6.15228115 11.2281253,2.81591232 C11.2281253,2.70638107 11.2281253,2.59746856 11.2206253,2.48916856 C11.7225003,2.13226855 12.1556253,1.68922479 12.5,1.18218728 C12.0325003,1.38648103 11.5356253,1.52062479 11.0275003,1.57969354 C11.5625003,1.26402478 11.9631253,0.768062269 12.1550003,0.182874754 C11.6512503,0.477006012 11.1006253,0.684374767 10.5262503,0.79575602 C9.55500024,-0.220787756 7.9306252,-0.270012757 6.89750017,0.686224767 C6.23187516,1.30279353 5.94875015,2.22211231 6.15562515,3.09896858 C4.0937501,2.99682482 2.17250005,2.0381248 0.870000022,0.461012261 C0.189375005,1.61476854 0.537500013,3.09035608 1.66437504,3.83122485 C1.25625003,3.8195311 0.856875021,3.71123109 0.5,3.51555609 L0.5,3.54754984 C0.500625013,4.74931237 1.36125003,5.78431239 2.55750006,6.02244365 C2.18000005,6.1239749 1.78375004,6.13874365 1.40000004,6.06551865 C1.73562504,7.09436868 2.69875007,7.79893119 3.79562509,7.81923745 C2.88750007,8.52195621 1.76562504,8.90346247 0.610625015,8.90223747 C0.40687501,8.90161872 0.203125005,8.88992497 0,8.86593122 C1.17312503,9.60679999 2.53750006,10 3.9312501,9.99815625"
                  id="twitter-[#154]"
                ></path>
              </g>
            </g>
          </g>
        </g>
      </g>
    </svg>