<svg width="13" height="10" viewBox="0 0 13 10" xmlns="http://www.w3.org/2000/svg">
    <path d="M3.931 10c4.717 0 7.297-3.848 7.297-7.184 0-.11 0-.219-.007-.327.502-.357.935-.8 1.279-1.307a5.17 5.17 0 0 1-1.472.398A2.544 2.544 0 0 0 12.155.183a5.19 5.19 0 0 1-1.629.613 2.596 2.596 0 0 0-3.628-.11A2.503 2.503 0 0 0 6.156 3.1 7.323 7.323 0 0 1 .87.461a2.503 2.503 0 0 0 .794 3.37A2.576 2.576 0 0 1 .5 3.516v.032c0 1.201.861 2.236 2.058 2.474a2.59 2.59 0 0 1-1.158.044 2.562 2.562 0 0 0 2.396 1.753A5.197 5.197 0 0 1 0 8.866a7.346 7.346 0 0 0 3.931 1.132" fill="#FFF" fill-rule="nonzero"/>
</svg>
