<svg width="61.092" height="60" viewBox="0 0 61.092 60" xmlns="http://www.w3.org/2000/svg" xmlns:xlink="http://www.w3.org/1999/xlink">
    <defs>
        <path d="M21.856 0c-3.729 0-7.236 1.452-9.873 4.09a13.876 13.876 0 0 0-4.089 9.87c0 2.747.79 5.37 2.259 7.615L7.56 24.168l-2.708-2.71-4.09 4.09 2.71 2.708L0 31.728l4.088 4.09 3.472-3.473 2.77 2.769 4.088-4.088-2.77-2.77 2.592-2.592a13.87 13.87 0 0 0 7.616 2.258c1.864 0 3.673-.363 5.346-1.056a13.939 13.939 0 0 0 4.526-3.033 13.88 13.88 0 0 0 4.08-10.374 13.969 13.969 0 0 0-4.103-9.393A13.867 13.867 0 0 0 25.983.618 13.983 13.983 0 0 0 21.856 0zm-2.032 21.887a8.134 8.134 0 0 1-4.015-2.418 8.16 8.16 0 0 1-2.12-5.038 8.144 8.144 0 0 1 2.69-6.546 8.165 8.165 0 0 1 5.15-2.097 8.12 8.12 0 0 1 5.601 1.92c.175.148.345.305.51.469a8.12 8.12 0 0 1 2.396 5.784 8.173 8.173 0 0 1-.618 3.132 8.172 8.172 0 0 1-1.86 2.731 8.15 8.15 0 0 1-4.766 2.264 8.231 8.231 0 0 1-2.968-.201z" id="jb40wjrbta"/>
        <path d="M20.014 0c1.42 0 2.807.211 4.127.618a18.567 18.567 0 0 1 1.147 7.09 8.122 8.122 0 0 0-5.602-1.92 8.165 8.165 0 0 0-5.15 2.097 8.144 8.144 0 0 0-2.69 6.546 8.16 8.16 0 0 0 2.12 5.038 8.133 8.133 0 0 0 4.016 2.418 18.53 18.53 0 0 1-11.296 3.818c-2.355 0-4.611-.437-6.686-1.237l3.01-3.01 2.707 2.71 2.593-2.593a13.85 13.85 0 0 1-2.258-7.614c0-3.73 1.453-7.235 4.089-9.872A13.873 13.873 0 0 1 20.014 0z" id="quizi6rzjd"/>
        <path d="M23.608 0v5.781h3.723l-5.754 5.753a13.87 13.87 0 0 0-7.616-2.258c-.893 0-1.774.084-2.633.246h-.001a13.873 13.873 0 0 0-7.441 4.05 13.971 13.971 0 0 0-3.884 9.406 13.885 13.885 0 0 0 4.536 10.56 13.935 13.935 0 0 0 8.79 3.646c.201.009.4.013.6.014h.067a13.872 13.872 0 0 0 9.99-4.243 13.967 13.967 0 0 0 3.927-9.206 13.99 13.99 0 0 0-.618-4.665 13.814 13.814 0 0 0-1.63-3.461l5.754-5.754v3.723H37.2V0H23.608zM8.178 29.021a8.12 8.12 0 0 1-2.397-5.784 8.13 8.13 0 0 1 2.395-5.784h.002a8.124 8.124 0 0 1 5.783-2.395c.91 0 1.797.147 2.634.43 1.089.37 2.09.968 2.95 1.772l.001.002a8.13 8.13 0 0 1 2.594 5.976c0 2.31-.95 4.473-2.667 6.043a8.183 8.183 0 0 1-5.41 2.135h-.102a8.124 8.124 0 0 1-5.783-2.395z" id="717pmm9zpf"/>
        <path d="M25.871 0v13.592H20.09V9.869l-5.754 5.754a13.82 13.82 0 0 1 1.63 3.461 18.532 18.532 0 0 1-7.748-1.822l-.002-.002a8.137 8.137 0 0 0-2.95-1.771A18.699 18.699 0 0 1 0 9.522c.858-.162 1.74-.246 2.632-.246 2.747 0 5.37.79 7.616 2.258l5.754-5.753H12.28V0" id="ec5wi7d76i"/>
        <linearGradient x1="96.331%" y1="-25.511%" x2="24%" y2="106.59%" id="4rtlqoty7b">
            <stop stop-color="#E96490" offset="0%"/>
            <stop stop-color="#B62159" offset="100%"/>
        </linearGradient>
        <linearGradient x1="85.714%" y1="-30.55%" x2="21.918%" y2="104.958%" id="kf4fm4xjlg">
            <stop stop-color="#FFB81F" offset="0%"/>
            <stop stop-color="#ED6600" offset="100%"/>
        </linearGradient>
    </defs>
    <g fill="none" fill-rule="evenodd">
        <g transform="rotate(-45 41.855 17.337)">
            <mask id="3j3m4i2owc" fill="#fff">
                <use xlink:href="#jb40wjrbta"/>
            </mask>
            <path d="M21.856 0c-3.729 0-7.236 1.452-9.873 4.09a13.876 13.876 0 0 0-4.089 9.87c0 2.747.79 5.37 2.259 7.615L7.56 24.168l-2.708-2.71-4.09 4.09 2.71 2.708L0 31.728l4.088 4.09 3.472-3.473 2.77 2.769 4.088-4.088-2.77-2.77 2.592-2.592a13.87 13.87 0 0 0 7.616 2.258c1.864 0 3.673-.363 5.346-1.056a13.939 13.939 0 0 0 4.526-3.033 13.88 13.88 0 0 0 4.08-10.374 13.969 13.969 0 0 0-4.103-9.393A13.867 13.867 0 0 0 25.983.618 13.983 13.983 0 0 0 21.856 0zm-2.032 21.887a8.134 8.134 0 0 1-4.015-2.418 8.16 8.16 0 0 1-2.12-5.038 8.144 8.144 0 0 1 2.69-6.546 8.165 8.165 0 0 1 5.15-2.097 8.12 8.12 0 0 1 5.601 1.92c.175.148.345.305.51.469a8.12 8.12 0 0 1 2.396 5.784 8.173 8.173 0 0 1-.618 3.132 8.172 8.172 0 0 1-1.86 2.731 8.15 8.15 0 0 1-4.766 2.264 8.231 8.231 0 0 1-2.968-.201z" fill="url(#4rtlqoty7b)" mask="url(#3j3m4i2owc)"/>
        </g>
        <g transform="translate(9.26 1.575)">
            <mask id="xzbifflave" fill="#fff">
                <use xlink:href="#quizi6rzjd"/>
            </mask>
            <path d="M0 24.468c2.075.8 4.33 1.237 6.686 1.237a18.53 18.53 0 0 0 11.296-3.818 8.133 8.133 0 0 1-4.016-2.418 8.16 8.16 0 0 1-2.12-5.038 8.144 8.144 0 0 1 2.69-6.546 8.165 8.165 0 0 1 5.15-2.097 8.122 8.122 0 0 1 5.602 1.92A18.567 18.567 0 0 0 24.14.619 13.983 13.983 0 0 0 20.014 0c-3.73 0-7.236 1.452-9.873 4.09a13.876 13.876 0 0 0-4.09 9.87c0 2.747.79 5.37 2.26 7.615l-2.594 2.593-2.708-2.71L0 24.468z" mask="url(#xzbifflave)"/>
        </g>
        <g transform="translate(23.893)">
            <mask id="wgr9gkmlwh" fill="#fff">
                <use xlink:href="#717pmm9zpf"/>
            </mask>
            <path d="M37.2 0v13.592h-5.782V9.869l-5.754 5.754.257.407c.58.96 1.04 1.984 1.373 3.054l.131.448a14.02 14.02 0 0 1 .487 4.217l-.018.381a13.97 13.97 0 0 1-3.91 8.825l-.276.277a13.865 13.865 0 0 1-9.713 3.966h-.067l-.3-.004-.3-.01-.39-.023-.105-.008c.11-.161.199-.291.265-.39a11.762 11.762 0 0 0 .635-1.06c.228-.42.58-1.09 1.014-2.421.092-.284.228-.754.303-1.115.067-.326.141-.689.19-.98l-.022.133a8.177 8.177 0 0 0 4.255-2.039l.22-.208a8.127 8.127 0 0 0 2.447-5.836l-.005-.311a8.126 8.126 0 0 0-2.39-5.473l-.099-.097-.1-.094-.264-.237a8.116 8.116 0 0 0-2.687-1.536l-.362-.113a8.209 8.209 0 0 0-2.272-.318l-.311.005a8.12 8.12 0 0 0-5.472 2.39l-.217.224a8.125 8.125 0 0 0-2.18 5.56l.006.311a8.115 8.115 0 0 0 2.391 5.473c.422.422.882.793 1.372 1.108a8.464 8.464 0 0 1-.3 1.392c-.317.986-.638 1.54-.797 1.786-.284.439-.35.535-.657.938-.376.495-.672.739-.967.996a13.836 13.836 0 0 1-2.291-1.702l-.285-.268a13.877 13.877 0 0 1-4.25-10.293l.011-.375a13.973 13.973 0 0 1 3.872-9.03l.281-.285a13.857 13.857 0 0 1 7.16-3.766l.519-.088c.693-.104 1.4-.158 2.115-.158l.432.007c2.59.078 5.056.86 7.184 2.25l5.754-5.752h-3.723V0h13.591z" fill="url(#kf4fm4xjlg)" mask="url(#wgr9gkmlwh)"/>
        </g>
        <g transform="translate(35.221)">
            <mask id="d1p95fnz5j" fill="#fff">
                <use xlink:href="#ec5wi7d76i"/>
            </mask>
            <path d="M0 9.522a18.699 18.699 0 0 0 5.266 5.967c1.09.369 2.09.967 2.95 1.771l.002.002a18.532 18.532 0 0 0 7.748 1.822 13.82 13.82 0 0 0-1.63-3.461l5.754-5.754v3.723h5.781V0H12.279v5.781h3.723l-5.754 5.753a13.87 13.87 0 0 0-7.616-2.258c-.893 0-1.774.084-2.632.246" mask="url(#d1p95fnz5j)"/>
        </g>
    </g>
</svg>
