<svg width="118" height="118" viewBox="0 0 118 118" xmlns="http://www.w3.org/2000/svg" xmlns:xlink="http://www.w3.org/1999/xlink">
    <defs>
        <radialGradient cx="50.15%" cy="50.082%" fx="50.15%" fy="50.082%" r="49.993%" id="d">
            <stop stop-color="#FFF" offset="15%"/>
            <stop stop-color="#F6F6F6" stop-opacity=".915" offset="22.21%"/>
            <stop stop-color="#DDD" stop-opacity=".775" offset="34.15%"/>
            <stop stop-color="#B4B4B4" stop-opacity=".596" offset="49.34%"/>
            <stop stop-color="#7B7B7B" stop-opacity=".386" offset="67.19%"/>
            <stop stop-color="#333" stop-opacity=".153" offset="87.02%"/>
            <stop stop-opacity="0" offset="100%"/>
        </radialGradient>
        <radialGradient cx="50.144%" cy="50.131%" fx="50.144%" fy="50.131%" r="49.993%" id="e">
            <stop stop-color="#FFF" offset="15%"/>
            <stop stop-color="#F6F6F6" stop-opacity=".915" offset="22.21%"/>
            <stop stop-color="#DDD" stop-opacity=".775" offset="34.15%"/>
            <stop stop-color="#B4B4B4" stop-opacity=".596" offset="49.34%"/>
            <stop stop-color="#7B7B7B" stop-opacity=".386" offset="67.19%"/>
            <stop stop-color="#333" stop-opacity=".153" offset="87.02%"/>
            <stop stop-opacity="0" offset="100%"/>
        </radialGradient>
        <radialGradient cx="50.155%" cy="50.132%" fx="50.155%" fy="50.132%" r="49.993%" id="f">
            <stop stop-color="#FFF" offset="15%"/>
            <stop stop-color="#F6F6F6" stop-opacity=".915" offset="22.21%"/>
            <stop stop-color="#DDD" stop-opacity=".775" offset="34.15%"/>
            <stop stop-color="#B4B4B4" stop-opacity=".596" offset="49.34%"/>
            <stop stop-color="#7B7B7B" stop-opacity=".386" offset="67.19%"/>
            <stop stop-color="#333" stop-opacity=".153" offset="87.02%"/>
            <stop stop-opacity="0" offset="100%"/>
        </radialGradient>
        <radialGradient cx="50.148%" cy="50.199%" fx="50.148%" fy="50.199%" r="49.993%" id="g">
            <stop stop-color="#FFF" offset="15%"/>
            <stop stop-color="#F6F6F6" stop-opacity=".915" offset="22.21%"/>
            <stop stop-color="#DDD" stop-opacity=".775" offset="34.15%"/>
            <stop stop-color="#B4B4B4" stop-opacity=".596" offset="49.34%"/>
            <stop stop-color="#7B7B7B" stop-opacity=".386" offset="67.19%"/>
            <stop stop-color="#333" stop-opacity=".153" offset="87.02%"/>
            <stop stop-opacity="0" offset="100%"/>
        </radialGradient>
        <radialGradient cx="50.298%" cy="50.166%" fx="50.298%" fy="50.166%" r="49.993%" id="h">
            <stop stop-color="#FFF" offset="15%"/>
            <stop stop-color="#F6F6F6" stop-opacity=".915" offset="22.21%"/>
            <stop stop-color="#DDD" stop-opacity=".775" offset="34.15%"/>
            <stop stop-color="#B4B4B4" stop-opacity=".596" offset="49.34%"/>
            <stop stop-color="#7B7B7B" stop-opacity=".386" offset="67.19%"/>
            <stop stop-color="#333" stop-opacity=".153" offset="87.02%"/>
            <stop stop-opacity="0" offset="100%"/>
        </radialGradient>
        <radialGradient cx="50.29%" cy="50.135%" fx="50.29%" fy="50.135%" r="49.993%" id="i">
            <stop stop-color="#FFF" offset="15%"/>
            <stop stop-color="#F6F6F6" stop-opacity=".915" offset="22.21%"/>
            <stop stop-color="#DDD" stop-opacity=".775" offset="34.15%"/>
            <stop stop-color="#B4B4B4" stop-opacity=".596" offset="49.34%"/>
            <stop stop-color="#7B7B7B" stop-opacity=".386" offset="67.19%"/>
            <stop stop-color="#333" stop-opacity=".153" offset="87.02%"/>
            <stop stop-opacity="0" offset="100%"/>
        </radialGradient>
        <radialGradient cx="50.154%" cy="50.188%" fx="50.154%" fy="50.188%" r="49.993%" id="j">
            <stop stop-color="#FFF" offset="15%"/>
            <stop stop-color="#F6F6F6" stop-opacity=".915" offset="22.21%"/>
            <stop stop-color="#DDD" stop-opacity=".775" offset="34.15%"/>
            <stop stop-color="#B4B4B4" stop-opacity=".596" offset="49.34%"/>
            <stop stop-color="#7B7B7B" stop-opacity=".386" offset="67.19%"/>
            <stop stop-color="#333" stop-opacity=".153" offset="87.02%"/>
            <stop stop-opacity="0" offset="100%"/>
        </radialGradient>
        <radialGradient cx="50.237%" cy="50.137%" fx="50.237%" fy="50.137%" r="49.993%" id="k">
            <stop stop-color="#FFF" offset="15%"/>
            <stop stop-color="#F6F6F6" stop-opacity=".915" offset="22.21%"/>
            <stop stop-color="#DDD" stop-opacity=".775" offset="34.15%"/>
            <stop stop-color="#B4B4B4" stop-opacity=".596" offset="49.34%"/>
            <stop stop-color="#7B7B7B" stop-opacity=".386" offset="67.19%"/>
            <stop stop-color="#333" stop-opacity=".153" offset="87.02%"/>
            <stop stop-opacity="0" offset="100%"/>
        </radialGradient>
        <radialGradient cx="50.132%" cy="50.049%" fx="50.132%" fy="50.049%" r="49.993%" id="l">
            <stop stop-color="#FFF" offset="15%"/>
            <stop stop-color="#F6F6F6" stop-opacity=".915" offset="22.21%"/>
            <stop stop-color="#DDD" stop-opacity=".775" offset="34.15%"/>
            <stop stop-color="#B4B4B4" stop-opacity=".596" offset="49.34%"/>
            <stop stop-color="#7B7B7B" stop-opacity=".386" offset="67.19%"/>
            <stop stop-color="#333" stop-opacity=".153" offset="87.02%"/>
            <stop stop-opacity="0" offset="100%"/>
        </radialGradient>
        <radialGradient cx="50.183%" cy="50.105%" fx="50.183%" fy="50.105%" r="49.993%" id="m">
            <stop stop-color="#FFF" offset="15%"/>
            <stop stop-color="#F6F6F6" stop-opacity=".915" offset="22.21%"/>
            <stop stop-color="#DDD" stop-opacity=".775" offset="34.15%"/>
            <stop stop-color="#B4B4B4" stop-opacity=".596" offset="49.34%"/>
            <stop stop-color="#7B7B7B" stop-opacity=".386" offset="67.19%"/>
            <stop stop-color="#333" stop-opacity=".153" offset="87.02%"/>
            <stop stop-opacity="0" offset="100%"/>
        </radialGradient>
        <radialGradient cx="50.058%" cy="50.086%" fx="50.058%" fy="50.086%" r="49.993%" id="n">
            <stop stop-color="#FFF" offset="15%"/>
            <stop stop-color="#F6F6F6" stop-opacity=".915" offset="22.21%"/>
            <stop stop-color="#DDD" stop-opacity=".775" offset="34.15%"/>
            <stop stop-color="#B4B4B4" stop-opacity=".596" offset="49.34%"/>
            <stop stop-color="#7B7B7B" stop-opacity=".386" offset="67.19%"/>
            <stop stop-color="#333" stop-opacity=".153" offset="87.02%"/>
            <stop stop-opacity="0" offset="100%"/>
        </radialGradient>
        <radialGradient cx="50.156%" cy="50.151%" fx="50.156%" fy="50.151%" r="49.993%" id="o">
            <stop stop-color="#FFF" offset="15%"/>
            <stop stop-color="#F6F6F6" stop-opacity=".915" offset="22.21%"/>
            <stop stop-color="#DDD" stop-opacity=".775" offset="34.15%"/>
            <stop stop-color="#B4B4B4" stop-opacity=".596" offset="49.34%"/>
            <stop stop-color="#7B7B7B" stop-opacity=".386" offset="67.19%"/>
            <stop stop-color="#333" stop-opacity=".153" offset="87.02%"/>
            <stop stop-opacity="0" offset="100%"/>
        </radialGradient>
        <radialGradient cx="50.106%" cy="50.184%" fx="50.106%" fy="50.184%" r="49.993%" id="p">
            <stop stop-color="#FFF" offset="15%"/>
            <stop stop-color="#F6F6F6" stop-opacity=".915" offset="22.21%"/>
            <stop stop-color="#DDD" stop-opacity=".775" offset="34.15%"/>
            <stop stop-color="#B4B4B4" stop-opacity=".596" offset="49.34%"/>
            <stop stop-color="#7B7B7B" stop-opacity=".386" offset="67.19%"/>
            <stop stop-color="#333" stop-opacity=".153" offset="87.02%"/>
            <stop stop-opacity="0" offset="100%"/>
        </radialGradient>
        <radialGradient cx="50.169%" cy="50.154%" fx="50.169%" fy="50.154%" r="49.993%" id="q">
            <stop stop-color="#FFF" offset="15%"/>
            <stop stop-color="#F6F6F6" stop-opacity=".915" offset="22.21%"/>
            <stop stop-color="#DDD" stop-opacity=".775" offset="34.15%"/>
            <stop stop-color="#B4B4B4" stop-opacity=".596" offset="49.34%"/>
            <stop stop-color="#7B7B7B" stop-opacity=".386" offset="67.19%"/>
            <stop stop-color="#333" stop-opacity=".153" offset="87.02%"/>
            <stop stop-opacity="0" offset="100%"/>
        </radialGradient>
        <radialGradient cx="49.583%" cy="49.285%" fx="49.583%" fy="49.285%" r="49.876%" id="r">
            <stop stop-color="#FFF" offset="15%"/>
            <stop stop-color="#F6F6F6" stop-opacity=".915" offset="22.21%"/>
            <stop stop-color="#DDD" stop-opacity=".775" offset="34.15%"/>
            <stop stop-color="#B4B4B4" stop-opacity=".596" offset="49.34%"/>
            <stop stop-color="#7B7B7B" stop-opacity=".386" offset="67.19%"/>
            <stop stop-color="#333" stop-opacity=".153" offset="87.02%"/>
            <stop stop-opacity="0" offset="100%"/>
        </radialGradient>
        <radialGradient cx="49.216%" cy="49.715%" fx="49.216%" fy="49.715%" r="49.876%" id="s">
            <stop stop-color="#FFF" offset="15%"/>
            <stop stop-color="#F6F6F6" stop-opacity=".915" offset="22.21%"/>
            <stop stop-color="#DDD" stop-opacity=".775" offset="34.15%"/>
            <stop stop-color="#B4B4B4" stop-opacity=".596" offset="49.34%"/>
            <stop stop-color="#7B7B7B" stop-opacity=".386" offset="67.19%"/>
            <stop stop-color="#333" stop-opacity=".153" offset="87.02%"/>
            <stop stop-opacity="0" offset="100%"/>
        </radialGradient>
        <radialGradient cx="49.672%" cy="49.502%" fx="49.672%" fy="49.502%" r="49.876%" id="t">
            <stop stop-color="#FFF" offset="15%"/>
            <stop stop-color="#F6F6F6" stop-opacity=".915" offset="22.21%"/>
            <stop stop-color="#DDD" stop-opacity=".775" offset="34.15%"/>
            <stop stop-color="#B4B4B4" stop-opacity=".596" offset="49.34%"/>
            <stop stop-color="#7B7B7B" stop-opacity=".386" offset="67.19%"/>
            <stop stop-color="#333" stop-opacity=".153" offset="87.02%"/>
            <stop stop-opacity="0" offset="100%"/>
        </radialGradient>
        <radialGradient cx="49.582%" cy="49.549%" fx="49.582%" fy="49.549%" r="49.876%" id="u">
            <stop stop-color="#FFF" offset="15%"/>
            <stop stop-color="#F6F6F6" stop-opacity=".915" offset="22.21%"/>
            <stop stop-color="#DDD" stop-opacity=".775" offset="34.15%"/>
            <stop stop-color="#B4B4B4" stop-opacity=".596" offset="49.34%"/>
            <stop stop-color="#7B7B7B" stop-opacity=".386" offset="67.19%"/>
            <stop stop-color="#333" stop-opacity=".153" offset="87.02%"/>
            <stop stop-opacity="0" offset="100%"/>
        </radialGradient>
        <radialGradient cx="49.385%" cy="49.166%" fx="49.385%" fy="49.166%" r="49.876%" id="v">
            <stop stop-color="#FFF" offset="15%"/>
            <stop stop-color="#F6F6F6" stop-opacity=".915" offset="22.21%"/>
            <stop stop-color="#DDD" stop-opacity=".775" offset="34.15%"/>
            <stop stop-color="#B4B4B4" stop-opacity=".596" offset="49.34%"/>
            <stop stop-color="#7B7B7B" stop-opacity=".386" offset="67.19%"/>
            <stop stop-color="#333" stop-opacity=".153" offset="87.02%"/>
            <stop stop-opacity="0" offset="100%"/>
        </radialGradient>
        <radialGradient cx="49.721%" cy="49.009%" fx="49.721%" fy="49.009%" r="49.876%" id="w">
            <stop stop-color="#FFF" offset="15%"/>
            <stop stop-color="#F6F6F6" stop-opacity=".915" offset="22.21%"/>
            <stop stop-color="#DDD" stop-opacity=".775" offset="34.15%"/>
            <stop stop-color="#B4B4B4" stop-opacity=".596" offset="49.34%"/>
            <stop stop-color="#7B7B7B" stop-opacity=".386" offset="67.19%"/>
            <stop stop-color="#333" stop-opacity=".153" offset="87.02%"/>
            <stop stop-opacity="0" offset="100%"/>
        </radialGradient>
        <radialGradient cx="49.85%" cy="48.885%" fx="49.85%" fy="48.885%" r="49.876%" id="x">
            <stop stop-color="#FFF" offset="15%"/>
            <stop stop-color="#F6F6F6" stop-opacity=".915" offset="22.21%"/>
            <stop stop-color="#DDD" stop-opacity=".775" offset="34.15%"/>
            <stop stop-color="#B4B4B4" stop-opacity=".596" offset="49.34%"/>
            <stop stop-color="#7B7B7B" stop-opacity=".386" offset="67.19%"/>
            <stop stop-color="#333" stop-opacity=".153" offset="87.02%"/>
            <stop stop-opacity="0" offset="100%"/>
        </radialGradient>
        <radialGradient cx="48.643%" cy="49.185%" fx="48.643%" fy="49.185%" r="49.876%" id="y">
            <stop stop-color="#FFF" offset="15%"/>
            <stop stop-color="#F6F6F6" stop-opacity=".915" offset="22.21%"/>
            <stop stop-color="#DDD" stop-opacity=".775" offset="34.15%"/>
            <stop stop-color="#B4B4B4" stop-opacity=".596" offset="49.34%"/>
            <stop stop-color="#7B7B7B" stop-opacity=".386" offset="67.19%"/>
            <stop stop-color="#333" stop-opacity=".153" offset="87.02%"/>
            <stop stop-opacity="0" offset="100%"/>
        </radialGradient>
        <radialGradient cx="49.571%" cy="48.536%" fx="49.571%" fy="48.536%" r="49.876%" id="z">
            <stop stop-color="#FFF" offset="15%"/>
            <stop stop-color="#F6F6F6" stop-opacity=".915" offset="22.21%"/>
            <stop stop-color="#DDD" stop-opacity=".775" offset="34.15%"/>
            <stop stop-color="#B4B4B4" stop-opacity=".596" offset="49.34%"/>
            <stop stop-color="#7B7B7B" stop-opacity=".386" offset="67.19%"/>
            <stop stop-color="#333" stop-opacity=".153" offset="87.02%"/>
            <stop stop-opacity="0" offset="100%"/>
        </radialGradient>
        <radialGradient cx="48.886%" cy="49.043%" fx="48.886%" fy="49.043%" r="49.876%" id="A">
            <stop stop-color="#FFF" offset="15%"/>
            <stop stop-color="#F6F6F6" stop-opacity=".915" offset="22.21%"/>
            <stop stop-color="#DDD" stop-opacity=".775" offset="34.15%"/>
            <stop stop-color="#B4B4B4" stop-opacity=".596" offset="49.34%"/>
            <stop stop-color="#7B7B7B" stop-opacity=".386" offset="67.19%"/>
            <stop stop-color="#333" stop-opacity=".153" offset="87.02%"/>
            <stop stop-opacity="0" offset="100%"/>
        </radialGradient>
        <radialGradient cx="49.631%" cy="48.82%" fx="49.631%" fy="48.82%" r="49.876%" id="B">
            <stop stop-color="#FFF" offset="15%"/>
            <stop stop-color="#F6F6F6" stop-opacity=".915" offset="22.21%"/>
            <stop stop-color="#DDD" stop-opacity=".775" offset="34.15%"/>
            <stop stop-color="#B4B4B4" stop-opacity=".596" offset="49.34%"/>
            <stop stop-color="#7B7B7B" stop-opacity=".386" offset="67.19%"/>
            <stop stop-color="#333" stop-opacity=".153" offset="87.02%"/>
            <stop stop-opacity="0" offset="100%"/>
        </radialGradient>
        <radialGradient cx="48.335%" cy="49.161%" fx="48.335%" fy="49.161%" r="49.876%" id="C">
            <stop stop-color="#FFF" offset="15%"/>
            <stop stop-color="#F6F6F6" stop-opacity=".915" offset="22.21%"/>
            <stop stop-color="#DDD" stop-opacity=".775" offset="34.15%"/>
            <stop stop-color="#B4B4B4" stop-opacity=".596" offset="49.34%"/>
            <stop stop-color="#7B7B7B" stop-opacity=".386" offset="67.19%"/>
            <stop stop-color="#333" stop-opacity=".153" offset="87.02%"/>
            <stop stop-opacity="0" offset="100%"/>
        </radialGradient>
        <radialGradient cx="49.039%" cy="48.796%" fx="49.039%" fy="48.796%" r="49.876%" id="D">
            <stop stop-color="#FFF" offset="15%"/>
            <stop stop-color="#F6F6F6" stop-opacity=".915" offset="22.21%"/>
            <stop stop-color="#DDD" stop-opacity=".775" offset="34.15%"/>
            <stop stop-color="#B4B4B4" stop-opacity=".596" offset="49.34%"/>
            <stop stop-color="#7B7B7B" stop-opacity=".386" offset="67.19%"/>
            <stop stop-color="#333" stop-opacity=".153" offset="87.02%"/>
            <stop stop-opacity="0" offset="100%"/>
        </radialGradient>
        <radialGradient cx="49.572%" cy="48.893%" fx="49.572%" fy="48.893%" r="49.876%" id="E">
            <stop stop-color="#FFF" offset="15%"/>
            <stop stop-color="#F6F6F6" stop-opacity=".915" offset="22.21%"/>
            <stop stop-color="#DDD" stop-opacity=".775" offset="34.15%"/>
            <stop stop-color="#B4B4B4" stop-opacity=".596" offset="49.34%"/>
            <stop stop-color="#7B7B7B" stop-opacity=".386" offset="67.19%"/>
            <stop stop-color="#333" stop-opacity=".153" offset="87.02%"/>
            <stop stop-opacity="0" offset="100%"/>
        </radialGradient>
        <radialGradient cx="49.779%" cy="48.921%" fx="49.779%" fy="48.921%" r="49.876%" id="F">
            <stop stop-color="#FFF" offset="15%"/>
            <stop stop-color="#F6F6F6" stop-opacity=".915" offset="22.21%"/>
            <stop stop-color="#DDD" stop-opacity=".775" offset="34.15%"/>
            <stop stop-color="#B4B4B4" stop-opacity=".596" offset="49.34%"/>
            <stop stop-color="#7B7B7B" stop-opacity=".386" offset="67.19%"/>
            <stop stop-color="#333" stop-opacity=".153" offset="87.02%"/>
            <stop stop-opacity="0" offset="100%"/>
        </radialGradient>
        <radialGradient cx="49.532%" cy="49.165%" fx="49.532%" fy="49.165%" r="49.876%" id="G">
            <stop stop-color="#FFF" offset="15%"/>
            <stop stop-color="#F6F6F6" stop-opacity=".915" offset="22.21%"/>
            <stop stop-color="#DDD" stop-opacity=".775" offset="34.15%"/>
            <stop stop-color="#B4B4B4" stop-opacity=".596" offset="49.34%"/>
            <stop stop-color="#7B7B7B" stop-opacity=".386" offset="67.19%"/>
            <stop stop-color="#333" stop-opacity=".153" offset="87.02%"/>
            <stop stop-opacity="0" offset="100%"/>
        </radialGradient>
        <radialGradient cx="49.81%" cy="49.466%" fx="49.81%" fy="49.466%" r="49.876%" id="H">
            <stop stop-color="#FFF" offset="15%"/>
            <stop stop-color="#F6F6F6" stop-opacity=".915" offset="22.21%"/>
            <stop stop-color="#DDD" stop-opacity=".775" offset="34.15%"/>
            <stop stop-color="#B4B4B4" stop-opacity=".596" offset="49.34%"/>
            <stop stop-color="#7B7B7B" stop-opacity=".386" offset="67.19%"/>
            <stop stop-color="#333" stop-opacity=".153" offset="87.02%"/>
            <stop stop-opacity="0" offset="100%"/>
        </radialGradient>
        <radialGradient cx="48.943%" cy="49.308%" fx="48.943%" fy="49.308%" r="49.876%" id="I">
            <stop stop-color="#FFF" offset="15%"/>
            <stop stop-color="#F6F6F6" stop-opacity=".915" offset="22.21%"/>
            <stop stop-color="#DDD" stop-opacity=".775" offset="34.15%"/>
            <stop stop-color="#B4B4B4" stop-opacity=".596" offset="49.34%"/>
            <stop stop-color="#7B7B7B" stop-opacity=".386" offset="67.19%"/>
            <stop stop-color="#333" stop-opacity=".153" offset="87.02%"/>
            <stop stop-opacity="0" offset="100%"/>
        </radialGradient>
        <radialGradient cx="48.584%" cy="49.223%" fx="48.584%" fy="49.223%" r="49.876%" id="J">
            <stop stop-color="#FFF" offset="15%"/>
            <stop stop-color="#F6F6F6" stop-opacity=".915" offset="22.21%"/>
            <stop stop-color="#DDD" stop-opacity=".775" offset="34.15%"/>
            <stop stop-color="#B4B4B4" stop-opacity=".596" offset="49.34%"/>
            <stop stop-color="#7B7B7B" stop-opacity=".386" offset="67.19%"/>
            <stop stop-color="#333" stop-opacity=".153" offset="87.02%"/>
            <stop stop-opacity="0" offset="100%"/>
        </radialGradient>
        <radialGradient cx="49.313%" cy="49.651%" fx="49.313%" fy="49.651%" r="49.876%" id="K">
            <stop stop-color="#FFF" offset="15%"/>
            <stop stop-color="#F6F6F6" stop-opacity=".915" offset="22.21%"/>
            <stop stop-color="#DDD" stop-opacity=".775" offset="34.15%"/>
            <stop stop-color="#B4B4B4" stop-opacity=".596" offset="49.34%"/>
            <stop stop-color="#7B7B7B" stop-opacity=".386" offset="67.19%"/>
            <stop stop-color="#333" stop-opacity=".153" offset="87.02%"/>
            <stop stop-opacity="0" offset="100%"/>
        </radialGradient>
        <radialGradient cx="49.458%" cy="49.239%" fx="49.458%" fy="49.239%" r="49.876%" id="L">
            <stop stop-color="#FFF" offset="15%"/>
            <stop stop-color="#F6F6F6" stop-opacity=".915" offset="22.21%"/>
            <stop stop-color="#DDD" stop-opacity=".775" offset="34.15%"/>
            <stop stop-color="#B4B4B4" stop-opacity=".596" offset="49.34%"/>
            <stop stop-color="#7B7B7B" stop-opacity=".386" offset="67.19%"/>
            <stop stop-color="#333" stop-opacity=".153" offset="87.02%"/>
            <stop stop-opacity="0" offset="100%"/>
        </radialGradient>
        <radialGradient cx="49.159%" cy="49.527%" fx="49.159%" fy="49.527%" r="49.876%" id="M">
            <stop stop-color="#FFF" offset="15%"/>
            <stop stop-color="#F6F6F6" stop-opacity=".915" offset="22.21%"/>
            <stop stop-color="#DDD" stop-opacity=".775" offset="34.15%"/>
            <stop stop-color="#B4B4B4" stop-opacity=".596" offset="49.34%"/>
            <stop stop-color="#7B7B7B" stop-opacity=".386" offset="67.19%"/>
            <stop stop-color="#333" stop-opacity=".153" offset="87.02%"/>
            <stop stop-opacity="0" offset="100%"/>
        </radialGradient>
        <radialGradient cx="48.82%" cy="49.336%" fx="48.82%" fy="49.336%" r="49.876%" id="N">
            <stop stop-color="#FFF" offset="15%"/>
            <stop stop-color="#F6F6F6" stop-opacity=".915" offset="22.21%"/>
            <stop stop-color="#DDD" stop-opacity=".775" offset="34.15%"/>
            <stop stop-color="#B4B4B4" stop-opacity=".596" offset="49.34%"/>
            <stop stop-color="#7B7B7B" stop-opacity=".386" offset="67.19%"/>
            <stop stop-color="#333" stop-opacity=".153" offset="87.02%"/>
            <stop stop-opacity="0" offset="100%"/>
        </radialGradient>
        <radialGradient cx="49.129%" cy="49.283%" fx="49.129%" fy="49.283%" r="49.876%" id="O">
            <stop stop-color="#FFF" offset="15%"/>
            <stop stop-color="#F6F6F6" stop-opacity=".915" offset="22.21%"/>
            <stop stop-color="#DDD" stop-opacity=".775" offset="34.15%"/>
            <stop stop-color="#B4B4B4" stop-opacity=".596" offset="49.34%"/>
            <stop stop-color="#7B7B7B" stop-opacity=".386" offset="67.19%"/>
            <stop stop-color="#333" stop-opacity=".153" offset="87.02%"/>
            <stop stop-opacity="0" offset="100%"/>
        </radialGradient>
        <filter x="-11.8%" y="-11.8%" width="123.5%" height="123.5%" filterUnits="objectBoundingBox" id="b">
            <feOffset in="SourceAlpha" result="shadowOffsetOuter1"/>
            <feGaussianBlur stdDeviation="4" in="shadowOffsetOuter1" result="shadowBlurOuter1"/>
            <feComposite in="shadowBlurOuter1" in2="SourceAlpha" operator="out" result="shadowBlurOuter1"/>
            <feColorMatrix values="0 0 0 0 0 0 0 0 0 0 0 0 0 0 0 0 0 0 0.152808129 0" in="shadowBlurOuter1"/>
        </filter>
        <circle id="a" cx="51" cy="51" r="51"/>
        <path id="P" d="M12 11.005h58v61H12z"/>
    </defs>
    <g fill="none" fill-rule="evenodd">
        <g transform="translate(8 8)">
            <mask id="c" fill="#fff">
                <use xlink:href="#a"/>
            </mask>
            <use fill="#000" filter="url(#b)" xlink:href="#a"/>
            <circle stroke="#FFF" stroke-width="3" stroke-linejoin="square" fill="#38256B" cx="51" cy="51" r="49.5"/>
            <g mask="url(#c)" fill-rule="nonzero">
                <g transform="translate(7 11)">
                    <circle fill="url(#d)" cx="61" cy="1" r="1"/>
                    <circle fill="url(#e)" cx="31" cy="71" r="1"/>
                    <circle fill="url(#f)" cx="1" cy="46" r="1"/>
                    <circle fill="url(#g)" cx="2" cy="34" r="1"/>
                    <circle fill="url(#h)" cx="82" cy="24" r="1"/>
                    <circle fill="url(#i)" cx="80" cy="54" r="1"/>
                    <circle fill="url(#j)" cx="43" cy="84" r="1"/>
                    <circle fill="url(#k)" cx="69" cy="67" r="1"/>
                    <circle fill="url(#l)" cx="33" cy="2" r="1"/>
                    <circle fill="url(#m)" cx="23" cy="29" r="1"/>
                    <circle fill="url(#n)" cx="8" cy="12" r="1"/>
                    <circle fill="url(#o)" cx="12" cy="40" r="1"/>
                    <circle fill="url(#p)" cx="7" cy="65" r="1"/>
                    <circle fill="url(#q)" cx="46" cy="21" r="1"/>
                    <circle fill="url(#q)" cx="53" cy="70" r="1"/>
                    <circle fill="url(#r)" cx="30.5" cy="19.5" r="1"/>
                    <circle fill="url(#s)" cx="40.5" cy="7.5" r="1"/>
                    <circle fill="url(#t)" cx="15.5" cy="5.5" r="1"/>
                    <circle fill="url(#u)" cx="26.5" cy="10.5" r="1"/>
                    <circle fill="url(#v)" cx="47.5" cy="40.5" r="1"/>
                    <circle fill="url(#w)" cx="25.5" cy="57.5" r="1"/>
                    <circle fill="url(#x)" cx="13.5" cy="57.5" r="1"/>
                    <circle fill="url(#y)" cx="77.5" cy="42.5" r="1"/>
                    <circle fill="url(#z)" cx="27.5" cy="81.5" r="1"/>
                    <circle fill="url(#A)" cx="70.5" cy="52.5" r="1"/>
                    <circle fill="url(#B)" cx="22.5" cy="68.5" r="1"/>
                    <circle fill="url(#C)" cx="78.5" cy="39.5" r="1"/>
                    <circle fill="url(#D)" cx="61.5" cy="52.5" r="1"/>
                    <circle fill="url(#E)" cx="22.5" cy="50.5" r="1"/>
                    <circle fill="url(#F)" cx="4.5" cy="52.5" r="1"/>
                    <circle fill="url(#G)" cx="24.5" cy="43.5" r="1"/>
                    <circle fill="url(#H)" cx="7.5" cy="23.5" r="1"/>
                    <circle fill="url(#I)" cx="69.5" cy="33.5" r="1"/>
                    <circle fill="url(#J)" cx="88.5" cy="39.5" r="1"/>
                    <circle fill="url(#K)" cx="49.5" cy="6.5" r="1"/>
                    <circle fill="url(#L)" cx="34.5" cy="32.5" r="1"/>
                    <circle fill="url(#M)" cx="60.5" cy="7.5" r="1"/>
                    <circle fill="url(#s)" cx="44.5" cy="74.5" r="1"/>
                    <circle fill="url(#K)" cx="57.5" cy="78.5" r="1"/>
                    <circle fill="url(#M)" cx="61.5" cy="65.5" r="1"/>
                    <circle fill="url(#N)" cx="69.5" cy="19.5" r="1"/>
                    <circle fill="url(#O)" cx="59.5" cy="35.5" r="1"/>
                </g>
            </g>
        </g>
        <path d="M48.615 74.97c-.4-1.042-.838-2.333-1.595-3.618-.59-1.001-1.4-2.028-2.097-2.958-3.236-4.323-5.432-9.34-4.988-14.81.235-2.904.235-5.021 1.778-7.637 1.155-1.959 2.852-3.841 4.662-5.218 1.906-1.448 4.746-2.614 7.146-2.732 1.712-.086 5.622 1.335 5.225.033-.892-2.929-9.475-.56-12.193 1.381-4.875 3.482-7.56 7.8-7.838 13.846-.29 6.28 2.052 11.436 5.608 16.543 1.48 2.127 2.794 4.234 3.667 6.693.757 2.138.662 4.056.777 6.182 1.702-1.94.692-5.507-.152-7.705M76.92 69.445c3.445-5.182 5.674-10.387 5.248-16.66-.41-6.037-3.188-10.296-8.137-13.672C71.27 37.23 62.64 35.05 61.81 37.996c-.368 1.311 3.51-.194 5.225-.146 2.4.067 5.265 1.17 7.201 2.577 1.84 1.336 3.577 3.181 4.775 5.114 1.599 2.582 1.645 4.698 1.944 7.596.563 5.461-1.523 10.523-4.665 14.916-.676.945-1.463 1.988-2.032 3.003-.728 1.302-1.139 2.601-1.516 3.651-.796 2.217-1.728 5.805.015 7.707.069-2.127-.068-4.044.644-6.198.818-2.477 2.085-4.613 3.52-6.77" fill="#FFF"/>
        <g transform="rotate(-150 52.809 47.921)">
            <mask id="Q" fill="#fff">
                <use xlink:href="#P"/>
            </mask>
            <path d="M48.382 56.871c-.85-1.455-1.522-3.007-2.46-4.413-.032-.057-.068-.105-.103-.161-.464 3.168-2.063 4.837-5.318 5.458-2.453.466-4.98.584-7.31-.203a18.388 18.388 0 0 1-2.476-2.072c.426.219.873.434 1.34.674 2.984 1.526 8.862 1.745 11.433-.836.676-.683 1.066-3.66 2.297-4.387 1.233-.73 4.029.36 4.954.096 3.499-1.013 6.134-6.272 6.23-9.621.019-.61.049-1.176.059-1.724.29 1.056.514 2.182.633 3.337-.422 2.444-1.748 4.62-3.35 6.56-2.111 2.556-4.342 3.154-7.344 2.038.034.056.059.11.093.168.82 1.57 1.92 2.965 2.809 4.492-.47.209-.964.407-1.487.594m-8.35-19.108c-.505-1.465-1.338-.767-2.194-.26-.855.507-1.87.9-.828 2.05.588.657 4.05 5.777 4.483 7.599.722 2.995-2.372 1.073-4.008 2.212-.844.584-2.218 3.255-3.491 2.35 1.39-2.618 3.687-4.131 6.71-3.758-1.541-4.727-4.672-7.826-5.203-8.724-.531-.896.693-1.826 1.867-2.523 1.176-.695 2.579-1.32 3.11-.423.532.898 1.744 5.133 5.146 8.758 1.126-2.83 3.558-4.115 6.522-4.075.18 1.55-2.822 1.47-3.74 1.93-1.785.887-1.588 4.524-3.868 2.45-1.388-1.256-4.212-6.755-4.505-7.585m-8.838-2.083c-.311-.797 2.789-.752 4.649-1.546 1.59-1.25 3.043-3.99 3.592-3.331.549.657-1.48 2.9-3.233 3.938-1.753 1.037-4.695 1.736-5.008.94m3.04-4.265c.67-.296 2.632-1.089 2.846-.003-.774.273-1.65.416-2.385.782-.673.468-1.22 1.168-1.832 1.715-.85-.71.789-2.05 1.372-2.494m31.696 2.167c-2.195-3.422-4.935-6.404-8.31-8.696-3.002-2.038-6.853-3.074-9.546-5.47-1.29-1.14-2.806-2.16-3.722-3.644-.88-1.406-.876-3.165-1.097-4.768-2.118 2.28.75 5.933 2.455 7.479 2.654 2.396 5.409 3.666 8.45 5.42 5.622 3.248 11.869 7.915 12.936 14.76.97 6.232.309 13.086-4.043 17.973-2.123 2.377-4.665 3.736-7.652 4.86-1.287.483-1.945.774-2.788-.47-.807-1.194-1.543-2.125-1.747-3.585 9.107-2.145 9.779-14.3 6.143-21.594-2.35-4.696-6.663-7.33-11.242-9.608-1.908-.951-3.947-2.36-5.536-3.776-1.82-1.61-2.79-3.207-4.23-5.096-.792 3.471 5.137 6.939 7.417 8.535 3.48 2.445 7.21 4.143 10.45 6.945.25.266.705.947 1.216 1.916-1.081-.706-2.518-.9-3.738-1.328-1.743-.61 1.01 2.265 1.499 3.104 1.185 2.016 4.26 5.406.878 8.82-.718.733-3.346 2.233-4.26 2.675-.466.222-1.875 1.316-2.437.704-.485-.549.127-1.264.588-1.52 1.24-.681 5.144-2.31 5.85-3.617.236-.431 1.189-1.61 1.11-2.078-.141-.76-.767-1.61-1.136-2.273-.358-.602-1.654-2.184-2.194-2.861-3.398-4.29-4.988-6.25-10.064-8.432-2.096-.91-4.59-2.41-6.95-2.226-.654.05-2.161.718-2.812.927-.497.471-1.81 1.47-2.166 2.02-1.3 1.98-1.181 4.889-1.393 7.163-.528 5.5.426 7.837 2.55 12.88.336.799 1.099 2.697 1.455 3.299.405.644.848 1.6 1.446 2.092.373.293 1.864.025 2.355.025 1.487.01 4.792-2.63 5.985-3.39.448-.28 1.37-.473 1.617.218.266.787-3.077 2.505-3.497 2.806-.826.588-1.701 1.16-2.688 1.438-4.62 1.322-6.113-3.005-7.31-5.012-.5-.834-1.697-4.63-2-2.807-.197 1.192-.661 2.452-.64 3.664a38.675 38.675 0 0 1-1.088-1.736c-.898-4.188-.593-8.276-1.061-12.504-.303-2.767-.492-9.632-3.915-10.606.962 2.17 1.897 3.79 2.432 6.158.476 2.075.73 4.54.648 6.67-.205 5.11.028 10.16 3.014 14.479 4.647 6.695 15.626 11.955 21.887 5.002 1.182.88 1.644 1.974 2.303 3.256.684 1.337.114 1.775-.93 2.669-2.423 2.078-4.836 3.653-7.941 4.37-6.378 1.466-12.705-1.25-17.702-5.1-5.487-4.227-6.574-11.948-6.717-18.441-.075-3.51.137-6.536-.688-10.016-.534-2.238-2.356-6.51-5.376-5.75 1.3.965 2.844 1.808 3.654 3.256.86 1.517 1.025 3.337 1.404 5.017.806 3.512-.14 7.387.203 11 .386 4.062 1.683 7.898 3.627 11.468 1.792 3.313 5.087 5.223 8.258 7.053 3.176 1.826 6.49 2.834 10.154 2.684 4.209-.174 6.818-1.42 10.269-3.707l7.853-4.649c3.665-1.923 6.012-3.611 8.189-7.22 1.895-3.14 2.605-6.529 2.532-10.192-.08-3.66-.168-7.468-2.211-10.633" fill="#FFF" mask="url(#Q)"/>
        </g>
    </g>
</svg>
