<svg xmlns="http://www.w3.org/2000/svg" width="30" height="30" viewBox="0 0 30 30">
    <g fill="none" fill-rule="evenodd">
        <g>
            <g>
                <g>
                    <g transform="translate(-56 -10416) translate(0 9171) translate(0 1074) translate(56 171)">
                        <rect width="30" height="30" fill="#0B0B0B" rx="2"/>
                        <g fill="#FFF" fill-rule="nonzero">
                            <path d="M11.671 9.538l-.006.05c-1.466-.73-1.62-.828-1.809-.544-.13.197-.514.643-.629.775-.116.13-.232.14-.43.05-.2-.1-.842-.31-1.602-.99-.592-.53-.99-1.18-1.107-1.38-.195-.338.213-.386.585-1.09.067-.14.033-.25-.016-.349-.05-.1-.448-1.08-.615-1.47-.16-.39-.325-.34-.448-.34-.384-.034-.665-.028-.912.229-1.076 1.183-.805 2.402.116 3.7 1.81 2.368 2.773 2.804 4.536 3.41.476.15.91.13 1.253.08.383-.06 1.178-.48 1.344-.95.17-.47.17-.86.12-.95-.05-.09-.18-.14-.38-.23z" transform="translate(7 7)"/>
                            <path d="M13.68 2.3C8.554-2.656.07.938.067 7.929c0 1.397.366 2.76 1.064 3.963L0 16l4.223-1.101c5.27 2.846 11.774-.934 11.777-6.966 0-2.117-.827-4.11-2.33-5.607l.01-.026zm.988 5.61c-.004 5.09-5.59 8.267-10.008 5.67l-.24-.143-2.5.65.67-2.43-.16-.25C-.318 7.031 2.84 1.311 8.049 1.311c1.77 0 3.43.69 4.68 1.94 1.25 1.24 1.94 2.9 1.94 4.66z" transform="translate(7 7)"/>
                        </g>
                    </g>
                </g>
            </g>
        </g>
    </g>
</svg>
