<?xml version="1.0" encoding="UTF-8"?>
<svg width="43px" height="43px" viewBox="0 0 43 43" version="1.1" xmlns="http://www.w3.org/2000/svg" xmlns:xlink="http://www.w3.org/1999/xlink">
    <title>wicket</title>
    <g id="IPL-2022" stroke="none" stroke-width="1" fill="none" fill-rule="evenodd">
        <g id="TN-web-IPL-2022" transform="translate(-341.000000, -375.000000)" fill="#000000" fill-rule="nonzero">
            <g id="Top-Scorecard" transform="translate(0.000000, 324.000000)">
                <g id="Group-16" transform="translate(180.000000, 10.000000)">
                    <g id="Group-10" transform="translate(11.000000, 0.000000)">
                        <g id="cricket-widget" transform="translate(0.000000, 29.000000)">
                            <g id="wicket" transform="translate(150.000000, 12.000000)">
                                <path d="M5.83447573,1.26213131 C5.80779497,0.894528453 5.65807197,0.555345385 5.41872228,0.321191616 C5.17885462,0.0839487862 4.86956514,-0.0291122892 4.55949861,0.00641238881 L1.0630255,0.398110169 C0.753736021,0.431163552 0.468277956,0.609713533 0.269856051,0.894528453 C0.0711751928,1.17903448 -0.0238911908,1.54632845 0.0051208977,1.91485798 L0.170127059,4 L6,3.34881786 L5.83447573,1.26213131 Z" id="Shape"></path>
                                <path d="M11.8023359,42.7442646 C11.9469127,42.5845621 12.0176917,42.3693554 11.9962232,42.1534676 L11.2381174,33.981741 C7.81724911,29.6541107 7.26342937,23.6736109 9.83059015,18.774593 L8.54952561,5 L1,5.7181503 L4.39839349,42.303295 C4.43562791,42.6996568 4.76436403,43.0016954 5.15616381,43 L11.2451618,43 C11.4581693,42.9993118 11.6607782,42.9063506 11.8023359,42.7442646 Z" id="Shape"></path>
                                <path d="M17,13 C18.9442857,12.3418864 21.0101059,12.3342798 22.9578189,12.9787018 L23,7 L17.0424447,7 L17,13 Z" id="Shape"></path>
                                <path d="M19.4414199,31.817856 C14.8138332,27.1680611 13.1486962,20.2877134 15.1291593,14 C14.5436018,14.3354855 13.9869857,14.7200165 13.4643588,15.1491655 C13.3533048,15.5565164 13.2486448,15.9659109 13.1672053,16.3729213 C13.0948519,16.7312265 12.7839007,16.9883753 12.4224703,16.988716 C12.3716548,16.988716 12.3205026,16.983607 12.2703601,16.9733892 C12.1195959,16.940011 11.9826292,16.85929 11.8796518,16.7424662 C8.82499375,20.3939789 8.13814159,25.506301 10.1189411,29.8502421 C12.0997407,34.1945239 16.3887809,36.9829703 21.1159796,37 C21.0930958,36.8440078 21.1196814,36.6849502 21.1920347,36.5453064 C21.2892912,36.3664944 21.4528434,36.2340032 21.6466831,36.1771239 C21.8405228,36.1205852 22.0488332,36.1440863 22.22551,36.2428586 C22.582902,36.4427875 22.9564473,36.6277303 23.3306656,36.8000711 C24.2483755,36.6348828 25.1442111,36.3620667 26,35.9870722 C23.531909,35.1141288 21.2899642,33.6887412 19.4414199,31.817856 L19.4414199,31.817856 Z M11.5320192,23.2685957 C11.3637555,22.2100283 11.2789507,21.1391994 11.2789507,20.0666677 C11.2789507,19.9304299 11.2789507,19.7952139 11.2789507,19.6603385 C11.3011615,19.241748 11.6400444,18.9120526 12.054646,18.9059219 C12.2562259,18.910009 12.448383,18.9951576 12.5880418,19.142635 C12.7280372,19.2901124 12.8040923,19.4876572 12.7997175,19.6920138 L12.7997175,20.0666677 C12.8003905,21.0571162 12.8784648,22.0455211 13.0339405,23.0233677 C13.1005728,23.4426395 12.8188995,23.837729 12.4042979,23.9051666 C12.3639146,23.9119785 12.3228583,23.9153845 12.281802,23.9153845 C11.9092662,23.9147033 11.5915845,23.6412059 11.5320192,23.2685957 Z M14.9541651,30.3389951 C14.8387363,30.4067733 14.7074906,30.4421952 14.5742258,30.4415237 C14.3019752,30.4421952 14.0499163,30.295399 13.9139592,30.0566424 C13.3186425,29.0096551 12.818563,27.9102163 12.4194416,26.7716092 C12.2851672,26.3727732 12.4928046,25.9385153 12.8851954,25.7975092 C13.2779227,25.6568437 13.7093506,25.8618815 13.8530478,26.2573117 C14.2215452,27.3077049 14.6835971,28.3216544 15.2334828,29.2868989 C15.3344409,29.464008 15.3613631,29.6744954 15.3088649,29.8720402 C15.2560301,30.0692443 15.1281497,30.2374979 14.952819,30.3389951 L14.9541651,30.3389951 Z M19.5888188,35.4438242 C19.3219527,35.7718165 18.8430743,35.8191592 18.518662,35.5490678 C18.0199286,35.1342238 17.5302814,34.6870233 17.0699121,34.2190467 C16.6899728,33.8382621 16.322485,33.4319329 15.9718236,33.0140236 C15.6999095,32.6897777 15.7389467,32.2037495 16.0593207,31.9285493 C16.3796946,31.653349 16.8595826,31.6928578 17.1314966,32.0171037 C17.4555724,32.4019754 17.7964745,32.7783322 18.1447803,33.1301663 C18.572843,33.5634024 19.0237894,33.976884 19.4844954,34.3617557 C19.8078981,34.6318471 19.8536658,35.1161723 19.5874727,35.4438242 L19.5888188,35.4438242 Z" id="Shape"></path>
                                <path d="M29.5061157,33.0778731 C29.8289318,33.1493221 30.1654849,33.1940645 30.5000754,33.2408879 C32.7872623,30.1318143 33.5611052,26.0623407 32.588732,22.2564655 C31.6163586,18.4502436 29.0112617,15.3515751 25.5567691,13.8917256 L25.5525172,13.8917256 C25.4004305,13.886523 25.253577,13.830335 25.133543,13.7311387 C23.8638649,13.2500717 22.5258295,13.0024279 21.1776551,13 C20.8937599,13 20.6128085,13.0225447 20.3328383,13.0437019 C20.1850035,13.3627947 20.0371688,13.6818875 19.9099393,14.007917 C19.8114918,14.2677002 19.5897397,14.452219 19.3284123,14.4917588 C19.0667579,14.5309517 18.8054305,14.419616 18.6422236,14.1993727 C18.4793437,13.9787825 18.4397685,13.682928 18.5382159,13.4231448 C18.5522799,13.3856861 18.5692874,13.3496147 18.5840055,13.3118092 C18.1143358,13.4241853 17.6512074,13.5670834 17.1982182,13.7398097 C15.4585433,18.1526548 15.6197878,23.1499253 17.6391059,27.4264624 C19.658424,31.7029994 23.3353229,34.8335771 27.7092038,36 C28.2783022,35.5941972 28.8130585,35.1367152 29.3079124,34.6331036 C29.2732432,34.6251262 29.2339951,34.6230452 29.2016153,34.6150679 C28.9370172,34.5640824 28.719517,34.3653431 28.633171,34.0951547 C28.5471521,33.8253132 28.6056973,33.5270309 28.786893,33.3161522 C28.9677617,33.1052734 29.2424988,33.0154419 29.5038262,33.0809947 L29.5061157,33.0778731 Z M17.4817852,19.36382 L17.4817852,19.2705201 C17.4814591,18.2865351 17.5671509,17.3049779 17.7375534,16.3383349 C17.8131061,15.9127622 18.1993734,15.6325155 18.6006859,15.7122887 C19.0019984,15.7920619 19.2662694,16.2020267 19.1907167,16.6272526 C19.0369947,17.4988615 18.9598066,18.3836503 18.9601337,19.2705201 C18.9683104,19.7103132 18.6458213,20.0779636 18.2314262,20.1012019 L18.22096,20.1012019 C18.0302793,20.1091792 17.8445046,20.0356491 17.7055007,19.8969131 C17.5664968,19.7581771 17.4860381,19.5660278 17.4817852,19.36382 Z M19.567172,25.6978119 C19.1900625,25.8629077 18.7580057,25.6731862 18.6016671,25.2736266 C18.235678,24.3381992 17.9573431,23.3667004 17.7702602,22.3733507 C17.6911097,21.9495122 17.9504747,21.5378131 18.3501518,21.4531841 C18.7495019,21.3682083 19.1383858,21.6422119 19.2194987,22.0653568 C19.3879387,22.9591634 19.6381458,23.833547 19.9668491,24.6756744 C20.1218793,25.0748873 19.9429732,25.5320223 19.567172,25.6978119 Z M22.8035102,30.3048874 C22.5134009,30.6090661 22.0456936,30.6062914 21.7585279,30.2986443 C21.0867301,29.5792982 20.4813271,28.7933587 19.9504958,27.9519249 C19.7876159,27.719889 19.7585068,27.4112014 19.874943,27.1493372 C19.9913793,26.8878199 20.2343908,26.7150936 20.5068385,26.7008731 C20.7796132,26.6866526 21.0373428,26.8326723 21.1776551,27.0810098 C21.6548473,27.8398956 22.1994156,28.5484897 22.8035102,29.1974273 C23.0916572,29.5033402 23.0916572,29.9989745 22.8035102,30.3048874 Z M27.4328314,33.2832023 C27.3559703,33.474658 27.2104251,33.6255334 27.0282482,33.7032256 C26.8463983,33.7805709 26.642635,33.778143 26.4624204,33.6962888 C25.5832616,33.2981165 24.7426966,32.8097658 23.9531544,32.2385203 C23.6506165,31.9822056 23.586184,31.5216021 23.8049926,31.1830863 C24.0241282,30.8445705 24.4522602,30.7425995 24.7868509,30.9493161 C25.4965885,31.4636798 26.2524427,31.9027792 27.0432933,32.2603712 C27.4174591,32.4303228 27.5914593,32.8891921 27.4328314,33.286324 L27.4328314,33.2832023 Z" id="Shape"></path>
                                <path d="M34.1731282,18.7723569 C36.7418478,23.6737358 36.1878629,29.6581041 32.7650273,33.9876781 L32.0034657,42.1574375 C31.9830097,42.3736948 32.0537669,42.5889305 32.1982993,42.7493355 C32.3424963,42.9100812 32.547055,43.0010114 32.7610031,43 L38.8481308,43 C39.2401457,43.0020331 39.5691161,42.6992728 39.6060038,42.3028578 L43,5.71790624 L35.4537993,5 L34.1731282,18.7723569 Z" id="Shape"></path>
                                <path d="M41.9385052,0.39759545 L38.4418653,0.00686173855 C38.1325611,-0.029866002 37.823775,0.0818603505 37.5838959,0.317658671 C37.3442758,0.553456834 37.1937685,0.893574232 37.1655322,1.2623948 L37,3.34908576 L42.8293738,4 L42.995165,1.91516089 C43.053192,1.15097699 42.5822414,0.474445905 41.9413548,0.400990471 L41.9385052,0.39759545 Z" id="Shape"></path>
                                <path d="M22.6164875,39.3434062 C21.0750033,39.632884 19.4976769,39.5154192 18,39 L18,42.2998605 C18,42.6866574 18.2686845,43 18.6000266,43 L23.3999735,43 C23.7313155,43 24,42.6866574 24,42.2998605 L24,39 C23.6036108,39.1311018 23.2011151,39.2355494 22.7946369,39.3124128 C22.7380858,39.3331784 22.6791451,39.3437162 22.619939,39.3440261 L22.6164875,39.3434062 Z" id="Shape"></path>
                                <path d="M24,1.64355562 C24.0026069,1.22103776 23.8789155,0.814377606 23.6561652,0.513082545 C23.4334148,0.212139853 23.1298809,0.0408774555 22.8123093,0.0373534918 L19.2210219,0 L19.2106922,0 C18.5535652,0 18.019335,0.704783716 18.0137729,1.57906789 L18,4 L23.9853908,4 L24,1.64355562 Z" id="Shape"></path>
                            </g>
                        </g>
                    </g>
                </g>
            </g>
        </g>
    </g>
</svg>