<?xml version="1.0" encoding="UTF-8"?>
<svg width="90px" height="63px" viewBox="0 0 90 63" version="1.1" xmlns="http://www.w3.org/2000/svg" xmlns:xlink="http://www.w3.org/1999/xlink">
    <title>Youtube</title>
    <g id="Page-1" stroke="none" stroke-width="1" fill="none" fill-rule="evenodd">
        <path d="M36,45 L36,18 L59.382,31.5 L36,45 Z M88.119,9.838 C87.084,5.965 84.035,2.916 80.162,1.881 C73.144,0 45,0 45,0 C45,0 16.856,0 9.838,1.881 C5.965,2.916 2.916,5.965 1.881,9.838 C0,16.856 0,31.5 0,31.5 C0,31.5 0,46.144 1.881,53.163 C2.916,57.035 5.965,60.084 9.838,61.12 C16.856,63 45,63 45,63 C45,63 73.144,63 80.162,61.12 C84.035,60.084 87.084,57.035 88.119,53.163 C90,46.144 90,31.5 90,31.5 C90,31.5 90,16.856 88.119,9.838 L88.119,9.838 Z" id="Youtube" fill="#FFFFFF"></path>
    </g>
</svg>