<svg width="90" height="30" viewBox="0 0 90 30" xmlns="http://www.w3.org/2000/svg">
    <path d="M33.533 17.68C32.556 18.56 31.377 19 30 19c-1.376 0-2.555-.44-3.532-1.32C25.489 16.8 25 15.74 25 14.5c0-1.24.49-2.3 1.467-3.18.977-.88 2.156-1.32 3.532-1.32 1.378 0 2.557.44 3.534 1.32.978.88 1.467 1.94 1.467 3.18 0 1.24-.49 2.3-1.467 3.18zM30 4c-3.037 0-5.63 1.074-7.777 3.222C20.074 9.37 19 11.962 19 15c0 3.039 1.074 5.632 3.222 7.78 2.147 2.147 4.74 3.22 7.777 3.22 3.04 0 5.632-1.073 7.78-3.22C39.925 20.631 41 18.038 41 15c0-3.038-1.074-5.63-3.222-7.778C35.631 5.074 33.038 4 30 4zM0 7v4.57h8.363L0 23h19v-4.572h-8.364L19 7H0zm82 6.038L74 6v17h4.572v-6.924l3.427 3.014 3.43-3.014V23H90V6l-8 7.038zm-19.907 6.055C60.82 20.365 59.29 21 57.499 21c-1.79 0-3.322-.635-4.592-1.907C51.635 17.823 51 16.29 51 14.499c0-1.79.635-3.322 1.907-4.593C54.177 8.635 55.708 8 57.5 8c1.792 0 3.322.635 4.594 1.906C63.363 11.177 64 12.71 64 14.5c0 1.792-.636 3.324-1.907 4.594zM56.999 0c-4.143 0-7.677 1.464-10.607 4.392C43.464 7.322 42 10.858 42 15c0 4.143 1.464 7.68 4.392 10.609C49.322 28.536 52.856 30 57 30c4.145 0 7.68-1.464 10.609-4.392C70.536 22.678 72 19.142 72 14.999c0-4.141-1.464-7.677-4.392-10.607C64.678 1.464 61.144 0 56.999 0z" fill="#EA2030" fill-rule="evenodd"/>
</svg>
